G04 #@! TF.FileFunction,Copper,L1,Top,Signal*
%FSLAX46Y46*%
G04 Gerber Fmt 4.6, Leading zero omitted, Abs format (unit mm)*
G04 Created by KiCad (PCBNEW 4.0.2-stable) date 2019-03-27 10:59:48 PM*
%MOMM*%
G01*
G04 APERTURE LIST*
%ADD10C,0.200000*%
%ADD11C,0.010000*%
%ADD12R,1.700000X1.700000*%
%ADD13O,1.700000X1.700000*%
%ADD14O,2.500000X4.000000*%
%ADD15O,2.000000X2.500000*%
%ADD16O,3.500000X1.500000*%
%ADD17C,1.524000*%
%ADD18R,1.500000X2.000000*%
%ADD19R,2.800000X1.600000*%
%ADD20C,1.800000*%
%ADD21C,1.270000*%
%ADD22R,2.500000X3.500000*%
%ADD23C,1.750000*%
%ADD24C,0.800000*%
%ADD25C,0.900000*%
%ADD26C,1.000000*%
%ADD27C,0.500000*%
%ADD28C,0.250000*%
%ADD29C,0.350000*%
G04 APERTURE END LIST*
D10*
D11*
G36*
X121227439Y-39043464D02*
X121295647Y-39047415D01*
X121356151Y-39053762D01*
X121403869Y-39062399D01*
X121404973Y-39062673D01*
X121519198Y-39099312D01*
X121621575Y-39149216D01*
X121713262Y-39213002D01*
X121752621Y-39247602D01*
X121826160Y-39326422D01*
X121888009Y-39413724D01*
X121938935Y-39511158D01*
X121979709Y-39620374D01*
X122011098Y-39743020D01*
X122028063Y-39838857D01*
X122035813Y-39901028D01*
X122041109Y-39965122D01*
X122043932Y-40027823D01*
X122044263Y-40085817D01*
X122042082Y-40135788D01*
X122037370Y-40174422D01*
X122030130Y-40198366D01*
X121997204Y-40241245D01*
X121954449Y-40271348D01*
X121905481Y-40287752D01*
X121853919Y-40289537D01*
X121803382Y-40275779D01*
X121779005Y-40262373D01*
X121755632Y-40244304D01*
X121737519Y-40223098D01*
X121723769Y-40196040D01*
X121713484Y-40160415D01*
X121705765Y-40113507D01*
X121699717Y-40052603D01*
X121696902Y-40014037D01*
X121685453Y-39895980D01*
X121667730Y-39793549D01*
X121643228Y-39705168D01*
X121611441Y-39629259D01*
X121571862Y-39564248D01*
X121540069Y-39525273D01*
X121500645Y-39485550D01*
X121462322Y-39455684D01*
X121419077Y-39431823D01*
X121364890Y-39410115D01*
X121354150Y-39406360D01*
X121320632Y-39395639D01*
X121290604Y-39388527D01*
X121258577Y-39384280D01*
X121219060Y-39382152D01*
X121170286Y-39381421D01*
X121093898Y-39383704D01*
X121029970Y-39392455D01*
X120973552Y-39409028D01*
X120919695Y-39434777D01*
X120876761Y-39461776D01*
X120810013Y-39518011D01*
X120751640Y-39588882D01*
X120702325Y-39672597D01*
X120662750Y-39767360D01*
X120633597Y-39871378D01*
X120615550Y-39982856D01*
X120609290Y-40100001D01*
X120610833Y-40160893D01*
X120623216Y-40271355D01*
X120648786Y-40370453D01*
X120688286Y-40460027D01*
X120742456Y-40541914D01*
X120783954Y-40589861D01*
X120833429Y-40639291D01*
X120883042Y-40682586D01*
X120935873Y-40721737D01*
X120995004Y-40758734D01*
X121063517Y-40795568D01*
X121144493Y-40834230D01*
X121201504Y-40859641D01*
X121322994Y-40914476D01*
X121428751Y-40966272D01*
X121520663Y-41016316D01*
X121600619Y-41065889D01*
X121670506Y-41116278D01*
X121732212Y-41168764D01*
X121787626Y-41224632D01*
X121838634Y-41285167D01*
X121851062Y-41301370D01*
X121917949Y-41401459D01*
X121969937Y-41505301D01*
X122007712Y-41615125D01*
X122031959Y-41733157D01*
X122043364Y-41861626D01*
X122044469Y-41929821D01*
X122036863Y-42078151D01*
X122015960Y-42217698D01*
X121982273Y-42347703D01*
X121936314Y-42467405D01*
X121878596Y-42576042D01*
X121809633Y-42672853D01*
X121729939Y-42757077D01*
X121640025Y-42827953D01*
X121540406Y-42884720D01*
X121431594Y-42926616D01*
X121360220Y-42944691D01*
X121295754Y-42954748D01*
X121220978Y-42961273D01*
X121143439Y-42963934D01*
X121070684Y-42962403D01*
X121030630Y-42959128D01*
X120915323Y-42938986D01*
X120805908Y-42906011D01*
X120705372Y-42861374D01*
X120616703Y-42806247D01*
X120592210Y-42787306D01*
X120515815Y-42713660D01*
X120448818Y-42625680D01*
X120391776Y-42524878D01*
X120345246Y-42412763D01*
X120309783Y-42290844D01*
X120285944Y-42160632D01*
X120274285Y-42023635D01*
X120273709Y-41922962D01*
X120275397Y-41873567D01*
X120277761Y-41838654D01*
X120281371Y-41814561D01*
X120286793Y-41797625D01*
X120294598Y-41784186D01*
X120295424Y-41783040D01*
X120330465Y-41749518D01*
X120375363Y-41727809D01*
X120425635Y-41718611D01*
X120476799Y-41722620D01*
X120524373Y-41740533D01*
X120533367Y-41746046D01*
X120569805Y-41778907D01*
X120593712Y-41821835D01*
X120605882Y-41876652D01*
X120607883Y-41916811D01*
X120613006Y-42031045D01*
X120627840Y-42139661D01*
X120651715Y-42240497D01*
X120683959Y-42331392D01*
X120723901Y-42410185D01*
X120770870Y-42474715D01*
X120786076Y-42490815D01*
X120850561Y-42544441D01*
X120922152Y-42583716D01*
X121002452Y-42609165D01*
X121093061Y-42621315D01*
X121183359Y-42621386D01*
X121283688Y-42608847D01*
X121373172Y-42581914D01*
X121451855Y-42540537D01*
X121519780Y-42484662D01*
X121576993Y-42414239D01*
X121623537Y-42329216D01*
X121659457Y-42229541D01*
X121684798Y-42115162D01*
X121696696Y-42021763D01*
X121700869Y-41897768D01*
X121689572Y-41782687D01*
X121662916Y-41676785D01*
X121621011Y-41580326D01*
X121563967Y-41493575D01*
X121491897Y-41416799D01*
X121420509Y-41360676D01*
X121392918Y-41343653D01*
X121351727Y-41320746D01*
X121299914Y-41293442D01*
X121240457Y-41263228D01*
X121176335Y-41231589D01*
X121110526Y-41200013D01*
X121046008Y-41169986D01*
X120985759Y-41142994D01*
X120974834Y-41138242D01*
X120842845Y-41072644D01*
X120722166Y-40995331D01*
X120613738Y-40907328D01*
X120518500Y-40809659D01*
X120437392Y-40703346D01*
X120371354Y-40589415D01*
X120321326Y-40468888D01*
X120302439Y-40405821D01*
X120289293Y-40340766D01*
X120279777Y-40262706D01*
X120274053Y-40176446D01*
X120272278Y-40086790D01*
X120274612Y-39998540D01*
X120281215Y-39916502D01*
X120285193Y-39885771D01*
X120313309Y-39743395D01*
X120353977Y-39612396D01*
X120406745Y-39493319D01*
X120471157Y-39386707D01*
X120546760Y-39293107D01*
X120633099Y-39213062D01*
X120729720Y-39147118D01*
X120836168Y-39095819D01*
X120951989Y-39059709D01*
X120979211Y-39053750D01*
X121027412Y-39047052D01*
X121088239Y-39043176D01*
X121156609Y-39042015D01*
X121227439Y-39043464D01*
X121227439Y-39043464D01*
G37*
X121227439Y-39043464D02*
X121295647Y-39047415D01*
X121356151Y-39053762D01*
X121403869Y-39062399D01*
X121404973Y-39062673D01*
X121519198Y-39099312D01*
X121621575Y-39149216D01*
X121713262Y-39213002D01*
X121752621Y-39247602D01*
X121826160Y-39326422D01*
X121888009Y-39413724D01*
X121938935Y-39511158D01*
X121979709Y-39620374D01*
X122011098Y-39743020D01*
X122028063Y-39838857D01*
X122035813Y-39901028D01*
X122041109Y-39965122D01*
X122043932Y-40027823D01*
X122044263Y-40085817D01*
X122042082Y-40135788D01*
X122037370Y-40174422D01*
X122030130Y-40198366D01*
X121997204Y-40241245D01*
X121954449Y-40271348D01*
X121905481Y-40287752D01*
X121853919Y-40289537D01*
X121803382Y-40275779D01*
X121779005Y-40262373D01*
X121755632Y-40244304D01*
X121737519Y-40223098D01*
X121723769Y-40196040D01*
X121713484Y-40160415D01*
X121705765Y-40113507D01*
X121699717Y-40052603D01*
X121696902Y-40014037D01*
X121685453Y-39895980D01*
X121667730Y-39793549D01*
X121643228Y-39705168D01*
X121611441Y-39629259D01*
X121571862Y-39564248D01*
X121540069Y-39525273D01*
X121500645Y-39485550D01*
X121462322Y-39455684D01*
X121419077Y-39431823D01*
X121364890Y-39410115D01*
X121354150Y-39406360D01*
X121320632Y-39395639D01*
X121290604Y-39388527D01*
X121258577Y-39384280D01*
X121219060Y-39382152D01*
X121170286Y-39381421D01*
X121093898Y-39383704D01*
X121029970Y-39392455D01*
X120973552Y-39409028D01*
X120919695Y-39434777D01*
X120876761Y-39461776D01*
X120810013Y-39518011D01*
X120751640Y-39588882D01*
X120702325Y-39672597D01*
X120662750Y-39767360D01*
X120633597Y-39871378D01*
X120615550Y-39982856D01*
X120609290Y-40100001D01*
X120610833Y-40160893D01*
X120623216Y-40271355D01*
X120648786Y-40370453D01*
X120688286Y-40460027D01*
X120742456Y-40541914D01*
X120783954Y-40589861D01*
X120833429Y-40639291D01*
X120883042Y-40682586D01*
X120935873Y-40721737D01*
X120995004Y-40758734D01*
X121063517Y-40795568D01*
X121144493Y-40834230D01*
X121201504Y-40859641D01*
X121322994Y-40914476D01*
X121428751Y-40966272D01*
X121520663Y-41016316D01*
X121600619Y-41065889D01*
X121670506Y-41116278D01*
X121732212Y-41168764D01*
X121787626Y-41224632D01*
X121838634Y-41285167D01*
X121851062Y-41301370D01*
X121917949Y-41401459D01*
X121969937Y-41505301D01*
X122007712Y-41615125D01*
X122031959Y-41733157D01*
X122043364Y-41861626D01*
X122044469Y-41929821D01*
X122036863Y-42078151D01*
X122015960Y-42217698D01*
X121982273Y-42347703D01*
X121936314Y-42467405D01*
X121878596Y-42576042D01*
X121809633Y-42672853D01*
X121729939Y-42757077D01*
X121640025Y-42827953D01*
X121540406Y-42884720D01*
X121431594Y-42926616D01*
X121360220Y-42944691D01*
X121295754Y-42954748D01*
X121220978Y-42961273D01*
X121143439Y-42963934D01*
X121070684Y-42962403D01*
X121030630Y-42959128D01*
X120915323Y-42938986D01*
X120805908Y-42906011D01*
X120705372Y-42861374D01*
X120616703Y-42806247D01*
X120592210Y-42787306D01*
X120515815Y-42713660D01*
X120448818Y-42625680D01*
X120391776Y-42524878D01*
X120345246Y-42412763D01*
X120309783Y-42290844D01*
X120285944Y-42160632D01*
X120274285Y-42023635D01*
X120273709Y-41922962D01*
X120275397Y-41873567D01*
X120277761Y-41838654D01*
X120281371Y-41814561D01*
X120286793Y-41797625D01*
X120294598Y-41784186D01*
X120295424Y-41783040D01*
X120330465Y-41749518D01*
X120375363Y-41727809D01*
X120425635Y-41718611D01*
X120476799Y-41722620D01*
X120524373Y-41740533D01*
X120533367Y-41746046D01*
X120569805Y-41778907D01*
X120593712Y-41821835D01*
X120605882Y-41876652D01*
X120607883Y-41916811D01*
X120613006Y-42031045D01*
X120627840Y-42139661D01*
X120651715Y-42240497D01*
X120683959Y-42331392D01*
X120723901Y-42410185D01*
X120770870Y-42474715D01*
X120786076Y-42490815D01*
X120850561Y-42544441D01*
X120922152Y-42583716D01*
X121002452Y-42609165D01*
X121093061Y-42621315D01*
X121183359Y-42621386D01*
X121283688Y-42608847D01*
X121373172Y-42581914D01*
X121451855Y-42540537D01*
X121519780Y-42484662D01*
X121576993Y-42414239D01*
X121623537Y-42329216D01*
X121659457Y-42229541D01*
X121684798Y-42115162D01*
X121696696Y-42021763D01*
X121700869Y-41897768D01*
X121689572Y-41782687D01*
X121662916Y-41676785D01*
X121621011Y-41580326D01*
X121563967Y-41493575D01*
X121491897Y-41416799D01*
X121420509Y-41360676D01*
X121392918Y-41343653D01*
X121351727Y-41320746D01*
X121299914Y-41293442D01*
X121240457Y-41263228D01*
X121176335Y-41231589D01*
X121110526Y-41200013D01*
X121046008Y-41169986D01*
X120985759Y-41142994D01*
X120974834Y-41138242D01*
X120842845Y-41072644D01*
X120722166Y-40995331D01*
X120613738Y-40907328D01*
X120518500Y-40809659D01*
X120437392Y-40703346D01*
X120371354Y-40589415D01*
X120321326Y-40468888D01*
X120302439Y-40405821D01*
X120289293Y-40340766D01*
X120279777Y-40262706D01*
X120274053Y-40176446D01*
X120272278Y-40086790D01*
X120274612Y-39998540D01*
X120281215Y-39916502D01*
X120285193Y-39885771D01*
X120313309Y-39743395D01*
X120353977Y-39612396D01*
X120406745Y-39493319D01*
X120471157Y-39386707D01*
X120546760Y-39293107D01*
X120633099Y-39213062D01*
X120729720Y-39147118D01*
X120836168Y-39095819D01*
X120951989Y-39059709D01*
X120979211Y-39053750D01*
X121027412Y-39047052D01*
X121088239Y-39043176D01*
X121156609Y-39042015D01*
X121227439Y-39043464D01*
G36*
X124363498Y-39048500D02*
X124408104Y-39070282D01*
X124443509Y-39103251D01*
X124467771Y-39144543D01*
X124478950Y-39191293D01*
X124475108Y-39240637D01*
X124465702Y-39268264D01*
X124459025Y-39281477D01*
X124444211Y-39309518D01*
X124421844Y-39351308D01*
X124392512Y-39405768D01*
X124356800Y-39471818D01*
X124315293Y-39548379D01*
X124268579Y-39634370D01*
X124217242Y-39728714D01*
X124161869Y-39830330D01*
X124103045Y-39938138D01*
X124041358Y-40051061D01*
X123977391Y-40168017D01*
X123970283Y-40181004D01*
X123492572Y-41053830D01*
X123492572Y-42844442D01*
X123470783Y-42881622D01*
X123437908Y-42920695D01*
X123394085Y-42947906D01*
X123343336Y-42961637D01*
X123289684Y-42960272D01*
X123279976Y-42958286D01*
X123234889Y-42939977D01*
X123194908Y-42909598D01*
X123168259Y-42875049D01*
X123165650Y-42869344D01*
X123163328Y-42861609D01*
X123161270Y-42850769D01*
X123159452Y-42835749D01*
X123157851Y-42815476D01*
X123156444Y-42788875D01*
X123155206Y-42754872D01*
X123154115Y-42712392D01*
X123153147Y-42660361D01*
X123152279Y-42597705D01*
X123151488Y-42523349D01*
X123150749Y-42436219D01*
X123150040Y-42335241D01*
X123149337Y-42219340D01*
X123148616Y-42087443D01*
X123147857Y-41938893D01*
X123143322Y-41031750D01*
X122660088Y-40149509D01*
X122578651Y-40000676D01*
X122505726Y-39867067D01*
X122440986Y-39748063D01*
X122384102Y-39643045D01*
X122334747Y-39551393D01*
X122292591Y-39472489D01*
X122257307Y-39405713D01*
X122228567Y-39350446D01*
X122206042Y-39306070D01*
X122189405Y-39271965D01*
X122178327Y-39247511D01*
X122172479Y-39232091D01*
X122171421Y-39227625D01*
X122172473Y-39173467D01*
X122189933Y-39124602D01*
X122222302Y-39083917D01*
X122259353Y-39058461D01*
X122306807Y-39043357D01*
X122357856Y-39042260D01*
X122407589Y-39054119D01*
X122451099Y-39077885D01*
X122478563Y-39105352D01*
X122486123Y-39117625D01*
X122501710Y-39144668D01*
X122524679Y-39185318D01*
X122554384Y-39238408D01*
X122590181Y-39302774D01*
X122631425Y-39377249D01*
X122677470Y-39460670D01*
X122727672Y-39551871D01*
X122781385Y-39649686D01*
X122837964Y-39752951D01*
X122896765Y-39860500D01*
X122907238Y-39879679D01*
X122965972Y-39987212D01*
X123022289Y-40090228D01*
X123075577Y-40187612D01*
X123125222Y-40278245D01*
X123170611Y-40361011D01*
X123211129Y-40434792D01*
X123246163Y-40498472D01*
X123275100Y-40550934D01*
X123297326Y-40591060D01*
X123312227Y-40617733D01*
X123319191Y-40629837D01*
X123319594Y-40630431D01*
X123324759Y-40623658D01*
X123338026Y-40602051D01*
X123358788Y-40566690D01*
X123386434Y-40518656D01*
X123420357Y-40459028D01*
X123459948Y-40388887D01*
X123504596Y-40309312D01*
X123553693Y-40221385D01*
X123606631Y-40126184D01*
X123662800Y-40024791D01*
X123721591Y-39918286D01*
X123741553Y-39882038D01*
X123801465Y-39773261D01*
X123859170Y-39668635D01*
X123914034Y-39569305D01*
X123965420Y-39476413D01*
X124012695Y-39391102D01*
X124055223Y-39314514D01*
X124092370Y-39247794D01*
X124123500Y-39192083D01*
X124147980Y-39148525D01*
X124165173Y-39118262D01*
X124174446Y-39102438D01*
X124175539Y-39100747D01*
X124204525Y-39073296D01*
X124245338Y-39052837D01*
X124292217Y-39041907D01*
X124311629Y-39040771D01*
X124363498Y-39048500D01*
X124363498Y-39048500D01*
G37*
X124363498Y-39048500D02*
X124408104Y-39070282D01*
X124443509Y-39103251D01*
X124467771Y-39144543D01*
X124478950Y-39191293D01*
X124475108Y-39240637D01*
X124465702Y-39268264D01*
X124459025Y-39281477D01*
X124444211Y-39309518D01*
X124421844Y-39351308D01*
X124392512Y-39405768D01*
X124356800Y-39471818D01*
X124315293Y-39548379D01*
X124268579Y-39634370D01*
X124217242Y-39728714D01*
X124161869Y-39830330D01*
X124103045Y-39938138D01*
X124041358Y-40051061D01*
X123977391Y-40168017D01*
X123970283Y-40181004D01*
X123492572Y-41053830D01*
X123492572Y-42844442D01*
X123470783Y-42881622D01*
X123437908Y-42920695D01*
X123394085Y-42947906D01*
X123343336Y-42961637D01*
X123289684Y-42960272D01*
X123279976Y-42958286D01*
X123234889Y-42939977D01*
X123194908Y-42909598D01*
X123168259Y-42875049D01*
X123165650Y-42869344D01*
X123163328Y-42861609D01*
X123161270Y-42850769D01*
X123159452Y-42835749D01*
X123157851Y-42815476D01*
X123156444Y-42788875D01*
X123155206Y-42754872D01*
X123154115Y-42712392D01*
X123153147Y-42660361D01*
X123152279Y-42597705D01*
X123151488Y-42523349D01*
X123150749Y-42436219D01*
X123150040Y-42335241D01*
X123149337Y-42219340D01*
X123148616Y-42087443D01*
X123147857Y-41938893D01*
X123143322Y-41031750D01*
X122660088Y-40149509D01*
X122578651Y-40000676D01*
X122505726Y-39867067D01*
X122440986Y-39748063D01*
X122384102Y-39643045D01*
X122334747Y-39551393D01*
X122292591Y-39472489D01*
X122257307Y-39405713D01*
X122228567Y-39350446D01*
X122206042Y-39306070D01*
X122189405Y-39271965D01*
X122178327Y-39247511D01*
X122172479Y-39232091D01*
X122171421Y-39227625D01*
X122172473Y-39173467D01*
X122189933Y-39124602D01*
X122222302Y-39083917D01*
X122259353Y-39058461D01*
X122306807Y-39043357D01*
X122357856Y-39042260D01*
X122407589Y-39054119D01*
X122451099Y-39077885D01*
X122478563Y-39105352D01*
X122486123Y-39117625D01*
X122501710Y-39144668D01*
X122524679Y-39185318D01*
X122554384Y-39238408D01*
X122590181Y-39302774D01*
X122631425Y-39377249D01*
X122677470Y-39460670D01*
X122727672Y-39551871D01*
X122781385Y-39649686D01*
X122837964Y-39752951D01*
X122896765Y-39860500D01*
X122907238Y-39879679D01*
X122965972Y-39987212D01*
X123022289Y-40090228D01*
X123075577Y-40187612D01*
X123125222Y-40278245D01*
X123170611Y-40361011D01*
X123211129Y-40434792D01*
X123246163Y-40498472D01*
X123275100Y-40550934D01*
X123297326Y-40591060D01*
X123312227Y-40617733D01*
X123319191Y-40629837D01*
X123319594Y-40630431D01*
X123324759Y-40623658D01*
X123338026Y-40602051D01*
X123358788Y-40566690D01*
X123386434Y-40518656D01*
X123420357Y-40459028D01*
X123459948Y-40388887D01*
X123504596Y-40309312D01*
X123553693Y-40221385D01*
X123606631Y-40126184D01*
X123662800Y-40024791D01*
X123721591Y-39918286D01*
X123741553Y-39882038D01*
X123801465Y-39773261D01*
X123859170Y-39668635D01*
X123914034Y-39569305D01*
X123965420Y-39476413D01*
X124012695Y-39391102D01*
X124055223Y-39314514D01*
X124092370Y-39247794D01*
X124123500Y-39192083D01*
X124147980Y-39148525D01*
X124165173Y-39118262D01*
X124174446Y-39102438D01*
X124175539Y-39100747D01*
X124204525Y-39073296D01*
X124245338Y-39052837D01*
X124292217Y-39041907D01*
X124311629Y-39040771D01*
X124363498Y-39048500D01*
G36*
X125495069Y-39042188D02*
X125575893Y-39046702D01*
X125650737Y-39055110D01*
X125713762Y-39067229D01*
X125715072Y-39067561D01*
X125828535Y-39105225D01*
X125931111Y-39157275D01*
X126022634Y-39223462D01*
X126102939Y-39303535D01*
X126171860Y-39397247D01*
X126229231Y-39504346D01*
X126274889Y-39624584D01*
X126308666Y-39757712D01*
X126330398Y-39903479D01*
X126338099Y-40007274D01*
X126339738Y-40055135D01*
X126340171Y-40099442D01*
X126339422Y-40135453D01*
X126337515Y-40158426D01*
X126337340Y-40159414D01*
X126321372Y-40199527D01*
X126291633Y-40236271D01*
X126252497Y-40266208D01*
X126208336Y-40285903D01*
X126168643Y-40292030D01*
X126120617Y-40283605D01*
X126075302Y-40260608D01*
X126037322Y-40226458D01*
X126011300Y-40184574D01*
X126006948Y-40172463D01*
X126003030Y-40151990D01*
X125999002Y-40118060D01*
X125995332Y-40075350D01*
X125992488Y-40028535D01*
X125992436Y-40027430D01*
X125981194Y-39897501D01*
X125960408Y-39782825D01*
X125929892Y-39683111D01*
X125889457Y-39598067D01*
X125838917Y-39527403D01*
X125778086Y-39470827D01*
X125706776Y-39428048D01*
X125624800Y-39398776D01*
X125582803Y-39389648D01*
X125479717Y-39377707D01*
X125386080Y-39380713D01*
X125300541Y-39399043D01*
X125221744Y-39433067D01*
X125148337Y-39483161D01*
X125106271Y-39521131D01*
X125069299Y-39559603D01*
X125041636Y-39594103D01*
X125018211Y-39631724D01*
X124995862Y-39675572D01*
X124953107Y-39783490D01*
X124923313Y-39899910D01*
X124906889Y-40020741D01*
X124904245Y-40141894D01*
X124915790Y-40259281D01*
X124930425Y-40329040D01*
X124964135Y-40423471D01*
X125014966Y-40512664D01*
X125082497Y-40596006D01*
X125166306Y-40672885D01*
X125168587Y-40674704D01*
X125208010Y-40704865D01*
X125247284Y-40732106D01*
X125289299Y-40758023D01*
X125336942Y-40784212D01*
X125393103Y-40812267D01*
X125460669Y-40843783D01*
X125534830Y-40876960D01*
X125638068Y-40923724D01*
X125726475Y-40966639D01*
X125802537Y-41007265D01*
X125868740Y-41047167D01*
X125927571Y-41087905D01*
X125981515Y-41131042D01*
X126033058Y-41178141D01*
X126065031Y-41210152D01*
X126141430Y-41296593D01*
X126202607Y-41383602D01*
X126251121Y-41475349D01*
X126289530Y-41576005D01*
X126289540Y-41576036D01*
X126305371Y-41627336D01*
X126317226Y-41671948D01*
X126325646Y-41714070D01*
X126331174Y-41757899D01*
X126334354Y-41807633D01*
X126335727Y-41867470D01*
X126335864Y-41934357D01*
X126335279Y-42002274D01*
X126333834Y-42056176D01*
X126331213Y-42100182D01*
X126327102Y-42138411D01*
X126321187Y-42174982D01*
X126315229Y-42204489D01*
X126278177Y-42342991D01*
X126229465Y-42468616D01*
X126169407Y-42580996D01*
X126098317Y-42679765D01*
X126016511Y-42764555D01*
X125924302Y-42834998D01*
X125822006Y-42890726D01*
X125709938Y-42931372D01*
X125687857Y-42937286D01*
X125568786Y-42958803D01*
X125441173Y-42965384D01*
X125321695Y-42958559D01*
X125200237Y-42938478D01*
X125090112Y-42904748D01*
X124990045Y-42856766D01*
X124898759Y-42793928D01*
X124820361Y-42721349D01*
X124746145Y-42630044D01*
X124684791Y-42526021D01*
X124636337Y-42409400D01*
X124600823Y-42280299D01*
X124578289Y-42138836D01*
X124568773Y-41985129D01*
X124568475Y-41961571D01*
X124568282Y-41907536D01*
X124568795Y-41868287D01*
X124570396Y-41840471D01*
X124573465Y-41820736D01*
X124578385Y-41805728D01*
X124585538Y-41792094D01*
X124588289Y-41787590D01*
X124619803Y-41752989D01*
X124661726Y-41729509D01*
X124709626Y-41717842D01*
X124759069Y-41718674D01*
X124805623Y-41732695D01*
X124832736Y-41749607D01*
X124857590Y-41772062D01*
X124875484Y-41795924D01*
X124887789Y-41824943D01*
X124895874Y-41862871D01*
X124901111Y-41913460D01*
X124902926Y-41941748D01*
X124913014Y-42063018D01*
X124928988Y-42168684D01*
X124951426Y-42260494D01*
X124980908Y-42340193D01*
X125018010Y-42409527D01*
X125063311Y-42470242D01*
X125086048Y-42494734D01*
X125147460Y-42546313D01*
X125216934Y-42584256D01*
X125296154Y-42609173D01*
X125386805Y-42621670D01*
X125442929Y-42623471D01*
X125545827Y-42615880D01*
X125638684Y-42593190D01*
X125721327Y-42555527D01*
X125793581Y-42503017D01*
X125855275Y-42435784D01*
X125906234Y-42353955D01*
X125945945Y-42258675D01*
X125966585Y-42183626D01*
X125982581Y-42098126D01*
X125992810Y-42009524D01*
X125996164Y-41929821D01*
X125989286Y-41813288D01*
X125968460Y-41707803D01*
X125933332Y-41612402D01*
X125883545Y-41526115D01*
X125819393Y-41448643D01*
X125784271Y-41414993D01*
X125745836Y-41383673D01*
X125701508Y-41353073D01*
X125648709Y-41321580D01*
X125584860Y-41287584D01*
X125507383Y-41249474D01*
X125479215Y-41236111D01*
X125420823Y-41208587D01*
X125359683Y-41179741D01*
X125300925Y-41151993D01*
X125249679Y-41127765D01*
X125219751Y-41113595D01*
X125121522Y-41062702D01*
X125035000Y-41007746D01*
X124953755Y-40944273D01*
X124886744Y-40882923D01*
X124794891Y-40785494D01*
X124720065Y-40686991D01*
X124661198Y-40585036D01*
X124617220Y-40477252D01*
X124587063Y-40361263D01*
X124569657Y-40234691D01*
X124565475Y-40168444D01*
X124566058Y-40019397D01*
X124580149Y-39877408D01*
X124607172Y-39743380D01*
X124646551Y-39618218D01*
X124697710Y-39502826D01*
X124760074Y-39398108D01*
X124833067Y-39304967D01*
X124916113Y-39224309D01*
X125008638Y-39157036D01*
X125110065Y-39104054D01*
X125219819Y-39066267D01*
X125275107Y-39053826D01*
X125338837Y-39045567D01*
X125414104Y-39041748D01*
X125495069Y-39042188D01*
X125495069Y-39042188D01*
G37*
X125495069Y-39042188D02*
X125575893Y-39046702D01*
X125650737Y-39055110D01*
X125713762Y-39067229D01*
X125715072Y-39067561D01*
X125828535Y-39105225D01*
X125931111Y-39157275D01*
X126022634Y-39223462D01*
X126102939Y-39303535D01*
X126171860Y-39397247D01*
X126229231Y-39504346D01*
X126274889Y-39624584D01*
X126308666Y-39757712D01*
X126330398Y-39903479D01*
X126338099Y-40007274D01*
X126339738Y-40055135D01*
X126340171Y-40099442D01*
X126339422Y-40135453D01*
X126337515Y-40158426D01*
X126337340Y-40159414D01*
X126321372Y-40199527D01*
X126291633Y-40236271D01*
X126252497Y-40266208D01*
X126208336Y-40285903D01*
X126168643Y-40292030D01*
X126120617Y-40283605D01*
X126075302Y-40260608D01*
X126037322Y-40226458D01*
X126011300Y-40184574D01*
X126006948Y-40172463D01*
X126003030Y-40151990D01*
X125999002Y-40118060D01*
X125995332Y-40075350D01*
X125992488Y-40028535D01*
X125992436Y-40027430D01*
X125981194Y-39897501D01*
X125960408Y-39782825D01*
X125929892Y-39683111D01*
X125889457Y-39598067D01*
X125838917Y-39527403D01*
X125778086Y-39470827D01*
X125706776Y-39428048D01*
X125624800Y-39398776D01*
X125582803Y-39389648D01*
X125479717Y-39377707D01*
X125386080Y-39380713D01*
X125300541Y-39399043D01*
X125221744Y-39433067D01*
X125148337Y-39483161D01*
X125106271Y-39521131D01*
X125069299Y-39559603D01*
X125041636Y-39594103D01*
X125018211Y-39631724D01*
X124995862Y-39675572D01*
X124953107Y-39783490D01*
X124923313Y-39899910D01*
X124906889Y-40020741D01*
X124904245Y-40141894D01*
X124915790Y-40259281D01*
X124930425Y-40329040D01*
X124964135Y-40423471D01*
X125014966Y-40512664D01*
X125082497Y-40596006D01*
X125166306Y-40672885D01*
X125168587Y-40674704D01*
X125208010Y-40704865D01*
X125247284Y-40732106D01*
X125289299Y-40758023D01*
X125336942Y-40784212D01*
X125393103Y-40812267D01*
X125460669Y-40843783D01*
X125534830Y-40876960D01*
X125638068Y-40923724D01*
X125726475Y-40966639D01*
X125802537Y-41007265D01*
X125868740Y-41047167D01*
X125927571Y-41087905D01*
X125981515Y-41131042D01*
X126033058Y-41178141D01*
X126065031Y-41210152D01*
X126141430Y-41296593D01*
X126202607Y-41383602D01*
X126251121Y-41475349D01*
X126289530Y-41576005D01*
X126289540Y-41576036D01*
X126305371Y-41627336D01*
X126317226Y-41671948D01*
X126325646Y-41714070D01*
X126331174Y-41757899D01*
X126334354Y-41807633D01*
X126335727Y-41867470D01*
X126335864Y-41934357D01*
X126335279Y-42002274D01*
X126333834Y-42056176D01*
X126331213Y-42100182D01*
X126327102Y-42138411D01*
X126321187Y-42174982D01*
X126315229Y-42204489D01*
X126278177Y-42342991D01*
X126229465Y-42468616D01*
X126169407Y-42580996D01*
X126098317Y-42679765D01*
X126016511Y-42764555D01*
X125924302Y-42834998D01*
X125822006Y-42890726D01*
X125709938Y-42931372D01*
X125687857Y-42937286D01*
X125568786Y-42958803D01*
X125441173Y-42965384D01*
X125321695Y-42958559D01*
X125200237Y-42938478D01*
X125090112Y-42904748D01*
X124990045Y-42856766D01*
X124898759Y-42793928D01*
X124820361Y-42721349D01*
X124746145Y-42630044D01*
X124684791Y-42526021D01*
X124636337Y-42409400D01*
X124600823Y-42280299D01*
X124578289Y-42138836D01*
X124568773Y-41985129D01*
X124568475Y-41961571D01*
X124568282Y-41907536D01*
X124568795Y-41868287D01*
X124570396Y-41840471D01*
X124573465Y-41820736D01*
X124578385Y-41805728D01*
X124585538Y-41792094D01*
X124588289Y-41787590D01*
X124619803Y-41752989D01*
X124661726Y-41729509D01*
X124709626Y-41717842D01*
X124759069Y-41718674D01*
X124805623Y-41732695D01*
X124832736Y-41749607D01*
X124857590Y-41772062D01*
X124875484Y-41795924D01*
X124887789Y-41824943D01*
X124895874Y-41862871D01*
X124901111Y-41913460D01*
X124902926Y-41941748D01*
X124913014Y-42063018D01*
X124928988Y-42168684D01*
X124951426Y-42260494D01*
X124980908Y-42340193D01*
X125018010Y-42409527D01*
X125063311Y-42470242D01*
X125086048Y-42494734D01*
X125147460Y-42546313D01*
X125216934Y-42584256D01*
X125296154Y-42609173D01*
X125386805Y-42621670D01*
X125442929Y-42623471D01*
X125545827Y-42615880D01*
X125638684Y-42593190D01*
X125721327Y-42555527D01*
X125793581Y-42503017D01*
X125855275Y-42435784D01*
X125906234Y-42353955D01*
X125945945Y-42258675D01*
X125966585Y-42183626D01*
X125982581Y-42098126D01*
X125992810Y-42009524D01*
X125996164Y-41929821D01*
X125989286Y-41813288D01*
X125968460Y-41707803D01*
X125933332Y-41612402D01*
X125883545Y-41526115D01*
X125819393Y-41448643D01*
X125784271Y-41414993D01*
X125745836Y-41383673D01*
X125701508Y-41353073D01*
X125648709Y-41321580D01*
X125584860Y-41287584D01*
X125507383Y-41249474D01*
X125479215Y-41236111D01*
X125420823Y-41208587D01*
X125359683Y-41179741D01*
X125300925Y-41151993D01*
X125249679Y-41127765D01*
X125219751Y-41113595D01*
X125121522Y-41062702D01*
X125035000Y-41007746D01*
X124953755Y-40944273D01*
X124886744Y-40882923D01*
X124794891Y-40785494D01*
X124720065Y-40686991D01*
X124661198Y-40585036D01*
X124617220Y-40477252D01*
X124587063Y-40361263D01*
X124569657Y-40234691D01*
X124565475Y-40168444D01*
X124566058Y-40019397D01*
X124580149Y-39877408D01*
X124607172Y-39743380D01*
X124646551Y-39618218D01*
X124697710Y-39502826D01*
X124760074Y-39398108D01*
X124833067Y-39304967D01*
X124916113Y-39224309D01*
X125008638Y-39157036D01*
X125110065Y-39104054D01*
X125219819Y-39066267D01*
X125275107Y-39053826D01*
X125338837Y-39045567D01*
X125414104Y-39041748D01*
X125495069Y-39042188D01*
G36*
X127854733Y-39040523D02*
X127961371Y-39040648D01*
X128054055Y-39040959D01*
X128133831Y-39041521D01*
X128201747Y-39042401D01*
X128258849Y-39043667D01*
X128306185Y-39045385D01*
X128344801Y-39047622D01*
X128375745Y-39050444D01*
X128400064Y-39053919D01*
X128418803Y-39058113D01*
X128433012Y-39063094D01*
X128443736Y-39068927D01*
X128452023Y-39075680D01*
X128458919Y-39083420D01*
X128465472Y-39092213D01*
X128472729Y-39102126D01*
X128476268Y-39106677D01*
X128493037Y-39131278D01*
X128502271Y-39156744D01*
X128506692Y-39191085D01*
X128507102Y-39197391D01*
X128503486Y-39255300D01*
X128485131Y-39302783D01*
X128452133Y-39339650D01*
X128427791Y-39355325D01*
X128417955Y-39360380D01*
X128408179Y-39364545D01*
X128396700Y-39367908D01*
X128381753Y-39370553D01*
X128361577Y-39372567D01*
X128334407Y-39374035D01*
X128298481Y-39375045D01*
X128252035Y-39375682D01*
X128193305Y-39376032D01*
X128120529Y-39376180D01*
X128031944Y-39376214D01*
X127611000Y-39376214D01*
X127611000Y-41104772D01*
X127611013Y-41314653D01*
X127611038Y-41507160D01*
X127611055Y-41683062D01*
X127611043Y-41843126D01*
X127610981Y-41988123D01*
X127610848Y-42118820D01*
X127610624Y-42235986D01*
X127610288Y-42340389D01*
X127609819Y-42432799D01*
X127609197Y-42513985D01*
X127608401Y-42584713D01*
X127607410Y-42645755D01*
X127606204Y-42697877D01*
X127604762Y-42741849D01*
X127603062Y-42778439D01*
X127601086Y-42808416D01*
X127598810Y-42832549D01*
X127596216Y-42851606D01*
X127593283Y-42866356D01*
X127589989Y-42877567D01*
X127586313Y-42886009D01*
X127582237Y-42892450D01*
X127577737Y-42897658D01*
X127572795Y-42902402D01*
X127567388Y-42907451D01*
X127562314Y-42912666D01*
X127524768Y-42941474D01*
X127477244Y-42959381D01*
X127425260Y-42964919D01*
X127385329Y-42959747D01*
X127338504Y-42939114D01*
X127300655Y-42903327D01*
X127288964Y-42885909D01*
X127286788Y-42881990D01*
X127284791Y-42877425D01*
X127282966Y-42871444D01*
X127281303Y-42863278D01*
X127279793Y-42852157D01*
X127278427Y-42837310D01*
X127277198Y-42817969D01*
X127276094Y-42793362D01*
X127275109Y-42762720D01*
X127274232Y-42725273D01*
X127273455Y-42680251D01*
X127272768Y-42626885D01*
X127272164Y-42564404D01*
X127271633Y-42492038D01*
X127271166Y-42409017D01*
X127270755Y-42314572D01*
X127270389Y-42207933D01*
X127270062Y-42088329D01*
X127269762Y-41954991D01*
X127269482Y-41807148D01*
X127269213Y-41644032D01*
X127268946Y-41464871D01*
X127268671Y-41268896D01*
X127268462Y-41115661D01*
X127266103Y-39376214D01*
X126883523Y-39376214D01*
X126790046Y-39376186D01*
X126712925Y-39376049D01*
X126650374Y-39375719D01*
X126600606Y-39375117D01*
X126561833Y-39374161D01*
X126532271Y-39372769D01*
X126510131Y-39370860D01*
X126493627Y-39368352D01*
X126480973Y-39365165D01*
X126470381Y-39361216D01*
X126461194Y-39356973D01*
X126419026Y-39327362D01*
X126389436Y-39287549D01*
X126373079Y-39241001D01*
X126370606Y-39191187D01*
X126382669Y-39141576D01*
X126409920Y-39095635D01*
X126411660Y-39093536D01*
X126418428Y-39085207D01*
X126424608Y-39077798D01*
X126431245Y-39071256D01*
X126439382Y-39065527D01*
X126450065Y-39060557D01*
X126464337Y-39056292D01*
X126483245Y-39052679D01*
X126507831Y-39049664D01*
X126539142Y-39047193D01*
X126578220Y-39045213D01*
X126626112Y-39043669D01*
X126683861Y-39042508D01*
X126752512Y-39041676D01*
X126833110Y-39041119D01*
X126926700Y-39040784D01*
X127034325Y-39040617D01*
X127157031Y-39040565D01*
X127295862Y-39040572D01*
X127440620Y-39040586D01*
X127595404Y-39040559D01*
X127733093Y-39040516D01*
X127854733Y-39040523D01*
X127854733Y-39040523D01*
G37*
X127854733Y-39040523D02*
X127961371Y-39040648D01*
X128054055Y-39040959D01*
X128133831Y-39041521D01*
X128201747Y-39042401D01*
X128258849Y-39043667D01*
X128306185Y-39045385D01*
X128344801Y-39047622D01*
X128375745Y-39050444D01*
X128400064Y-39053919D01*
X128418803Y-39058113D01*
X128433012Y-39063094D01*
X128443736Y-39068927D01*
X128452023Y-39075680D01*
X128458919Y-39083420D01*
X128465472Y-39092213D01*
X128472729Y-39102126D01*
X128476268Y-39106677D01*
X128493037Y-39131278D01*
X128502271Y-39156744D01*
X128506692Y-39191085D01*
X128507102Y-39197391D01*
X128503486Y-39255300D01*
X128485131Y-39302783D01*
X128452133Y-39339650D01*
X128427791Y-39355325D01*
X128417955Y-39360380D01*
X128408179Y-39364545D01*
X128396700Y-39367908D01*
X128381753Y-39370553D01*
X128361577Y-39372567D01*
X128334407Y-39374035D01*
X128298481Y-39375045D01*
X128252035Y-39375682D01*
X128193305Y-39376032D01*
X128120529Y-39376180D01*
X128031944Y-39376214D01*
X127611000Y-39376214D01*
X127611000Y-41104772D01*
X127611013Y-41314653D01*
X127611038Y-41507160D01*
X127611055Y-41683062D01*
X127611043Y-41843126D01*
X127610981Y-41988123D01*
X127610848Y-42118820D01*
X127610624Y-42235986D01*
X127610288Y-42340389D01*
X127609819Y-42432799D01*
X127609197Y-42513985D01*
X127608401Y-42584713D01*
X127607410Y-42645755D01*
X127606204Y-42697877D01*
X127604762Y-42741849D01*
X127603062Y-42778439D01*
X127601086Y-42808416D01*
X127598810Y-42832549D01*
X127596216Y-42851606D01*
X127593283Y-42866356D01*
X127589989Y-42877567D01*
X127586313Y-42886009D01*
X127582237Y-42892450D01*
X127577737Y-42897658D01*
X127572795Y-42902402D01*
X127567388Y-42907451D01*
X127562314Y-42912666D01*
X127524768Y-42941474D01*
X127477244Y-42959381D01*
X127425260Y-42964919D01*
X127385329Y-42959747D01*
X127338504Y-42939114D01*
X127300655Y-42903327D01*
X127288964Y-42885909D01*
X127286788Y-42881990D01*
X127284791Y-42877425D01*
X127282966Y-42871444D01*
X127281303Y-42863278D01*
X127279793Y-42852157D01*
X127278427Y-42837310D01*
X127277198Y-42817969D01*
X127276094Y-42793362D01*
X127275109Y-42762720D01*
X127274232Y-42725273D01*
X127273455Y-42680251D01*
X127272768Y-42626885D01*
X127272164Y-42564404D01*
X127271633Y-42492038D01*
X127271166Y-42409017D01*
X127270755Y-42314572D01*
X127270389Y-42207933D01*
X127270062Y-42088329D01*
X127269762Y-41954991D01*
X127269482Y-41807148D01*
X127269213Y-41644032D01*
X127268946Y-41464871D01*
X127268671Y-41268896D01*
X127268462Y-41115661D01*
X127266103Y-39376214D01*
X126883523Y-39376214D01*
X126790046Y-39376186D01*
X126712925Y-39376049D01*
X126650374Y-39375719D01*
X126600606Y-39375117D01*
X126561833Y-39374161D01*
X126532271Y-39372769D01*
X126510131Y-39370860D01*
X126493627Y-39368352D01*
X126480973Y-39365165D01*
X126470381Y-39361216D01*
X126461194Y-39356973D01*
X126419026Y-39327362D01*
X126389436Y-39287549D01*
X126373079Y-39241001D01*
X126370606Y-39191187D01*
X126382669Y-39141576D01*
X126409920Y-39095635D01*
X126411660Y-39093536D01*
X126418428Y-39085207D01*
X126424608Y-39077798D01*
X126431245Y-39071256D01*
X126439382Y-39065527D01*
X126450065Y-39060557D01*
X126464337Y-39056292D01*
X126483245Y-39052679D01*
X126507831Y-39049664D01*
X126539142Y-39047193D01*
X126578220Y-39045213D01*
X126626112Y-39043669D01*
X126683861Y-39042508D01*
X126752512Y-39041676D01*
X126833110Y-39041119D01*
X126926700Y-39040784D01*
X127034325Y-39040617D01*
X127157031Y-39040565D01*
X127295862Y-39040572D01*
X127440620Y-39040586D01*
X127595404Y-39040559D01*
X127733093Y-39040516D01*
X127854733Y-39040523D01*
G36*
X129215492Y-39041704D02*
X129339183Y-39042052D01*
X129411679Y-39042349D01*
X129532566Y-39042904D01*
X129636646Y-39043439D01*
X129725252Y-39043996D01*
X129799721Y-39044619D01*
X129861385Y-39045350D01*
X129911581Y-39046232D01*
X129951644Y-39047310D01*
X129982907Y-39048625D01*
X130006706Y-39050221D01*
X130024375Y-39052141D01*
X130037250Y-39054428D01*
X130046665Y-39057125D01*
X130053955Y-39060275D01*
X130059324Y-39063250D01*
X130103456Y-39098491D01*
X130133639Y-39142310D01*
X130148917Y-39191634D01*
X130148333Y-39243392D01*
X130131178Y-39294040D01*
X130102495Y-39335945D01*
X130066359Y-39363089D01*
X130027834Y-39376600D01*
X130012268Y-39378141D01*
X129980332Y-39379596D01*
X129933800Y-39380938D01*
X129874445Y-39382139D01*
X129804041Y-39383171D01*
X129724360Y-39384007D01*
X129637176Y-39384620D01*
X129544263Y-39384982D01*
X129481982Y-39385069D01*
X128971715Y-39385286D01*
X128971715Y-40836714D01*
X129500125Y-40836914D01*
X129611783Y-40836984D01*
X129706766Y-40837133D01*
X129786546Y-40837405D01*
X129852591Y-40837844D01*
X129906370Y-40838496D01*
X129949352Y-40839404D01*
X129983008Y-40840612D01*
X130008806Y-40842165D01*
X130028216Y-40844108D01*
X130042707Y-40846484D01*
X130053747Y-40849339D01*
X130062808Y-40852715D01*
X130065688Y-40853985D01*
X130103969Y-40880442D01*
X130130798Y-40917476D01*
X130146025Y-40961471D01*
X130149501Y-41008813D01*
X130141075Y-41055885D01*
X130120598Y-41099073D01*
X130087920Y-41134761D01*
X130077632Y-41142216D01*
X130038947Y-41167822D01*
X129505331Y-41170300D01*
X128971715Y-41172779D01*
X128971715Y-42632436D01*
X129505331Y-42634914D01*
X130038947Y-42637393D01*
X130077632Y-42662999D01*
X130114119Y-42696732D01*
X130137905Y-42738755D01*
X130149133Y-42785465D01*
X130147949Y-42833255D01*
X130134496Y-42878520D01*
X130108920Y-42917655D01*
X130071364Y-42947056D01*
X130066151Y-42949714D01*
X130058304Y-42953332D01*
X130049908Y-42956454D01*
X130039637Y-42959114D01*
X130026167Y-42961349D01*
X130008172Y-42963196D01*
X129984326Y-42964691D01*
X129953304Y-42965871D01*
X129913781Y-42966772D01*
X129864430Y-42967430D01*
X129803927Y-42967882D01*
X129730947Y-42968164D01*
X129644162Y-42968314D01*
X129542250Y-42968366D01*
X129423882Y-42968359D01*
X129388404Y-42968351D01*
X128749465Y-42968202D01*
X128713364Y-42947755D01*
X128684115Y-42925053D01*
X128659627Y-42895853D01*
X128656816Y-42891208D01*
X128636370Y-42855107D01*
X128636221Y-41010978D01*
X128636206Y-40795851D01*
X128636202Y-40598117D01*
X128636216Y-40417029D01*
X128636255Y-40251838D01*
X128636327Y-40101794D01*
X128636438Y-39966150D01*
X128636595Y-39844156D01*
X128636806Y-39735063D01*
X128637077Y-39638123D01*
X128637416Y-39552588D01*
X128637830Y-39477708D01*
X128638326Y-39412734D01*
X128638910Y-39356918D01*
X128639591Y-39309511D01*
X128640375Y-39269765D01*
X128641269Y-39236930D01*
X128642280Y-39210258D01*
X128643416Y-39189000D01*
X128644683Y-39172408D01*
X128646089Y-39159731D01*
X128647641Y-39150223D01*
X128649345Y-39143134D01*
X128651209Y-39137715D01*
X128653240Y-39133218D01*
X128654009Y-39131688D01*
X128683481Y-39091208D01*
X128725289Y-39062645D01*
X128758536Y-39050176D01*
X128771966Y-39047926D01*
X128796146Y-39046037D01*
X128831942Y-39044498D01*
X128880220Y-39043300D01*
X128941847Y-39042432D01*
X129017691Y-39041883D01*
X129108617Y-39041644D01*
X129215492Y-39041704D01*
X129215492Y-39041704D01*
G37*
X129215492Y-39041704D02*
X129339183Y-39042052D01*
X129411679Y-39042349D01*
X129532566Y-39042904D01*
X129636646Y-39043439D01*
X129725252Y-39043996D01*
X129799721Y-39044619D01*
X129861385Y-39045350D01*
X129911581Y-39046232D01*
X129951644Y-39047310D01*
X129982907Y-39048625D01*
X130006706Y-39050221D01*
X130024375Y-39052141D01*
X130037250Y-39054428D01*
X130046665Y-39057125D01*
X130053955Y-39060275D01*
X130059324Y-39063250D01*
X130103456Y-39098491D01*
X130133639Y-39142310D01*
X130148917Y-39191634D01*
X130148333Y-39243392D01*
X130131178Y-39294040D01*
X130102495Y-39335945D01*
X130066359Y-39363089D01*
X130027834Y-39376600D01*
X130012268Y-39378141D01*
X129980332Y-39379596D01*
X129933800Y-39380938D01*
X129874445Y-39382139D01*
X129804041Y-39383171D01*
X129724360Y-39384007D01*
X129637176Y-39384620D01*
X129544263Y-39384982D01*
X129481982Y-39385069D01*
X128971715Y-39385286D01*
X128971715Y-40836714D01*
X129500125Y-40836914D01*
X129611783Y-40836984D01*
X129706766Y-40837133D01*
X129786546Y-40837405D01*
X129852591Y-40837844D01*
X129906370Y-40838496D01*
X129949352Y-40839404D01*
X129983008Y-40840612D01*
X130008806Y-40842165D01*
X130028216Y-40844108D01*
X130042707Y-40846484D01*
X130053747Y-40849339D01*
X130062808Y-40852715D01*
X130065688Y-40853985D01*
X130103969Y-40880442D01*
X130130798Y-40917476D01*
X130146025Y-40961471D01*
X130149501Y-41008813D01*
X130141075Y-41055885D01*
X130120598Y-41099073D01*
X130087920Y-41134761D01*
X130077632Y-41142216D01*
X130038947Y-41167822D01*
X129505331Y-41170300D01*
X128971715Y-41172779D01*
X128971715Y-42632436D01*
X129505331Y-42634914D01*
X130038947Y-42637393D01*
X130077632Y-42662999D01*
X130114119Y-42696732D01*
X130137905Y-42738755D01*
X130149133Y-42785465D01*
X130147949Y-42833255D01*
X130134496Y-42878520D01*
X130108920Y-42917655D01*
X130071364Y-42947056D01*
X130066151Y-42949714D01*
X130058304Y-42953332D01*
X130049908Y-42956454D01*
X130039637Y-42959114D01*
X130026167Y-42961349D01*
X130008172Y-42963196D01*
X129984326Y-42964691D01*
X129953304Y-42965871D01*
X129913781Y-42966772D01*
X129864430Y-42967430D01*
X129803927Y-42967882D01*
X129730947Y-42968164D01*
X129644162Y-42968314D01*
X129542250Y-42968366D01*
X129423882Y-42968359D01*
X129388404Y-42968351D01*
X128749465Y-42968202D01*
X128713364Y-42947755D01*
X128684115Y-42925053D01*
X128659627Y-42895853D01*
X128656816Y-42891208D01*
X128636370Y-42855107D01*
X128636221Y-41010978D01*
X128636206Y-40795851D01*
X128636202Y-40598117D01*
X128636216Y-40417029D01*
X128636255Y-40251838D01*
X128636327Y-40101794D01*
X128636438Y-39966150D01*
X128636595Y-39844156D01*
X128636806Y-39735063D01*
X128637077Y-39638123D01*
X128637416Y-39552588D01*
X128637830Y-39477708D01*
X128638326Y-39412734D01*
X128638910Y-39356918D01*
X128639591Y-39309511D01*
X128640375Y-39269765D01*
X128641269Y-39236930D01*
X128642280Y-39210258D01*
X128643416Y-39189000D01*
X128644683Y-39172408D01*
X128646089Y-39159731D01*
X128647641Y-39150223D01*
X128649345Y-39143134D01*
X128651209Y-39137715D01*
X128653240Y-39133218D01*
X128654009Y-39131688D01*
X128683481Y-39091208D01*
X128725289Y-39062645D01*
X128758536Y-39050176D01*
X128771966Y-39047926D01*
X128796146Y-39046037D01*
X128831942Y-39044498D01*
X128880220Y-39043300D01*
X128941847Y-39042432D01*
X129017691Y-39041883D01*
X129108617Y-39041644D01*
X129215492Y-39041704D01*
G36*
X130582586Y-39051632D02*
X130624647Y-39072443D01*
X130660019Y-39105933D01*
X130683168Y-39146068D01*
X130687600Y-39159455D01*
X130696733Y-39189361D01*
X130710297Y-39234858D01*
X130728025Y-39295014D01*
X130749646Y-39368901D01*
X130774893Y-39455589D01*
X130803495Y-39554149D01*
X130835184Y-39663651D01*
X130869691Y-39783165D01*
X130906747Y-39911762D01*
X130946084Y-40048512D01*
X130987431Y-40192486D01*
X131030520Y-40342754D01*
X131075083Y-40498386D01*
X131120850Y-40658454D01*
X131126987Y-40679935D01*
X131185647Y-40885054D01*
X131240318Y-41075759D01*
X131290929Y-41251808D01*
X131337409Y-41412958D01*
X131379686Y-41558963D01*
X131417689Y-41689581D01*
X131451346Y-41804567D01*
X131480585Y-41903679D01*
X131505336Y-41986672D01*
X131525526Y-42053303D01*
X131541085Y-42103328D01*
X131551940Y-42136503D01*
X131558021Y-42152585D01*
X131559310Y-42154043D01*
X131562509Y-42143777D01*
X131570455Y-42116981D01*
X131582885Y-42074562D01*
X131599537Y-42017429D01*
X131620148Y-41946488D01*
X131644456Y-41862647D01*
X131672199Y-41766814D01*
X131703114Y-41659896D01*
X131736940Y-41542800D01*
X131773412Y-41416435D01*
X131812270Y-41281708D01*
X131853250Y-41139526D01*
X131896090Y-40990796D01*
X131940528Y-40836428D01*
X131986302Y-40677327D01*
X131992641Y-40655286D01*
X132038698Y-40495250D01*
X132083548Y-40339615D01*
X132126921Y-40189305D01*
X132168551Y-40045245D01*
X132208166Y-39908357D01*
X132245500Y-39779567D01*
X132280281Y-39659796D01*
X132312243Y-39549971D01*
X132341116Y-39451013D01*
X132366630Y-39363848D01*
X132388518Y-39289399D01*
X132406509Y-39228590D01*
X132420336Y-39182345D01*
X132429730Y-39151587D01*
X132434421Y-39137240D01*
X132434643Y-39136692D01*
X132461509Y-39095374D01*
X132498580Y-39066172D01*
X132542538Y-39049108D01*
X132590063Y-39044204D01*
X132637838Y-39051481D01*
X132682543Y-39070963D01*
X132720859Y-39102671D01*
X132743487Y-39134634D01*
X132745309Y-39138762D01*
X132746984Y-39144707D01*
X132748518Y-39153212D01*
X132749916Y-39165019D01*
X132751185Y-39180871D01*
X132752332Y-39201511D01*
X132753362Y-39227682D01*
X132754281Y-39260127D01*
X132755097Y-39299588D01*
X132755814Y-39346808D01*
X132756439Y-39402531D01*
X132756979Y-39467498D01*
X132757439Y-39542453D01*
X132757827Y-39628139D01*
X132758147Y-39725298D01*
X132758406Y-39834673D01*
X132758610Y-39957006D01*
X132758766Y-40093042D01*
X132758880Y-40243522D01*
X132758958Y-40409189D01*
X132759005Y-40590787D01*
X132759029Y-40789057D01*
X132759036Y-41000000D01*
X132759034Y-41214674D01*
X132759023Y-41411956D01*
X132758995Y-41592597D01*
X132758944Y-41757345D01*
X132758862Y-41906953D01*
X132758742Y-42042171D01*
X132758577Y-42163749D01*
X132758358Y-42272438D01*
X132758080Y-42368987D01*
X132757735Y-42454149D01*
X132757315Y-42528672D01*
X132756813Y-42593309D01*
X132756223Y-42648808D01*
X132755536Y-42695922D01*
X132754745Y-42735399D01*
X132753844Y-42767991D01*
X132752824Y-42794449D01*
X132751679Y-42815522D01*
X132750401Y-42831962D01*
X132748984Y-42844518D01*
X132747419Y-42853942D01*
X132745700Y-42860983D01*
X132743819Y-42866393D01*
X132741769Y-42870921D01*
X132740893Y-42872667D01*
X132709327Y-42917147D01*
X132667735Y-42948762D01*
X132619333Y-42965204D01*
X132610224Y-42966367D01*
X132548760Y-42965927D01*
X132498353Y-42951414D01*
X132458139Y-42922431D01*
X132429871Y-42883509D01*
X132427624Y-42878468D01*
X132425593Y-42871346D01*
X132423763Y-42861215D01*
X132422118Y-42847146D01*
X132420643Y-42828212D01*
X132419323Y-42803483D01*
X132418143Y-42772031D01*
X132417086Y-42732928D01*
X132416139Y-42685245D01*
X132415285Y-42628054D01*
X132414509Y-42560426D01*
X132413797Y-42481433D01*
X132413132Y-42390147D01*
X132412500Y-42285638D01*
X132411885Y-42166979D01*
X132411272Y-42033242D01*
X132410645Y-41883497D01*
X132409990Y-41716817D01*
X132409786Y-41663344D01*
X132405250Y-40471580D01*
X132065750Y-41658808D01*
X132024826Y-41801784D01*
X131985122Y-41940232D01*
X131946939Y-42073121D01*
X131910575Y-42199418D01*
X131876331Y-42318093D01*
X131844505Y-42428111D01*
X131815399Y-42528442D01*
X131789311Y-42618053D01*
X131766540Y-42695913D01*
X131747388Y-42760989D01*
X131732153Y-42812249D01*
X131721135Y-42848661D01*
X131714634Y-42869193D01*
X131713138Y-42873250D01*
X131682078Y-42918822D01*
X131640209Y-42950010D01*
X131588532Y-42966205D01*
X131556983Y-42968500D01*
X131501594Y-42960718D01*
X131454302Y-42938339D01*
X131417678Y-42902816D01*
X131405297Y-42882803D01*
X131401177Y-42870997D01*
X131392382Y-42842771D01*
X131379210Y-42799150D01*
X131361961Y-42741161D01*
X131340934Y-42669832D01*
X131316427Y-42586188D01*
X131288740Y-42491256D01*
X131258172Y-42386063D01*
X131225022Y-42271636D01*
X131189590Y-42149000D01*
X131152173Y-42019183D01*
X131113071Y-41883212D01*
X131072584Y-41742112D01*
X131048530Y-41658139D01*
X130705609Y-40460250D01*
X130704588Y-41630464D01*
X130704404Y-41775423D01*
X130704111Y-41915818D01*
X130703719Y-42050533D01*
X130703235Y-42178449D01*
X130702667Y-42298449D01*
X130702024Y-42409414D01*
X130701312Y-42510227D01*
X130700541Y-42599768D01*
X130699719Y-42676922D01*
X130698852Y-42740568D01*
X130697950Y-42789590D01*
X130697020Y-42822870D01*
X130696070Y-42839289D01*
X130695929Y-42840213D01*
X130678297Y-42889949D01*
X130645523Y-42931037D01*
X130628497Y-42945108D01*
X130604231Y-42955847D01*
X130568456Y-42963288D01*
X130527591Y-42966936D01*
X130488051Y-42966301D01*
X130456254Y-42960890D01*
X130450362Y-42958774D01*
X130413523Y-42935268D01*
X130381102Y-42899743D01*
X130370120Y-42882321D01*
X130368346Y-42878115D01*
X130366713Y-42871697D01*
X130365213Y-42862322D01*
X130363841Y-42849249D01*
X130362588Y-42831733D01*
X130361448Y-42809030D01*
X130360414Y-42780396D01*
X130359479Y-42745089D01*
X130358635Y-42702365D01*
X130357876Y-42651479D01*
X130357194Y-42591689D01*
X130356583Y-42522250D01*
X130356036Y-42442419D01*
X130355545Y-42351453D01*
X130355103Y-42248607D01*
X130354704Y-42133138D01*
X130354340Y-42004302D01*
X130354004Y-41861357D01*
X130353689Y-41703557D01*
X130353389Y-41530160D01*
X130353096Y-41340422D01*
X130352803Y-41133600D01*
X130352677Y-41040821D01*
X130352398Y-40809292D01*
X130352205Y-40595419D01*
X130352102Y-40398714D01*
X130352089Y-40218691D01*
X130352170Y-40054862D01*
X130352346Y-39906742D01*
X130352619Y-39773843D01*
X130352991Y-39655677D01*
X130353465Y-39551759D01*
X130354042Y-39461601D01*
X130354725Y-39384716D01*
X130355515Y-39320617D01*
X130356415Y-39268818D01*
X130357426Y-39228830D01*
X130358551Y-39200169D01*
X130359792Y-39182345D01*
X130360572Y-39176752D01*
X130378707Y-39127589D01*
X130408456Y-39089363D01*
X130446769Y-39062364D01*
X130490596Y-39046882D01*
X130536885Y-39043208D01*
X130582586Y-39051632D01*
X130582586Y-39051632D01*
G37*
X130582586Y-39051632D02*
X130624647Y-39072443D01*
X130660019Y-39105933D01*
X130683168Y-39146068D01*
X130687600Y-39159455D01*
X130696733Y-39189361D01*
X130710297Y-39234858D01*
X130728025Y-39295014D01*
X130749646Y-39368901D01*
X130774893Y-39455589D01*
X130803495Y-39554149D01*
X130835184Y-39663651D01*
X130869691Y-39783165D01*
X130906747Y-39911762D01*
X130946084Y-40048512D01*
X130987431Y-40192486D01*
X131030520Y-40342754D01*
X131075083Y-40498386D01*
X131120850Y-40658454D01*
X131126987Y-40679935D01*
X131185647Y-40885054D01*
X131240318Y-41075759D01*
X131290929Y-41251808D01*
X131337409Y-41412958D01*
X131379686Y-41558963D01*
X131417689Y-41689581D01*
X131451346Y-41804567D01*
X131480585Y-41903679D01*
X131505336Y-41986672D01*
X131525526Y-42053303D01*
X131541085Y-42103328D01*
X131551940Y-42136503D01*
X131558021Y-42152585D01*
X131559310Y-42154043D01*
X131562509Y-42143777D01*
X131570455Y-42116981D01*
X131582885Y-42074562D01*
X131599537Y-42017429D01*
X131620148Y-41946488D01*
X131644456Y-41862647D01*
X131672199Y-41766814D01*
X131703114Y-41659896D01*
X131736940Y-41542800D01*
X131773412Y-41416435D01*
X131812270Y-41281708D01*
X131853250Y-41139526D01*
X131896090Y-40990796D01*
X131940528Y-40836428D01*
X131986302Y-40677327D01*
X131992641Y-40655286D01*
X132038698Y-40495250D01*
X132083548Y-40339615D01*
X132126921Y-40189305D01*
X132168551Y-40045245D01*
X132208166Y-39908357D01*
X132245500Y-39779567D01*
X132280281Y-39659796D01*
X132312243Y-39549971D01*
X132341116Y-39451013D01*
X132366630Y-39363848D01*
X132388518Y-39289399D01*
X132406509Y-39228590D01*
X132420336Y-39182345D01*
X132429730Y-39151587D01*
X132434421Y-39137240D01*
X132434643Y-39136692D01*
X132461509Y-39095374D01*
X132498580Y-39066172D01*
X132542538Y-39049108D01*
X132590063Y-39044204D01*
X132637838Y-39051481D01*
X132682543Y-39070963D01*
X132720859Y-39102671D01*
X132743487Y-39134634D01*
X132745309Y-39138762D01*
X132746984Y-39144707D01*
X132748518Y-39153212D01*
X132749916Y-39165019D01*
X132751185Y-39180871D01*
X132752332Y-39201511D01*
X132753362Y-39227682D01*
X132754281Y-39260127D01*
X132755097Y-39299588D01*
X132755814Y-39346808D01*
X132756439Y-39402531D01*
X132756979Y-39467498D01*
X132757439Y-39542453D01*
X132757827Y-39628139D01*
X132758147Y-39725298D01*
X132758406Y-39834673D01*
X132758610Y-39957006D01*
X132758766Y-40093042D01*
X132758880Y-40243522D01*
X132758958Y-40409189D01*
X132759005Y-40590787D01*
X132759029Y-40789057D01*
X132759036Y-41000000D01*
X132759034Y-41214674D01*
X132759023Y-41411956D01*
X132758995Y-41592597D01*
X132758944Y-41757345D01*
X132758862Y-41906953D01*
X132758742Y-42042171D01*
X132758577Y-42163749D01*
X132758358Y-42272438D01*
X132758080Y-42368987D01*
X132757735Y-42454149D01*
X132757315Y-42528672D01*
X132756813Y-42593309D01*
X132756223Y-42648808D01*
X132755536Y-42695922D01*
X132754745Y-42735399D01*
X132753844Y-42767991D01*
X132752824Y-42794449D01*
X132751679Y-42815522D01*
X132750401Y-42831962D01*
X132748984Y-42844518D01*
X132747419Y-42853942D01*
X132745700Y-42860983D01*
X132743819Y-42866393D01*
X132741769Y-42870921D01*
X132740893Y-42872667D01*
X132709327Y-42917147D01*
X132667735Y-42948762D01*
X132619333Y-42965204D01*
X132610224Y-42966367D01*
X132548760Y-42965927D01*
X132498353Y-42951414D01*
X132458139Y-42922431D01*
X132429871Y-42883509D01*
X132427624Y-42878468D01*
X132425593Y-42871346D01*
X132423763Y-42861215D01*
X132422118Y-42847146D01*
X132420643Y-42828212D01*
X132419323Y-42803483D01*
X132418143Y-42772031D01*
X132417086Y-42732928D01*
X132416139Y-42685245D01*
X132415285Y-42628054D01*
X132414509Y-42560426D01*
X132413797Y-42481433D01*
X132413132Y-42390147D01*
X132412500Y-42285638D01*
X132411885Y-42166979D01*
X132411272Y-42033242D01*
X132410645Y-41883497D01*
X132409990Y-41716817D01*
X132409786Y-41663344D01*
X132405250Y-40471580D01*
X132065750Y-41658808D01*
X132024826Y-41801784D01*
X131985122Y-41940232D01*
X131946939Y-42073121D01*
X131910575Y-42199418D01*
X131876331Y-42318093D01*
X131844505Y-42428111D01*
X131815399Y-42528442D01*
X131789311Y-42618053D01*
X131766540Y-42695913D01*
X131747388Y-42760989D01*
X131732153Y-42812249D01*
X131721135Y-42848661D01*
X131714634Y-42869193D01*
X131713138Y-42873250D01*
X131682078Y-42918822D01*
X131640209Y-42950010D01*
X131588532Y-42966205D01*
X131556983Y-42968500D01*
X131501594Y-42960718D01*
X131454302Y-42938339D01*
X131417678Y-42902816D01*
X131405297Y-42882803D01*
X131401177Y-42870997D01*
X131392382Y-42842771D01*
X131379210Y-42799150D01*
X131361961Y-42741161D01*
X131340934Y-42669832D01*
X131316427Y-42586188D01*
X131288740Y-42491256D01*
X131258172Y-42386063D01*
X131225022Y-42271636D01*
X131189590Y-42149000D01*
X131152173Y-42019183D01*
X131113071Y-41883212D01*
X131072584Y-41742112D01*
X131048530Y-41658139D01*
X130705609Y-40460250D01*
X130704588Y-41630464D01*
X130704404Y-41775423D01*
X130704111Y-41915818D01*
X130703719Y-42050533D01*
X130703235Y-42178449D01*
X130702667Y-42298449D01*
X130702024Y-42409414D01*
X130701312Y-42510227D01*
X130700541Y-42599768D01*
X130699719Y-42676922D01*
X130698852Y-42740568D01*
X130697950Y-42789590D01*
X130697020Y-42822870D01*
X130696070Y-42839289D01*
X130695929Y-42840213D01*
X130678297Y-42889949D01*
X130645523Y-42931037D01*
X130628497Y-42945108D01*
X130604231Y-42955847D01*
X130568456Y-42963288D01*
X130527591Y-42966936D01*
X130488051Y-42966301D01*
X130456254Y-42960890D01*
X130450362Y-42958774D01*
X130413523Y-42935268D01*
X130381102Y-42899743D01*
X130370120Y-42882321D01*
X130368346Y-42878115D01*
X130366713Y-42871697D01*
X130365213Y-42862322D01*
X130363841Y-42849249D01*
X130362588Y-42831733D01*
X130361448Y-42809030D01*
X130360414Y-42780396D01*
X130359479Y-42745089D01*
X130358635Y-42702365D01*
X130357876Y-42651479D01*
X130357194Y-42591689D01*
X130356583Y-42522250D01*
X130356036Y-42442419D01*
X130355545Y-42351453D01*
X130355103Y-42248607D01*
X130354704Y-42133138D01*
X130354340Y-42004302D01*
X130354004Y-41861357D01*
X130353689Y-41703557D01*
X130353389Y-41530160D01*
X130353096Y-41340422D01*
X130352803Y-41133600D01*
X130352677Y-41040821D01*
X130352398Y-40809292D01*
X130352205Y-40595419D01*
X130352102Y-40398714D01*
X130352089Y-40218691D01*
X130352170Y-40054862D01*
X130352346Y-39906742D01*
X130352619Y-39773843D01*
X130352991Y-39655677D01*
X130353465Y-39551759D01*
X130354042Y-39461601D01*
X130354725Y-39384716D01*
X130355515Y-39320617D01*
X130356415Y-39268818D01*
X130357426Y-39228830D01*
X130358551Y-39200169D01*
X130359792Y-39182345D01*
X130360572Y-39176752D01*
X130378707Y-39127589D01*
X130408456Y-39089363D01*
X130446769Y-39062364D01*
X130490596Y-39046882D01*
X130536885Y-39043208D01*
X130582586Y-39051632D01*
G36*
X134052528Y-39047199D02*
X134162340Y-39062043D01*
X134265105Y-39088060D01*
X134357269Y-39125305D01*
X134358524Y-39125935D01*
X134449825Y-39180600D01*
X134529712Y-39247128D01*
X134598430Y-39326004D01*
X134656225Y-39417710D01*
X134703343Y-39522730D01*
X134740032Y-39641547D01*
X134766536Y-39774646D01*
X134783102Y-39922509D01*
X134785918Y-39965284D01*
X134789195Y-40066929D01*
X134788210Y-40174115D01*
X134783231Y-40280877D01*
X134774528Y-40381252D01*
X134763419Y-40463101D01*
X134750257Y-40527333D01*
X134731843Y-40597076D01*
X134709973Y-40666693D01*
X134686442Y-40730549D01*
X134663044Y-40783010D01*
X134659148Y-40790502D01*
X134636707Y-40828643D01*
X134608698Y-40870669D01*
X134578428Y-40912131D01*
X134549201Y-40948584D01*
X134524324Y-40975583D01*
X134516083Y-40982940D01*
X134491679Y-41002647D01*
X134531319Y-41044413D01*
X134603481Y-41133535D01*
X134663961Y-41236526D01*
X134712750Y-41353361D01*
X134749837Y-41484018D01*
X134764447Y-41557139D01*
X134775997Y-41642313D01*
X134783805Y-41740171D01*
X134787870Y-41845785D01*
X134788193Y-41954227D01*
X134784774Y-42060569D01*
X134777613Y-42159884D01*
X134766711Y-42247244D01*
X134764399Y-42261051D01*
X134733958Y-42395825D01*
X134692321Y-42516348D01*
X134639433Y-42622687D01*
X134575238Y-42714911D01*
X134499682Y-42793087D01*
X134412709Y-42857282D01*
X134314264Y-42907566D01*
X134210464Y-42942406D01*
X134161932Y-42951909D01*
X134100275Y-42959111D01*
X134030382Y-42963881D01*
X133957140Y-42966084D01*
X133885438Y-42965587D01*
X133820165Y-42962258D01*
X133766208Y-42955964D01*
X133759070Y-42954695D01*
X133644854Y-42925891D01*
X133542477Y-42884594D01*
X133451646Y-42830441D01*
X133372074Y-42763073D01*
X133303468Y-42682127D01*
X133245539Y-42587241D01*
X133197997Y-42478055D01*
X133160552Y-42354206D01*
X133132913Y-42215333D01*
X133125834Y-42165679D01*
X133121405Y-42118572D01*
X133118203Y-42057908D01*
X133116229Y-41988091D01*
X133116052Y-41970338D01*
X133462994Y-41970338D01*
X133464663Y-42044368D01*
X133468255Y-42109776D01*
X133473859Y-42162746D01*
X133474297Y-42165679D01*
X133496218Y-42275545D01*
X133526362Y-42369488D01*
X133565321Y-42448044D01*
X133613685Y-42511750D01*
X133672048Y-42561142D01*
X133740999Y-42596757D01*
X133821131Y-42619131D01*
X133913035Y-42628800D01*
X133984406Y-42628309D01*
X134040397Y-42623751D01*
X134093325Y-42615836D01*
X134134085Y-42606149D01*
X134204481Y-42578111D01*
X134263284Y-42540266D01*
X134311995Y-42490912D01*
X134352115Y-42428346D01*
X134385145Y-42350866D01*
X134399855Y-42304674D01*
X134415384Y-42243188D01*
X134426978Y-42178073D01*
X134434992Y-42105938D01*
X134439778Y-42023394D01*
X134441690Y-41927048D01*
X134441760Y-41902369D01*
X134438698Y-41768556D01*
X134429185Y-41650926D01*
X134412799Y-41548550D01*
X134389119Y-41460502D01*
X134357722Y-41385851D01*
X134318186Y-41323669D01*
X134270090Y-41273029D01*
X134213012Y-41233001D01*
X134146530Y-41202657D01*
X134119750Y-41193784D01*
X134069437Y-41183303D01*
X134007598Y-41177562D01*
X133940205Y-41176501D01*
X133873229Y-41180061D01*
X133812640Y-41188181D01*
X133774915Y-41197249D01*
X133701770Y-41227769D01*
X133639131Y-41271192D01*
X133586409Y-41328264D01*
X133543015Y-41399726D01*
X133508360Y-41486324D01*
X133488396Y-41558854D01*
X133480389Y-41604459D01*
X133473774Y-41664344D01*
X133468638Y-41734690D01*
X133465070Y-41811683D01*
X133463159Y-41891505D01*
X133462994Y-41970338D01*
X133116052Y-41970338D01*
X133115484Y-41913529D01*
X133115969Y-41838630D01*
X133117685Y-41767798D01*
X133120632Y-41705442D01*
X133124813Y-41655968D01*
X133125718Y-41648607D01*
X133150250Y-41504562D01*
X133184094Y-41375862D01*
X133227373Y-41262207D01*
X133280209Y-41163301D01*
X133342724Y-41078844D01*
X133371790Y-41047714D01*
X133410293Y-41009250D01*
X133369972Y-40966072D01*
X133305646Y-40887761D01*
X133251375Y-40800779D01*
X133206665Y-40703714D01*
X133171021Y-40595158D01*
X133143952Y-40473701D01*
X133124962Y-40337932D01*
X133116829Y-40242999D01*
X133113970Y-40164923D01*
X133462486Y-40164923D01*
X133463701Y-40237316D01*
X133466821Y-40300963D01*
X133470926Y-40344282D01*
X133488539Y-40447939D01*
X133513592Y-40540351D01*
X133545426Y-40619597D01*
X133583383Y-40683757D01*
X133590458Y-40693103D01*
X133633743Y-40735681D01*
X133690749Y-40772936D01*
X133757347Y-40802776D01*
X133829406Y-40823113D01*
X133856679Y-40827818D01*
X133910740Y-40832035D01*
X133973929Y-40831650D01*
X134038502Y-40827086D01*
X134096715Y-40818763D01*
X134120417Y-40813481D01*
X134193147Y-40787839D01*
X134254544Y-40751077D01*
X134305824Y-40701865D01*
X134348207Y-40638874D01*
X134382911Y-40560775D01*
X134399894Y-40508396D01*
X134415415Y-40446919D01*
X134427003Y-40381776D01*
X134435010Y-40309580D01*
X134439789Y-40226949D01*
X134441692Y-40130496D01*
X134441760Y-40106226D01*
X134440721Y-40012517D01*
X134437326Y-39932985D01*
X134431208Y-39863775D01*
X134422002Y-39801032D01*
X134409340Y-39740899D01*
X134405567Y-39725725D01*
X134376062Y-39634474D01*
X134337679Y-39558527D01*
X134289568Y-39497241D01*
X134230878Y-39449975D01*
X134160758Y-39416087D01*
X134078359Y-39394934D01*
X133982828Y-39385876D01*
X133954643Y-39385420D01*
X133882977Y-39387438D01*
X133823536Y-39394412D01*
X133770833Y-39407377D01*
X133719380Y-39427364D01*
X133710727Y-39431363D01*
X133648545Y-39470609D01*
X133594397Y-39525629D01*
X133548771Y-39595700D01*
X133512152Y-39680098D01*
X133488660Y-39761750D01*
X133480898Y-39806050D01*
X133474340Y-39864624D01*
X133469103Y-39933634D01*
X133465304Y-40009246D01*
X133463059Y-40087621D01*
X133462486Y-40164923D01*
X133113970Y-40164923D01*
X133112510Y-40125085D01*
X133114833Y-40004565D01*
X133123398Y-39885382D01*
X133137804Y-39771481D01*
X133157650Y-39666807D01*
X133182536Y-39575304D01*
X133185582Y-39566160D01*
X133212708Y-39496259D01*
X133245776Y-39426473D01*
X133281417Y-39363514D01*
X133304332Y-39329481D01*
X133344155Y-39282236D01*
X133394108Y-39233347D01*
X133448474Y-39187821D01*
X133501535Y-39150665D01*
X133522182Y-39138693D01*
X133613908Y-39098480D01*
X133716360Y-39069170D01*
X133825983Y-39050817D01*
X133939224Y-39043476D01*
X134052528Y-39047199D01*
X134052528Y-39047199D01*
G37*
X134052528Y-39047199D02*
X134162340Y-39062043D01*
X134265105Y-39088060D01*
X134357269Y-39125305D01*
X134358524Y-39125935D01*
X134449825Y-39180600D01*
X134529712Y-39247128D01*
X134598430Y-39326004D01*
X134656225Y-39417710D01*
X134703343Y-39522730D01*
X134740032Y-39641547D01*
X134766536Y-39774646D01*
X134783102Y-39922509D01*
X134785918Y-39965284D01*
X134789195Y-40066929D01*
X134788210Y-40174115D01*
X134783231Y-40280877D01*
X134774528Y-40381252D01*
X134763419Y-40463101D01*
X134750257Y-40527333D01*
X134731843Y-40597076D01*
X134709973Y-40666693D01*
X134686442Y-40730549D01*
X134663044Y-40783010D01*
X134659148Y-40790502D01*
X134636707Y-40828643D01*
X134608698Y-40870669D01*
X134578428Y-40912131D01*
X134549201Y-40948584D01*
X134524324Y-40975583D01*
X134516083Y-40982940D01*
X134491679Y-41002647D01*
X134531319Y-41044413D01*
X134603481Y-41133535D01*
X134663961Y-41236526D01*
X134712750Y-41353361D01*
X134749837Y-41484018D01*
X134764447Y-41557139D01*
X134775997Y-41642313D01*
X134783805Y-41740171D01*
X134787870Y-41845785D01*
X134788193Y-41954227D01*
X134784774Y-42060569D01*
X134777613Y-42159884D01*
X134766711Y-42247244D01*
X134764399Y-42261051D01*
X134733958Y-42395825D01*
X134692321Y-42516348D01*
X134639433Y-42622687D01*
X134575238Y-42714911D01*
X134499682Y-42793087D01*
X134412709Y-42857282D01*
X134314264Y-42907566D01*
X134210464Y-42942406D01*
X134161932Y-42951909D01*
X134100275Y-42959111D01*
X134030382Y-42963881D01*
X133957140Y-42966084D01*
X133885438Y-42965587D01*
X133820165Y-42962258D01*
X133766208Y-42955964D01*
X133759070Y-42954695D01*
X133644854Y-42925891D01*
X133542477Y-42884594D01*
X133451646Y-42830441D01*
X133372074Y-42763073D01*
X133303468Y-42682127D01*
X133245539Y-42587241D01*
X133197997Y-42478055D01*
X133160552Y-42354206D01*
X133132913Y-42215333D01*
X133125834Y-42165679D01*
X133121405Y-42118572D01*
X133118203Y-42057908D01*
X133116229Y-41988091D01*
X133116052Y-41970338D01*
X133462994Y-41970338D01*
X133464663Y-42044368D01*
X133468255Y-42109776D01*
X133473859Y-42162746D01*
X133474297Y-42165679D01*
X133496218Y-42275545D01*
X133526362Y-42369488D01*
X133565321Y-42448044D01*
X133613685Y-42511750D01*
X133672048Y-42561142D01*
X133740999Y-42596757D01*
X133821131Y-42619131D01*
X133913035Y-42628800D01*
X133984406Y-42628309D01*
X134040397Y-42623751D01*
X134093325Y-42615836D01*
X134134085Y-42606149D01*
X134204481Y-42578111D01*
X134263284Y-42540266D01*
X134311995Y-42490912D01*
X134352115Y-42428346D01*
X134385145Y-42350866D01*
X134399855Y-42304674D01*
X134415384Y-42243188D01*
X134426978Y-42178073D01*
X134434992Y-42105938D01*
X134439778Y-42023394D01*
X134441690Y-41927048D01*
X134441760Y-41902369D01*
X134438698Y-41768556D01*
X134429185Y-41650926D01*
X134412799Y-41548550D01*
X134389119Y-41460502D01*
X134357722Y-41385851D01*
X134318186Y-41323669D01*
X134270090Y-41273029D01*
X134213012Y-41233001D01*
X134146530Y-41202657D01*
X134119750Y-41193784D01*
X134069437Y-41183303D01*
X134007598Y-41177562D01*
X133940205Y-41176501D01*
X133873229Y-41180061D01*
X133812640Y-41188181D01*
X133774915Y-41197249D01*
X133701770Y-41227769D01*
X133639131Y-41271192D01*
X133586409Y-41328264D01*
X133543015Y-41399726D01*
X133508360Y-41486324D01*
X133488396Y-41558854D01*
X133480389Y-41604459D01*
X133473774Y-41664344D01*
X133468638Y-41734690D01*
X133465070Y-41811683D01*
X133463159Y-41891505D01*
X133462994Y-41970338D01*
X133116052Y-41970338D01*
X133115484Y-41913529D01*
X133115969Y-41838630D01*
X133117685Y-41767798D01*
X133120632Y-41705442D01*
X133124813Y-41655968D01*
X133125718Y-41648607D01*
X133150250Y-41504562D01*
X133184094Y-41375862D01*
X133227373Y-41262207D01*
X133280209Y-41163301D01*
X133342724Y-41078844D01*
X133371790Y-41047714D01*
X133410293Y-41009250D01*
X133369972Y-40966072D01*
X133305646Y-40887761D01*
X133251375Y-40800779D01*
X133206665Y-40703714D01*
X133171021Y-40595158D01*
X133143952Y-40473701D01*
X133124962Y-40337932D01*
X133116829Y-40242999D01*
X133113970Y-40164923D01*
X133462486Y-40164923D01*
X133463701Y-40237316D01*
X133466821Y-40300963D01*
X133470926Y-40344282D01*
X133488539Y-40447939D01*
X133513592Y-40540351D01*
X133545426Y-40619597D01*
X133583383Y-40683757D01*
X133590458Y-40693103D01*
X133633743Y-40735681D01*
X133690749Y-40772936D01*
X133757347Y-40802776D01*
X133829406Y-40823113D01*
X133856679Y-40827818D01*
X133910740Y-40832035D01*
X133973929Y-40831650D01*
X134038502Y-40827086D01*
X134096715Y-40818763D01*
X134120417Y-40813481D01*
X134193147Y-40787839D01*
X134254544Y-40751077D01*
X134305824Y-40701865D01*
X134348207Y-40638874D01*
X134382911Y-40560775D01*
X134399894Y-40508396D01*
X134415415Y-40446919D01*
X134427003Y-40381776D01*
X134435010Y-40309580D01*
X134439789Y-40226949D01*
X134441692Y-40130496D01*
X134441760Y-40106226D01*
X134440721Y-40012517D01*
X134437326Y-39932985D01*
X134431208Y-39863775D01*
X134422002Y-39801032D01*
X134409340Y-39740899D01*
X134405567Y-39725725D01*
X134376062Y-39634474D01*
X134337679Y-39558527D01*
X134289568Y-39497241D01*
X134230878Y-39449975D01*
X134160758Y-39416087D01*
X134078359Y-39394934D01*
X133982828Y-39385876D01*
X133954643Y-39385420D01*
X133882977Y-39387438D01*
X133823536Y-39394412D01*
X133770833Y-39407377D01*
X133719380Y-39427364D01*
X133710727Y-39431363D01*
X133648545Y-39470609D01*
X133594397Y-39525629D01*
X133548771Y-39595700D01*
X133512152Y-39680098D01*
X133488660Y-39761750D01*
X133480898Y-39806050D01*
X133474340Y-39864624D01*
X133469103Y-39933634D01*
X133465304Y-40009246D01*
X133463059Y-40087621D01*
X133462486Y-40164923D01*
X133113970Y-40164923D01*
X133112510Y-40125085D01*
X133114833Y-40004565D01*
X133123398Y-39885382D01*
X133137804Y-39771481D01*
X133157650Y-39666807D01*
X133182536Y-39575304D01*
X133185582Y-39566160D01*
X133212708Y-39496259D01*
X133245776Y-39426473D01*
X133281417Y-39363514D01*
X133304332Y-39329481D01*
X133344155Y-39282236D01*
X133394108Y-39233347D01*
X133448474Y-39187821D01*
X133501535Y-39150665D01*
X133522182Y-39138693D01*
X133613908Y-39098480D01*
X133716360Y-39069170D01*
X133825983Y-39050817D01*
X133939224Y-39043476D01*
X134052528Y-39047199D01*
G36*
X135896670Y-39046936D02*
X135965612Y-39050736D01*
X136027929Y-39056912D01*
X136078714Y-39065365D01*
X136081169Y-39065916D01*
X136198194Y-39100683D01*
X136303488Y-39148945D01*
X136397117Y-39210793D01*
X136479147Y-39286324D01*
X136549644Y-39375629D01*
X136608676Y-39478803D01*
X136656309Y-39595940D01*
X136692608Y-39727134D01*
X136717640Y-39872477D01*
X136728339Y-39980522D01*
X136730184Y-40017016D01*
X136731748Y-40071567D01*
X136733029Y-40144091D01*
X136734027Y-40234506D01*
X136734741Y-40342727D01*
X136735173Y-40468672D01*
X136735319Y-40612256D01*
X136735182Y-40773397D01*
X136734759Y-40952011D01*
X136734227Y-41104321D01*
X136733581Y-41262414D01*
X136732942Y-41403435D01*
X136732290Y-41528459D01*
X136731609Y-41638558D01*
X136730878Y-41734803D01*
X136730079Y-41818269D01*
X136729193Y-41890026D01*
X136728202Y-41951148D01*
X136727086Y-42002707D01*
X136725828Y-42045775D01*
X136724407Y-42081425D01*
X136722806Y-42110730D01*
X136721006Y-42134762D01*
X136718987Y-42154593D01*
X136716732Y-42171296D01*
X136715428Y-42179286D01*
X136690668Y-42301126D01*
X136660705Y-42407799D01*
X136624382Y-42501821D01*
X136580540Y-42585712D01*
X136528021Y-42661990D01*
X136465668Y-42733172D01*
X136456445Y-42742516D01*
X136376611Y-42813160D01*
X136291764Y-42869644D01*
X136200053Y-42912642D01*
X136099626Y-42942824D01*
X135988629Y-42960862D01*
X135865211Y-42967426D01*
X135835862Y-42967394D01*
X135786499Y-42966272D01*
X135737808Y-42964083D01*
X135695969Y-42961163D01*
X135670964Y-42958439D01*
X135571714Y-42936623D01*
X135472716Y-42900898D01*
X135379523Y-42853655D01*
X135298674Y-42798085D01*
X135217189Y-42720834D01*
X135146632Y-42629168D01*
X135086992Y-42523063D01*
X135038257Y-42402496D01*
X135000413Y-42267441D01*
X134984481Y-42188357D01*
X134982611Y-42174379D01*
X134980932Y-42154149D01*
X134979437Y-42126790D01*
X134978115Y-42091424D01*
X134976957Y-42047170D01*
X134975956Y-41993152D01*
X134975101Y-41928490D01*
X134974384Y-41852306D01*
X134973796Y-41763721D01*
X134973328Y-41661857D01*
X134972970Y-41545835D01*
X134972715Y-41414777D01*
X134972553Y-41267804D01*
X134972475Y-41104037D01*
X134972466Y-41017715D01*
X135303339Y-41017715D01*
X135303397Y-41141733D01*
X135303596Y-41264039D01*
X135303936Y-41383105D01*
X135304419Y-41497404D01*
X135305044Y-41605411D01*
X135305811Y-41705598D01*
X135306722Y-41796439D01*
X135307776Y-41876408D01*
X135308973Y-41943977D01*
X135310315Y-41997620D01*
X135311801Y-42035810D01*
X135313031Y-42053592D01*
X135330534Y-42175636D01*
X135357098Y-42282218D01*
X135393051Y-42373776D01*
X135438720Y-42450750D01*
X135494433Y-42513582D01*
X135560518Y-42562709D01*
X135637302Y-42598573D01*
X135725112Y-42621613D01*
X135737821Y-42623763D01*
X135799800Y-42629351D01*
X135869938Y-42628784D01*
X135941229Y-42622586D01*
X136006670Y-42611279D01*
X136044451Y-42600873D01*
X136120711Y-42568185D01*
X136186183Y-42524423D01*
X136241594Y-42468565D01*
X136287671Y-42399590D01*
X136325141Y-42316477D01*
X136354730Y-42218203D01*
X136370712Y-42142242D01*
X136373243Y-42126744D01*
X136375502Y-42109141D01*
X136377509Y-42088316D01*
X136379285Y-42063149D01*
X136380851Y-42032524D01*
X136382228Y-41995323D01*
X136383437Y-41950426D01*
X136384500Y-41896718D01*
X136385437Y-41833078D01*
X136386268Y-41758391D01*
X136387016Y-41671537D01*
X136387701Y-41571399D01*
X136388344Y-41456859D01*
X136388966Y-41326799D01*
X136389589Y-41180100D01*
X136389808Y-41125257D01*
X136390421Y-40948781D01*
X136390782Y-40789445D01*
X136390871Y-40646248D01*
X136390664Y-40518190D01*
X136390141Y-40404269D01*
X136389279Y-40303484D01*
X136388057Y-40214834D01*
X136386453Y-40137319D01*
X136384445Y-40069936D01*
X136382011Y-40011685D01*
X136379130Y-39961565D01*
X136375779Y-39918575D01*
X136371938Y-39881714D01*
X136367584Y-39849980D01*
X136362696Y-39822374D01*
X136361326Y-39815710D01*
X136334128Y-39713582D01*
X136298622Y-39626917D01*
X136253988Y-39554652D01*
X136199404Y-39495724D01*
X136134050Y-39449070D01*
X136057104Y-39413626D01*
X136048414Y-39410545D01*
X136023305Y-39402528D01*
X135999374Y-39396894D01*
X135972676Y-39393256D01*
X135939269Y-39391226D01*
X135895209Y-39390419D01*
X135843322Y-39390416D01*
X135785957Y-39390950D01*
X135742928Y-39392271D01*
X135710433Y-39394771D01*
X135684667Y-39398842D01*
X135661829Y-39404875D01*
X135644475Y-39410869D01*
X135582955Y-39437082D01*
X135532870Y-39467224D01*
X135487518Y-39505624D01*
X135469866Y-39523560D01*
X135420414Y-39587079D01*
X135380088Y-39663751D01*
X135348585Y-39754409D01*
X135325599Y-39859887D01*
X135313530Y-39951558D01*
X135311921Y-39977058D01*
X135310449Y-40019164D01*
X135309115Y-40076349D01*
X135307918Y-40147088D01*
X135306859Y-40229853D01*
X135305938Y-40323118D01*
X135305156Y-40425357D01*
X135304513Y-40535041D01*
X135304010Y-40650646D01*
X135303646Y-40770645D01*
X135303422Y-40893509D01*
X135303339Y-41017715D01*
X134972466Y-41017715D01*
X134972464Y-41009071D01*
X134972458Y-40837467D01*
X134972469Y-40682957D01*
X134972548Y-40544496D01*
X134972742Y-40421034D01*
X134973099Y-40311525D01*
X134973667Y-40214921D01*
X134974496Y-40130174D01*
X134975633Y-40056237D01*
X134977126Y-39992062D01*
X134979025Y-39936601D01*
X134981376Y-39888808D01*
X134984229Y-39847634D01*
X134987631Y-39812032D01*
X134991632Y-39780955D01*
X134996279Y-39753354D01*
X135001620Y-39728182D01*
X135007704Y-39704391D01*
X135014579Y-39680935D01*
X135022294Y-39656765D01*
X135030896Y-39630834D01*
X135036811Y-39613067D01*
X135084087Y-39493367D01*
X135141892Y-39388342D01*
X135210694Y-39297570D01*
X135290964Y-39220627D01*
X135383169Y-39157091D01*
X135487779Y-39106538D01*
X135605263Y-39068546D01*
X135652822Y-39057432D01*
X135699180Y-39050759D01*
X135758546Y-39046850D01*
X135826012Y-39045608D01*
X135896670Y-39046936D01*
X135896670Y-39046936D01*
G37*
X135896670Y-39046936D02*
X135965612Y-39050736D01*
X136027929Y-39056912D01*
X136078714Y-39065365D01*
X136081169Y-39065916D01*
X136198194Y-39100683D01*
X136303488Y-39148945D01*
X136397117Y-39210793D01*
X136479147Y-39286324D01*
X136549644Y-39375629D01*
X136608676Y-39478803D01*
X136656309Y-39595940D01*
X136692608Y-39727134D01*
X136717640Y-39872477D01*
X136728339Y-39980522D01*
X136730184Y-40017016D01*
X136731748Y-40071567D01*
X136733029Y-40144091D01*
X136734027Y-40234506D01*
X136734741Y-40342727D01*
X136735173Y-40468672D01*
X136735319Y-40612256D01*
X136735182Y-40773397D01*
X136734759Y-40952011D01*
X136734227Y-41104321D01*
X136733581Y-41262414D01*
X136732942Y-41403435D01*
X136732290Y-41528459D01*
X136731609Y-41638558D01*
X136730878Y-41734803D01*
X136730079Y-41818269D01*
X136729193Y-41890026D01*
X136728202Y-41951148D01*
X136727086Y-42002707D01*
X136725828Y-42045775D01*
X136724407Y-42081425D01*
X136722806Y-42110730D01*
X136721006Y-42134762D01*
X136718987Y-42154593D01*
X136716732Y-42171296D01*
X136715428Y-42179286D01*
X136690668Y-42301126D01*
X136660705Y-42407799D01*
X136624382Y-42501821D01*
X136580540Y-42585712D01*
X136528021Y-42661990D01*
X136465668Y-42733172D01*
X136456445Y-42742516D01*
X136376611Y-42813160D01*
X136291764Y-42869644D01*
X136200053Y-42912642D01*
X136099626Y-42942824D01*
X135988629Y-42960862D01*
X135865211Y-42967426D01*
X135835862Y-42967394D01*
X135786499Y-42966272D01*
X135737808Y-42964083D01*
X135695969Y-42961163D01*
X135670964Y-42958439D01*
X135571714Y-42936623D01*
X135472716Y-42900898D01*
X135379523Y-42853655D01*
X135298674Y-42798085D01*
X135217189Y-42720834D01*
X135146632Y-42629168D01*
X135086992Y-42523063D01*
X135038257Y-42402496D01*
X135000413Y-42267441D01*
X134984481Y-42188357D01*
X134982611Y-42174379D01*
X134980932Y-42154149D01*
X134979437Y-42126790D01*
X134978115Y-42091424D01*
X134976957Y-42047170D01*
X134975956Y-41993152D01*
X134975101Y-41928490D01*
X134974384Y-41852306D01*
X134973796Y-41763721D01*
X134973328Y-41661857D01*
X134972970Y-41545835D01*
X134972715Y-41414777D01*
X134972553Y-41267804D01*
X134972475Y-41104037D01*
X134972466Y-41017715D01*
X135303339Y-41017715D01*
X135303397Y-41141733D01*
X135303596Y-41264039D01*
X135303936Y-41383105D01*
X135304419Y-41497404D01*
X135305044Y-41605411D01*
X135305811Y-41705598D01*
X135306722Y-41796439D01*
X135307776Y-41876408D01*
X135308973Y-41943977D01*
X135310315Y-41997620D01*
X135311801Y-42035810D01*
X135313031Y-42053592D01*
X135330534Y-42175636D01*
X135357098Y-42282218D01*
X135393051Y-42373776D01*
X135438720Y-42450750D01*
X135494433Y-42513582D01*
X135560518Y-42562709D01*
X135637302Y-42598573D01*
X135725112Y-42621613D01*
X135737821Y-42623763D01*
X135799800Y-42629351D01*
X135869938Y-42628784D01*
X135941229Y-42622586D01*
X136006670Y-42611279D01*
X136044451Y-42600873D01*
X136120711Y-42568185D01*
X136186183Y-42524423D01*
X136241594Y-42468565D01*
X136287671Y-42399590D01*
X136325141Y-42316477D01*
X136354730Y-42218203D01*
X136370712Y-42142242D01*
X136373243Y-42126744D01*
X136375502Y-42109141D01*
X136377509Y-42088316D01*
X136379285Y-42063149D01*
X136380851Y-42032524D01*
X136382228Y-41995323D01*
X136383437Y-41950426D01*
X136384500Y-41896718D01*
X136385437Y-41833078D01*
X136386268Y-41758391D01*
X136387016Y-41671537D01*
X136387701Y-41571399D01*
X136388344Y-41456859D01*
X136388966Y-41326799D01*
X136389589Y-41180100D01*
X136389808Y-41125257D01*
X136390421Y-40948781D01*
X136390782Y-40789445D01*
X136390871Y-40646248D01*
X136390664Y-40518190D01*
X136390141Y-40404269D01*
X136389279Y-40303484D01*
X136388057Y-40214834D01*
X136386453Y-40137319D01*
X136384445Y-40069936D01*
X136382011Y-40011685D01*
X136379130Y-39961565D01*
X136375779Y-39918575D01*
X136371938Y-39881714D01*
X136367584Y-39849980D01*
X136362696Y-39822374D01*
X136361326Y-39815710D01*
X136334128Y-39713582D01*
X136298622Y-39626917D01*
X136253988Y-39554652D01*
X136199404Y-39495724D01*
X136134050Y-39449070D01*
X136057104Y-39413626D01*
X136048414Y-39410545D01*
X136023305Y-39402528D01*
X135999374Y-39396894D01*
X135972676Y-39393256D01*
X135939269Y-39391226D01*
X135895209Y-39390419D01*
X135843322Y-39390416D01*
X135785957Y-39390950D01*
X135742928Y-39392271D01*
X135710433Y-39394771D01*
X135684667Y-39398842D01*
X135661829Y-39404875D01*
X135644475Y-39410869D01*
X135582955Y-39437082D01*
X135532870Y-39467224D01*
X135487518Y-39505624D01*
X135469866Y-39523560D01*
X135420414Y-39587079D01*
X135380088Y-39663751D01*
X135348585Y-39754409D01*
X135325599Y-39859887D01*
X135313530Y-39951558D01*
X135311921Y-39977058D01*
X135310449Y-40019164D01*
X135309115Y-40076349D01*
X135307918Y-40147088D01*
X135306859Y-40229853D01*
X135305938Y-40323118D01*
X135305156Y-40425357D01*
X135304513Y-40535041D01*
X135304010Y-40650646D01*
X135303646Y-40770645D01*
X135303422Y-40893509D01*
X135303339Y-41017715D01*
X134972466Y-41017715D01*
X134972464Y-41009071D01*
X134972458Y-40837467D01*
X134972469Y-40682957D01*
X134972548Y-40544496D01*
X134972742Y-40421034D01*
X134973099Y-40311525D01*
X134973667Y-40214921D01*
X134974496Y-40130174D01*
X134975633Y-40056237D01*
X134977126Y-39992062D01*
X134979025Y-39936601D01*
X134981376Y-39888808D01*
X134984229Y-39847634D01*
X134987631Y-39812032D01*
X134991632Y-39780955D01*
X134996279Y-39753354D01*
X135001620Y-39728182D01*
X135007704Y-39704391D01*
X135014579Y-39680935D01*
X135022294Y-39656765D01*
X135030896Y-39630834D01*
X135036811Y-39613067D01*
X135084087Y-39493367D01*
X135141892Y-39388342D01*
X135210694Y-39297570D01*
X135290964Y-39220627D01*
X135383169Y-39157091D01*
X135487779Y-39106538D01*
X135605263Y-39068546D01*
X135652822Y-39057432D01*
X135699180Y-39050759D01*
X135758546Y-39046850D01*
X135826012Y-39045608D01*
X135896670Y-39046936D01*
D12*
X94220000Y-70250000D03*
D13*
X96760000Y-70250000D03*
X99300000Y-70250000D03*
X101840000Y-70250000D03*
X104380000Y-70250000D03*
X106920000Y-70250000D03*
X109460000Y-70250000D03*
X112000000Y-70250000D03*
D14*
X120700000Y-118250000D03*
D15*
X111300000Y-118250000D03*
D16*
X116000000Y-123150000D03*
X116000000Y-114950000D03*
D14*
X93800000Y-99750000D03*
D15*
X103200000Y-99750000D03*
D16*
X98500000Y-94850000D03*
X98500000Y-103050000D03*
D14*
X120700000Y-99750000D03*
D15*
X111300000Y-99750000D03*
D16*
X116000000Y-104650000D03*
X116000000Y-96450000D03*
D14*
X128800000Y-99750000D03*
D15*
X138200000Y-99750000D03*
D16*
X133500000Y-94850000D03*
X133500000Y-103050000D03*
D14*
X93800000Y-118250000D03*
D15*
X103200000Y-118250000D03*
D16*
X98500000Y-113350000D03*
X98500000Y-121550000D03*
D14*
X128800000Y-118250000D03*
D15*
X138200000Y-118250000D03*
D16*
X133500000Y-113350000D03*
X133500000Y-121550000D03*
D14*
X128800000Y-137750000D03*
D15*
X138200000Y-137750000D03*
D16*
X133500000Y-132850000D03*
X133500000Y-141050000D03*
D14*
X93800000Y-137750000D03*
D15*
X103200000Y-137750000D03*
D16*
X98500000Y-132850000D03*
X98500000Y-141050000D03*
D14*
X111300000Y-137750000D03*
D15*
X120700000Y-137750000D03*
D16*
X116000000Y-132850000D03*
X116000000Y-141050000D03*
D12*
X134500000Y-74000000D03*
D13*
X137040000Y-74000000D03*
X134500000Y-71460000D03*
X137040000Y-71460000D03*
X134500000Y-68920000D03*
X137040000Y-68920000D03*
X134500000Y-66380000D03*
X137040000Y-66380000D03*
X134500000Y-63840000D03*
X137040000Y-63840000D03*
D12*
X125750000Y-128250000D03*
D13*
X125750000Y-125710000D03*
X125750000Y-123170000D03*
D17*
X119000000Y-128250000D03*
X116000000Y-128250000D03*
X113000000Y-128250000D03*
D18*
X122500000Y-128250000D03*
X109500000Y-128250000D03*
D19*
X120500000Y-67250000D03*
X98500000Y-127750000D03*
D20*
X106250000Y-77250000D03*
X130500000Y-106000000D03*
X94250000Y-106250000D03*
X124750000Y-133250000D03*
X108500000Y-113750000D03*
D21*
X127300000Y-66800000D03*
X127300000Y-69340000D03*
X127300000Y-64260000D03*
X112400000Y-91550000D03*
X109860000Y-91550000D03*
X114940000Y-91550000D03*
D22*
X133300000Y-80250000D03*
X123700000Y-80250000D03*
D23*
X131000000Y-87750000D03*
X128500000Y-87750000D03*
X126000000Y-87750000D03*
D22*
X108300000Y-80250000D03*
X98700000Y-80250000D03*
D23*
X106000000Y-87750000D03*
X103500000Y-87750000D03*
X101000000Y-87750000D03*
D22*
X133300000Y-51250000D03*
X123700000Y-51250000D03*
D23*
X131000000Y-58750000D03*
X128500000Y-58750000D03*
X126000000Y-58750000D03*
D24*
X119650000Y-79700000D03*
D25*
X127000000Y-111300000D03*
X119300020Y-103750000D03*
D24*
X110750000Y-72750000D03*
D25*
X116000000Y-109500000D03*
X104750000Y-109500000D03*
X132750000Y-93000000D03*
X98250000Y-84750000D03*
X129450000Y-55050000D03*
X129450000Y-53750000D03*
X129450000Y-52500000D03*
X129450000Y-51250000D03*
X129450000Y-50000000D03*
X129450000Y-48750000D03*
X129450000Y-47651480D03*
X115750000Y-85800000D03*
D24*
X114250000Y-81800048D03*
X120900000Y-80450000D03*
X124550000Y-76550000D03*
D25*
X120810472Y-75266277D03*
D24*
X129150000Y-77750000D03*
X129150000Y-78650000D03*
X129150000Y-79550000D03*
X138200000Y-50150000D03*
X138200000Y-51050000D03*
X138200000Y-51950000D03*
X138200000Y-52850000D03*
X137250000Y-91750000D03*
X116100000Y-73900000D03*
D25*
X104074981Y-91011791D03*
X122865045Y-103825019D03*
X106250000Y-114000000D03*
X113100000Y-110800000D03*
X112400000Y-104000000D03*
X117000000Y-111250000D03*
X109950000Y-87000000D03*
X122750000Y-87400000D03*
X117008377Y-107991623D03*
X93250000Y-109500000D03*
X113300000Y-77000000D03*
X114400000Y-72750000D03*
X100000000Y-92750000D03*
X136500000Y-78500000D03*
X136500000Y-79500000D03*
X136500000Y-80500000D03*
X136500000Y-81500000D03*
X136500000Y-82500000D03*
X100650000Y-104700000D03*
X122850000Y-105000000D03*
X118200004Y-87750000D03*
X124000000Y-71250000D03*
X107499996Y-90100000D03*
X137250000Y-105200000D03*
X108850000Y-96700000D03*
X94000000Y-85500000D03*
X109950000Y-88750000D03*
D24*
X122850000Y-114150000D03*
X108550000Y-118600000D03*
D25*
X104300000Y-92750000D03*
D24*
X112600000Y-89550000D03*
X106900000Y-106350000D03*
D26*
X136500000Y-79500000D02*
X136500000Y-80500000D01*
X136500000Y-78500000D02*
X136500000Y-77250000D01*
X136500000Y-77250000D02*
X135750000Y-76500000D01*
X135750000Y-76500000D02*
X132000000Y-76500000D01*
X132000000Y-76500000D02*
X128250000Y-72750000D01*
X128250000Y-72750000D02*
X115036396Y-72750000D01*
X115036396Y-72750000D02*
X114400000Y-72750000D01*
X136500000Y-81500000D02*
X136500000Y-82500000D01*
X136500000Y-80500000D02*
X136500000Y-81500000D01*
X136500000Y-78500000D02*
X136500000Y-79500000D01*
D27*
X137250000Y-105200000D02*
X134500000Y-105200000D01*
X134500000Y-105200000D02*
X131600000Y-108100000D01*
X118400000Y-100604177D02*
X115601889Y-97806066D01*
X131600000Y-108100000D02*
X120200000Y-108100000D01*
X120200000Y-108100000D02*
X118400000Y-106300000D01*
X118400000Y-106300000D02*
X118400000Y-100604177D01*
X115601889Y-97806066D02*
X115601889Y-97700000D01*
X115601889Y-97700000D02*
X109850000Y-97700000D01*
X109850000Y-97700000D02*
X108850000Y-96700000D01*
D28*
X124750000Y-133250000D02*
X124750000Y-131977208D01*
X124750000Y-131977208D02*
X123575001Y-130802209D01*
X123575001Y-130802209D02*
X123575001Y-114875001D01*
X123249999Y-114549999D02*
X122850000Y-114150000D01*
X123575001Y-114875001D02*
X123249999Y-114549999D01*
X108500000Y-118550000D02*
X108550000Y-118600000D01*
X108500000Y-113750000D02*
X108500000Y-118550000D01*
D27*
X104975001Y-92074999D02*
X104300000Y-92750000D01*
X104975001Y-90753997D02*
X104975001Y-92074999D01*
X112000000Y-83050000D02*
X107325001Y-87724999D01*
X112000000Y-73300000D02*
X112000000Y-83050000D01*
X107325001Y-87724999D02*
X107325001Y-88403997D01*
X107325001Y-88403997D02*
X104975001Y-90753997D01*
X127300000Y-69340000D02*
X115960000Y-69340000D01*
X115960000Y-69340000D02*
X112000000Y-73300000D01*
X126000000Y-58750000D02*
X124850000Y-59900000D01*
X124850000Y-59900000D02*
X124850000Y-66890000D01*
X124850000Y-66890000D02*
X127300000Y-69340000D01*
D29*
X98500000Y-113350000D02*
X99500000Y-113350000D01*
X111400000Y-112400000D02*
X123000000Y-112400000D01*
X99500000Y-113350000D02*
X101600000Y-111250000D01*
X101600000Y-111250000D02*
X110250000Y-111250000D01*
X110250000Y-111250000D02*
X111400000Y-112400000D01*
X123000000Y-112400000D02*
X125900000Y-109500000D01*
X125900000Y-109500000D02*
X131800000Y-109500000D01*
X131800000Y-109500000D02*
X133500000Y-111200000D01*
X133500000Y-111200000D02*
X133500000Y-113350000D01*
D28*
X131000000Y-87750000D02*
X131000000Y-93350000D01*
X132500000Y-94850000D02*
X133500000Y-94850000D01*
X131000000Y-93350000D02*
X132500000Y-94850000D01*
X117000000Y-126250000D02*
X111000000Y-126250000D01*
X111000000Y-126250000D02*
X109450000Y-124700000D01*
X119000000Y-128250000D02*
X117000000Y-126250000D01*
X112600000Y-89550000D02*
X109450000Y-89550000D01*
X109450000Y-89550000D02*
X106400000Y-92600000D01*
X100450000Y-109700000D02*
X97350000Y-109700000D01*
X102500000Y-124700000D02*
X109450000Y-124700000D01*
X106400000Y-92600000D02*
X106400000Y-103750000D01*
X97350000Y-109700000D02*
X95600000Y-111450000D01*
X95600000Y-114500000D02*
X101300000Y-120200000D01*
X106400000Y-103750000D02*
X100450000Y-109700000D01*
X101300000Y-120200000D02*
X101300000Y-123500000D01*
X95600000Y-111450000D02*
X95600000Y-114500000D01*
X101300000Y-123500000D02*
X102500000Y-124700000D01*
X128500000Y-87750000D02*
X123000000Y-93250000D01*
X123000000Y-93250000D02*
X108900000Y-93250000D01*
X108900000Y-93250000D02*
X107500000Y-94650000D01*
X107500000Y-94650000D02*
X107500000Y-103600000D01*
X107500000Y-103600000D02*
X106900000Y-104200000D01*
X106900000Y-104200000D02*
X106900000Y-106350000D01*
M02*
