G04 #@! TF.FileFunction,Copper,L3,Inr,Plane*
%FSLAX46Y46*%
G04 Gerber Fmt 4.6, Leading zero omitted, Abs format (unit mm)*
G04 Created by KiCad (PCBNEW 4.0.2-stable) date 2018-09-14 12:35:55 PM*
%MOMM*%
G01*
G04 APERTURE LIST*
%ADD10C,0.200000*%
%ADD11R,1.700000X1.700000*%
%ADD12O,1.700000X1.700000*%
%ADD13O,2.500000X4.000000*%
%ADD14O,2.000000X2.500000*%
%ADD15O,3.500000X1.500000*%
%ADD16C,1.524000*%
%ADD17R,1.500000X2.000000*%
%ADD18R,2.800000X1.600000*%
%ADD19C,1.800000*%
%ADD20O,2.800000X3.500000*%
%ADD21C,1.750000*%
%ADD22C,1.270000*%
%ADD23C,0.800000*%
%ADD24C,0.900000*%
%ADD25C,0.254000*%
G04 APERTURE END LIST*
D10*
D11*
X94220000Y-70250000D03*
D12*
X96760000Y-70250000D03*
X99300000Y-70250000D03*
X101840000Y-70250000D03*
X104380000Y-70250000D03*
X106920000Y-70250000D03*
X109460000Y-70250000D03*
X112000000Y-70250000D03*
D13*
X120700000Y-118250000D03*
D14*
X111300000Y-118250000D03*
D15*
X116000000Y-123150000D03*
X116000000Y-114950000D03*
D13*
X93800000Y-99750000D03*
D14*
X103200000Y-99750000D03*
D15*
X98500000Y-94850000D03*
X98500000Y-103050000D03*
D13*
X120700000Y-99750000D03*
D14*
X111300000Y-99750000D03*
D15*
X116000000Y-104650000D03*
X116000000Y-96450000D03*
D13*
X128800000Y-99750000D03*
D14*
X138200000Y-99750000D03*
D15*
X133500000Y-94850000D03*
X133500000Y-103050000D03*
D13*
X93800000Y-118250000D03*
D14*
X103200000Y-118250000D03*
D15*
X98500000Y-113350000D03*
X98500000Y-121550000D03*
D13*
X128800000Y-118250000D03*
D14*
X138200000Y-118250000D03*
D15*
X133500000Y-113350000D03*
X133500000Y-121550000D03*
D13*
X111300000Y-137750000D03*
D14*
X120700000Y-137750000D03*
D15*
X116000000Y-132850000D03*
X116000000Y-141050000D03*
D13*
X93800000Y-137750000D03*
D14*
X103200000Y-137750000D03*
D15*
X98500000Y-132850000D03*
X98500000Y-141050000D03*
D13*
X128800000Y-137750000D03*
D14*
X138200000Y-137750000D03*
D15*
X133500000Y-132850000D03*
X133500000Y-141050000D03*
D11*
X134500000Y-74000000D03*
D12*
X137040000Y-74000000D03*
X134500000Y-71460000D03*
X137040000Y-71460000D03*
X134500000Y-68920000D03*
X137040000Y-68920000D03*
X134500000Y-66380000D03*
X137040000Y-66380000D03*
X134500000Y-63840000D03*
X137040000Y-63840000D03*
D11*
X125750000Y-128250000D03*
D12*
X125750000Y-125710000D03*
X125750000Y-123170000D03*
D16*
X113000000Y-128250000D03*
X116000000Y-128250000D03*
X119000000Y-128250000D03*
D17*
X109500000Y-128250000D03*
X122500000Y-128250000D03*
D18*
X120500000Y-67250000D03*
X98500000Y-127750000D03*
D19*
X106250000Y-77250000D03*
X130500000Y-106000000D03*
X94250000Y-106250000D03*
X123500000Y-135000000D03*
X108500000Y-113750000D03*
D20*
X133300000Y-51250000D03*
X123700000Y-51250000D03*
D21*
X131000000Y-58750000D03*
X128500000Y-58750000D03*
X126000000Y-58750000D03*
D20*
X108300000Y-80250000D03*
X98700000Y-80250000D03*
D21*
X106000000Y-87750000D03*
X103500000Y-87750000D03*
X101000000Y-87750000D03*
D22*
X127300000Y-66800000D03*
X127300000Y-69340000D03*
X127300000Y-64260000D03*
X112400000Y-91550000D03*
X109860000Y-91550000D03*
X114940000Y-91550000D03*
D20*
X133300000Y-80250000D03*
X123700000Y-80250000D03*
D21*
X131000000Y-87750000D03*
X128500000Y-87750000D03*
X126000000Y-87750000D03*
D23*
X110750000Y-72750000D03*
D24*
X119000000Y-103750000D03*
X116000000Y-109500000D03*
X104750000Y-109500000D03*
X132750000Y-93000000D03*
X98250000Y-84750000D03*
X129450000Y-55050000D03*
X129450000Y-53750000D03*
X129450000Y-52500000D03*
X129450000Y-51250000D03*
X129450000Y-50000000D03*
X129450000Y-48750000D03*
X129450000Y-47651480D03*
X127100000Y-111250000D03*
X115750000Y-85800000D03*
X119650000Y-82050000D03*
X120810472Y-75266277D03*
D23*
X129150000Y-77750000D03*
X129150000Y-78650000D03*
X129150000Y-79550000D03*
X138200000Y-50150000D03*
X138200000Y-51050000D03*
X138200000Y-51950000D03*
X138200000Y-52850000D03*
X137250000Y-91750000D03*
X116100000Y-73900000D03*
D24*
X104074981Y-91011791D03*
X122865045Y-103825019D03*
X106250000Y-114000000D03*
X113100000Y-110800000D03*
X112400000Y-104000000D03*
X117000000Y-111250000D03*
X109950000Y-87000000D03*
X120824980Y-78900000D03*
X122750000Y-87400000D03*
X117008377Y-107991623D03*
X93250000Y-109500000D03*
X113300000Y-77000000D03*
X117099998Y-79650000D03*
X116750000Y-84450000D03*
X114250000Y-82000000D03*
X114400000Y-72750000D03*
X100000000Y-92750000D03*
X136500000Y-78500000D03*
X136500000Y-79500000D03*
X136500000Y-80500000D03*
X136500000Y-81500000D03*
X136500000Y-82500000D03*
X100650000Y-104700000D03*
X122850000Y-105000000D03*
X118200004Y-87750000D03*
X123600000Y-71599980D03*
X107499996Y-90100000D03*
X137250000Y-105200000D03*
X108850000Y-96700000D03*
X94000000Y-85500000D03*
X109950000Y-88750000D03*
D23*
X116000000Y-117550000D03*
X108550000Y-118600000D03*
D24*
X104300000Y-92750000D03*
D23*
X112600000Y-89550000D03*
X106900000Y-106350000D03*
D25*
G36*
X139569000Y-98630521D02*
X139263337Y-98245702D01*
X138702396Y-97934258D01*
X138580434Y-97909876D01*
X138327000Y-98029223D01*
X138327000Y-99623000D01*
X138347000Y-99623000D01*
X138347000Y-99877000D01*
X138327000Y-99877000D01*
X138327000Y-101470777D01*
X138580434Y-101590124D01*
X138702396Y-101565742D01*
X139263337Y-101254298D01*
X139569000Y-100869479D01*
X139569000Y-117130521D01*
X139263337Y-116745702D01*
X138702396Y-116434258D01*
X138580434Y-116409876D01*
X138327000Y-116529223D01*
X138327000Y-118123000D01*
X138347000Y-118123000D01*
X138347000Y-118377000D01*
X138327000Y-118377000D01*
X138327000Y-119970777D01*
X138580434Y-120090124D01*
X138702396Y-120065742D01*
X139263337Y-119754298D01*
X139569000Y-119369479D01*
X139569000Y-136630521D01*
X139263337Y-136245702D01*
X138702396Y-135934258D01*
X138580434Y-135909876D01*
X138327000Y-136029223D01*
X138327000Y-137623000D01*
X138347000Y-137623000D01*
X138347000Y-137877000D01*
X138327000Y-137877000D01*
X138327000Y-139470777D01*
X138580434Y-139590124D01*
X138702396Y-139565742D01*
X139263337Y-139254298D01*
X139569000Y-138869479D01*
X139569000Y-142568992D01*
X92431000Y-142568992D01*
X92431000Y-141050000D01*
X96327251Y-141050000D01*
X96413343Y-141482815D01*
X96658513Y-141849738D01*
X97025436Y-142094908D01*
X97458251Y-142181000D01*
X99541749Y-142181000D01*
X99974564Y-142094908D01*
X100341487Y-141849738D01*
X100586657Y-141482815D01*
X100672749Y-141050000D01*
X113827251Y-141050000D01*
X113913343Y-141482815D01*
X114158513Y-141849738D01*
X114525436Y-142094908D01*
X114958251Y-142181000D01*
X117041749Y-142181000D01*
X117474564Y-142094908D01*
X117841487Y-141849738D01*
X118086657Y-141482815D01*
X118172749Y-141050000D01*
X131327251Y-141050000D01*
X131413343Y-141482815D01*
X131658513Y-141849738D01*
X132025436Y-142094908D01*
X132458251Y-142181000D01*
X134541749Y-142181000D01*
X134974564Y-142094908D01*
X135341487Y-141849738D01*
X135586657Y-141482815D01*
X135672749Y-141050000D01*
X135586657Y-140617185D01*
X135341487Y-140250262D01*
X134974564Y-140005092D01*
X134541749Y-139919000D01*
X132458251Y-139919000D01*
X132025436Y-140005092D01*
X131658513Y-140250262D01*
X131413343Y-140617185D01*
X131327251Y-141050000D01*
X118172749Y-141050000D01*
X118086657Y-140617185D01*
X117841487Y-140250262D01*
X117474564Y-140005092D01*
X117041749Y-139919000D01*
X114958251Y-139919000D01*
X114525436Y-140005092D01*
X114158513Y-140250262D01*
X113913343Y-140617185D01*
X113827251Y-141050000D01*
X100672749Y-141050000D01*
X100586657Y-140617185D01*
X100341487Y-140250262D01*
X99974564Y-140005092D01*
X99541749Y-139919000D01*
X97458251Y-139919000D01*
X97025436Y-140005092D01*
X96658513Y-140250262D01*
X96413343Y-140617185D01*
X96327251Y-141050000D01*
X92431000Y-141050000D01*
X92431000Y-139759233D01*
X92556906Y-139922699D01*
X93195974Y-140290114D01*
X93380355Y-140337695D01*
X93673000Y-140221572D01*
X93673000Y-137877000D01*
X93927000Y-137877000D01*
X93927000Y-140221572D01*
X94219645Y-140337695D01*
X94404026Y-140290114D01*
X95043094Y-139922699D01*
X95492912Y-139338691D01*
X95685000Y-138627000D01*
X95685000Y-138135030D01*
X101561185Y-138135030D01*
X101737606Y-138751899D01*
X102136663Y-139254298D01*
X102697604Y-139565742D01*
X102819566Y-139590124D01*
X103073000Y-139470777D01*
X103073000Y-137877000D01*
X103327000Y-137877000D01*
X103327000Y-139470777D01*
X103580434Y-139590124D01*
X103702396Y-139565742D01*
X104263337Y-139254298D01*
X104662394Y-138751899D01*
X104838815Y-138135030D01*
X104681012Y-137877000D01*
X109415000Y-137877000D01*
X109415000Y-138627000D01*
X109607088Y-139338691D01*
X110056906Y-139922699D01*
X110695974Y-140290114D01*
X110880355Y-140337695D01*
X111173000Y-140221572D01*
X111173000Y-137877000D01*
X111427000Y-137877000D01*
X111427000Y-140221572D01*
X111719645Y-140337695D01*
X111904026Y-140290114D01*
X112543094Y-139922699D01*
X112992912Y-139338691D01*
X113185000Y-138627000D01*
X113185000Y-138135030D01*
X119061185Y-138135030D01*
X119237606Y-138751899D01*
X119636663Y-139254298D01*
X120197604Y-139565742D01*
X120319566Y-139590124D01*
X120573000Y-139470777D01*
X120573000Y-137877000D01*
X120827000Y-137877000D01*
X120827000Y-139470777D01*
X121080434Y-139590124D01*
X121202396Y-139565742D01*
X121763337Y-139254298D01*
X122162394Y-138751899D01*
X122338815Y-138135030D01*
X122181012Y-137877000D01*
X126915000Y-137877000D01*
X126915000Y-138627000D01*
X127107088Y-139338691D01*
X127556906Y-139922699D01*
X128195974Y-140290114D01*
X128380355Y-140337695D01*
X128673000Y-140221572D01*
X128673000Y-137877000D01*
X128927000Y-137877000D01*
X128927000Y-140221572D01*
X129219645Y-140337695D01*
X129404026Y-140290114D01*
X130043094Y-139922699D01*
X130492912Y-139338691D01*
X130685000Y-138627000D01*
X130685000Y-138135030D01*
X136561185Y-138135030D01*
X136737606Y-138751899D01*
X137136663Y-139254298D01*
X137697604Y-139565742D01*
X137819566Y-139590124D01*
X138073000Y-139470777D01*
X138073000Y-137877000D01*
X136718988Y-137877000D01*
X136561185Y-138135030D01*
X130685000Y-138135030D01*
X130685000Y-137877000D01*
X128927000Y-137877000D01*
X128673000Y-137877000D01*
X126915000Y-137877000D01*
X122181012Y-137877000D01*
X120827000Y-137877000D01*
X120573000Y-137877000D01*
X119218988Y-137877000D01*
X119061185Y-138135030D01*
X113185000Y-138135030D01*
X113185000Y-137877000D01*
X111427000Y-137877000D01*
X111173000Y-137877000D01*
X109415000Y-137877000D01*
X104681012Y-137877000D01*
X103327000Y-137877000D01*
X103073000Y-137877000D01*
X101718988Y-137877000D01*
X101561185Y-138135030D01*
X95685000Y-138135030D01*
X95685000Y-137877000D01*
X93927000Y-137877000D01*
X93673000Y-137877000D01*
X93653000Y-137877000D01*
X93653000Y-137623000D01*
X93673000Y-137623000D01*
X93673000Y-135278428D01*
X93927000Y-135278428D01*
X93927000Y-137623000D01*
X95685000Y-137623000D01*
X95685000Y-137364970D01*
X101561185Y-137364970D01*
X101718988Y-137623000D01*
X103073000Y-137623000D01*
X103073000Y-136029223D01*
X103327000Y-136029223D01*
X103327000Y-137623000D01*
X104681012Y-137623000D01*
X104838815Y-137364970D01*
X104698115Y-136873000D01*
X109415000Y-136873000D01*
X109415000Y-137623000D01*
X111173000Y-137623000D01*
X111173000Y-135278428D01*
X111427000Y-135278428D01*
X111427000Y-137623000D01*
X113185000Y-137623000D01*
X113185000Y-137364970D01*
X119061185Y-137364970D01*
X119218988Y-137623000D01*
X120573000Y-137623000D01*
X120573000Y-136029223D01*
X120827000Y-136029223D01*
X120827000Y-137623000D01*
X122181012Y-137623000D01*
X122338815Y-137364970D01*
X122198115Y-136873000D01*
X126915000Y-136873000D01*
X126915000Y-137623000D01*
X128673000Y-137623000D01*
X128673000Y-135278428D01*
X128927000Y-135278428D01*
X128927000Y-137623000D01*
X130685000Y-137623000D01*
X130685000Y-137364970D01*
X136561185Y-137364970D01*
X136718988Y-137623000D01*
X138073000Y-137623000D01*
X138073000Y-136029223D01*
X137819566Y-135909876D01*
X137697604Y-135934258D01*
X137136663Y-136245702D01*
X136737606Y-136748101D01*
X136561185Y-137364970D01*
X130685000Y-137364970D01*
X130685000Y-136873000D01*
X130492912Y-136161309D01*
X130043094Y-135577301D01*
X129404026Y-135209886D01*
X129219645Y-135162305D01*
X128927000Y-135278428D01*
X128673000Y-135278428D01*
X128380355Y-135162305D01*
X128195974Y-135209886D01*
X127556906Y-135577301D01*
X127107088Y-136161309D01*
X126915000Y-136873000D01*
X122198115Y-136873000D01*
X122162394Y-136748101D01*
X121763337Y-136245702D01*
X121202396Y-135934258D01*
X121080434Y-135909876D01*
X120827000Y-136029223D01*
X120573000Y-136029223D01*
X120319566Y-135909876D01*
X120197604Y-135934258D01*
X119636663Y-136245702D01*
X119237606Y-136748101D01*
X119061185Y-137364970D01*
X113185000Y-137364970D01*
X113185000Y-136873000D01*
X112992912Y-136161309D01*
X112543094Y-135577301D01*
X111980216Y-135253689D01*
X122218778Y-135253689D01*
X122413388Y-135724680D01*
X122773425Y-136085345D01*
X123244076Y-136280777D01*
X123753689Y-136281222D01*
X124224680Y-136086612D01*
X124585345Y-135726575D01*
X124780777Y-135255924D01*
X124781222Y-134746311D01*
X124586612Y-134275320D01*
X124226575Y-133914655D01*
X123755924Y-133719223D01*
X123246311Y-133718778D01*
X122775320Y-133913388D01*
X122414655Y-134273425D01*
X122219223Y-134744076D01*
X122218778Y-135253689D01*
X111980216Y-135253689D01*
X111904026Y-135209886D01*
X111719645Y-135162305D01*
X111427000Y-135278428D01*
X111173000Y-135278428D01*
X110880355Y-135162305D01*
X110695974Y-135209886D01*
X110056906Y-135577301D01*
X109607088Y-136161309D01*
X109415000Y-136873000D01*
X104698115Y-136873000D01*
X104662394Y-136748101D01*
X104263337Y-136245702D01*
X103702396Y-135934258D01*
X103580434Y-135909876D01*
X103327000Y-136029223D01*
X103073000Y-136029223D01*
X102819566Y-135909876D01*
X102697604Y-135934258D01*
X102136663Y-136245702D01*
X101737606Y-136748101D01*
X101561185Y-137364970D01*
X95685000Y-137364970D01*
X95685000Y-136873000D01*
X95492912Y-136161309D01*
X95043094Y-135577301D01*
X94404026Y-135209886D01*
X94219645Y-135162305D01*
X93927000Y-135278428D01*
X93673000Y-135278428D01*
X93380355Y-135162305D01*
X93195974Y-135209886D01*
X92556906Y-135577301D01*
X92431000Y-135740767D01*
X92431000Y-132850000D01*
X96327251Y-132850000D01*
X96413343Y-133282815D01*
X96658513Y-133649738D01*
X97025436Y-133894908D01*
X97458251Y-133981000D01*
X99541749Y-133981000D01*
X99974564Y-133894908D01*
X100341487Y-133649738D01*
X100586657Y-133282815D01*
X100672749Y-132850000D01*
X113827251Y-132850000D01*
X113913343Y-133282815D01*
X114158513Y-133649738D01*
X114525436Y-133894908D01*
X114958251Y-133981000D01*
X117041749Y-133981000D01*
X117474564Y-133894908D01*
X117841487Y-133649738D01*
X118086657Y-133282815D01*
X118172749Y-132850000D01*
X131327251Y-132850000D01*
X131413343Y-133282815D01*
X131658513Y-133649738D01*
X132025436Y-133894908D01*
X132458251Y-133981000D01*
X134541749Y-133981000D01*
X134974564Y-133894908D01*
X135341487Y-133649738D01*
X135586657Y-133282815D01*
X135672749Y-132850000D01*
X135586657Y-132417185D01*
X135341487Y-132050262D01*
X134974564Y-131805092D01*
X134541749Y-131719000D01*
X132458251Y-131719000D01*
X132025436Y-131805092D01*
X131658513Y-132050262D01*
X131413343Y-132417185D01*
X131327251Y-132850000D01*
X118172749Y-132850000D01*
X118086657Y-132417185D01*
X117841487Y-132050262D01*
X117474564Y-131805092D01*
X117041749Y-131719000D01*
X114958251Y-131719000D01*
X114525436Y-131805092D01*
X114158513Y-132050262D01*
X113913343Y-132417185D01*
X113827251Y-132850000D01*
X100672749Y-132850000D01*
X100586657Y-132417185D01*
X100341487Y-132050262D01*
X99974564Y-131805092D01*
X99541749Y-131719000D01*
X97458251Y-131719000D01*
X97025436Y-131805092D01*
X96658513Y-132050262D01*
X96413343Y-132417185D01*
X96327251Y-132850000D01*
X92431000Y-132850000D01*
X92431000Y-128035750D01*
X96465000Y-128035750D01*
X96465000Y-128676310D01*
X96561673Y-128909699D01*
X96740302Y-129088327D01*
X96973691Y-129185000D01*
X98214250Y-129185000D01*
X98373000Y-129026250D01*
X98373000Y-127877000D01*
X98627000Y-127877000D01*
X98627000Y-129026250D01*
X98785750Y-129185000D01*
X100026309Y-129185000D01*
X100259698Y-129088327D01*
X100438327Y-128909699D01*
X100535000Y-128676310D01*
X100535000Y-128035750D01*
X100376250Y-127877000D01*
X98627000Y-127877000D01*
X98373000Y-127877000D01*
X96623750Y-127877000D01*
X96465000Y-128035750D01*
X92431000Y-128035750D01*
X92431000Y-126823690D01*
X96465000Y-126823690D01*
X96465000Y-127464250D01*
X96623750Y-127623000D01*
X98373000Y-127623000D01*
X98373000Y-126473750D01*
X98627000Y-126473750D01*
X98627000Y-127623000D01*
X100376250Y-127623000D01*
X100535000Y-127464250D01*
X100535000Y-127250000D01*
X108361536Y-127250000D01*
X108361536Y-129250000D01*
X108388103Y-129391190D01*
X108471546Y-129520865D01*
X108598866Y-129607859D01*
X108750000Y-129638464D01*
X110250000Y-129638464D01*
X110391190Y-129611897D01*
X110520865Y-129528454D01*
X110607859Y-129401134D01*
X110638464Y-129250000D01*
X110638464Y-128476359D01*
X111856802Y-128476359D01*
X112030446Y-128896612D01*
X112351697Y-129218423D01*
X112771646Y-129392801D01*
X113226359Y-129393198D01*
X113646612Y-129219554D01*
X113968423Y-128898303D01*
X114142801Y-128478354D01*
X114142802Y-128476359D01*
X114856802Y-128476359D01*
X115030446Y-128896612D01*
X115351697Y-129218423D01*
X115771646Y-129392801D01*
X116226359Y-129393198D01*
X116646612Y-129219554D01*
X116968423Y-128898303D01*
X117142801Y-128478354D01*
X117142802Y-128476359D01*
X117856802Y-128476359D01*
X118030446Y-128896612D01*
X118351697Y-129218423D01*
X118771646Y-129392801D01*
X119226359Y-129393198D01*
X119646612Y-129219554D01*
X119968423Y-128898303D01*
X120142801Y-128478354D01*
X120143198Y-128023641D01*
X119969554Y-127603388D01*
X119648303Y-127281577D01*
X119572258Y-127250000D01*
X121361536Y-127250000D01*
X121361536Y-129250000D01*
X121388103Y-129391190D01*
X121471546Y-129520865D01*
X121598866Y-129607859D01*
X121750000Y-129638464D01*
X123250000Y-129638464D01*
X123391190Y-129611897D01*
X123520865Y-129528454D01*
X123607859Y-129401134D01*
X123638464Y-129250000D01*
X123638464Y-128535750D01*
X124265000Y-128535750D01*
X124265000Y-129226310D01*
X124361673Y-129459699D01*
X124540302Y-129638327D01*
X124773691Y-129735000D01*
X125464250Y-129735000D01*
X125623000Y-129576250D01*
X125623000Y-128377000D01*
X125877000Y-128377000D01*
X125877000Y-129576250D01*
X126035750Y-129735000D01*
X126726309Y-129735000D01*
X126959698Y-129638327D01*
X127138327Y-129459699D01*
X127235000Y-129226310D01*
X127235000Y-128535750D01*
X127076250Y-128377000D01*
X125877000Y-128377000D01*
X125623000Y-128377000D01*
X124423750Y-128377000D01*
X124265000Y-128535750D01*
X123638464Y-128535750D01*
X123638464Y-127273690D01*
X124265000Y-127273690D01*
X124265000Y-127964250D01*
X124423750Y-128123000D01*
X125623000Y-128123000D01*
X125623000Y-128103000D01*
X125877000Y-128103000D01*
X125877000Y-128123000D01*
X127076250Y-128123000D01*
X127235000Y-127964250D01*
X127235000Y-127273690D01*
X127138327Y-127040301D01*
X126959698Y-126861673D01*
X126726309Y-126765000D01*
X126368364Y-126765000D01*
X126644565Y-126580448D01*
X126911413Y-126181083D01*
X127005117Y-125710000D01*
X126911413Y-125238917D01*
X126644565Y-124839552D01*
X126245200Y-124572704D01*
X125774117Y-124479000D01*
X125725883Y-124479000D01*
X125254800Y-124572704D01*
X124855435Y-124839552D01*
X124588587Y-125238917D01*
X124494883Y-125710000D01*
X124588587Y-126181083D01*
X124855435Y-126580448D01*
X125131636Y-126765000D01*
X124773691Y-126765000D01*
X124540302Y-126861673D01*
X124361673Y-127040301D01*
X124265000Y-127273690D01*
X123638464Y-127273690D01*
X123638464Y-127250000D01*
X123611897Y-127108810D01*
X123528454Y-126979135D01*
X123401134Y-126892141D01*
X123250000Y-126861536D01*
X121750000Y-126861536D01*
X121608810Y-126888103D01*
X121479135Y-126971546D01*
X121392141Y-127098866D01*
X121361536Y-127250000D01*
X119572258Y-127250000D01*
X119228354Y-127107199D01*
X118773641Y-127106802D01*
X118353388Y-127280446D01*
X118031577Y-127601697D01*
X117857199Y-128021646D01*
X117856802Y-128476359D01*
X117142802Y-128476359D01*
X117143198Y-128023641D01*
X116969554Y-127603388D01*
X116648303Y-127281577D01*
X116228354Y-127107199D01*
X115773641Y-127106802D01*
X115353388Y-127280446D01*
X115031577Y-127601697D01*
X114857199Y-128021646D01*
X114856802Y-128476359D01*
X114142802Y-128476359D01*
X114143198Y-128023641D01*
X113969554Y-127603388D01*
X113648303Y-127281577D01*
X113228354Y-127107199D01*
X112773641Y-127106802D01*
X112353388Y-127280446D01*
X112031577Y-127601697D01*
X111857199Y-128021646D01*
X111856802Y-128476359D01*
X110638464Y-128476359D01*
X110638464Y-127250000D01*
X110611897Y-127108810D01*
X110528454Y-126979135D01*
X110401134Y-126892141D01*
X110250000Y-126861536D01*
X108750000Y-126861536D01*
X108608810Y-126888103D01*
X108479135Y-126971546D01*
X108392141Y-127098866D01*
X108361536Y-127250000D01*
X100535000Y-127250000D01*
X100535000Y-126823690D01*
X100438327Y-126590301D01*
X100259698Y-126411673D01*
X100026309Y-126315000D01*
X98785750Y-126315000D01*
X98627000Y-126473750D01*
X98373000Y-126473750D01*
X98214250Y-126315000D01*
X96973691Y-126315000D01*
X96740302Y-126411673D01*
X96561673Y-126590301D01*
X96465000Y-126823690D01*
X92431000Y-126823690D01*
X92431000Y-123150000D01*
X113827251Y-123150000D01*
X113913343Y-123582815D01*
X114158513Y-123949738D01*
X114525436Y-124194908D01*
X114958251Y-124281000D01*
X117041749Y-124281000D01*
X117474564Y-124194908D01*
X117841487Y-123949738D01*
X118086657Y-123582815D01*
X118168770Y-123170000D01*
X124494883Y-123170000D01*
X124588587Y-123641083D01*
X124855435Y-124040448D01*
X125254800Y-124307296D01*
X125725883Y-124401000D01*
X125774117Y-124401000D01*
X126245200Y-124307296D01*
X126644565Y-124040448D01*
X126911413Y-123641083D01*
X127005117Y-123170000D01*
X126911413Y-122698917D01*
X126644565Y-122299552D01*
X126245200Y-122032704D01*
X125774117Y-121939000D01*
X125725883Y-121939000D01*
X125254800Y-122032704D01*
X124855435Y-122299552D01*
X124588587Y-122698917D01*
X124494883Y-123170000D01*
X118168770Y-123170000D01*
X118172749Y-123150000D01*
X118086657Y-122717185D01*
X117841487Y-122350262D01*
X117474564Y-122105092D01*
X117041749Y-122019000D01*
X114958251Y-122019000D01*
X114525436Y-122105092D01*
X114158513Y-122350262D01*
X113913343Y-122717185D01*
X113827251Y-123150000D01*
X92431000Y-123150000D01*
X92431000Y-121550000D01*
X96327251Y-121550000D01*
X96413343Y-121982815D01*
X96658513Y-122349738D01*
X97025436Y-122594908D01*
X97458251Y-122681000D01*
X99541749Y-122681000D01*
X99974564Y-122594908D01*
X100341487Y-122349738D01*
X100586657Y-121982815D01*
X100672749Y-121550000D01*
X131327251Y-121550000D01*
X131413343Y-121982815D01*
X131658513Y-122349738D01*
X132025436Y-122594908D01*
X132458251Y-122681000D01*
X134541749Y-122681000D01*
X134974564Y-122594908D01*
X135341487Y-122349738D01*
X135586657Y-121982815D01*
X135672749Y-121550000D01*
X135586657Y-121117185D01*
X135341487Y-120750262D01*
X134974564Y-120505092D01*
X134541749Y-120419000D01*
X132458251Y-120419000D01*
X132025436Y-120505092D01*
X131658513Y-120750262D01*
X131413343Y-121117185D01*
X131327251Y-121550000D01*
X100672749Y-121550000D01*
X100586657Y-121117185D01*
X100341487Y-120750262D01*
X99974564Y-120505092D01*
X99541749Y-120419000D01*
X97458251Y-120419000D01*
X97025436Y-120505092D01*
X96658513Y-120750262D01*
X96413343Y-121117185D01*
X96327251Y-121550000D01*
X92431000Y-121550000D01*
X92431000Y-120259233D01*
X92556906Y-120422699D01*
X93195974Y-120790114D01*
X93380355Y-120837695D01*
X93673000Y-120721572D01*
X93673000Y-118377000D01*
X93927000Y-118377000D01*
X93927000Y-120721572D01*
X94219645Y-120837695D01*
X94404026Y-120790114D01*
X95043094Y-120422699D01*
X95492912Y-119838691D01*
X95685000Y-119127000D01*
X95685000Y-118635030D01*
X101561185Y-118635030D01*
X101737606Y-119251899D01*
X102136663Y-119754298D01*
X102697604Y-120065742D01*
X102819566Y-120090124D01*
X103073000Y-119970777D01*
X103073000Y-118377000D01*
X103327000Y-118377000D01*
X103327000Y-119970777D01*
X103580434Y-120090124D01*
X103702396Y-120065742D01*
X104263337Y-119754298D01*
X104662394Y-119251899D01*
X104804598Y-118754669D01*
X107768864Y-118754669D01*
X107887514Y-119041823D01*
X108107021Y-119261714D01*
X108393968Y-119380864D01*
X108704669Y-119381136D01*
X108991823Y-119262486D01*
X109211714Y-119042979D01*
X109330864Y-118756032D01*
X109330969Y-118635030D01*
X109661185Y-118635030D01*
X109837606Y-119251899D01*
X110236663Y-119754298D01*
X110797604Y-120065742D01*
X110919566Y-120090124D01*
X111173000Y-119970777D01*
X111173000Y-118377000D01*
X111427000Y-118377000D01*
X111427000Y-119970777D01*
X111680434Y-120090124D01*
X111802396Y-120065742D01*
X112363337Y-119754298D01*
X112762394Y-119251899D01*
X112938815Y-118635030D01*
X112781012Y-118377000D01*
X118815000Y-118377000D01*
X118815000Y-119127000D01*
X119007088Y-119838691D01*
X119456906Y-120422699D01*
X120095974Y-120790114D01*
X120280355Y-120837695D01*
X120573000Y-120721572D01*
X120573000Y-118377000D01*
X120827000Y-118377000D01*
X120827000Y-120721572D01*
X121119645Y-120837695D01*
X121304026Y-120790114D01*
X121943094Y-120422699D01*
X122392912Y-119838691D01*
X122585000Y-119127000D01*
X122585000Y-118377000D01*
X126915000Y-118377000D01*
X126915000Y-119127000D01*
X127107088Y-119838691D01*
X127556906Y-120422699D01*
X128195974Y-120790114D01*
X128380355Y-120837695D01*
X128673000Y-120721572D01*
X128673000Y-118377000D01*
X128927000Y-118377000D01*
X128927000Y-120721572D01*
X129219645Y-120837695D01*
X129404026Y-120790114D01*
X130043094Y-120422699D01*
X130492912Y-119838691D01*
X130685000Y-119127000D01*
X130685000Y-118635030D01*
X136561185Y-118635030D01*
X136737606Y-119251899D01*
X137136663Y-119754298D01*
X137697604Y-120065742D01*
X137819566Y-120090124D01*
X138073000Y-119970777D01*
X138073000Y-118377000D01*
X136718988Y-118377000D01*
X136561185Y-118635030D01*
X130685000Y-118635030D01*
X130685000Y-118377000D01*
X128927000Y-118377000D01*
X128673000Y-118377000D01*
X126915000Y-118377000D01*
X122585000Y-118377000D01*
X120827000Y-118377000D01*
X120573000Y-118377000D01*
X118815000Y-118377000D01*
X112781012Y-118377000D01*
X111427000Y-118377000D01*
X111173000Y-118377000D01*
X109818988Y-118377000D01*
X109661185Y-118635030D01*
X109330969Y-118635030D01*
X109331136Y-118445331D01*
X109212486Y-118158177D01*
X108992979Y-117938286D01*
X108816414Y-117864970D01*
X109661185Y-117864970D01*
X109818988Y-118123000D01*
X111173000Y-118123000D01*
X111173000Y-116529223D01*
X111427000Y-116529223D01*
X111427000Y-118123000D01*
X112781012Y-118123000D01*
X112938815Y-117864970D01*
X112892970Y-117704669D01*
X115218864Y-117704669D01*
X115337514Y-117991823D01*
X115557021Y-118211714D01*
X115843968Y-118330864D01*
X116154669Y-118331136D01*
X116441823Y-118212486D01*
X116661714Y-117992979D01*
X116780864Y-117706032D01*
X116781136Y-117395331D01*
X116771909Y-117373000D01*
X118815000Y-117373000D01*
X118815000Y-118123000D01*
X120573000Y-118123000D01*
X120573000Y-115778428D01*
X120827000Y-115778428D01*
X120827000Y-118123000D01*
X122585000Y-118123000D01*
X122585000Y-117373000D01*
X126915000Y-117373000D01*
X126915000Y-118123000D01*
X128673000Y-118123000D01*
X128673000Y-115778428D01*
X128927000Y-115778428D01*
X128927000Y-118123000D01*
X130685000Y-118123000D01*
X130685000Y-117864970D01*
X136561185Y-117864970D01*
X136718988Y-118123000D01*
X138073000Y-118123000D01*
X138073000Y-116529223D01*
X137819566Y-116409876D01*
X137697604Y-116434258D01*
X137136663Y-116745702D01*
X136737606Y-117248101D01*
X136561185Y-117864970D01*
X130685000Y-117864970D01*
X130685000Y-117373000D01*
X130492912Y-116661309D01*
X130043094Y-116077301D01*
X129404026Y-115709886D01*
X129219645Y-115662305D01*
X128927000Y-115778428D01*
X128673000Y-115778428D01*
X128380355Y-115662305D01*
X128195974Y-115709886D01*
X127556906Y-116077301D01*
X127107088Y-116661309D01*
X126915000Y-117373000D01*
X122585000Y-117373000D01*
X122392912Y-116661309D01*
X121943094Y-116077301D01*
X121304026Y-115709886D01*
X121119645Y-115662305D01*
X120827000Y-115778428D01*
X120573000Y-115778428D01*
X120280355Y-115662305D01*
X120095974Y-115709886D01*
X119456906Y-116077301D01*
X119007088Y-116661309D01*
X118815000Y-117373000D01*
X116771909Y-117373000D01*
X116662486Y-117108177D01*
X116442979Y-116888286D01*
X116156032Y-116769136D01*
X115845331Y-116768864D01*
X115558177Y-116887514D01*
X115338286Y-117107021D01*
X115219136Y-117393968D01*
X115218864Y-117704669D01*
X112892970Y-117704669D01*
X112762394Y-117248101D01*
X112363337Y-116745702D01*
X111802396Y-116434258D01*
X111680434Y-116409876D01*
X111427000Y-116529223D01*
X111173000Y-116529223D01*
X110919566Y-116409876D01*
X110797604Y-116434258D01*
X110236663Y-116745702D01*
X109837606Y-117248101D01*
X109661185Y-117864970D01*
X108816414Y-117864970D01*
X108706032Y-117819136D01*
X108395331Y-117818864D01*
X108108177Y-117937514D01*
X107888286Y-118157021D01*
X107769136Y-118443968D01*
X107768864Y-118754669D01*
X104804598Y-118754669D01*
X104838815Y-118635030D01*
X104681012Y-118377000D01*
X103327000Y-118377000D01*
X103073000Y-118377000D01*
X101718988Y-118377000D01*
X101561185Y-118635030D01*
X95685000Y-118635030D01*
X95685000Y-118377000D01*
X93927000Y-118377000D01*
X93673000Y-118377000D01*
X93653000Y-118377000D01*
X93653000Y-118123000D01*
X93673000Y-118123000D01*
X93673000Y-115778428D01*
X93927000Y-115778428D01*
X93927000Y-118123000D01*
X95685000Y-118123000D01*
X95685000Y-117864970D01*
X101561185Y-117864970D01*
X101718988Y-118123000D01*
X103073000Y-118123000D01*
X103073000Y-116529223D01*
X103327000Y-116529223D01*
X103327000Y-118123000D01*
X104681012Y-118123000D01*
X104838815Y-117864970D01*
X104662394Y-117248101D01*
X104263337Y-116745702D01*
X103702396Y-116434258D01*
X103580434Y-116409876D01*
X103327000Y-116529223D01*
X103073000Y-116529223D01*
X102819566Y-116409876D01*
X102697604Y-116434258D01*
X102136663Y-116745702D01*
X101737606Y-117248101D01*
X101561185Y-117864970D01*
X95685000Y-117864970D01*
X95685000Y-117373000D01*
X95492912Y-116661309D01*
X95043094Y-116077301D01*
X94404026Y-115709886D01*
X94219645Y-115662305D01*
X93927000Y-115778428D01*
X93673000Y-115778428D01*
X93380355Y-115662305D01*
X93195974Y-115709886D01*
X92556906Y-116077301D01*
X92431000Y-116240767D01*
X92431000Y-113350000D01*
X96327251Y-113350000D01*
X96413343Y-113782815D01*
X96658513Y-114149738D01*
X97025436Y-114394908D01*
X97458251Y-114481000D01*
X99541749Y-114481000D01*
X99974564Y-114394908D01*
X100341487Y-114149738D01*
X100439073Y-114003689D01*
X107218778Y-114003689D01*
X107413388Y-114474680D01*
X107773425Y-114835345D01*
X108244076Y-115030777D01*
X108753689Y-115031222D01*
X108950260Y-114950000D01*
X113827251Y-114950000D01*
X113913343Y-115382815D01*
X114158513Y-115749738D01*
X114525436Y-115994908D01*
X114958251Y-116081000D01*
X117041749Y-116081000D01*
X117474564Y-115994908D01*
X117841487Y-115749738D01*
X118086657Y-115382815D01*
X118172749Y-114950000D01*
X118086657Y-114517185D01*
X117841487Y-114150262D01*
X117474564Y-113905092D01*
X117041749Y-113819000D01*
X114958251Y-113819000D01*
X114525436Y-113905092D01*
X114158513Y-114150262D01*
X113913343Y-114517185D01*
X113827251Y-114950000D01*
X108950260Y-114950000D01*
X109224680Y-114836612D01*
X109585345Y-114476575D01*
X109780777Y-114005924D01*
X109781222Y-113496311D01*
X109720768Y-113350000D01*
X131327251Y-113350000D01*
X131413343Y-113782815D01*
X131658513Y-114149738D01*
X132025436Y-114394908D01*
X132458251Y-114481000D01*
X134541749Y-114481000D01*
X134974564Y-114394908D01*
X135341487Y-114149738D01*
X135586657Y-113782815D01*
X135672749Y-113350000D01*
X135586657Y-112917185D01*
X135341487Y-112550262D01*
X134974564Y-112305092D01*
X134541749Y-112219000D01*
X132458251Y-112219000D01*
X132025436Y-112305092D01*
X131658513Y-112550262D01*
X131413343Y-112917185D01*
X131327251Y-113350000D01*
X109720768Y-113350000D01*
X109586612Y-113025320D01*
X109226575Y-112664655D01*
X108755924Y-112469223D01*
X108246311Y-112468778D01*
X107775320Y-112663388D01*
X107414655Y-113023425D01*
X107219223Y-113494076D01*
X107218778Y-114003689D01*
X100439073Y-114003689D01*
X100586657Y-113782815D01*
X100672749Y-113350000D01*
X100586657Y-112917185D01*
X100341487Y-112550262D01*
X99974564Y-112305092D01*
X99541749Y-112219000D01*
X97458251Y-112219000D01*
X97025436Y-112305092D01*
X96658513Y-112550262D01*
X96413343Y-112917185D01*
X96327251Y-113350000D01*
X92431000Y-113350000D01*
X92431000Y-111414571D01*
X126268856Y-111414571D01*
X126395102Y-111720109D01*
X126628662Y-111954077D01*
X126933979Y-112080855D01*
X127264571Y-112081144D01*
X127570109Y-111954898D01*
X127804077Y-111721338D01*
X127930855Y-111416021D01*
X127931144Y-111085429D01*
X127804898Y-110779891D01*
X127571338Y-110545923D01*
X127266021Y-110419145D01*
X126935429Y-110418856D01*
X126629891Y-110545102D01*
X126395923Y-110778662D01*
X126269145Y-111083979D01*
X126268856Y-111414571D01*
X92431000Y-111414571D01*
X92431000Y-109664571D01*
X103918856Y-109664571D01*
X104045102Y-109970109D01*
X104278662Y-110204077D01*
X104583979Y-110330855D01*
X104914571Y-110331144D01*
X105220109Y-110204898D01*
X105454077Y-109971338D01*
X105580855Y-109666021D01*
X105580856Y-109664571D01*
X115168856Y-109664571D01*
X115295102Y-109970109D01*
X115528662Y-110204077D01*
X115833979Y-110330855D01*
X116164571Y-110331144D01*
X116470109Y-110204898D01*
X116704077Y-109971338D01*
X116830855Y-109666021D01*
X116831144Y-109335429D01*
X116704898Y-109029891D01*
X116471338Y-108795923D01*
X116166021Y-108669145D01*
X115835429Y-108668856D01*
X115529891Y-108795102D01*
X115295923Y-109028662D01*
X115169145Y-109333979D01*
X115168856Y-109664571D01*
X105580856Y-109664571D01*
X105581144Y-109335429D01*
X105454898Y-109029891D01*
X105221338Y-108795923D01*
X104916021Y-108669145D01*
X104585429Y-108668856D01*
X104279891Y-108795102D01*
X104045923Y-109028662D01*
X103919145Y-109333979D01*
X103918856Y-109664571D01*
X92431000Y-109664571D01*
X92431000Y-106503689D01*
X92968778Y-106503689D01*
X93163388Y-106974680D01*
X93523425Y-107335345D01*
X93994076Y-107530777D01*
X94503689Y-107531222D01*
X94974680Y-107336612D01*
X95335345Y-106976575D01*
X95530777Y-106505924D01*
X95530778Y-106504669D01*
X106118864Y-106504669D01*
X106237514Y-106791823D01*
X106457021Y-107011714D01*
X106743968Y-107130864D01*
X107054669Y-107131136D01*
X107341823Y-107012486D01*
X107561714Y-106792979D01*
X107680864Y-106506032D01*
X107681084Y-106253689D01*
X129218778Y-106253689D01*
X129413388Y-106724680D01*
X129773425Y-107085345D01*
X130244076Y-107280777D01*
X130753689Y-107281222D01*
X131224680Y-107086612D01*
X131585345Y-106726575D01*
X131780777Y-106255924D01*
X131781222Y-105746311D01*
X131623490Y-105364571D01*
X136418856Y-105364571D01*
X136545102Y-105670109D01*
X136778662Y-105904077D01*
X137083979Y-106030855D01*
X137414571Y-106031144D01*
X137720109Y-105904898D01*
X137954077Y-105671338D01*
X138080855Y-105366021D01*
X138081144Y-105035429D01*
X137954898Y-104729891D01*
X137721338Y-104495923D01*
X137416021Y-104369145D01*
X137085429Y-104368856D01*
X136779891Y-104495102D01*
X136545923Y-104728662D01*
X136419145Y-105033979D01*
X136418856Y-105364571D01*
X131623490Y-105364571D01*
X131586612Y-105275320D01*
X131226575Y-104914655D01*
X130755924Y-104719223D01*
X130246311Y-104718778D01*
X129775320Y-104913388D01*
X129414655Y-105273425D01*
X129219223Y-105744076D01*
X129218778Y-106253689D01*
X107681084Y-106253689D01*
X107681136Y-106195331D01*
X107562486Y-105908177D01*
X107342979Y-105688286D01*
X107056032Y-105569136D01*
X106745331Y-105568864D01*
X106458177Y-105687514D01*
X106238286Y-105907021D01*
X106119136Y-106193968D01*
X106118864Y-106504669D01*
X95530778Y-106504669D01*
X95531222Y-105996311D01*
X95336612Y-105525320D01*
X94976575Y-105164655D01*
X94505924Y-104969223D01*
X93996311Y-104968778D01*
X93525320Y-105163388D01*
X93164655Y-105523425D01*
X92969223Y-105994076D01*
X92968778Y-106503689D01*
X92431000Y-106503689D01*
X92431000Y-104864571D01*
X99818856Y-104864571D01*
X99945102Y-105170109D01*
X100178662Y-105404077D01*
X100483979Y-105530855D01*
X100814571Y-105531144D01*
X101120109Y-105404898D01*
X101354077Y-105171338D01*
X101480855Y-104866021D01*
X101481043Y-104650000D01*
X113827251Y-104650000D01*
X113913343Y-105082815D01*
X114158513Y-105449738D01*
X114525436Y-105694908D01*
X114958251Y-105781000D01*
X117041749Y-105781000D01*
X117474564Y-105694908D01*
X117841487Y-105449738D01*
X118032029Y-105164571D01*
X122018856Y-105164571D01*
X122145102Y-105470109D01*
X122378662Y-105704077D01*
X122683979Y-105830855D01*
X123014571Y-105831144D01*
X123320109Y-105704898D01*
X123554077Y-105471338D01*
X123680855Y-105166021D01*
X123681144Y-104835429D01*
X123554898Y-104529891D01*
X123321338Y-104295923D01*
X123016021Y-104169145D01*
X122685429Y-104168856D01*
X122379891Y-104295102D01*
X122145923Y-104528662D01*
X122019145Y-104833979D01*
X122018856Y-105164571D01*
X118032029Y-105164571D01*
X118086657Y-105082815D01*
X118172749Y-104650000D01*
X118086657Y-104217185D01*
X117884457Y-103914571D01*
X118168856Y-103914571D01*
X118295102Y-104220109D01*
X118528662Y-104454077D01*
X118833979Y-104580855D01*
X119164571Y-104581144D01*
X119470109Y-104454898D01*
X119704077Y-104221338D01*
X119830855Y-103916021D01*
X119831144Y-103585429D01*
X119704898Y-103279891D01*
X119475408Y-103050000D01*
X131327251Y-103050000D01*
X131413343Y-103482815D01*
X131658513Y-103849738D01*
X132025436Y-104094908D01*
X132458251Y-104181000D01*
X134541749Y-104181000D01*
X134974564Y-104094908D01*
X135341487Y-103849738D01*
X135586657Y-103482815D01*
X135672749Y-103050000D01*
X135586657Y-102617185D01*
X135341487Y-102250262D01*
X134974564Y-102005092D01*
X134541749Y-101919000D01*
X132458251Y-101919000D01*
X132025436Y-102005092D01*
X131658513Y-102250262D01*
X131413343Y-102617185D01*
X131327251Y-103050000D01*
X119475408Y-103050000D01*
X119471338Y-103045923D01*
X119166021Y-102919145D01*
X118835429Y-102918856D01*
X118529891Y-103045102D01*
X118295923Y-103278662D01*
X118169145Y-103583979D01*
X118168856Y-103914571D01*
X117884457Y-103914571D01*
X117841487Y-103850262D01*
X117474564Y-103605092D01*
X117041749Y-103519000D01*
X114958251Y-103519000D01*
X114525436Y-103605092D01*
X114158513Y-103850262D01*
X113913343Y-104217185D01*
X113827251Y-104650000D01*
X101481043Y-104650000D01*
X101481144Y-104535429D01*
X101354898Y-104229891D01*
X101121338Y-103995923D01*
X100816021Y-103869145D01*
X100485429Y-103868856D01*
X100179891Y-103995102D01*
X99945923Y-104228662D01*
X99819145Y-104533979D01*
X99818856Y-104864571D01*
X92431000Y-104864571D01*
X92431000Y-103050000D01*
X96327251Y-103050000D01*
X96413343Y-103482815D01*
X96658513Y-103849738D01*
X97025436Y-104094908D01*
X97458251Y-104181000D01*
X99541749Y-104181000D01*
X99974564Y-104094908D01*
X100341487Y-103849738D01*
X100586657Y-103482815D01*
X100672749Y-103050000D01*
X100586657Y-102617185D01*
X100341487Y-102250262D01*
X99974564Y-102005092D01*
X99541749Y-101919000D01*
X97458251Y-101919000D01*
X97025436Y-102005092D01*
X96658513Y-102250262D01*
X96413343Y-102617185D01*
X96327251Y-103050000D01*
X92431000Y-103050000D01*
X92431000Y-101759233D01*
X92556906Y-101922699D01*
X93195974Y-102290114D01*
X93380355Y-102337695D01*
X93673000Y-102221572D01*
X93673000Y-99877000D01*
X93927000Y-99877000D01*
X93927000Y-102221572D01*
X94219645Y-102337695D01*
X94404026Y-102290114D01*
X95043094Y-101922699D01*
X95492912Y-101338691D01*
X95685000Y-100627000D01*
X95685000Y-100135030D01*
X101561185Y-100135030D01*
X101737606Y-100751899D01*
X102136663Y-101254298D01*
X102697604Y-101565742D01*
X102819566Y-101590124D01*
X103073000Y-101470777D01*
X103073000Y-99877000D01*
X103327000Y-99877000D01*
X103327000Y-101470777D01*
X103580434Y-101590124D01*
X103702396Y-101565742D01*
X104263337Y-101254298D01*
X104662394Y-100751899D01*
X104838815Y-100135030D01*
X109661185Y-100135030D01*
X109837606Y-100751899D01*
X110236663Y-101254298D01*
X110797604Y-101565742D01*
X110919566Y-101590124D01*
X111173000Y-101470777D01*
X111173000Y-99877000D01*
X111427000Y-99877000D01*
X111427000Y-101470777D01*
X111680434Y-101590124D01*
X111802396Y-101565742D01*
X112363337Y-101254298D01*
X112762394Y-100751899D01*
X112938815Y-100135030D01*
X112781012Y-99877000D01*
X118815000Y-99877000D01*
X118815000Y-100627000D01*
X119007088Y-101338691D01*
X119456906Y-101922699D01*
X120095974Y-102290114D01*
X120280355Y-102337695D01*
X120573000Y-102221572D01*
X120573000Y-99877000D01*
X120827000Y-99877000D01*
X120827000Y-102221572D01*
X121119645Y-102337695D01*
X121304026Y-102290114D01*
X121943094Y-101922699D01*
X122392912Y-101338691D01*
X122585000Y-100627000D01*
X122585000Y-99877000D01*
X126915000Y-99877000D01*
X126915000Y-100627000D01*
X127107088Y-101338691D01*
X127556906Y-101922699D01*
X128195974Y-102290114D01*
X128380355Y-102337695D01*
X128673000Y-102221572D01*
X128673000Y-99877000D01*
X128927000Y-99877000D01*
X128927000Y-102221572D01*
X129219645Y-102337695D01*
X129404026Y-102290114D01*
X130043094Y-101922699D01*
X130492912Y-101338691D01*
X130685000Y-100627000D01*
X130685000Y-100135030D01*
X136561185Y-100135030D01*
X136737606Y-100751899D01*
X137136663Y-101254298D01*
X137697604Y-101565742D01*
X137819566Y-101590124D01*
X138073000Y-101470777D01*
X138073000Y-99877000D01*
X136718988Y-99877000D01*
X136561185Y-100135030D01*
X130685000Y-100135030D01*
X130685000Y-99877000D01*
X128927000Y-99877000D01*
X128673000Y-99877000D01*
X126915000Y-99877000D01*
X122585000Y-99877000D01*
X120827000Y-99877000D01*
X120573000Y-99877000D01*
X118815000Y-99877000D01*
X112781012Y-99877000D01*
X111427000Y-99877000D01*
X111173000Y-99877000D01*
X109818988Y-99877000D01*
X109661185Y-100135030D01*
X104838815Y-100135030D01*
X104681012Y-99877000D01*
X103327000Y-99877000D01*
X103073000Y-99877000D01*
X101718988Y-99877000D01*
X101561185Y-100135030D01*
X95685000Y-100135030D01*
X95685000Y-99877000D01*
X93927000Y-99877000D01*
X93673000Y-99877000D01*
X93653000Y-99877000D01*
X93653000Y-99623000D01*
X93673000Y-99623000D01*
X93673000Y-97278428D01*
X93927000Y-97278428D01*
X93927000Y-99623000D01*
X95685000Y-99623000D01*
X95685000Y-99364970D01*
X101561185Y-99364970D01*
X101718988Y-99623000D01*
X103073000Y-99623000D01*
X103073000Y-98029223D01*
X103327000Y-98029223D01*
X103327000Y-99623000D01*
X104681012Y-99623000D01*
X104838815Y-99364970D01*
X109661185Y-99364970D01*
X109818988Y-99623000D01*
X111173000Y-99623000D01*
X111173000Y-98029223D01*
X111427000Y-98029223D01*
X111427000Y-99623000D01*
X112781012Y-99623000D01*
X112938815Y-99364970D01*
X112798115Y-98873000D01*
X118815000Y-98873000D01*
X118815000Y-99623000D01*
X120573000Y-99623000D01*
X120573000Y-97278428D01*
X120827000Y-97278428D01*
X120827000Y-99623000D01*
X122585000Y-99623000D01*
X122585000Y-98873000D01*
X126915000Y-98873000D01*
X126915000Y-99623000D01*
X128673000Y-99623000D01*
X128673000Y-97278428D01*
X128927000Y-97278428D01*
X128927000Y-99623000D01*
X130685000Y-99623000D01*
X130685000Y-99364970D01*
X136561185Y-99364970D01*
X136718988Y-99623000D01*
X138073000Y-99623000D01*
X138073000Y-98029223D01*
X137819566Y-97909876D01*
X137697604Y-97934258D01*
X137136663Y-98245702D01*
X136737606Y-98748101D01*
X136561185Y-99364970D01*
X130685000Y-99364970D01*
X130685000Y-98873000D01*
X130492912Y-98161309D01*
X130043094Y-97577301D01*
X129404026Y-97209886D01*
X129219645Y-97162305D01*
X128927000Y-97278428D01*
X128673000Y-97278428D01*
X128380355Y-97162305D01*
X128195974Y-97209886D01*
X127556906Y-97577301D01*
X127107088Y-98161309D01*
X126915000Y-98873000D01*
X122585000Y-98873000D01*
X122392912Y-98161309D01*
X121943094Y-97577301D01*
X121304026Y-97209886D01*
X121119645Y-97162305D01*
X120827000Y-97278428D01*
X120573000Y-97278428D01*
X120280355Y-97162305D01*
X120095974Y-97209886D01*
X119456906Y-97577301D01*
X119007088Y-98161309D01*
X118815000Y-98873000D01*
X112798115Y-98873000D01*
X112762394Y-98748101D01*
X112363337Y-98245702D01*
X111802396Y-97934258D01*
X111680434Y-97909876D01*
X111427000Y-98029223D01*
X111173000Y-98029223D01*
X110919566Y-97909876D01*
X110797604Y-97934258D01*
X110236663Y-98245702D01*
X109837606Y-98748101D01*
X109661185Y-99364970D01*
X104838815Y-99364970D01*
X104662394Y-98748101D01*
X104263337Y-98245702D01*
X103702396Y-97934258D01*
X103580434Y-97909876D01*
X103327000Y-98029223D01*
X103073000Y-98029223D01*
X102819566Y-97909876D01*
X102697604Y-97934258D01*
X102136663Y-98245702D01*
X101737606Y-98748101D01*
X101561185Y-99364970D01*
X95685000Y-99364970D01*
X95685000Y-98873000D01*
X95492912Y-98161309D01*
X95043094Y-97577301D01*
X94404026Y-97209886D01*
X94219645Y-97162305D01*
X93927000Y-97278428D01*
X93673000Y-97278428D01*
X93380355Y-97162305D01*
X93195974Y-97209886D01*
X92556906Y-97577301D01*
X92431000Y-97740767D01*
X92431000Y-96864571D01*
X108018856Y-96864571D01*
X108145102Y-97170109D01*
X108378662Y-97404077D01*
X108683979Y-97530855D01*
X109014571Y-97531144D01*
X109320109Y-97404898D01*
X109554077Y-97171338D01*
X109680855Y-96866021D01*
X109681144Y-96535429D01*
X109645846Y-96450000D01*
X113827251Y-96450000D01*
X113913343Y-96882815D01*
X114158513Y-97249738D01*
X114525436Y-97494908D01*
X114958251Y-97581000D01*
X117041749Y-97581000D01*
X117474564Y-97494908D01*
X117841487Y-97249738D01*
X118086657Y-96882815D01*
X118172749Y-96450000D01*
X118086657Y-96017185D01*
X117841487Y-95650262D01*
X117474564Y-95405092D01*
X117041749Y-95319000D01*
X114958251Y-95319000D01*
X114525436Y-95405092D01*
X114158513Y-95650262D01*
X113913343Y-96017185D01*
X113827251Y-96450000D01*
X109645846Y-96450000D01*
X109554898Y-96229891D01*
X109321338Y-95995923D01*
X109016021Y-95869145D01*
X108685429Y-95868856D01*
X108379891Y-95995102D01*
X108145923Y-96228662D01*
X108019145Y-96533979D01*
X108018856Y-96864571D01*
X92431000Y-96864571D01*
X92431000Y-94850000D01*
X96327251Y-94850000D01*
X96413343Y-95282815D01*
X96658513Y-95649738D01*
X97025436Y-95894908D01*
X97458251Y-95981000D01*
X99541749Y-95981000D01*
X99974564Y-95894908D01*
X100341487Y-95649738D01*
X100586657Y-95282815D01*
X100672749Y-94850000D01*
X131327251Y-94850000D01*
X131413343Y-95282815D01*
X131658513Y-95649738D01*
X132025436Y-95894908D01*
X132458251Y-95981000D01*
X134541749Y-95981000D01*
X134974564Y-95894908D01*
X135341487Y-95649738D01*
X135586657Y-95282815D01*
X135672749Y-94850000D01*
X135586657Y-94417185D01*
X135341487Y-94050262D01*
X134974564Y-93805092D01*
X134541749Y-93719000D01*
X133185980Y-93719000D01*
X133220109Y-93704898D01*
X133454077Y-93471338D01*
X133580855Y-93166021D01*
X133581144Y-92835429D01*
X133454898Y-92529891D01*
X133221338Y-92295923D01*
X132916021Y-92169145D01*
X132585429Y-92168856D01*
X132279891Y-92295102D01*
X132045923Y-92528662D01*
X131919145Y-92833979D01*
X131918856Y-93164571D01*
X132045102Y-93470109D01*
X132278662Y-93704077D01*
X132361127Y-93738319D01*
X132025436Y-93805092D01*
X131658513Y-94050262D01*
X131413343Y-94417185D01*
X131327251Y-94850000D01*
X100672749Y-94850000D01*
X100586657Y-94417185D01*
X100341487Y-94050262D01*
X99974564Y-93805092D01*
X99541749Y-93719000D01*
X97458251Y-93719000D01*
X97025436Y-93805092D01*
X96658513Y-94050262D01*
X96413343Y-94417185D01*
X96327251Y-94850000D01*
X92431000Y-94850000D01*
X92431000Y-92914571D01*
X99168856Y-92914571D01*
X99295102Y-93220109D01*
X99528662Y-93454077D01*
X99833979Y-93580855D01*
X100164571Y-93581144D01*
X100470109Y-93454898D01*
X100704077Y-93221338D01*
X100830855Y-92916021D01*
X100830856Y-92914571D01*
X103468856Y-92914571D01*
X103595102Y-93220109D01*
X103828662Y-93454077D01*
X104133979Y-93580855D01*
X104464571Y-93581144D01*
X104770109Y-93454898D01*
X105004077Y-93221338D01*
X105130855Y-92916021D01*
X105131144Y-92585429D01*
X105004898Y-92279891D01*
X104771338Y-92045923D01*
X104466021Y-91919145D01*
X104135429Y-91918856D01*
X103829891Y-92045102D01*
X103595923Y-92278662D01*
X103469145Y-92583979D01*
X103468856Y-92914571D01*
X100830856Y-92914571D01*
X100831144Y-92585429D01*
X100704898Y-92279891D01*
X100471338Y-92045923D01*
X100166021Y-91919145D01*
X99835429Y-91918856D01*
X99529891Y-92045102D01*
X99295923Y-92278662D01*
X99169145Y-92583979D01*
X99168856Y-92914571D01*
X92431000Y-92914571D01*
X92431000Y-91751208D01*
X108843824Y-91751208D01*
X108998175Y-92124766D01*
X109283731Y-92410821D01*
X109657018Y-92565824D01*
X110061208Y-92566176D01*
X110434766Y-92411825D01*
X110720821Y-92126269D01*
X110875824Y-91752982D01*
X110875825Y-91751208D01*
X111383824Y-91751208D01*
X111538175Y-92124766D01*
X111823731Y-92410821D01*
X112197018Y-92565824D01*
X112601208Y-92566176D01*
X112974766Y-92411825D01*
X113260821Y-92126269D01*
X113415824Y-91752982D01*
X113415825Y-91751208D01*
X113923824Y-91751208D01*
X114078175Y-92124766D01*
X114363731Y-92410821D01*
X114737018Y-92565824D01*
X115141208Y-92566176D01*
X115514766Y-92411825D01*
X115800821Y-92126269D01*
X115955824Y-91752982D01*
X115956176Y-91348792D01*
X115801825Y-90975234D01*
X115516269Y-90689179D01*
X115142982Y-90534176D01*
X114738792Y-90533824D01*
X114365234Y-90688175D01*
X114079179Y-90973731D01*
X113924176Y-91347018D01*
X113923824Y-91751208D01*
X113415825Y-91751208D01*
X113416176Y-91348792D01*
X113261825Y-90975234D01*
X112976269Y-90689179D01*
X112602982Y-90534176D01*
X112198792Y-90533824D01*
X111825234Y-90688175D01*
X111539179Y-90973731D01*
X111384176Y-91347018D01*
X111383824Y-91751208D01*
X110875825Y-91751208D01*
X110876176Y-91348792D01*
X110721825Y-90975234D01*
X110436269Y-90689179D01*
X110062982Y-90534176D01*
X109658792Y-90533824D01*
X109285234Y-90688175D01*
X108999179Y-90973731D01*
X108844176Y-91347018D01*
X108843824Y-91751208D01*
X92431000Y-91751208D01*
X92431000Y-90264571D01*
X106668852Y-90264571D01*
X106795098Y-90570109D01*
X107028658Y-90804077D01*
X107333975Y-90930855D01*
X107664567Y-90931144D01*
X107970105Y-90804898D01*
X108204073Y-90571338D01*
X108330851Y-90266021D01*
X108331140Y-89935429D01*
X108235792Y-89704669D01*
X111818864Y-89704669D01*
X111937514Y-89991823D01*
X112157021Y-90211714D01*
X112443968Y-90330864D01*
X112754669Y-90331136D01*
X113041823Y-90212486D01*
X113261714Y-89992979D01*
X113380864Y-89706032D01*
X113381136Y-89395331D01*
X113262486Y-89108177D01*
X113042979Y-88888286D01*
X112859406Y-88812060D01*
X125117545Y-88812060D01*
X125200884Y-89065953D01*
X125765306Y-89271590D01*
X126365458Y-89245579D01*
X126799116Y-89065953D01*
X126882455Y-88812060D01*
X126000000Y-87929605D01*
X125117545Y-88812060D01*
X112859406Y-88812060D01*
X112756032Y-88769136D01*
X112445331Y-88768864D01*
X112158177Y-88887514D01*
X111938286Y-89107021D01*
X111819136Y-89393968D01*
X111818864Y-89704669D01*
X108235792Y-89704669D01*
X108204894Y-89629891D01*
X107971334Y-89395923D01*
X107666017Y-89269145D01*
X107335425Y-89268856D01*
X107029887Y-89395102D01*
X106795919Y-89628662D01*
X106669141Y-89933979D01*
X106668852Y-90264571D01*
X92431000Y-90264571D01*
X92431000Y-88812060D01*
X100117545Y-88812060D01*
X100200884Y-89065953D01*
X100765306Y-89271590D01*
X101365458Y-89245579D01*
X101799116Y-89065953D01*
X101882455Y-88812060D01*
X101000000Y-87929605D01*
X100117545Y-88812060D01*
X92431000Y-88812060D01*
X92431000Y-87515306D01*
X99478410Y-87515306D01*
X99504421Y-88115458D01*
X99684047Y-88549116D01*
X99937940Y-88632455D01*
X100820395Y-87750000D01*
X101179605Y-87750000D01*
X102062060Y-88632455D01*
X102315953Y-88549116D01*
X102388696Y-88349454D01*
X102434595Y-88460537D01*
X102787604Y-88814164D01*
X103249070Y-89005781D01*
X103748738Y-89006217D01*
X104210537Y-88815405D01*
X104564164Y-88462396D01*
X104750221Y-88014320D01*
X104934595Y-88460537D01*
X105287604Y-88814164D01*
X105749070Y-89005781D01*
X106248738Y-89006217D01*
X106470537Y-88914571D01*
X109118856Y-88914571D01*
X109245102Y-89220109D01*
X109478662Y-89454077D01*
X109783979Y-89580855D01*
X110114571Y-89581144D01*
X110420109Y-89454898D01*
X110654077Y-89221338D01*
X110780855Y-88916021D01*
X110781144Y-88585429D01*
X110654898Y-88279891D01*
X110421338Y-88045923D01*
X110116021Y-87919145D01*
X109785429Y-87918856D01*
X109479891Y-88045102D01*
X109245923Y-88278662D01*
X109119145Y-88583979D01*
X109118856Y-88914571D01*
X106470537Y-88914571D01*
X106710537Y-88815405D01*
X107064164Y-88462396D01*
X107255781Y-88000930D01*
X107255856Y-87914571D01*
X117368860Y-87914571D01*
X117495106Y-88220109D01*
X117728666Y-88454077D01*
X118033983Y-88580855D01*
X118364575Y-88581144D01*
X118670113Y-88454898D01*
X118904081Y-88221338D01*
X119030859Y-87916021D01*
X119031148Y-87585429D01*
X119002174Y-87515306D01*
X124478410Y-87515306D01*
X124504421Y-88115458D01*
X124684047Y-88549116D01*
X124937940Y-88632455D01*
X125820395Y-87750000D01*
X126179605Y-87750000D01*
X127062060Y-88632455D01*
X127315953Y-88549116D01*
X127388696Y-88349454D01*
X127434595Y-88460537D01*
X127787604Y-88814164D01*
X128249070Y-89005781D01*
X128748738Y-89006217D01*
X129210537Y-88815405D01*
X129564164Y-88462396D01*
X129750221Y-88014320D01*
X129934595Y-88460537D01*
X130287604Y-88814164D01*
X130749070Y-89005781D01*
X131248738Y-89006217D01*
X131710537Y-88815405D01*
X132064164Y-88462396D01*
X132255781Y-88000930D01*
X132256217Y-87501262D01*
X132065405Y-87039463D01*
X131712396Y-86685836D01*
X131250930Y-86494219D01*
X130751262Y-86493783D01*
X130289463Y-86684595D01*
X129935836Y-87037604D01*
X129749779Y-87485680D01*
X129565405Y-87039463D01*
X129212396Y-86685836D01*
X128750930Y-86494219D01*
X128251262Y-86493783D01*
X127789463Y-86684595D01*
X127435836Y-87037604D01*
X127393803Y-87138831D01*
X127315953Y-86950884D01*
X127062060Y-86867545D01*
X126179605Y-87750000D01*
X125820395Y-87750000D01*
X124937940Y-86867545D01*
X124684047Y-86950884D01*
X124478410Y-87515306D01*
X119002174Y-87515306D01*
X118904902Y-87279891D01*
X118671342Y-87045923D01*
X118366025Y-86919145D01*
X118035433Y-86918856D01*
X117729895Y-87045102D01*
X117495927Y-87278662D01*
X117369149Y-87583979D01*
X117368860Y-87914571D01*
X107255856Y-87914571D01*
X107256217Y-87501262D01*
X107065405Y-87039463D01*
X106714497Y-86687940D01*
X125117545Y-86687940D01*
X126000000Y-87570395D01*
X126882455Y-86687940D01*
X126799116Y-86434047D01*
X126234694Y-86228410D01*
X125634542Y-86254421D01*
X125200884Y-86434047D01*
X125117545Y-86687940D01*
X106714497Y-86687940D01*
X106712396Y-86685836D01*
X106250930Y-86494219D01*
X105751262Y-86493783D01*
X105289463Y-86684595D01*
X104935836Y-87037604D01*
X104749779Y-87485680D01*
X104565405Y-87039463D01*
X104212396Y-86685836D01*
X103750930Y-86494219D01*
X103251262Y-86493783D01*
X102789463Y-86684595D01*
X102435836Y-87037604D01*
X102393803Y-87138831D01*
X102315953Y-86950884D01*
X102062060Y-86867545D01*
X101179605Y-87750000D01*
X100820395Y-87750000D01*
X99937940Y-86867545D01*
X99684047Y-86950884D01*
X99478410Y-87515306D01*
X92431000Y-87515306D01*
X92431000Y-86687940D01*
X100117545Y-86687940D01*
X101000000Y-87570395D01*
X101882455Y-86687940D01*
X101799116Y-86434047D01*
X101234694Y-86228410D01*
X100634542Y-86254421D01*
X100200884Y-86434047D01*
X100117545Y-86687940D01*
X92431000Y-86687940D01*
X92431000Y-85664571D01*
X93168856Y-85664571D01*
X93295102Y-85970109D01*
X93528662Y-86204077D01*
X93833979Y-86330855D01*
X94164571Y-86331144D01*
X94470109Y-86204898D01*
X94704077Y-85971338D01*
X94706886Y-85964571D01*
X114918856Y-85964571D01*
X115045102Y-86270109D01*
X115278662Y-86504077D01*
X115583979Y-86630855D01*
X115914571Y-86631144D01*
X116220109Y-86504898D01*
X116454077Y-86271338D01*
X116580855Y-85966021D01*
X116581144Y-85635429D01*
X116454898Y-85329891D01*
X116221338Y-85095923D01*
X115916021Y-84969145D01*
X115585429Y-84968856D01*
X115279891Y-85095102D01*
X115045923Y-85328662D01*
X114919145Y-85633979D01*
X114918856Y-85964571D01*
X94706886Y-85964571D01*
X94830855Y-85666021D01*
X94831144Y-85335429D01*
X94704898Y-85029891D01*
X94589780Y-84914571D01*
X97418856Y-84914571D01*
X97545102Y-85220109D01*
X97778662Y-85454077D01*
X98083979Y-85580855D01*
X98414571Y-85581144D01*
X98720109Y-85454898D01*
X98954077Y-85221338D01*
X99080855Y-84916021D01*
X99081144Y-84585429D01*
X98954898Y-84279891D01*
X98721338Y-84045923D01*
X98416021Y-83919145D01*
X98085429Y-83918856D01*
X97779891Y-84045102D01*
X97545923Y-84278662D01*
X97419145Y-84583979D01*
X97418856Y-84914571D01*
X94589780Y-84914571D01*
X94471338Y-84795923D01*
X94166021Y-84669145D01*
X93835429Y-84668856D01*
X93529891Y-84795102D01*
X93295923Y-85028662D01*
X93169145Y-85333979D01*
X93168856Y-85664571D01*
X92431000Y-85664571D01*
X92431000Y-79858251D01*
X96919000Y-79858251D01*
X96919000Y-80641749D01*
X97054571Y-81323308D01*
X97440643Y-81901106D01*
X98018441Y-82287178D01*
X98700000Y-82422749D01*
X99381559Y-82287178D01*
X99959357Y-81901106D01*
X100345429Y-81323308D01*
X100481000Y-80641749D01*
X100481000Y-79858251D01*
X106519000Y-79858251D01*
X106519000Y-80641749D01*
X106654571Y-81323308D01*
X107040643Y-81901106D01*
X107618441Y-82287178D01*
X108300000Y-82422749D01*
X108981559Y-82287178D01*
X109090223Y-82214571D01*
X118818856Y-82214571D01*
X118945102Y-82520109D01*
X119178662Y-82754077D01*
X119483979Y-82880855D01*
X119814571Y-82881144D01*
X120120109Y-82754898D01*
X120354077Y-82521338D01*
X120480855Y-82216021D01*
X120481144Y-81885429D01*
X120354898Y-81579891D01*
X120121338Y-81345923D01*
X119816021Y-81219145D01*
X119485429Y-81218856D01*
X119179891Y-81345102D01*
X118945923Y-81578662D01*
X118819145Y-81883979D01*
X118818856Y-82214571D01*
X109090223Y-82214571D01*
X109559357Y-81901106D01*
X109945429Y-81323308D01*
X110081000Y-80641749D01*
X110081000Y-79858251D01*
X121919000Y-79858251D01*
X121919000Y-80641749D01*
X122054571Y-81323308D01*
X122440643Y-81901106D01*
X123018441Y-82287178D01*
X123700000Y-82422749D01*
X124381559Y-82287178D01*
X124959357Y-81901106D01*
X125345429Y-81323308D01*
X125481000Y-80641749D01*
X125481000Y-79858251D01*
X131519000Y-79858251D01*
X131519000Y-80641749D01*
X131654571Y-81323308D01*
X132040643Y-81901106D01*
X132618441Y-82287178D01*
X133300000Y-82422749D01*
X133981559Y-82287178D01*
X134559357Y-81901106D01*
X134945429Y-81323308D01*
X135081000Y-80641749D01*
X135081000Y-79858251D01*
X134945429Y-79176692D01*
X134603241Y-78664571D01*
X135668856Y-78664571D01*
X135795102Y-78970109D01*
X135824788Y-78999847D01*
X135795923Y-79028662D01*
X135669145Y-79333979D01*
X135668856Y-79664571D01*
X135795102Y-79970109D01*
X135824788Y-79999847D01*
X135795923Y-80028662D01*
X135669145Y-80333979D01*
X135668856Y-80664571D01*
X135795102Y-80970109D01*
X135824788Y-80999847D01*
X135795923Y-81028662D01*
X135669145Y-81333979D01*
X135668856Y-81664571D01*
X135795102Y-81970109D01*
X135824788Y-81999847D01*
X135795923Y-82028662D01*
X135669145Y-82333979D01*
X135668856Y-82664571D01*
X135795102Y-82970109D01*
X136028662Y-83204077D01*
X136333979Y-83330855D01*
X136664571Y-83331144D01*
X136970109Y-83204898D01*
X137204077Y-82971338D01*
X137330855Y-82666021D01*
X137331144Y-82335429D01*
X137204898Y-82029891D01*
X137175212Y-82000153D01*
X137204077Y-81971338D01*
X137330855Y-81666021D01*
X137331144Y-81335429D01*
X137204898Y-81029891D01*
X137175212Y-81000153D01*
X137204077Y-80971338D01*
X137330855Y-80666021D01*
X137331144Y-80335429D01*
X137204898Y-80029891D01*
X137175212Y-80000153D01*
X137204077Y-79971338D01*
X137330855Y-79666021D01*
X137331144Y-79335429D01*
X137204898Y-79029891D01*
X137175212Y-79000153D01*
X137204077Y-78971338D01*
X137330855Y-78666021D01*
X137331144Y-78335429D01*
X137204898Y-78029891D01*
X136971338Y-77795923D01*
X136666021Y-77669145D01*
X136335429Y-77668856D01*
X136029891Y-77795102D01*
X135795923Y-78028662D01*
X135669145Y-78333979D01*
X135668856Y-78664571D01*
X134603241Y-78664571D01*
X134559357Y-78598894D01*
X133981559Y-78212822D01*
X133300000Y-78077251D01*
X132618441Y-78212822D01*
X132040643Y-78598894D01*
X131654571Y-79176692D01*
X131519000Y-79858251D01*
X125481000Y-79858251D01*
X125345429Y-79176692D01*
X124959357Y-78598894D01*
X124381559Y-78212822D01*
X123700000Y-78077251D01*
X123018441Y-78212822D01*
X122440643Y-78598894D01*
X122054571Y-79176692D01*
X121919000Y-79858251D01*
X110081000Y-79858251D01*
X109945429Y-79176692D01*
X109559357Y-78598894D01*
X108981559Y-78212822D01*
X108300000Y-78077251D01*
X107618441Y-78212822D01*
X107040643Y-78598894D01*
X106654571Y-79176692D01*
X106519000Y-79858251D01*
X100481000Y-79858251D01*
X100345429Y-79176692D01*
X99959357Y-78598894D01*
X99381559Y-78212822D01*
X98700000Y-78077251D01*
X98018441Y-78212822D01*
X97440643Y-78598894D01*
X97054571Y-79176692D01*
X96919000Y-79858251D01*
X92431000Y-79858251D01*
X92431000Y-77503689D01*
X104968778Y-77503689D01*
X105163388Y-77974680D01*
X105523425Y-78335345D01*
X105994076Y-78530777D01*
X106503689Y-78531222D01*
X106974680Y-78336612D01*
X107335345Y-77976575D01*
X107530777Y-77505924D01*
X107531222Y-76996311D01*
X107336612Y-76525320D01*
X106976575Y-76164655D01*
X106505924Y-75969223D01*
X105996311Y-75968778D01*
X105525320Y-76163388D01*
X105164655Y-76523425D01*
X104969223Y-76994076D01*
X104968778Y-77503689D01*
X92431000Y-77503689D01*
X92431000Y-72904669D01*
X109968864Y-72904669D01*
X110087514Y-73191823D01*
X110307021Y-73411714D01*
X110593968Y-73530864D01*
X110904669Y-73531136D01*
X111191823Y-73412486D01*
X111411714Y-73192979D01*
X111527318Y-72914571D01*
X113568856Y-72914571D01*
X113695102Y-73220109D01*
X113928662Y-73454077D01*
X114233979Y-73580855D01*
X114564571Y-73581144D01*
X114870109Y-73454898D01*
X115104077Y-73221338D01*
X115230855Y-72916021D01*
X115231144Y-72585429D01*
X115104898Y-72279891D01*
X114871338Y-72045923D01*
X114566021Y-71919145D01*
X114235429Y-71918856D01*
X113929891Y-72045102D01*
X113695923Y-72278662D01*
X113569145Y-72583979D01*
X113568856Y-72914571D01*
X111527318Y-72914571D01*
X111530864Y-72906032D01*
X111531136Y-72595331D01*
X111412486Y-72308177D01*
X111192979Y-72088286D01*
X110906032Y-71969136D01*
X110595331Y-71968864D01*
X110308177Y-72087514D01*
X110088286Y-72307021D01*
X109969136Y-72593968D01*
X109968864Y-72904669D01*
X92431000Y-72904669D01*
X92431000Y-71764551D01*
X122768856Y-71764551D01*
X122895102Y-72070089D01*
X123128662Y-72304057D01*
X123433979Y-72430835D01*
X123764571Y-72431124D01*
X124070109Y-72304878D01*
X124304077Y-72071318D01*
X124409724Y-71816890D01*
X133058524Y-71816890D01*
X133228355Y-72226924D01*
X133618642Y-72655183D01*
X133845105Y-72761536D01*
X133650000Y-72761536D01*
X133508810Y-72788103D01*
X133379135Y-72871546D01*
X133292141Y-72998866D01*
X133261536Y-73150000D01*
X133261536Y-74850000D01*
X133288103Y-74991190D01*
X133371546Y-75120865D01*
X133498866Y-75207859D01*
X133650000Y-75238464D01*
X135350000Y-75238464D01*
X135491190Y-75211897D01*
X135620865Y-75128454D01*
X135707859Y-75001134D01*
X135738464Y-74850000D01*
X135738464Y-73150000D01*
X135711897Y-73008810D01*
X135628454Y-72879135D01*
X135501134Y-72792141D01*
X135350000Y-72761536D01*
X135154895Y-72761536D01*
X135381358Y-72655183D01*
X135770000Y-72228729D01*
X136158642Y-72655183D01*
X136583947Y-72854917D01*
X136544800Y-72862704D01*
X136145435Y-73129552D01*
X135878587Y-73528917D01*
X135784883Y-74000000D01*
X135878587Y-74471083D01*
X136145435Y-74870448D01*
X136544800Y-75137296D01*
X137015883Y-75231000D01*
X137064117Y-75231000D01*
X137535200Y-75137296D01*
X137934565Y-74870448D01*
X138201413Y-74471083D01*
X138295117Y-74000000D01*
X138201413Y-73528917D01*
X137934565Y-73129552D01*
X137535200Y-72862704D01*
X137496053Y-72854917D01*
X137921358Y-72655183D01*
X138311645Y-72226924D01*
X138481476Y-71816890D01*
X138360155Y-71587000D01*
X137167000Y-71587000D01*
X137167000Y-71607000D01*
X136913000Y-71607000D01*
X136913000Y-71587000D01*
X134627000Y-71587000D01*
X134627000Y-71607000D01*
X134373000Y-71607000D01*
X134373000Y-71587000D01*
X133179845Y-71587000D01*
X133058524Y-71816890D01*
X124409724Y-71816890D01*
X124430855Y-71766001D01*
X124431144Y-71435409D01*
X124304898Y-71129871D01*
X124071338Y-70895903D01*
X123766021Y-70769125D01*
X123435429Y-70768836D01*
X123129891Y-70895082D01*
X122895923Y-71128642D01*
X122769145Y-71433959D01*
X122768856Y-71764551D01*
X92431000Y-71764551D01*
X92431000Y-69400000D01*
X92981536Y-69400000D01*
X92981536Y-71100000D01*
X93008103Y-71241190D01*
X93091546Y-71370865D01*
X93218866Y-71457859D01*
X93370000Y-71488464D01*
X95070000Y-71488464D01*
X95211190Y-71461897D01*
X95340865Y-71378454D01*
X95427859Y-71251134D01*
X95458464Y-71100000D01*
X95458464Y-70225883D01*
X95529000Y-70225883D01*
X95529000Y-70274117D01*
X95622704Y-70745200D01*
X95889552Y-71144565D01*
X96288917Y-71411413D01*
X96760000Y-71505117D01*
X97231083Y-71411413D01*
X97630448Y-71144565D01*
X97897296Y-70745200D01*
X97991000Y-70274117D01*
X97991000Y-70225883D01*
X98069000Y-70225883D01*
X98069000Y-70274117D01*
X98162704Y-70745200D01*
X98429552Y-71144565D01*
X98828917Y-71411413D01*
X99300000Y-71505117D01*
X99771083Y-71411413D01*
X100170448Y-71144565D01*
X100437296Y-70745200D01*
X100531000Y-70274117D01*
X100531000Y-70225883D01*
X100609000Y-70225883D01*
X100609000Y-70274117D01*
X100702704Y-70745200D01*
X100969552Y-71144565D01*
X101368917Y-71411413D01*
X101840000Y-71505117D01*
X102311083Y-71411413D01*
X102710448Y-71144565D01*
X102977296Y-70745200D01*
X103071000Y-70274117D01*
X103071000Y-70225883D01*
X102977296Y-69754800D01*
X102710448Y-69355435D01*
X102311083Y-69088587D01*
X101840000Y-68994883D01*
X101368917Y-69088587D01*
X100969552Y-69355435D01*
X100702704Y-69754800D01*
X100609000Y-70225883D01*
X100531000Y-70225883D01*
X100437296Y-69754800D01*
X100170448Y-69355435D01*
X99771083Y-69088587D01*
X99300000Y-68994883D01*
X98828917Y-69088587D01*
X98429552Y-69355435D01*
X98162704Y-69754800D01*
X98069000Y-70225883D01*
X97991000Y-70225883D01*
X97897296Y-69754800D01*
X97630448Y-69355435D01*
X97231083Y-69088587D01*
X96760000Y-68994883D01*
X96288917Y-69088587D01*
X95889552Y-69355435D01*
X95622704Y-69754800D01*
X95529000Y-70225883D01*
X95458464Y-70225883D01*
X95458464Y-69400000D01*
X95431897Y-69258810D01*
X95348454Y-69129135D01*
X95221134Y-69042141D01*
X95070000Y-69011536D01*
X93370000Y-69011536D01*
X93228810Y-69038103D01*
X93099135Y-69121546D01*
X93012141Y-69248866D01*
X92981536Y-69400000D01*
X92431000Y-69400000D01*
X92431000Y-68931000D01*
X106267408Y-68931000D01*
X106153076Y-68978355D01*
X105724817Y-69368642D01*
X105525083Y-69793947D01*
X105517296Y-69754800D01*
X105250448Y-69355435D01*
X104851083Y-69088587D01*
X104380000Y-68994883D01*
X103908917Y-69088587D01*
X103509552Y-69355435D01*
X103242704Y-69754800D01*
X103149000Y-70225883D01*
X103149000Y-70274117D01*
X103242704Y-70745200D01*
X103509552Y-71144565D01*
X103908917Y-71411413D01*
X104380000Y-71505117D01*
X104851083Y-71411413D01*
X105250448Y-71144565D01*
X105517296Y-70745200D01*
X105525083Y-70706053D01*
X105724817Y-71131358D01*
X106153076Y-71521645D01*
X106563110Y-71691476D01*
X106793000Y-71570155D01*
X106793000Y-70377000D01*
X107047000Y-70377000D01*
X107047000Y-71570155D01*
X107276890Y-71691476D01*
X107686924Y-71521645D01*
X108115183Y-71131358D01*
X108190000Y-70972046D01*
X108264817Y-71131358D01*
X108693076Y-71521645D01*
X109103110Y-71691476D01*
X109333000Y-71570155D01*
X109333000Y-70377000D01*
X107047000Y-70377000D01*
X106793000Y-70377000D01*
X106773000Y-70377000D01*
X106773000Y-70123000D01*
X106793000Y-70123000D01*
X106793000Y-70103000D01*
X107047000Y-70103000D01*
X107047000Y-70123000D01*
X109333000Y-70123000D01*
X109333000Y-70103000D01*
X109587000Y-70103000D01*
X109587000Y-70123000D01*
X109607000Y-70123000D01*
X109607000Y-70377000D01*
X109587000Y-70377000D01*
X109587000Y-71570155D01*
X109816890Y-71691476D01*
X110226924Y-71521645D01*
X110655183Y-71131358D01*
X110854917Y-70706053D01*
X110862704Y-70745200D01*
X111129552Y-71144565D01*
X111528917Y-71411413D01*
X112000000Y-71505117D01*
X112471083Y-71411413D01*
X112870448Y-71144565D01*
X113137296Y-70745200D01*
X113231000Y-70274117D01*
X113231000Y-70225883D01*
X113137296Y-69754800D01*
X112994578Y-69541208D01*
X126283824Y-69541208D01*
X126438175Y-69914766D01*
X126723731Y-70200821D01*
X127097018Y-70355824D01*
X127501208Y-70356176D01*
X127874766Y-70201825D01*
X128160821Y-69916269D01*
X128315824Y-69542982D01*
X128316055Y-69276890D01*
X133058524Y-69276890D01*
X133228355Y-69686924D01*
X133618642Y-70115183D01*
X133777954Y-70190000D01*
X133618642Y-70264817D01*
X133228355Y-70693076D01*
X133058524Y-71103110D01*
X133179845Y-71333000D01*
X134373000Y-71333000D01*
X134373000Y-69047000D01*
X134627000Y-69047000D01*
X134627000Y-71333000D01*
X136913000Y-71333000D01*
X136913000Y-69047000D01*
X137167000Y-69047000D01*
X137167000Y-71333000D01*
X138360155Y-71333000D01*
X138481476Y-71103110D01*
X138311645Y-70693076D01*
X137921358Y-70264817D01*
X137762046Y-70190000D01*
X137921358Y-70115183D01*
X138311645Y-69686924D01*
X138481476Y-69276890D01*
X138360155Y-69047000D01*
X137167000Y-69047000D01*
X136913000Y-69047000D01*
X134627000Y-69047000D01*
X134373000Y-69047000D01*
X133179845Y-69047000D01*
X133058524Y-69276890D01*
X128316055Y-69276890D01*
X128316176Y-69138792D01*
X128161825Y-68765234D01*
X127876269Y-68479179D01*
X127502982Y-68324176D01*
X127098792Y-68323824D01*
X126725234Y-68478175D01*
X126439179Y-68763731D01*
X126284176Y-69137018D01*
X126283824Y-69541208D01*
X112994578Y-69541208D01*
X112870448Y-69355435D01*
X112471083Y-69088587D01*
X112000000Y-68994883D01*
X111528917Y-69088587D01*
X111129552Y-69355435D01*
X110862704Y-69754800D01*
X110854917Y-69793947D01*
X110655183Y-69368642D01*
X110226924Y-68978355D01*
X110112592Y-68931000D01*
X118000000Y-68931000D01*
X118164937Y-68898192D01*
X118304763Y-68804763D01*
X118398192Y-68664937D01*
X118431000Y-68500000D01*
X118431000Y-67535750D01*
X118465000Y-67535750D01*
X118465000Y-68176310D01*
X118561673Y-68409699D01*
X118740302Y-68588327D01*
X118973691Y-68685000D01*
X120214250Y-68685000D01*
X120373000Y-68526250D01*
X120373000Y-67377000D01*
X120627000Y-67377000D01*
X120627000Y-68526250D01*
X120785750Y-68685000D01*
X122026309Y-68685000D01*
X122259698Y-68588327D01*
X122438327Y-68409699D01*
X122535000Y-68176310D01*
X122535000Y-67535750D01*
X122376250Y-67377000D01*
X120627000Y-67377000D01*
X120373000Y-67377000D01*
X118623750Y-67377000D01*
X118465000Y-67535750D01*
X118431000Y-67535750D01*
X118431000Y-66323690D01*
X118465000Y-66323690D01*
X118465000Y-66964250D01*
X118623750Y-67123000D01*
X120373000Y-67123000D01*
X120373000Y-65973750D01*
X120627000Y-65973750D01*
X120627000Y-67123000D01*
X122376250Y-67123000D01*
X122498042Y-67001208D01*
X126283824Y-67001208D01*
X126438175Y-67374766D01*
X126723731Y-67660821D01*
X127097018Y-67815824D01*
X127501208Y-67816176D01*
X127874766Y-67661825D01*
X128160821Y-67376269D01*
X128315824Y-67002982D01*
X128316055Y-66736890D01*
X133058524Y-66736890D01*
X133228355Y-67146924D01*
X133618642Y-67575183D01*
X133777954Y-67650000D01*
X133618642Y-67724817D01*
X133228355Y-68153076D01*
X133058524Y-68563110D01*
X133179845Y-68793000D01*
X134373000Y-68793000D01*
X134373000Y-66507000D01*
X134627000Y-66507000D01*
X134627000Y-68793000D01*
X136913000Y-68793000D01*
X136913000Y-66507000D01*
X137167000Y-66507000D01*
X137167000Y-68793000D01*
X138360155Y-68793000D01*
X138481476Y-68563110D01*
X138311645Y-68153076D01*
X137921358Y-67724817D01*
X137762046Y-67650000D01*
X137921358Y-67575183D01*
X138311645Y-67146924D01*
X138481476Y-66736890D01*
X138360155Y-66507000D01*
X137167000Y-66507000D01*
X136913000Y-66507000D01*
X134627000Y-66507000D01*
X134373000Y-66507000D01*
X133179845Y-66507000D01*
X133058524Y-66736890D01*
X128316055Y-66736890D01*
X128316176Y-66598792D01*
X128161825Y-66225234D01*
X127960054Y-66023110D01*
X133058524Y-66023110D01*
X133179845Y-66253000D01*
X134373000Y-66253000D01*
X134373000Y-66233000D01*
X134627000Y-66233000D01*
X134627000Y-66253000D01*
X136913000Y-66253000D01*
X136913000Y-66233000D01*
X137167000Y-66233000D01*
X137167000Y-66253000D01*
X138360155Y-66253000D01*
X138481476Y-66023110D01*
X138311645Y-65613076D01*
X137921358Y-65184817D01*
X137496053Y-64985083D01*
X137535200Y-64977296D01*
X137934565Y-64710448D01*
X138201413Y-64311083D01*
X138295117Y-63840000D01*
X138201413Y-63368917D01*
X137934565Y-62969552D01*
X137535200Y-62702704D01*
X137064117Y-62609000D01*
X137015883Y-62609000D01*
X136544800Y-62702704D01*
X136145435Y-62969552D01*
X135878587Y-63368917D01*
X135784883Y-63840000D01*
X135878587Y-64311083D01*
X136145435Y-64710448D01*
X136544800Y-64977296D01*
X136583947Y-64985083D01*
X136158642Y-65184817D01*
X135770000Y-65611271D01*
X135381358Y-65184817D01*
X134956053Y-64985083D01*
X134995200Y-64977296D01*
X135394565Y-64710448D01*
X135661413Y-64311083D01*
X135755117Y-63840000D01*
X135661413Y-63368917D01*
X135394565Y-62969552D01*
X134995200Y-62702704D01*
X134524117Y-62609000D01*
X134475883Y-62609000D01*
X134004800Y-62702704D01*
X133605435Y-62969552D01*
X133338587Y-63368917D01*
X133244883Y-63840000D01*
X133338587Y-64311083D01*
X133605435Y-64710448D01*
X134004800Y-64977296D01*
X134043947Y-64985083D01*
X133618642Y-65184817D01*
X133228355Y-65613076D01*
X133058524Y-66023110D01*
X127960054Y-66023110D01*
X127876269Y-65939179D01*
X127502982Y-65784176D01*
X127098792Y-65783824D01*
X126725234Y-65938175D01*
X126439179Y-66223731D01*
X126284176Y-66597018D01*
X126283824Y-67001208D01*
X122498042Y-67001208D01*
X122535000Y-66964250D01*
X122535000Y-66323690D01*
X122438327Y-66090301D01*
X122259698Y-65911673D01*
X122026309Y-65815000D01*
X120785750Y-65815000D01*
X120627000Y-65973750D01*
X120373000Y-65973750D01*
X120214250Y-65815000D01*
X118973691Y-65815000D01*
X118740302Y-65911673D01*
X118561673Y-66090301D01*
X118465000Y-66323690D01*
X118431000Y-66323690D01*
X118431000Y-64461208D01*
X126283824Y-64461208D01*
X126438175Y-64834766D01*
X126723731Y-65120821D01*
X127097018Y-65275824D01*
X127501208Y-65276176D01*
X127874766Y-65121825D01*
X128160821Y-64836269D01*
X128315824Y-64462982D01*
X128316176Y-64058792D01*
X128161825Y-63685234D01*
X127876269Y-63399179D01*
X127502982Y-63244176D01*
X127098792Y-63243824D01*
X126725234Y-63398175D01*
X126439179Y-63683731D01*
X126284176Y-64057018D01*
X126283824Y-64461208D01*
X118431000Y-64461208D01*
X118431000Y-58998738D01*
X124743783Y-58998738D01*
X124934595Y-59460537D01*
X125287604Y-59814164D01*
X125749070Y-60005781D01*
X126248738Y-60006217D01*
X126710537Y-59815405D01*
X127064164Y-59462396D01*
X127250221Y-59014320D01*
X127434595Y-59460537D01*
X127787604Y-59814164D01*
X128249070Y-60005781D01*
X128748738Y-60006217D01*
X129210537Y-59815405D01*
X129564164Y-59462396D01*
X129750221Y-59014320D01*
X129934595Y-59460537D01*
X130287604Y-59814164D01*
X130749070Y-60005781D01*
X131248738Y-60006217D01*
X131710537Y-59815405D01*
X132064164Y-59462396D01*
X132255781Y-59000930D01*
X132256217Y-58501262D01*
X132065405Y-58039463D01*
X131712396Y-57685836D01*
X131250930Y-57494219D01*
X130751262Y-57493783D01*
X130289463Y-57684595D01*
X129935836Y-58037604D01*
X129749779Y-58485680D01*
X129565405Y-58039463D01*
X129212396Y-57685836D01*
X128750930Y-57494219D01*
X128251262Y-57493783D01*
X127789463Y-57684595D01*
X127435836Y-58037604D01*
X127249779Y-58485680D01*
X127065405Y-58039463D01*
X126712396Y-57685836D01*
X126250930Y-57494219D01*
X125751262Y-57493783D01*
X125289463Y-57684595D01*
X124935836Y-58037604D01*
X124744219Y-58499070D01*
X124743783Y-58998738D01*
X118431000Y-58998738D01*
X118431000Y-50858251D01*
X121919000Y-50858251D01*
X121919000Y-51641749D01*
X122054571Y-52323308D01*
X122440643Y-52901106D01*
X123018441Y-53287178D01*
X123700000Y-53422749D01*
X124381559Y-53287178D01*
X124959357Y-52901106D01*
X125345429Y-52323308D01*
X125481000Y-51641749D01*
X125481000Y-50858251D01*
X125345429Y-50176692D01*
X124959357Y-49598894D01*
X124381559Y-49212822D01*
X123700000Y-49077251D01*
X123018441Y-49212822D01*
X122440643Y-49598894D01*
X122054571Y-50176692D01*
X121919000Y-50858251D01*
X118431000Y-50858251D01*
X118431000Y-47816051D01*
X128618856Y-47816051D01*
X128745102Y-48121589D01*
X128824048Y-48200673D01*
X128745923Y-48278662D01*
X128619145Y-48583979D01*
X128618856Y-48914571D01*
X128745102Y-49220109D01*
X128899788Y-49375065D01*
X128745923Y-49528662D01*
X128619145Y-49833979D01*
X128618856Y-50164571D01*
X128745102Y-50470109D01*
X128899788Y-50625065D01*
X128745923Y-50778662D01*
X128619145Y-51083979D01*
X128618856Y-51414571D01*
X128745102Y-51720109D01*
X128899788Y-51875065D01*
X128745923Y-52028662D01*
X128619145Y-52333979D01*
X128618856Y-52664571D01*
X128745102Y-52970109D01*
X128899788Y-53125065D01*
X128745923Y-53278662D01*
X128619145Y-53583979D01*
X128618856Y-53914571D01*
X128745102Y-54220109D01*
X128924788Y-54400109D01*
X128745923Y-54578662D01*
X128619145Y-54883979D01*
X128618856Y-55214571D01*
X128745102Y-55520109D01*
X128978662Y-55754077D01*
X129283979Y-55880855D01*
X129614571Y-55881144D01*
X129920109Y-55754898D01*
X130154077Y-55521338D01*
X130280855Y-55216021D01*
X130281144Y-54885429D01*
X130154898Y-54579891D01*
X129975212Y-54399891D01*
X130154077Y-54221338D01*
X130280855Y-53916021D01*
X130281144Y-53585429D01*
X130154898Y-53279891D01*
X130000212Y-53124935D01*
X130154077Y-52971338D01*
X130280855Y-52666021D01*
X130281144Y-52335429D01*
X130154898Y-52029891D01*
X130000212Y-51874935D01*
X130154077Y-51721338D01*
X130280855Y-51416021D01*
X130281144Y-51085429D01*
X130187276Y-50858251D01*
X131519000Y-50858251D01*
X131519000Y-51641749D01*
X131654571Y-52323308D01*
X132040643Y-52901106D01*
X132618441Y-53287178D01*
X133300000Y-53422749D01*
X133981559Y-53287178D01*
X134559357Y-52901106D01*
X134945429Y-52323308D01*
X135081000Y-51641749D01*
X135081000Y-50858251D01*
X134945429Y-50176692D01*
X134559357Y-49598894D01*
X133981559Y-49212822D01*
X133300000Y-49077251D01*
X132618441Y-49212822D01*
X132040643Y-49598894D01*
X131654571Y-50176692D01*
X131519000Y-50858251D01*
X130187276Y-50858251D01*
X130154898Y-50779891D01*
X130000212Y-50624935D01*
X130154077Y-50471338D01*
X130280855Y-50166021D01*
X130281144Y-49835429D01*
X130154898Y-49529891D01*
X130000212Y-49374935D01*
X130154077Y-49221338D01*
X130280855Y-48916021D01*
X130281144Y-48585429D01*
X130154898Y-48279891D01*
X130075952Y-48200807D01*
X130154077Y-48122818D01*
X130280855Y-47817501D01*
X130281144Y-47486909D01*
X130154898Y-47181371D01*
X129921338Y-46947403D01*
X129616021Y-46820625D01*
X129285429Y-46820336D01*
X128979891Y-46946582D01*
X128745923Y-47180142D01*
X128619145Y-47485459D01*
X128618856Y-47816051D01*
X118431000Y-47816051D01*
X118431000Y-38431000D01*
X139569000Y-38431000D01*
X139569000Y-98630521D01*
X139569000Y-98630521D01*
G37*
X139569000Y-98630521D02*
X139263337Y-98245702D01*
X138702396Y-97934258D01*
X138580434Y-97909876D01*
X138327000Y-98029223D01*
X138327000Y-99623000D01*
X138347000Y-99623000D01*
X138347000Y-99877000D01*
X138327000Y-99877000D01*
X138327000Y-101470777D01*
X138580434Y-101590124D01*
X138702396Y-101565742D01*
X139263337Y-101254298D01*
X139569000Y-100869479D01*
X139569000Y-117130521D01*
X139263337Y-116745702D01*
X138702396Y-116434258D01*
X138580434Y-116409876D01*
X138327000Y-116529223D01*
X138327000Y-118123000D01*
X138347000Y-118123000D01*
X138347000Y-118377000D01*
X138327000Y-118377000D01*
X138327000Y-119970777D01*
X138580434Y-120090124D01*
X138702396Y-120065742D01*
X139263337Y-119754298D01*
X139569000Y-119369479D01*
X139569000Y-136630521D01*
X139263337Y-136245702D01*
X138702396Y-135934258D01*
X138580434Y-135909876D01*
X138327000Y-136029223D01*
X138327000Y-137623000D01*
X138347000Y-137623000D01*
X138347000Y-137877000D01*
X138327000Y-137877000D01*
X138327000Y-139470777D01*
X138580434Y-139590124D01*
X138702396Y-139565742D01*
X139263337Y-139254298D01*
X139569000Y-138869479D01*
X139569000Y-142568992D01*
X92431000Y-142568992D01*
X92431000Y-141050000D01*
X96327251Y-141050000D01*
X96413343Y-141482815D01*
X96658513Y-141849738D01*
X97025436Y-142094908D01*
X97458251Y-142181000D01*
X99541749Y-142181000D01*
X99974564Y-142094908D01*
X100341487Y-141849738D01*
X100586657Y-141482815D01*
X100672749Y-141050000D01*
X113827251Y-141050000D01*
X113913343Y-141482815D01*
X114158513Y-141849738D01*
X114525436Y-142094908D01*
X114958251Y-142181000D01*
X117041749Y-142181000D01*
X117474564Y-142094908D01*
X117841487Y-141849738D01*
X118086657Y-141482815D01*
X118172749Y-141050000D01*
X131327251Y-141050000D01*
X131413343Y-141482815D01*
X131658513Y-141849738D01*
X132025436Y-142094908D01*
X132458251Y-142181000D01*
X134541749Y-142181000D01*
X134974564Y-142094908D01*
X135341487Y-141849738D01*
X135586657Y-141482815D01*
X135672749Y-141050000D01*
X135586657Y-140617185D01*
X135341487Y-140250262D01*
X134974564Y-140005092D01*
X134541749Y-139919000D01*
X132458251Y-139919000D01*
X132025436Y-140005092D01*
X131658513Y-140250262D01*
X131413343Y-140617185D01*
X131327251Y-141050000D01*
X118172749Y-141050000D01*
X118086657Y-140617185D01*
X117841487Y-140250262D01*
X117474564Y-140005092D01*
X117041749Y-139919000D01*
X114958251Y-139919000D01*
X114525436Y-140005092D01*
X114158513Y-140250262D01*
X113913343Y-140617185D01*
X113827251Y-141050000D01*
X100672749Y-141050000D01*
X100586657Y-140617185D01*
X100341487Y-140250262D01*
X99974564Y-140005092D01*
X99541749Y-139919000D01*
X97458251Y-139919000D01*
X97025436Y-140005092D01*
X96658513Y-140250262D01*
X96413343Y-140617185D01*
X96327251Y-141050000D01*
X92431000Y-141050000D01*
X92431000Y-139759233D01*
X92556906Y-139922699D01*
X93195974Y-140290114D01*
X93380355Y-140337695D01*
X93673000Y-140221572D01*
X93673000Y-137877000D01*
X93927000Y-137877000D01*
X93927000Y-140221572D01*
X94219645Y-140337695D01*
X94404026Y-140290114D01*
X95043094Y-139922699D01*
X95492912Y-139338691D01*
X95685000Y-138627000D01*
X95685000Y-138135030D01*
X101561185Y-138135030D01*
X101737606Y-138751899D01*
X102136663Y-139254298D01*
X102697604Y-139565742D01*
X102819566Y-139590124D01*
X103073000Y-139470777D01*
X103073000Y-137877000D01*
X103327000Y-137877000D01*
X103327000Y-139470777D01*
X103580434Y-139590124D01*
X103702396Y-139565742D01*
X104263337Y-139254298D01*
X104662394Y-138751899D01*
X104838815Y-138135030D01*
X104681012Y-137877000D01*
X109415000Y-137877000D01*
X109415000Y-138627000D01*
X109607088Y-139338691D01*
X110056906Y-139922699D01*
X110695974Y-140290114D01*
X110880355Y-140337695D01*
X111173000Y-140221572D01*
X111173000Y-137877000D01*
X111427000Y-137877000D01*
X111427000Y-140221572D01*
X111719645Y-140337695D01*
X111904026Y-140290114D01*
X112543094Y-139922699D01*
X112992912Y-139338691D01*
X113185000Y-138627000D01*
X113185000Y-138135030D01*
X119061185Y-138135030D01*
X119237606Y-138751899D01*
X119636663Y-139254298D01*
X120197604Y-139565742D01*
X120319566Y-139590124D01*
X120573000Y-139470777D01*
X120573000Y-137877000D01*
X120827000Y-137877000D01*
X120827000Y-139470777D01*
X121080434Y-139590124D01*
X121202396Y-139565742D01*
X121763337Y-139254298D01*
X122162394Y-138751899D01*
X122338815Y-138135030D01*
X122181012Y-137877000D01*
X126915000Y-137877000D01*
X126915000Y-138627000D01*
X127107088Y-139338691D01*
X127556906Y-139922699D01*
X128195974Y-140290114D01*
X128380355Y-140337695D01*
X128673000Y-140221572D01*
X128673000Y-137877000D01*
X128927000Y-137877000D01*
X128927000Y-140221572D01*
X129219645Y-140337695D01*
X129404026Y-140290114D01*
X130043094Y-139922699D01*
X130492912Y-139338691D01*
X130685000Y-138627000D01*
X130685000Y-138135030D01*
X136561185Y-138135030D01*
X136737606Y-138751899D01*
X137136663Y-139254298D01*
X137697604Y-139565742D01*
X137819566Y-139590124D01*
X138073000Y-139470777D01*
X138073000Y-137877000D01*
X136718988Y-137877000D01*
X136561185Y-138135030D01*
X130685000Y-138135030D01*
X130685000Y-137877000D01*
X128927000Y-137877000D01*
X128673000Y-137877000D01*
X126915000Y-137877000D01*
X122181012Y-137877000D01*
X120827000Y-137877000D01*
X120573000Y-137877000D01*
X119218988Y-137877000D01*
X119061185Y-138135030D01*
X113185000Y-138135030D01*
X113185000Y-137877000D01*
X111427000Y-137877000D01*
X111173000Y-137877000D01*
X109415000Y-137877000D01*
X104681012Y-137877000D01*
X103327000Y-137877000D01*
X103073000Y-137877000D01*
X101718988Y-137877000D01*
X101561185Y-138135030D01*
X95685000Y-138135030D01*
X95685000Y-137877000D01*
X93927000Y-137877000D01*
X93673000Y-137877000D01*
X93653000Y-137877000D01*
X93653000Y-137623000D01*
X93673000Y-137623000D01*
X93673000Y-135278428D01*
X93927000Y-135278428D01*
X93927000Y-137623000D01*
X95685000Y-137623000D01*
X95685000Y-137364970D01*
X101561185Y-137364970D01*
X101718988Y-137623000D01*
X103073000Y-137623000D01*
X103073000Y-136029223D01*
X103327000Y-136029223D01*
X103327000Y-137623000D01*
X104681012Y-137623000D01*
X104838815Y-137364970D01*
X104698115Y-136873000D01*
X109415000Y-136873000D01*
X109415000Y-137623000D01*
X111173000Y-137623000D01*
X111173000Y-135278428D01*
X111427000Y-135278428D01*
X111427000Y-137623000D01*
X113185000Y-137623000D01*
X113185000Y-137364970D01*
X119061185Y-137364970D01*
X119218988Y-137623000D01*
X120573000Y-137623000D01*
X120573000Y-136029223D01*
X120827000Y-136029223D01*
X120827000Y-137623000D01*
X122181012Y-137623000D01*
X122338815Y-137364970D01*
X122198115Y-136873000D01*
X126915000Y-136873000D01*
X126915000Y-137623000D01*
X128673000Y-137623000D01*
X128673000Y-135278428D01*
X128927000Y-135278428D01*
X128927000Y-137623000D01*
X130685000Y-137623000D01*
X130685000Y-137364970D01*
X136561185Y-137364970D01*
X136718988Y-137623000D01*
X138073000Y-137623000D01*
X138073000Y-136029223D01*
X137819566Y-135909876D01*
X137697604Y-135934258D01*
X137136663Y-136245702D01*
X136737606Y-136748101D01*
X136561185Y-137364970D01*
X130685000Y-137364970D01*
X130685000Y-136873000D01*
X130492912Y-136161309D01*
X130043094Y-135577301D01*
X129404026Y-135209886D01*
X129219645Y-135162305D01*
X128927000Y-135278428D01*
X128673000Y-135278428D01*
X128380355Y-135162305D01*
X128195974Y-135209886D01*
X127556906Y-135577301D01*
X127107088Y-136161309D01*
X126915000Y-136873000D01*
X122198115Y-136873000D01*
X122162394Y-136748101D01*
X121763337Y-136245702D01*
X121202396Y-135934258D01*
X121080434Y-135909876D01*
X120827000Y-136029223D01*
X120573000Y-136029223D01*
X120319566Y-135909876D01*
X120197604Y-135934258D01*
X119636663Y-136245702D01*
X119237606Y-136748101D01*
X119061185Y-137364970D01*
X113185000Y-137364970D01*
X113185000Y-136873000D01*
X112992912Y-136161309D01*
X112543094Y-135577301D01*
X111980216Y-135253689D01*
X122218778Y-135253689D01*
X122413388Y-135724680D01*
X122773425Y-136085345D01*
X123244076Y-136280777D01*
X123753689Y-136281222D01*
X124224680Y-136086612D01*
X124585345Y-135726575D01*
X124780777Y-135255924D01*
X124781222Y-134746311D01*
X124586612Y-134275320D01*
X124226575Y-133914655D01*
X123755924Y-133719223D01*
X123246311Y-133718778D01*
X122775320Y-133913388D01*
X122414655Y-134273425D01*
X122219223Y-134744076D01*
X122218778Y-135253689D01*
X111980216Y-135253689D01*
X111904026Y-135209886D01*
X111719645Y-135162305D01*
X111427000Y-135278428D01*
X111173000Y-135278428D01*
X110880355Y-135162305D01*
X110695974Y-135209886D01*
X110056906Y-135577301D01*
X109607088Y-136161309D01*
X109415000Y-136873000D01*
X104698115Y-136873000D01*
X104662394Y-136748101D01*
X104263337Y-136245702D01*
X103702396Y-135934258D01*
X103580434Y-135909876D01*
X103327000Y-136029223D01*
X103073000Y-136029223D01*
X102819566Y-135909876D01*
X102697604Y-135934258D01*
X102136663Y-136245702D01*
X101737606Y-136748101D01*
X101561185Y-137364970D01*
X95685000Y-137364970D01*
X95685000Y-136873000D01*
X95492912Y-136161309D01*
X95043094Y-135577301D01*
X94404026Y-135209886D01*
X94219645Y-135162305D01*
X93927000Y-135278428D01*
X93673000Y-135278428D01*
X93380355Y-135162305D01*
X93195974Y-135209886D01*
X92556906Y-135577301D01*
X92431000Y-135740767D01*
X92431000Y-132850000D01*
X96327251Y-132850000D01*
X96413343Y-133282815D01*
X96658513Y-133649738D01*
X97025436Y-133894908D01*
X97458251Y-133981000D01*
X99541749Y-133981000D01*
X99974564Y-133894908D01*
X100341487Y-133649738D01*
X100586657Y-133282815D01*
X100672749Y-132850000D01*
X113827251Y-132850000D01*
X113913343Y-133282815D01*
X114158513Y-133649738D01*
X114525436Y-133894908D01*
X114958251Y-133981000D01*
X117041749Y-133981000D01*
X117474564Y-133894908D01*
X117841487Y-133649738D01*
X118086657Y-133282815D01*
X118172749Y-132850000D01*
X131327251Y-132850000D01*
X131413343Y-133282815D01*
X131658513Y-133649738D01*
X132025436Y-133894908D01*
X132458251Y-133981000D01*
X134541749Y-133981000D01*
X134974564Y-133894908D01*
X135341487Y-133649738D01*
X135586657Y-133282815D01*
X135672749Y-132850000D01*
X135586657Y-132417185D01*
X135341487Y-132050262D01*
X134974564Y-131805092D01*
X134541749Y-131719000D01*
X132458251Y-131719000D01*
X132025436Y-131805092D01*
X131658513Y-132050262D01*
X131413343Y-132417185D01*
X131327251Y-132850000D01*
X118172749Y-132850000D01*
X118086657Y-132417185D01*
X117841487Y-132050262D01*
X117474564Y-131805092D01*
X117041749Y-131719000D01*
X114958251Y-131719000D01*
X114525436Y-131805092D01*
X114158513Y-132050262D01*
X113913343Y-132417185D01*
X113827251Y-132850000D01*
X100672749Y-132850000D01*
X100586657Y-132417185D01*
X100341487Y-132050262D01*
X99974564Y-131805092D01*
X99541749Y-131719000D01*
X97458251Y-131719000D01*
X97025436Y-131805092D01*
X96658513Y-132050262D01*
X96413343Y-132417185D01*
X96327251Y-132850000D01*
X92431000Y-132850000D01*
X92431000Y-128035750D01*
X96465000Y-128035750D01*
X96465000Y-128676310D01*
X96561673Y-128909699D01*
X96740302Y-129088327D01*
X96973691Y-129185000D01*
X98214250Y-129185000D01*
X98373000Y-129026250D01*
X98373000Y-127877000D01*
X98627000Y-127877000D01*
X98627000Y-129026250D01*
X98785750Y-129185000D01*
X100026309Y-129185000D01*
X100259698Y-129088327D01*
X100438327Y-128909699D01*
X100535000Y-128676310D01*
X100535000Y-128035750D01*
X100376250Y-127877000D01*
X98627000Y-127877000D01*
X98373000Y-127877000D01*
X96623750Y-127877000D01*
X96465000Y-128035750D01*
X92431000Y-128035750D01*
X92431000Y-126823690D01*
X96465000Y-126823690D01*
X96465000Y-127464250D01*
X96623750Y-127623000D01*
X98373000Y-127623000D01*
X98373000Y-126473750D01*
X98627000Y-126473750D01*
X98627000Y-127623000D01*
X100376250Y-127623000D01*
X100535000Y-127464250D01*
X100535000Y-127250000D01*
X108361536Y-127250000D01*
X108361536Y-129250000D01*
X108388103Y-129391190D01*
X108471546Y-129520865D01*
X108598866Y-129607859D01*
X108750000Y-129638464D01*
X110250000Y-129638464D01*
X110391190Y-129611897D01*
X110520865Y-129528454D01*
X110607859Y-129401134D01*
X110638464Y-129250000D01*
X110638464Y-128476359D01*
X111856802Y-128476359D01*
X112030446Y-128896612D01*
X112351697Y-129218423D01*
X112771646Y-129392801D01*
X113226359Y-129393198D01*
X113646612Y-129219554D01*
X113968423Y-128898303D01*
X114142801Y-128478354D01*
X114142802Y-128476359D01*
X114856802Y-128476359D01*
X115030446Y-128896612D01*
X115351697Y-129218423D01*
X115771646Y-129392801D01*
X116226359Y-129393198D01*
X116646612Y-129219554D01*
X116968423Y-128898303D01*
X117142801Y-128478354D01*
X117142802Y-128476359D01*
X117856802Y-128476359D01*
X118030446Y-128896612D01*
X118351697Y-129218423D01*
X118771646Y-129392801D01*
X119226359Y-129393198D01*
X119646612Y-129219554D01*
X119968423Y-128898303D01*
X120142801Y-128478354D01*
X120143198Y-128023641D01*
X119969554Y-127603388D01*
X119648303Y-127281577D01*
X119572258Y-127250000D01*
X121361536Y-127250000D01*
X121361536Y-129250000D01*
X121388103Y-129391190D01*
X121471546Y-129520865D01*
X121598866Y-129607859D01*
X121750000Y-129638464D01*
X123250000Y-129638464D01*
X123391190Y-129611897D01*
X123520865Y-129528454D01*
X123607859Y-129401134D01*
X123638464Y-129250000D01*
X123638464Y-128535750D01*
X124265000Y-128535750D01*
X124265000Y-129226310D01*
X124361673Y-129459699D01*
X124540302Y-129638327D01*
X124773691Y-129735000D01*
X125464250Y-129735000D01*
X125623000Y-129576250D01*
X125623000Y-128377000D01*
X125877000Y-128377000D01*
X125877000Y-129576250D01*
X126035750Y-129735000D01*
X126726309Y-129735000D01*
X126959698Y-129638327D01*
X127138327Y-129459699D01*
X127235000Y-129226310D01*
X127235000Y-128535750D01*
X127076250Y-128377000D01*
X125877000Y-128377000D01*
X125623000Y-128377000D01*
X124423750Y-128377000D01*
X124265000Y-128535750D01*
X123638464Y-128535750D01*
X123638464Y-127273690D01*
X124265000Y-127273690D01*
X124265000Y-127964250D01*
X124423750Y-128123000D01*
X125623000Y-128123000D01*
X125623000Y-128103000D01*
X125877000Y-128103000D01*
X125877000Y-128123000D01*
X127076250Y-128123000D01*
X127235000Y-127964250D01*
X127235000Y-127273690D01*
X127138327Y-127040301D01*
X126959698Y-126861673D01*
X126726309Y-126765000D01*
X126368364Y-126765000D01*
X126644565Y-126580448D01*
X126911413Y-126181083D01*
X127005117Y-125710000D01*
X126911413Y-125238917D01*
X126644565Y-124839552D01*
X126245200Y-124572704D01*
X125774117Y-124479000D01*
X125725883Y-124479000D01*
X125254800Y-124572704D01*
X124855435Y-124839552D01*
X124588587Y-125238917D01*
X124494883Y-125710000D01*
X124588587Y-126181083D01*
X124855435Y-126580448D01*
X125131636Y-126765000D01*
X124773691Y-126765000D01*
X124540302Y-126861673D01*
X124361673Y-127040301D01*
X124265000Y-127273690D01*
X123638464Y-127273690D01*
X123638464Y-127250000D01*
X123611897Y-127108810D01*
X123528454Y-126979135D01*
X123401134Y-126892141D01*
X123250000Y-126861536D01*
X121750000Y-126861536D01*
X121608810Y-126888103D01*
X121479135Y-126971546D01*
X121392141Y-127098866D01*
X121361536Y-127250000D01*
X119572258Y-127250000D01*
X119228354Y-127107199D01*
X118773641Y-127106802D01*
X118353388Y-127280446D01*
X118031577Y-127601697D01*
X117857199Y-128021646D01*
X117856802Y-128476359D01*
X117142802Y-128476359D01*
X117143198Y-128023641D01*
X116969554Y-127603388D01*
X116648303Y-127281577D01*
X116228354Y-127107199D01*
X115773641Y-127106802D01*
X115353388Y-127280446D01*
X115031577Y-127601697D01*
X114857199Y-128021646D01*
X114856802Y-128476359D01*
X114142802Y-128476359D01*
X114143198Y-128023641D01*
X113969554Y-127603388D01*
X113648303Y-127281577D01*
X113228354Y-127107199D01*
X112773641Y-127106802D01*
X112353388Y-127280446D01*
X112031577Y-127601697D01*
X111857199Y-128021646D01*
X111856802Y-128476359D01*
X110638464Y-128476359D01*
X110638464Y-127250000D01*
X110611897Y-127108810D01*
X110528454Y-126979135D01*
X110401134Y-126892141D01*
X110250000Y-126861536D01*
X108750000Y-126861536D01*
X108608810Y-126888103D01*
X108479135Y-126971546D01*
X108392141Y-127098866D01*
X108361536Y-127250000D01*
X100535000Y-127250000D01*
X100535000Y-126823690D01*
X100438327Y-126590301D01*
X100259698Y-126411673D01*
X100026309Y-126315000D01*
X98785750Y-126315000D01*
X98627000Y-126473750D01*
X98373000Y-126473750D01*
X98214250Y-126315000D01*
X96973691Y-126315000D01*
X96740302Y-126411673D01*
X96561673Y-126590301D01*
X96465000Y-126823690D01*
X92431000Y-126823690D01*
X92431000Y-123150000D01*
X113827251Y-123150000D01*
X113913343Y-123582815D01*
X114158513Y-123949738D01*
X114525436Y-124194908D01*
X114958251Y-124281000D01*
X117041749Y-124281000D01*
X117474564Y-124194908D01*
X117841487Y-123949738D01*
X118086657Y-123582815D01*
X118168770Y-123170000D01*
X124494883Y-123170000D01*
X124588587Y-123641083D01*
X124855435Y-124040448D01*
X125254800Y-124307296D01*
X125725883Y-124401000D01*
X125774117Y-124401000D01*
X126245200Y-124307296D01*
X126644565Y-124040448D01*
X126911413Y-123641083D01*
X127005117Y-123170000D01*
X126911413Y-122698917D01*
X126644565Y-122299552D01*
X126245200Y-122032704D01*
X125774117Y-121939000D01*
X125725883Y-121939000D01*
X125254800Y-122032704D01*
X124855435Y-122299552D01*
X124588587Y-122698917D01*
X124494883Y-123170000D01*
X118168770Y-123170000D01*
X118172749Y-123150000D01*
X118086657Y-122717185D01*
X117841487Y-122350262D01*
X117474564Y-122105092D01*
X117041749Y-122019000D01*
X114958251Y-122019000D01*
X114525436Y-122105092D01*
X114158513Y-122350262D01*
X113913343Y-122717185D01*
X113827251Y-123150000D01*
X92431000Y-123150000D01*
X92431000Y-121550000D01*
X96327251Y-121550000D01*
X96413343Y-121982815D01*
X96658513Y-122349738D01*
X97025436Y-122594908D01*
X97458251Y-122681000D01*
X99541749Y-122681000D01*
X99974564Y-122594908D01*
X100341487Y-122349738D01*
X100586657Y-121982815D01*
X100672749Y-121550000D01*
X131327251Y-121550000D01*
X131413343Y-121982815D01*
X131658513Y-122349738D01*
X132025436Y-122594908D01*
X132458251Y-122681000D01*
X134541749Y-122681000D01*
X134974564Y-122594908D01*
X135341487Y-122349738D01*
X135586657Y-121982815D01*
X135672749Y-121550000D01*
X135586657Y-121117185D01*
X135341487Y-120750262D01*
X134974564Y-120505092D01*
X134541749Y-120419000D01*
X132458251Y-120419000D01*
X132025436Y-120505092D01*
X131658513Y-120750262D01*
X131413343Y-121117185D01*
X131327251Y-121550000D01*
X100672749Y-121550000D01*
X100586657Y-121117185D01*
X100341487Y-120750262D01*
X99974564Y-120505092D01*
X99541749Y-120419000D01*
X97458251Y-120419000D01*
X97025436Y-120505092D01*
X96658513Y-120750262D01*
X96413343Y-121117185D01*
X96327251Y-121550000D01*
X92431000Y-121550000D01*
X92431000Y-120259233D01*
X92556906Y-120422699D01*
X93195974Y-120790114D01*
X93380355Y-120837695D01*
X93673000Y-120721572D01*
X93673000Y-118377000D01*
X93927000Y-118377000D01*
X93927000Y-120721572D01*
X94219645Y-120837695D01*
X94404026Y-120790114D01*
X95043094Y-120422699D01*
X95492912Y-119838691D01*
X95685000Y-119127000D01*
X95685000Y-118635030D01*
X101561185Y-118635030D01*
X101737606Y-119251899D01*
X102136663Y-119754298D01*
X102697604Y-120065742D01*
X102819566Y-120090124D01*
X103073000Y-119970777D01*
X103073000Y-118377000D01*
X103327000Y-118377000D01*
X103327000Y-119970777D01*
X103580434Y-120090124D01*
X103702396Y-120065742D01*
X104263337Y-119754298D01*
X104662394Y-119251899D01*
X104804598Y-118754669D01*
X107768864Y-118754669D01*
X107887514Y-119041823D01*
X108107021Y-119261714D01*
X108393968Y-119380864D01*
X108704669Y-119381136D01*
X108991823Y-119262486D01*
X109211714Y-119042979D01*
X109330864Y-118756032D01*
X109330969Y-118635030D01*
X109661185Y-118635030D01*
X109837606Y-119251899D01*
X110236663Y-119754298D01*
X110797604Y-120065742D01*
X110919566Y-120090124D01*
X111173000Y-119970777D01*
X111173000Y-118377000D01*
X111427000Y-118377000D01*
X111427000Y-119970777D01*
X111680434Y-120090124D01*
X111802396Y-120065742D01*
X112363337Y-119754298D01*
X112762394Y-119251899D01*
X112938815Y-118635030D01*
X112781012Y-118377000D01*
X118815000Y-118377000D01*
X118815000Y-119127000D01*
X119007088Y-119838691D01*
X119456906Y-120422699D01*
X120095974Y-120790114D01*
X120280355Y-120837695D01*
X120573000Y-120721572D01*
X120573000Y-118377000D01*
X120827000Y-118377000D01*
X120827000Y-120721572D01*
X121119645Y-120837695D01*
X121304026Y-120790114D01*
X121943094Y-120422699D01*
X122392912Y-119838691D01*
X122585000Y-119127000D01*
X122585000Y-118377000D01*
X126915000Y-118377000D01*
X126915000Y-119127000D01*
X127107088Y-119838691D01*
X127556906Y-120422699D01*
X128195974Y-120790114D01*
X128380355Y-120837695D01*
X128673000Y-120721572D01*
X128673000Y-118377000D01*
X128927000Y-118377000D01*
X128927000Y-120721572D01*
X129219645Y-120837695D01*
X129404026Y-120790114D01*
X130043094Y-120422699D01*
X130492912Y-119838691D01*
X130685000Y-119127000D01*
X130685000Y-118635030D01*
X136561185Y-118635030D01*
X136737606Y-119251899D01*
X137136663Y-119754298D01*
X137697604Y-120065742D01*
X137819566Y-120090124D01*
X138073000Y-119970777D01*
X138073000Y-118377000D01*
X136718988Y-118377000D01*
X136561185Y-118635030D01*
X130685000Y-118635030D01*
X130685000Y-118377000D01*
X128927000Y-118377000D01*
X128673000Y-118377000D01*
X126915000Y-118377000D01*
X122585000Y-118377000D01*
X120827000Y-118377000D01*
X120573000Y-118377000D01*
X118815000Y-118377000D01*
X112781012Y-118377000D01*
X111427000Y-118377000D01*
X111173000Y-118377000D01*
X109818988Y-118377000D01*
X109661185Y-118635030D01*
X109330969Y-118635030D01*
X109331136Y-118445331D01*
X109212486Y-118158177D01*
X108992979Y-117938286D01*
X108816414Y-117864970D01*
X109661185Y-117864970D01*
X109818988Y-118123000D01*
X111173000Y-118123000D01*
X111173000Y-116529223D01*
X111427000Y-116529223D01*
X111427000Y-118123000D01*
X112781012Y-118123000D01*
X112938815Y-117864970D01*
X112892970Y-117704669D01*
X115218864Y-117704669D01*
X115337514Y-117991823D01*
X115557021Y-118211714D01*
X115843968Y-118330864D01*
X116154669Y-118331136D01*
X116441823Y-118212486D01*
X116661714Y-117992979D01*
X116780864Y-117706032D01*
X116781136Y-117395331D01*
X116771909Y-117373000D01*
X118815000Y-117373000D01*
X118815000Y-118123000D01*
X120573000Y-118123000D01*
X120573000Y-115778428D01*
X120827000Y-115778428D01*
X120827000Y-118123000D01*
X122585000Y-118123000D01*
X122585000Y-117373000D01*
X126915000Y-117373000D01*
X126915000Y-118123000D01*
X128673000Y-118123000D01*
X128673000Y-115778428D01*
X128927000Y-115778428D01*
X128927000Y-118123000D01*
X130685000Y-118123000D01*
X130685000Y-117864970D01*
X136561185Y-117864970D01*
X136718988Y-118123000D01*
X138073000Y-118123000D01*
X138073000Y-116529223D01*
X137819566Y-116409876D01*
X137697604Y-116434258D01*
X137136663Y-116745702D01*
X136737606Y-117248101D01*
X136561185Y-117864970D01*
X130685000Y-117864970D01*
X130685000Y-117373000D01*
X130492912Y-116661309D01*
X130043094Y-116077301D01*
X129404026Y-115709886D01*
X129219645Y-115662305D01*
X128927000Y-115778428D01*
X128673000Y-115778428D01*
X128380355Y-115662305D01*
X128195974Y-115709886D01*
X127556906Y-116077301D01*
X127107088Y-116661309D01*
X126915000Y-117373000D01*
X122585000Y-117373000D01*
X122392912Y-116661309D01*
X121943094Y-116077301D01*
X121304026Y-115709886D01*
X121119645Y-115662305D01*
X120827000Y-115778428D01*
X120573000Y-115778428D01*
X120280355Y-115662305D01*
X120095974Y-115709886D01*
X119456906Y-116077301D01*
X119007088Y-116661309D01*
X118815000Y-117373000D01*
X116771909Y-117373000D01*
X116662486Y-117108177D01*
X116442979Y-116888286D01*
X116156032Y-116769136D01*
X115845331Y-116768864D01*
X115558177Y-116887514D01*
X115338286Y-117107021D01*
X115219136Y-117393968D01*
X115218864Y-117704669D01*
X112892970Y-117704669D01*
X112762394Y-117248101D01*
X112363337Y-116745702D01*
X111802396Y-116434258D01*
X111680434Y-116409876D01*
X111427000Y-116529223D01*
X111173000Y-116529223D01*
X110919566Y-116409876D01*
X110797604Y-116434258D01*
X110236663Y-116745702D01*
X109837606Y-117248101D01*
X109661185Y-117864970D01*
X108816414Y-117864970D01*
X108706032Y-117819136D01*
X108395331Y-117818864D01*
X108108177Y-117937514D01*
X107888286Y-118157021D01*
X107769136Y-118443968D01*
X107768864Y-118754669D01*
X104804598Y-118754669D01*
X104838815Y-118635030D01*
X104681012Y-118377000D01*
X103327000Y-118377000D01*
X103073000Y-118377000D01*
X101718988Y-118377000D01*
X101561185Y-118635030D01*
X95685000Y-118635030D01*
X95685000Y-118377000D01*
X93927000Y-118377000D01*
X93673000Y-118377000D01*
X93653000Y-118377000D01*
X93653000Y-118123000D01*
X93673000Y-118123000D01*
X93673000Y-115778428D01*
X93927000Y-115778428D01*
X93927000Y-118123000D01*
X95685000Y-118123000D01*
X95685000Y-117864970D01*
X101561185Y-117864970D01*
X101718988Y-118123000D01*
X103073000Y-118123000D01*
X103073000Y-116529223D01*
X103327000Y-116529223D01*
X103327000Y-118123000D01*
X104681012Y-118123000D01*
X104838815Y-117864970D01*
X104662394Y-117248101D01*
X104263337Y-116745702D01*
X103702396Y-116434258D01*
X103580434Y-116409876D01*
X103327000Y-116529223D01*
X103073000Y-116529223D01*
X102819566Y-116409876D01*
X102697604Y-116434258D01*
X102136663Y-116745702D01*
X101737606Y-117248101D01*
X101561185Y-117864970D01*
X95685000Y-117864970D01*
X95685000Y-117373000D01*
X95492912Y-116661309D01*
X95043094Y-116077301D01*
X94404026Y-115709886D01*
X94219645Y-115662305D01*
X93927000Y-115778428D01*
X93673000Y-115778428D01*
X93380355Y-115662305D01*
X93195974Y-115709886D01*
X92556906Y-116077301D01*
X92431000Y-116240767D01*
X92431000Y-113350000D01*
X96327251Y-113350000D01*
X96413343Y-113782815D01*
X96658513Y-114149738D01*
X97025436Y-114394908D01*
X97458251Y-114481000D01*
X99541749Y-114481000D01*
X99974564Y-114394908D01*
X100341487Y-114149738D01*
X100439073Y-114003689D01*
X107218778Y-114003689D01*
X107413388Y-114474680D01*
X107773425Y-114835345D01*
X108244076Y-115030777D01*
X108753689Y-115031222D01*
X108950260Y-114950000D01*
X113827251Y-114950000D01*
X113913343Y-115382815D01*
X114158513Y-115749738D01*
X114525436Y-115994908D01*
X114958251Y-116081000D01*
X117041749Y-116081000D01*
X117474564Y-115994908D01*
X117841487Y-115749738D01*
X118086657Y-115382815D01*
X118172749Y-114950000D01*
X118086657Y-114517185D01*
X117841487Y-114150262D01*
X117474564Y-113905092D01*
X117041749Y-113819000D01*
X114958251Y-113819000D01*
X114525436Y-113905092D01*
X114158513Y-114150262D01*
X113913343Y-114517185D01*
X113827251Y-114950000D01*
X108950260Y-114950000D01*
X109224680Y-114836612D01*
X109585345Y-114476575D01*
X109780777Y-114005924D01*
X109781222Y-113496311D01*
X109720768Y-113350000D01*
X131327251Y-113350000D01*
X131413343Y-113782815D01*
X131658513Y-114149738D01*
X132025436Y-114394908D01*
X132458251Y-114481000D01*
X134541749Y-114481000D01*
X134974564Y-114394908D01*
X135341487Y-114149738D01*
X135586657Y-113782815D01*
X135672749Y-113350000D01*
X135586657Y-112917185D01*
X135341487Y-112550262D01*
X134974564Y-112305092D01*
X134541749Y-112219000D01*
X132458251Y-112219000D01*
X132025436Y-112305092D01*
X131658513Y-112550262D01*
X131413343Y-112917185D01*
X131327251Y-113350000D01*
X109720768Y-113350000D01*
X109586612Y-113025320D01*
X109226575Y-112664655D01*
X108755924Y-112469223D01*
X108246311Y-112468778D01*
X107775320Y-112663388D01*
X107414655Y-113023425D01*
X107219223Y-113494076D01*
X107218778Y-114003689D01*
X100439073Y-114003689D01*
X100586657Y-113782815D01*
X100672749Y-113350000D01*
X100586657Y-112917185D01*
X100341487Y-112550262D01*
X99974564Y-112305092D01*
X99541749Y-112219000D01*
X97458251Y-112219000D01*
X97025436Y-112305092D01*
X96658513Y-112550262D01*
X96413343Y-112917185D01*
X96327251Y-113350000D01*
X92431000Y-113350000D01*
X92431000Y-111414571D01*
X126268856Y-111414571D01*
X126395102Y-111720109D01*
X126628662Y-111954077D01*
X126933979Y-112080855D01*
X127264571Y-112081144D01*
X127570109Y-111954898D01*
X127804077Y-111721338D01*
X127930855Y-111416021D01*
X127931144Y-111085429D01*
X127804898Y-110779891D01*
X127571338Y-110545923D01*
X127266021Y-110419145D01*
X126935429Y-110418856D01*
X126629891Y-110545102D01*
X126395923Y-110778662D01*
X126269145Y-111083979D01*
X126268856Y-111414571D01*
X92431000Y-111414571D01*
X92431000Y-109664571D01*
X103918856Y-109664571D01*
X104045102Y-109970109D01*
X104278662Y-110204077D01*
X104583979Y-110330855D01*
X104914571Y-110331144D01*
X105220109Y-110204898D01*
X105454077Y-109971338D01*
X105580855Y-109666021D01*
X105580856Y-109664571D01*
X115168856Y-109664571D01*
X115295102Y-109970109D01*
X115528662Y-110204077D01*
X115833979Y-110330855D01*
X116164571Y-110331144D01*
X116470109Y-110204898D01*
X116704077Y-109971338D01*
X116830855Y-109666021D01*
X116831144Y-109335429D01*
X116704898Y-109029891D01*
X116471338Y-108795923D01*
X116166021Y-108669145D01*
X115835429Y-108668856D01*
X115529891Y-108795102D01*
X115295923Y-109028662D01*
X115169145Y-109333979D01*
X115168856Y-109664571D01*
X105580856Y-109664571D01*
X105581144Y-109335429D01*
X105454898Y-109029891D01*
X105221338Y-108795923D01*
X104916021Y-108669145D01*
X104585429Y-108668856D01*
X104279891Y-108795102D01*
X104045923Y-109028662D01*
X103919145Y-109333979D01*
X103918856Y-109664571D01*
X92431000Y-109664571D01*
X92431000Y-106503689D01*
X92968778Y-106503689D01*
X93163388Y-106974680D01*
X93523425Y-107335345D01*
X93994076Y-107530777D01*
X94503689Y-107531222D01*
X94974680Y-107336612D01*
X95335345Y-106976575D01*
X95530777Y-106505924D01*
X95530778Y-106504669D01*
X106118864Y-106504669D01*
X106237514Y-106791823D01*
X106457021Y-107011714D01*
X106743968Y-107130864D01*
X107054669Y-107131136D01*
X107341823Y-107012486D01*
X107561714Y-106792979D01*
X107680864Y-106506032D01*
X107681084Y-106253689D01*
X129218778Y-106253689D01*
X129413388Y-106724680D01*
X129773425Y-107085345D01*
X130244076Y-107280777D01*
X130753689Y-107281222D01*
X131224680Y-107086612D01*
X131585345Y-106726575D01*
X131780777Y-106255924D01*
X131781222Y-105746311D01*
X131623490Y-105364571D01*
X136418856Y-105364571D01*
X136545102Y-105670109D01*
X136778662Y-105904077D01*
X137083979Y-106030855D01*
X137414571Y-106031144D01*
X137720109Y-105904898D01*
X137954077Y-105671338D01*
X138080855Y-105366021D01*
X138081144Y-105035429D01*
X137954898Y-104729891D01*
X137721338Y-104495923D01*
X137416021Y-104369145D01*
X137085429Y-104368856D01*
X136779891Y-104495102D01*
X136545923Y-104728662D01*
X136419145Y-105033979D01*
X136418856Y-105364571D01*
X131623490Y-105364571D01*
X131586612Y-105275320D01*
X131226575Y-104914655D01*
X130755924Y-104719223D01*
X130246311Y-104718778D01*
X129775320Y-104913388D01*
X129414655Y-105273425D01*
X129219223Y-105744076D01*
X129218778Y-106253689D01*
X107681084Y-106253689D01*
X107681136Y-106195331D01*
X107562486Y-105908177D01*
X107342979Y-105688286D01*
X107056032Y-105569136D01*
X106745331Y-105568864D01*
X106458177Y-105687514D01*
X106238286Y-105907021D01*
X106119136Y-106193968D01*
X106118864Y-106504669D01*
X95530778Y-106504669D01*
X95531222Y-105996311D01*
X95336612Y-105525320D01*
X94976575Y-105164655D01*
X94505924Y-104969223D01*
X93996311Y-104968778D01*
X93525320Y-105163388D01*
X93164655Y-105523425D01*
X92969223Y-105994076D01*
X92968778Y-106503689D01*
X92431000Y-106503689D01*
X92431000Y-104864571D01*
X99818856Y-104864571D01*
X99945102Y-105170109D01*
X100178662Y-105404077D01*
X100483979Y-105530855D01*
X100814571Y-105531144D01*
X101120109Y-105404898D01*
X101354077Y-105171338D01*
X101480855Y-104866021D01*
X101481043Y-104650000D01*
X113827251Y-104650000D01*
X113913343Y-105082815D01*
X114158513Y-105449738D01*
X114525436Y-105694908D01*
X114958251Y-105781000D01*
X117041749Y-105781000D01*
X117474564Y-105694908D01*
X117841487Y-105449738D01*
X118032029Y-105164571D01*
X122018856Y-105164571D01*
X122145102Y-105470109D01*
X122378662Y-105704077D01*
X122683979Y-105830855D01*
X123014571Y-105831144D01*
X123320109Y-105704898D01*
X123554077Y-105471338D01*
X123680855Y-105166021D01*
X123681144Y-104835429D01*
X123554898Y-104529891D01*
X123321338Y-104295923D01*
X123016021Y-104169145D01*
X122685429Y-104168856D01*
X122379891Y-104295102D01*
X122145923Y-104528662D01*
X122019145Y-104833979D01*
X122018856Y-105164571D01*
X118032029Y-105164571D01*
X118086657Y-105082815D01*
X118172749Y-104650000D01*
X118086657Y-104217185D01*
X117884457Y-103914571D01*
X118168856Y-103914571D01*
X118295102Y-104220109D01*
X118528662Y-104454077D01*
X118833979Y-104580855D01*
X119164571Y-104581144D01*
X119470109Y-104454898D01*
X119704077Y-104221338D01*
X119830855Y-103916021D01*
X119831144Y-103585429D01*
X119704898Y-103279891D01*
X119475408Y-103050000D01*
X131327251Y-103050000D01*
X131413343Y-103482815D01*
X131658513Y-103849738D01*
X132025436Y-104094908D01*
X132458251Y-104181000D01*
X134541749Y-104181000D01*
X134974564Y-104094908D01*
X135341487Y-103849738D01*
X135586657Y-103482815D01*
X135672749Y-103050000D01*
X135586657Y-102617185D01*
X135341487Y-102250262D01*
X134974564Y-102005092D01*
X134541749Y-101919000D01*
X132458251Y-101919000D01*
X132025436Y-102005092D01*
X131658513Y-102250262D01*
X131413343Y-102617185D01*
X131327251Y-103050000D01*
X119475408Y-103050000D01*
X119471338Y-103045923D01*
X119166021Y-102919145D01*
X118835429Y-102918856D01*
X118529891Y-103045102D01*
X118295923Y-103278662D01*
X118169145Y-103583979D01*
X118168856Y-103914571D01*
X117884457Y-103914571D01*
X117841487Y-103850262D01*
X117474564Y-103605092D01*
X117041749Y-103519000D01*
X114958251Y-103519000D01*
X114525436Y-103605092D01*
X114158513Y-103850262D01*
X113913343Y-104217185D01*
X113827251Y-104650000D01*
X101481043Y-104650000D01*
X101481144Y-104535429D01*
X101354898Y-104229891D01*
X101121338Y-103995923D01*
X100816021Y-103869145D01*
X100485429Y-103868856D01*
X100179891Y-103995102D01*
X99945923Y-104228662D01*
X99819145Y-104533979D01*
X99818856Y-104864571D01*
X92431000Y-104864571D01*
X92431000Y-103050000D01*
X96327251Y-103050000D01*
X96413343Y-103482815D01*
X96658513Y-103849738D01*
X97025436Y-104094908D01*
X97458251Y-104181000D01*
X99541749Y-104181000D01*
X99974564Y-104094908D01*
X100341487Y-103849738D01*
X100586657Y-103482815D01*
X100672749Y-103050000D01*
X100586657Y-102617185D01*
X100341487Y-102250262D01*
X99974564Y-102005092D01*
X99541749Y-101919000D01*
X97458251Y-101919000D01*
X97025436Y-102005092D01*
X96658513Y-102250262D01*
X96413343Y-102617185D01*
X96327251Y-103050000D01*
X92431000Y-103050000D01*
X92431000Y-101759233D01*
X92556906Y-101922699D01*
X93195974Y-102290114D01*
X93380355Y-102337695D01*
X93673000Y-102221572D01*
X93673000Y-99877000D01*
X93927000Y-99877000D01*
X93927000Y-102221572D01*
X94219645Y-102337695D01*
X94404026Y-102290114D01*
X95043094Y-101922699D01*
X95492912Y-101338691D01*
X95685000Y-100627000D01*
X95685000Y-100135030D01*
X101561185Y-100135030D01*
X101737606Y-100751899D01*
X102136663Y-101254298D01*
X102697604Y-101565742D01*
X102819566Y-101590124D01*
X103073000Y-101470777D01*
X103073000Y-99877000D01*
X103327000Y-99877000D01*
X103327000Y-101470777D01*
X103580434Y-101590124D01*
X103702396Y-101565742D01*
X104263337Y-101254298D01*
X104662394Y-100751899D01*
X104838815Y-100135030D01*
X109661185Y-100135030D01*
X109837606Y-100751899D01*
X110236663Y-101254298D01*
X110797604Y-101565742D01*
X110919566Y-101590124D01*
X111173000Y-101470777D01*
X111173000Y-99877000D01*
X111427000Y-99877000D01*
X111427000Y-101470777D01*
X111680434Y-101590124D01*
X111802396Y-101565742D01*
X112363337Y-101254298D01*
X112762394Y-100751899D01*
X112938815Y-100135030D01*
X112781012Y-99877000D01*
X118815000Y-99877000D01*
X118815000Y-100627000D01*
X119007088Y-101338691D01*
X119456906Y-101922699D01*
X120095974Y-102290114D01*
X120280355Y-102337695D01*
X120573000Y-102221572D01*
X120573000Y-99877000D01*
X120827000Y-99877000D01*
X120827000Y-102221572D01*
X121119645Y-102337695D01*
X121304026Y-102290114D01*
X121943094Y-101922699D01*
X122392912Y-101338691D01*
X122585000Y-100627000D01*
X122585000Y-99877000D01*
X126915000Y-99877000D01*
X126915000Y-100627000D01*
X127107088Y-101338691D01*
X127556906Y-101922699D01*
X128195974Y-102290114D01*
X128380355Y-102337695D01*
X128673000Y-102221572D01*
X128673000Y-99877000D01*
X128927000Y-99877000D01*
X128927000Y-102221572D01*
X129219645Y-102337695D01*
X129404026Y-102290114D01*
X130043094Y-101922699D01*
X130492912Y-101338691D01*
X130685000Y-100627000D01*
X130685000Y-100135030D01*
X136561185Y-100135030D01*
X136737606Y-100751899D01*
X137136663Y-101254298D01*
X137697604Y-101565742D01*
X137819566Y-101590124D01*
X138073000Y-101470777D01*
X138073000Y-99877000D01*
X136718988Y-99877000D01*
X136561185Y-100135030D01*
X130685000Y-100135030D01*
X130685000Y-99877000D01*
X128927000Y-99877000D01*
X128673000Y-99877000D01*
X126915000Y-99877000D01*
X122585000Y-99877000D01*
X120827000Y-99877000D01*
X120573000Y-99877000D01*
X118815000Y-99877000D01*
X112781012Y-99877000D01*
X111427000Y-99877000D01*
X111173000Y-99877000D01*
X109818988Y-99877000D01*
X109661185Y-100135030D01*
X104838815Y-100135030D01*
X104681012Y-99877000D01*
X103327000Y-99877000D01*
X103073000Y-99877000D01*
X101718988Y-99877000D01*
X101561185Y-100135030D01*
X95685000Y-100135030D01*
X95685000Y-99877000D01*
X93927000Y-99877000D01*
X93673000Y-99877000D01*
X93653000Y-99877000D01*
X93653000Y-99623000D01*
X93673000Y-99623000D01*
X93673000Y-97278428D01*
X93927000Y-97278428D01*
X93927000Y-99623000D01*
X95685000Y-99623000D01*
X95685000Y-99364970D01*
X101561185Y-99364970D01*
X101718988Y-99623000D01*
X103073000Y-99623000D01*
X103073000Y-98029223D01*
X103327000Y-98029223D01*
X103327000Y-99623000D01*
X104681012Y-99623000D01*
X104838815Y-99364970D01*
X109661185Y-99364970D01*
X109818988Y-99623000D01*
X111173000Y-99623000D01*
X111173000Y-98029223D01*
X111427000Y-98029223D01*
X111427000Y-99623000D01*
X112781012Y-99623000D01*
X112938815Y-99364970D01*
X112798115Y-98873000D01*
X118815000Y-98873000D01*
X118815000Y-99623000D01*
X120573000Y-99623000D01*
X120573000Y-97278428D01*
X120827000Y-97278428D01*
X120827000Y-99623000D01*
X122585000Y-99623000D01*
X122585000Y-98873000D01*
X126915000Y-98873000D01*
X126915000Y-99623000D01*
X128673000Y-99623000D01*
X128673000Y-97278428D01*
X128927000Y-97278428D01*
X128927000Y-99623000D01*
X130685000Y-99623000D01*
X130685000Y-99364970D01*
X136561185Y-99364970D01*
X136718988Y-99623000D01*
X138073000Y-99623000D01*
X138073000Y-98029223D01*
X137819566Y-97909876D01*
X137697604Y-97934258D01*
X137136663Y-98245702D01*
X136737606Y-98748101D01*
X136561185Y-99364970D01*
X130685000Y-99364970D01*
X130685000Y-98873000D01*
X130492912Y-98161309D01*
X130043094Y-97577301D01*
X129404026Y-97209886D01*
X129219645Y-97162305D01*
X128927000Y-97278428D01*
X128673000Y-97278428D01*
X128380355Y-97162305D01*
X128195974Y-97209886D01*
X127556906Y-97577301D01*
X127107088Y-98161309D01*
X126915000Y-98873000D01*
X122585000Y-98873000D01*
X122392912Y-98161309D01*
X121943094Y-97577301D01*
X121304026Y-97209886D01*
X121119645Y-97162305D01*
X120827000Y-97278428D01*
X120573000Y-97278428D01*
X120280355Y-97162305D01*
X120095974Y-97209886D01*
X119456906Y-97577301D01*
X119007088Y-98161309D01*
X118815000Y-98873000D01*
X112798115Y-98873000D01*
X112762394Y-98748101D01*
X112363337Y-98245702D01*
X111802396Y-97934258D01*
X111680434Y-97909876D01*
X111427000Y-98029223D01*
X111173000Y-98029223D01*
X110919566Y-97909876D01*
X110797604Y-97934258D01*
X110236663Y-98245702D01*
X109837606Y-98748101D01*
X109661185Y-99364970D01*
X104838815Y-99364970D01*
X104662394Y-98748101D01*
X104263337Y-98245702D01*
X103702396Y-97934258D01*
X103580434Y-97909876D01*
X103327000Y-98029223D01*
X103073000Y-98029223D01*
X102819566Y-97909876D01*
X102697604Y-97934258D01*
X102136663Y-98245702D01*
X101737606Y-98748101D01*
X101561185Y-99364970D01*
X95685000Y-99364970D01*
X95685000Y-98873000D01*
X95492912Y-98161309D01*
X95043094Y-97577301D01*
X94404026Y-97209886D01*
X94219645Y-97162305D01*
X93927000Y-97278428D01*
X93673000Y-97278428D01*
X93380355Y-97162305D01*
X93195974Y-97209886D01*
X92556906Y-97577301D01*
X92431000Y-97740767D01*
X92431000Y-96864571D01*
X108018856Y-96864571D01*
X108145102Y-97170109D01*
X108378662Y-97404077D01*
X108683979Y-97530855D01*
X109014571Y-97531144D01*
X109320109Y-97404898D01*
X109554077Y-97171338D01*
X109680855Y-96866021D01*
X109681144Y-96535429D01*
X109645846Y-96450000D01*
X113827251Y-96450000D01*
X113913343Y-96882815D01*
X114158513Y-97249738D01*
X114525436Y-97494908D01*
X114958251Y-97581000D01*
X117041749Y-97581000D01*
X117474564Y-97494908D01*
X117841487Y-97249738D01*
X118086657Y-96882815D01*
X118172749Y-96450000D01*
X118086657Y-96017185D01*
X117841487Y-95650262D01*
X117474564Y-95405092D01*
X117041749Y-95319000D01*
X114958251Y-95319000D01*
X114525436Y-95405092D01*
X114158513Y-95650262D01*
X113913343Y-96017185D01*
X113827251Y-96450000D01*
X109645846Y-96450000D01*
X109554898Y-96229891D01*
X109321338Y-95995923D01*
X109016021Y-95869145D01*
X108685429Y-95868856D01*
X108379891Y-95995102D01*
X108145923Y-96228662D01*
X108019145Y-96533979D01*
X108018856Y-96864571D01*
X92431000Y-96864571D01*
X92431000Y-94850000D01*
X96327251Y-94850000D01*
X96413343Y-95282815D01*
X96658513Y-95649738D01*
X97025436Y-95894908D01*
X97458251Y-95981000D01*
X99541749Y-95981000D01*
X99974564Y-95894908D01*
X100341487Y-95649738D01*
X100586657Y-95282815D01*
X100672749Y-94850000D01*
X131327251Y-94850000D01*
X131413343Y-95282815D01*
X131658513Y-95649738D01*
X132025436Y-95894908D01*
X132458251Y-95981000D01*
X134541749Y-95981000D01*
X134974564Y-95894908D01*
X135341487Y-95649738D01*
X135586657Y-95282815D01*
X135672749Y-94850000D01*
X135586657Y-94417185D01*
X135341487Y-94050262D01*
X134974564Y-93805092D01*
X134541749Y-93719000D01*
X133185980Y-93719000D01*
X133220109Y-93704898D01*
X133454077Y-93471338D01*
X133580855Y-93166021D01*
X133581144Y-92835429D01*
X133454898Y-92529891D01*
X133221338Y-92295923D01*
X132916021Y-92169145D01*
X132585429Y-92168856D01*
X132279891Y-92295102D01*
X132045923Y-92528662D01*
X131919145Y-92833979D01*
X131918856Y-93164571D01*
X132045102Y-93470109D01*
X132278662Y-93704077D01*
X132361127Y-93738319D01*
X132025436Y-93805092D01*
X131658513Y-94050262D01*
X131413343Y-94417185D01*
X131327251Y-94850000D01*
X100672749Y-94850000D01*
X100586657Y-94417185D01*
X100341487Y-94050262D01*
X99974564Y-93805092D01*
X99541749Y-93719000D01*
X97458251Y-93719000D01*
X97025436Y-93805092D01*
X96658513Y-94050262D01*
X96413343Y-94417185D01*
X96327251Y-94850000D01*
X92431000Y-94850000D01*
X92431000Y-92914571D01*
X99168856Y-92914571D01*
X99295102Y-93220109D01*
X99528662Y-93454077D01*
X99833979Y-93580855D01*
X100164571Y-93581144D01*
X100470109Y-93454898D01*
X100704077Y-93221338D01*
X100830855Y-92916021D01*
X100830856Y-92914571D01*
X103468856Y-92914571D01*
X103595102Y-93220109D01*
X103828662Y-93454077D01*
X104133979Y-93580855D01*
X104464571Y-93581144D01*
X104770109Y-93454898D01*
X105004077Y-93221338D01*
X105130855Y-92916021D01*
X105131144Y-92585429D01*
X105004898Y-92279891D01*
X104771338Y-92045923D01*
X104466021Y-91919145D01*
X104135429Y-91918856D01*
X103829891Y-92045102D01*
X103595923Y-92278662D01*
X103469145Y-92583979D01*
X103468856Y-92914571D01*
X100830856Y-92914571D01*
X100831144Y-92585429D01*
X100704898Y-92279891D01*
X100471338Y-92045923D01*
X100166021Y-91919145D01*
X99835429Y-91918856D01*
X99529891Y-92045102D01*
X99295923Y-92278662D01*
X99169145Y-92583979D01*
X99168856Y-92914571D01*
X92431000Y-92914571D01*
X92431000Y-91751208D01*
X108843824Y-91751208D01*
X108998175Y-92124766D01*
X109283731Y-92410821D01*
X109657018Y-92565824D01*
X110061208Y-92566176D01*
X110434766Y-92411825D01*
X110720821Y-92126269D01*
X110875824Y-91752982D01*
X110875825Y-91751208D01*
X111383824Y-91751208D01*
X111538175Y-92124766D01*
X111823731Y-92410821D01*
X112197018Y-92565824D01*
X112601208Y-92566176D01*
X112974766Y-92411825D01*
X113260821Y-92126269D01*
X113415824Y-91752982D01*
X113415825Y-91751208D01*
X113923824Y-91751208D01*
X114078175Y-92124766D01*
X114363731Y-92410821D01*
X114737018Y-92565824D01*
X115141208Y-92566176D01*
X115514766Y-92411825D01*
X115800821Y-92126269D01*
X115955824Y-91752982D01*
X115956176Y-91348792D01*
X115801825Y-90975234D01*
X115516269Y-90689179D01*
X115142982Y-90534176D01*
X114738792Y-90533824D01*
X114365234Y-90688175D01*
X114079179Y-90973731D01*
X113924176Y-91347018D01*
X113923824Y-91751208D01*
X113415825Y-91751208D01*
X113416176Y-91348792D01*
X113261825Y-90975234D01*
X112976269Y-90689179D01*
X112602982Y-90534176D01*
X112198792Y-90533824D01*
X111825234Y-90688175D01*
X111539179Y-90973731D01*
X111384176Y-91347018D01*
X111383824Y-91751208D01*
X110875825Y-91751208D01*
X110876176Y-91348792D01*
X110721825Y-90975234D01*
X110436269Y-90689179D01*
X110062982Y-90534176D01*
X109658792Y-90533824D01*
X109285234Y-90688175D01*
X108999179Y-90973731D01*
X108844176Y-91347018D01*
X108843824Y-91751208D01*
X92431000Y-91751208D01*
X92431000Y-90264571D01*
X106668852Y-90264571D01*
X106795098Y-90570109D01*
X107028658Y-90804077D01*
X107333975Y-90930855D01*
X107664567Y-90931144D01*
X107970105Y-90804898D01*
X108204073Y-90571338D01*
X108330851Y-90266021D01*
X108331140Y-89935429D01*
X108235792Y-89704669D01*
X111818864Y-89704669D01*
X111937514Y-89991823D01*
X112157021Y-90211714D01*
X112443968Y-90330864D01*
X112754669Y-90331136D01*
X113041823Y-90212486D01*
X113261714Y-89992979D01*
X113380864Y-89706032D01*
X113381136Y-89395331D01*
X113262486Y-89108177D01*
X113042979Y-88888286D01*
X112859406Y-88812060D01*
X125117545Y-88812060D01*
X125200884Y-89065953D01*
X125765306Y-89271590D01*
X126365458Y-89245579D01*
X126799116Y-89065953D01*
X126882455Y-88812060D01*
X126000000Y-87929605D01*
X125117545Y-88812060D01*
X112859406Y-88812060D01*
X112756032Y-88769136D01*
X112445331Y-88768864D01*
X112158177Y-88887514D01*
X111938286Y-89107021D01*
X111819136Y-89393968D01*
X111818864Y-89704669D01*
X108235792Y-89704669D01*
X108204894Y-89629891D01*
X107971334Y-89395923D01*
X107666017Y-89269145D01*
X107335425Y-89268856D01*
X107029887Y-89395102D01*
X106795919Y-89628662D01*
X106669141Y-89933979D01*
X106668852Y-90264571D01*
X92431000Y-90264571D01*
X92431000Y-88812060D01*
X100117545Y-88812060D01*
X100200884Y-89065953D01*
X100765306Y-89271590D01*
X101365458Y-89245579D01*
X101799116Y-89065953D01*
X101882455Y-88812060D01*
X101000000Y-87929605D01*
X100117545Y-88812060D01*
X92431000Y-88812060D01*
X92431000Y-87515306D01*
X99478410Y-87515306D01*
X99504421Y-88115458D01*
X99684047Y-88549116D01*
X99937940Y-88632455D01*
X100820395Y-87750000D01*
X101179605Y-87750000D01*
X102062060Y-88632455D01*
X102315953Y-88549116D01*
X102388696Y-88349454D01*
X102434595Y-88460537D01*
X102787604Y-88814164D01*
X103249070Y-89005781D01*
X103748738Y-89006217D01*
X104210537Y-88815405D01*
X104564164Y-88462396D01*
X104750221Y-88014320D01*
X104934595Y-88460537D01*
X105287604Y-88814164D01*
X105749070Y-89005781D01*
X106248738Y-89006217D01*
X106470537Y-88914571D01*
X109118856Y-88914571D01*
X109245102Y-89220109D01*
X109478662Y-89454077D01*
X109783979Y-89580855D01*
X110114571Y-89581144D01*
X110420109Y-89454898D01*
X110654077Y-89221338D01*
X110780855Y-88916021D01*
X110781144Y-88585429D01*
X110654898Y-88279891D01*
X110421338Y-88045923D01*
X110116021Y-87919145D01*
X109785429Y-87918856D01*
X109479891Y-88045102D01*
X109245923Y-88278662D01*
X109119145Y-88583979D01*
X109118856Y-88914571D01*
X106470537Y-88914571D01*
X106710537Y-88815405D01*
X107064164Y-88462396D01*
X107255781Y-88000930D01*
X107255856Y-87914571D01*
X117368860Y-87914571D01*
X117495106Y-88220109D01*
X117728666Y-88454077D01*
X118033983Y-88580855D01*
X118364575Y-88581144D01*
X118670113Y-88454898D01*
X118904081Y-88221338D01*
X119030859Y-87916021D01*
X119031148Y-87585429D01*
X119002174Y-87515306D01*
X124478410Y-87515306D01*
X124504421Y-88115458D01*
X124684047Y-88549116D01*
X124937940Y-88632455D01*
X125820395Y-87750000D01*
X126179605Y-87750000D01*
X127062060Y-88632455D01*
X127315953Y-88549116D01*
X127388696Y-88349454D01*
X127434595Y-88460537D01*
X127787604Y-88814164D01*
X128249070Y-89005781D01*
X128748738Y-89006217D01*
X129210537Y-88815405D01*
X129564164Y-88462396D01*
X129750221Y-88014320D01*
X129934595Y-88460537D01*
X130287604Y-88814164D01*
X130749070Y-89005781D01*
X131248738Y-89006217D01*
X131710537Y-88815405D01*
X132064164Y-88462396D01*
X132255781Y-88000930D01*
X132256217Y-87501262D01*
X132065405Y-87039463D01*
X131712396Y-86685836D01*
X131250930Y-86494219D01*
X130751262Y-86493783D01*
X130289463Y-86684595D01*
X129935836Y-87037604D01*
X129749779Y-87485680D01*
X129565405Y-87039463D01*
X129212396Y-86685836D01*
X128750930Y-86494219D01*
X128251262Y-86493783D01*
X127789463Y-86684595D01*
X127435836Y-87037604D01*
X127393803Y-87138831D01*
X127315953Y-86950884D01*
X127062060Y-86867545D01*
X126179605Y-87750000D01*
X125820395Y-87750000D01*
X124937940Y-86867545D01*
X124684047Y-86950884D01*
X124478410Y-87515306D01*
X119002174Y-87515306D01*
X118904902Y-87279891D01*
X118671342Y-87045923D01*
X118366025Y-86919145D01*
X118035433Y-86918856D01*
X117729895Y-87045102D01*
X117495927Y-87278662D01*
X117369149Y-87583979D01*
X117368860Y-87914571D01*
X107255856Y-87914571D01*
X107256217Y-87501262D01*
X107065405Y-87039463D01*
X106714497Y-86687940D01*
X125117545Y-86687940D01*
X126000000Y-87570395D01*
X126882455Y-86687940D01*
X126799116Y-86434047D01*
X126234694Y-86228410D01*
X125634542Y-86254421D01*
X125200884Y-86434047D01*
X125117545Y-86687940D01*
X106714497Y-86687940D01*
X106712396Y-86685836D01*
X106250930Y-86494219D01*
X105751262Y-86493783D01*
X105289463Y-86684595D01*
X104935836Y-87037604D01*
X104749779Y-87485680D01*
X104565405Y-87039463D01*
X104212396Y-86685836D01*
X103750930Y-86494219D01*
X103251262Y-86493783D01*
X102789463Y-86684595D01*
X102435836Y-87037604D01*
X102393803Y-87138831D01*
X102315953Y-86950884D01*
X102062060Y-86867545D01*
X101179605Y-87750000D01*
X100820395Y-87750000D01*
X99937940Y-86867545D01*
X99684047Y-86950884D01*
X99478410Y-87515306D01*
X92431000Y-87515306D01*
X92431000Y-86687940D01*
X100117545Y-86687940D01*
X101000000Y-87570395D01*
X101882455Y-86687940D01*
X101799116Y-86434047D01*
X101234694Y-86228410D01*
X100634542Y-86254421D01*
X100200884Y-86434047D01*
X100117545Y-86687940D01*
X92431000Y-86687940D01*
X92431000Y-85664571D01*
X93168856Y-85664571D01*
X93295102Y-85970109D01*
X93528662Y-86204077D01*
X93833979Y-86330855D01*
X94164571Y-86331144D01*
X94470109Y-86204898D01*
X94704077Y-85971338D01*
X94706886Y-85964571D01*
X114918856Y-85964571D01*
X115045102Y-86270109D01*
X115278662Y-86504077D01*
X115583979Y-86630855D01*
X115914571Y-86631144D01*
X116220109Y-86504898D01*
X116454077Y-86271338D01*
X116580855Y-85966021D01*
X116581144Y-85635429D01*
X116454898Y-85329891D01*
X116221338Y-85095923D01*
X115916021Y-84969145D01*
X115585429Y-84968856D01*
X115279891Y-85095102D01*
X115045923Y-85328662D01*
X114919145Y-85633979D01*
X114918856Y-85964571D01*
X94706886Y-85964571D01*
X94830855Y-85666021D01*
X94831144Y-85335429D01*
X94704898Y-85029891D01*
X94589780Y-84914571D01*
X97418856Y-84914571D01*
X97545102Y-85220109D01*
X97778662Y-85454077D01*
X98083979Y-85580855D01*
X98414571Y-85581144D01*
X98720109Y-85454898D01*
X98954077Y-85221338D01*
X99080855Y-84916021D01*
X99081144Y-84585429D01*
X98954898Y-84279891D01*
X98721338Y-84045923D01*
X98416021Y-83919145D01*
X98085429Y-83918856D01*
X97779891Y-84045102D01*
X97545923Y-84278662D01*
X97419145Y-84583979D01*
X97418856Y-84914571D01*
X94589780Y-84914571D01*
X94471338Y-84795923D01*
X94166021Y-84669145D01*
X93835429Y-84668856D01*
X93529891Y-84795102D01*
X93295923Y-85028662D01*
X93169145Y-85333979D01*
X93168856Y-85664571D01*
X92431000Y-85664571D01*
X92431000Y-79858251D01*
X96919000Y-79858251D01*
X96919000Y-80641749D01*
X97054571Y-81323308D01*
X97440643Y-81901106D01*
X98018441Y-82287178D01*
X98700000Y-82422749D01*
X99381559Y-82287178D01*
X99959357Y-81901106D01*
X100345429Y-81323308D01*
X100481000Y-80641749D01*
X100481000Y-79858251D01*
X106519000Y-79858251D01*
X106519000Y-80641749D01*
X106654571Y-81323308D01*
X107040643Y-81901106D01*
X107618441Y-82287178D01*
X108300000Y-82422749D01*
X108981559Y-82287178D01*
X109090223Y-82214571D01*
X118818856Y-82214571D01*
X118945102Y-82520109D01*
X119178662Y-82754077D01*
X119483979Y-82880855D01*
X119814571Y-82881144D01*
X120120109Y-82754898D01*
X120354077Y-82521338D01*
X120480855Y-82216021D01*
X120481144Y-81885429D01*
X120354898Y-81579891D01*
X120121338Y-81345923D01*
X119816021Y-81219145D01*
X119485429Y-81218856D01*
X119179891Y-81345102D01*
X118945923Y-81578662D01*
X118819145Y-81883979D01*
X118818856Y-82214571D01*
X109090223Y-82214571D01*
X109559357Y-81901106D01*
X109945429Y-81323308D01*
X110081000Y-80641749D01*
X110081000Y-79858251D01*
X121919000Y-79858251D01*
X121919000Y-80641749D01*
X122054571Y-81323308D01*
X122440643Y-81901106D01*
X123018441Y-82287178D01*
X123700000Y-82422749D01*
X124381559Y-82287178D01*
X124959357Y-81901106D01*
X125345429Y-81323308D01*
X125481000Y-80641749D01*
X125481000Y-79858251D01*
X131519000Y-79858251D01*
X131519000Y-80641749D01*
X131654571Y-81323308D01*
X132040643Y-81901106D01*
X132618441Y-82287178D01*
X133300000Y-82422749D01*
X133981559Y-82287178D01*
X134559357Y-81901106D01*
X134945429Y-81323308D01*
X135081000Y-80641749D01*
X135081000Y-79858251D01*
X134945429Y-79176692D01*
X134603241Y-78664571D01*
X135668856Y-78664571D01*
X135795102Y-78970109D01*
X135824788Y-78999847D01*
X135795923Y-79028662D01*
X135669145Y-79333979D01*
X135668856Y-79664571D01*
X135795102Y-79970109D01*
X135824788Y-79999847D01*
X135795923Y-80028662D01*
X135669145Y-80333979D01*
X135668856Y-80664571D01*
X135795102Y-80970109D01*
X135824788Y-80999847D01*
X135795923Y-81028662D01*
X135669145Y-81333979D01*
X135668856Y-81664571D01*
X135795102Y-81970109D01*
X135824788Y-81999847D01*
X135795923Y-82028662D01*
X135669145Y-82333979D01*
X135668856Y-82664571D01*
X135795102Y-82970109D01*
X136028662Y-83204077D01*
X136333979Y-83330855D01*
X136664571Y-83331144D01*
X136970109Y-83204898D01*
X137204077Y-82971338D01*
X137330855Y-82666021D01*
X137331144Y-82335429D01*
X137204898Y-82029891D01*
X137175212Y-82000153D01*
X137204077Y-81971338D01*
X137330855Y-81666021D01*
X137331144Y-81335429D01*
X137204898Y-81029891D01*
X137175212Y-81000153D01*
X137204077Y-80971338D01*
X137330855Y-80666021D01*
X137331144Y-80335429D01*
X137204898Y-80029891D01*
X137175212Y-80000153D01*
X137204077Y-79971338D01*
X137330855Y-79666021D01*
X137331144Y-79335429D01*
X137204898Y-79029891D01*
X137175212Y-79000153D01*
X137204077Y-78971338D01*
X137330855Y-78666021D01*
X137331144Y-78335429D01*
X137204898Y-78029891D01*
X136971338Y-77795923D01*
X136666021Y-77669145D01*
X136335429Y-77668856D01*
X136029891Y-77795102D01*
X135795923Y-78028662D01*
X135669145Y-78333979D01*
X135668856Y-78664571D01*
X134603241Y-78664571D01*
X134559357Y-78598894D01*
X133981559Y-78212822D01*
X133300000Y-78077251D01*
X132618441Y-78212822D01*
X132040643Y-78598894D01*
X131654571Y-79176692D01*
X131519000Y-79858251D01*
X125481000Y-79858251D01*
X125345429Y-79176692D01*
X124959357Y-78598894D01*
X124381559Y-78212822D01*
X123700000Y-78077251D01*
X123018441Y-78212822D01*
X122440643Y-78598894D01*
X122054571Y-79176692D01*
X121919000Y-79858251D01*
X110081000Y-79858251D01*
X109945429Y-79176692D01*
X109559357Y-78598894D01*
X108981559Y-78212822D01*
X108300000Y-78077251D01*
X107618441Y-78212822D01*
X107040643Y-78598894D01*
X106654571Y-79176692D01*
X106519000Y-79858251D01*
X100481000Y-79858251D01*
X100345429Y-79176692D01*
X99959357Y-78598894D01*
X99381559Y-78212822D01*
X98700000Y-78077251D01*
X98018441Y-78212822D01*
X97440643Y-78598894D01*
X97054571Y-79176692D01*
X96919000Y-79858251D01*
X92431000Y-79858251D01*
X92431000Y-77503689D01*
X104968778Y-77503689D01*
X105163388Y-77974680D01*
X105523425Y-78335345D01*
X105994076Y-78530777D01*
X106503689Y-78531222D01*
X106974680Y-78336612D01*
X107335345Y-77976575D01*
X107530777Y-77505924D01*
X107531222Y-76996311D01*
X107336612Y-76525320D01*
X106976575Y-76164655D01*
X106505924Y-75969223D01*
X105996311Y-75968778D01*
X105525320Y-76163388D01*
X105164655Y-76523425D01*
X104969223Y-76994076D01*
X104968778Y-77503689D01*
X92431000Y-77503689D01*
X92431000Y-72904669D01*
X109968864Y-72904669D01*
X110087514Y-73191823D01*
X110307021Y-73411714D01*
X110593968Y-73530864D01*
X110904669Y-73531136D01*
X111191823Y-73412486D01*
X111411714Y-73192979D01*
X111527318Y-72914571D01*
X113568856Y-72914571D01*
X113695102Y-73220109D01*
X113928662Y-73454077D01*
X114233979Y-73580855D01*
X114564571Y-73581144D01*
X114870109Y-73454898D01*
X115104077Y-73221338D01*
X115230855Y-72916021D01*
X115231144Y-72585429D01*
X115104898Y-72279891D01*
X114871338Y-72045923D01*
X114566021Y-71919145D01*
X114235429Y-71918856D01*
X113929891Y-72045102D01*
X113695923Y-72278662D01*
X113569145Y-72583979D01*
X113568856Y-72914571D01*
X111527318Y-72914571D01*
X111530864Y-72906032D01*
X111531136Y-72595331D01*
X111412486Y-72308177D01*
X111192979Y-72088286D01*
X110906032Y-71969136D01*
X110595331Y-71968864D01*
X110308177Y-72087514D01*
X110088286Y-72307021D01*
X109969136Y-72593968D01*
X109968864Y-72904669D01*
X92431000Y-72904669D01*
X92431000Y-71764551D01*
X122768856Y-71764551D01*
X122895102Y-72070089D01*
X123128662Y-72304057D01*
X123433979Y-72430835D01*
X123764571Y-72431124D01*
X124070109Y-72304878D01*
X124304077Y-72071318D01*
X124409724Y-71816890D01*
X133058524Y-71816890D01*
X133228355Y-72226924D01*
X133618642Y-72655183D01*
X133845105Y-72761536D01*
X133650000Y-72761536D01*
X133508810Y-72788103D01*
X133379135Y-72871546D01*
X133292141Y-72998866D01*
X133261536Y-73150000D01*
X133261536Y-74850000D01*
X133288103Y-74991190D01*
X133371546Y-75120865D01*
X133498866Y-75207859D01*
X133650000Y-75238464D01*
X135350000Y-75238464D01*
X135491190Y-75211897D01*
X135620865Y-75128454D01*
X135707859Y-75001134D01*
X135738464Y-74850000D01*
X135738464Y-73150000D01*
X135711897Y-73008810D01*
X135628454Y-72879135D01*
X135501134Y-72792141D01*
X135350000Y-72761536D01*
X135154895Y-72761536D01*
X135381358Y-72655183D01*
X135770000Y-72228729D01*
X136158642Y-72655183D01*
X136583947Y-72854917D01*
X136544800Y-72862704D01*
X136145435Y-73129552D01*
X135878587Y-73528917D01*
X135784883Y-74000000D01*
X135878587Y-74471083D01*
X136145435Y-74870448D01*
X136544800Y-75137296D01*
X137015883Y-75231000D01*
X137064117Y-75231000D01*
X137535200Y-75137296D01*
X137934565Y-74870448D01*
X138201413Y-74471083D01*
X138295117Y-74000000D01*
X138201413Y-73528917D01*
X137934565Y-73129552D01*
X137535200Y-72862704D01*
X137496053Y-72854917D01*
X137921358Y-72655183D01*
X138311645Y-72226924D01*
X138481476Y-71816890D01*
X138360155Y-71587000D01*
X137167000Y-71587000D01*
X137167000Y-71607000D01*
X136913000Y-71607000D01*
X136913000Y-71587000D01*
X134627000Y-71587000D01*
X134627000Y-71607000D01*
X134373000Y-71607000D01*
X134373000Y-71587000D01*
X133179845Y-71587000D01*
X133058524Y-71816890D01*
X124409724Y-71816890D01*
X124430855Y-71766001D01*
X124431144Y-71435409D01*
X124304898Y-71129871D01*
X124071338Y-70895903D01*
X123766021Y-70769125D01*
X123435429Y-70768836D01*
X123129891Y-70895082D01*
X122895923Y-71128642D01*
X122769145Y-71433959D01*
X122768856Y-71764551D01*
X92431000Y-71764551D01*
X92431000Y-69400000D01*
X92981536Y-69400000D01*
X92981536Y-71100000D01*
X93008103Y-71241190D01*
X93091546Y-71370865D01*
X93218866Y-71457859D01*
X93370000Y-71488464D01*
X95070000Y-71488464D01*
X95211190Y-71461897D01*
X95340865Y-71378454D01*
X95427859Y-71251134D01*
X95458464Y-71100000D01*
X95458464Y-70225883D01*
X95529000Y-70225883D01*
X95529000Y-70274117D01*
X95622704Y-70745200D01*
X95889552Y-71144565D01*
X96288917Y-71411413D01*
X96760000Y-71505117D01*
X97231083Y-71411413D01*
X97630448Y-71144565D01*
X97897296Y-70745200D01*
X97991000Y-70274117D01*
X97991000Y-70225883D01*
X98069000Y-70225883D01*
X98069000Y-70274117D01*
X98162704Y-70745200D01*
X98429552Y-71144565D01*
X98828917Y-71411413D01*
X99300000Y-71505117D01*
X99771083Y-71411413D01*
X100170448Y-71144565D01*
X100437296Y-70745200D01*
X100531000Y-70274117D01*
X100531000Y-70225883D01*
X100609000Y-70225883D01*
X100609000Y-70274117D01*
X100702704Y-70745200D01*
X100969552Y-71144565D01*
X101368917Y-71411413D01*
X101840000Y-71505117D01*
X102311083Y-71411413D01*
X102710448Y-71144565D01*
X102977296Y-70745200D01*
X103071000Y-70274117D01*
X103071000Y-70225883D01*
X102977296Y-69754800D01*
X102710448Y-69355435D01*
X102311083Y-69088587D01*
X101840000Y-68994883D01*
X101368917Y-69088587D01*
X100969552Y-69355435D01*
X100702704Y-69754800D01*
X100609000Y-70225883D01*
X100531000Y-70225883D01*
X100437296Y-69754800D01*
X100170448Y-69355435D01*
X99771083Y-69088587D01*
X99300000Y-68994883D01*
X98828917Y-69088587D01*
X98429552Y-69355435D01*
X98162704Y-69754800D01*
X98069000Y-70225883D01*
X97991000Y-70225883D01*
X97897296Y-69754800D01*
X97630448Y-69355435D01*
X97231083Y-69088587D01*
X96760000Y-68994883D01*
X96288917Y-69088587D01*
X95889552Y-69355435D01*
X95622704Y-69754800D01*
X95529000Y-70225883D01*
X95458464Y-70225883D01*
X95458464Y-69400000D01*
X95431897Y-69258810D01*
X95348454Y-69129135D01*
X95221134Y-69042141D01*
X95070000Y-69011536D01*
X93370000Y-69011536D01*
X93228810Y-69038103D01*
X93099135Y-69121546D01*
X93012141Y-69248866D01*
X92981536Y-69400000D01*
X92431000Y-69400000D01*
X92431000Y-68931000D01*
X106267408Y-68931000D01*
X106153076Y-68978355D01*
X105724817Y-69368642D01*
X105525083Y-69793947D01*
X105517296Y-69754800D01*
X105250448Y-69355435D01*
X104851083Y-69088587D01*
X104380000Y-68994883D01*
X103908917Y-69088587D01*
X103509552Y-69355435D01*
X103242704Y-69754800D01*
X103149000Y-70225883D01*
X103149000Y-70274117D01*
X103242704Y-70745200D01*
X103509552Y-71144565D01*
X103908917Y-71411413D01*
X104380000Y-71505117D01*
X104851083Y-71411413D01*
X105250448Y-71144565D01*
X105517296Y-70745200D01*
X105525083Y-70706053D01*
X105724817Y-71131358D01*
X106153076Y-71521645D01*
X106563110Y-71691476D01*
X106793000Y-71570155D01*
X106793000Y-70377000D01*
X107047000Y-70377000D01*
X107047000Y-71570155D01*
X107276890Y-71691476D01*
X107686924Y-71521645D01*
X108115183Y-71131358D01*
X108190000Y-70972046D01*
X108264817Y-71131358D01*
X108693076Y-71521645D01*
X109103110Y-71691476D01*
X109333000Y-71570155D01*
X109333000Y-70377000D01*
X107047000Y-70377000D01*
X106793000Y-70377000D01*
X106773000Y-70377000D01*
X106773000Y-70123000D01*
X106793000Y-70123000D01*
X106793000Y-70103000D01*
X107047000Y-70103000D01*
X107047000Y-70123000D01*
X109333000Y-70123000D01*
X109333000Y-70103000D01*
X109587000Y-70103000D01*
X109587000Y-70123000D01*
X109607000Y-70123000D01*
X109607000Y-70377000D01*
X109587000Y-70377000D01*
X109587000Y-71570155D01*
X109816890Y-71691476D01*
X110226924Y-71521645D01*
X110655183Y-71131358D01*
X110854917Y-70706053D01*
X110862704Y-70745200D01*
X111129552Y-71144565D01*
X111528917Y-71411413D01*
X112000000Y-71505117D01*
X112471083Y-71411413D01*
X112870448Y-71144565D01*
X113137296Y-70745200D01*
X113231000Y-70274117D01*
X113231000Y-70225883D01*
X113137296Y-69754800D01*
X112994578Y-69541208D01*
X126283824Y-69541208D01*
X126438175Y-69914766D01*
X126723731Y-70200821D01*
X127097018Y-70355824D01*
X127501208Y-70356176D01*
X127874766Y-70201825D01*
X128160821Y-69916269D01*
X128315824Y-69542982D01*
X128316055Y-69276890D01*
X133058524Y-69276890D01*
X133228355Y-69686924D01*
X133618642Y-70115183D01*
X133777954Y-70190000D01*
X133618642Y-70264817D01*
X133228355Y-70693076D01*
X133058524Y-71103110D01*
X133179845Y-71333000D01*
X134373000Y-71333000D01*
X134373000Y-69047000D01*
X134627000Y-69047000D01*
X134627000Y-71333000D01*
X136913000Y-71333000D01*
X136913000Y-69047000D01*
X137167000Y-69047000D01*
X137167000Y-71333000D01*
X138360155Y-71333000D01*
X138481476Y-71103110D01*
X138311645Y-70693076D01*
X137921358Y-70264817D01*
X137762046Y-70190000D01*
X137921358Y-70115183D01*
X138311645Y-69686924D01*
X138481476Y-69276890D01*
X138360155Y-69047000D01*
X137167000Y-69047000D01*
X136913000Y-69047000D01*
X134627000Y-69047000D01*
X134373000Y-69047000D01*
X133179845Y-69047000D01*
X133058524Y-69276890D01*
X128316055Y-69276890D01*
X128316176Y-69138792D01*
X128161825Y-68765234D01*
X127876269Y-68479179D01*
X127502982Y-68324176D01*
X127098792Y-68323824D01*
X126725234Y-68478175D01*
X126439179Y-68763731D01*
X126284176Y-69137018D01*
X126283824Y-69541208D01*
X112994578Y-69541208D01*
X112870448Y-69355435D01*
X112471083Y-69088587D01*
X112000000Y-68994883D01*
X111528917Y-69088587D01*
X111129552Y-69355435D01*
X110862704Y-69754800D01*
X110854917Y-69793947D01*
X110655183Y-69368642D01*
X110226924Y-68978355D01*
X110112592Y-68931000D01*
X118000000Y-68931000D01*
X118164937Y-68898192D01*
X118304763Y-68804763D01*
X118398192Y-68664937D01*
X118431000Y-68500000D01*
X118431000Y-67535750D01*
X118465000Y-67535750D01*
X118465000Y-68176310D01*
X118561673Y-68409699D01*
X118740302Y-68588327D01*
X118973691Y-68685000D01*
X120214250Y-68685000D01*
X120373000Y-68526250D01*
X120373000Y-67377000D01*
X120627000Y-67377000D01*
X120627000Y-68526250D01*
X120785750Y-68685000D01*
X122026309Y-68685000D01*
X122259698Y-68588327D01*
X122438327Y-68409699D01*
X122535000Y-68176310D01*
X122535000Y-67535750D01*
X122376250Y-67377000D01*
X120627000Y-67377000D01*
X120373000Y-67377000D01*
X118623750Y-67377000D01*
X118465000Y-67535750D01*
X118431000Y-67535750D01*
X118431000Y-66323690D01*
X118465000Y-66323690D01*
X118465000Y-66964250D01*
X118623750Y-67123000D01*
X120373000Y-67123000D01*
X120373000Y-65973750D01*
X120627000Y-65973750D01*
X120627000Y-67123000D01*
X122376250Y-67123000D01*
X122498042Y-67001208D01*
X126283824Y-67001208D01*
X126438175Y-67374766D01*
X126723731Y-67660821D01*
X127097018Y-67815824D01*
X127501208Y-67816176D01*
X127874766Y-67661825D01*
X128160821Y-67376269D01*
X128315824Y-67002982D01*
X128316055Y-66736890D01*
X133058524Y-66736890D01*
X133228355Y-67146924D01*
X133618642Y-67575183D01*
X133777954Y-67650000D01*
X133618642Y-67724817D01*
X133228355Y-68153076D01*
X133058524Y-68563110D01*
X133179845Y-68793000D01*
X134373000Y-68793000D01*
X134373000Y-66507000D01*
X134627000Y-66507000D01*
X134627000Y-68793000D01*
X136913000Y-68793000D01*
X136913000Y-66507000D01*
X137167000Y-66507000D01*
X137167000Y-68793000D01*
X138360155Y-68793000D01*
X138481476Y-68563110D01*
X138311645Y-68153076D01*
X137921358Y-67724817D01*
X137762046Y-67650000D01*
X137921358Y-67575183D01*
X138311645Y-67146924D01*
X138481476Y-66736890D01*
X138360155Y-66507000D01*
X137167000Y-66507000D01*
X136913000Y-66507000D01*
X134627000Y-66507000D01*
X134373000Y-66507000D01*
X133179845Y-66507000D01*
X133058524Y-66736890D01*
X128316055Y-66736890D01*
X128316176Y-66598792D01*
X128161825Y-66225234D01*
X127960054Y-66023110D01*
X133058524Y-66023110D01*
X133179845Y-66253000D01*
X134373000Y-66253000D01*
X134373000Y-66233000D01*
X134627000Y-66233000D01*
X134627000Y-66253000D01*
X136913000Y-66253000D01*
X136913000Y-66233000D01*
X137167000Y-66233000D01*
X137167000Y-66253000D01*
X138360155Y-66253000D01*
X138481476Y-66023110D01*
X138311645Y-65613076D01*
X137921358Y-65184817D01*
X137496053Y-64985083D01*
X137535200Y-64977296D01*
X137934565Y-64710448D01*
X138201413Y-64311083D01*
X138295117Y-63840000D01*
X138201413Y-63368917D01*
X137934565Y-62969552D01*
X137535200Y-62702704D01*
X137064117Y-62609000D01*
X137015883Y-62609000D01*
X136544800Y-62702704D01*
X136145435Y-62969552D01*
X135878587Y-63368917D01*
X135784883Y-63840000D01*
X135878587Y-64311083D01*
X136145435Y-64710448D01*
X136544800Y-64977296D01*
X136583947Y-64985083D01*
X136158642Y-65184817D01*
X135770000Y-65611271D01*
X135381358Y-65184817D01*
X134956053Y-64985083D01*
X134995200Y-64977296D01*
X135394565Y-64710448D01*
X135661413Y-64311083D01*
X135755117Y-63840000D01*
X135661413Y-63368917D01*
X135394565Y-62969552D01*
X134995200Y-62702704D01*
X134524117Y-62609000D01*
X134475883Y-62609000D01*
X134004800Y-62702704D01*
X133605435Y-62969552D01*
X133338587Y-63368917D01*
X133244883Y-63840000D01*
X133338587Y-64311083D01*
X133605435Y-64710448D01*
X134004800Y-64977296D01*
X134043947Y-64985083D01*
X133618642Y-65184817D01*
X133228355Y-65613076D01*
X133058524Y-66023110D01*
X127960054Y-66023110D01*
X127876269Y-65939179D01*
X127502982Y-65784176D01*
X127098792Y-65783824D01*
X126725234Y-65938175D01*
X126439179Y-66223731D01*
X126284176Y-66597018D01*
X126283824Y-67001208D01*
X122498042Y-67001208D01*
X122535000Y-66964250D01*
X122535000Y-66323690D01*
X122438327Y-66090301D01*
X122259698Y-65911673D01*
X122026309Y-65815000D01*
X120785750Y-65815000D01*
X120627000Y-65973750D01*
X120373000Y-65973750D01*
X120214250Y-65815000D01*
X118973691Y-65815000D01*
X118740302Y-65911673D01*
X118561673Y-66090301D01*
X118465000Y-66323690D01*
X118431000Y-66323690D01*
X118431000Y-64461208D01*
X126283824Y-64461208D01*
X126438175Y-64834766D01*
X126723731Y-65120821D01*
X127097018Y-65275824D01*
X127501208Y-65276176D01*
X127874766Y-65121825D01*
X128160821Y-64836269D01*
X128315824Y-64462982D01*
X128316176Y-64058792D01*
X128161825Y-63685234D01*
X127876269Y-63399179D01*
X127502982Y-63244176D01*
X127098792Y-63243824D01*
X126725234Y-63398175D01*
X126439179Y-63683731D01*
X126284176Y-64057018D01*
X126283824Y-64461208D01*
X118431000Y-64461208D01*
X118431000Y-58998738D01*
X124743783Y-58998738D01*
X124934595Y-59460537D01*
X125287604Y-59814164D01*
X125749070Y-60005781D01*
X126248738Y-60006217D01*
X126710537Y-59815405D01*
X127064164Y-59462396D01*
X127250221Y-59014320D01*
X127434595Y-59460537D01*
X127787604Y-59814164D01*
X128249070Y-60005781D01*
X128748738Y-60006217D01*
X129210537Y-59815405D01*
X129564164Y-59462396D01*
X129750221Y-59014320D01*
X129934595Y-59460537D01*
X130287604Y-59814164D01*
X130749070Y-60005781D01*
X131248738Y-60006217D01*
X131710537Y-59815405D01*
X132064164Y-59462396D01*
X132255781Y-59000930D01*
X132256217Y-58501262D01*
X132065405Y-58039463D01*
X131712396Y-57685836D01*
X131250930Y-57494219D01*
X130751262Y-57493783D01*
X130289463Y-57684595D01*
X129935836Y-58037604D01*
X129749779Y-58485680D01*
X129565405Y-58039463D01*
X129212396Y-57685836D01*
X128750930Y-57494219D01*
X128251262Y-57493783D01*
X127789463Y-57684595D01*
X127435836Y-58037604D01*
X127249779Y-58485680D01*
X127065405Y-58039463D01*
X126712396Y-57685836D01*
X126250930Y-57494219D01*
X125751262Y-57493783D01*
X125289463Y-57684595D01*
X124935836Y-58037604D01*
X124744219Y-58499070D01*
X124743783Y-58998738D01*
X118431000Y-58998738D01*
X118431000Y-50858251D01*
X121919000Y-50858251D01*
X121919000Y-51641749D01*
X122054571Y-52323308D01*
X122440643Y-52901106D01*
X123018441Y-53287178D01*
X123700000Y-53422749D01*
X124381559Y-53287178D01*
X124959357Y-52901106D01*
X125345429Y-52323308D01*
X125481000Y-51641749D01*
X125481000Y-50858251D01*
X125345429Y-50176692D01*
X124959357Y-49598894D01*
X124381559Y-49212822D01*
X123700000Y-49077251D01*
X123018441Y-49212822D01*
X122440643Y-49598894D01*
X122054571Y-50176692D01*
X121919000Y-50858251D01*
X118431000Y-50858251D01*
X118431000Y-47816051D01*
X128618856Y-47816051D01*
X128745102Y-48121589D01*
X128824048Y-48200673D01*
X128745923Y-48278662D01*
X128619145Y-48583979D01*
X128618856Y-48914571D01*
X128745102Y-49220109D01*
X128899788Y-49375065D01*
X128745923Y-49528662D01*
X128619145Y-49833979D01*
X128618856Y-50164571D01*
X128745102Y-50470109D01*
X128899788Y-50625065D01*
X128745923Y-50778662D01*
X128619145Y-51083979D01*
X128618856Y-51414571D01*
X128745102Y-51720109D01*
X128899788Y-51875065D01*
X128745923Y-52028662D01*
X128619145Y-52333979D01*
X128618856Y-52664571D01*
X128745102Y-52970109D01*
X128899788Y-53125065D01*
X128745923Y-53278662D01*
X128619145Y-53583979D01*
X128618856Y-53914571D01*
X128745102Y-54220109D01*
X128924788Y-54400109D01*
X128745923Y-54578662D01*
X128619145Y-54883979D01*
X128618856Y-55214571D01*
X128745102Y-55520109D01*
X128978662Y-55754077D01*
X129283979Y-55880855D01*
X129614571Y-55881144D01*
X129920109Y-55754898D01*
X130154077Y-55521338D01*
X130280855Y-55216021D01*
X130281144Y-54885429D01*
X130154898Y-54579891D01*
X129975212Y-54399891D01*
X130154077Y-54221338D01*
X130280855Y-53916021D01*
X130281144Y-53585429D01*
X130154898Y-53279891D01*
X130000212Y-53124935D01*
X130154077Y-52971338D01*
X130280855Y-52666021D01*
X130281144Y-52335429D01*
X130154898Y-52029891D01*
X130000212Y-51874935D01*
X130154077Y-51721338D01*
X130280855Y-51416021D01*
X130281144Y-51085429D01*
X130187276Y-50858251D01*
X131519000Y-50858251D01*
X131519000Y-51641749D01*
X131654571Y-52323308D01*
X132040643Y-52901106D01*
X132618441Y-53287178D01*
X133300000Y-53422749D01*
X133981559Y-53287178D01*
X134559357Y-52901106D01*
X134945429Y-52323308D01*
X135081000Y-51641749D01*
X135081000Y-50858251D01*
X134945429Y-50176692D01*
X134559357Y-49598894D01*
X133981559Y-49212822D01*
X133300000Y-49077251D01*
X132618441Y-49212822D01*
X132040643Y-49598894D01*
X131654571Y-50176692D01*
X131519000Y-50858251D01*
X130187276Y-50858251D01*
X130154898Y-50779891D01*
X130000212Y-50624935D01*
X130154077Y-50471338D01*
X130280855Y-50166021D01*
X130281144Y-49835429D01*
X130154898Y-49529891D01*
X130000212Y-49374935D01*
X130154077Y-49221338D01*
X130280855Y-48916021D01*
X130281144Y-48585429D01*
X130154898Y-48279891D01*
X130075952Y-48200807D01*
X130154077Y-48122818D01*
X130280855Y-47817501D01*
X130281144Y-47486909D01*
X130154898Y-47181371D01*
X129921338Y-46947403D01*
X129616021Y-46820625D01*
X129285429Y-46820336D01*
X128979891Y-46946582D01*
X128745923Y-47180142D01*
X128619145Y-47485459D01*
X128618856Y-47816051D01*
X118431000Y-47816051D01*
X118431000Y-38431000D01*
X139569000Y-38431000D01*
X139569000Y-98630521D01*
M02*
