G04 #@! TF.FileFunction,Legend,Top*
%FSLAX46Y46*%
G04 Gerber Fmt 4.6, Leading zero omitted, Abs format (unit mm)*
G04 Created by KiCad (PCBNEW 4.0.2-stable) date 2019-03-28 2:43:53 PM*
%MOMM*%
G01*
G04 APERTURE LIST*
%ADD10C,0.200000*%
%ADD11C,0.300000*%
%ADD12C,0.010000*%
%ADD13C,0.150000*%
%ADD14C,0.381000*%
%ADD15R,1.800000X1.800000*%
%ADD16O,1.800000X1.800000*%
%ADD17O,2.600000X4.100000*%
%ADD18O,2.100000X2.600000*%
%ADD19O,3.600000X1.600000*%
%ADD20C,1.624000*%
%ADD21R,1.600000X2.100000*%
%ADD22R,2.900000X1.700000*%
%ADD23C,1.900000*%
%ADD24C,1.370000*%
%ADD25R,2.600000X3.600000*%
%ADD26C,1.850000*%
G04 APERTURE END LIST*
D10*
D11*
X131964286Y-129428571D02*
X132821429Y-129428571D01*
X132392858Y-130928571D02*
X132392858Y-129428571D01*
X134178572Y-130928571D02*
X133678572Y-130214286D01*
X133321429Y-130928571D02*
X133321429Y-129428571D01*
X133892857Y-129428571D01*
X134035715Y-129500000D01*
X134107143Y-129571429D01*
X134178572Y-129714286D01*
X134178572Y-129928571D01*
X134107143Y-130071429D01*
X134035715Y-130142857D01*
X133892857Y-130214286D01*
X133321429Y-130214286D01*
X134821429Y-130928571D02*
X134821429Y-129428571D01*
X96250000Y-130857143D02*
X96464286Y-130928571D01*
X96821429Y-130928571D01*
X96964286Y-130857143D01*
X97035715Y-130785714D01*
X97107143Y-130642857D01*
X97107143Y-130500000D01*
X97035715Y-130357143D01*
X96964286Y-130285714D01*
X96821429Y-130214286D01*
X96535715Y-130142857D01*
X96392857Y-130071429D01*
X96321429Y-130000000D01*
X96250000Y-129857143D01*
X96250000Y-129714286D01*
X96321429Y-129571429D01*
X96392857Y-129500000D01*
X96535715Y-129428571D01*
X96892857Y-129428571D01*
X97107143Y-129500000D01*
X97750000Y-130928571D02*
X97750000Y-129428571D01*
X98464286Y-130928571D02*
X98464286Y-129428571D01*
X99321429Y-130928571D01*
X99321429Y-129428571D01*
X100035715Y-130142857D02*
X100535715Y-130142857D01*
X100750001Y-130928571D02*
X100035715Y-130928571D01*
X100035715Y-129428571D01*
X100750001Y-129428571D01*
X130321429Y-111428571D02*
X130321429Y-109928571D01*
X130892857Y-109928571D01*
X131035715Y-110000000D01*
X131107143Y-110071429D01*
X131178572Y-110214286D01*
X131178572Y-110428571D01*
X131107143Y-110571429D01*
X131035715Y-110642857D01*
X130892857Y-110714286D01*
X130321429Y-110714286D01*
X131821429Y-109928571D02*
X131821429Y-111142857D01*
X131892857Y-111285714D01*
X131964286Y-111357143D01*
X132107143Y-111428571D01*
X132392857Y-111428571D01*
X132535715Y-111357143D01*
X132607143Y-111285714D01*
X132678572Y-111142857D01*
X132678572Y-109928571D01*
X134107144Y-111428571D02*
X133392858Y-111428571D01*
X133392858Y-109928571D01*
X134535715Y-111357143D02*
X134750001Y-111428571D01*
X135107144Y-111428571D01*
X135250001Y-111357143D01*
X135321430Y-111285714D01*
X135392858Y-111142857D01*
X135392858Y-111000000D01*
X135321430Y-110857143D01*
X135250001Y-110785714D01*
X135107144Y-110714286D01*
X134821430Y-110642857D01*
X134678572Y-110571429D01*
X134607144Y-110500000D01*
X134535715Y-110357143D01*
X134535715Y-110214286D01*
X134607144Y-110071429D01*
X134678572Y-110000000D01*
X134821430Y-109928571D01*
X135178572Y-109928571D01*
X135392858Y-110000000D01*
X136035715Y-110642857D02*
X136535715Y-110642857D01*
X136750001Y-111428571D02*
X136035715Y-111428571D01*
X136035715Y-109928571D01*
X136750001Y-109928571D01*
X111678571Y-111357143D02*
X111892857Y-111428571D01*
X112250000Y-111428571D01*
X112392857Y-111357143D01*
X112464286Y-111285714D01*
X112535714Y-111142857D01*
X112535714Y-111000000D01*
X112464286Y-110857143D01*
X112392857Y-110785714D01*
X112250000Y-110714286D01*
X111964286Y-110642857D01*
X111821428Y-110571429D01*
X111750000Y-110500000D01*
X111678571Y-110357143D01*
X111678571Y-110214286D01*
X111750000Y-110071429D01*
X111821428Y-110000000D01*
X111964286Y-109928571D01*
X112321428Y-109928571D01*
X112535714Y-110000000D01*
X113464285Y-110714286D02*
X113464285Y-111428571D01*
X112964285Y-109928571D02*
X113464285Y-110714286D01*
X113964285Y-109928571D01*
X114464285Y-111428571D02*
X114464285Y-109928571D01*
X115321428Y-111428571D01*
X115321428Y-109928571D01*
X116892857Y-111285714D02*
X116821428Y-111357143D01*
X116607142Y-111428571D01*
X116464285Y-111428571D01*
X116250000Y-111357143D01*
X116107142Y-111214286D01*
X116035714Y-111071429D01*
X115964285Y-110785714D01*
X115964285Y-110571429D01*
X116035714Y-110285714D01*
X116107142Y-110142857D01*
X116250000Y-110000000D01*
X116464285Y-109928571D01*
X116607142Y-109928571D01*
X116821428Y-110000000D01*
X116892857Y-110071429D01*
X118678571Y-111428571D02*
X118678571Y-109928571D01*
X119392857Y-111428571D02*
X119392857Y-109928571D01*
X120250000Y-111428571D01*
X120250000Y-109928571D01*
X93178571Y-111357143D02*
X93392857Y-111428571D01*
X93750000Y-111428571D01*
X93892857Y-111357143D01*
X93964286Y-111285714D01*
X94035714Y-111142857D01*
X94035714Y-111000000D01*
X93964286Y-110857143D01*
X93892857Y-110785714D01*
X93750000Y-110714286D01*
X93464286Y-110642857D01*
X93321428Y-110571429D01*
X93250000Y-110500000D01*
X93178571Y-110357143D01*
X93178571Y-110214286D01*
X93250000Y-110071429D01*
X93321428Y-110000000D01*
X93464286Y-109928571D01*
X93821428Y-109928571D01*
X94035714Y-110000000D01*
X94964285Y-110714286D02*
X94964285Y-111428571D01*
X94464285Y-109928571D02*
X94964285Y-110714286D01*
X95464285Y-109928571D01*
X95964285Y-111428571D02*
X95964285Y-109928571D01*
X96821428Y-111428571D01*
X96821428Y-109928571D01*
X98392857Y-111285714D02*
X98321428Y-111357143D01*
X98107142Y-111428571D01*
X97964285Y-111428571D01*
X97750000Y-111357143D01*
X97607142Y-111214286D01*
X97535714Y-111071429D01*
X97464285Y-110785714D01*
X97464285Y-110571429D01*
X97535714Y-110285714D01*
X97607142Y-110142857D01*
X97750000Y-110000000D01*
X97964285Y-109928571D01*
X98107142Y-109928571D01*
X98321428Y-110000000D01*
X98392857Y-110071429D01*
X100464285Y-109928571D02*
X100749999Y-109928571D01*
X100892857Y-110000000D01*
X101035714Y-110142857D01*
X101107142Y-110428571D01*
X101107142Y-110928571D01*
X101035714Y-111214286D01*
X100892857Y-111357143D01*
X100749999Y-111428571D01*
X100464285Y-111428571D01*
X100321428Y-111357143D01*
X100178571Y-111214286D01*
X100107142Y-110928571D01*
X100107142Y-110428571D01*
X100178571Y-110142857D01*
X100321428Y-110000000D01*
X100464285Y-109928571D01*
X101750000Y-109928571D02*
X101750000Y-111142857D01*
X101821428Y-111285714D01*
X101892857Y-111357143D01*
X102035714Y-111428571D01*
X102321428Y-111428571D01*
X102464286Y-111357143D01*
X102535714Y-111285714D01*
X102607143Y-111142857D01*
X102607143Y-109928571D01*
X103107143Y-109928571D02*
X103964286Y-109928571D01*
X103535715Y-111428571D02*
X103535715Y-109928571D01*
X129678571Y-93178571D02*
X129678571Y-91678571D01*
X130249999Y-91678571D01*
X130392857Y-91750000D01*
X130464285Y-91821429D01*
X130535714Y-91964286D01*
X130535714Y-92178571D01*
X130464285Y-92321429D01*
X130392857Y-92392857D01*
X130249999Y-92464286D01*
X129678571Y-92464286D01*
X131035714Y-91678571D02*
X131392857Y-93178571D01*
X131678571Y-92107143D01*
X131964285Y-93178571D01*
X132321428Y-91678571D01*
X132892857Y-93178571D02*
X132892857Y-91678571D01*
X133392857Y-92750000D01*
X133892857Y-91678571D01*
X133892857Y-93178571D01*
X135750000Y-93178571D02*
X135750000Y-91678571D01*
X136464286Y-93178571D02*
X136464286Y-91678571D01*
X137321429Y-93178571D01*
X137321429Y-91678571D01*
X94750000Y-93178571D02*
X94750000Y-91678571D01*
X95250000Y-92750000D01*
X95750000Y-91678571D01*
X95750000Y-93178571D01*
X96750000Y-91678571D02*
X97035714Y-91678571D01*
X97178572Y-91750000D01*
X97321429Y-91892857D01*
X97392857Y-92178571D01*
X97392857Y-92678571D01*
X97321429Y-92964286D01*
X97178572Y-93107143D01*
X97035714Y-93178571D01*
X96750000Y-93178571D01*
X96607143Y-93107143D01*
X96464286Y-92964286D01*
X96392857Y-92678571D01*
X96392857Y-92178571D01*
X96464286Y-91892857D01*
X96607143Y-91750000D01*
X96750000Y-91678571D01*
X98035715Y-93178571D02*
X98035715Y-91678571D01*
X98392858Y-91678571D01*
X98607143Y-91750000D01*
X98750001Y-91892857D01*
X98821429Y-92035714D01*
X98892858Y-92321429D01*
X98892858Y-92535714D01*
X98821429Y-92821429D01*
X98750001Y-92964286D01*
X98607143Y-93107143D01*
X98392858Y-93178571D01*
X98035715Y-93178571D01*
X100678572Y-93178571D02*
X100678572Y-91678571D01*
X101392858Y-93178571D02*
X101392858Y-91678571D01*
X102250001Y-93178571D01*
X102250001Y-91678571D01*
X113214286Y-107678571D02*
X113214286Y-106178571D01*
X114071429Y-107678571D02*
X113428572Y-106821429D01*
X114071429Y-106178571D02*
X113214286Y-107035714D01*
X115000000Y-106964286D02*
X115000000Y-107678571D01*
X114500000Y-106178571D02*
X115000000Y-106964286D01*
X115500000Y-106178571D01*
X116500000Y-106892857D02*
X116714286Y-106964286D01*
X116785714Y-107035714D01*
X116857143Y-107178571D01*
X116857143Y-107392857D01*
X116785714Y-107535714D01*
X116714286Y-107607143D01*
X116571428Y-107678571D01*
X116000000Y-107678571D01*
X116000000Y-106178571D01*
X116500000Y-106178571D01*
X116642857Y-106250000D01*
X116714286Y-106321429D01*
X116785714Y-106464286D01*
X116785714Y-106607143D01*
X116714286Y-106750000D01*
X116642857Y-106821429D01*
X116500000Y-106892857D01*
X116000000Y-106892857D01*
X117500000Y-107678571D02*
X117500000Y-106178571D01*
X117857143Y-106178571D01*
X118071428Y-106250000D01*
X118214286Y-106392857D01*
X118285714Y-106535714D01*
X118357143Y-106821429D01*
X118357143Y-107035714D01*
X118285714Y-107321429D01*
X118214286Y-107464286D01*
X118071428Y-107607143D01*
X117857143Y-107678571D01*
X117500000Y-107678571D01*
X125607143Y-74428571D02*
X125607143Y-72928571D01*
X126178571Y-72928571D01*
X126321429Y-73000000D01*
X126392857Y-73071429D01*
X126464286Y-73214286D01*
X126464286Y-73428571D01*
X126392857Y-73571429D01*
X126321429Y-73642857D01*
X126178571Y-73714286D01*
X125607143Y-73714286D01*
X126964286Y-72928571D02*
X127321429Y-74428571D01*
X127607143Y-73357143D01*
X127892857Y-74428571D01*
X128250000Y-72928571D01*
X129892857Y-72857143D02*
X128607143Y-74785714D01*
X130392858Y-74428571D02*
X130392858Y-72928571D01*
X130892858Y-74000000D01*
X131392858Y-72928571D01*
X131392858Y-74428571D01*
X98821429Y-74428571D02*
X98821429Y-72928571D01*
X99321429Y-74000000D01*
X99821429Y-72928571D01*
X99821429Y-74428571D01*
X100821429Y-72928571D02*
X101107143Y-72928571D01*
X101250001Y-73000000D01*
X101392858Y-73142857D01*
X101464286Y-73428571D01*
X101464286Y-73928571D01*
X101392858Y-74214286D01*
X101250001Y-74357143D01*
X101107143Y-74428571D01*
X100821429Y-74428571D01*
X100678572Y-74357143D01*
X100535715Y-74214286D01*
X100464286Y-73928571D01*
X100464286Y-73428571D01*
X100535715Y-73142857D01*
X100678572Y-73000000D01*
X100821429Y-72928571D01*
X102107144Y-74428571D02*
X102107144Y-72928571D01*
X102464287Y-72928571D01*
X102678572Y-73000000D01*
X102821430Y-73142857D01*
X102892858Y-73285714D01*
X102964287Y-73571429D01*
X102964287Y-73785714D01*
X102892858Y-74071429D01*
X102821430Y-74214286D01*
X102678572Y-74357143D01*
X102464287Y-74428571D01*
X102107144Y-74428571D01*
X104678572Y-74000000D02*
X105392858Y-74000000D01*
X104535715Y-74428571D02*
X105035715Y-72928571D01*
X105535715Y-74428571D01*
X106035715Y-74428571D02*
X106035715Y-72928571D01*
X106535715Y-74000000D01*
X107035715Y-72928571D01*
X107035715Y-74428571D01*
X107535715Y-72928571D02*
X108392858Y-72928571D01*
X107964287Y-74428571D02*
X107964287Y-72928571D01*
X126892857Y-44392857D02*
X126392857Y-44392857D01*
X126392857Y-45178571D02*
X126392857Y-43678571D01*
X127107143Y-43678571D01*
X127678571Y-45178571D02*
X127678571Y-43678571D01*
X128392857Y-45178571D02*
X128392857Y-43678571D01*
X129250000Y-45178571D01*
X129250000Y-43678571D01*
X129964286Y-44392857D02*
X130464286Y-44392857D01*
X130678572Y-45178571D02*
X129964286Y-45178571D01*
X129964286Y-43678571D01*
X130678572Y-43678571D01*
D12*
G36*
X114420599Y-74499602D02*
X114430933Y-74501172D01*
X114444886Y-74503859D01*
X114463294Y-74507878D01*
X114486994Y-74513443D01*
X114516821Y-74520768D01*
X114553614Y-74530067D01*
X114598207Y-74541554D01*
X114651437Y-74555443D01*
X114714142Y-74571948D01*
X114787157Y-74591283D01*
X114871318Y-74613663D01*
X114967463Y-74639301D01*
X115076427Y-74668412D01*
X115199048Y-74701210D01*
X115336161Y-74737908D01*
X115488603Y-74778721D01*
X115525867Y-74788698D01*
X115863448Y-74879084D01*
X116185057Y-74965200D01*
X116491082Y-75047150D01*
X116781909Y-75125039D01*
X117057925Y-75198972D01*
X117319516Y-75269054D01*
X117567070Y-75335389D01*
X117800972Y-75398083D01*
X118021611Y-75457240D01*
X118229371Y-75512965D01*
X118424641Y-75565363D01*
X118607807Y-75614539D01*
X118779256Y-75660598D01*
X118939375Y-75703644D01*
X119088549Y-75743783D01*
X119227167Y-75781119D01*
X119355615Y-75815757D01*
X119474279Y-75847801D01*
X119583546Y-75877358D01*
X119683804Y-75904531D01*
X119775438Y-75929426D01*
X119858836Y-75952147D01*
X119934384Y-75972799D01*
X120002469Y-75991487D01*
X120063478Y-76008316D01*
X120117798Y-76023391D01*
X120165815Y-76036817D01*
X120207916Y-76048697D01*
X120244488Y-76059138D01*
X120275917Y-76068244D01*
X120302591Y-76076120D01*
X120324896Y-76082871D01*
X120343219Y-76088602D01*
X120357946Y-76093417D01*
X120369465Y-76097421D01*
X120378162Y-76100719D01*
X120384424Y-76103417D01*
X120388637Y-76105618D01*
X120391189Y-76107428D01*
X120391549Y-76107767D01*
X120393861Y-76111307D01*
X120397045Y-76118406D01*
X120401230Y-76129535D01*
X120406546Y-76145170D01*
X120413122Y-76165783D01*
X120421086Y-76191849D01*
X120430569Y-76223840D01*
X120441700Y-76262231D01*
X120454608Y-76307495D01*
X120469422Y-76360106D01*
X120486272Y-76420536D01*
X120505287Y-76489261D01*
X120526596Y-76566753D01*
X120550329Y-76653486D01*
X120576615Y-76749934D01*
X120605583Y-76856570D01*
X120637362Y-76973867D01*
X120672083Y-77102300D01*
X120709873Y-77242342D01*
X120750863Y-77394467D01*
X120795182Y-77559148D01*
X120842959Y-77736859D01*
X120894323Y-77928073D01*
X120949404Y-78133264D01*
X121008331Y-78352906D01*
X121071233Y-78587472D01*
X121138240Y-78837435D01*
X121209481Y-79103271D01*
X121211873Y-79112197D01*
X121270817Y-79332198D01*
X121328633Y-79548034D01*
X121385167Y-79759130D01*
X121440265Y-79964909D01*
X121493774Y-80164797D01*
X121545539Y-80358218D01*
X121595408Y-80544597D01*
X121643226Y-80723358D01*
X121688839Y-80893926D01*
X121732094Y-81055726D01*
X121772837Y-81208181D01*
X121810915Y-81350718D01*
X121846173Y-81482760D01*
X121878458Y-81603732D01*
X121907616Y-81713058D01*
X121933494Y-81810164D01*
X121955937Y-81894473D01*
X121974793Y-81965410D01*
X121989906Y-82022401D01*
X122001124Y-82064869D01*
X122008292Y-82092239D01*
X122011258Y-82103936D01*
X122011333Y-82104337D01*
X122005414Y-82110888D01*
X121987934Y-82128986D01*
X121959314Y-82158211D01*
X121919973Y-82198142D01*
X121870330Y-82248358D01*
X121810804Y-82308438D01*
X121741814Y-82377962D01*
X121663779Y-82456509D01*
X121577119Y-82543657D01*
X121482253Y-82638986D01*
X121379600Y-82742076D01*
X121269579Y-82852504D01*
X121152609Y-82969851D01*
X121029110Y-83093696D01*
X120899501Y-83223618D01*
X120764201Y-83359195D01*
X120623629Y-83500008D01*
X120478204Y-83645635D01*
X120328346Y-83795655D01*
X120174473Y-83949649D01*
X120017006Y-84107194D01*
X119856362Y-84267870D01*
X119819673Y-84304560D01*
X119627196Y-84497035D01*
X119446325Y-84677898D01*
X119276693Y-84847511D01*
X119117932Y-85006236D01*
X118969675Y-85154435D01*
X118831554Y-85292469D01*
X118703203Y-85420700D01*
X118584253Y-85539490D01*
X118474337Y-85649201D01*
X118373088Y-85750195D01*
X118280138Y-85842833D01*
X118195119Y-85927477D01*
X118117665Y-86004490D01*
X118047408Y-86074232D01*
X117983981Y-86137066D01*
X117927015Y-86193354D01*
X117876144Y-86243457D01*
X117831000Y-86287738D01*
X117791216Y-86326557D01*
X117756424Y-86360277D01*
X117726257Y-86389260D01*
X117700347Y-86413867D01*
X117678327Y-86434461D01*
X117659829Y-86451402D01*
X117644486Y-86465054D01*
X117631931Y-86475777D01*
X117621796Y-86483934D01*
X117613714Y-86489886D01*
X117607317Y-86493995D01*
X117602238Y-86496624D01*
X117598109Y-86498133D01*
X117594563Y-86498885D01*
X117591232Y-86499241D01*
X117590823Y-86499275D01*
X117584085Y-86498671D01*
X117570668Y-86496205D01*
X117550164Y-86491768D01*
X117522162Y-86485252D01*
X117486254Y-86476549D01*
X117442028Y-86465551D01*
X117389075Y-86452149D01*
X117326986Y-86436236D01*
X117255351Y-86417702D01*
X117173759Y-86396441D01*
X117081802Y-86372344D01*
X116979069Y-86345302D01*
X116865151Y-86315208D01*
X116739637Y-86281953D01*
X116602119Y-86245429D01*
X116452186Y-86205528D01*
X116289429Y-86162142D01*
X116113437Y-86115163D01*
X115923802Y-86064481D01*
X115720112Y-86009990D01*
X115501960Y-85951582D01*
X115268933Y-85889147D01*
X115020624Y-85822577D01*
X114756623Y-85751766D01*
X114591111Y-85707356D01*
X114325197Y-85635990D01*
X114075171Y-85568867D01*
X113840561Y-85505858D01*
X113620898Y-85446836D01*
X113415708Y-85391671D01*
X113224522Y-85340234D01*
X113046868Y-85292397D01*
X112882274Y-85248030D01*
X112730271Y-85207006D01*
X112590385Y-85169194D01*
X112462148Y-85134467D01*
X112345086Y-85102695D01*
X112238729Y-85073750D01*
X112142606Y-85047502D01*
X112056246Y-85023824D01*
X111979177Y-85002585D01*
X111910928Y-84983659D01*
X111851028Y-84966914D01*
X111799007Y-84952224D01*
X111754392Y-84939458D01*
X111716712Y-84928489D01*
X111685497Y-84919187D01*
X111660275Y-84911423D01*
X111640575Y-84905069D01*
X111625926Y-84899996D01*
X111615857Y-84896076D01*
X111609896Y-84893178D01*
X111608057Y-84891839D01*
X111605732Y-84888193D01*
X111602466Y-84880739D01*
X111598130Y-84869004D01*
X111592597Y-84852518D01*
X111585736Y-84830810D01*
X111577420Y-84803409D01*
X111567520Y-84769843D01*
X111555908Y-84729642D01*
X111542454Y-84682336D01*
X111527029Y-84627451D01*
X111509506Y-84564519D01*
X111489756Y-84493068D01*
X111467649Y-84412627D01*
X111443058Y-84322724D01*
X111415853Y-84222889D01*
X111385906Y-84112652D01*
X111353089Y-83991540D01*
X111317272Y-83859083D01*
X111278327Y-83714810D01*
X111236125Y-83558250D01*
X111190538Y-83388932D01*
X111141437Y-83206385D01*
X111088693Y-83010138D01*
X111032178Y-82799720D01*
X110971763Y-82574660D01*
X110907319Y-82334487D01*
X110838718Y-82078730D01*
X110792023Y-81904603D01*
X110718337Y-81629748D01*
X110648961Y-81370844D01*
X110583787Y-81127492D01*
X110522713Y-80899296D01*
X110465632Y-80685858D01*
X110412441Y-80486780D01*
X110363033Y-80301665D01*
X110317304Y-80130115D01*
X110275150Y-79971734D01*
X110236466Y-79826122D01*
X110201145Y-79692883D01*
X110169085Y-79571620D01*
X110140179Y-79461934D01*
X110114323Y-79363428D01*
X110091412Y-79275705D01*
X110071341Y-79198367D01*
X110054005Y-79131017D01*
X110039299Y-79073256D01*
X110027119Y-79024688D01*
X110017359Y-78984915D01*
X110010221Y-78954833D01*
X110218092Y-78954833D01*
X110991676Y-81841032D01*
X111049679Y-82057364D01*
X111106598Y-82269504D01*
X111162274Y-82476868D01*
X111216549Y-82678872D01*
X111269266Y-82874932D01*
X111320266Y-83064462D01*
X111369392Y-83246879D01*
X111416484Y-83421599D01*
X111461386Y-83588037D01*
X111503939Y-83745608D01*
X111543985Y-83893729D01*
X111581366Y-84031815D01*
X111615923Y-84159282D01*
X111647500Y-84275546D01*
X111675937Y-84380021D01*
X111701077Y-84472125D01*
X111722762Y-84551272D01*
X111740833Y-84616878D01*
X111755133Y-84668359D01*
X111765504Y-84705131D01*
X111771786Y-84726608D01*
X111773778Y-84732399D01*
X111783388Y-84735526D01*
X111807797Y-84742574D01*
X111845436Y-84753113D01*
X111894739Y-84766712D01*
X111954139Y-84782944D01*
X112022070Y-84801378D01*
X112096963Y-84821586D01*
X112177252Y-84843137D01*
X112204165Y-84850337D01*
X112247465Y-84861920D01*
X112306334Y-84877682D01*
X112379988Y-84897411D01*
X112467642Y-84920899D01*
X112568512Y-84947933D01*
X112681811Y-84978304D01*
X112806756Y-85011802D01*
X112942562Y-85048215D01*
X113088443Y-85087333D01*
X113243615Y-85128946D01*
X113407293Y-85172843D01*
X113578691Y-85218814D01*
X113757026Y-85266648D01*
X113941513Y-85316135D01*
X114131365Y-85367064D01*
X114325799Y-85419225D01*
X114524030Y-85472407D01*
X114725273Y-85526400D01*
X114928742Y-85580994D01*
X115081367Y-85621947D01*
X115280719Y-85675438D01*
X115475832Y-85727791D01*
X115666070Y-85778835D01*
X115850800Y-85828400D01*
X116029391Y-85876317D01*
X116201207Y-85922415D01*
X116365616Y-85966525D01*
X116521985Y-86008476D01*
X116669680Y-86048100D01*
X116808069Y-86085225D01*
X116936517Y-86119682D01*
X117054392Y-86151302D01*
X117161060Y-86179914D01*
X117255889Y-86205348D01*
X117338244Y-86227435D01*
X117407492Y-86246005D01*
X117463001Y-86260887D01*
X117504138Y-86271913D01*
X117530267Y-86278911D01*
X117540758Y-86281713D01*
X117540940Y-86281760D01*
X117547173Y-86275915D01*
X117564949Y-86258518D01*
X117593840Y-86229996D01*
X117633419Y-86190773D01*
X117683259Y-86141276D01*
X117742933Y-86081931D01*
X117812015Y-86013165D01*
X117890077Y-85935402D01*
X117976692Y-85849070D01*
X118071433Y-85754593D01*
X118173873Y-85652399D01*
X118283586Y-85542914D01*
X118400144Y-85426562D01*
X118523120Y-85303771D01*
X118652087Y-85174967D01*
X118786618Y-85040574D01*
X118926286Y-84901021D01*
X119070665Y-84756731D01*
X119219327Y-84608133D01*
X119371845Y-84455651D01*
X119527792Y-84299711D01*
X119663536Y-84163950D01*
X121781893Y-82045166D01*
X121008468Y-79159594D01*
X120950485Y-78943300D01*
X120893608Y-78731200D01*
X120837993Y-78523878D01*
X120783799Y-78321919D01*
X120731182Y-78125907D01*
X120680300Y-77936425D01*
X120631310Y-77754059D01*
X120584370Y-77579392D01*
X120539636Y-77413008D01*
X120497265Y-77255492D01*
X120457416Y-77107428D01*
X120420245Y-76969400D01*
X120385910Y-76841992D01*
X120354567Y-76725788D01*
X120326375Y-76621372D01*
X120301490Y-76529329D01*
X120280069Y-76450243D01*
X120262271Y-76384698D01*
X120248251Y-76333278D01*
X120238168Y-76296568D01*
X120232179Y-76275151D01*
X120230432Y-76269410D01*
X120222002Y-76266898D01*
X120197800Y-76260163D01*
X120158408Y-76249363D01*
X120104412Y-76234654D01*
X120036396Y-76216195D01*
X119954943Y-76194143D01*
X119860638Y-76168654D01*
X119754066Y-76139886D01*
X119635809Y-76107996D01*
X119506454Y-76073142D01*
X119366583Y-76035481D01*
X119216781Y-75995170D01*
X119057632Y-75952366D01*
X118889720Y-75907226D01*
X118713630Y-75859908D01*
X118529945Y-75810569D01*
X118339250Y-75759367D01*
X118142129Y-75706458D01*
X117939167Y-75652000D01*
X117730946Y-75596150D01*
X117518052Y-75539065D01*
X117340327Y-75491424D01*
X114454833Y-74718049D01*
X112336463Y-76836441D01*
X110218092Y-78954833D01*
X110010221Y-78954833D01*
X110009914Y-78953540D01*
X110004681Y-78930164D01*
X110001553Y-78914391D01*
X110000426Y-78905822D01*
X110000457Y-78904643D01*
X110001234Y-78901281D01*
X110003090Y-78896996D01*
X110006386Y-78891422D01*
X110011483Y-78884193D01*
X110018742Y-78874944D01*
X110028524Y-78863308D01*
X110041190Y-78848921D01*
X110057101Y-78831416D01*
X110076618Y-78810426D01*
X110100102Y-78785588D01*
X110127914Y-78756533D01*
X110160414Y-78722898D01*
X110197965Y-78684316D01*
X110240926Y-78640421D01*
X110289659Y-78590847D01*
X110344524Y-78535229D01*
X110405884Y-78473200D01*
X110474098Y-78404395D01*
X110549527Y-78328449D01*
X110632534Y-78244994D01*
X110723478Y-78153666D01*
X110822720Y-78054099D01*
X110930622Y-77945926D01*
X111047545Y-77828783D01*
X111173849Y-77702302D01*
X111309896Y-77566119D01*
X111456046Y-77419868D01*
X111612661Y-77263182D01*
X111780101Y-77095696D01*
X111958728Y-76917044D01*
X112148901Y-76726861D01*
X112187280Y-76688482D01*
X112383075Y-76492700D01*
X112567255Y-76308567D01*
X112740159Y-76135745D01*
X112902132Y-75973896D01*
X113053515Y-75822680D01*
X113194651Y-75681758D01*
X113325881Y-75550792D01*
X113447549Y-75429444D01*
X113559996Y-75317374D01*
X113663565Y-75214244D01*
X113758598Y-75119715D01*
X113845438Y-75033448D01*
X113924427Y-74955104D01*
X113995906Y-74884346D01*
X114060220Y-74820833D01*
X114117708Y-74764228D01*
X114168715Y-74714192D01*
X114213583Y-74670385D01*
X114252653Y-74632469D01*
X114286268Y-74600106D01*
X114314771Y-74572957D01*
X114338503Y-74550683D01*
X114357807Y-74532944D01*
X114373026Y-74519404D01*
X114384501Y-74509722D01*
X114392575Y-74503560D01*
X114397591Y-74500579D01*
X114398720Y-74500219D01*
X114402944Y-74499459D01*
X114407441Y-74498960D01*
X114413047Y-74498936D01*
X114420599Y-74499602D01*
X114420599Y-74499602D01*
G37*
X114420599Y-74499602D02*
X114430933Y-74501172D01*
X114444886Y-74503859D01*
X114463294Y-74507878D01*
X114486994Y-74513443D01*
X114516821Y-74520768D01*
X114553614Y-74530067D01*
X114598207Y-74541554D01*
X114651437Y-74555443D01*
X114714142Y-74571948D01*
X114787157Y-74591283D01*
X114871318Y-74613663D01*
X114967463Y-74639301D01*
X115076427Y-74668412D01*
X115199048Y-74701210D01*
X115336161Y-74737908D01*
X115488603Y-74778721D01*
X115525867Y-74788698D01*
X115863448Y-74879084D01*
X116185057Y-74965200D01*
X116491082Y-75047150D01*
X116781909Y-75125039D01*
X117057925Y-75198972D01*
X117319516Y-75269054D01*
X117567070Y-75335389D01*
X117800972Y-75398083D01*
X118021611Y-75457240D01*
X118229371Y-75512965D01*
X118424641Y-75565363D01*
X118607807Y-75614539D01*
X118779256Y-75660598D01*
X118939375Y-75703644D01*
X119088549Y-75743783D01*
X119227167Y-75781119D01*
X119355615Y-75815757D01*
X119474279Y-75847801D01*
X119583546Y-75877358D01*
X119683804Y-75904531D01*
X119775438Y-75929426D01*
X119858836Y-75952147D01*
X119934384Y-75972799D01*
X120002469Y-75991487D01*
X120063478Y-76008316D01*
X120117798Y-76023391D01*
X120165815Y-76036817D01*
X120207916Y-76048697D01*
X120244488Y-76059138D01*
X120275917Y-76068244D01*
X120302591Y-76076120D01*
X120324896Y-76082871D01*
X120343219Y-76088602D01*
X120357946Y-76093417D01*
X120369465Y-76097421D01*
X120378162Y-76100719D01*
X120384424Y-76103417D01*
X120388637Y-76105618D01*
X120391189Y-76107428D01*
X120391549Y-76107767D01*
X120393861Y-76111307D01*
X120397045Y-76118406D01*
X120401230Y-76129535D01*
X120406546Y-76145170D01*
X120413122Y-76165783D01*
X120421086Y-76191849D01*
X120430569Y-76223840D01*
X120441700Y-76262231D01*
X120454608Y-76307495D01*
X120469422Y-76360106D01*
X120486272Y-76420536D01*
X120505287Y-76489261D01*
X120526596Y-76566753D01*
X120550329Y-76653486D01*
X120576615Y-76749934D01*
X120605583Y-76856570D01*
X120637362Y-76973867D01*
X120672083Y-77102300D01*
X120709873Y-77242342D01*
X120750863Y-77394467D01*
X120795182Y-77559148D01*
X120842959Y-77736859D01*
X120894323Y-77928073D01*
X120949404Y-78133264D01*
X121008331Y-78352906D01*
X121071233Y-78587472D01*
X121138240Y-78837435D01*
X121209481Y-79103271D01*
X121211873Y-79112197D01*
X121270817Y-79332198D01*
X121328633Y-79548034D01*
X121385167Y-79759130D01*
X121440265Y-79964909D01*
X121493774Y-80164797D01*
X121545539Y-80358218D01*
X121595408Y-80544597D01*
X121643226Y-80723358D01*
X121688839Y-80893926D01*
X121732094Y-81055726D01*
X121772837Y-81208181D01*
X121810915Y-81350718D01*
X121846173Y-81482760D01*
X121878458Y-81603732D01*
X121907616Y-81713058D01*
X121933494Y-81810164D01*
X121955937Y-81894473D01*
X121974793Y-81965410D01*
X121989906Y-82022401D01*
X122001124Y-82064869D01*
X122008292Y-82092239D01*
X122011258Y-82103936D01*
X122011333Y-82104337D01*
X122005414Y-82110888D01*
X121987934Y-82128986D01*
X121959314Y-82158211D01*
X121919973Y-82198142D01*
X121870330Y-82248358D01*
X121810804Y-82308438D01*
X121741814Y-82377962D01*
X121663779Y-82456509D01*
X121577119Y-82543657D01*
X121482253Y-82638986D01*
X121379600Y-82742076D01*
X121269579Y-82852504D01*
X121152609Y-82969851D01*
X121029110Y-83093696D01*
X120899501Y-83223618D01*
X120764201Y-83359195D01*
X120623629Y-83500008D01*
X120478204Y-83645635D01*
X120328346Y-83795655D01*
X120174473Y-83949649D01*
X120017006Y-84107194D01*
X119856362Y-84267870D01*
X119819673Y-84304560D01*
X119627196Y-84497035D01*
X119446325Y-84677898D01*
X119276693Y-84847511D01*
X119117932Y-85006236D01*
X118969675Y-85154435D01*
X118831554Y-85292469D01*
X118703203Y-85420700D01*
X118584253Y-85539490D01*
X118474337Y-85649201D01*
X118373088Y-85750195D01*
X118280138Y-85842833D01*
X118195119Y-85927477D01*
X118117665Y-86004490D01*
X118047408Y-86074232D01*
X117983981Y-86137066D01*
X117927015Y-86193354D01*
X117876144Y-86243457D01*
X117831000Y-86287738D01*
X117791216Y-86326557D01*
X117756424Y-86360277D01*
X117726257Y-86389260D01*
X117700347Y-86413867D01*
X117678327Y-86434461D01*
X117659829Y-86451402D01*
X117644486Y-86465054D01*
X117631931Y-86475777D01*
X117621796Y-86483934D01*
X117613714Y-86489886D01*
X117607317Y-86493995D01*
X117602238Y-86496624D01*
X117598109Y-86498133D01*
X117594563Y-86498885D01*
X117591232Y-86499241D01*
X117590823Y-86499275D01*
X117584085Y-86498671D01*
X117570668Y-86496205D01*
X117550164Y-86491768D01*
X117522162Y-86485252D01*
X117486254Y-86476549D01*
X117442028Y-86465551D01*
X117389075Y-86452149D01*
X117326986Y-86436236D01*
X117255351Y-86417702D01*
X117173759Y-86396441D01*
X117081802Y-86372344D01*
X116979069Y-86345302D01*
X116865151Y-86315208D01*
X116739637Y-86281953D01*
X116602119Y-86245429D01*
X116452186Y-86205528D01*
X116289429Y-86162142D01*
X116113437Y-86115163D01*
X115923802Y-86064481D01*
X115720112Y-86009990D01*
X115501960Y-85951582D01*
X115268933Y-85889147D01*
X115020624Y-85822577D01*
X114756623Y-85751766D01*
X114591111Y-85707356D01*
X114325197Y-85635990D01*
X114075171Y-85568867D01*
X113840561Y-85505858D01*
X113620898Y-85446836D01*
X113415708Y-85391671D01*
X113224522Y-85340234D01*
X113046868Y-85292397D01*
X112882274Y-85248030D01*
X112730271Y-85207006D01*
X112590385Y-85169194D01*
X112462148Y-85134467D01*
X112345086Y-85102695D01*
X112238729Y-85073750D01*
X112142606Y-85047502D01*
X112056246Y-85023824D01*
X111979177Y-85002585D01*
X111910928Y-84983659D01*
X111851028Y-84966914D01*
X111799007Y-84952224D01*
X111754392Y-84939458D01*
X111716712Y-84928489D01*
X111685497Y-84919187D01*
X111660275Y-84911423D01*
X111640575Y-84905069D01*
X111625926Y-84899996D01*
X111615857Y-84896076D01*
X111609896Y-84893178D01*
X111608057Y-84891839D01*
X111605732Y-84888193D01*
X111602466Y-84880739D01*
X111598130Y-84869004D01*
X111592597Y-84852518D01*
X111585736Y-84830810D01*
X111577420Y-84803409D01*
X111567520Y-84769843D01*
X111555908Y-84729642D01*
X111542454Y-84682336D01*
X111527029Y-84627451D01*
X111509506Y-84564519D01*
X111489756Y-84493068D01*
X111467649Y-84412627D01*
X111443058Y-84322724D01*
X111415853Y-84222889D01*
X111385906Y-84112652D01*
X111353089Y-83991540D01*
X111317272Y-83859083D01*
X111278327Y-83714810D01*
X111236125Y-83558250D01*
X111190538Y-83388932D01*
X111141437Y-83206385D01*
X111088693Y-83010138D01*
X111032178Y-82799720D01*
X110971763Y-82574660D01*
X110907319Y-82334487D01*
X110838718Y-82078730D01*
X110792023Y-81904603D01*
X110718337Y-81629748D01*
X110648961Y-81370844D01*
X110583787Y-81127492D01*
X110522713Y-80899296D01*
X110465632Y-80685858D01*
X110412441Y-80486780D01*
X110363033Y-80301665D01*
X110317304Y-80130115D01*
X110275150Y-79971734D01*
X110236466Y-79826122D01*
X110201145Y-79692883D01*
X110169085Y-79571620D01*
X110140179Y-79461934D01*
X110114323Y-79363428D01*
X110091412Y-79275705D01*
X110071341Y-79198367D01*
X110054005Y-79131017D01*
X110039299Y-79073256D01*
X110027119Y-79024688D01*
X110017359Y-78984915D01*
X110010221Y-78954833D01*
X110218092Y-78954833D01*
X110991676Y-81841032D01*
X111049679Y-82057364D01*
X111106598Y-82269504D01*
X111162274Y-82476868D01*
X111216549Y-82678872D01*
X111269266Y-82874932D01*
X111320266Y-83064462D01*
X111369392Y-83246879D01*
X111416484Y-83421599D01*
X111461386Y-83588037D01*
X111503939Y-83745608D01*
X111543985Y-83893729D01*
X111581366Y-84031815D01*
X111615923Y-84159282D01*
X111647500Y-84275546D01*
X111675937Y-84380021D01*
X111701077Y-84472125D01*
X111722762Y-84551272D01*
X111740833Y-84616878D01*
X111755133Y-84668359D01*
X111765504Y-84705131D01*
X111771786Y-84726608D01*
X111773778Y-84732399D01*
X111783388Y-84735526D01*
X111807797Y-84742574D01*
X111845436Y-84753113D01*
X111894739Y-84766712D01*
X111954139Y-84782944D01*
X112022070Y-84801378D01*
X112096963Y-84821586D01*
X112177252Y-84843137D01*
X112204165Y-84850337D01*
X112247465Y-84861920D01*
X112306334Y-84877682D01*
X112379988Y-84897411D01*
X112467642Y-84920899D01*
X112568512Y-84947933D01*
X112681811Y-84978304D01*
X112806756Y-85011802D01*
X112942562Y-85048215D01*
X113088443Y-85087333D01*
X113243615Y-85128946D01*
X113407293Y-85172843D01*
X113578691Y-85218814D01*
X113757026Y-85266648D01*
X113941513Y-85316135D01*
X114131365Y-85367064D01*
X114325799Y-85419225D01*
X114524030Y-85472407D01*
X114725273Y-85526400D01*
X114928742Y-85580994D01*
X115081367Y-85621947D01*
X115280719Y-85675438D01*
X115475832Y-85727791D01*
X115666070Y-85778835D01*
X115850800Y-85828400D01*
X116029391Y-85876317D01*
X116201207Y-85922415D01*
X116365616Y-85966525D01*
X116521985Y-86008476D01*
X116669680Y-86048100D01*
X116808069Y-86085225D01*
X116936517Y-86119682D01*
X117054392Y-86151302D01*
X117161060Y-86179914D01*
X117255889Y-86205348D01*
X117338244Y-86227435D01*
X117407492Y-86246005D01*
X117463001Y-86260887D01*
X117504138Y-86271913D01*
X117530267Y-86278911D01*
X117540758Y-86281713D01*
X117540940Y-86281760D01*
X117547173Y-86275915D01*
X117564949Y-86258518D01*
X117593840Y-86229996D01*
X117633419Y-86190773D01*
X117683259Y-86141276D01*
X117742933Y-86081931D01*
X117812015Y-86013165D01*
X117890077Y-85935402D01*
X117976692Y-85849070D01*
X118071433Y-85754593D01*
X118173873Y-85652399D01*
X118283586Y-85542914D01*
X118400144Y-85426562D01*
X118523120Y-85303771D01*
X118652087Y-85174967D01*
X118786618Y-85040574D01*
X118926286Y-84901021D01*
X119070665Y-84756731D01*
X119219327Y-84608133D01*
X119371845Y-84455651D01*
X119527792Y-84299711D01*
X119663536Y-84163950D01*
X121781893Y-82045166D01*
X121008468Y-79159594D01*
X120950485Y-78943300D01*
X120893608Y-78731200D01*
X120837993Y-78523878D01*
X120783799Y-78321919D01*
X120731182Y-78125907D01*
X120680300Y-77936425D01*
X120631310Y-77754059D01*
X120584370Y-77579392D01*
X120539636Y-77413008D01*
X120497265Y-77255492D01*
X120457416Y-77107428D01*
X120420245Y-76969400D01*
X120385910Y-76841992D01*
X120354567Y-76725788D01*
X120326375Y-76621372D01*
X120301490Y-76529329D01*
X120280069Y-76450243D01*
X120262271Y-76384698D01*
X120248251Y-76333278D01*
X120238168Y-76296568D01*
X120232179Y-76275151D01*
X120230432Y-76269410D01*
X120222002Y-76266898D01*
X120197800Y-76260163D01*
X120158408Y-76249363D01*
X120104412Y-76234654D01*
X120036396Y-76216195D01*
X119954943Y-76194143D01*
X119860638Y-76168654D01*
X119754066Y-76139886D01*
X119635809Y-76107996D01*
X119506454Y-76073142D01*
X119366583Y-76035481D01*
X119216781Y-75995170D01*
X119057632Y-75952366D01*
X118889720Y-75907226D01*
X118713630Y-75859908D01*
X118529945Y-75810569D01*
X118339250Y-75759367D01*
X118142129Y-75706458D01*
X117939167Y-75652000D01*
X117730946Y-75596150D01*
X117518052Y-75539065D01*
X117340327Y-75491424D01*
X114454833Y-74718049D01*
X112336463Y-76836441D01*
X110218092Y-78954833D01*
X110010221Y-78954833D01*
X110009914Y-78953540D01*
X110004681Y-78930164D01*
X110001553Y-78914391D01*
X110000426Y-78905822D01*
X110000457Y-78904643D01*
X110001234Y-78901281D01*
X110003090Y-78896996D01*
X110006386Y-78891422D01*
X110011483Y-78884193D01*
X110018742Y-78874944D01*
X110028524Y-78863308D01*
X110041190Y-78848921D01*
X110057101Y-78831416D01*
X110076618Y-78810426D01*
X110100102Y-78785588D01*
X110127914Y-78756533D01*
X110160414Y-78722898D01*
X110197965Y-78684316D01*
X110240926Y-78640421D01*
X110289659Y-78590847D01*
X110344524Y-78535229D01*
X110405884Y-78473200D01*
X110474098Y-78404395D01*
X110549527Y-78328449D01*
X110632534Y-78244994D01*
X110723478Y-78153666D01*
X110822720Y-78054099D01*
X110930622Y-77945926D01*
X111047545Y-77828783D01*
X111173849Y-77702302D01*
X111309896Y-77566119D01*
X111456046Y-77419868D01*
X111612661Y-77263182D01*
X111780101Y-77095696D01*
X111958728Y-76917044D01*
X112148901Y-76726861D01*
X112187280Y-76688482D01*
X112383075Y-76492700D01*
X112567255Y-76308567D01*
X112740159Y-76135745D01*
X112902132Y-75973896D01*
X113053515Y-75822680D01*
X113194651Y-75681758D01*
X113325881Y-75550792D01*
X113447549Y-75429444D01*
X113559996Y-75317374D01*
X113663565Y-75214244D01*
X113758598Y-75119715D01*
X113845438Y-75033448D01*
X113924427Y-74955104D01*
X113995906Y-74884346D01*
X114060220Y-74820833D01*
X114117708Y-74764228D01*
X114168715Y-74714192D01*
X114213583Y-74670385D01*
X114252653Y-74632469D01*
X114286268Y-74600106D01*
X114314771Y-74572957D01*
X114338503Y-74550683D01*
X114357807Y-74532944D01*
X114373026Y-74519404D01*
X114384501Y-74509722D01*
X114392575Y-74503560D01*
X114397591Y-74500579D01*
X114398720Y-74500219D01*
X114402944Y-74499459D01*
X114407441Y-74498960D01*
X114413047Y-74498936D01*
X114420599Y-74499602D01*
G36*
X114629690Y-82089656D02*
X114682667Y-82095666D01*
X114717300Y-82103351D01*
X114806138Y-82137925D01*
X114883062Y-82184517D01*
X114948042Y-82243084D01*
X115001048Y-82313582D01*
X115042050Y-82395968D01*
X115071019Y-82490198D01*
X115087925Y-82596228D01*
X115091804Y-82652650D01*
X115096314Y-82760600D01*
X114331744Y-82760600D01*
X114335603Y-82779650D01*
X114338568Y-82798510D01*
X114342111Y-82826880D01*
X114344421Y-82848372D01*
X114356879Y-82909614D01*
X114380341Y-82962787D01*
X114413277Y-83005724D01*
X114454155Y-83036257D01*
X114486103Y-83048935D01*
X114524137Y-83054992D01*
X114569780Y-83056062D01*
X114616977Y-83052591D01*
X114659674Y-83045026D01*
X114691818Y-83033813D01*
X114691900Y-83033770D01*
X114739468Y-82999930D01*
X114776358Y-82954753D01*
X114784284Y-82940517D01*
X114798168Y-82913000D01*
X114937151Y-82913000D01*
X114983951Y-82913439D01*
X115024611Y-82914655D01*
X115056206Y-82916493D01*
X115075811Y-82918798D01*
X115080819Y-82920581D01*
X115079324Y-82931002D01*
X115071426Y-82952668D01*
X115058586Y-82981827D01*
X115050345Y-82998898D01*
X115003243Y-83075351D01*
X114944099Y-83140745D01*
X114874226Y-83194432D01*
X114794936Y-83235763D01*
X114707542Y-83264091D01*
X114613355Y-83278768D01*
X114513690Y-83279145D01*
X114487343Y-83276853D01*
X114397291Y-83259536D01*
X114315753Y-83227831D01*
X114243425Y-83182373D01*
X114181006Y-83123796D01*
X114129192Y-83052734D01*
X114088681Y-82969822D01*
X114063984Y-82891833D01*
X114055379Y-82843150D01*
X114050039Y-82782715D01*
X114047912Y-82715382D01*
X114048945Y-82646004D01*
X114053086Y-82579436D01*
X114054744Y-82565867D01*
X114339045Y-82565867D01*
X114791625Y-82565867D01*
X114786612Y-82523542D01*
X114771623Y-82460567D01*
X114743354Y-82404596D01*
X114703552Y-82358305D01*
X114658033Y-82326455D01*
X114618278Y-82313007D01*
X114570684Y-82307901D01*
X114522143Y-82311129D01*
X114479549Y-82322682D01*
X114470965Y-82326698D01*
X114425694Y-82359620D01*
X114388865Y-82406188D01*
X114361432Y-82464863D01*
X114345034Y-82529883D01*
X114339045Y-82565867D01*
X114054744Y-82565867D01*
X114060284Y-82520530D01*
X114068402Y-82481452D01*
X114101209Y-82386831D01*
X114145584Y-82303816D01*
X114201033Y-82232951D01*
X114267060Y-82174781D01*
X114343171Y-82129849D01*
X114412500Y-82103342D01*
X114456236Y-82094262D01*
X114510797Y-82088954D01*
X114570508Y-82087419D01*
X114629690Y-82089656D01*
X114629690Y-82089656D01*
G37*
X114629690Y-82089656D02*
X114682667Y-82095666D01*
X114717300Y-82103351D01*
X114806138Y-82137925D01*
X114883062Y-82184517D01*
X114948042Y-82243084D01*
X115001048Y-82313582D01*
X115042050Y-82395968D01*
X115071019Y-82490198D01*
X115087925Y-82596228D01*
X115091804Y-82652650D01*
X115096314Y-82760600D01*
X114331744Y-82760600D01*
X114335603Y-82779650D01*
X114338568Y-82798510D01*
X114342111Y-82826880D01*
X114344421Y-82848372D01*
X114356879Y-82909614D01*
X114380341Y-82962787D01*
X114413277Y-83005724D01*
X114454155Y-83036257D01*
X114486103Y-83048935D01*
X114524137Y-83054992D01*
X114569780Y-83056062D01*
X114616977Y-83052591D01*
X114659674Y-83045026D01*
X114691818Y-83033813D01*
X114691900Y-83033770D01*
X114739468Y-82999930D01*
X114776358Y-82954753D01*
X114784284Y-82940517D01*
X114798168Y-82913000D01*
X114937151Y-82913000D01*
X114983951Y-82913439D01*
X115024611Y-82914655D01*
X115056206Y-82916493D01*
X115075811Y-82918798D01*
X115080819Y-82920581D01*
X115079324Y-82931002D01*
X115071426Y-82952668D01*
X115058586Y-82981827D01*
X115050345Y-82998898D01*
X115003243Y-83075351D01*
X114944099Y-83140745D01*
X114874226Y-83194432D01*
X114794936Y-83235763D01*
X114707542Y-83264091D01*
X114613355Y-83278768D01*
X114513690Y-83279145D01*
X114487343Y-83276853D01*
X114397291Y-83259536D01*
X114315753Y-83227831D01*
X114243425Y-83182373D01*
X114181006Y-83123796D01*
X114129192Y-83052734D01*
X114088681Y-82969822D01*
X114063984Y-82891833D01*
X114055379Y-82843150D01*
X114050039Y-82782715D01*
X114047912Y-82715382D01*
X114048945Y-82646004D01*
X114053086Y-82579436D01*
X114054744Y-82565867D01*
X114339045Y-82565867D01*
X114791625Y-82565867D01*
X114786612Y-82523542D01*
X114771623Y-82460567D01*
X114743354Y-82404596D01*
X114703552Y-82358305D01*
X114658033Y-82326455D01*
X114618278Y-82313007D01*
X114570684Y-82307901D01*
X114522143Y-82311129D01*
X114479549Y-82322682D01*
X114470965Y-82326698D01*
X114425694Y-82359620D01*
X114388865Y-82406188D01*
X114361432Y-82464863D01*
X114345034Y-82529883D01*
X114339045Y-82565867D01*
X114054744Y-82565867D01*
X114060284Y-82520530D01*
X114068402Y-82481452D01*
X114101209Y-82386831D01*
X114145584Y-82303816D01*
X114201033Y-82232951D01*
X114267060Y-82174781D01*
X114343171Y-82129849D01*
X114412500Y-82103342D01*
X114456236Y-82094262D01*
X114510797Y-82088954D01*
X114570508Y-82087419D01*
X114629690Y-82089656D01*
G36*
X115667122Y-82089016D02*
X115722771Y-82092185D01*
X115770928Y-82097519D01*
X115798917Y-82102835D01*
X115876314Y-82128739D01*
X115945200Y-82165513D01*
X116004032Y-82211610D01*
X116051271Y-82265485D01*
X116085374Y-82325592D01*
X116104800Y-82390384D01*
X116107731Y-82412572D01*
X116112418Y-82464267D01*
X115832831Y-82464267D01*
X115827520Y-82431055D01*
X115812935Y-82389599D01*
X115783978Y-82356851D01*
X115740900Y-82332978D01*
X115683948Y-82318146D01*
X115652277Y-82314330D01*
X115596659Y-82314233D01*
X115547371Y-82322857D01*
X115506145Y-82338937D01*
X115474709Y-82361204D01*
X115454795Y-82388393D01*
X115448133Y-82419237D01*
X115456452Y-82452470D01*
X115458384Y-82456269D01*
X115464030Y-82464711D01*
X115472565Y-82472601D01*
X115485732Y-82480596D01*
X115505275Y-82489351D01*
X115532938Y-82499524D01*
X115570464Y-82511771D01*
X115619596Y-82526748D01*
X115682080Y-82545112D01*
X115735078Y-82560444D01*
X115796000Y-82578337D01*
X115853690Y-82595907D01*
X115905493Y-82612297D01*
X115948754Y-82626650D01*
X115980817Y-82638109D01*
X115998211Y-82645393D01*
X116041702Y-82674425D01*
X116081493Y-82713681D01*
X116113077Y-82758046D01*
X116129688Y-82794635D01*
X116141300Y-82852014D01*
X116142777Y-82916259D01*
X116134207Y-82980739D01*
X116126909Y-83008666D01*
X116107678Y-83055146D01*
X116079541Y-83103477D01*
X116046422Y-83147845D01*
X116012242Y-83182439D01*
X116006678Y-83186876D01*
X115951938Y-83219841D01*
X115884058Y-83246277D01*
X115805728Y-83265662D01*
X115719638Y-83277476D01*
X115628481Y-83281196D01*
X115541632Y-83276947D01*
X115475642Y-83267864D01*
X115410012Y-83253523D01*
X115350020Y-83235322D01*
X115300945Y-83214659D01*
X115295416Y-83211742D01*
X115236868Y-83170520D01*
X115188324Y-83117161D01*
X115151541Y-83054319D01*
X115128277Y-82984647D01*
X115122588Y-82950925D01*
X115117135Y-82904533D01*
X115398396Y-82904533D01*
X115416249Y-82946033D01*
X115436938Y-82984917D01*
X115462469Y-83013540D01*
X115495384Y-83033170D01*
X115538226Y-83045072D01*
X115593536Y-83050512D01*
X115627467Y-83051206D01*
X115695865Y-83047682D01*
X115753317Y-83037243D01*
X115798851Y-83020522D01*
X115831494Y-82998152D01*
X115850277Y-82970767D01*
X115854227Y-82939000D01*
X115845280Y-82909204D01*
X115838875Y-82897735D01*
X115830253Y-82887522D01*
X115817632Y-82877796D01*
X115799230Y-82867787D01*
X115773266Y-82856728D01*
X115737955Y-82843848D01*
X115691518Y-82828379D01*
X115632171Y-82809552D01*
X115568743Y-82789870D01*
X115510686Y-82771823D01*
X115455520Y-82754436D01*
X115406121Y-82738633D01*
X115365369Y-82725340D01*
X115336142Y-82715484D01*
X115325031Y-82711489D01*
X115267177Y-82682383D01*
X115222374Y-82643436D01*
X115188920Y-82593118D01*
X115185541Y-82586144D01*
X115166487Y-82527255D01*
X115159583Y-82461558D01*
X115164482Y-82393671D01*
X115180836Y-82328212D01*
X115208299Y-82269801D01*
X115209448Y-82267956D01*
X115250252Y-82217390D01*
X115304471Y-82172196D01*
X115368905Y-82134476D01*
X115440353Y-82106333D01*
X115466600Y-82099090D01*
X115503720Y-82093050D01*
X115552747Y-82089394D01*
X115608831Y-82088067D01*
X115667122Y-82089016D01*
X115667122Y-82089016D01*
G37*
X115667122Y-82089016D02*
X115722771Y-82092185D01*
X115770928Y-82097519D01*
X115798917Y-82102835D01*
X115876314Y-82128739D01*
X115945200Y-82165513D01*
X116004032Y-82211610D01*
X116051271Y-82265485D01*
X116085374Y-82325592D01*
X116104800Y-82390384D01*
X116107731Y-82412572D01*
X116112418Y-82464267D01*
X115832831Y-82464267D01*
X115827520Y-82431055D01*
X115812935Y-82389599D01*
X115783978Y-82356851D01*
X115740900Y-82332978D01*
X115683948Y-82318146D01*
X115652277Y-82314330D01*
X115596659Y-82314233D01*
X115547371Y-82322857D01*
X115506145Y-82338937D01*
X115474709Y-82361204D01*
X115454795Y-82388393D01*
X115448133Y-82419237D01*
X115456452Y-82452470D01*
X115458384Y-82456269D01*
X115464030Y-82464711D01*
X115472565Y-82472601D01*
X115485732Y-82480596D01*
X115505275Y-82489351D01*
X115532938Y-82499524D01*
X115570464Y-82511771D01*
X115619596Y-82526748D01*
X115682080Y-82545112D01*
X115735078Y-82560444D01*
X115796000Y-82578337D01*
X115853690Y-82595907D01*
X115905493Y-82612297D01*
X115948754Y-82626650D01*
X115980817Y-82638109D01*
X115998211Y-82645393D01*
X116041702Y-82674425D01*
X116081493Y-82713681D01*
X116113077Y-82758046D01*
X116129688Y-82794635D01*
X116141300Y-82852014D01*
X116142777Y-82916259D01*
X116134207Y-82980739D01*
X116126909Y-83008666D01*
X116107678Y-83055146D01*
X116079541Y-83103477D01*
X116046422Y-83147845D01*
X116012242Y-83182439D01*
X116006678Y-83186876D01*
X115951938Y-83219841D01*
X115884058Y-83246277D01*
X115805728Y-83265662D01*
X115719638Y-83277476D01*
X115628481Y-83281196D01*
X115541632Y-83276947D01*
X115475642Y-83267864D01*
X115410012Y-83253523D01*
X115350020Y-83235322D01*
X115300945Y-83214659D01*
X115295416Y-83211742D01*
X115236868Y-83170520D01*
X115188324Y-83117161D01*
X115151541Y-83054319D01*
X115128277Y-82984647D01*
X115122588Y-82950925D01*
X115117135Y-82904533D01*
X115398396Y-82904533D01*
X115416249Y-82946033D01*
X115436938Y-82984917D01*
X115462469Y-83013540D01*
X115495384Y-83033170D01*
X115538226Y-83045072D01*
X115593536Y-83050512D01*
X115627467Y-83051206D01*
X115695865Y-83047682D01*
X115753317Y-83037243D01*
X115798851Y-83020522D01*
X115831494Y-82998152D01*
X115850277Y-82970767D01*
X115854227Y-82939000D01*
X115845280Y-82909204D01*
X115838875Y-82897735D01*
X115830253Y-82887522D01*
X115817632Y-82877796D01*
X115799230Y-82867787D01*
X115773266Y-82856728D01*
X115737955Y-82843848D01*
X115691518Y-82828379D01*
X115632171Y-82809552D01*
X115568743Y-82789870D01*
X115510686Y-82771823D01*
X115455520Y-82754436D01*
X115406121Y-82738633D01*
X115365369Y-82725340D01*
X115336142Y-82715484D01*
X115325031Y-82711489D01*
X115267177Y-82682383D01*
X115222374Y-82643436D01*
X115188920Y-82593118D01*
X115185541Y-82586144D01*
X115166487Y-82527255D01*
X115159583Y-82461558D01*
X115164482Y-82393671D01*
X115180836Y-82328212D01*
X115208299Y-82269801D01*
X115209448Y-82267956D01*
X115250252Y-82217390D01*
X115304471Y-82172196D01*
X115368905Y-82134476D01*
X115440353Y-82106333D01*
X115466600Y-82099090D01*
X115503720Y-82093050D01*
X115552747Y-82089394D01*
X115608831Y-82088067D01*
X115667122Y-82089016D01*
G36*
X116774003Y-82090836D02*
X116838401Y-82100738D01*
X116896546Y-82118721D01*
X116953291Y-82145994D01*
X116969433Y-82155366D01*
X117042213Y-82208254D01*
X117102758Y-82272345D01*
X117151169Y-82347840D01*
X117187551Y-82434940D01*
X117212005Y-82533847D01*
X117224634Y-82644762D01*
X117225268Y-82656883D01*
X117230130Y-82760600D01*
X116465195Y-82760600D01*
X116470827Y-82817750D01*
X116484030Y-82890754D01*
X116507911Y-82951706D01*
X116542163Y-82999843D01*
X116545267Y-83003042D01*
X116576968Y-83029323D01*
X116612320Y-83046052D01*
X116655667Y-83054712D01*
X116702733Y-83056839D01*
X116765020Y-83052454D01*
X116815519Y-83038323D01*
X116857214Y-83012982D01*
X116893087Y-82974969D01*
X116905533Y-82957320D01*
X116934766Y-82913000D01*
X117072750Y-82913000D01*
X117127521Y-82913014D01*
X117167010Y-82913963D01*
X117192861Y-82917209D01*
X117206720Y-82924111D01*
X117210232Y-82936030D01*
X117205042Y-82954328D01*
X117192796Y-82980363D01*
X117181430Y-83002879D01*
X117134840Y-83077267D01*
X117075853Y-83141355D01*
X117006079Y-83194366D01*
X116927123Y-83235520D01*
X116840593Y-83264039D01*
X116748098Y-83279144D01*
X116651244Y-83280056D01*
X116615989Y-83276804D01*
X116530901Y-83259535D01*
X116451668Y-83229378D01*
X116381059Y-83187709D01*
X116321843Y-83135904D01*
X116313097Y-83126176D01*
X116285385Y-83088486D01*
X116256845Y-83040019D01*
X116230388Y-82986511D01*
X116208926Y-82933702D01*
X116198455Y-82900300D01*
X116190770Y-82860374D01*
X116184878Y-82808543D01*
X116180985Y-82749757D01*
X116179296Y-82688970D01*
X116180016Y-82631134D01*
X116183353Y-82581202D01*
X116184725Y-82569744D01*
X116190314Y-82542090D01*
X116474401Y-82542090D01*
X116478275Y-82552252D01*
X116489040Y-82559077D01*
X116508395Y-82563214D01*
X116538038Y-82565313D01*
X116579668Y-82566022D01*
X116634982Y-82565991D01*
X116698500Y-82565867D01*
X116922866Y-82565867D01*
X116922866Y-82545592D01*
X116920406Y-82527073D01*
X116913994Y-82498981D01*
X116906137Y-82471154D01*
X116883633Y-82418917D01*
X116851808Y-82373679D01*
X116813806Y-82339523D01*
X116797073Y-82329620D01*
X116747135Y-82312512D01*
X116692706Y-82307309D01*
X116639013Y-82313780D01*
X116591283Y-82331696D01*
X116578990Y-82339213D01*
X116547358Y-82368607D01*
X116518587Y-82409723D01*
X116495954Y-82457353D01*
X116487140Y-82485095D01*
X116480532Y-82509161D01*
X116475719Y-82527943D01*
X116474401Y-82542090D01*
X116190314Y-82542090D01*
X116205372Y-82467594D01*
X116238184Y-82375809D01*
X116282749Y-82295079D01*
X116338653Y-82226092D01*
X116405484Y-82169539D01*
X116436033Y-82150057D01*
X116493590Y-82121297D01*
X116553291Y-82102047D01*
X116619636Y-82091239D01*
X116697128Y-82087805D01*
X116698500Y-82087805D01*
X116774003Y-82090836D01*
X116774003Y-82090836D01*
G37*
X116774003Y-82090836D02*
X116838401Y-82100738D01*
X116896546Y-82118721D01*
X116953291Y-82145994D01*
X116969433Y-82155366D01*
X117042213Y-82208254D01*
X117102758Y-82272345D01*
X117151169Y-82347840D01*
X117187551Y-82434940D01*
X117212005Y-82533847D01*
X117224634Y-82644762D01*
X117225268Y-82656883D01*
X117230130Y-82760600D01*
X116465195Y-82760600D01*
X116470827Y-82817750D01*
X116484030Y-82890754D01*
X116507911Y-82951706D01*
X116542163Y-82999843D01*
X116545267Y-83003042D01*
X116576968Y-83029323D01*
X116612320Y-83046052D01*
X116655667Y-83054712D01*
X116702733Y-83056839D01*
X116765020Y-83052454D01*
X116815519Y-83038323D01*
X116857214Y-83012982D01*
X116893087Y-82974969D01*
X116905533Y-82957320D01*
X116934766Y-82913000D01*
X117072750Y-82913000D01*
X117127521Y-82913014D01*
X117167010Y-82913963D01*
X117192861Y-82917209D01*
X117206720Y-82924111D01*
X117210232Y-82936030D01*
X117205042Y-82954328D01*
X117192796Y-82980363D01*
X117181430Y-83002879D01*
X117134840Y-83077267D01*
X117075853Y-83141355D01*
X117006079Y-83194366D01*
X116927123Y-83235520D01*
X116840593Y-83264039D01*
X116748098Y-83279144D01*
X116651244Y-83280056D01*
X116615989Y-83276804D01*
X116530901Y-83259535D01*
X116451668Y-83229378D01*
X116381059Y-83187709D01*
X116321843Y-83135904D01*
X116313097Y-83126176D01*
X116285385Y-83088486D01*
X116256845Y-83040019D01*
X116230388Y-82986511D01*
X116208926Y-82933702D01*
X116198455Y-82900300D01*
X116190770Y-82860374D01*
X116184878Y-82808543D01*
X116180985Y-82749757D01*
X116179296Y-82688970D01*
X116180016Y-82631134D01*
X116183353Y-82581202D01*
X116184725Y-82569744D01*
X116190314Y-82542090D01*
X116474401Y-82542090D01*
X116478275Y-82552252D01*
X116489040Y-82559077D01*
X116508395Y-82563214D01*
X116538038Y-82565313D01*
X116579668Y-82566022D01*
X116634982Y-82565991D01*
X116698500Y-82565867D01*
X116922866Y-82565867D01*
X116922866Y-82545592D01*
X116920406Y-82527073D01*
X116913994Y-82498981D01*
X116906137Y-82471154D01*
X116883633Y-82418917D01*
X116851808Y-82373679D01*
X116813806Y-82339523D01*
X116797073Y-82329620D01*
X116747135Y-82312512D01*
X116692706Y-82307309D01*
X116639013Y-82313780D01*
X116591283Y-82331696D01*
X116578990Y-82339213D01*
X116547358Y-82368607D01*
X116518587Y-82409723D01*
X116495954Y-82457353D01*
X116487140Y-82485095D01*
X116480532Y-82509161D01*
X116475719Y-82527943D01*
X116474401Y-82542090D01*
X116190314Y-82542090D01*
X116205372Y-82467594D01*
X116238184Y-82375809D01*
X116282749Y-82295079D01*
X116338653Y-82226092D01*
X116405484Y-82169539D01*
X116436033Y-82150057D01*
X116493590Y-82121297D01*
X116553291Y-82102047D01*
X116619636Y-82091239D01*
X116697128Y-82087805D01*
X116698500Y-82087805D01*
X116774003Y-82090836D01*
G36*
X118819400Y-82125600D02*
X118988733Y-82125600D01*
X118988733Y-82320333D01*
X118818205Y-82320333D01*
X118821066Y-82661117D01*
X118821894Y-82751237D01*
X118822839Y-82825937D01*
X118824072Y-82886730D01*
X118825762Y-82935130D01*
X118828078Y-82972649D01*
X118831191Y-83000800D01*
X118835270Y-83021098D01*
X118840484Y-83035054D01*
X118847003Y-83044183D01*
X118854998Y-83049997D01*
X118864637Y-83054010D01*
X118865135Y-83054180D01*
X118882943Y-83057242D01*
X118910872Y-83058984D01*
X118935817Y-83059112D01*
X118988733Y-83058006D01*
X118988733Y-83158499D01*
X118988890Y-83202560D01*
X118987641Y-83232711D01*
X118982407Y-83251932D01*
X118970609Y-83263207D01*
X118949666Y-83269516D01*
X118917001Y-83273842D01*
X118885999Y-83277261D01*
X118849384Y-83281370D01*
X118823784Y-83283553D01*
X118803387Y-83283791D01*
X118782383Y-83282066D01*
X118754961Y-83278359D01*
X118744250Y-83276805D01*
X118681310Y-83260300D01*
X118627562Y-83231212D01*
X118584645Y-83190971D01*
X118554195Y-83141009D01*
X118540731Y-83098988D01*
X118538264Y-83078370D01*
X118536151Y-83041687D01*
X118534411Y-82989799D01*
X118533063Y-82923572D01*
X118532127Y-82843867D01*
X118531622Y-82751548D01*
X118531533Y-82688216D01*
X118531533Y-82320333D01*
X118387600Y-82320333D01*
X118387600Y-82125600D01*
X118531533Y-82125600D01*
X118531533Y-81820800D01*
X118819400Y-81820800D01*
X118819400Y-82125600D01*
X118819400Y-82125600D01*
G37*
X118819400Y-82125600D02*
X118988733Y-82125600D01*
X118988733Y-82320333D01*
X118818205Y-82320333D01*
X118821066Y-82661117D01*
X118821894Y-82751237D01*
X118822839Y-82825937D01*
X118824072Y-82886730D01*
X118825762Y-82935130D01*
X118828078Y-82972649D01*
X118831191Y-83000800D01*
X118835270Y-83021098D01*
X118840484Y-83035054D01*
X118847003Y-83044183D01*
X118854998Y-83049997D01*
X118864637Y-83054010D01*
X118865135Y-83054180D01*
X118882943Y-83057242D01*
X118910872Y-83058984D01*
X118935817Y-83059112D01*
X118988733Y-83058006D01*
X118988733Y-83158499D01*
X118988890Y-83202560D01*
X118987641Y-83232711D01*
X118982407Y-83251932D01*
X118970609Y-83263207D01*
X118949666Y-83269516D01*
X118917001Y-83273842D01*
X118885999Y-83277261D01*
X118849384Y-83281370D01*
X118823784Y-83283553D01*
X118803387Y-83283791D01*
X118782383Y-83282066D01*
X118754961Y-83278359D01*
X118744250Y-83276805D01*
X118681310Y-83260300D01*
X118627562Y-83231212D01*
X118584645Y-83190971D01*
X118554195Y-83141009D01*
X118540731Y-83098988D01*
X118538264Y-83078370D01*
X118536151Y-83041687D01*
X118534411Y-82989799D01*
X118533063Y-82923572D01*
X118532127Y-82843867D01*
X118531622Y-82751548D01*
X118531533Y-82688216D01*
X118531533Y-82320333D01*
X118387600Y-82320333D01*
X118387600Y-82125600D01*
X118531533Y-82125600D01*
X118531533Y-81820800D01*
X118819400Y-81820800D01*
X118819400Y-82125600D01*
G36*
X112475750Y-81702485D02*
X112583254Y-81702775D01*
X112675480Y-81703605D01*
X112754080Y-81705144D01*
X112820706Y-81707562D01*
X112877008Y-81711028D01*
X112924640Y-81715712D01*
X112965251Y-81721784D01*
X113000495Y-81729412D01*
X113032022Y-81738768D01*
X113061484Y-81750019D01*
X113090533Y-81763336D01*
X113096315Y-81766201D01*
X113155127Y-81804669D01*
X113206937Y-81856499D01*
X113249674Y-81918855D01*
X113281270Y-81988901D01*
X113295182Y-82038755D01*
X113302941Y-82092253D01*
X113306547Y-82155354D01*
X113306009Y-82221247D01*
X113301337Y-82283119D01*
X113294803Y-82324324D01*
X113268652Y-82410567D01*
X113229151Y-82487688D01*
X113177277Y-82554486D01*
X113114009Y-82609762D01*
X113040323Y-82652316D01*
X113020625Y-82660732D01*
X113006210Y-82666141D01*
X112991587Y-82670474D01*
X112974633Y-82673893D01*
X112953227Y-82676562D01*
X112925247Y-82678642D01*
X112888572Y-82680297D01*
X112841079Y-82681688D01*
X112780646Y-82682980D01*
X112714933Y-82684165D01*
X112456700Y-82688633D01*
X112452232Y-83234733D01*
X112147667Y-83234733D01*
X112147667Y-82303262D01*
X112453907Y-82303262D01*
X112454162Y-82350097D01*
X112454736Y-82386880D01*
X112455604Y-82411228D01*
X112456605Y-82420506D01*
X112466485Y-82424835D01*
X112490402Y-82427894D01*
X112525510Y-82429757D01*
X112568967Y-82430495D01*
X112617927Y-82430181D01*
X112669548Y-82428889D01*
X112720986Y-82426691D01*
X112769396Y-82423659D01*
X112811934Y-82419867D01*
X112845757Y-82415387D01*
X112868020Y-82410291D01*
X112868947Y-82409960D01*
X112908542Y-82388190D01*
X112944698Y-82355587D01*
X112972722Y-82317145D01*
X112986250Y-82285117D01*
X112990713Y-82257814D01*
X112993051Y-82220376D01*
X112992871Y-82179513D01*
X112992676Y-82174997D01*
X112986083Y-82116890D01*
X112971390Y-82071489D01*
X112946885Y-82035821D01*
X112910857Y-82006909D01*
X112888849Y-81994496D01*
X112838961Y-81968966D01*
X112456700Y-81968966D01*
X112454436Y-82188961D01*
X112453990Y-82248756D01*
X112453907Y-82303262D01*
X112147667Y-82303262D01*
X112147667Y-81702266D01*
X112475750Y-81702485D01*
X112475750Y-81702485D01*
G37*
X112475750Y-81702485D02*
X112583254Y-81702775D01*
X112675480Y-81703605D01*
X112754080Y-81705144D01*
X112820706Y-81707562D01*
X112877008Y-81711028D01*
X112924640Y-81715712D01*
X112965251Y-81721784D01*
X113000495Y-81729412D01*
X113032022Y-81738768D01*
X113061484Y-81750019D01*
X113090533Y-81763336D01*
X113096315Y-81766201D01*
X113155127Y-81804669D01*
X113206937Y-81856499D01*
X113249674Y-81918855D01*
X113281270Y-81988901D01*
X113295182Y-82038755D01*
X113302941Y-82092253D01*
X113306547Y-82155354D01*
X113306009Y-82221247D01*
X113301337Y-82283119D01*
X113294803Y-82324324D01*
X113268652Y-82410567D01*
X113229151Y-82487688D01*
X113177277Y-82554486D01*
X113114009Y-82609762D01*
X113040323Y-82652316D01*
X113020625Y-82660732D01*
X113006210Y-82666141D01*
X112991587Y-82670474D01*
X112974633Y-82673893D01*
X112953227Y-82676562D01*
X112925247Y-82678642D01*
X112888572Y-82680297D01*
X112841079Y-82681688D01*
X112780646Y-82682980D01*
X112714933Y-82684165D01*
X112456700Y-82688633D01*
X112452232Y-83234733D01*
X112147667Y-83234733D01*
X112147667Y-82303262D01*
X112453907Y-82303262D01*
X112454162Y-82350097D01*
X112454736Y-82386880D01*
X112455604Y-82411228D01*
X112456605Y-82420506D01*
X112466485Y-82424835D01*
X112490402Y-82427894D01*
X112525510Y-82429757D01*
X112568967Y-82430495D01*
X112617927Y-82430181D01*
X112669548Y-82428889D01*
X112720986Y-82426691D01*
X112769396Y-82423659D01*
X112811934Y-82419867D01*
X112845757Y-82415387D01*
X112868020Y-82410291D01*
X112868947Y-82409960D01*
X112908542Y-82388190D01*
X112944698Y-82355587D01*
X112972722Y-82317145D01*
X112986250Y-82285117D01*
X112990713Y-82257814D01*
X112993051Y-82220376D01*
X112992871Y-82179513D01*
X112992676Y-82174997D01*
X112986083Y-82116890D01*
X112971390Y-82071489D01*
X112946885Y-82035821D01*
X112910857Y-82006909D01*
X112888849Y-81994496D01*
X112838961Y-81968966D01*
X112456700Y-81968966D01*
X112454436Y-82188961D01*
X112453990Y-82248756D01*
X112453907Y-82303262D01*
X112147667Y-82303262D01*
X112147667Y-81702266D01*
X112475750Y-81702485D01*
G36*
X114044200Y-82376203D02*
X113957417Y-82376201D01*
X113892906Y-82379462D01*
X113841128Y-82389981D01*
X113799039Y-82408850D01*
X113763600Y-82437165D01*
X113751541Y-82450281D01*
X113738698Y-82465927D01*
X113728047Y-82481268D01*
X113719383Y-82498000D01*
X113712501Y-82517816D01*
X113707198Y-82542414D01*
X113703269Y-82573488D01*
X113700509Y-82612733D01*
X113698713Y-82661846D01*
X113697677Y-82722521D01*
X113697197Y-82796454D01*
X113697068Y-82885340D01*
X113697067Y-82901837D01*
X113697067Y-83234733D01*
X113400733Y-83234733D01*
X113400733Y-82100200D01*
X113697067Y-82100200D01*
X113697067Y-82315104D01*
X113727216Y-82264802D01*
X113775258Y-82198151D01*
X113830294Y-82146623D01*
X113892002Y-82110438D01*
X113960062Y-82089819D01*
X113987051Y-82086154D01*
X114044200Y-82080818D01*
X114044200Y-82376203D01*
X114044200Y-82376203D01*
G37*
X114044200Y-82376203D02*
X113957417Y-82376201D01*
X113892906Y-82379462D01*
X113841128Y-82389981D01*
X113799039Y-82408850D01*
X113763600Y-82437165D01*
X113751541Y-82450281D01*
X113738698Y-82465927D01*
X113728047Y-82481268D01*
X113719383Y-82498000D01*
X113712501Y-82517816D01*
X113707198Y-82542414D01*
X113703269Y-82573488D01*
X113700509Y-82612733D01*
X113698713Y-82661846D01*
X113697677Y-82722521D01*
X113697197Y-82796454D01*
X113697068Y-82885340D01*
X113697067Y-82901837D01*
X113697067Y-83234733D01*
X113400733Y-83234733D01*
X113400733Y-82100200D01*
X113697067Y-82100200D01*
X113697067Y-82315104D01*
X113727216Y-82264802D01*
X113775258Y-82198151D01*
X113830294Y-82146623D01*
X113892002Y-82110438D01*
X113960062Y-82089819D01*
X113987051Y-82086154D01*
X114044200Y-82080818D01*
X114044200Y-82376203D01*
G36*
X118001223Y-82086658D02*
X118059774Y-82095725D01*
X118133206Y-82118978D01*
X118195919Y-82155333D01*
X118247880Y-82204764D01*
X118289057Y-82267248D01*
X118290703Y-82270460D01*
X118300556Y-82291192D01*
X118308893Y-82312382D01*
X118315837Y-82335593D01*
X118321517Y-82362391D01*
X118326056Y-82394340D01*
X118329583Y-82433004D01*
X118332223Y-82479949D01*
X118334101Y-82536740D01*
X118335344Y-82604940D01*
X118336079Y-82686115D01*
X118336430Y-82781829D01*
X118336504Y-82838917D01*
X118336800Y-83234733D01*
X118040467Y-83234733D01*
X118040467Y-82467303D01*
X118017183Y-82421335D01*
X117992316Y-82382636D01*
X117961725Y-82356190D01*
X117922565Y-82340503D01*
X117871985Y-82334084D01*
X117849967Y-82333758D01*
X117788960Y-82338787D01*
X117739120Y-82353686D01*
X117697031Y-82379717D01*
X117677788Y-82397339D01*
X117664803Y-82410491D01*
X117653979Y-82422165D01*
X117645108Y-82433968D01*
X117637986Y-82447506D01*
X117632406Y-82464383D01*
X117628162Y-82486207D01*
X117625048Y-82514584D01*
X117622857Y-82551118D01*
X117621383Y-82597417D01*
X117620420Y-82655085D01*
X117619762Y-82725729D01*
X117619203Y-82810956D01*
X117618920Y-82855850D01*
X117616474Y-83234733D01*
X117320800Y-83234733D01*
X117320800Y-82100200D01*
X117617133Y-82100200D01*
X117617133Y-82263450D01*
X117644650Y-82228966D01*
X117700346Y-82172177D01*
X117765180Y-82129125D01*
X117837823Y-82100237D01*
X117916948Y-82085939D01*
X118001223Y-82086658D01*
X118001223Y-82086658D01*
G37*
X118001223Y-82086658D02*
X118059774Y-82095725D01*
X118133206Y-82118978D01*
X118195919Y-82155333D01*
X118247880Y-82204764D01*
X118289057Y-82267248D01*
X118290703Y-82270460D01*
X118300556Y-82291192D01*
X118308893Y-82312382D01*
X118315837Y-82335593D01*
X118321517Y-82362391D01*
X118326056Y-82394340D01*
X118329583Y-82433004D01*
X118332223Y-82479949D01*
X118334101Y-82536740D01*
X118335344Y-82604940D01*
X118336079Y-82686115D01*
X118336430Y-82781829D01*
X118336504Y-82838917D01*
X118336800Y-83234733D01*
X118040467Y-83234733D01*
X118040467Y-82467303D01*
X118017183Y-82421335D01*
X117992316Y-82382636D01*
X117961725Y-82356190D01*
X117922565Y-82340503D01*
X117871985Y-82334084D01*
X117849967Y-82333758D01*
X117788960Y-82338787D01*
X117739120Y-82353686D01*
X117697031Y-82379717D01*
X117677788Y-82397339D01*
X117664803Y-82410491D01*
X117653979Y-82422165D01*
X117645108Y-82433968D01*
X117637986Y-82447506D01*
X117632406Y-82464383D01*
X117628162Y-82486207D01*
X117625048Y-82514584D01*
X117622857Y-82551118D01*
X117621383Y-82597417D01*
X117620420Y-82655085D01*
X117619762Y-82725729D01*
X117619203Y-82810956D01*
X117618920Y-82855850D01*
X117616474Y-83234733D01*
X117320800Y-83234733D01*
X117320800Y-82100200D01*
X117617133Y-82100200D01*
X117617133Y-82263450D01*
X117644650Y-82228966D01*
X117700346Y-82172177D01*
X117765180Y-82129125D01*
X117837823Y-82100237D01*
X117916948Y-82085939D01*
X118001223Y-82086658D01*
G36*
X119335867Y-83234733D02*
X119022600Y-83234733D01*
X119022600Y-82929933D01*
X119335867Y-82929933D01*
X119335867Y-83234733D01*
X119335867Y-83234733D01*
G37*
X119335867Y-83234733D02*
X119022600Y-83234733D01*
X119022600Y-82929933D01*
X119335867Y-82929933D01*
X119335867Y-83234733D01*
G36*
X114297141Y-80096225D02*
X114352318Y-80101222D01*
X114382181Y-80106156D01*
X114464771Y-80130695D01*
X114537465Y-80166940D01*
X114599084Y-80213824D01*
X114648446Y-80270278D01*
X114684372Y-80335236D01*
X114703539Y-80396700D01*
X114709776Y-80425089D01*
X114713187Y-80445623D01*
X114711674Y-80459565D01*
X114703144Y-80468179D01*
X114685501Y-80472728D01*
X114656648Y-80474477D01*
X114614491Y-80474689D01*
X114574372Y-80474600D01*
X114435677Y-80474600D01*
X114425676Y-80434884D01*
X114406656Y-80392363D01*
X114374684Y-80357826D01*
X114333125Y-80334731D01*
X114325933Y-80332366D01*
X114292205Y-80325836D01*
X114249932Y-80322674D01*
X114204944Y-80322798D01*
X114163071Y-80326122D01*
X114130143Y-80332562D01*
X114122360Y-80335304D01*
X114084308Y-80357168D01*
X114058991Y-80384080D01*
X114046900Y-80413488D01*
X114048526Y-80442843D01*
X114064361Y-80469596D01*
X114092542Y-80490042D01*
X114109357Y-80496771D01*
X114139877Y-80507261D01*
X114181506Y-80520691D01*
X114231648Y-80536238D01*
X114287707Y-80553078D01*
X114336300Y-80567284D01*
X114409985Y-80588681D01*
X114469393Y-80606353D01*
X114516561Y-80621116D01*
X114553525Y-80633783D01*
X114582324Y-80645168D01*
X114604994Y-80656084D01*
X114623572Y-80667346D01*
X114640094Y-80679766D01*
X114656599Y-80694160D01*
X114658715Y-80696095D01*
X114698611Y-80743507D01*
X114725380Y-80798607D01*
X114739531Y-80859045D01*
X114741574Y-80922469D01*
X114732017Y-80986528D01*
X114711368Y-81048872D01*
X114680138Y-81107148D01*
X114638834Y-81159006D01*
X114587966Y-81202094D01*
X114543733Y-81227292D01*
X114506363Y-81243131D01*
X114465832Y-81257993D01*
X114437900Y-81266659D01*
X114405373Y-81272848D01*
X114360342Y-81277857D01*
X114307202Y-81281536D01*
X114250350Y-81283733D01*
X114194184Y-81284299D01*
X114143099Y-81283084D01*
X114101493Y-81279936D01*
X114091096Y-81278527D01*
X113996729Y-81257888D01*
X113916205Y-81227592D01*
X113849359Y-81187496D01*
X113796024Y-81137455D01*
X113756034Y-81077325D01*
X113729224Y-81006962D01*
X113718703Y-80955083D01*
X113712962Y-80914866D01*
X113999566Y-80914866D01*
X114013966Y-80952572D01*
X114039042Y-80996496D01*
X114076107Y-81028486D01*
X114125039Y-81048442D01*
X114134707Y-81050668D01*
X114176086Y-81056017D01*
X114225135Y-81057454D01*
X114276239Y-81055283D01*
X114323786Y-81049811D01*
X114362161Y-81041341D01*
X114372315Y-81037754D01*
X114409895Y-81016388D01*
X114435762Y-80989202D01*
X114448863Y-80958861D01*
X114448142Y-80928031D01*
X114432544Y-80899378D01*
X114428698Y-80895274D01*
X114419853Y-80887018D01*
X114409836Y-80879542D01*
X114396794Y-80872152D01*
X114378875Y-80864156D01*
X114354225Y-80854861D01*
X114320991Y-80843574D01*
X114277320Y-80829601D01*
X114221359Y-80812249D01*
X114151256Y-80790826D01*
X114141567Y-80787876D01*
X114083232Y-80769658D01*
X114027020Y-80751254D01*
X113976068Y-80733757D01*
X113933512Y-80718256D01*
X113902489Y-80705845D01*
X113892175Y-80701084D01*
X113838781Y-80666280D01*
X113799024Y-80622231D01*
X113772638Y-80568409D01*
X113759357Y-80504285D01*
X113758519Y-80435164D01*
X113771118Y-80359855D01*
X113798480Y-80291902D01*
X113839681Y-80232291D01*
X113893792Y-80182010D01*
X113959889Y-80142047D01*
X114037045Y-80113391D01*
X114067171Y-80106070D01*
X114114324Y-80099131D01*
X114172279Y-80095178D01*
X114235173Y-80094210D01*
X114297141Y-80096225D01*
X114297141Y-80096225D01*
G37*
X114297141Y-80096225D02*
X114352318Y-80101222D01*
X114382181Y-80106156D01*
X114464771Y-80130695D01*
X114537465Y-80166940D01*
X114599084Y-80213824D01*
X114648446Y-80270278D01*
X114684372Y-80335236D01*
X114703539Y-80396700D01*
X114709776Y-80425089D01*
X114713187Y-80445623D01*
X114711674Y-80459565D01*
X114703144Y-80468179D01*
X114685501Y-80472728D01*
X114656648Y-80474477D01*
X114614491Y-80474689D01*
X114574372Y-80474600D01*
X114435677Y-80474600D01*
X114425676Y-80434884D01*
X114406656Y-80392363D01*
X114374684Y-80357826D01*
X114333125Y-80334731D01*
X114325933Y-80332366D01*
X114292205Y-80325836D01*
X114249932Y-80322674D01*
X114204944Y-80322798D01*
X114163071Y-80326122D01*
X114130143Y-80332562D01*
X114122360Y-80335304D01*
X114084308Y-80357168D01*
X114058991Y-80384080D01*
X114046900Y-80413488D01*
X114048526Y-80442843D01*
X114064361Y-80469596D01*
X114092542Y-80490042D01*
X114109357Y-80496771D01*
X114139877Y-80507261D01*
X114181506Y-80520691D01*
X114231648Y-80536238D01*
X114287707Y-80553078D01*
X114336300Y-80567284D01*
X114409985Y-80588681D01*
X114469393Y-80606353D01*
X114516561Y-80621116D01*
X114553525Y-80633783D01*
X114582324Y-80645168D01*
X114604994Y-80656084D01*
X114623572Y-80667346D01*
X114640094Y-80679766D01*
X114656599Y-80694160D01*
X114658715Y-80696095D01*
X114698611Y-80743507D01*
X114725380Y-80798607D01*
X114739531Y-80859045D01*
X114741574Y-80922469D01*
X114732017Y-80986528D01*
X114711368Y-81048872D01*
X114680138Y-81107148D01*
X114638834Y-81159006D01*
X114587966Y-81202094D01*
X114543733Y-81227292D01*
X114506363Y-81243131D01*
X114465832Y-81257993D01*
X114437900Y-81266659D01*
X114405373Y-81272848D01*
X114360342Y-81277857D01*
X114307202Y-81281536D01*
X114250350Y-81283733D01*
X114194184Y-81284299D01*
X114143099Y-81283084D01*
X114101493Y-81279936D01*
X114091096Y-81278527D01*
X113996729Y-81257888D01*
X113916205Y-81227592D01*
X113849359Y-81187496D01*
X113796024Y-81137455D01*
X113756034Y-81077325D01*
X113729224Y-81006962D01*
X113718703Y-80955083D01*
X113712962Y-80914866D01*
X113999566Y-80914866D01*
X114013966Y-80952572D01*
X114039042Y-80996496D01*
X114076107Y-81028486D01*
X114125039Y-81048442D01*
X114134707Y-81050668D01*
X114176086Y-81056017D01*
X114225135Y-81057454D01*
X114276239Y-81055283D01*
X114323786Y-81049811D01*
X114362161Y-81041341D01*
X114372315Y-81037754D01*
X114409895Y-81016388D01*
X114435762Y-80989202D01*
X114448863Y-80958861D01*
X114448142Y-80928031D01*
X114432544Y-80899378D01*
X114428698Y-80895274D01*
X114419853Y-80887018D01*
X114409836Y-80879542D01*
X114396794Y-80872152D01*
X114378875Y-80864156D01*
X114354225Y-80854861D01*
X114320991Y-80843574D01*
X114277320Y-80829601D01*
X114221359Y-80812249D01*
X114151256Y-80790826D01*
X114141567Y-80787876D01*
X114083232Y-80769658D01*
X114027020Y-80751254D01*
X113976068Y-80733757D01*
X113933512Y-80718256D01*
X113902489Y-80705845D01*
X113892175Y-80701084D01*
X113838781Y-80666280D01*
X113799024Y-80622231D01*
X113772638Y-80568409D01*
X113759357Y-80504285D01*
X113758519Y-80435164D01*
X113771118Y-80359855D01*
X113798480Y-80291902D01*
X113839681Y-80232291D01*
X113893792Y-80182010D01*
X113959889Y-80142047D01*
X114037045Y-80113391D01*
X114067171Y-80106070D01*
X114114324Y-80099131D01*
X114172279Y-80095178D01*
X114235173Y-80094210D01*
X114297141Y-80096225D01*
G36*
X116313266Y-81236600D02*
X116016933Y-81236600D01*
X116016933Y-81124205D01*
X115992007Y-81155570D01*
X115944882Y-81203851D01*
X115889055Y-81243161D01*
X115847600Y-81263074D01*
X115802947Y-81275288D01*
X115748471Y-81282740D01*
X115690679Y-81285134D01*
X115636083Y-81282174D01*
X115594551Y-81274548D01*
X115516099Y-81244046D01*
X115445673Y-81199491D01*
X115383982Y-81142101D01*
X115331735Y-81073094D01*
X115289641Y-80993688D01*
X115258408Y-80905100D01*
X115238745Y-80808548D01*
X115231362Y-80705251D01*
X115231379Y-80704380D01*
X115519997Y-80704380D01*
X115525279Y-80766383D01*
X115540822Y-80836334D01*
X115566287Y-80900022D01*
X115600090Y-80954909D01*
X115640650Y-80998458D01*
X115686384Y-81028131D01*
X115689317Y-81029440D01*
X115732983Y-81040631D01*
X115783052Y-81041131D01*
X115833138Y-81031350D01*
X115865649Y-81018158D01*
X115916832Y-80982105D01*
X115957324Y-80932992D01*
X115987140Y-80870788D01*
X116006296Y-80795462D01*
X116014257Y-80720133D01*
X116012968Y-80635350D01*
X116000714Y-80558277D01*
X115978187Y-80490287D01*
X115946078Y-80432751D01*
X115905080Y-80387041D01*
X115855885Y-80354527D01*
X115823476Y-80342142D01*
X115768166Y-80333876D01*
X115715956Y-80341008D01*
X115667829Y-80362138D01*
X115624771Y-80395864D01*
X115587767Y-80440785D01*
X115557803Y-80495499D01*
X115535863Y-80558603D01*
X115522933Y-80628698D01*
X115519997Y-80704380D01*
X115231379Y-80704380D01*
X115232448Y-80652400D01*
X115238114Y-80579002D01*
X115247918Y-80516635D01*
X115263232Y-80459624D01*
X115285428Y-80402294D01*
X115300969Y-80368766D01*
X115345522Y-80292302D01*
X115399467Y-80225722D01*
X115460829Y-80170848D01*
X115527633Y-80129504D01*
X115584553Y-80107131D01*
X115619746Y-80099858D01*
X115664340Y-80095080D01*
X115705470Y-80093600D01*
X115787715Y-80100493D01*
X115860402Y-80121269D01*
X115923875Y-80156078D01*
X115978480Y-80205066D01*
X115986284Y-80214072D01*
X116016602Y-80250233D01*
X116016767Y-79981417D01*
X116016933Y-79712600D01*
X116313266Y-79712600D01*
X116313266Y-81236600D01*
X116313266Y-81236600D01*
G37*
X116313266Y-81236600D02*
X116016933Y-81236600D01*
X116016933Y-81124205D01*
X115992007Y-81155570D01*
X115944882Y-81203851D01*
X115889055Y-81243161D01*
X115847600Y-81263074D01*
X115802947Y-81275288D01*
X115748471Y-81282740D01*
X115690679Y-81285134D01*
X115636083Y-81282174D01*
X115594551Y-81274548D01*
X115516099Y-81244046D01*
X115445673Y-81199491D01*
X115383982Y-81142101D01*
X115331735Y-81073094D01*
X115289641Y-80993688D01*
X115258408Y-80905100D01*
X115238745Y-80808548D01*
X115231362Y-80705251D01*
X115231379Y-80704380D01*
X115519997Y-80704380D01*
X115525279Y-80766383D01*
X115540822Y-80836334D01*
X115566287Y-80900022D01*
X115600090Y-80954909D01*
X115640650Y-80998458D01*
X115686384Y-81028131D01*
X115689317Y-81029440D01*
X115732983Y-81040631D01*
X115783052Y-81041131D01*
X115833138Y-81031350D01*
X115865649Y-81018158D01*
X115916832Y-80982105D01*
X115957324Y-80932992D01*
X115987140Y-80870788D01*
X116006296Y-80795462D01*
X116014257Y-80720133D01*
X116012968Y-80635350D01*
X116000714Y-80558277D01*
X115978187Y-80490287D01*
X115946078Y-80432751D01*
X115905080Y-80387041D01*
X115855885Y-80354527D01*
X115823476Y-80342142D01*
X115768166Y-80333876D01*
X115715956Y-80341008D01*
X115667829Y-80362138D01*
X115624771Y-80395864D01*
X115587767Y-80440785D01*
X115557803Y-80495499D01*
X115535863Y-80558603D01*
X115522933Y-80628698D01*
X115519997Y-80704380D01*
X115231379Y-80704380D01*
X115232448Y-80652400D01*
X115238114Y-80579002D01*
X115247918Y-80516635D01*
X115263232Y-80459624D01*
X115285428Y-80402294D01*
X115300969Y-80368766D01*
X115345522Y-80292302D01*
X115399467Y-80225722D01*
X115460829Y-80170848D01*
X115527633Y-80129504D01*
X115584553Y-80107131D01*
X115619746Y-80099858D01*
X115664340Y-80095080D01*
X115705470Y-80093600D01*
X115787715Y-80100493D01*
X115860402Y-80121269D01*
X115923875Y-80156078D01*
X115978480Y-80205066D01*
X115986284Y-80214072D01*
X116016602Y-80250233D01*
X116016767Y-79981417D01*
X116016933Y-79712600D01*
X116313266Y-79712600D01*
X116313266Y-81236600D01*
G36*
X116954928Y-80095203D02*
X117016467Y-80100226D01*
X117071531Y-80109080D01*
X117107931Y-80119025D01*
X117187281Y-80155761D01*
X117259283Y-80206224D01*
X117321378Y-80268176D01*
X117371003Y-80339375D01*
X117380863Y-80357767D01*
X117404984Y-80415718D01*
X117425632Y-80485428D01*
X117441758Y-80561898D01*
X117452317Y-80640128D01*
X117456261Y-80715118D01*
X117456266Y-80717794D01*
X117456266Y-80762466D01*
X116691782Y-80762466D01*
X116697086Y-80825219D01*
X116708766Y-80897976D01*
X116730515Y-80957239D01*
X116762584Y-81003312D01*
X116805224Y-81036497D01*
X116858686Y-81057098D01*
X116894436Y-81063363D01*
X116961238Y-81063966D01*
X117021673Y-81050581D01*
X117073961Y-81023971D01*
X117116320Y-80984899D01*
X117133070Y-80961174D01*
X117155700Y-80923868D01*
X117298087Y-80923601D01*
X117440474Y-80923333D01*
X117435068Y-80942383D01*
X117408201Y-81009028D01*
X117367204Y-81073790D01*
X117314838Y-81133541D01*
X117253859Y-81185149D01*
X117187028Y-81225485D01*
X117184479Y-81226720D01*
X117095816Y-81260610D01*
X117001273Y-81280909D01*
X116904965Y-81287119D01*
X116811008Y-81278744D01*
X116789166Y-81274487D01*
X116703296Y-81247781D01*
X116627022Y-81207336D01*
X116560867Y-81153707D01*
X116505350Y-81087450D01*
X116460992Y-81009120D01*
X116428313Y-80919273D01*
X116418283Y-80878638D01*
X116410847Y-80829736D01*
X116406413Y-80769572D01*
X116404971Y-80703547D01*
X116406511Y-80637061D01*
X116411022Y-80575515D01*
X116412314Y-80566657D01*
X116700010Y-80566657D01*
X116701106Y-80571750D01*
X116710996Y-80573472D01*
X116734959Y-80574772D01*
X116770254Y-80575670D01*
X116814141Y-80576187D01*
X116863878Y-80576343D01*
X116916724Y-80576159D01*
X116969939Y-80575655D01*
X117020782Y-80574850D01*
X117066511Y-80573767D01*
X117104385Y-80572424D01*
X117131665Y-80570843D01*
X117145608Y-80569044D01*
X117146796Y-80568441D01*
X117148306Y-80554154D01*
X117144691Y-80528950D01*
X117137138Y-80497627D01*
X117126834Y-80464982D01*
X117114965Y-80435810D01*
X117112971Y-80431729D01*
X117087481Y-80392841D01*
X117054177Y-80358489D01*
X117017809Y-80332998D01*
X116993316Y-80322810D01*
X116929905Y-80312664D01*
X116871740Y-80318143D01*
X116819991Y-80338436D01*
X116775823Y-80372735D01*
X116740404Y-80420229D01*
X116714903Y-80480108D01*
X116704591Y-80523067D01*
X116700914Y-80548630D01*
X116700010Y-80566657D01*
X116412314Y-80566657D01*
X116418493Y-80524311D01*
X116418980Y-80521948D01*
X116435638Y-80454313D01*
X116455857Y-80397174D01*
X116482250Y-80344121D01*
X116509179Y-80300895D01*
X116564773Y-80231200D01*
X116629099Y-80175829D01*
X116703156Y-80134078D01*
X116787064Y-80105465D01*
X116834668Y-80097587D01*
X116892476Y-80094245D01*
X116954928Y-80095203D01*
X116954928Y-80095203D01*
G37*
X116954928Y-80095203D02*
X117016467Y-80100226D01*
X117071531Y-80109080D01*
X117107931Y-80119025D01*
X117187281Y-80155761D01*
X117259283Y-80206224D01*
X117321378Y-80268176D01*
X117371003Y-80339375D01*
X117380863Y-80357767D01*
X117404984Y-80415718D01*
X117425632Y-80485428D01*
X117441758Y-80561898D01*
X117452317Y-80640128D01*
X117456261Y-80715118D01*
X117456266Y-80717794D01*
X117456266Y-80762466D01*
X116691782Y-80762466D01*
X116697086Y-80825219D01*
X116708766Y-80897976D01*
X116730515Y-80957239D01*
X116762584Y-81003312D01*
X116805224Y-81036497D01*
X116858686Y-81057098D01*
X116894436Y-81063363D01*
X116961238Y-81063966D01*
X117021673Y-81050581D01*
X117073961Y-81023971D01*
X117116320Y-80984899D01*
X117133070Y-80961174D01*
X117155700Y-80923868D01*
X117298087Y-80923601D01*
X117440474Y-80923333D01*
X117435068Y-80942383D01*
X117408201Y-81009028D01*
X117367204Y-81073790D01*
X117314838Y-81133541D01*
X117253859Y-81185149D01*
X117187028Y-81225485D01*
X117184479Y-81226720D01*
X117095816Y-81260610D01*
X117001273Y-81280909D01*
X116904965Y-81287119D01*
X116811008Y-81278744D01*
X116789166Y-81274487D01*
X116703296Y-81247781D01*
X116627022Y-81207336D01*
X116560867Y-81153707D01*
X116505350Y-81087450D01*
X116460992Y-81009120D01*
X116428313Y-80919273D01*
X116418283Y-80878638D01*
X116410847Y-80829736D01*
X116406413Y-80769572D01*
X116404971Y-80703547D01*
X116406511Y-80637061D01*
X116411022Y-80575515D01*
X116412314Y-80566657D01*
X116700010Y-80566657D01*
X116701106Y-80571750D01*
X116710996Y-80573472D01*
X116734959Y-80574772D01*
X116770254Y-80575670D01*
X116814141Y-80576187D01*
X116863878Y-80576343D01*
X116916724Y-80576159D01*
X116969939Y-80575655D01*
X117020782Y-80574850D01*
X117066511Y-80573767D01*
X117104385Y-80572424D01*
X117131665Y-80570843D01*
X117145608Y-80569044D01*
X117146796Y-80568441D01*
X117148306Y-80554154D01*
X117144691Y-80528950D01*
X117137138Y-80497627D01*
X117126834Y-80464982D01*
X117114965Y-80435810D01*
X117112971Y-80431729D01*
X117087481Y-80392841D01*
X117054177Y-80358489D01*
X117017809Y-80332998D01*
X116993316Y-80322810D01*
X116929905Y-80312664D01*
X116871740Y-80318143D01*
X116819991Y-80338436D01*
X116775823Y-80372735D01*
X116740404Y-80420229D01*
X116714903Y-80480108D01*
X116704591Y-80523067D01*
X116700914Y-80548630D01*
X116700010Y-80566657D01*
X116412314Y-80566657D01*
X116418493Y-80524311D01*
X116418980Y-80521948D01*
X116435638Y-80454313D01*
X116455857Y-80397174D01*
X116482250Y-80344121D01*
X116509179Y-80300895D01*
X116564773Y-80231200D01*
X116629099Y-80175829D01*
X116703156Y-80134078D01*
X116787064Y-80105465D01*
X116834668Y-80097587D01*
X116892476Y-80094245D01*
X116954928Y-80095203D01*
G36*
X118345267Y-80127467D02*
X118506133Y-80127467D01*
X118506133Y-80322200D01*
X118345267Y-80322200D01*
X118345267Y-80659603D01*
X118345505Y-80755676D01*
X118346210Y-80838125D01*
X118347366Y-80906331D01*
X118348957Y-80959674D01*
X118350969Y-80997534D01*
X118353386Y-81019293D01*
X118354283Y-81022870D01*
X118370297Y-81047271D01*
X118398391Y-81061708D01*
X118439502Y-81066568D01*
X118459062Y-81065963D01*
X118506156Y-81063033D01*
X118506145Y-81165881D01*
X118506133Y-81268728D01*
X118452523Y-81278064D01*
X118392608Y-81284991D01*
X118329743Y-81286268D01*
X118270538Y-81282019D01*
X118226733Y-81273814D01*
X118167032Y-81250455D01*
X118119851Y-81215695D01*
X118085166Y-81169509D01*
X118062951Y-81111866D01*
X118058200Y-81089461D01*
X118055763Y-81066327D01*
X118053652Y-81027507D01*
X118051895Y-80974241D01*
X118050520Y-80907773D01*
X118049555Y-80829347D01*
X118049028Y-80740204D01*
X118048933Y-80679223D01*
X118048933Y-80322200D01*
X117904445Y-80322200D01*
X117909233Y-80131700D01*
X118048933Y-80126782D01*
X118048933Y-79831133D01*
X118345267Y-79831133D01*
X118345267Y-80127467D01*
X118345267Y-80127467D01*
G37*
X118345267Y-80127467D02*
X118506133Y-80127467D01*
X118506133Y-80322200D01*
X118345267Y-80322200D01*
X118345267Y-80659603D01*
X118345505Y-80755676D01*
X118346210Y-80838125D01*
X118347366Y-80906331D01*
X118348957Y-80959674D01*
X118350969Y-80997534D01*
X118353386Y-81019293D01*
X118354283Y-81022870D01*
X118370297Y-81047271D01*
X118398391Y-81061708D01*
X118439502Y-81066568D01*
X118459062Y-81065963D01*
X118506156Y-81063033D01*
X118506145Y-81165881D01*
X118506133Y-81268728D01*
X118452523Y-81278064D01*
X118392608Y-81284991D01*
X118329743Y-81286268D01*
X118270538Y-81282019D01*
X118226733Y-81273814D01*
X118167032Y-81250455D01*
X118119851Y-81215695D01*
X118085166Y-81169509D01*
X118062951Y-81111866D01*
X118058200Y-81089461D01*
X118055763Y-81066327D01*
X118053652Y-81027507D01*
X118051895Y-80974241D01*
X118050520Y-80907773D01*
X118049555Y-80829347D01*
X118049028Y-80740204D01*
X118048933Y-80679223D01*
X118048933Y-80322200D01*
X117904445Y-80322200D01*
X117909233Y-80131700D01*
X118048933Y-80126782D01*
X118048933Y-79831133D01*
X118345267Y-79831133D01*
X118345267Y-80127467D01*
G36*
X120269351Y-80098294D02*
X120345696Y-80113201D01*
X120415455Y-80139558D01*
X120482513Y-80178603D01*
X120508607Y-80197411D01*
X120569065Y-80252946D01*
X120618830Y-80320137D01*
X120658105Y-80399452D01*
X120687091Y-80491359D01*
X120705988Y-80596329D01*
X120713070Y-80673614D01*
X120718506Y-80762466D01*
X119951448Y-80762466D01*
X119956750Y-80825183D01*
X119968547Y-80898287D01*
X119990538Y-80957943D01*
X120022881Y-81004341D01*
X120065735Y-81037674D01*
X120119258Y-81058131D01*
X120154980Y-81064144D01*
X120221537Y-81064143D01*
X120281923Y-81050275D01*
X120334201Y-81023379D01*
X120376433Y-80984295D01*
X120392737Y-80961174D01*
X120415367Y-80923868D01*
X120557754Y-80923601D01*
X120700141Y-80923333D01*
X120694438Y-80942383D01*
X120665383Y-81012267D01*
X120622157Y-81079202D01*
X120567523Y-81140051D01*
X120504240Y-81191676D01*
X120444146Y-81226720D01*
X120355483Y-81260610D01*
X120260940Y-81280909D01*
X120164632Y-81287119D01*
X120070675Y-81278744D01*
X120048833Y-81274487D01*
X119964021Y-81248028D01*
X119888617Y-81208017D01*
X119823110Y-81155297D01*
X119767988Y-81090709D01*
X119723740Y-81015096D01*
X119690855Y-80929301D01*
X119669821Y-80834164D01*
X119661128Y-80730529D01*
X119665263Y-80619238D01*
X119665736Y-80614300D01*
X119672815Y-80566657D01*
X119959677Y-80566657D01*
X119960773Y-80571750D01*
X119970662Y-80573472D01*
X119994625Y-80574772D01*
X120029921Y-80575670D01*
X120073807Y-80576187D01*
X120123544Y-80576343D01*
X120176391Y-80576159D01*
X120229606Y-80575655D01*
X120280448Y-80574850D01*
X120326177Y-80573767D01*
X120364052Y-80572424D01*
X120391331Y-80570843D01*
X120405274Y-80569044D01*
X120406463Y-80568441D01*
X120407973Y-80554154D01*
X120404358Y-80528950D01*
X120396805Y-80497627D01*
X120386500Y-80464982D01*
X120374631Y-80435810D01*
X120372638Y-80431729D01*
X120347148Y-80392841D01*
X120313843Y-80358489D01*
X120277476Y-80332998D01*
X120252982Y-80322810D01*
X120189571Y-80312664D01*
X120131407Y-80318143D01*
X120079657Y-80338436D01*
X120035489Y-80372735D01*
X120000071Y-80420229D01*
X119974570Y-80480108D01*
X119964257Y-80523067D01*
X119960580Y-80548630D01*
X119959677Y-80566657D01*
X119672815Y-80566657D01*
X119680900Y-80512248D01*
X119705528Y-80422895D01*
X119740381Y-80344414D01*
X119786219Y-80274976D01*
X119825533Y-80230486D01*
X119886583Y-80177420D01*
X119952457Y-80138071D01*
X120025385Y-80111586D01*
X120107594Y-80097109D01*
X120182533Y-80093600D01*
X120269351Y-80098294D01*
X120269351Y-80098294D01*
G37*
X120269351Y-80098294D02*
X120345696Y-80113201D01*
X120415455Y-80139558D01*
X120482513Y-80178603D01*
X120508607Y-80197411D01*
X120569065Y-80252946D01*
X120618830Y-80320137D01*
X120658105Y-80399452D01*
X120687091Y-80491359D01*
X120705988Y-80596329D01*
X120713070Y-80673614D01*
X120718506Y-80762466D01*
X119951448Y-80762466D01*
X119956750Y-80825183D01*
X119968547Y-80898287D01*
X119990538Y-80957943D01*
X120022881Y-81004341D01*
X120065735Y-81037674D01*
X120119258Y-81058131D01*
X120154980Y-81064144D01*
X120221537Y-81064143D01*
X120281923Y-81050275D01*
X120334201Y-81023379D01*
X120376433Y-80984295D01*
X120392737Y-80961174D01*
X120415367Y-80923868D01*
X120557754Y-80923601D01*
X120700141Y-80923333D01*
X120694438Y-80942383D01*
X120665383Y-81012267D01*
X120622157Y-81079202D01*
X120567523Y-81140051D01*
X120504240Y-81191676D01*
X120444146Y-81226720D01*
X120355483Y-81260610D01*
X120260940Y-81280909D01*
X120164632Y-81287119D01*
X120070675Y-81278744D01*
X120048833Y-81274487D01*
X119964021Y-81248028D01*
X119888617Y-81208017D01*
X119823110Y-81155297D01*
X119767988Y-81090709D01*
X119723740Y-81015096D01*
X119690855Y-80929301D01*
X119669821Y-80834164D01*
X119661128Y-80730529D01*
X119665263Y-80619238D01*
X119665736Y-80614300D01*
X119672815Y-80566657D01*
X119959677Y-80566657D01*
X119960773Y-80571750D01*
X119970662Y-80573472D01*
X119994625Y-80574772D01*
X120029921Y-80575670D01*
X120073807Y-80576187D01*
X120123544Y-80576343D01*
X120176391Y-80576159D01*
X120229606Y-80575655D01*
X120280448Y-80574850D01*
X120326177Y-80573767D01*
X120364052Y-80572424D01*
X120391331Y-80570843D01*
X120405274Y-80569044D01*
X120406463Y-80568441D01*
X120407973Y-80554154D01*
X120404358Y-80528950D01*
X120396805Y-80497627D01*
X120386500Y-80464982D01*
X120374631Y-80435810D01*
X120372638Y-80431729D01*
X120347148Y-80392841D01*
X120313843Y-80358489D01*
X120277476Y-80332998D01*
X120252982Y-80322810D01*
X120189571Y-80312664D01*
X120131407Y-80318143D01*
X120079657Y-80338436D01*
X120035489Y-80372735D01*
X120000071Y-80420229D01*
X119974570Y-80480108D01*
X119964257Y-80523067D01*
X119960580Y-80548630D01*
X119959677Y-80566657D01*
X119672815Y-80566657D01*
X119680900Y-80512248D01*
X119705528Y-80422895D01*
X119740381Y-80344414D01*
X119786219Y-80274976D01*
X119825533Y-80230486D01*
X119886583Y-80177420D01*
X119952457Y-80138071D01*
X120025385Y-80111586D01*
X120107594Y-80097109D01*
X120182533Y-80093600D01*
X120269351Y-80098294D01*
G36*
X112452467Y-81236600D02*
X112147667Y-81236600D01*
X112147667Y-79712600D01*
X112452467Y-79712600D01*
X112452467Y-81236600D01*
X112452467Y-81236600D01*
G37*
X112452467Y-81236600D02*
X112147667Y-81236600D01*
X112147667Y-79712600D01*
X112452467Y-79712600D01*
X112452467Y-81236600D01*
G36*
X113354289Y-80099917D02*
X113428839Y-80118493D01*
X113492296Y-80149675D01*
X113545030Y-80193709D01*
X113587410Y-80250844D01*
X113619807Y-80321325D01*
X113622912Y-80330307D01*
X113627106Y-80343334D01*
X113630631Y-80356310D01*
X113633558Y-80370804D01*
X113635955Y-80388381D01*
X113637894Y-80410608D01*
X113639443Y-80439051D01*
X113640674Y-80475278D01*
X113641655Y-80520855D01*
X113642458Y-80577348D01*
X113643151Y-80646325D01*
X113643805Y-80729351D01*
X113644375Y-80811150D01*
X113647263Y-81236600D01*
X113349933Y-81236600D01*
X113349886Y-80861950D01*
X113349669Y-80766683D01*
X113349060Y-80682033D01*
X113348082Y-80609063D01*
X113346757Y-80548839D01*
X113345109Y-80502424D01*
X113343161Y-80470884D01*
X113341094Y-80455813D01*
X113320382Y-80410574D01*
X113286953Y-80375699D01*
X113242093Y-80352030D01*
X113187084Y-80340406D01*
X113163058Y-80339319D01*
X113096443Y-80345855D01*
X113039215Y-80365595D01*
X112992286Y-80398023D01*
X112956572Y-80442622D01*
X112946757Y-80461300D01*
X112926765Y-80504233D01*
X112926683Y-80870416D01*
X112926600Y-81236600D01*
X112630266Y-81236600D01*
X112630266Y-80110533D01*
X112926600Y-80110533D01*
X112926600Y-80266876D01*
X112964601Y-80223434D01*
X113020509Y-80169981D01*
X113082569Y-80131174D01*
X113152382Y-80106329D01*
X113231550Y-80094763D01*
X113268275Y-80093700D01*
X113354289Y-80099917D01*
X113354289Y-80099917D01*
G37*
X113354289Y-80099917D02*
X113428839Y-80118493D01*
X113492296Y-80149675D01*
X113545030Y-80193709D01*
X113587410Y-80250844D01*
X113619807Y-80321325D01*
X113622912Y-80330307D01*
X113627106Y-80343334D01*
X113630631Y-80356310D01*
X113633558Y-80370804D01*
X113635955Y-80388381D01*
X113637894Y-80410608D01*
X113639443Y-80439051D01*
X113640674Y-80475278D01*
X113641655Y-80520855D01*
X113642458Y-80577348D01*
X113643151Y-80646325D01*
X113643805Y-80729351D01*
X113644375Y-80811150D01*
X113647263Y-81236600D01*
X113349933Y-81236600D01*
X113349886Y-80861950D01*
X113349669Y-80766683D01*
X113349060Y-80682033D01*
X113348082Y-80609063D01*
X113346757Y-80548839D01*
X113345109Y-80502424D01*
X113343161Y-80470884D01*
X113341094Y-80455813D01*
X113320382Y-80410574D01*
X113286953Y-80375699D01*
X113242093Y-80352030D01*
X113187084Y-80340406D01*
X113163058Y-80339319D01*
X113096443Y-80345855D01*
X113039215Y-80365595D01*
X112992286Y-80398023D01*
X112956572Y-80442622D01*
X112946757Y-80461300D01*
X112926765Y-80504233D01*
X112926683Y-80870416D01*
X112926600Y-81236600D01*
X112630266Y-81236600D01*
X112630266Y-80110533D01*
X112926600Y-80110533D01*
X112926600Y-80266876D01*
X112964601Y-80223434D01*
X113020509Y-80169981D01*
X113082569Y-80131174D01*
X113152382Y-80106329D01*
X113231550Y-80094763D01*
X113268275Y-80093700D01*
X113354289Y-80099917D01*
G36*
X115127933Y-81236600D02*
X114840067Y-81236600D01*
X114840067Y-80110533D01*
X115127933Y-80110533D01*
X115127933Y-81236600D01*
X115127933Y-81236600D01*
G37*
X115127933Y-81236600D02*
X114840067Y-81236600D01*
X114840067Y-80110533D01*
X115127933Y-80110533D01*
X115127933Y-81236600D01*
G36*
X118870200Y-80263077D02*
X118924187Y-80208017D01*
X118976485Y-80160888D01*
X119028736Y-80127959D01*
X119085433Y-80107246D01*
X119151069Y-80096767D01*
X119180253Y-80095019D01*
X119267542Y-80098122D01*
X119344283Y-80114329D01*
X119410227Y-80143439D01*
X119465124Y-80185250D01*
X119508726Y-80239558D01*
X119540783Y-80306162D01*
X119561047Y-80384859D01*
X119564301Y-80406866D01*
X119566003Y-80428646D01*
X119567596Y-80465281D01*
X119569041Y-80514692D01*
X119570297Y-80574803D01*
X119571328Y-80643534D01*
X119572093Y-80718808D01*
X119572553Y-80798546D01*
X119572672Y-80853483D01*
X119572933Y-81236600D01*
X119276600Y-81236600D01*
X119276600Y-80860898D01*
X119276548Y-80765306D01*
X119276280Y-80685083D01*
X119275624Y-80618665D01*
X119274410Y-80564487D01*
X119272468Y-80520984D01*
X119269625Y-80486593D01*
X119265713Y-80459748D01*
X119260560Y-80438886D01*
X119253995Y-80422441D01*
X119245848Y-80408851D01*
X119235948Y-80396549D01*
X119224624Y-80384487D01*
X119187929Y-80358106D01*
X119142643Y-80343081D01*
X119092357Y-80339001D01*
X119040658Y-80345455D01*
X118991135Y-80362035D01*
X118947377Y-80388330D01*
X118916062Y-80419738D01*
X118905564Y-80433880D01*
X118896835Y-80447419D01*
X118889710Y-80462002D01*
X118884023Y-80479279D01*
X118879610Y-80500898D01*
X118876306Y-80528508D01*
X118873946Y-80563759D01*
X118872365Y-80608299D01*
X118871398Y-80663777D01*
X118870880Y-80731842D01*
X118870647Y-80814142D01*
X118870571Y-80874650D01*
X118870200Y-81236600D01*
X118573867Y-81236600D01*
X118573867Y-79712600D01*
X118870200Y-79712600D01*
X118870200Y-80263077D01*
X118870200Y-80263077D01*
G37*
X118870200Y-80263077D02*
X118924187Y-80208017D01*
X118976485Y-80160888D01*
X119028736Y-80127959D01*
X119085433Y-80107246D01*
X119151069Y-80096767D01*
X119180253Y-80095019D01*
X119267542Y-80098122D01*
X119344283Y-80114329D01*
X119410227Y-80143439D01*
X119465124Y-80185250D01*
X119508726Y-80239558D01*
X119540783Y-80306162D01*
X119561047Y-80384859D01*
X119564301Y-80406866D01*
X119566003Y-80428646D01*
X119567596Y-80465281D01*
X119569041Y-80514692D01*
X119570297Y-80574803D01*
X119571328Y-80643534D01*
X119572093Y-80718808D01*
X119572553Y-80798546D01*
X119572672Y-80853483D01*
X119572933Y-81236600D01*
X119276600Y-81236600D01*
X119276600Y-80860898D01*
X119276548Y-80765306D01*
X119276280Y-80685083D01*
X119275624Y-80618665D01*
X119274410Y-80564487D01*
X119272468Y-80520984D01*
X119269625Y-80486593D01*
X119265713Y-80459748D01*
X119260560Y-80438886D01*
X119253995Y-80422441D01*
X119245848Y-80408851D01*
X119235948Y-80396549D01*
X119224624Y-80384487D01*
X119187929Y-80358106D01*
X119142643Y-80343081D01*
X119092357Y-80339001D01*
X119040658Y-80345455D01*
X118991135Y-80362035D01*
X118947377Y-80388330D01*
X118916062Y-80419738D01*
X118905564Y-80433880D01*
X118896835Y-80447419D01*
X118889710Y-80462002D01*
X118884023Y-80479279D01*
X118879610Y-80500898D01*
X118876306Y-80528508D01*
X118873946Y-80563759D01*
X118872365Y-80608299D01*
X118871398Y-80663777D01*
X118870880Y-80731842D01*
X118870647Y-80814142D01*
X118870571Y-80874650D01*
X118870200Y-81236600D01*
X118573867Y-81236600D01*
X118573867Y-79712600D01*
X118870200Y-79712600D01*
X118870200Y-80263077D01*
G36*
X115127933Y-79975067D02*
X114840067Y-79975067D01*
X114840067Y-79712600D01*
X115127933Y-79712600D01*
X115127933Y-79975067D01*
X115127933Y-79975067D01*
G37*
X115127933Y-79975067D02*
X114840067Y-79975067D01*
X114840067Y-79712600D01*
X115127933Y-79712600D01*
X115127933Y-79975067D01*
G36*
X115060874Y-78109247D02*
X115145422Y-78135739D01*
X115225596Y-78176166D01*
X115267791Y-78204930D01*
X115329056Y-78261699D01*
X115379207Y-78330982D01*
X115418065Y-78412366D01*
X115445451Y-78505436D01*
X115461186Y-78609780D01*
X115464431Y-78660617D01*
X115468809Y-78772800D01*
X114708032Y-78772800D01*
X114713996Y-78834183D01*
X114726731Y-78907174D01*
X114749386Y-78966875D01*
X114781822Y-79013075D01*
X114823901Y-79045561D01*
X114861551Y-79060755D01*
X114901278Y-79067306D01*
X114948402Y-79068277D01*
X114996598Y-79064139D01*
X115039537Y-79055361D01*
X115065235Y-79045635D01*
X115097029Y-79024353D01*
X115127680Y-78995637D01*
X115151920Y-78964933D01*
X115162157Y-78945426D01*
X115165410Y-78937962D01*
X115170299Y-78932606D01*
X115179366Y-78929008D01*
X115195155Y-78926817D01*
X115220206Y-78925686D01*
X115257064Y-78925263D01*
X115308270Y-78925200D01*
X115309257Y-78925200D01*
X115356115Y-78925621D01*
X115396818Y-78926785D01*
X115428453Y-78928544D01*
X115448105Y-78930752D01*
X115453167Y-78932480D01*
X115451676Y-78942815D01*
X115443934Y-78964467D01*
X115431375Y-78993667D01*
X115423518Y-79010375D01*
X115399548Y-79054976D01*
X115372891Y-79092801D01*
X115338368Y-79130958D01*
X115328501Y-79140794D01*
X115256233Y-79200373D01*
X115175824Y-79245109D01*
X115087290Y-79274995D01*
X114990648Y-79290026D01*
X114885914Y-79290197D01*
X114865467Y-79288583D01*
X114776106Y-79272760D01*
X114695361Y-79242821D01*
X114623786Y-79199540D01*
X114561931Y-79143690D01*
X114510351Y-79076044D01*
X114469595Y-78997377D01*
X114440218Y-78908463D01*
X114422772Y-78810073D01*
X114417808Y-78702984D01*
X114419133Y-78663370D01*
X114428412Y-78578067D01*
X114711578Y-78578067D01*
X115161800Y-78578067D01*
X115161800Y-78554203D01*
X115156876Y-78516847D01*
X115143717Y-78473334D01*
X115124736Y-78430672D01*
X115111525Y-78408350D01*
X115076231Y-78366891D01*
X115033692Y-78339149D01*
X114982826Y-78323229D01*
X114922279Y-78318580D01*
X114867350Y-78329393D01*
X114819050Y-78354834D01*
X114778387Y-78394071D01*
X114746371Y-78446272D01*
X114724011Y-78510603D01*
X114717567Y-78542083D01*
X114711578Y-78578067D01*
X114428412Y-78578067D01*
X114431324Y-78551301D01*
X114455347Y-78451181D01*
X114491300Y-78362751D01*
X114539284Y-78285752D01*
X114581294Y-78237287D01*
X114647254Y-78182284D01*
X114721647Y-78140612D01*
X114802341Y-78112372D01*
X114887200Y-78097664D01*
X114974089Y-78096589D01*
X115060874Y-78109247D01*
X115060874Y-78109247D01*
G37*
X115060874Y-78109247D02*
X115145422Y-78135739D01*
X115225596Y-78176166D01*
X115267791Y-78204930D01*
X115329056Y-78261699D01*
X115379207Y-78330982D01*
X115418065Y-78412366D01*
X115445451Y-78505436D01*
X115461186Y-78609780D01*
X115464431Y-78660617D01*
X115468809Y-78772800D01*
X114708032Y-78772800D01*
X114713996Y-78834183D01*
X114726731Y-78907174D01*
X114749386Y-78966875D01*
X114781822Y-79013075D01*
X114823901Y-79045561D01*
X114861551Y-79060755D01*
X114901278Y-79067306D01*
X114948402Y-79068277D01*
X114996598Y-79064139D01*
X115039537Y-79055361D01*
X115065235Y-79045635D01*
X115097029Y-79024353D01*
X115127680Y-78995637D01*
X115151920Y-78964933D01*
X115162157Y-78945426D01*
X115165410Y-78937962D01*
X115170299Y-78932606D01*
X115179366Y-78929008D01*
X115195155Y-78926817D01*
X115220206Y-78925686D01*
X115257064Y-78925263D01*
X115308270Y-78925200D01*
X115309257Y-78925200D01*
X115356115Y-78925621D01*
X115396818Y-78926785D01*
X115428453Y-78928544D01*
X115448105Y-78930752D01*
X115453167Y-78932480D01*
X115451676Y-78942815D01*
X115443934Y-78964467D01*
X115431375Y-78993667D01*
X115423518Y-79010375D01*
X115399548Y-79054976D01*
X115372891Y-79092801D01*
X115338368Y-79130958D01*
X115328501Y-79140794D01*
X115256233Y-79200373D01*
X115175824Y-79245109D01*
X115087290Y-79274995D01*
X114990648Y-79290026D01*
X114885914Y-79290197D01*
X114865467Y-79288583D01*
X114776106Y-79272760D01*
X114695361Y-79242821D01*
X114623786Y-79199540D01*
X114561931Y-79143690D01*
X114510351Y-79076044D01*
X114469595Y-78997377D01*
X114440218Y-78908463D01*
X114422772Y-78810073D01*
X114417808Y-78702984D01*
X114419133Y-78663370D01*
X114428412Y-78578067D01*
X114711578Y-78578067D01*
X115161800Y-78578067D01*
X115161800Y-78554203D01*
X115156876Y-78516847D01*
X115143717Y-78473334D01*
X115124736Y-78430672D01*
X115111525Y-78408350D01*
X115076231Y-78366891D01*
X115033692Y-78339149D01*
X114982826Y-78323229D01*
X114922279Y-78318580D01*
X114867350Y-78329393D01*
X114819050Y-78354834D01*
X114778387Y-78394071D01*
X114746371Y-78446272D01*
X114724011Y-78510603D01*
X114717567Y-78542083D01*
X114711578Y-78578067D01*
X114428412Y-78578067D01*
X114431324Y-78551301D01*
X114455347Y-78451181D01*
X114491300Y-78362751D01*
X114539284Y-78285752D01*
X114581294Y-78237287D01*
X114647254Y-78182284D01*
X114721647Y-78140612D01*
X114802341Y-78112372D01*
X114887200Y-78097664D01*
X114974089Y-78096589D01*
X115060874Y-78109247D01*
G36*
X117856571Y-78101945D02*
X117910041Y-78106779D01*
X117952202Y-78114096D01*
X117955800Y-78115013D01*
X118034745Y-78141887D01*
X118099320Y-78177031D01*
X118150221Y-78220980D01*
X118188141Y-78274272D01*
X118202973Y-78305888D01*
X118207494Y-78317647D01*
X118211264Y-78329410D01*
X118214374Y-78342813D01*
X118216912Y-78359491D01*
X118218967Y-78381080D01*
X118220629Y-78409216D01*
X118221987Y-78445535D01*
X118223129Y-78491672D01*
X118224144Y-78549263D01*
X118225122Y-78619945D01*
X118226151Y-78705352D01*
X118226539Y-78738933D01*
X118227591Y-78830880D01*
X118228559Y-78907517D01*
X118229615Y-78970465D01*
X118230931Y-79021346D01*
X118232679Y-79061780D01*
X118235029Y-79093388D01*
X118238156Y-79117793D01*
X118242229Y-79136615D01*
X118247421Y-79151476D01*
X118253903Y-79163997D01*
X118261848Y-79175799D01*
X118271427Y-79188503D01*
X118274620Y-79192699D01*
X118287603Y-79210491D01*
X118294877Y-79223894D01*
X118294819Y-79233528D01*
X118285808Y-79240015D01*
X118266223Y-79243978D01*
X118234443Y-79246037D01*
X118188845Y-79246815D01*
X118133168Y-79246933D01*
X117971869Y-79246933D01*
X117959601Y-79217572D01*
X117951273Y-79192286D01*
X117947373Y-79169899D01*
X117947333Y-79168183D01*
X117945569Y-79150549D01*
X117938919Y-79144330D01*
X117925347Y-79149792D01*
X117902817Y-79167203D01*
X117893496Y-79175242D01*
X117820992Y-79228309D01*
X117743175Y-79265717D01*
X117661145Y-79287118D01*
X117576003Y-79292166D01*
X117534274Y-79288668D01*
X117462587Y-79271550D01*
X117399750Y-79240799D01*
X117346819Y-79197813D01*
X117304846Y-79143992D01*
X117274888Y-79080734D01*
X117257998Y-79009438D01*
X117255232Y-78931502D01*
X117256074Y-78919633D01*
X117257271Y-78912925D01*
X117550892Y-78912925D01*
X117551349Y-78927437D01*
X117553836Y-78959798D01*
X117558675Y-78981096D01*
X117567891Y-78997198D01*
X117579976Y-79010484D01*
X117619206Y-79039640D01*
X117665702Y-79054988D01*
X117721520Y-79057189D01*
X117724452Y-79056977D01*
X117758066Y-79052756D01*
X117789411Y-79046133D01*
X117805501Y-79040937D01*
X117852717Y-79013892D01*
X117888982Y-78976275D01*
X117914843Y-78927086D01*
X117930848Y-78865323D01*
X117937192Y-78800317D01*
X117938327Y-78764316D01*
X117938554Y-78735607D01*
X117937887Y-78717723D01*
X117936857Y-78713533D01*
X117926891Y-78716023D01*
X117908433Y-78722013D01*
X117908380Y-78722031D01*
X117891170Y-78726911D01*
X117861257Y-78734314D01*
X117822515Y-78743321D01*
X117778820Y-78753011D01*
X117768291Y-78755280D01*
X117700108Y-78771174D01*
X117647114Y-78787044D01*
X117607622Y-78804229D01*
X117579942Y-78824070D01*
X117562387Y-78847906D01*
X117553266Y-78877078D01*
X117550892Y-78912925D01*
X117257271Y-78912925D01*
X117269760Y-78842987D01*
X117296888Y-78776203D01*
X117337159Y-78719760D01*
X117390275Y-78674135D01*
X117419753Y-78656480D01*
X117452050Y-78640621D01*
X117485402Y-78627303D01*
X117523032Y-78615635D01*
X117568158Y-78604728D01*
X117624002Y-78593692D01*
X117686068Y-78582918D01*
X117747431Y-78572464D01*
X117794589Y-78563670D01*
X117830095Y-78555762D01*
X117856501Y-78547966D01*
X117876362Y-78539510D01*
X117892229Y-78529621D01*
X117906656Y-78517526D01*
X117908874Y-78515454D01*
X117928156Y-78494493D01*
X117936928Y-78475010D01*
X117938867Y-78451763D01*
X117932111Y-78407734D01*
X117912478Y-78373165D01*
X117885807Y-78352249D01*
X117860070Y-78343740D01*
X117822792Y-78337608D01*
X117779232Y-78334125D01*
X117734653Y-78333567D01*
X117694315Y-78336205D01*
X117668140Y-78340933D01*
X117627216Y-78359901D01*
X117594211Y-78390685D01*
X117572849Y-78429398D01*
X117568670Y-78444811D01*
X117561580Y-78480700D01*
X117420023Y-78483021D01*
X117365682Y-78483633D01*
X117326327Y-78483343D01*
X117300030Y-78482036D01*
X117284863Y-78479595D01*
X117278898Y-78475906D01*
X117278614Y-78474555D01*
X117282222Y-78444657D01*
X117291231Y-78405508D01*
X117303862Y-78363191D01*
X117318340Y-78323792D01*
X117329980Y-78298609D01*
X117369356Y-78239706D01*
X117419616Y-78191342D01*
X117482084Y-78152559D01*
X117558079Y-78122398D01*
X117583266Y-78115010D01*
X117623133Y-78107432D01*
X117675073Y-78102337D01*
X117734411Y-78099724D01*
X117796469Y-78099593D01*
X117856571Y-78101945D01*
X117856571Y-78101945D01*
G37*
X117856571Y-78101945D02*
X117910041Y-78106779D01*
X117952202Y-78114096D01*
X117955800Y-78115013D01*
X118034745Y-78141887D01*
X118099320Y-78177031D01*
X118150221Y-78220980D01*
X118188141Y-78274272D01*
X118202973Y-78305888D01*
X118207494Y-78317647D01*
X118211264Y-78329410D01*
X118214374Y-78342813D01*
X118216912Y-78359491D01*
X118218967Y-78381080D01*
X118220629Y-78409216D01*
X118221987Y-78445535D01*
X118223129Y-78491672D01*
X118224144Y-78549263D01*
X118225122Y-78619945D01*
X118226151Y-78705352D01*
X118226539Y-78738933D01*
X118227591Y-78830880D01*
X118228559Y-78907517D01*
X118229615Y-78970465D01*
X118230931Y-79021346D01*
X118232679Y-79061780D01*
X118235029Y-79093388D01*
X118238156Y-79117793D01*
X118242229Y-79136615D01*
X118247421Y-79151476D01*
X118253903Y-79163997D01*
X118261848Y-79175799D01*
X118271427Y-79188503D01*
X118274620Y-79192699D01*
X118287603Y-79210491D01*
X118294877Y-79223894D01*
X118294819Y-79233528D01*
X118285808Y-79240015D01*
X118266223Y-79243978D01*
X118234443Y-79246037D01*
X118188845Y-79246815D01*
X118133168Y-79246933D01*
X117971869Y-79246933D01*
X117959601Y-79217572D01*
X117951273Y-79192286D01*
X117947373Y-79169899D01*
X117947333Y-79168183D01*
X117945569Y-79150549D01*
X117938919Y-79144330D01*
X117925347Y-79149792D01*
X117902817Y-79167203D01*
X117893496Y-79175242D01*
X117820992Y-79228309D01*
X117743175Y-79265717D01*
X117661145Y-79287118D01*
X117576003Y-79292166D01*
X117534274Y-79288668D01*
X117462587Y-79271550D01*
X117399750Y-79240799D01*
X117346819Y-79197813D01*
X117304846Y-79143992D01*
X117274888Y-79080734D01*
X117257998Y-79009438D01*
X117255232Y-78931502D01*
X117256074Y-78919633D01*
X117257271Y-78912925D01*
X117550892Y-78912925D01*
X117551349Y-78927437D01*
X117553836Y-78959798D01*
X117558675Y-78981096D01*
X117567891Y-78997198D01*
X117579976Y-79010484D01*
X117619206Y-79039640D01*
X117665702Y-79054988D01*
X117721520Y-79057189D01*
X117724452Y-79056977D01*
X117758066Y-79052756D01*
X117789411Y-79046133D01*
X117805501Y-79040937D01*
X117852717Y-79013892D01*
X117888982Y-78976275D01*
X117914843Y-78927086D01*
X117930848Y-78865323D01*
X117937192Y-78800317D01*
X117938327Y-78764316D01*
X117938554Y-78735607D01*
X117937887Y-78717723D01*
X117936857Y-78713533D01*
X117926891Y-78716023D01*
X117908433Y-78722013D01*
X117908380Y-78722031D01*
X117891170Y-78726911D01*
X117861257Y-78734314D01*
X117822515Y-78743321D01*
X117778820Y-78753011D01*
X117768291Y-78755280D01*
X117700108Y-78771174D01*
X117647114Y-78787044D01*
X117607622Y-78804229D01*
X117579942Y-78824070D01*
X117562387Y-78847906D01*
X117553266Y-78877078D01*
X117550892Y-78912925D01*
X117257271Y-78912925D01*
X117269760Y-78842987D01*
X117296888Y-78776203D01*
X117337159Y-78719760D01*
X117390275Y-78674135D01*
X117419753Y-78656480D01*
X117452050Y-78640621D01*
X117485402Y-78627303D01*
X117523032Y-78615635D01*
X117568158Y-78604728D01*
X117624002Y-78593692D01*
X117686068Y-78582918D01*
X117747431Y-78572464D01*
X117794589Y-78563670D01*
X117830095Y-78555762D01*
X117856501Y-78547966D01*
X117876362Y-78539510D01*
X117892229Y-78529621D01*
X117906656Y-78517526D01*
X117908874Y-78515454D01*
X117928156Y-78494493D01*
X117936928Y-78475010D01*
X117938867Y-78451763D01*
X117932111Y-78407734D01*
X117912478Y-78373165D01*
X117885807Y-78352249D01*
X117860070Y-78343740D01*
X117822792Y-78337608D01*
X117779232Y-78334125D01*
X117734653Y-78333567D01*
X117694315Y-78336205D01*
X117668140Y-78340933D01*
X117627216Y-78359901D01*
X117594211Y-78390685D01*
X117572849Y-78429398D01*
X117568670Y-78444811D01*
X117561580Y-78480700D01*
X117420023Y-78483021D01*
X117365682Y-78483633D01*
X117326327Y-78483343D01*
X117300030Y-78482036D01*
X117284863Y-78479595D01*
X117278898Y-78475906D01*
X117278614Y-78474555D01*
X117282222Y-78444657D01*
X117291231Y-78405508D01*
X117303862Y-78363191D01*
X117318340Y-78323792D01*
X117329980Y-78298609D01*
X117369356Y-78239706D01*
X117419616Y-78191342D01*
X117482084Y-78152559D01*
X117558079Y-78122398D01*
X117583266Y-78115010D01*
X117623133Y-78107432D01*
X117675073Y-78102337D01*
X117734411Y-78099724D01*
X117796469Y-78099593D01*
X117856571Y-78101945D01*
G36*
X118893093Y-78101307D02*
X118982435Y-78118444D01*
X119062086Y-78146519D01*
X119131094Y-78184883D01*
X119188511Y-78232881D01*
X119233387Y-78289863D01*
X119264772Y-78355176D01*
X119281716Y-78428169D01*
X119281945Y-78430075D01*
X119287398Y-78476467D01*
X119007882Y-78476467D01*
X119003060Y-78446753D01*
X118988222Y-78404096D01*
X118959195Y-78370383D01*
X118916304Y-78345832D01*
X118859871Y-78330660D01*
X118824629Y-78326500D01*
X118764672Y-78326715D01*
X118712511Y-78336399D01*
X118670791Y-78354825D01*
X118646566Y-78375540D01*
X118628352Y-78407768D01*
X118624953Y-78440678D01*
X118635803Y-78470628D01*
X118660339Y-78493976D01*
X118665379Y-78496795D01*
X118679541Y-78502292D01*
X118707603Y-78511653D01*
X118747170Y-78524136D01*
X118795848Y-78538999D01*
X118851241Y-78555500D01*
X118910220Y-78572685D01*
X118985044Y-78594442D01*
X119045591Y-78612633D01*
X119093930Y-78628098D01*
X119132133Y-78641678D01*
X119162271Y-78654214D01*
X119186416Y-78666545D01*
X119206639Y-78679514D01*
X119225012Y-78693959D01*
X119238383Y-78705862D01*
X119271623Y-78742386D01*
X119294420Y-78782642D01*
X119308098Y-78830236D01*
X119313982Y-78888775D01*
X119314447Y-78912939D01*
X119314215Y-78952750D01*
X119312432Y-78981335D01*
X119307886Y-79004400D01*
X119299366Y-79027649D01*
X119285661Y-79056786D01*
X119282577Y-79063041D01*
X119261787Y-79100017D01*
X119236888Y-79136981D01*
X119212918Y-79166518D01*
X119210610Y-79168938D01*
X119156465Y-79212746D01*
X119088995Y-79247157D01*
X119009108Y-79271947D01*
X118917710Y-79286896D01*
X118815709Y-79291781D01*
X118723909Y-79288054D01*
X118647739Y-79278663D01*
X118575169Y-79263025D01*
X118510886Y-79242333D01*
X118469024Y-79223185D01*
X118409636Y-79181710D01*
X118360844Y-79128824D01*
X118324452Y-79067200D01*
X118302263Y-78999510D01*
X118297534Y-78969162D01*
X118292010Y-78916313D01*
X118434212Y-78918640D01*
X118576413Y-78920967D01*
X118587999Y-78954457D01*
X118607485Y-78994748D01*
X118635462Y-79024797D01*
X118673647Y-79045488D01*
X118723758Y-79057707D01*
X118787511Y-79062335D01*
X118797729Y-79062428D01*
X118869658Y-79059406D01*
X118926943Y-79049752D01*
X118970632Y-79033201D01*
X119000367Y-79010979D01*
X119020464Y-78979972D01*
X119025279Y-78947039D01*
X119014656Y-78915620D01*
X119005222Y-78903344D01*
X118997662Y-78895357D01*
X118990166Y-78888608D01*
X118980788Y-78882343D01*
X118967582Y-78875810D01*
X118948603Y-78868255D01*
X118921904Y-78858925D01*
X118885540Y-78847065D01*
X118837566Y-78831924D01*
X118776035Y-78812747D01*
X118751667Y-78805169D01*
X118675902Y-78781526D01*
X118614457Y-78762082D01*
X118565446Y-78746119D01*
X118526987Y-78732916D01*
X118497194Y-78721755D01*
X118474184Y-78711918D01*
X118456072Y-78702684D01*
X118440974Y-78693335D01*
X118427006Y-78683152D01*
X118422330Y-78679492D01*
X118381965Y-78637229D01*
X118353344Y-78585482D01*
X118336425Y-78526930D01*
X118331166Y-78464247D01*
X118337527Y-78400111D01*
X118355465Y-78337198D01*
X118384939Y-78278183D01*
X118425908Y-78225744D01*
X118429437Y-78222157D01*
X118486017Y-78176920D01*
X118555093Y-78140943D01*
X118634528Y-78114964D01*
X118722184Y-78099722D01*
X118795007Y-78095762D01*
X118893093Y-78101307D01*
X118893093Y-78101307D01*
G37*
X118893093Y-78101307D02*
X118982435Y-78118444D01*
X119062086Y-78146519D01*
X119131094Y-78184883D01*
X119188511Y-78232881D01*
X119233387Y-78289863D01*
X119264772Y-78355176D01*
X119281716Y-78428169D01*
X119281945Y-78430075D01*
X119287398Y-78476467D01*
X119007882Y-78476467D01*
X119003060Y-78446753D01*
X118988222Y-78404096D01*
X118959195Y-78370383D01*
X118916304Y-78345832D01*
X118859871Y-78330660D01*
X118824629Y-78326500D01*
X118764672Y-78326715D01*
X118712511Y-78336399D01*
X118670791Y-78354825D01*
X118646566Y-78375540D01*
X118628352Y-78407768D01*
X118624953Y-78440678D01*
X118635803Y-78470628D01*
X118660339Y-78493976D01*
X118665379Y-78496795D01*
X118679541Y-78502292D01*
X118707603Y-78511653D01*
X118747170Y-78524136D01*
X118795848Y-78538999D01*
X118851241Y-78555500D01*
X118910220Y-78572685D01*
X118985044Y-78594442D01*
X119045591Y-78612633D01*
X119093930Y-78628098D01*
X119132133Y-78641678D01*
X119162271Y-78654214D01*
X119186416Y-78666545D01*
X119206639Y-78679514D01*
X119225012Y-78693959D01*
X119238383Y-78705862D01*
X119271623Y-78742386D01*
X119294420Y-78782642D01*
X119308098Y-78830236D01*
X119313982Y-78888775D01*
X119314447Y-78912939D01*
X119314215Y-78952750D01*
X119312432Y-78981335D01*
X119307886Y-79004400D01*
X119299366Y-79027649D01*
X119285661Y-79056786D01*
X119282577Y-79063041D01*
X119261787Y-79100017D01*
X119236888Y-79136981D01*
X119212918Y-79166518D01*
X119210610Y-79168938D01*
X119156465Y-79212746D01*
X119088995Y-79247157D01*
X119009108Y-79271947D01*
X118917710Y-79286896D01*
X118815709Y-79291781D01*
X118723909Y-79288054D01*
X118647739Y-79278663D01*
X118575169Y-79263025D01*
X118510886Y-79242333D01*
X118469024Y-79223185D01*
X118409636Y-79181710D01*
X118360844Y-79128824D01*
X118324452Y-79067200D01*
X118302263Y-78999510D01*
X118297534Y-78969162D01*
X118292010Y-78916313D01*
X118434212Y-78918640D01*
X118576413Y-78920967D01*
X118587999Y-78954457D01*
X118607485Y-78994748D01*
X118635462Y-79024797D01*
X118673647Y-79045488D01*
X118723758Y-79057707D01*
X118787511Y-79062335D01*
X118797729Y-79062428D01*
X118869658Y-79059406D01*
X118926943Y-79049752D01*
X118970632Y-79033201D01*
X119000367Y-79010979D01*
X119020464Y-78979972D01*
X119025279Y-78947039D01*
X119014656Y-78915620D01*
X119005222Y-78903344D01*
X118997662Y-78895357D01*
X118990166Y-78888608D01*
X118980788Y-78882343D01*
X118967582Y-78875810D01*
X118948603Y-78868255D01*
X118921904Y-78858925D01*
X118885540Y-78847065D01*
X118837566Y-78831924D01*
X118776035Y-78812747D01*
X118751667Y-78805169D01*
X118675902Y-78781526D01*
X118614457Y-78762082D01*
X118565446Y-78746119D01*
X118526987Y-78732916D01*
X118497194Y-78721755D01*
X118474184Y-78711918D01*
X118456072Y-78702684D01*
X118440974Y-78693335D01*
X118427006Y-78683152D01*
X118422330Y-78679492D01*
X118381965Y-78637229D01*
X118353344Y-78585482D01*
X118336425Y-78526930D01*
X118331166Y-78464247D01*
X118337527Y-78400111D01*
X118355465Y-78337198D01*
X118384939Y-78278183D01*
X118425908Y-78225744D01*
X118429437Y-78222157D01*
X118486017Y-78176920D01*
X118555093Y-78140943D01*
X118634528Y-78114964D01*
X118722184Y-78099722D01*
X118795007Y-78095762D01*
X118893093Y-78101307D01*
G36*
X119742267Y-78137800D02*
X119911600Y-78137800D01*
X119911600Y-78332533D01*
X119741381Y-78332533D01*
X119743940Y-78673317D01*
X119744689Y-78763484D01*
X119745570Y-78838228D01*
X119746753Y-78899056D01*
X119748405Y-78947476D01*
X119750697Y-78984999D01*
X119753798Y-79013133D01*
X119757875Y-79033385D01*
X119763099Y-79047266D01*
X119769638Y-79056285D01*
X119777661Y-79061949D01*
X119787337Y-79065767D01*
X119787914Y-79065952D01*
X119805666Y-79068814D01*
X119833564Y-79070484D01*
X119858596Y-79070659D01*
X119911600Y-79069756D01*
X119911600Y-79270644D01*
X119871383Y-79279419D01*
X119799007Y-79289806D01*
X119721930Y-79291583D01*
X119675385Y-79288065D01*
X119617317Y-79275466D01*
X119565467Y-79253366D01*
X119523697Y-79223704D01*
X119504500Y-79202290D01*
X119493190Y-79186143D01*
X119483723Y-79170543D01*
X119475935Y-79153876D01*
X119469662Y-79134529D01*
X119464740Y-79110885D01*
X119461007Y-79081331D01*
X119458299Y-79044252D01*
X119456451Y-78998033D01*
X119455301Y-78941061D01*
X119454685Y-78871719D01*
X119454440Y-78788395D01*
X119454400Y-78707763D01*
X119454400Y-78332533D01*
X119310467Y-78332533D01*
X119310467Y-78137800D01*
X119454400Y-78137800D01*
X119454400Y-77833000D01*
X119742267Y-77833000D01*
X119742267Y-78137800D01*
X119742267Y-78137800D01*
G37*
X119742267Y-78137800D02*
X119911600Y-78137800D01*
X119911600Y-78332533D01*
X119741381Y-78332533D01*
X119743940Y-78673317D01*
X119744689Y-78763484D01*
X119745570Y-78838228D01*
X119746753Y-78899056D01*
X119748405Y-78947476D01*
X119750697Y-78984999D01*
X119753798Y-79013133D01*
X119757875Y-79033385D01*
X119763099Y-79047266D01*
X119769638Y-79056285D01*
X119777661Y-79061949D01*
X119787337Y-79065767D01*
X119787914Y-79065952D01*
X119805666Y-79068814D01*
X119833564Y-79070484D01*
X119858596Y-79070659D01*
X119911600Y-79069756D01*
X119911600Y-79270644D01*
X119871383Y-79279419D01*
X119799007Y-79289806D01*
X119721930Y-79291583D01*
X119675385Y-79288065D01*
X119617317Y-79275466D01*
X119565467Y-79253366D01*
X119523697Y-79223704D01*
X119504500Y-79202290D01*
X119493190Y-79186143D01*
X119483723Y-79170543D01*
X119475935Y-79153876D01*
X119469662Y-79134529D01*
X119464740Y-79110885D01*
X119461007Y-79081331D01*
X119458299Y-79044252D01*
X119456451Y-78998033D01*
X119455301Y-78941061D01*
X119454685Y-78871719D01*
X119454440Y-78788395D01*
X119454400Y-78707763D01*
X119454400Y-78332533D01*
X119310467Y-78332533D01*
X119310467Y-78137800D01*
X119454400Y-78137800D01*
X119454400Y-77833000D01*
X119742267Y-77833000D01*
X119742267Y-78137800D01*
G36*
X112649316Y-77716527D02*
X113261033Y-77718700D01*
X113263370Y-77847816D01*
X113265708Y-77976933D01*
X112816533Y-77976933D01*
X112816533Y-79246933D01*
X112503267Y-79246933D01*
X112503267Y-77976933D01*
X112037600Y-77976933D01*
X112037600Y-77714355D01*
X112649316Y-77716527D01*
X112649316Y-77716527D01*
G37*
X112649316Y-77716527D02*
X113261033Y-77718700D01*
X113263370Y-77847816D01*
X113265708Y-77976933D01*
X112816533Y-77976933D01*
X112816533Y-79246933D01*
X112503267Y-79246933D01*
X112503267Y-77976933D01*
X112037600Y-77976933D01*
X112037600Y-77714355D01*
X112649316Y-77716527D01*
G36*
X113479050Y-77716383D02*
X113625100Y-77718700D01*
X113627333Y-77991476D01*
X113629567Y-78264252D01*
X113682421Y-78211609D01*
X113744932Y-78159565D01*
X113812345Y-78123398D01*
X113873167Y-78104915D01*
X113946759Y-78096405D01*
X114019769Y-78100940D01*
X114089608Y-78117488D01*
X114153689Y-78145015D01*
X114209423Y-78182490D01*
X114254224Y-78228879D01*
X114277861Y-78266434D01*
X114287739Y-78286431D01*
X114296083Y-78305293D01*
X114303022Y-78324599D01*
X114308685Y-78345930D01*
X114313203Y-78370864D01*
X114316703Y-78400982D01*
X114319317Y-78437863D01*
X114321171Y-78483087D01*
X114322397Y-78538234D01*
X114323123Y-78604883D01*
X114323479Y-78684614D01*
X114323593Y-78779007D01*
X114323600Y-78825379D01*
X114323600Y-79246933D01*
X114035733Y-79246933D01*
X114035526Y-78880750D01*
X114035373Y-78784870D01*
X114034951Y-78704348D01*
X114034139Y-78637607D01*
X114032816Y-78583072D01*
X114030861Y-78539168D01*
X114028153Y-78504319D01*
X114024570Y-78476949D01*
X114019991Y-78455484D01*
X114014296Y-78438347D01*
X114007363Y-78423963D01*
X113999443Y-78411301D01*
X113966798Y-78377324D01*
X113925424Y-78355209D01*
X113878256Y-78344541D01*
X113828227Y-78344907D01*
X113778272Y-78355892D01*
X113731326Y-78377081D01*
X113690321Y-78408061D01*
X113658194Y-78448416D01*
X113651644Y-78460420D01*
X113629333Y-78505191D01*
X113629333Y-79246933D01*
X113333000Y-79246933D01*
X113333000Y-77714067D01*
X113479050Y-77716383D01*
X113479050Y-77716383D01*
G37*
X113479050Y-77716383D02*
X113625100Y-77718700D01*
X113627333Y-77991476D01*
X113629567Y-78264252D01*
X113682421Y-78211609D01*
X113744932Y-78159565D01*
X113812345Y-78123398D01*
X113873167Y-78104915D01*
X113946759Y-78096405D01*
X114019769Y-78100940D01*
X114089608Y-78117488D01*
X114153689Y-78145015D01*
X114209423Y-78182490D01*
X114254224Y-78228879D01*
X114277861Y-78266434D01*
X114287739Y-78286431D01*
X114296083Y-78305293D01*
X114303022Y-78324599D01*
X114308685Y-78345930D01*
X114313203Y-78370864D01*
X114316703Y-78400982D01*
X114319317Y-78437863D01*
X114321171Y-78483087D01*
X114322397Y-78538234D01*
X114323123Y-78604883D01*
X114323479Y-78684614D01*
X114323593Y-78779007D01*
X114323600Y-78825379D01*
X114323600Y-79246933D01*
X114035733Y-79246933D01*
X114035526Y-78880750D01*
X114035373Y-78784870D01*
X114034951Y-78704348D01*
X114034139Y-78637607D01*
X114032816Y-78583072D01*
X114030861Y-78539168D01*
X114028153Y-78504319D01*
X114024570Y-78476949D01*
X114019991Y-78455484D01*
X114014296Y-78438347D01*
X114007363Y-78423963D01*
X113999443Y-78411301D01*
X113966798Y-78377324D01*
X113925424Y-78355209D01*
X113878256Y-78344541D01*
X113828227Y-78344907D01*
X113778272Y-78355892D01*
X113731326Y-78377081D01*
X113690321Y-78408061D01*
X113658194Y-78448416D01*
X113651644Y-78460420D01*
X113629333Y-78505191D01*
X113629333Y-79246933D01*
X113333000Y-79246933D01*
X113333000Y-77714067D01*
X113479050Y-77716383D01*
G36*
X116436033Y-77718961D02*
X116528927Y-77719077D01*
X116606560Y-77719327D01*
X116670603Y-77719771D01*
X116722729Y-77720467D01*
X116764608Y-77721475D01*
X116797913Y-77722852D01*
X116824316Y-77724659D01*
X116845489Y-77726953D01*
X116863102Y-77729794D01*
X116878828Y-77733239D01*
X116884766Y-77734748D01*
X116969258Y-77764342D01*
X117041636Y-77805518D01*
X117101578Y-77857954D01*
X117148763Y-77921324D01*
X117182871Y-77995304D01*
X117198464Y-78051663D01*
X117206105Y-78104428D01*
X117209676Y-78166899D01*
X117209190Y-78232344D01*
X117204656Y-78294036D01*
X117197996Y-78336767D01*
X117172618Y-78420192D01*
X117133869Y-78495945D01*
X117083222Y-78562318D01*
X117022150Y-78617601D01*
X116952129Y-78660087D01*
X116901700Y-78680296D01*
X116881754Y-78684220D01*
X116847260Y-78687655D01*
X116797676Y-78690630D01*
X116732462Y-78693174D01*
X116651075Y-78695318D01*
X116613833Y-78696071D01*
X116359833Y-78700833D01*
X116355365Y-79246933D01*
X116042243Y-79246933D01*
X116044405Y-78482817D01*
X116044878Y-78315462D01*
X116357040Y-78315462D01*
X116357296Y-78362297D01*
X116357869Y-78399080D01*
X116358737Y-78423428D01*
X116359738Y-78432706D01*
X116369619Y-78437035D01*
X116393535Y-78440094D01*
X116428643Y-78441957D01*
X116472100Y-78442695D01*
X116521061Y-78442381D01*
X116572682Y-78441089D01*
X116624119Y-78438891D01*
X116672529Y-78435859D01*
X116715067Y-78432067D01*
X116748890Y-78427587D01*
X116771153Y-78422491D01*
X116772081Y-78422160D01*
X116811676Y-78400390D01*
X116847831Y-78367787D01*
X116875855Y-78329345D01*
X116889383Y-78297317D01*
X116893846Y-78270014D01*
X116896184Y-78232576D01*
X116896004Y-78191713D01*
X116895809Y-78187197D01*
X116889336Y-78129167D01*
X116875001Y-78083951D01*
X116851097Y-78048588D01*
X116815914Y-78020115D01*
X116791633Y-78006567D01*
X116740833Y-77981167D01*
X116359833Y-77981167D01*
X116357570Y-78201161D01*
X116357124Y-78260956D01*
X116357040Y-78315462D01*
X116044878Y-78315462D01*
X116046566Y-77718700D01*
X116436033Y-77718961D01*
X116436033Y-77718961D01*
G37*
X116436033Y-77718961D02*
X116528927Y-77719077D01*
X116606560Y-77719327D01*
X116670603Y-77719771D01*
X116722729Y-77720467D01*
X116764608Y-77721475D01*
X116797913Y-77722852D01*
X116824316Y-77724659D01*
X116845489Y-77726953D01*
X116863102Y-77729794D01*
X116878828Y-77733239D01*
X116884766Y-77734748D01*
X116969258Y-77764342D01*
X117041636Y-77805518D01*
X117101578Y-77857954D01*
X117148763Y-77921324D01*
X117182871Y-77995304D01*
X117198464Y-78051663D01*
X117206105Y-78104428D01*
X117209676Y-78166899D01*
X117209190Y-78232344D01*
X117204656Y-78294036D01*
X117197996Y-78336767D01*
X117172618Y-78420192D01*
X117133869Y-78495945D01*
X117083222Y-78562318D01*
X117022150Y-78617601D01*
X116952129Y-78660087D01*
X116901700Y-78680296D01*
X116881754Y-78684220D01*
X116847260Y-78687655D01*
X116797676Y-78690630D01*
X116732462Y-78693174D01*
X116651075Y-78695318D01*
X116613833Y-78696071D01*
X116359833Y-78700833D01*
X116355365Y-79246933D01*
X116042243Y-79246933D01*
X116044405Y-78482817D01*
X116044878Y-78315462D01*
X116357040Y-78315462D01*
X116357296Y-78362297D01*
X116357869Y-78399080D01*
X116358737Y-78423428D01*
X116359738Y-78432706D01*
X116369619Y-78437035D01*
X116393535Y-78440094D01*
X116428643Y-78441957D01*
X116472100Y-78442695D01*
X116521061Y-78442381D01*
X116572682Y-78441089D01*
X116624119Y-78438891D01*
X116672529Y-78435859D01*
X116715067Y-78432067D01*
X116748890Y-78427587D01*
X116771153Y-78422491D01*
X116772081Y-78422160D01*
X116811676Y-78400390D01*
X116847831Y-78367787D01*
X116875855Y-78329345D01*
X116889383Y-78297317D01*
X116893846Y-78270014D01*
X116896184Y-78232576D01*
X116896004Y-78191713D01*
X116895809Y-78187197D01*
X116889336Y-78129167D01*
X116875001Y-78083951D01*
X116851097Y-78048588D01*
X116815914Y-78020115D01*
X116791633Y-78006567D01*
X116740833Y-77981167D01*
X116359833Y-77981167D01*
X116357570Y-78201161D01*
X116357124Y-78260956D01*
X116357040Y-78315462D01*
X116044878Y-78315462D01*
X116046566Y-77718700D01*
X116436033Y-77718961D01*
D13*
X118915476Y-118250000D02*
G75*
G03X118915476Y-118250000I-2915476J0D01*
G01*
X111000000Y-113250000D02*
X121000000Y-113250000D01*
X121000000Y-113250000D02*
X121000000Y-124250000D01*
X121000000Y-124250000D02*
X111000000Y-124250000D01*
X111000000Y-124250000D02*
X111000000Y-113250000D01*
X118000000Y-118250000D02*
G75*
G03X118000000Y-118250000I-2000000J0D01*
G01*
X101415476Y-99750000D02*
G75*
G03X101415476Y-99750000I-2915476J0D01*
G01*
X103500000Y-104750000D02*
X93500000Y-104750000D01*
X93500000Y-104750000D02*
X93500000Y-93750000D01*
X93500000Y-93750000D02*
X103500000Y-93750000D01*
X103500000Y-93750000D02*
X103500000Y-104750000D01*
X100500000Y-99750000D02*
G75*
G03X100500000Y-99750000I-2000000J0D01*
G01*
X118915476Y-99750000D02*
G75*
G03X118915476Y-99750000I-2915476J0D01*
G01*
X111000000Y-94750000D02*
X121000000Y-94750000D01*
X121000000Y-94750000D02*
X121000000Y-105750000D01*
X121000000Y-105750000D02*
X111000000Y-105750000D01*
X111000000Y-105750000D02*
X111000000Y-94750000D01*
X118000000Y-99750000D02*
G75*
G03X118000000Y-99750000I-2000000J0D01*
G01*
X136415476Y-99750000D02*
G75*
G03X136415476Y-99750000I-2915476J0D01*
G01*
X138500000Y-104750000D02*
X128500000Y-104750000D01*
X128500000Y-104750000D02*
X128500000Y-93750000D01*
X128500000Y-93750000D02*
X138500000Y-93750000D01*
X138500000Y-93750000D02*
X138500000Y-104750000D01*
X135500000Y-99750000D02*
G75*
G03X135500000Y-99750000I-2000000J0D01*
G01*
X101415476Y-118250000D02*
G75*
G03X101415476Y-118250000I-2915476J0D01*
G01*
X103500000Y-123250000D02*
X93500000Y-123250000D01*
X93500000Y-123250000D02*
X93500000Y-112250000D01*
X93500000Y-112250000D02*
X103500000Y-112250000D01*
X103500000Y-112250000D02*
X103500000Y-123250000D01*
X100500000Y-118250000D02*
G75*
G03X100500000Y-118250000I-2000000J0D01*
G01*
X136415476Y-118250000D02*
G75*
G03X136415476Y-118250000I-2915476J0D01*
G01*
X138500000Y-123250000D02*
X128500000Y-123250000D01*
X128500000Y-123250000D02*
X128500000Y-112250000D01*
X128500000Y-112250000D02*
X138500000Y-112250000D01*
X138500000Y-112250000D02*
X138500000Y-123250000D01*
X135500000Y-118250000D02*
G75*
G03X135500000Y-118250000I-2000000J0D01*
G01*
X136415476Y-137750000D02*
G75*
G03X136415476Y-137750000I-2915476J0D01*
G01*
X138500000Y-142750000D02*
X128500000Y-142750000D01*
X128500000Y-142750000D02*
X128500000Y-131750000D01*
X128500000Y-131750000D02*
X138500000Y-131750000D01*
X138500000Y-131750000D02*
X138500000Y-142750000D01*
X135500000Y-137750000D02*
G75*
G03X135500000Y-137750000I-2000000J0D01*
G01*
X101415476Y-137750000D02*
G75*
G03X101415476Y-137750000I-2915476J0D01*
G01*
X103500000Y-142750000D02*
X93500000Y-142750000D01*
X93500000Y-142750000D02*
X93500000Y-131750000D01*
X93500000Y-131750000D02*
X103500000Y-131750000D01*
X103500000Y-131750000D02*
X103500000Y-142750000D01*
X100500000Y-137750000D02*
G75*
G03X100500000Y-137750000I-2000000J0D01*
G01*
X118915476Y-137750000D02*
G75*
G03X118915476Y-137750000I-2915476J0D01*
G01*
X121000000Y-142750000D02*
X111000000Y-142750000D01*
X111000000Y-142750000D02*
X111000000Y-131750000D01*
X111000000Y-131750000D02*
X121000000Y-131750000D01*
X121000000Y-131750000D02*
X121000000Y-142750000D01*
X118000000Y-137750000D02*
G75*
G03X118000000Y-137750000I-2000000J0D01*
G01*
X117000000Y-129750000D02*
X117000000Y-126750000D01*
X118000000Y-129750000D02*
X118000000Y-126750000D01*
X116000000Y-128250000D02*
X116000000Y-129750000D01*
X116000000Y-129750000D02*
X119000000Y-129750000D01*
X119000000Y-129750000D02*
X119000000Y-126750000D01*
X119000000Y-126750000D02*
X116000000Y-126750000D01*
X116000000Y-126750000D02*
X116000000Y-128250000D01*
X116000000Y-131050000D02*
X109300000Y-131050000D01*
X109250000Y-131050000D02*
X109250000Y-125450000D01*
X109300000Y-125450000D02*
X122700000Y-125450000D01*
X122750000Y-125450000D02*
X122750000Y-131050000D01*
X122700000Y-131050000D02*
X116000000Y-131050000D01*
X129400000Y-63200000D02*
G75*
G03X129400000Y-63200000I-900000J0D01*
G01*
X129300000Y-63400000D02*
X127700000Y-63400000D01*
X129300000Y-63000000D02*
X127700000Y-63000000D01*
X124900000Y-71600000D02*
X124900000Y-70800000D01*
X124900000Y-70800000D02*
X125200000Y-70800000D01*
X125200000Y-70800000D02*
X125200000Y-62800000D01*
X125200000Y-62800000D02*
X124900000Y-62800000D01*
X124900000Y-62800000D02*
X124900000Y-62000000D01*
X129700000Y-71600000D02*
X129700000Y-62000000D01*
X129700000Y-62000000D02*
X124900000Y-62000000D01*
X129700000Y-71600000D02*
X124900000Y-71600000D01*
X116900000Y-92750000D02*
G75*
G03X116900000Y-92750000I-900000J0D01*
G01*
X115800000Y-93550000D02*
X115800000Y-91950000D01*
X116200000Y-93550000D02*
X116200000Y-91950000D01*
X107600000Y-89150000D02*
X108400000Y-89150000D01*
X108400000Y-89150000D02*
X108400000Y-89450000D01*
X108400000Y-89450000D02*
X116400000Y-89450000D01*
X116400000Y-89450000D02*
X116400000Y-89150000D01*
X116400000Y-89150000D02*
X117200000Y-89150000D01*
X107600000Y-93950000D02*
X117200000Y-93950000D01*
X117200000Y-93950000D02*
X117200000Y-89150000D01*
X107600000Y-93950000D02*
X107600000Y-89150000D01*
D14*
X130736068Y-80250000D02*
G75*
G03X130736068Y-80250000I-2236068J0D01*
G01*
X123500000Y-80250000D02*
X123500000Y-75250000D01*
X123500000Y-75250000D02*
X133500000Y-75250000D01*
X133500000Y-75250000D02*
X133500000Y-86250000D01*
X133500000Y-86250000D02*
X123500000Y-86250000D01*
X123500000Y-86250000D02*
X123500000Y-80250000D01*
X105736068Y-80250000D02*
G75*
G03X105736068Y-80250000I-2236068J0D01*
G01*
X98500000Y-80250000D02*
X98500000Y-75250000D01*
X98500000Y-75250000D02*
X108500000Y-75250000D01*
X108500000Y-75250000D02*
X108500000Y-86250000D01*
X108500000Y-86250000D02*
X98500000Y-86250000D01*
X98500000Y-86250000D02*
X98500000Y-80250000D01*
X130736068Y-51250000D02*
G75*
G03X130736068Y-51250000I-2236068J0D01*
G01*
X123500000Y-51250000D02*
X123500000Y-46250000D01*
X123500000Y-46250000D02*
X133500000Y-46250000D01*
X133500000Y-46250000D02*
X133500000Y-57250000D01*
X133500000Y-57250000D02*
X123500000Y-57250000D01*
X123500000Y-57250000D02*
X123500000Y-51250000D01*
D13*
X119200000Y-113578571D02*
X119200000Y-114650000D01*
X119128572Y-114864286D01*
X118985715Y-115007143D01*
X118771429Y-115078571D01*
X118628572Y-115078571D01*
X120700000Y-115078571D02*
X119842857Y-115078571D01*
X120271429Y-115078571D02*
X120271429Y-113578571D01*
X120128572Y-113792857D01*
X119985714Y-113935714D01*
X119842857Y-114007143D01*
X101400000Y-94278571D02*
X101400000Y-95350000D01*
X101328572Y-95564286D01*
X101185715Y-95707143D01*
X100971429Y-95778571D01*
X100828572Y-95778571D01*
X102042857Y-94421429D02*
X102114286Y-94350000D01*
X102257143Y-94278571D01*
X102614286Y-94278571D01*
X102757143Y-94350000D01*
X102828572Y-94421429D01*
X102900000Y-94564286D01*
X102900000Y-94707143D01*
X102828572Y-94921429D01*
X101971429Y-95778571D01*
X102900000Y-95778571D01*
X119100000Y-95178571D02*
X119100000Y-96250000D01*
X119028572Y-96464286D01*
X118885715Y-96607143D01*
X118671429Y-96678571D01*
X118528572Y-96678571D01*
X120457143Y-95678571D02*
X120457143Y-96678571D01*
X120100000Y-95107143D02*
X119742857Y-96178571D01*
X120671429Y-96178571D01*
X136600000Y-94278571D02*
X136600000Y-95350000D01*
X136528572Y-95564286D01*
X136385715Y-95707143D01*
X136171429Y-95778571D01*
X136028572Y-95778571D01*
X138028572Y-94278571D02*
X137314286Y-94278571D01*
X137242857Y-94992857D01*
X137314286Y-94921429D01*
X137457143Y-94850000D01*
X137814286Y-94850000D01*
X137957143Y-94921429D01*
X138028572Y-94992857D01*
X138100000Y-95135714D01*
X138100000Y-95492857D01*
X138028572Y-95635714D01*
X137957143Y-95707143D01*
X137814286Y-95778571D01*
X137457143Y-95778571D01*
X137314286Y-95707143D01*
X137242857Y-95635714D01*
X101500000Y-112778571D02*
X101500000Y-113850000D01*
X101428572Y-114064286D01*
X101285715Y-114207143D01*
X101071429Y-114278571D01*
X100928572Y-114278571D01*
X102857143Y-112778571D02*
X102571429Y-112778571D01*
X102428572Y-112850000D01*
X102357143Y-112921429D01*
X102214286Y-113135714D01*
X102142857Y-113421429D01*
X102142857Y-113992857D01*
X102214286Y-114135714D01*
X102285714Y-114207143D01*
X102428572Y-114278571D01*
X102714286Y-114278571D01*
X102857143Y-114207143D01*
X102928572Y-114135714D01*
X103000000Y-113992857D01*
X103000000Y-113635714D01*
X102928572Y-113492857D01*
X102857143Y-113421429D01*
X102714286Y-113350000D01*
X102428572Y-113350000D01*
X102285714Y-113421429D01*
X102214286Y-113492857D01*
X102142857Y-113635714D01*
X136500000Y-112878571D02*
X136500000Y-113950000D01*
X136428572Y-114164286D01*
X136285715Y-114307143D01*
X136071429Y-114378571D01*
X135928572Y-114378571D01*
X137071429Y-112878571D02*
X138071429Y-112878571D01*
X137428572Y-114378571D01*
X136500000Y-132078571D02*
X136500000Y-133150000D01*
X136428572Y-133364286D01*
X136285715Y-133507143D01*
X136071429Y-133578571D01*
X135928572Y-133578571D01*
X137428572Y-132721429D02*
X137285714Y-132650000D01*
X137214286Y-132578571D01*
X137142857Y-132435714D01*
X137142857Y-132364286D01*
X137214286Y-132221429D01*
X137285714Y-132150000D01*
X137428572Y-132078571D01*
X137714286Y-132078571D01*
X137857143Y-132150000D01*
X137928572Y-132221429D01*
X138000000Y-132364286D01*
X138000000Y-132435714D01*
X137928572Y-132578571D01*
X137857143Y-132650000D01*
X137714286Y-132721429D01*
X137428572Y-132721429D01*
X137285714Y-132792857D01*
X137214286Y-132864286D01*
X137142857Y-133007143D01*
X137142857Y-133292857D01*
X137214286Y-133435714D01*
X137285714Y-133507143D01*
X137428572Y-133578571D01*
X137714286Y-133578571D01*
X137857143Y-133507143D01*
X137928572Y-133435714D01*
X138000000Y-133292857D01*
X138000000Y-133007143D01*
X137928572Y-132864286D01*
X137857143Y-132792857D01*
X137714286Y-132721429D01*
X101500000Y-132278571D02*
X101500000Y-133350000D01*
X101428572Y-133564286D01*
X101285715Y-133707143D01*
X101071429Y-133778571D01*
X100928572Y-133778571D01*
X102285714Y-133778571D02*
X102571429Y-133778571D01*
X102714286Y-133707143D01*
X102785714Y-133635714D01*
X102928572Y-133421429D01*
X103000000Y-133135714D01*
X103000000Y-132564286D01*
X102928572Y-132421429D01*
X102857143Y-132350000D01*
X102714286Y-132278571D01*
X102428572Y-132278571D01*
X102285714Y-132350000D01*
X102214286Y-132421429D01*
X102142857Y-132564286D01*
X102142857Y-132921429D01*
X102214286Y-133064286D01*
X102285714Y-133135714D01*
X102428572Y-133207143D01*
X102714286Y-133207143D01*
X102857143Y-133135714D01*
X102928572Y-133064286D01*
X103000000Y-132921429D01*
X111678571Y-135114285D02*
X112750000Y-135114285D01*
X112964286Y-135185713D01*
X113107143Y-135328570D01*
X113178571Y-135542856D01*
X113178571Y-135685713D01*
X113178571Y-133614285D02*
X113178571Y-134471428D01*
X113178571Y-134042856D02*
X111678571Y-134042856D01*
X111892857Y-134185713D01*
X112035714Y-134328571D01*
X112107143Y-134471428D01*
X111678571Y-132685714D02*
X111678571Y-132542857D01*
X111750000Y-132400000D01*
X111821429Y-132328571D01*
X111964286Y-132257142D01*
X112250000Y-132185714D01*
X112607143Y-132185714D01*
X112892857Y-132257142D01*
X113035714Y-132328571D01*
X113107143Y-132400000D01*
X113178571Y-132542857D01*
X113178571Y-132685714D01*
X113107143Y-132828571D01*
X113035714Y-132900000D01*
X112892857Y-132971428D01*
X112607143Y-133042857D01*
X112250000Y-133042857D01*
X111964286Y-132971428D01*
X111821429Y-132900000D01*
X111750000Y-132828571D01*
X111678571Y-132685714D01*
X111654762Y-129333333D02*
X111702381Y-129190476D01*
X111702381Y-128952380D01*
X111654762Y-128857142D01*
X111607143Y-128809523D01*
X111511905Y-128761904D01*
X111416667Y-128761904D01*
X111321429Y-128809523D01*
X111273810Y-128857142D01*
X111226190Y-128952380D01*
X111178571Y-129142857D01*
X111130952Y-129238095D01*
X111083333Y-129285714D01*
X110988095Y-129333333D01*
X110892857Y-129333333D01*
X110797619Y-129285714D01*
X110750000Y-129238095D01*
X110702381Y-129142857D01*
X110702381Y-128904761D01*
X110750000Y-128761904D01*
X110702381Y-128428571D02*
X111702381Y-128190476D01*
X110988095Y-127999999D01*
X111702381Y-127809523D01*
X110702381Y-127571428D01*
X111702381Y-126666666D02*
X111702381Y-127238095D01*
X111702381Y-126952381D02*
X110702381Y-126952381D01*
X110845238Y-127047619D01*
X110940476Y-127142857D01*
X110988095Y-127238095D01*
X130052381Y-71509524D02*
X131052381Y-71176191D01*
X130052381Y-70842857D01*
X131052381Y-69938095D02*
X130576190Y-70271429D01*
X131052381Y-70509524D02*
X130052381Y-70509524D01*
X130052381Y-70128571D01*
X130100000Y-70033333D01*
X130147619Y-69985714D01*
X130242857Y-69938095D01*
X130385714Y-69938095D01*
X130480952Y-69985714D01*
X130528571Y-70033333D01*
X130576190Y-70128571D01*
X130576190Y-70509524D01*
X130052381Y-69033333D02*
X130052381Y-69509524D01*
X130528571Y-69557143D01*
X130480952Y-69509524D01*
X130433333Y-69414286D01*
X130433333Y-69176190D01*
X130480952Y-69080952D01*
X130528571Y-69033333D01*
X130623810Y-68985714D01*
X130861905Y-68985714D01*
X130957143Y-69033333D01*
X131004762Y-69080952D01*
X131052381Y-69176190D01*
X131052381Y-69414286D01*
X131004762Y-69509524D01*
X130957143Y-69557143D01*
X117578571Y-93564285D02*
X119078571Y-93064285D01*
X117578571Y-92564285D01*
X119078571Y-91207142D02*
X118364286Y-91707142D01*
X119078571Y-92064285D02*
X117578571Y-92064285D01*
X117578571Y-91492857D01*
X117650000Y-91349999D01*
X117721429Y-91278571D01*
X117864286Y-91207142D01*
X118078571Y-91207142D01*
X118221429Y-91278571D01*
X118292857Y-91349999D01*
X118364286Y-91492857D01*
X118364286Y-92064285D01*
X117578571Y-89921428D02*
X117578571Y-90207142D01*
X117650000Y-90349999D01*
X117721429Y-90421428D01*
X117935714Y-90564285D01*
X118221429Y-90635714D01*
X118792857Y-90635714D01*
X118935714Y-90564285D01*
X119007143Y-90492857D01*
X119078571Y-90349999D01*
X119078571Y-90064285D01*
X119007143Y-89921428D01*
X118935714Y-89849999D01*
X118792857Y-89778571D01*
X118435714Y-89778571D01*
X118292857Y-89849999D01*
X118221429Y-89921428D01*
X118150000Y-90064285D01*
X118150000Y-90349999D01*
X118221429Y-90492857D01*
X118292857Y-90564285D01*
X118435714Y-90635714D01*
X127190476Y-89202381D02*
X127523809Y-90202381D01*
X127857143Y-89202381D01*
X128761905Y-90202381D02*
X128428571Y-89726190D01*
X128190476Y-90202381D02*
X128190476Y-89202381D01*
X128571429Y-89202381D01*
X128666667Y-89250000D01*
X128714286Y-89297619D01*
X128761905Y-89392857D01*
X128761905Y-89535714D01*
X128714286Y-89630952D01*
X128666667Y-89678571D01*
X128571429Y-89726190D01*
X128190476Y-89726190D01*
X129333333Y-89630952D02*
X129238095Y-89583333D01*
X129190476Y-89535714D01*
X129142857Y-89440476D01*
X129142857Y-89392857D01*
X129190476Y-89297619D01*
X129238095Y-89250000D01*
X129333333Y-89202381D01*
X129523810Y-89202381D01*
X129619048Y-89250000D01*
X129666667Y-89297619D01*
X129714286Y-89392857D01*
X129714286Y-89440476D01*
X129666667Y-89535714D01*
X129619048Y-89583333D01*
X129523810Y-89630952D01*
X129333333Y-89630952D01*
X129238095Y-89678571D01*
X129190476Y-89726190D01*
X129142857Y-89821429D01*
X129142857Y-90011905D01*
X129190476Y-90107143D01*
X129238095Y-90154762D01*
X129333333Y-90202381D01*
X129523810Y-90202381D01*
X129619048Y-90154762D01*
X129666667Y-90107143D01*
X129714286Y-90011905D01*
X129714286Y-89821429D01*
X129666667Y-89726190D01*
X129619048Y-89678571D01*
X129523810Y-89630952D01*
X102190476Y-89202381D02*
X102523809Y-90202381D01*
X102857143Y-89202381D01*
X103761905Y-90202381D02*
X103428571Y-89726190D01*
X103190476Y-90202381D02*
X103190476Y-89202381D01*
X103571429Y-89202381D01*
X103666667Y-89250000D01*
X103714286Y-89297619D01*
X103761905Y-89392857D01*
X103761905Y-89535714D01*
X103714286Y-89630952D01*
X103666667Y-89678571D01*
X103571429Y-89726190D01*
X103190476Y-89726190D01*
X104095238Y-89202381D02*
X104714286Y-89202381D01*
X104380952Y-89583333D01*
X104523810Y-89583333D01*
X104619048Y-89630952D01*
X104666667Y-89678571D01*
X104714286Y-89773810D01*
X104714286Y-90011905D01*
X104666667Y-90107143D01*
X104619048Y-90154762D01*
X104523810Y-90202381D01*
X104238095Y-90202381D01*
X104142857Y-90154762D01*
X104095238Y-90107143D01*
X127190476Y-60152381D02*
X127523809Y-61152381D01*
X127857143Y-60152381D01*
X128761905Y-61152381D02*
X128428571Y-60676190D01*
X128190476Y-61152381D02*
X128190476Y-60152381D01*
X128571429Y-60152381D01*
X128666667Y-60200000D01*
X128714286Y-60247619D01*
X128761905Y-60342857D01*
X128761905Y-60485714D01*
X128714286Y-60580952D01*
X128666667Y-60628571D01*
X128571429Y-60676190D01*
X128190476Y-60676190D01*
X129142857Y-60247619D02*
X129190476Y-60200000D01*
X129285714Y-60152381D01*
X129523810Y-60152381D01*
X129619048Y-60200000D01*
X129666667Y-60247619D01*
X129714286Y-60342857D01*
X129714286Y-60438095D01*
X129666667Y-60580952D01*
X129095238Y-61152381D01*
X129714286Y-61152381D01*
%LPC*%
D12*
G36*
X134052528Y-39047199D02*
X134162340Y-39062043D01*
X134265105Y-39088060D01*
X134357269Y-39125305D01*
X134358524Y-39125935D01*
X134449825Y-39180600D01*
X134529712Y-39247128D01*
X134598430Y-39326004D01*
X134656225Y-39417710D01*
X134703343Y-39522730D01*
X134740032Y-39641547D01*
X134766536Y-39774646D01*
X134783102Y-39922509D01*
X134785918Y-39965284D01*
X134789195Y-40066929D01*
X134788210Y-40174115D01*
X134783231Y-40280877D01*
X134774528Y-40381252D01*
X134763419Y-40463101D01*
X134750257Y-40527333D01*
X134731843Y-40597076D01*
X134709973Y-40666693D01*
X134686442Y-40730549D01*
X134663044Y-40783010D01*
X134659148Y-40790502D01*
X134636707Y-40828643D01*
X134608698Y-40870669D01*
X134578428Y-40912131D01*
X134549201Y-40948584D01*
X134524324Y-40975583D01*
X134516083Y-40982940D01*
X134491679Y-41002647D01*
X134531319Y-41044413D01*
X134603481Y-41133535D01*
X134663961Y-41236526D01*
X134712750Y-41353361D01*
X134749837Y-41484018D01*
X134764447Y-41557139D01*
X134775997Y-41642313D01*
X134783805Y-41740171D01*
X134787870Y-41845785D01*
X134788193Y-41954227D01*
X134784774Y-42060569D01*
X134777613Y-42159884D01*
X134766711Y-42247244D01*
X134764399Y-42261051D01*
X134733958Y-42395825D01*
X134692321Y-42516348D01*
X134639433Y-42622687D01*
X134575238Y-42714911D01*
X134499682Y-42793087D01*
X134412709Y-42857282D01*
X134314264Y-42907566D01*
X134210464Y-42942406D01*
X134161932Y-42951909D01*
X134100275Y-42959111D01*
X134030382Y-42963881D01*
X133957140Y-42966084D01*
X133885438Y-42965587D01*
X133820165Y-42962258D01*
X133766208Y-42955964D01*
X133759070Y-42954695D01*
X133644854Y-42925891D01*
X133542477Y-42884594D01*
X133451646Y-42830441D01*
X133372074Y-42763073D01*
X133303468Y-42682127D01*
X133245539Y-42587241D01*
X133197997Y-42478055D01*
X133160552Y-42354206D01*
X133132913Y-42215333D01*
X133125834Y-42165679D01*
X133121405Y-42118572D01*
X133118203Y-42057908D01*
X133116229Y-41988091D01*
X133116052Y-41970338D01*
X133462994Y-41970338D01*
X133464663Y-42044368D01*
X133468255Y-42109776D01*
X133473859Y-42162746D01*
X133474297Y-42165679D01*
X133496218Y-42275545D01*
X133526362Y-42369488D01*
X133565321Y-42448044D01*
X133613685Y-42511750D01*
X133672048Y-42561142D01*
X133740999Y-42596757D01*
X133821131Y-42619131D01*
X133913035Y-42628800D01*
X133984406Y-42628309D01*
X134040397Y-42623751D01*
X134093325Y-42615836D01*
X134134085Y-42606149D01*
X134204481Y-42578111D01*
X134263284Y-42540266D01*
X134311995Y-42490912D01*
X134352115Y-42428346D01*
X134385145Y-42350866D01*
X134399855Y-42304674D01*
X134415384Y-42243188D01*
X134426978Y-42178073D01*
X134434992Y-42105938D01*
X134439778Y-42023394D01*
X134441690Y-41927048D01*
X134441760Y-41902369D01*
X134438698Y-41768556D01*
X134429185Y-41650926D01*
X134412799Y-41548550D01*
X134389119Y-41460502D01*
X134357722Y-41385851D01*
X134318186Y-41323669D01*
X134270090Y-41273029D01*
X134213012Y-41233001D01*
X134146530Y-41202657D01*
X134119750Y-41193784D01*
X134069437Y-41183303D01*
X134007598Y-41177562D01*
X133940205Y-41176501D01*
X133873229Y-41180061D01*
X133812640Y-41188181D01*
X133774915Y-41197249D01*
X133701770Y-41227769D01*
X133639131Y-41271192D01*
X133586409Y-41328264D01*
X133543015Y-41399726D01*
X133508360Y-41486324D01*
X133488396Y-41558854D01*
X133480389Y-41604459D01*
X133473774Y-41664344D01*
X133468638Y-41734690D01*
X133465070Y-41811683D01*
X133463159Y-41891505D01*
X133462994Y-41970338D01*
X133116052Y-41970338D01*
X133115484Y-41913529D01*
X133115969Y-41838630D01*
X133117685Y-41767798D01*
X133120632Y-41705442D01*
X133124813Y-41655968D01*
X133125718Y-41648607D01*
X133150250Y-41504562D01*
X133184094Y-41375862D01*
X133227373Y-41262207D01*
X133280209Y-41163301D01*
X133342724Y-41078844D01*
X133371790Y-41047714D01*
X133410293Y-41009250D01*
X133369972Y-40966072D01*
X133305646Y-40887761D01*
X133251375Y-40800779D01*
X133206665Y-40703714D01*
X133171021Y-40595158D01*
X133143952Y-40473701D01*
X133124962Y-40337932D01*
X133116829Y-40242999D01*
X133113970Y-40164923D01*
X133462486Y-40164923D01*
X133463701Y-40237316D01*
X133466821Y-40300963D01*
X133470926Y-40344282D01*
X133488539Y-40447939D01*
X133513592Y-40540351D01*
X133545426Y-40619597D01*
X133583383Y-40683757D01*
X133590458Y-40693103D01*
X133633743Y-40735681D01*
X133690749Y-40772936D01*
X133757347Y-40802776D01*
X133829406Y-40823113D01*
X133856679Y-40827818D01*
X133910740Y-40832035D01*
X133973929Y-40831650D01*
X134038502Y-40827086D01*
X134096715Y-40818763D01*
X134120417Y-40813481D01*
X134193147Y-40787839D01*
X134254544Y-40751077D01*
X134305824Y-40701865D01*
X134348207Y-40638874D01*
X134382911Y-40560775D01*
X134399894Y-40508396D01*
X134415415Y-40446919D01*
X134427003Y-40381776D01*
X134435010Y-40309580D01*
X134439789Y-40226949D01*
X134441692Y-40130496D01*
X134441760Y-40106226D01*
X134440721Y-40012517D01*
X134437326Y-39932985D01*
X134431208Y-39863775D01*
X134422002Y-39801032D01*
X134409340Y-39740899D01*
X134405567Y-39725725D01*
X134376062Y-39634474D01*
X134337679Y-39558527D01*
X134289568Y-39497241D01*
X134230878Y-39449975D01*
X134160758Y-39416087D01*
X134078359Y-39394934D01*
X133982828Y-39385876D01*
X133954643Y-39385420D01*
X133882977Y-39387438D01*
X133823536Y-39394412D01*
X133770833Y-39407377D01*
X133719380Y-39427364D01*
X133710727Y-39431363D01*
X133648545Y-39470609D01*
X133594397Y-39525629D01*
X133548771Y-39595700D01*
X133512152Y-39680098D01*
X133488660Y-39761750D01*
X133480898Y-39806050D01*
X133474340Y-39864624D01*
X133469103Y-39933634D01*
X133465304Y-40009246D01*
X133463059Y-40087621D01*
X133462486Y-40164923D01*
X133113970Y-40164923D01*
X133112510Y-40125085D01*
X133114833Y-40004565D01*
X133123398Y-39885382D01*
X133137804Y-39771481D01*
X133157650Y-39666807D01*
X133182536Y-39575304D01*
X133185582Y-39566160D01*
X133212708Y-39496259D01*
X133245776Y-39426473D01*
X133281417Y-39363514D01*
X133304332Y-39329481D01*
X133344155Y-39282236D01*
X133394108Y-39233347D01*
X133448474Y-39187821D01*
X133501535Y-39150665D01*
X133522182Y-39138693D01*
X133613908Y-39098480D01*
X133716360Y-39069170D01*
X133825983Y-39050817D01*
X133939224Y-39043476D01*
X134052528Y-39047199D01*
X134052528Y-39047199D01*
G37*
X134052528Y-39047199D02*
X134162340Y-39062043D01*
X134265105Y-39088060D01*
X134357269Y-39125305D01*
X134358524Y-39125935D01*
X134449825Y-39180600D01*
X134529712Y-39247128D01*
X134598430Y-39326004D01*
X134656225Y-39417710D01*
X134703343Y-39522730D01*
X134740032Y-39641547D01*
X134766536Y-39774646D01*
X134783102Y-39922509D01*
X134785918Y-39965284D01*
X134789195Y-40066929D01*
X134788210Y-40174115D01*
X134783231Y-40280877D01*
X134774528Y-40381252D01*
X134763419Y-40463101D01*
X134750257Y-40527333D01*
X134731843Y-40597076D01*
X134709973Y-40666693D01*
X134686442Y-40730549D01*
X134663044Y-40783010D01*
X134659148Y-40790502D01*
X134636707Y-40828643D01*
X134608698Y-40870669D01*
X134578428Y-40912131D01*
X134549201Y-40948584D01*
X134524324Y-40975583D01*
X134516083Y-40982940D01*
X134491679Y-41002647D01*
X134531319Y-41044413D01*
X134603481Y-41133535D01*
X134663961Y-41236526D01*
X134712750Y-41353361D01*
X134749837Y-41484018D01*
X134764447Y-41557139D01*
X134775997Y-41642313D01*
X134783805Y-41740171D01*
X134787870Y-41845785D01*
X134788193Y-41954227D01*
X134784774Y-42060569D01*
X134777613Y-42159884D01*
X134766711Y-42247244D01*
X134764399Y-42261051D01*
X134733958Y-42395825D01*
X134692321Y-42516348D01*
X134639433Y-42622687D01*
X134575238Y-42714911D01*
X134499682Y-42793087D01*
X134412709Y-42857282D01*
X134314264Y-42907566D01*
X134210464Y-42942406D01*
X134161932Y-42951909D01*
X134100275Y-42959111D01*
X134030382Y-42963881D01*
X133957140Y-42966084D01*
X133885438Y-42965587D01*
X133820165Y-42962258D01*
X133766208Y-42955964D01*
X133759070Y-42954695D01*
X133644854Y-42925891D01*
X133542477Y-42884594D01*
X133451646Y-42830441D01*
X133372074Y-42763073D01*
X133303468Y-42682127D01*
X133245539Y-42587241D01*
X133197997Y-42478055D01*
X133160552Y-42354206D01*
X133132913Y-42215333D01*
X133125834Y-42165679D01*
X133121405Y-42118572D01*
X133118203Y-42057908D01*
X133116229Y-41988091D01*
X133116052Y-41970338D01*
X133462994Y-41970338D01*
X133464663Y-42044368D01*
X133468255Y-42109776D01*
X133473859Y-42162746D01*
X133474297Y-42165679D01*
X133496218Y-42275545D01*
X133526362Y-42369488D01*
X133565321Y-42448044D01*
X133613685Y-42511750D01*
X133672048Y-42561142D01*
X133740999Y-42596757D01*
X133821131Y-42619131D01*
X133913035Y-42628800D01*
X133984406Y-42628309D01*
X134040397Y-42623751D01*
X134093325Y-42615836D01*
X134134085Y-42606149D01*
X134204481Y-42578111D01*
X134263284Y-42540266D01*
X134311995Y-42490912D01*
X134352115Y-42428346D01*
X134385145Y-42350866D01*
X134399855Y-42304674D01*
X134415384Y-42243188D01*
X134426978Y-42178073D01*
X134434992Y-42105938D01*
X134439778Y-42023394D01*
X134441690Y-41927048D01*
X134441760Y-41902369D01*
X134438698Y-41768556D01*
X134429185Y-41650926D01*
X134412799Y-41548550D01*
X134389119Y-41460502D01*
X134357722Y-41385851D01*
X134318186Y-41323669D01*
X134270090Y-41273029D01*
X134213012Y-41233001D01*
X134146530Y-41202657D01*
X134119750Y-41193784D01*
X134069437Y-41183303D01*
X134007598Y-41177562D01*
X133940205Y-41176501D01*
X133873229Y-41180061D01*
X133812640Y-41188181D01*
X133774915Y-41197249D01*
X133701770Y-41227769D01*
X133639131Y-41271192D01*
X133586409Y-41328264D01*
X133543015Y-41399726D01*
X133508360Y-41486324D01*
X133488396Y-41558854D01*
X133480389Y-41604459D01*
X133473774Y-41664344D01*
X133468638Y-41734690D01*
X133465070Y-41811683D01*
X133463159Y-41891505D01*
X133462994Y-41970338D01*
X133116052Y-41970338D01*
X133115484Y-41913529D01*
X133115969Y-41838630D01*
X133117685Y-41767798D01*
X133120632Y-41705442D01*
X133124813Y-41655968D01*
X133125718Y-41648607D01*
X133150250Y-41504562D01*
X133184094Y-41375862D01*
X133227373Y-41262207D01*
X133280209Y-41163301D01*
X133342724Y-41078844D01*
X133371790Y-41047714D01*
X133410293Y-41009250D01*
X133369972Y-40966072D01*
X133305646Y-40887761D01*
X133251375Y-40800779D01*
X133206665Y-40703714D01*
X133171021Y-40595158D01*
X133143952Y-40473701D01*
X133124962Y-40337932D01*
X133116829Y-40242999D01*
X133113970Y-40164923D01*
X133462486Y-40164923D01*
X133463701Y-40237316D01*
X133466821Y-40300963D01*
X133470926Y-40344282D01*
X133488539Y-40447939D01*
X133513592Y-40540351D01*
X133545426Y-40619597D01*
X133583383Y-40683757D01*
X133590458Y-40693103D01*
X133633743Y-40735681D01*
X133690749Y-40772936D01*
X133757347Y-40802776D01*
X133829406Y-40823113D01*
X133856679Y-40827818D01*
X133910740Y-40832035D01*
X133973929Y-40831650D01*
X134038502Y-40827086D01*
X134096715Y-40818763D01*
X134120417Y-40813481D01*
X134193147Y-40787839D01*
X134254544Y-40751077D01*
X134305824Y-40701865D01*
X134348207Y-40638874D01*
X134382911Y-40560775D01*
X134399894Y-40508396D01*
X134415415Y-40446919D01*
X134427003Y-40381776D01*
X134435010Y-40309580D01*
X134439789Y-40226949D01*
X134441692Y-40130496D01*
X134441760Y-40106226D01*
X134440721Y-40012517D01*
X134437326Y-39932985D01*
X134431208Y-39863775D01*
X134422002Y-39801032D01*
X134409340Y-39740899D01*
X134405567Y-39725725D01*
X134376062Y-39634474D01*
X134337679Y-39558527D01*
X134289568Y-39497241D01*
X134230878Y-39449975D01*
X134160758Y-39416087D01*
X134078359Y-39394934D01*
X133982828Y-39385876D01*
X133954643Y-39385420D01*
X133882977Y-39387438D01*
X133823536Y-39394412D01*
X133770833Y-39407377D01*
X133719380Y-39427364D01*
X133710727Y-39431363D01*
X133648545Y-39470609D01*
X133594397Y-39525629D01*
X133548771Y-39595700D01*
X133512152Y-39680098D01*
X133488660Y-39761750D01*
X133480898Y-39806050D01*
X133474340Y-39864624D01*
X133469103Y-39933634D01*
X133465304Y-40009246D01*
X133463059Y-40087621D01*
X133462486Y-40164923D01*
X133113970Y-40164923D01*
X133112510Y-40125085D01*
X133114833Y-40004565D01*
X133123398Y-39885382D01*
X133137804Y-39771481D01*
X133157650Y-39666807D01*
X133182536Y-39575304D01*
X133185582Y-39566160D01*
X133212708Y-39496259D01*
X133245776Y-39426473D01*
X133281417Y-39363514D01*
X133304332Y-39329481D01*
X133344155Y-39282236D01*
X133394108Y-39233347D01*
X133448474Y-39187821D01*
X133501535Y-39150665D01*
X133522182Y-39138693D01*
X133613908Y-39098480D01*
X133716360Y-39069170D01*
X133825983Y-39050817D01*
X133939224Y-39043476D01*
X134052528Y-39047199D01*
G36*
X135896670Y-39046936D02*
X135965612Y-39050736D01*
X136027929Y-39056912D01*
X136078714Y-39065365D01*
X136081169Y-39065916D01*
X136198194Y-39100683D01*
X136303488Y-39148945D01*
X136397117Y-39210793D01*
X136479147Y-39286324D01*
X136549644Y-39375629D01*
X136608676Y-39478803D01*
X136656309Y-39595940D01*
X136692608Y-39727134D01*
X136717640Y-39872477D01*
X136728339Y-39980522D01*
X136730184Y-40017016D01*
X136731748Y-40071567D01*
X136733029Y-40144091D01*
X136734027Y-40234506D01*
X136734741Y-40342727D01*
X136735173Y-40468672D01*
X136735319Y-40612256D01*
X136735182Y-40773397D01*
X136734759Y-40952011D01*
X136734227Y-41104321D01*
X136733581Y-41262414D01*
X136732942Y-41403435D01*
X136732290Y-41528459D01*
X136731609Y-41638558D01*
X136730878Y-41734803D01*
X136730079Y-41818269D01*
X136729193Y-41890026D01*
X136728202Y-41951148D01*
X136727086Y-42002707D01*
X136725828Y-42045775D01*
X136724407Y-42081425D01*
X136722806Y-42110730D01*
X136721006Y-42134762D01*
X136718987Y-42154593D01*
X136716732Y-42171296D01*
X136715428Y-42179286D01*
X136690668Y-42301126D01*
X136660705Y-42407799D01*
X136624382Y-42501821D01*
X136580540Y-42585712D01*
X136528021Y-42661990D01*
X136465668Y-42733172D01*
X136456445Y-42742516D01*
X136376611Y-42813160D01*
X136291764Y-42869644D01*
X136200053Y-42912642D01*
X136099626Y-42942824D01*
X135988629Y-42960862D01*
X135865211Y-42967426D01*
X135835862Y-42967394D01*
X135786499Y-42966272D01*
X135737808Y-42964083D01*
X135695969Y-42961163D01*
X135670964Y-42958439D01*
X135571714Y-42936623D01*
X135472716Y-42900898D01*
X135379523Y-42853655D01*
X135298674Y-42798085D01*
X135217189Y-42720834D01*
X135146632Y-42629168D01*
X135086992Y-42523063D01*
X135038257Y-42402496D01*
X135000413Y-42267441D01*
X134984481Y-42188357D01*
X134982611Y-42174379D01*
X134980932Y-42154149D01*
X134979437Y-42126790D01*
X134978115Y-42091424D01*
X134976957Y-42047170D01*
X134975956Y-41993152D01*
X134975101Y-41928490D01*
X134974384Y-41852306D01*
X134973796Y-41763721D01*
X134973328Y-41661857D01*
X134972970Y-41545835D01*
X134972715Y-41414777D01*
X134972553Y-41267804D01*
X134972475Y-41104037D01*
X134972466Y-41017715D01*
X135303339Y-41017715D01*
X135303397Y-41141733D01*
X135303596Y-41264039D01*
X135303936Y-41383105D01*
X135304419Y-41497404D01*
X135305044Y-41605411D01*
X135305811Y-41705598D01*
X135306722Y-41796439D01*
X135307776Y-41876408D01*
X135308973Y-41943977D01*
X135310315Y-41997620D01*
X135311801Y-42035810D01*
X135313031Y-42053592D01*
X135330534Y-42175636D01*
X135357098Y-42282218D01*
X135393051Y-42373776D01*
X135438720Y-42450750D01*
X135494433Y-42513582D01*
X135560518Y-42562709D01*
X135637302Y-42598573D01*
X135725112Y-42621613D01*
X135737821Y-42623763D01*
X135799800Y-42629351D01*
X135869938Y-42628784D01*
X135941229Y-42622586D01*
X136006670Y-42611279D01*
X136044451Y-42600873D01*
X136120711Y-42568185D01*
X136186183Y-42524423D01*
X136241594Y-42468565D01*
X136287671Y-42399590D01*
X136325141Y-42316477D01*
X136354730Y-42218203D01*
X136370712Y-42142242D01*
X136373243Y-42126744D01*
X136375502Y-42109141D01*
X136377509Y-42088316D01*
X136379285Y-42063149D01*
X136380851Y-42032524D01*
X136382228Y-41995323D01*
X136383437Y-41950426D01*
X136384500Y-41896718D01*
X136385437Y-41833078D01*
X136386268Y-41758391D01*
X136387016Y-41671537D01*
X136387701Y-41571399D01*
X136388344Y-41456859D01*
X136388966Y-41326799D01*
X136389589Y-41180100D01*
X136389808Y-41125257D01*
X136390421Y-40948781D01*
X136390782Y-40789445D01*
X136390871Y-40646248D01*
X136390664Y-40518190D01*
X136390141Y-40404269D01*
X136389279Y-40303484D01*
X136388057Y-40214834D01*
X136386453Y-40137319D01*
X136384445Y-40069936D01*
X136382011Y-40011685D01*
X136379130Y-39961565D01*
X136375779Y-39918575D01*
X136371938Y-39881714D01*
X136367584Y-39849980D01*
X136362696Y-39822374D01*
X136361326Y-39815710D01*
X136334128Y-39713582D01*
X136298622Y-39626917D01*
X136253988Y-39554652D01*
X136199404Y-39495724D01*
X136134050Y-39449070D01*
X136057104Y-39413626D01*
X136048414Y-39410545D01*
X136023305Y-39402528D01*
X135999374Y-39396894D01*
X135972676Y-39393256D01*
X135939269Y-39391226D01*
X135895209Y-39390419D01*
X135843322Y-39390416D01*
X135785957Y-39390950D01*
X135742928Y-39392271D01*
X135710433Y-39394771D01*
X135684667Y-39398842D01*
X135661829Y-39404875D01*
X135644475Y-39410869D01*
X135582955Y-39437082D01*
X135532870Y-39467224D01*
X135487518Y-39505624D01*
X135469866Y-39523560D01*
X135420414Y-39587079D01*
X135380088Y-39663751D01*
X135348585Y-39754409D01*
X135325599Y-39859887D01*
X135313530Y-39951558D01*
X135311921Y-39977058D01*
X135310449Y-40019164D01*
X135309115Y-40076349D01*
X135307918Y-40147088D01*
X135306859Y-40229853D01*
X135305938Y-40323118D01*
X135305156Y-40425357D01*
X135304513Y-40535041D01*
X135304010Y-40650646D01*
X135303646Y-40770645D01*
X135303422Y-40893509D01*
X135303339Y-41017715D01*
X134972466Y-41017715D01*
X134972464Y-41009071D01*
X134972458Y-40837467D01*
X134972469Y-40682957D01*
X134972548Y-40544496D01*
X134972742Y-40421034D01*
X134973099Y-40311525D01*
X134973667Y-40214921D01*
X134974496Y-40130174D01*
X134975633Y-40056237D01*
X134977126Y-39992062D01*
X134979025Y-39936601D01*
X134981376Y-39888808D01*
X134984229Y-39847634D01*
X134987631Y-39812032D01*
X134991632Y-39780955D01*
X134996279Y-39753354D01*
X135001620Y-39728182D01*
X135007704Y-39704391D01*
X135014579Y-39680935D01*
X135022294Y-39656765D01*
X135030896Y-39630834D01*
X135036811Y-39613067D01*
X135084087Y-39493367D01*
X135141892Y-39388342D01*
X135210694Y-39297570D01*
X135290964Y-39220627D01*
X135383169Y-39157091D01*
X135487779Y-39106538D01*
X135605263Y-39068546D01*
X135652822Y-39057432D01*
X135699180Y-39050759D01*
X135758546Y-39046850D01*
X135826012Y-39045608D01*
X135896670Y-39046936D01*
X135896670Y-39046936D01*
G37*
X135896670Y-39046936D02*
X135965612Y-39050736D01*
X136027929Y-39056912D01*
X136078714Y-39065365D01*
X136081169Y-39065916D01*
X136198194Y-39100683D01*
X136303488Y-39148945D01*
X136397117Y-39210793D01*
X136479147Y-39286324D01*
X136549644Y-39375629D01*
X136608676Y-39478803D01*
X136656309Y-39595940D01*
X136692608Y-39727134D01*
X136717640Y-39872477D01*
X136728339Y-39980522D01*
X136730184Y-40017016D01*
X136731748Y-40071567D01*
X136733029Y-40144091D01*
X136734027Y-40234506D01*
X136734741Y-40342727D01*
X136735173Y-40468672D01*
X136735319Y-40612256D01*
X136735182Y-40773397D01*
X136734759Y-40952011D01*
X136734227Y-41104321D01*
X136733581Y-41262414D01*
X136732942Y-41403435D01*
X136732290Y-41528459D01*
X136731609Y-41638558D01*
X136730878Y-41734803D01*
X136730079Y-41818269D01*
X136729193Y-41890026D01*
X136728202Y-41951148D01*
X136727086Y-42002707D01*
X136725828Y-42045775D01*
X136724407Y-42081425D01*
X136722806Y-42110730D01*
X136721006Y-42134762D01*
X136718987Y-42154593D01*
X136716732Y-42171296D01*
X136715428Y-42179286D01*
X136690668Y-42301126D01*
X136660705Y-42407799D01*
X136624382Y-42501821D01*
X136580540Y-42585712D01*
X136528021Y-42661990D01*
X136465668Y-42733172D01*
X136456445Y-42742516D01*
X136376611Y-42813160D01*
X136291764Y-42869644D01*
X136200053Y-42912642D01*
X136099626Y-42942824D01*
X135988629Y-42960862D01*
X135865211Y-42967426D01*
X135835862Y-42967394D01*
X135786499Y-42966272D01*
X135737808Y-42964083D01*
X135695969Y-42961163D01*
X135670964Y-42958439D01*
X135571714Y-42936623D01*
X135472716Y-42900898D01*
X135379523Y-42853655D01*
X135298674Y-42798085D01*
X135217189Y-42720834D01*
X135146632Y-42629168D01*
X135086992Y-42523063D01*
X135038257Y-42402496D01*
X135000413Y-42267441D01*
X134984481Y-42188357D01*
X134982611Y-42174379D01*
X134980932Y-42154149D01*
X134979437Y-42126790D01*
X134978115Y-42091424D01*
X134976957Y-42047170D01*
X134975956Y-41993152D01*
X134975101Y-41928490D01*
X134974384Y-41852306D01*
X134973796Y-41763721D01*
X134973328Y-41661857D01*
X134972970Y-41545835D01*
X134972715Y-41414777D01*
X134972553Y-41267804D01*
X134972475Y-41104037D01*
X134972466Y-41017715D01*
X135303339Y-41017715D01*
X135303397Y-41141733D01*
X135303596Y-41264039D01*
X135303936Y-41383105D01*
X135304419Y-41497404D01*
X135305044Y-41605411D01*
X135305811Y-41705598D01*
X135306722Y-41796439D01*
X135307776Y-41876408D01*
X135308973Y-41943977D01*
X135310315Y-41997620D01*
X135311801Y-42035810D01*
X135313031Y-42053592D01*
X135330534Y-42175636D01*
X135357098Y-42282218D01*
X135393051Y-42373776D01*
X135438720Y-42450750D01*
X135494433Y-42513582D01*
X135560518Y-42562709D01*
X135637302Y-42598573D01*
X135725112Y-42621613D01*
X135737821Y-42623763D01*
X135799800Y-42629351D01*
X135869938Y-42628784D01*
X135941229Y-42622586D01*
X136006670Y-42611279D01*
X136044451Y-42600873D01*
X136120711Y-42568185D01*
X136186183Y-42524423D01*
X136241594Y-42468565D01*
X136287671Y-42399590D01*
X136325141Y-42316477D01*
X136354730Y-42218203D01*
X136370712Y-42142242D01*
X136373243Y-42126744D01*
X136375502Y-42109141D01*
X136377509Y-42088316D01*
X136379285Y-42063149D01*
X136380851Y-42032524D01*
X136382228Y-41995323D01*
X136383437Y-41950426D01*
X136384500Y-41896718D01*
X136385437Y-41833078D01*
X136386268Y-41758391D01*
X136387016Y-41671537D01*
X136387701Y-41571399D01*
X136388344Y-41456859D01*
X136388966Y-41326799D01*
X136389589Y-41180100D01*
X136389808Y-41125257D01*
X136390421Y-40948781D01*
X136390782Y-40789445D01*
X136390871Y-40646248D01*
X136390664Y-40518190D01*
X136390141Y-40404269D01*
X136389279Y-40303484D01*
X136388057Y-40214834D01*
X136386453Y-40137319D01*
X136384445Y-40069936D01*
X136382011Y-40011685D01*
X136379130Y-39961565D01*
X136375779Y-39918575D01*
X136371938Y-39881714D01*
X136367584Y-39849980D01*
X136362696Y-39822374D01*
X136361326Y-39815710D01*
X136334128Y-39713582D01*
X136298622Y-39626917D01*
X136253988Y-39554652D01*
X136199404Y-39495724D01*
X136134050Y-39449070D01*
X136057104Y-39413626D01*
X136048414Y-39410545D01*
X136023305Y-39402528D01*
X135999374Y-39396894D01*
X135972676Y-39393256D01*
X135939269Y-39391226D01*
X135895209Y-39390419D01*
X135843322Y-39390416D01*
X135785957Y-39390950D01*
X135742928Y-39392271D01*
X135710433Y-39394771D01*
X135684667Y-39398842D01*
X135661829Y-39404875D01*
X135644475Y-39410869D01*
X135582955Y-39437082D01*
X135532870Y-39467224D01*
X135487518Y-39505624D01*
X135469866Y-39523560D01*
X135420414Y-39587079D01*
X135380088Y-39663751D01*
X135348585Y-39754409D01*
X135325599Y-39859887D01*
X135313530Y-39951558D01*
X135311921Y-39977058D01*
X135310449Y-40019164D01*
X135309115Y-40076349D01*
X135307918Y-40147088D01*
X135306859Y-40229853D01*
X135305938Y-40323118D01*
X135305156Y-40425357D01*
X135304513Y-40535041D01*
X135304010Y-40650646D01*
X135303646Y-40770645D01*
X135303422Y-40893509D01*
X135303339Y-41017715D01*
X134972466Y-41017715D01*
X134972464Y-41009071D01*
X134972458Y-40837467D01*
X134972469Y-40682957D01*
X134972548Y-40544496D01*
X134972742Y-40421034D01*
X134973099Y-40311525D01*
X134973667Y-40214921D01*
X134974496Y-40130174D01*
X134975633Y-40056237D01*
X134977126Y-39992062D01*
X134979025Y-39936601D01*
X134981376Y-39888808D01*
X134984229Y-39847634D01*
X134987631Y-39812032D01*
X134991632Y-39780955D01*
X134996279Y-39753354D01*
X135001620Y-39728182D01*
X135007704Y-39704391D01*
X135014579Y-39680935D01*
X135022294Y-39656765D01*
X135030896Y-39630834D01*
X135036811Y-39613067D01*
X135084087Y-39493367D01*
X135141892Y-39388342D01*
X135210694Y-39297570D01*
X135290964Y-39220627D01*
X135383169Y-39157091D01*
X135487779Y-39106538D01*
X135605263Y-39068546D01*
X135652822Y-39057432D01*
X135699180Y-39050759D01*
X135758546Y-39046850D01*
X135826012Y-39045608D01*
X135896670Y-39046936D01*
D15*
X94220000Y-70250000D03*
D16*
X96760000Y-70250000D03*
X99300000Y-70250000D03*
X101840000Y-70250000D03*
X104380000Y-70250000D03*
X106920000Y-70250000D03*
X109460000Y-70250000D03*
X112000000Y-70250000D03*
D17*
X120700000Y-118250000D03*
D18*
X111300000Y-118250000D03*
D19*
X116000000Y-123150000D03*
X116000000Y-114950000D03*
D17*
X93800000Y-99750000D03*
D18*
X103200000Y-99750000D03*
D19*
X98500000Y-94850000D03*
X98500000Y-103050000D03*
D17*
X120700000Y-99750000D03*
D18*
X111300000Y-99750000D03*
D19*
X116000000Y-104650000D03*
X116000000Y-96450000D03*
D17*
X128800000Y-99750000D03*
D18*
X138200000Y-99750000D03*
D19*
X133500000Y-94850000D03*
X133500000Y-103050000D03*
D17*
X93800000Y-118250000D03*
D18*
X103200000Y-118250000D03*
D19*
X98500000Y-113350000D03*
X98500000Y-121550000D03*
D17*
X128800000Y-118250000D03*
D18*
X138200000Y-118250000D03*
D19*
X133500000Y-113350000D03*
X133500000Y-121550000D03*
D17*
X128800000Y-137750000D03*
D18*
X138200000Y-137750000D03*
D19*
X133500000Y-132850000D03*
X133500000Y-141050000D03*
D17*
X93800000Y-137750000D03*
D18*
X103200000Y-137750000D03*
D19*
X98500000Y-132850000D03*
X98500000Y-141050000D03*
D17*
X111300000Y-137750000D03*
D18*
X120700000Y-137750000D03*
D19*
X116000000Y-132850000D03*
X116000000Y-141050000D03*
D15*
X134500000Y-74000000D03*
D16*
X137040000Y-74000000D03*
X134500000Y-71460000D03*
X137040000Y-71460000D03*
X134500000Y-68920000D03*
X137040000Y-68920000D03*
X134500000Y-66380000D03*
X137040000Y-66380000D03*
X134500000Y-63840000D03*
X137040000Y-63840000D03*
D15*
X125750000Y-128250000D03*
D16*
X125750000Y-125710000D03*
X125750000Y-123170000D03*
D20*
X119000000Y-128250000D03*
X116000000Y-128250000D03*
X113000000Y-128250000D03*
D21*
X122500000Y-128250000D03*
X109500000Y-128250000D03*
D22*
X120500000Y-67250000D03*
X98500000Y-127750000D03*
D23*
X106250000Y-77250000D03*
X130500000Y-106000000D03*
X94250000Y-106250000D03*
X124750000Y-133250000D03*
X108500000Y-113750000D03*
D24*
X127300000Y-66800000D03*
X127300000Y-69340000D03*
X127300000Y-64260000D03*
X112400000Y-91550000D03*
X109860000Y-91550000D03*
X114940000Y-91550000D03*
D25*
X133300000Y-80250000D03*
X123700000Y-80250000D03*
D26*
X131000000Y-87750000D03*
X128500000Y-87750000D03*
X126000000Y-87750000D03*
D25*
X108300000Y-80250000D03*
X98700000Y-80250000D03*
D26*
X106000000Y-87750000D03*
X103500000Y-87750000D03*
X101000000Y-87750000D03*
D25*
X133300000Y-51250000D03*
X123700000Y-51250000D03*
D26*
X131000000Y-58750000D03*
X128500000Y-58750000D03*
X126000000Y-58750000D03*
M02*
