G04 #@! TF.FileFunction,Legend,Bot*
%FSLAX46Y46*%
G04 Gerber Fmt 4.6, Leading zero omitted, Abs format (unit mm)*
G04 Created by KiCad (PCBNEW 4.0.2-stable) date 2018-09-14 12:35:55 PM*
%MOMM*%
G01*
G04 APERTURE LIST*
%ADD10C,0.200000*%
%ADD11C,0.150000*%
%ADD12C,0.350000*%
%ADD13C,0.250000*%
%ADD14C,0.002540*%
%ADD15C,0.120000*%
%ADD16C,0.066040*%
%ADD17C,0.101600*%
%ADD18C,0.203200*%
%ADD19C,0.127000*%
%ADD20C,0.010000*%
%ADD21C,0.152400*%
%ADD22R,1.800000X1.800000*%
%ADD23O,1.800000X1.800000*%
%ADD24R,3.099740X1.700200*%
%ADD25R,1.700200X3.099740*%
%ADD26R,2.497760X2.497760*%
%ADD27R,0.801040X1.100760*%
%ADD28R,0.709600X0.862000*%
%ADD29R,0.862000X0.709600*%
%ADD30R,1.100000X1.350000*%
%ADD31O,2.600000X4.100000*%
%ADD32O,2.100000X2.600000*%
%ADD33O,3.600000X1.600000*%
%ADD34R,0.900000X0.650000*%
%ADD35R,0.900000X1.000000*%
%ADD36R,0.700000X0.600000*%
%ADD37C,1.624000*%
%ADD38R,1.600000X2.100000*%
%ADD39R,2.900000X1.700000*%
%ADD40C,1.900000*%
%ADD41R,1.550000X0.550000*%
%ADD42R,1.400480X0.500000*%
%ADD43R,1.700000X1.600000*%
%ADD44R,1.300000X1.300000*%
%ADD45O,2.900000X3.600000*%
%ADD46C,1.850000*%
%ADD47C,1.370000*%
%ADD48R,1.600000X1.700000*%
%ADD49R,1.000000X0.900000*%
G04 APERTURE END LIST*
D10*
D11*
X134128571Y-109326905D02*
X134509524Y-109326905D01*
X134547619Y-109707857D01*
X134509524Y-109669762D01*
X134433333Y-109631667D01*
X134242857Y-109631667D01*
X134166667Y-109669762D01*
X134128571Y-109707857D01*
X134090476Y-109784048D01*
X134090476Y-109974524D01*
X134128571Y-110050714D01*
X134166667Y-110088810D01*
X134242857Y-110126905D01*
X134433333Y-110126905D01*
X134509524Y-110088810D01*
X134547619Y-110050714D01*
X133785714Y-110126905D02*
X133176190Y-109326905D01*
X133671428Y-109326905D02*
X133595238Y-109365000D01*
X133557143Y-109441190D01*
X133595238Y-109517381D01*
X133671428Y-109555476D01*
X133747619Y-109517381D01*
X133785714Y-109441190D01*
X133747619Y-109365000D01*
X133671428Y-109326905D01*
X133214285Y-110088810D02*
X133176190Y-110012619D01*
X133214285Y-109936429D01*
X133290476Y-109898333D01*
X133366666Y-109936429D01*
X133404762Y-110012619D01*
X133366666Y-110088810D01*
X133290476Y-110126905D01*
X133214285Y-110088810D01*
X134547619Y-111168333D02*
X134166667Y-111168333D01*
X134623810Y-111396905D02*
X134357143Y-110596905D01*
X134090476Y-111396905D01*
X133823810Y-111396905D02*
X133823810Y-110596905D01*
X133633334Y-110596905D01*
X133519048Y-110635000D01*
X133442857Y-110711190D01*
X133404762Y-110787381D01*
X133366667Y-110939762D01*
X133366667Y-111054048D01*
X133404762Y-111206429D01*
X133442857Y-111282619D01*
X133519048Y-111358810D01*
X133633334Y-111396905D01*
X133823810Y-111396905D01*
X132795238Y-110596905D02*
X132795238Y-111168333D01*
X132833334Y-111282619D01*
X132909524Y-111358810D01*
X133023810Y-111396905D01*
X133100000Y-111396905D01*
X106928571Y-93526905D02*
X107309524Y-93526905D01*
X107347619Y-93907857D01*
X107309524Y-93869762D01*
X107233333Y-93831667D01*
X107042857Y-93831667D01*
X106966667Y-93869762D01*
X106928571Y-93907857D01*
X106890476Y-93984048D01*
X106890476Y-94174524D01*
X106928571Y-94250714D01*
X106966667Y-94288810D01*
X107042857Y-94326905D01*
X107233333Y-94326905D01*
X107309524Y-94288810D01*
X107347619Y-94250714D01*
X106395238Y-93526905D02*
X106319047Y-93526905D01*
X106242857Y-93565000D01*
X106204762Y-93603095D01*
X106166666Y-93679286D01*
X106128571Y-93831667D01*
X106128571Y-94022143D01*
X106166666Y-94174524D01*
X106204762Y-94250714D01*
X106242857Y-94288810D01*
X106319047Y-94326905D01*
X106395238Y-94326905D01*
X106471428Y-94288810D01*
X106509524Y-94250714D01*
X106547619Y-94174524D01*
X106585714Y-94022143D01*
X106585714Y-93831667D01*
X106547619Y-93679286D01*
X106509524Y-93603095D01*
X106471428Y-93565000D01*
X106395238Y-93526905D01*
X105823809Y-94326905D02*
X105214285Y-93526905D01*
X105709523Y-93526905D02*
X105633333Y-93565000D01*
X105595238Y-93641190D01*
X105633333Y-93717381D01*
X105709523Y-93755476D01*
X105785714Y-93717381D01*
X105823809Y-93641190D01*
X105785714Y-93565000D01*
X105709523Y-93526905D01*
X105252380Y-94288810D02*
X105214285Y-94212619D01*
X105252380Y-94136429D01*
X105328571Y-94098333D01*
X105404761Y-94136429D01*
X105442857Y-94212619D01*
X105404761Y-94288810D01*
X105328571Y-94326905D01*
X105252380Y-94288810D01*
X107347619Y-95368333D02*
X106966667Y-95368333D01*
X107423810Y-95596905D02*
X107157143Y-94796905D01*
X106890476Y-95596905D01*
X106623810Y-95596905D02*
X106623810Y-94796905D01*
X106433334Y-94796905D01*
X106319048Y-94835000D01*
X106242857Y-94911190D01*
X106204762Y-94987381D01*
X106166667Y-95139762D01*
X106166667Y-95254048D01*
X106204762Y-95406429D01*
X106242857Y-95482619D01*
X106319048Y-95558810D01*
X106433334Y-95596905D01*
X106623810Y-95596905D01*
X105595238Y-94796905D02*
X105595238Y-95368333D01*
X105633334Y-95482619D01*
X105709524Y-95558810D01*
X105823810Y-95596905D01*
X105900000Y-95596905D01*
X131223810Y-94126905D02*
X130766667Y-94126905D01*
X130995238Y-94926905D02*
X130995238Y-94126905D01*
X130042857Y-94926905D02*
X130309524Y-94545952D01*
X130500000Y-94926905D02*
X130500000Y-94126905D01*
X130195238Y-94126905D01*
X130119047Y-94165000D01*
X130080952Y-94203095D01*
X130042857Y-94279286D01*
X130042857Y-94393571D01*
X130080952Y-94469762D01*
X130119047Y-94507857D01*
X130195238Y-94545952D01*
X130500000Y-94545952D01*
X129700000Y-94926905D02*
X129700000Y-94126905D01*
X131147619Y-96158810D02*
X131033333Y-96196905D01*
X130842857Y-96196905D01*
X130766667Y-96158810D01*
X130728571Y-96120714D01*
X130690476Y-96044524D01*
X130690476Y-95968333D01*
X130728571Y-95892143D01*
X130766667Y-95854048D01*
X130842857Y-95815952D01*
X130995238Y-95777857D01*
X131071429Y-95739762D01*
X131109524Y-95701667D01*
X131147619Y-95625476D01*
X131147619Y-95549286D01*
X131109524Y-95473095D01*
X131071429Y-95435000D01*
X130995238Y-95396905D01*
X130804762Y-95396905D01*
X130690476Y-95435000D01*
X130195238Y-95815952D02*
X130195238Y-96196905D01*
X130461905Y-95396905D02*
X130195238Y-95815952D01*
X129928571Y-95396905D01*
X129661905Y-96196905D02*
X129661905Y-95396905D01*
X129395238Y-95968333D01*
X129128571Y-95396905D01*
X129128571Y-96196905D01*
X98857143Y-76026905D02*
X98704762Y-76026905D01*
X98628571Y-76065000D01*
X98552381Y-76141190D01*
X98514286Y-76293571D01*
X98514286Y-76560238D01*
X98552381Y-76712619D01*
X98628571Y-76788810D01*
X98704762Y-76826905D01*
X98857143Y-76826905D01*
X98933333Y-76788810D01*
X99009524Y-76712619D01*
X99047619Y-76560238D01*
X99047619Y-76293571D01*
X99009524Y-76141190D01*
X98933333Y-76065000D01*
X98857143Y-76026905D01*
X97714286Y-76750714D02*
X97752381Y-76788810D01*
X97866667Y-76826905D01*
X97942857Y-76826905D01*
X98057143Y-76788810D01*
X98133334Y-76712619D01*
X98171429Y-76636429D01*
X98209524Y-76484048D01*
X98209524Y-76369762D01*
X98171429Y-76217381D01*
X98133334Y-76141190D01*
X98057143Y-76065000D01*
X97942857Y-76026905D01*
X97866667Y-76026905D01*
X97752381Y-76065000D01*
X97714286Y-76103095D01*
X97485715Y-76026905D02*
X97028572Y-76026905D01*
X97257143Y-76826905D02*
X97257143Y-76026905D01*
X99047619Y-77868333D02*
X98666667Y-77868333D01*
X99123810Y-78096905D02*
X98857143Y-77296905D01*
X98590476Y-78096905D01*
X98323810Y-78096905D02*
X98323810Y-77296905D01*
X98133334Y-77296905D01*
X98019048Y-77335000D01*
X97942857Y-77411190D01*
X97904762Y-77487381D01*
X97866667Y-77639762D01*
X97866667Y-77754048D01*
X97904762Y-77906429D01*
X97942857Y-77982619D01*
X98019048Y-78058810D01*
X98133334Y-78096905D01*
X98323810Y-78096905D01*
X97295238Y-77296905D02*
X97295238Y-77868333D01*
X97333334Y-77982619D01*
X97409524Y-78058810D01*
X97523810Y-78096905D01*
X97600000Y-78096905D01*
D12*
X134511905Y-40261905D02*
X134702381Y-40166667D01*
X134797620Y-40071429D01*
X134892858Y-39880952D01*
X134892858Y-39785714D01*
X134797620Y-39595238D01*
X134702381Y-39500000D01*
X134511905Y-39404762D01*
X134130953Y-39404762D01*
X133940477Y-39500000D01*
X133845239Y-39595238D01*
X133750000Y-39785714D01*
X133750000Y-39880952D01*
X133845239Y-40071429D01*
X133940477Y-40166667D01*
X134130953Y-40261905D01*
X134511905Y-40261905D01*
X134702381Y-40357143D01*
X134797620Y-40452381D01*
X134892858Y-40642857D01*
X134892858Y-41023810D01*
X134797620Y-41214286D01*
X134702381Y-41309524D01*
X134511905Y-41404762D01*
X134130953Y-41404762D01*
X133940477Y-41309524D01*
X133845239Y-41214286D01*
X133750000Y-41023810D01*
X133750000Y-40642857D01*
X133845239Y-40452381D01*
X133940477Y-40357143D01*
X134130953Y-40261905D01*
X132988096Y-39595238D02*
X132892858Y-39500000D01*
X132702381Y-39404762D01*
X132226191Y-39404762D01*
X132035715Y-39500000D01*
X131940477Y-39595238D01*
X131845238Y-39785714D01*
X131845238Y-39976190D01*
X131940477Y-40261905D01*
X133083334Y-41404762D01*
X131845238Y-41404762D01*
X130607143Y-39404762D02*
X130416667Y-39404762D01*
X130226191Y-39500000D01*
X130130953Y-39595238D01*
X130035715Y-39785714D01*
X129940476Y-40166667D01*
X129940476Y-40642857D01*
X130035715Y-41023810D01*
X130130953Y-41214286D01*
X130226191Y-41309524D01*
X130416667Y-41404762D01*
X130607143Y-41404762D01*
X130797619Y-41309524D01*
X130892857Y-41214286D01*
X130988096Y-41023810D01*
X131083334Y-40642857D01*
X131083334Y-40166667D01*
X130988096Y-39785714D01*
X130892857Y-39595238D01*
X130797619Y-39500000D01*
X130607143Y-39404762D01*
X127845238Y-39404762D02*
X127178571Y-41404762D01*
X126511904Y-39404762D01*
X124702380Y-41214286D02*
X124797618Y-41309524D01*
X125083333Y-41404762D01*
X125273809Y-41404762D01*
X125559523Y-41309524D01*
X125749999Y-41119048D01*
X125845238Y-40928571D01*
X125940476Y-40547619D01*
X125940476Y-40261905D01*
X125845238Y-39880952D01*
X125749999Y-39690476D01*
X125559523Y-39500000D01*
X125273809Y-39404762D01*
X125083333Y-39404762D01*
X124797618Y-39500000D01*
X124702380Y-39595238D01*
X123464285Y-39404762D02*
X123083333Y-39404762D01*
X122892857Y-39500000D01*
X122702380Y-39690476D01*
X122607142Y-40071429D01*
X122607142Y-40738095D01*
X122702380Y-41119048D01*
X122892857Y-41309524D01*
X123083333Y-41404762D01*
X123464285Y-41404762D01*
X123654761Y-41309524D01*
X123845238Y-41119048D01*
X123940476Y-40738095D01*
X123940476Y-40071429D01*
X123845238Y-39690476D01*
X123654761Y-39500000D01*
X123464285Y-39404762D01*
D13*
X111738096Y-132654762D02*
X111642858Y-132702381D01*
X111452382Y-132702381D01*
X111357143Y-132654762D01*
X111309524Y-132559524D01*
X111309524Y-132511905D01*
X111357143Y-132416667D01*
X111452382Y-132369048D01*
X111595239Y-132369048D01*
X111690477Y-132321429D01*
X111738096Y-132226190D01*
X111738096Y-132178571D01*
X111690477Y-132083333D01*
X111595239Y-132035714D01*
X111452382Y-132035714D01*
X111357143Y-132083333D01*
X110976191Y-132035714D02*
X110738096Y-132702381D01*
X110500000Y-132035714D02*
X110738096Y-132702381D01*
X110833334Y-132940476D01*
X110880953Y-132988095D01*
X110976191Y-133035714D01*
X110166667Y-132654762D02*
X110071429Y-132702381D01*
X109880953Y-132702381D01*
X109785714Y-132654762D01*
X109738095Y-132559524D01*
X109738095Y-132511905D01*
X109785714Y-132416667D01*
X109880953Y-132369048D01*
X110023810Y-132369048D01*
X110119048Y-132321429D01*
X110166667Y-132226190D01*
X110166667Y-132178571D01*
X110119048Y-132083333D01*
X110023810Y-132035714D01*
X109880953Y-132035714D01*
X109785714Y-132083333D01*
X109452381Y-132035714D02*
X109071429Y-132035714D01*
X109309524Y-131702381D02*
X109309524Y-132559524D01*
X109261905Y-132654762D01*
X109166667Y-132702381D01*
X109071429Y-132702381D01*
X108357142Y-132654762D02*
X108452380Y-132702381D01*
X108642857Y-132702381D01*
X108738095Y-132654762D01*
X108785714Y-132559524D01*
X108785714Y-132178571D01*
X108738095Y-132083333D01*
X108642857Y-132035714D01*
X108452380Y-132035714D01*
X108357142Y-132083333D01*
X108309523Y-132178571D01*
X108309523Y-132273810D01*
X108785714Y-132369048D01*
X107880952Y-132702381D02*
X107880952Y-132035714D01*
X107880952Y-132130952D02*
X107833333Y-132083333D01*
X107738095Y-132035714D01*
X107595237Y-132035714D01*
X107499999Y-132083333D01*
X107452380Y-132178571D01*
X107452380Y-132702381D01*
X107452380Y-132178571D02*
X107404761Y-132083333D01*
X107309523Y-132035714D01*
X107166666Y-132035714D01*
X107071428Y-132083333D01*
X107023809Y-132178571D01*
X107023809Y-132702381D01*
X106404762Y-132130952D02*
X106500000Y-132083333D01*
X106547619Y-132035714D01*
X106595238Y-131940476D01*
X106595238Y-131892857D01*
X106547619Y-131797619D01*
X106500000Y-131750000D01*
X106404762Y-131702381D01*
X106214285Y-131702381D01*
X106119047Y-131750000D01*
X106071428Y-131797619D01*
X106023809Y-131892857D01*
X106023809Y-131940476D01*
X106071428Y-132035714D01*
X106119047Y-132083333D01*
X106214285Y-132130952D01*
X106404762Y-132130952D01*
X106500000Y-132178571D01*
X106547619Y-132226190D01*
X106595238Y-132321429D01*
X106595238Y-132511905D01*
X106547619Y-132607143D01*
X106500000Y-132654762D01*
X106404762Y-132702381D01*
X106214285Y-132702381D01*
X106119047Y-132654762D01*
X106071428Y-132607143D01*
X106023809Y-132511905D01*
X106023809Y-132321429D01*
X106071428Y-132226190D01*
X106119047Y-132178571D01*
X106214285Y-132130952D01*
X105404762Y-131702381D02*
X105309523Y-131702381D01*
X105214285Y-131750000D01*
X105166666Y-131797619D01*
X105119047Y-131892857D01*
X105071428Y-132083333D01*
X105071428Y-132321429D01*
X105119047Y-132511905D01*
X105166666Y-132607143D01*
X105214285Y-132654762D01*
X105309523Y-132702381D01*
X105404762Y-132702381D01*
X105500000Y-132654762D01*
X105547619Y-132607143D01*
X105595238Y-132511905D01*
X105642857Y-132321429D01*
X105642857Y-132083333D01*
X105595238Y-131892857D01*
X105547619Y-131797619D01*
X105500000Y-131750000D01*
X105404762Y-131702381D01*
X104642857Y-132607143D02*
X104595238Y-132654762D01*
X104642857Y-132702381D01*
X104690476Y-132654762D01*
X104642857Y-132607143D01*
X104642857Y-132702381D01*
X104166667Y-132035714D02*
X104166667Y-132702381D01*
X104166667Y-132130952D02*
X104119048Y-132083333D01*
X104023810Y-132035714D01*
X103880952Y-132035714D01*
X103785714Y-132083333D01*
X103738095Y-132178571D01*
X103738095Y-132702381D01*
X102880952Y-132654762D02*
X102976190Y-132702381D01*
X103166667Y-132702381D01*
X103261905Y-132654762D01*
X103309524Y-132559524D01*
X103309524Y-132178571D01*
X103261905Y-132083333D01*
X103166667Y-132035714D01*
X102976190Y-132035714D01*
X102880952Y-132083333D01*
X102833333Y-132178571D01*
X102833333Y-132273810D01*
X103309524Y-132369048D01*
X102547619Y-132035714D02*
X102166667Y-132035714D01*
X102404762Y-131702381D02*
X102404762Y-132559524D01*
X102357143Y-132654762D01*
X102261905Y-132702381D01*
X102166667Y-132702381D01*
X112023810Y-134702381D02*
X112023810Y-134035714D01*
X112023810Y-134226190D02*
X111976191Y-134130952D01*
X111928572Y-134083333D01*
X111833334Y-134035714D01*
X111738095Y-134035714D01*
X110880952Y-134702381D02*
X111452381Y-134702381D01*
X111166667Y-134702381D02*
X111166667Y-133702381D01*
X111261905Y-133845238D01*
X111357143Y-133940476D01*
X111452381Y-133988095D01*
X110452381Y-134607143D02*
X110404762Y-134654762D01*
X110452381Y-134702381D01*
X110500000Y-134654762D01*
X110452381Y-134607143D01*
X110452381Y-134702381D01*
X109785715Y-133702381D02*
X109690476Y-133702381D01*
X109595238Y-133750000D01*
X109547619Y-133797619D01*
X109500000Y-133892857D01*
X109452381Y-134083333D01*
X109452381Y-134321429D01*
X109500000Y-134511905D01*
X109547619Y-134607143D01*
X109595238Y-134654762D01*
X109690476Y-134702381D01*
X109785715Y-134702381D01*
X109880953Y-134654762D01*
X109928572Y-134607143D01*
X109976191Y-134511905D01*
X110023810Y-134321429D01*
X110023810Y-134083333D01*
X109976191Y-133892857D01*
X109928572Y-133797619D01*
X109880953Y-133750000D01*
X109785715Y-133702381D01*
X108071429Y-133702381D02*
X107976190Y-133702381D01*
X107880952Y-133750000D01*
X107833333Y-133797619D01*
X107785714Y-133892857D01*
X107738095Y-134083333D01*
X107738095Y-134321429D01*
X107785714Y-134511905D01*
X107833333Y-134607143D01*
X107880952Y-134654762D01*
X107976190Y-134702381D01*
X108071429Y-134702381D01*
X108166667Y-134654762D01*
X108214286Y-134607143D01*
X108261905Y-134511905D01*
X108309524Y-134321429D01*
X108309524Y-134083333D01*
X108261905Y-133892857D01*
X108214286Y-133797619D01*
X108166667Y-133750000D01*
X108071429Y-133702381D01*
X107166667Y-134130952D02*
X107261905Y-134083333D01*
X107309524Y-134035714D01*
X107357143Y-133940476D01*
X107357143Y-133892857D01*
X107309524Y-133797619D01*
X107261905Y-133750000D01*
X107166667Y-133702381D01*
X106976190Y-133702381D01*
X106880952Y-133750000D01*
X106833333Y-133797619D01*
X106785714Y-133892857D01*
X106785714Y-133940476D01*
X106833333Y-134035714D01*
X106880952Y-134083333D01*
X106976190Y-134130952D01*
X107166667Y-134130952D01*
X107261905Y-134178571D01*
X107309524Y-134226190D01*
X107357143Y-134321429D01*
X107357143Y-134511905D01*
X107309524Y-134607143D01*
X107261905Y-134654762D01*
X107166667Y-134702381D01*
X106976190Y-134702381D01*
X106880952Y-134654762D01*
X106833333Y-134607143D01*
X106785714Y-134511905D01*
X106785714Y-134321429D01*
X106833333Y-134226190D01*
X106880952Y-134178571D01*
X106976190Y-134130952D01*
X105642857Y-133654762D02*
X106500000Y-134940476D01*
X105357143Y-133797619D02*
X105309524Y-133750000D01*
X105214286Y-133702381D01*
X104976190Y-133702381D01*
X104880952Y-133750000D01*
X104833333Y-133797619D01*
X104785714Y-133892857D01*
X104785714Y-133988095D01*
X104833333Y-134130952D01*
X105404762Y-134702381D01*
X104785714Y-134702381D01*
X104166667Y-133702381D02*
X104071428Y-133702381D01*
X103976190Y-133750000D01*
X103928571Y-133797619D01*
X103880952Y-133892857D01*
X103833333Y-134083333D01*
X103833333Y-134321429D01*
X103880952Y-134511905D01*
X103928571Y-134607143D01*
X103976190Y-134654762D01*
X104071428Y-134702381D01*
X104166667Y-134702381D01*
X104261905Y-134654762D01*
X104309524Y-134607143D01*
X104357143Y-134511905D01*
X104404762Y-134321429D01*
X104404762Y-134083333D01*
X104357143Y-133892857D01*
X104309524Y-133797619D01*
X104261905Y-133750000D01*
X104166667Y-133702381D01*
X102880952Y-134702381D02*
X103452381Y-134702381D01*
X103166667Y-134702381D02*
X103166667Y-133702381D01*
X103261905Y-133845238D01*
X103357143Y-133940476D01*
X103452381Y-133988095D01*
X102309524Y-134130952D02*
X102404762Y-134083333D01*
X102452381Y-134035714D01*
X102500000Y-133940476D01*
X102500000Y-133892857D01*
X102452381Y-133797619D01*
X102404762Y-133750000D01*
X102309524Y-133702381D01*
X102119047Y-133702381D01*
X102023809Y-133750000D01*
X101976190Y-133797619D01*
X101928571Y-133892857D01*
X101928571Y-133940476D01*
X101976190Y-134035714D01*
X102023809Y-134083333D01*
X102119047Y-134130952D01*
X102309524Y-134130952D01*
X102404762Y-134178571D01*
X102452381Y-134226190D01*
X102500000Y-134321429D01*
X102500000Y-134511905D01*
X102452381Y-134607143D01*
X102404762Y-134654762D01*
X102309524Y-134702381D01*
X102119047Y-134702381D01*
X102023809Y-134654762D01*
X101976190Y-134607143D01*
X101928571Y-134511905D01*
X101928571Y-134321429D01*
X101976190Y-134226190D01*
X102023809Y-134178571D01*
X102119047Y-134130952D01*
D14*
G36*
X135013840Y-139495360D02*
X134988440Y-139480120D01*
X134930020Y-139444560D01*
X134846200Y-139388680D01*
X134747140Y-139322640D01*
X134648080Y-139256600D01*
X134566800Y-139203260D01*
X134510920Y-139165160D01*
X134485520Y-139152460D01*
X134472820Y-139157540D01*
X134427100Y-139180400D01*
X134358520Y-139215960D01*
X134317880Y-139236280D01*
X134256920Y-139261680D01*
X134223900Y-139269300D01*
X134218820Y-139259140D01*
X134195960Y-139210880D01*
X134160400Y-139129600D01*
X134114680Y-139020380D01*
X134058800Y-138893380D01*
X134002920Y-138758760D01*
X133944500Y-138619060D01*
X133888620Y-138484440D01*
X133840360Y-138365060D01*
X133799720Y-138268540D01*
X133774320Y-138199960D01*
X133764160Y-138172020D01*
X133766700Y-138164400D01*
X133799720Y-138133920D01*
X133853060Y-138093280D01*
X133972440Y-137996760D01*
X134089280Y-137851980D01*
X134160400Y-137686880D01*
X134183260Y-137501460D01*
X134162940Y-137331280D01*
X134096900Y-137168720D01*
X133982600Y-137021400D01*
X133842900Y-136912180D01*
X133680340Y-136843600D01*
X133500000Y-136820740D01*
X133327280Y-136841060D01*
X133159640Y-136907100D01*
X133012320Y-137018860D01*
X132948820Y-137089980D01*
X132862460Y-137239840D01*
X132814200Y-137397320D01*
X132809120Y-137437960D01*
X132816740Y-137613220D01*
X132867540Y-137783400D01*
X132961520Y-137933260D01*
X133091060Y-138057720D01*
X133106300Y-138067880D01*
X133164720Y-138113600D01*
X133205360Y-138144080D01*
X133235840Y-138169480D01*
X133012320Y-138707960D01*
X132976760Y-138791780D01*
X132915800Y-138939100D01*
X132862460Y-139066100D01*
X132819280Y-139167700D01*
X132788800Y-139233740D01*
X132776100Y-139261680D01*
X132776100Y-139264220D01*
X132755780Y-139266760D01*
X132715140Y-139251520D01*
X132638940Y-139215960D01*
X132590680Y-139190560D01*
X132532260Y-139162620D01*
X132506860Y-139152460D01*
X132484000Y-139165160D01*
X132430660Y-139200720D01*
X132349380Y-139254060D01*
X132252860Y-139317560D01*
X132161420Y-139381060D01*
X132077600Y-139436940D01*
X132016640Y-139475040D01*
X131986160Y-139492820D01*
X131981080Y-139492820D01*
X131955680Y-139477580D01*
X131907420Y-139436940D01*
X131833760Y-139368360D01*
X131729620Y-139264220D01*
X131714380Y-139248980D01*
X131628020Y-139162620D01*
X131559440Y-139088960D01*
X131513720Y-139038160D01*
X131495940Y-139015300D01*
X131495940Y-139015300D01*
X131511180Y-138984820D01*
X131549280Y-138923860D01*
X131605160Y-138837500D01*
X131673740Y-138738440D01*
X131851540Y-138479360D01*
X131755020Y-138235520D01*
X131724540Y-138159320D01*
X131686440Y-138070420D01*
X131658500Y-138004380D01*
X131643260Y-137976440D01*
X131617860Y-137966280D01*
X131549280Y-137951040D01*
X131452760Y-137930720D01*
X131338460Y-137910400D01*
X131226700Y-137890080D01*
X131127640Y-137869760D01*
X131056520Y-137857060D01*
X131023500Y-137849440D01*
X131015880Y-137844360D01*
X131008260Y-137829120D01*
X131005720Y-137796100D01*
X131003180Y-137735140D01*
X131000640Y-137641160D01*
X131000640Y-137501460D01*
X131000640Y-137486220D01*
X131003180Y-137356680D01*
X131005720Y-137250000D01*
X131008260Y-137183960D01*
X131013340Y-137156020D01*
X131013340Y-137156020D01*
X131043820Y-137148400D01*
X131114940Y-137133160D01*
X131214000Y-137115380D01*
X131333380Y-137092520D01*
X131341000Y-137089980D01*
X131457840Y-137067120D01*
X131556900Y-137046800D01*
X131628020Y-137031560D01*
X131655960Y-137021400D01*
X131663580Y-137013780D01*
X131686440Y-136968060D01*
X131719460Y-136894400D01*
X131760100Y-136805500D01*
X131798200Y-136711520D01*
X131831220Y-136627700D01*
X131854080Y-136566740D01*
X131861700Y-136538800D01*
X131859160Y-136536260D01*
X131841380Y-136508320D01*
X131800740Y-136447360D01*
X131744860Y-136363540D01*
X131676280Y-136261940D01*
X131671200Y-136254320D01*
X131602620Y-136155260D01*
X131546740Y-136068900D01*
X131511180Y-136010480D01*
X131495940Y-135982540D01*
X131495940Y-135980000D01*
X131518800Y-135949520D01*
X131569600Y-135893640D01*
X131643260Y-135817440D01*
X131729620Y-135728540D01*
X131757560Y-135703140D01*
X131856620Y-135606620D01*
X131922660Y-135545660D01*
X131965840Y-135512640D01*
X131986160Y-135505020D01*
X131986160Y-135505020D01*
X132016640Y-135522800D01*
X132080140Y-135563440D01*
X132163960Y-135621860D01*
X132265560Y-135690440D01*
X132273180Y-135695520D01*
X132372240Y-135764100D01*
X132456060Y-135819980D01*
X132514480Y-135860620D01*
X132542420Y-135875860D01*
X132544960Y-135875860D01*
X132585600Y-135863160D01*
X132656720Y-135837760D01*
X132745620Y-135804740D01*
X132837060Y-135766640D01*
X132920880Y-135731080D01*
X132984380Y-135703140D01*
X133014860Y-135685360D01*
X133014860Y-135685360D01*
X133025020Y-135649800D01*
X133042800Y-135573600D01*
X133063120Y-135472000D01*
X133088520Y-135350080D01*
X133091060Y-135329760D01*
X133113920Y-135210380D01*
X133131700Y-135111320D01*
X133146940Y-135042740D01*
X133154560Y-135014800D01*
X133169800Y-135012260D01*
X133228220Y-135007180D01*
X133317120Y-135004640D01*
X133426340Y-135004640D01*
X133538100Y-135004640D01*
X133647320Y-135007180D01*
X133741300Y-135009720D01*
X133809880Y-135014800D01*
X133837820Y-135019880D01*
X133837820Y-135022420D01*
X133847980Y-135060520D01*
X133865760Y-135134180D01*
X133886080Y-135238320D01*
X133908940Y-135360240D01*
X133914020Y-135383100D01*
X133936880Y-135499940D01*
X133957200Y-135599000D01*
X133969900Y-135665040D01*
X133977520Y-135692980D01*
X133990220Y-135698060D01*
X134038480Y-135718380D01*
X134117220Y-135751400D01*
X134216280Y-135792040D01*
X134444880Y-135883480D01*
X134726820Y-135692980D01*
X134752220Y-135675200D01*
X134853820Y-135606620D01*
X134935100Y-135550740D01*
X134993520Y-135512640D01*
X135016380Y-135499940D01*
X135018920Y-135499940D01*
X135046860Y-135525340D01*
X135102740Y-135578680D01*
X135178940Y-135652340D01*
X135267840Y-135738700D01*
X135331340Y-135804740D01*
X135410080Y-135883480D01*
X135458340Y-135936820D01*
X135486280Y-135969840D01*
X135493900Y-135990160D01*
X135491360Y-136005400D01*
X135473580Y-136033340D01*
X135432940Y-136094300D01*
X135374520Y-136180660D01*
X135305940Y-136279720D01*
X135250060Y-136363540D01*
X135189100Y-136457520D01*
X135151000Y-136523560D01*
X135135760Y-136556580D01*
X135140840Y-136569280D01*
X135158620Y-136625160D01*
X135194180Y-136708980D01*
X135234820Y-136808040D01*
X135333880Y-137029020D01*
X135478660Y-137056960D01*
X135567560Y-137074740D01*
X135689480Y-137097600D01*
X135808860Y-137120460D01*
X135991740Y-137156020D01*
X135999360Y-137831660D01*
X135971420Y-137844360D01*
X135943480Y-137851980D01*
X135874900Y-137867220D01*
X135778380Y-137887540D01*
X135661540Y-137907860D01*
X135565020Y-137925640D01*
X135465960Y-137945960D01*
X135394840Y-137958660D01*
X135364360Y-137966280D01*
X135354200Y-137976440D01*
X135331340Y-138024700D01*
X135295780Y-138100900D01*
X135255140Y-138192340D01*
X135217040Y-138286320D01*
X135181480Y-138375220D01*
X135158620Y-138441260D01*
X135148460Y-138474280D01*
X135161160Y-138502220D01*
X135199260Y-138560640D01*
X135252600Y-138641920D01*
X135321180Y-138740980D01*
X135387220Y-138837500D01*
X135445640Y-138921320D01*
X135483740Y-138982280D01*
X135501520Y-139010220D01*
X135491360Y-139028000D01*
X135453260Y-139076260D01*
X135379600Y-139152460D01*
X135267840Y-139261680D01*
X135250060Y-139279460D01*
X135163700Y-139363280D01*
X135090040Y-139431860D01*
X135036700Y-139477580D01*
X135013840Y-139495360D01*
X135013840Y-139495360D01*
G37*
X135013840Y-139495360D02*
X134988440Y-139480120D01*
X134930020Y-139444560D01*
X134846200Y-139388680D01*
X134747140Y-139322640D01*
X134648080Y-139256600D01*
X134566800Y-139203260D01*
X134510920Y-139165160D01*
X134485520Y-139152460D01*
X134472820Y-139157540D01*
X134427100Y-139180400D01*
X134358520Y-139215960D01*
X134317880Y-139236280D01*
X134256920Y-139261680D01*
X134223900Y-139269300D01*
X134218820Y-139259140D01*
X134195960Y-139210880D01*
X134160400Y-139129600D01*
X134114680Y-139020380D01*
X134058800Y-138893380D01*
X134002920Y-138758760D01*
X133944500Y-138619060D01*
X133888620Y-138484440D01*
X133840360Y-138365060D01*
X133799720Y-138268540D01*
X133774320Y-138199960D01*
X133764160Y-138172020D01*
X133766700Y-138164400D01*
X133799720Y-138133920D01*
X133853060Y-138093280D01*
X133972440Y-137996760D01*
X134089280Y-137851980D01*
X134160400Y-137686880D01*
X134183260Y-137501460D01*
X134162940Y-137331280D01*
X134096900Y-137168720D01*
X133982600Y-137021400D01*
X133842900Y-136912180D01*
X133680340Y-136843600D01*
X133500000Y-136820740D01*
X133327280Y-136841060D01*
X133159640Y-136907100D01*
X133012320Y-137018860D01*
X132948820Y-137089980D01*
X132862460Y-137239840D01*
X132814200Y-137397320D01*
X132809120Y-137437960D01*
X132816740Y-137613220D01*
X132867540Y-137783400D01*
X132961520Y-137933260D01*
X133091060Y-138057720D01*
X133106300Y-138067880D01*
X133164720Y-138113600D01*
X133205360Y-138144080D01*
X133235840Y-138169480D01*
X133012320Y-138707960D01*
X132976760Y-138791780D01*
X132915800Y-138939100D01*
X132862460Y-139066100D01*
X132819280Y-139167700D01*
X132788800Y-139233740D01*
X132776100Y-139261680D01*
X132776100Y-139264220D01*
X132755780Y-139266760D01*
X132715140Y-139251520D01*
X132638940Y-139215960D01*
X132590680Y-139190560D01*
X132532260Y-139162620D01*
X132506860Y-139152460D01*
X132484000Y-139165160D01*
X132430660Y-139200720D01*
X132349380Y-139254060D01*
X132252860Y-139317560D01*
X132161420Y-139381060D01*
X132077600Y-139436940D01*
X132016640Y-139475040D01*
X131986160Y-139492820D01*
X131981080Y-139492820D01*
X131955680Y-139477580D01*
X131907420Y-139436940D01*
X131833760Y-139368360D01*
X131729620Y-139264220D01*
X131714380Y-139248980D01*
X131628020Y-139162620D01*
X131559440Y-139088960D01*
X131513720Y-139038160D01*
X131495940Y-139015300D01*
X131495940Y-139015300D01*
X131511180Y-138984820D01*
X131549280Y-138923860D01*
X131605160Y-138837500D01*
X131673740Y-138738440D01*
X131851540Y-138479360D01*
X131755020Y-138235520D01*
X131724540Y-138159320D01*
X131686440Y-138070420D01*
X131658500Y-138004380D01*
X131643260Y-137976440D01*
X131617860Y-137966280D01*
X131549280Y-137951040D01*
X131452760Y-137930720D01*
X131338460Y-137910400D01*
X131226700Y-137890080D01*
X131127640Y-137869760D01*
X131056520Y-137857060D01*
X131023500Y-137849440D01*
X131015880Y-137844360D01*
X131008260Y-137829120D01*
X131005720Y-137796100D01*
X131003180Y-137735140D01*
X131000640Y-137641160D01*
X131000640Y-137501460D01*
X131000640Y-137486220D01*
X131003180Y-137356680D01*
X131005720Y-137250000D01*
X131008260Y-137183960D01*
X131013340Y-137156020D01*
X131013340Y-137156020D01*
X131043820Y-137148400D01*
X131114940Y-137133160D01*
X131214000Y-137115380D01*
X131333380Y-137092520D01*
X131341000Y-137089980D01*
X131457840Y-137067120D01*
X131556900Y-137046800D01*
X131628020Y-137031560D01*
X131655960Y-137021400D01*
X131663580Y-137013780D01*
X131686440Y-136968060D01*
X131719460Y-136894400D01*
X131760100Y-136805500D01*
X131798200Y-136711520D01*
X131831220Y-136627700D01*
X131854080Y-136566740D01*
X131861700Y-136538800D01*
X131859160Y-136536260D01*
X131841380Y-136508320D01*
X131800740Y-136447360D01*
X131744860Y-136363540D01*
X131676280Y-136261940D01*
X131671200Y-136254320D01*
X131602620Y-136155260D01*
X131546740Y-136068900D01*
X131511180Y-136010480D01*
X131495940Y-135982540D01*
X131495940Y-135980000D01*
X131518800Y-135949520D01*
X131569600Y-135893640D01*
X131643260Y-135817440D01*
X131729620Y-135728540D01*
X131757560Y-135703140D01*
X131856620Y-135606620D01*
X131922660Y-135545660D01*
X131965840Y-135512640D01*
X131986160Y-135505020D01*
X131986160Y-135505020D01*
X132016640Y-135522800D01*
X132080140Y-135563440D01*
X132163960Y-135621860D01*
X132265560Y-135690440D01*
X132273180Y-135695520D01*
X132372240Y-135764100D01*
X132456060Y-135819980D01*
X132514480Y-135860620D01*
X132542420Y-135875860D01*
X132544960Y-135875860D01*
X132585600Y-135863160D01*
X132656720Y-135837760D01*
X132745620Y-135804740D01*
X132837060Y-135766640D01*
X132920880Y-135731080D01*
X132984380Y-135703140D01*
X133014860Y-135685360D01*
X133014860Y-135685360D01*
X133025020Y-135649800D01*
X133042800Y-135573600D01*
X133063120Y-135472000D01*
X133088520Y-135350080D01*
X133091060Y-135329760D01*
X133113920Y-135210380D01*
X133131700Y-135111320D01*
X133146940Y-135042740D01*
X133154560Y-135014800D01*
X133169800Y-135012260D01*
X133228220Y-135007180D01*
X133317120Y-135004640D01*
X133426340Y-135004640D01*
X133538100Y-135004640D01*
X133647320Y-135007180D01*
X133741300Y-135009720D01*
X133809880Y-135014800D01*
X133837820Y-135019880D01*
X133837820Y-135022420D01*
X133847980Y-135060520D01*
X133865760Y-135134180D01*
X133886080Y-135238320D01*
X133908940Y-135360240D01*
X133914020Y-135383100D01*
X133936880Y-135499940D01*
X133957200Y-135599000D01*
X133969900Y-135665040D01*
X133977520Y-135692980D01*
X133990220Y-135698060D01*
X134038480Y-135718380D01*
X134117220Y-135751400D01*
X134216280Y-135792040D01*
X134444880Y-135883480D01*
X134726820Y-135692980D01*
X134752220Y-135675200D01*
X134853820Y-135606620D01*
X134935100Y-135550740D01*
X134993520Y-135512640D01*
X135016380Y-135499940D01*
X135018920Y-135499940D01*
X135046860Y-135525340D01*
X135102740Y-135578680D01*
X135178940Y-135652340D01*
X135267840Y-135738700D01*
X135331340Y-135804740D01*
X135410080Y-135883480D01*
X135458340Y-135936820D01*
X135486280Y-135969840D01*
X135493900Y-135990160D01*
X135491360Y-136005400D01*
X135473580Y-136033340D01*
X135432940Y-136094300D01*
X135374520Y-136180660D01*
X135305940Y-136279720D01*
X135250060Y-136363540D01*
X135189100Y-136457520D01*
X135151000Y-136523560D01*
X135135760Y-136556580D01*
X135140840Y-136569280D01*
X135158620Y-136625160D01*
X135194180Y-136708980D01*
X135234820Y-136808040D01*
X135333880Y-137029020D01*
X135478660Y-137056960D01*
X135567560Y-137074740D01*
X135689480Y-137097600D01*
X135808860Y-137120460D01*
X135991740Y-137156020D01*
X135999360Y-137831660D01*
X135971420Y-137844360D01*
X135943480Y-137851980D01*
X135874900Y-137867220D01*
X135778380Y-137887540D01*
X135661540Y-137907860D01*
X135565020Y-137925640D01*
X135465960Y-137945960D01*
X135394840Y-137958660D01*
X135364360Y-137966280D01*
X135354200Y-137976440D01*
X135331340Y-138024700D01*
X135295780Y-138100900D01*
X135255140Y-138192340D01*
X135217040Y-138286320D01*
X135181480Y-138375220D01*
X135158620Y-138441260D01*
X135148460Y-138474280D01*
X135161160Y-138502220D01*
X135199260Y-138560640D01*
X135252600Y-138641920D01*
X135321180Y-138740980D01*
X135387220Y-138837500D01*
X135445640Y-138921320D01*
X135483740Y-138982280D01*
X135501520Y-139010220D01*
X135491360Y-139028000D01*
X135453260Y-139076260D01*
X135379600Y-139152460D01*
X135267840Y-139261680D01*
X135250060Y-139279460D01*
X135163700Y-139363280D01*
X135090040Y-139431860D01*
X135036700Y-139477580D01*
X135013840Y-139495360D01*
D15*
X113330000Y-68920000D02*
X113330000Y-71580000D01*
X95490000Y-68920000D02*
X113330000Y-68920000D01*
X95490000Y-71580000D02*
X113330000Y-71580000D01*
X95490000Y-68920000D02*
X95490000Y-71580000D01*
X94220000Y-68920000D02*
X92890000Y-68920000D01*
X92890000Y-68920000D02*
X92890000Y-70250000D01*
D11*
X138286000Y-55865000D02*
X138286000Y-57262000D01*
X138159000Y-55611000D02*
X138159000Y-57389000D01*
X138032000Y-55230000D02*
X138032000Y-57770000D01*
X137905000Y-57897000D02*
X137905000Y-55103000D01*
X137778000Y-54976000D02*
X137778000Y-58024000D01*
X137651000Y-58151000D02*
X137651000Y-54849000D01*
X137524000Y-54722000D02*
X137524000Y-58278000D01*
X138667000Y-53833000D02*
X134095000Y-53833000D01*
X134095000Y-53833000D02*
X133333000Y-54595000D01*
X133333000Y-54595000D02*
X133333000Y-58405000D01*
X133333000Y-58405000D02*
X134095000Y-59167000D01*
X134095000Y-59167000D02*
X138667000Y-59167000D01*
X138667000Y-59167000D02*
X138667000Y-53833000D01*
X133841000Y-56500000D02*
X134603000Y-56500000D01*
X134222000Y-56119000D02*
X134222000Y-56881000D01*
X138413000Y-56500000D02*
G75*
G03X138413000Y-56500000I-2413000J0D01*
G01*
X135865000Y-84464000D02*
X137262000Y-84464000D01*
X135611000Y-84591000D02*
X137389000Y-84591000D01*
X135230000Y-84718000D02*
X137770000Y-84718000D01*
X137897000Y-84845000D02*
X135103000Y-84845000D01*
X134976000Y-84972000D02*
X138024000Y-84972000D01*
X138151000Y-85099000D02*
X134849000Y-85099000D01*
X134722000Y-85226000D02*
X138278000Y-85226000D01*
X133833000Y-84083000D02*
X133833000Y-88655000D01*
X133833000Y-88655000D02*
X134595000Y-89417000D01*
X134595000Y-89417000D02*
X138405000Y-89417000D01*
X138405000Y-89417000D02*
X139167000Y-88655000D01*
X139167000Y-88655000D02*
X139167000Y-84083000D01*
X139167000Y-84083000D02*
X133833000Y-84083000D01*
X136500000Y-88909000D02*
X136500000Y-88147000D01*
X136119000Y-88528000D02*
X136881000Y-88528000D01*
X138913000Y-86750000D02*
G75*
G03X138913000Y-86750000I-2413000J0D01*
G01*
D16*
X132989400Y-45160340D02*
X132989400Y-47339660D01*
X137510600Y-45160340D02*
X137510600Y-47339660D01*
X133901260Y-44350080D02*
X134452440Y-44350080D01*
X133901260Y-48149920D02*
X134452440Y-48149920D01*
D17*
X132989400Y-48155000D02*
X137510600Y-48155000D01*
X132989400Y-44345000D02*
X137510600Y-44345000D01*
X132989400Y-44345000D02*
X132989400Y-48155000D01*
X137510600Y-44345000D02*
X137510600Y-48155000D01*
D18*
X135640500Y-47248220D02*
X134621960Y-46250000D01*
X134621960Y-46250000D02*
X135640500Y-45251780D01*
X135640500Y-45251780D02*
X135640500Y-47248220D01*
D16*
X126989400Y-82910340D02*
X126989400Y-85089660D01*
X131510600Y-82910340D02*
X131510600Y-85089660D01*
X127901260Y-82100080D02*
X128452440Y-82100080D01*
X127901260Y-85899920D02*
X128452440Y-85899920D01*
D17*
X126989400Y-85905000D02*
X131510600Y-85905000D01*
X126989400Y-82095000D02*
X131510600Y-82095000D01*
X126989400Y-82095000D02*
X126989400Y-85905000D01*
X131510600Y-82095000D02*
X131510600Y-85905000D01*
D18*
X129640500Y-84998220D02*
X128621960Y-84000000D01*
X128621960Y-84000000D02*
X129640500Y-83001780D01*
X129640500Y-83001780D02*
X129640500Y-84998220D01*
D19*
X97270000Y-85988000D02*
X94666500Y-85988000D01*
X94666500Y-85988000D02*
X94666500Y-87512000D01*
X94666500Y-87512000D02*
X97270000Y-87512000D01*
X97270000Y-87512000D02*
X97270000Y-85988000D01*
X103770000Y-95238000D02*
X101166500Y-95238000D01*
X101166500Y-95238000D02*
X101166500Y-96762000D01*
X101166500Y-96762000D02*
X103770000Y-96762000D01*
X103770000Y-96762000D02*
X103770000Y-95238000D01*
D11*
X119992000Y-122492000D02*
X119992000Y-123508000D01*
X121008000Y-122492000D02*
X121008000Y-123508000D01*
X121008000Y-123508000D02*
X119992000Y-123000000D01*
X119992000Y-123000000D02*
X121008000Y-122492000D01*
X120758000Y-94992000D02*
X119742000Y-94992000D01*
X120758000Y-96008000D02*
X119742000Y-96008000D01*
X119742000Y-96008000D02*
X120250000Y-94992000D01*
X120250000Y-94992000D02*
X120758000Y-96008000D01*
X118492000Y-89242000D02*
X118492000Y-90258000D01*
X119508000Y-89242000D02*
X119508000Y-90258000D01*
X119508000Y-90258000D02*
X118492000Y-89750000D01*
X118492000Y-89750000D02*
X119508000Y-89242000D01*
X108992000Y-105242000D02*
X108992000Y-106258000D01*
X110008000Y-105242000D02*
X110008000Y-106258000D01*
X110008000Y-106258000D02*
X108992000Y-105750000D01*
X108992000Y-105750000D02*
X110008000Y-105242000D01*
X110008000Y-104508000D02*
X110008000Y-103492000D01*
X108992000Y-104508000D02*
X108992000Y-103492000D01*
X108992000Y-103492000D02*
X110008000Y-104000000D01*
X110008000Y-104000000D02*
X108992000Y-104508000D01*
X95508000Y-111758000D02*
X95508000Y-110742000D01*
X94492000Y-111758000D02*
X94492000Y-110742000D01*
X94492000Y-110742000D02*
X95508000Y-111250000D01*
X95508000Y-111250000D02*
X94492000Y-111758000D01*
D15*
X135500000Y-59900000D02*
X136500000Y-59900000D01*
X136500000Y-61600000D02*
X135500000Y-61600000D01*
X136000000Y-78100000D02*
X135000000Y-78100000D01*
X135000000Y-76400000D02*
X136000000Y-76400000D01*
X133170000Y-62510000D02*
X138370000Y-62510000D01*
X133170000Y-72730000D02*
X133170000Y-62510000D01*
X138370000Y-75330000D02*
X138370000Y-62510000D01*
X133170000Y-72730000D02*
X135770000Y-72730000D01*
X135770000Y-72730000D02*
X135770000Y-75330000D01*
X135770000Y-75330000D02*
X138370000Y-75330000D01*
X133170000Y-74000000D02*
X133170000Y-75330000D01*
X133170000Y-75330000D02*
X134500000Y-75330000D01*
X124420000Y-121840000D02*
X127080000Y-121840000D01*
X124420000Y-126980000D02*
X124420000Y-121840000D01*
X127080000Y-126980000D02*
X127080000Y-121840000D01*
X124420000Y-126980000D02*
X127080000Y-126980000D01*
X124420000Y-128250000D02*
X124420000Y-129580000D01*
X124420000Y-129580000D02*
X125750000Y-129580000D01*
D11*
X116850000Y-85000000D02*
X116150000Y-84300000D01*
X116150000Y-81950000D02*
X116150000Y-85050000D01*
X117850000Y-81950000D02*
X116150000Y-81950000D01*
X117850000Y-85050000D02*
X117850000Y-81950000D01*
X116150000Y-85050000D02*
X117850000Y-85050000D01*
D15*
X121580000Y-132510000D02*
X120650000Y-132510000D01*
X118420000Y-132510000D02*
X119350000Y-132510000D01*
X118420000Y-132510000D02*
X118420000Y-130350000D01*
X121580000Y-132510000D02*
X121580000Y-131050000D01*
D19*
X124020000Y-90488000D02*
X121416500Y-90488000D01*
X121416500Y-90488000D02*
X121416500Y-92012000D01*
X121416500Y-92012000D02*
X124020000Y-92012000D01*
X124020000Y-92012000D02*
X124020000Y-90488000D01*
D11*
X123000000Y-99150000D02*
X123000000Y-97350000D01*
X123000000Y-97350000D02*
X124000000Y-97350000D01*
X124000000Y-97350000D02*
X124000000Y-99150000D01*
X124000000Y-99150000D02*
X123000000Y-99150000D01*
D19*
X126020000Y-100988000D02*
X123416500Y-100988000D01*
X123416500Y-100988000D02*
X123416500Y-102512000D01*
X123416500Y-102512000D02*
X126020000Y-102512000D01*
X126020000Y-102512000D02*
X126020000Y-100988000D01*
D11*
X119100000Y-66350000D02*
X121900000Y-66350000D01*
X119100000Y-68150000D02*
X121900000Y-68150000D01*
X121900000Y-68150000D02*
X121900000Y-66350000D01*
X119100000Y-66350000D02*
X119100000Y-68150000D01*
X97100000Y-126850000D02*
X99900000Y-126850000D01*
X97100000Y-128650000D02*
X99900000Y-128650000D01*
X99900000Y-128650000D02*
X99900000Y-126850000D01*
X97100000Y-126850000D02*
X97100000Y-128650000D01*
X107450000Y-77250000D02*
G75*
G03X107450000Y-77250000I-1200000J0D01*
G01*
X131700000Y-106000000D02*
G75*
G03X131700000Y-106000000I-1200000J0D01*
G01*
X95450000Y-106250000D02*
G75*
G03X95450000Y-106250000I-1200000J0D01*
G01*
X124700000Y-135000000D02*
G75*
G03X124700000Y-135000000I-1200000J0D01*
G01*
X109700000Y-113750000D02*
G75*
G03X109700000Y-113750000I-1200000J0D01*
G01*
X115325000Y-79425000D02*
X115325000Y-79250000D01*
X118675000Y-79425000D02*
X118675000Y-79175000D01*
X118675000Y-76075000D02*
X118675000Y-76325000D01*
X115325000Y-76075000D02*
X115325000Y-76325000D01*
X115325000Y-79425000D02*
X118675000Y-79425000D01*
X115325000Y-76075000D02*
X118675000Y-76075000D01*
X115325000Y-79250000D02*
X114075000Y-79250000D01*
D10*
X115350000Y-85320000D02*
X115350000Y-88180000D01*
X115350000Y-88180000D02*
X118950000Y-88180000D01*
X118950000Y-88180000D02*
X118950000Y-85320000D01*
X118928000Y-85312000D02*
X115372000Y-85312000D01*
X118674000Y-85947000D02*
G75*
G03X118674000Y-85947000I-381000J0D01*
G01*
X105150000Y-109930000D02*
X105150000Y-107070000D01*
X105150000Y-107070000D02*
X101550000Y-107070000D01*
X101550000Y-107070000D02*
X101550000Y-109930000D01*
X101572000Y-109938000D02*
X105128000Y-109938000D01*
X102588000Y-109303000D02*
G75*
G03X102588000Y-109303000I-381000J0D01*
G01*
X127150000Y-110180000D02*
X127150000Y-107320000D01*
X127150000Y-107320000D02*
X123550000Y-107320000D01*
X123550000Y-107320000D02*
X123550000Y-110180000D01*
X123572000Y-110188000D02*
X127128000Y-110188000D01*
X124588000Y-109553000D02*
G75*
G03X124588000Y-109553000I-381000J0D01*
G01*
D11*
X111400000Y-73500000D02*
X112100000Y-74200000D01*
X112100000Y-76550000D02*
X112100000Y-73450000D01*
X110400000Y-76550000D02*
X112100000Y-76550000D01*
X110400000Y-73450000D02*
X110400000Y-76550000D01*
X112100000Y-73450000D02*
X110400000Y-73450000D01*
X95250000Y-79750000D02*
X95250000Y-79000000D01*
X95250000Y-79000000D02*
X96000000Y-79000000D01*
X96000000Y-78500000D02*
X95250000Y-78500000D01*
X95250000Y-78500000D02*
X95250000Y-77750000D01*
X94000000Y-78500000D02*
X94750000Y-78500000D01*
X94750000Y-78500000D02*
X94750000Y-77750000D01*
X94750000Y-79750000D02*
X94750000Y-79000000D01*
X94750000Y-79000000D02*
X94000000Y-79000000D01*
X94750000Y-77750000D02*
X95250000Y-77750000D01*
X94750000Y-79750000D02*
X95250000Y-79750000D01*
X96000000Y-79000000D02*
X96000000Y-78500000D01*
X94000000Y-79000000D02*
X94000000Y-78500000D01*
X93500000Y-76850000D02*
X93500000Y-77750000D01*
X93500000Y-76850000D02*
X96500000Y-76850000D01*
X96500000Y-76850000D02*
X96500000Y-77750000D01*
X93500000Y-80650000D02*
X93500000Y-79850000D01*
X93500000Y-80650000D02*
X96500000Y-80650000D01*
X96500000Y-80650000D02*
X96500000Y-79750000D01*
X96802776Y-78750000D02*
G75*
G03X96802776Y-78750000I-1802776J0D01*
G01*
X134250000Y-107750000D02*
X134250000Y-107000000D01*
X134250000Y-107000000D02*
X135000000Y-107000000D01*
X135000000Y-106500000D02*
X134250000Y-106500000D01*
X134250000Y-106500000D02*
X134250000Y-105750000D01*
X133000000Y-106500000D02*
X133750000Y-106500000D01*
X133750000Y-106500000D02*
X133750000Y-105750000D01*
X133750000Y-107750000D02*
X133750000Y-107000000D01*
X133750000Y-107000000D02*
X133000000Y-107000000D01*
X133750000Y-105750000D02*
X134250000Y-105750000D01*
X133750000Y-107750000D02*
X134250000Y-107750000D01*
X135000000Y-107000000D02*
X135000000Y-106500000D01*
X133000000Y-107000000D02*
X133000000Y-106500000D01*
X132500000Y-104850000D02*
X132500000Y-105750000D01*
X132500000Y-104850000D02*
X135500000Y-104850000D01*
X135500000Y-104850000D02*
X135500000Y-105750000D01*
X132500000Y-108650000D02*
X132500000Y-107850000D01*
X132500000Y-108650000D02*
X135500000Y-108650000D01*
X135500000Y-108650000D02*
X135500000Y-107750000D01*
X135802776Y-106750000D02*
G75*
G03X135802776Y-106750000I-1802776J0D01*
G01*
X106750000Y-99500000D02*
X106750000Y-98750000D01*
X106750000Y-98750000D02*
X107500000Y-98750000D01*
X107500000Y-98250000D02*
X106750000Y-98250000D01*
X106750000Y-98250000D02*
X106750000Y-97500000D01*
X105500000Y-98250000D02*
X106250000Y-98250000D01*
X106250000Y-98250000D02*
X106250000Y-97500000D01*
X106250000Y-99500000D02*
X106250000Y-98750000D01*
X106250000Y-98750000D02*
X105500000Y-98750000D01*
X106250000Y-97500000D02*
X106750000Y-97500000D01*
X106250000Y-99500000D02*
X106750000Y-99500000D01*
X107500000Y-98750000D02*
X107500000Y-98250000D01*
X105500000Y-98750000D02*
X105500000Y-98250000D01*
X105000000Y-96600000D02*
X105000000Y-97500000D01*
X105000000Y-96600000D02*
X108000000Y-96600000D01*
X108000000Y-96600000D02*
X108000000Y-97500000D01*
X105000000Y-100400000D02*
X105000000Y-99600000D01*
X105000000Y-100400000D02*
X108000000Y-100400000D01*
X108000000Y-100400000D02*
X108000000Y-99500000D01*
X108302776Y-98500000D02*
G75*
G03X108302776Y-98500000I-1802776J0D01*
G01*
X128500000Y-92250000D02*
X129250000Y-92250000D01*
X129250000Y-92250000D02*
X129250000Y-93000000D01*
X129750000Y-93000000D02*
X129750000Y-92250000D01*
X129750000Y-92250000D02*
X130500000Y-92250000D01*
X129750000Y-91000000D02*
X129750000Y-91750000D01*
X129750000Y-91750000D02*
X130500000Y-91750000D01*
X128500000Y-91750000D02*
X129250000Y-91750000D01*
X129250000Y-91750000D02*
X129250000Y-91000000D01*
X130500000Y-91750000D02*
X130500000Y-92250000D01*
X128500000Y-91750000D02*
X128500000Y-92250000D01*
X129250000Y-93000000D02*
X129750000Y-93000000D01*
X129250000Y-91000000D02*
X129750000Y-91000000D01*
X131400000Y-90500000D02*
X130500000Y-90500000D01*
X131400000Y-90500000D02*
X131400000Y-93500000D01*
X131400000Y-93500000D02*
X130500000Y-93500000D01*
X127600000Y-90500000D02*
X128400000Y-90500000D01*
X127600000Y-90500000D02*
X127600000Y-93500000D01*
X127600000Y-93500000D02*
X128500000Y-93500000D01*
X131302776Y-92000000D02*
G75*
G03X131302776Y-92000000I-1802776J0D01*
G01*
D10*
X120750000Y-92750000D02*
X120750000Y-91750000D01*
X119750000Y-92750000D02*
X119750000Y-91750000D01*
X107000000Y-74750000D02*
X108000000Y-74750000D01*
X107000000Y-73750000D02*
X108000000Y-73750000D01*
X104000000Y-74750000D02*
X105000000Y-74750000D01*
X104000000Y-73750000D02*
X105000000Y-73750000D01*
X96500000Y-83000000D02*
X95500000Y-83000000D01*
X96500000Y-84000000D02*
X95500000Y-84000000D01*
X101750000Y-93250000D02*
X102750000Y-93250000D01*
X101750000Y-92250000D02*
X102750000Y-92250000D01*
X101000000Y-74750000D02*
X102000000Y-74750000D01*
X101000000Y-73750000D02*
X102000000Y-73750000D01*
X98000000Y-74750000D02*
X99000000Y-74750000D01*
X98000000Y-73750000D02*
X99000000Y-73750000D01*
X121250000Y-125000000D02*
X120250000Y-125000000D01*
X121250000Y-126000000D02*
X120250000Y-126000000D01*
X95000000Y-74750000D02*
X96000000Y-74750000D01*
X95000000Y-73750000D02*
X96000000Y-73750000D01*
X115000000Y-125000000D02*
X114000000Y-125000000D01*
X115000000Y-126000000D02*
X114000000Y-126000000D01*
X110750000Y-78250000D02*
X111750000Y-78250000D01*
X110750000Y-77250000D02*
X111750000Y-77250000D01*
X110500000Y-94750000D02*
X110500000Y-93750000D01*
X109500000Y-94750000D02*
X109500000Y-93750000D01*
X118750000Y-71000000D02*
X117750000Y-71000000D01*
X118750000Y-72000000D02*
X117750000Y-72000000D01*
X106250000Y-85250000D02*
X107250000Y-85250000D01*
X106250000Y-84250000D02*
X107250000Y-84250000D01*
X118750000Y-72500000D02*
X117750000Y-72500000D01*
X118750000Y-73500000D02*
X117750000Y-73500000D01*
X111250000Y-85250000D02*
X112250000Y-85250000D01*
X111250000Y-84250000D02*
X112250000Y-84250000D01*
X113000000Y-81250000D02*
X114000000Y-81250000D01*
X113000000Y-80250000D02*
X114000000Y-80250000D01*
X122250000Y-73500000D02*
X123250000Y-73500000D01*
X122250000Y-72500000D02*
X123250000Y-72500000D01*
X121000000Y-83000000D02*
X120000000Y-83000000D01*
X121000000Y-84000000D02*
X120000000Y-84000000D01*
X137750000Y-107750000D02*
X137750000Y-106750000D01*
X136750000Y-107750000D02*
X136750000Y-106750000D01*
X122250000Y-86750000D02*
X123250000Y-86750000D01*
X122250000Y-85750000D02*
X123250000Y-85750000D01*
X105000000Y-103500000D02*
X104000000Y-103500000D01*
X105000000Y-104500000D02*
X104000000Y-104500000D01*
X105000000Y-105250000D02*
X104000000Y-105250000D01*
X105000000Y-106250000D02*
X104000000Y-106250000D01*
X102000000Y-105250000D02*
X101000000Y-105250000D01*
X102000000Y-106250000D02*
X101000000Y-106250000D01*
X104000000Y-111000000D02*
X103000000Y-111000000D01*
X104000000Y-112000000D02*
X103000000Y-112000000D01*
X105000000Y-101750000D02*
X104000000Y-101750000D01*
X105000000Y-102750000D02*
X104000000Y-102750000D01*
X121500000Y-94750000D02*
X121500000Y-95750000D01*
X122500000Y-94750000D02*
X122500000Y-95750000D01*
X118250000Y-92750000D02*
X118250000Y-91750000D01*
X117250000Y-92750000D02*
X117250000Y-91750000D01*
X119500000Y-105750000D02*
X118500000Y-105750000D01*
X119500000Y-106750000D02*
X118500000Y-106750000D01*
X125250000Y-92000000D02*
X125250000Y-93000000D01*
X126250000Y-92000000D02*
X126250000Y-93000000D01*
X95750000Y-109000000D02*
X94750000Y-109000000D01*
X95750000Y-110000000D02*
X94750000Y-110000000D01*
X119500000Y-109000000D02*
X118500000Y-109000000D01*
X119500000Y-110000000D02*
X118500000Y-110000000D01*
X127000000Y-95000000D02*
X127000000Y-96000000D01*
X128000000Y-95000000D02*
X128000000Y-96000000D01*
X135250000Y-91250000D02*
X134250000Y-91250000D01*
X135250000Y-92250000D02*
X134250000Y-92250000D01*
X111250000Y-87500000D02*
X112250000Y-87500000D01*
X111250000Y-86500000D02*
X112250000Y-86500000D01*
X118500000Y-108500000D02*
X119500000Y-108500000D01*
X118500000Y-107500000D02*
X119500000Y-107500000D01*
X97750000Y-110000000D02*
X98750000Y-110000000D01*
X97750000Y-109000000D02*
X98750000Y-109000000D01*
X112250000Y-88250000D02*
X111250000Y-88250000D01*
X112250000Y-89250000D02*
X111250000Y-89250000D01*
X132250000Y-131250000D02*
X133250000Y-131250000D01*
X132250000Y-130250000D02*
X133250000Y-130250000D01*
X98750000Y-110750000D02*
X97750000Y-110750000D01*
X98750000Y-111750000D02*
X97750000Y-111750000D01*
X109750000Y-101750000D02*
X108750000Y-101750000D01*
X109750000Y-102750000D02*
X108750000Y-102750000D01*
X119500000Y-112500000D02*
X118500000Y-112500000D01*
X119500000Y-113500000D02*
X118500000Y-113500000D01*
X118500000Y-111750000D02*
X119500000Y-111750000D01*
X118500000Y-110750000D02*
X119500000Y-110750000D01*
X109750000Y-107000000D02*
X108750000Y-107000000D01*
X109750000Y-108000000D02*
X108750000Y-108000000D01*
X112750000Y-109000000D02*
X111750000Y-109000000D01*
X112750000Y-110000000D02*
X111750000Y-110000000D01*
X121500000Y-113500000D02*
X122500000Y-113500000D01*
X121500000Y-112500000D02*
X122500000Y-112500000D01*
X109750000Y-109000000D02*
X108750000Y-109000000D01*
X109750000Y-110000000D02*
X108750000Y-110000000D01*
X117750000Y-134500000D02*
X116750000Y-134500000D01*
X117750000Y-135500000D02*
X116750000Y-135500000D01*
X99750000Y-130250000D02*
X98750000Y-130250000D01*
X99750000Y-131250000D02*
X98750000Y-131250000D01*
X115750000Y-81250000D02*
X116750000Y-81250000D01*
X115750000Y-80250000D02*
X116750000Y-80250000D01*
X109750000Y-110750000D02*
X108750000Y-110750000D01*
X109750000Y-111750000D02*
X108750000Y-111750000D01*
X121500000Y-111750000D02*
X122500000Y-111750000D01*
X121500000Y-110750000D02*
X122500000Y-110750000D01*
X115750000Y-88750000D02*
X114750000Y-88750000D01*
X115750000Y-89750000D02*
X114750000Y-89750000D01*
X123250000Y-88000000D02*
X122250000Y-88000000D01*
X123250000Y-89000000D02*
X122250000Y-89000000D01*
X138500000Y-106750000D02*
X138500000Y-107750000D01*
X139500000Y-106750000D02*
X139500000Y-107750000D01*
X122250000Y-75250000D02*
X123250000Y-75250000D01*
X122250000Y-74250000D02*
X123250000Y-74250000D01*
X118750000Y-74250000D02*
X117750000Y-74250000D01*
X118750000Y-75250000D02*
X117750000Y-75250000D01*
X117250000Y-126000000D02*
X118250000Y-126000000D01*
X117250000Y-125000000D02*
X118250000Y-125000000D01*
X102750000Y-90500000D02*
X101750000Y-90500000D01*
X102750000Y-91500000D02*
X101750000Y-91500000D01*
X105750000Y-111250000D02*
X105750000Y-112250000D01*
X106750000Y-111250000D02*
X106750000Y-112250000D01*
X98000000Y-106250000D02*
X99000000Y-106250000D01*
X98000000Y-105250000D02*
X99000000Y-105250000D01*
X128500000Y-111750000D02*
X129500000Y-111750000D01*
X128500000Y-110750000D02*
X129500000Y-110750000D01*
X121500000Y-106750000D02*
X122500000Y-106750000D01*
X121500000Y-105750000D02*
X122500000Y-105750000D01*
X98500000Y-84000000D02*
X99500000Y-84000000D01*
X98500000Y-83000000D02*
X99500000Y-83000000D01*
X129500000Y-81500000D02*
X130500000Y-81500000D01*
X129500000Y-80500000D02*
X130500000Y-80500000D01*
X114750000Y-84250000D02*
X114750000Y-83250000D01*
X113750000Y-84250000D02*
X113750000Y-83250000D01*
X115750000Y-74250000D02*
X114750000Y-74250000D01*
X115750000Y-75250000D02*
X114750000Y-75250000D01*
X120000000Y-81250000D02*
X121000000Y-81250000D01*
X120000000Y-80250000D02*
X121000000Y-80250000D01*
X109500000Y-72250000D02*
X108500000Y-72250000D01*
X109500000Y-73250000D02*
X108500000Y-73250000D01*
D20*
G36*
X104141597Y-121510750D02*
X104012965Y-121512861D01*
X103893926Y-121516645D01*
X103789921Y-121522101D01*
X103706391Y-121529229D01*
X103675552Y-121533186D01*
X103361624Y-121594396D01*
X103054236Y-121682781D01*
X102755357Y-121797345D01*
X102466951Y-121937093D01*
X102190988Y-122101030D01*
X101929432Y-122288159D01*
X101684252Y-122497485D01*
X101589205Y-122589206D01*
X101368043Y-122830270D01*
X101170180Y-123087520D01*
X100996105Y-123359995D01*
X100846301Y-123646736D01*
X100721255Y-123946782D01*
X100621453Y-124259175D01*
X100547380Y-124582952D01*
X100530256Y-124682109D01*
X100519813Y-124768266D01*
X100511825Y-124876873D01*
X100506293Y-125001950D01*
X100503216Y-125137512D01*
X100502595Y-125277578D01*
X100504430Y-125416166D01*
X100508721Y-125547292D01*
X100515467Y-125664975D01*
X100524668Y-125763232D01*
X100530256Y-125803621D01*
X100596549Y-126131474D01*
X100688521Y-126447512D01*
X100805945Y-126751140D01*
X100948595Y-127041766D01*
X101102277Y-127297697D01*
X101294086Y-127564170D01*
X101505725Y-127810558D01*
X101736039Y-128036115D01*
X101983873Y-128240096D01*
X102248071Y-128421757D01*
X102527479Y-128580354D01*
X102820940Y-128715142D01*
X103127300Y-128825376D01*
X103445403Y-128910312D01*
X103672078Y-128953931D01*
X103720635Y-128959741D01*
X103790756Y-128965309D01*
X103877552Y-128970497D01*
X103976137Y-128975161D01*
X104081622Y-128979164D01*
X104189119Y-128982362D01*
X104293742Y-128984616D01*
X104390601Y-128985785D01*
X104474809Y-128985728D01*
X104541479Y-128984304D01*
X104585722Y-128981374D01*
X104592472Y-128980429D01*
X104622540Y-128976043D01*
X104672090Y-128969474D01*
X104732261Y-128961885D01*
X104756573Y-128958914D01*
X105030154Y-128913002D01*
X105307773Y-128841841D01*
X105584498Y-128747271D01*
X105855394Y-128631135D01*
X106115529Y-128495275D01*
X106297696Y-128383454D01*
X106564449Y-128191477D01*
X106811002Y-127979767D01*
X107036629Y-127749452D01*
X107240607Y-127501662D01*
X107422208Y-127237524D01*
X107580707Y-126958169D01*
X107715380Y-126664725D01*
X107825501Y-126358321D01*
X107910343Y-126040086D01*
X107955474Y-125803621D01*
X107965917Y-125717465D01*
X107973905Y-125608857D01*
X107979437Y-125483781D01*
X107982514Y-125348219D01*
X107983135Y-125208153D01*
X107981300Y-125069565D01*
X107977009Y-124938438D01*
X107970263Y-124820755D01*
X107961062Y-124722498D01*
X107955474Y-124682109D01*
X107889181Y-124354256D01*
X107879932Y-124322472D01*
X106062106Y-124322472D01*
X106053788Y-124524341D01*
X106028593Y-124703875D01*
X105986255Y-124861946D01*
X105926508Y-124999427D01*
X105849085Y-125117188D01*
X105803788Y-125168817D01*
X105769401Y-125205032D01*
X105744489Y-125232296D01*
X105734098Y-125245076D01*
X105734045Y-125245293D01*
X105743617Y-125256361D01*
X105768405Y-125280780D01*
X105794691Y-125305500D01*
X105875577Y-125398871D01*
X105942649Y-125515775D01*
X105995369Y-125654483D01*
X106033196Y-125813262D01*
X106055591Y-125990383D01*
X106062106Y-126163259D01*
X106053505Y-126370413D01*
X106027730Y-126554831D01*
X105984726Y-126716612D01*
X105924436Y-126855857D01*
X105846803Y-126972665D01*
X105751772Y-127067137D01*
X105639287Y-127139371D01*
X105509290Y-127189469D01*
X105480307Y-127197054D01*
X105414084Y-127208069D01*
X105329652Y-127214947D01*
X105237060Y-127217542D01*
X105146356Y-127215708D01*
X105067590Y-127209300D01*
X105031966Y-127203560D01*
X104904220Y-127163156D01*
X104785647Y-127098463D01*
X104680922Y-127013043D01*
X104594723Y-126910463D01*
X104551384Y-126837342D01*
X104498367Y-126707437D01*
X104458811Y-126556823D01*
X104433323Y-126390268D01*
X104422507Y-126212544D01*
X104426968Y-126028419D01*
X104435965Y-125927809D01*
X104466277Y-125748764D01*
X104514304Y-125590789D01*
X104571917Y-125470886D01*
X104143010Y-125470886D01*
X104143009Y-125665248D01*
X104142823Y-125835102D01*
X104142301Y-125982465D01*
X104141292Y-126109351D01*
X104139646Y-126217777D01*
X104137213Y-126309759D01*
X104133840Y-126387311D01*
X104129379Y-126452450D01*
X104123677Y-126507191D01*
X104116585Y-126553551D01*
X104107951Y-126593544D01*
X104097625Y-126629187D01*
X104085456Y-126662496D01*
X104071294Y-126695485D01*
X104054988Y-126730172D01*
X104036386Y-126768571D01*
X104028164Y-126785640D01*
X103952160Y-126914357D01*
X103858304Y-127021696D01*
X103747971Y-127106540D01*
X103622538Y-127167772D01*
X103522247Y-127196914D01*
X103423160Y-127211436D01*
X103309405Y-127217160D01*
X103193467Y-127214069D01*
X103087833Y-127202150D01*
X103062983Y-127197476D01*
X102952038Y-127167193D01*
X102857287Y-127123849D01*
X102769557Y-127062426D01*
X102700492Y-126999127D01*
X102614494Y-126899578D01*
X102545666Y-126788061D01*
X102490779Y-126658736D01*
X102463133Y-126569944D01*
X102457346Y-126548600D01*
X102452300Y-126527729D01*
X102447934Y-126505286D01*
X102444188Y-126479227D01*
X102441000Y-126447505D01*
X102438312Y-126408076D01*
X102436061Y-126358896D01*
X102434188Y-126297918D01*
X102432632Y-126223097D01*
X102431333Y-126132389D01*
X102430229Y-126023749D01*
X102429260Y-125895131D01*
X102428367Y-125744491D01*
X102427487Y-125569782D01*
X102426561Y-125368961D01*
X102426379Y-125328483D01*
X102425483Y-125096500D01*
X102425020Y-124891714D01*
X102425003Y-124712788D01*
X102425444Y-124558383D01*
X102426356Y-124427160D01*
X102427752Y-124317782D01*
X102429644Y-124228909D01*
X102432046Y-124159204D01*
X102434969Y-124107328D01*
X102438319Y-124072753D01*
X102470917Y-123900555D01*
X102520428Y-123750433D01*
X102587445Y-123621053D01*
X102672560Y-123511079D01*
X102699855Y-123483449D01*
X102803954Y-123398189D01*
X102916903Y-123335317D01*
X103042431Y-123293474D01*
X103184266Y-123271305D01*
X103295217Y-123266765D01*
X103458737Y-123278033D01*
X103605515Y-123312407D01*
X103735451Y-123369807D01*
X103848446Y-123450153D01*
X103944399Y-123553365D01*
X104023210Y-123679364D01*
X104084779Y-123828071D01*
X104110316Y-123915787D01*
X104142977Y-124044214D01*
X104142977Y-125250000D01*
X104143010Y-125470886D01*
X104571917Y-125470886D01*
X104579807Y-125454467D01*
X104662547Y-125340384D01*
X104685862Y-125315442D01*
X104760939Y-125239156D01*
X104684150Y-125163321D01*
X104600620Y-125061456D01*
X104532482Y-124936710D01*
X104480179Y-124790511D01*
X104444153Y-124624288D01*
X104424848Y-124439471D01*
X104421470Y-124315337D01*
X104430144Y-124118250D01*
X104455913Y-123939527D01*
X104498398Y-123780446D01*
X104557218Y-123642285D01*
X104631994Y-123526320D01*
X104668553Y-123484027D01*
X104757713Y-123403180D01*
X104854446Y-123343243D01*
X104963613Y-123302181D01*
X105090071Y-123277957D01*
X105177710Y-123270581D01*
X105344828Y-123272355D01*
X105494171Y-123296035D01*
X105625845Y-123341748D01*
X105739959Y-123409622D01*
X105836620Y-123499785D01*
X105915936Y-123612366D01*
X105978015Y-123747493D01*
X106022964Y-123905294D01*
X106050892Y-124085897D01*
X106061905Y-124289431D01*
X106062106Y-124322472D01*
X107879932Y-124322472D01*
X107797209Y-124038219D01*
X107679785Y-123734591D01*
X107537135Y-123443964D01*
X107383453Y-123188034D01*
X107193903Y-122924903D01*
X106983989Y-122680611D01*
X106755290Y-122456171D01*
X106509383Y-122252598D01*
X106247844Y-122070907D01*
X105972250Y-121912111D01*
X105684179Y-121777225D01*
X105385207Y-121667262D01*
X105076912Y-121583237D01*
X104810178Y-121533186D01*
X104738237Y-121525267D01*
X104643247Y-121519020D01*
X104530647Y-121514444D01*
X104405878Y-121511541D01*
X104274382Y-121510310D01*
X104141597Y-121510750D01*
X104141597Y-121510750D01*
G37*
X104141597Y-121510750D02*
X104012965Y-121512861D01*
X103893926Y-121516645D01*
X103789921Y-121522101D01*
X103706391Y-121529229D01*
X103675552Y-121533186D01*
X103361624Y-121594396D01*
X103054236Y-121682781D01*
X102755357Y-121797345D01*
X102466951Y-121937093D01*
X102190988Y-122101030D01*
X101929432Y-122288159D01*
X101684252Y-122497485D01*
X101589205Y-122589206D01*
X101368043Y-122830270D01*
X101170180Y-123087520D01*
X100996105Y-123359995D01*
X100846301Y-123646736D01*
X100721255Y-123946782D01*
X100621453Y-124259175D01*
X100547380Y-124582952D01*
X100530256Y-124682109D01*
X100519813Y-124768266D01*
X100511825Y-124876873D01*
X100506293Y-125001950D01*
X100503216Y-125137512D01*
X100502595Y-125277578D01*
X100504430Y-125416166D01*
X100508721Y-125547292D01*
X100515467Y-125664975D01*
X100524668Y-125763232D01*
X100530256Y-125803621D01*
X100596549Y-126131474D01*
X100688521Y-126447512D01*
X100805945Y-126751140D01*
X100948595Y-127041766D01*
X101102277Y-127297697D01*
X101294086Y-127564170D01*
X101505725Y-127810558D01*
X101736039Y-128036115D01*
X101983873Y-128240096D01*
X102248071Y-128421757D01*
X102527479Y-128580354D01*
X102820940Y-128715142D01*
X103127300Y-128825376D01*
X103445403Y-128910312D01*
X103672078Y-128953931D01*
X103720635Y-128959741D01*
X103790756Y-128965309D01*
X103877552Y-128970497D01*
X103976137Y-128975161D01*
X104081622Y-128979164D01*
X104189119Y-128982362D01*
X104293742Y-128984616D01*
X104390601Y-128985785D01*
X104474809Y-128985728D01*
X104541479Y-128984304D01*
X104585722Y-128981374D01*
X104592472Y-128980429D01*
X104622540Y-128976043D01*
X104672090Y-128969474D01*
X104732261Y-128961885D01*
X104756573Y-128958914D01*
X105030154Y-128913002D01*
X105307773Y-128841841D01*
X105584498Y-128747271D01*
X105855394Y-128631135D01*
X106115529Y-128495275D01*
X106297696Y-128383454D01*
X106564449Y-128191477D01*
X106811002Y-127979767D01*
X107036629Y-127749452D01*
X107240607Y-127501662D01*
X107422208Y-127237524D01*
X107580707Y-126958169D01*
X107715380Y-126664725D01*
X107825501Y-126358321D01*
X107910343Y-126040086D01*
X107955474Y-125803621D01*
X107965917Y-125717465D01*
X107973905Y-125608857D01*
X107979437Y-125483781D01*
X107982514Y-125348219D01*
X107983135Y-125208153D01*
X107981300Y-125069565D01*
X107977009Y-124938438D01*
X107970263Y-124820755D01*
X107961062Y-124722498D01*
X107955474Y-124682109D01*
X107889181Y-124354256D01*
X107879932Y-124322472D01*
X106062106Y-124322472D01*
X106053788Y-124524341D01*
X106028593Y-124703875D01*
X105986255Y-124861946D01*
X105926508Y-124999427D01*
X105849085Y-125117188D01*
X105803788Y-125168817D01*
X105769401Y-125205032D01*
X105744489Y-125232296D01*
X105734098Y-125245076D01*
X105734045Y-125245293D01*
X105743617Y-125256361D01*
X105768405Y-125280780D01*
X105794691Y-125305500D01*
X105875577Y-125398871D01*
X105942649Y-125515775D01*
X105995369Y-125654483D01*
X106033196Y-125813262D01*
X106055591Y-125990383D01*
X106062106Y-126163259D01*
X106053505Y-126370413D01*
X106027730Y-126554831D01*
X105984726Y-126716612D01*
X105924436Y-126855857D01*
X105846803Y-126972665D01*
X105751772Y-127067137D01*
X105639287Y-127139371D01*
X105509290Y-127189469D01*
X105480307Y-127197054D01*
X105414084Y-127208069D01*
X105329652Y-127214947D01*
X105237060Y-127217542D01*
X105146356Y-127215708D01*
X105067590Y-127209300D01*
X105031966Y-127203560D01*
X104904220Y-127163156D01*
X104785647Y-127098463D01*
X104680922Y-127013043D01*
X104594723Y-126910463D01*
X104551384Y-126837342D01*
X104498367Y-126707437D01*
X104458811Y-126556823D01*
X104433323Y-126390268D01*
X104422507Y-126212544D01*
X104426968Y-126028419D01*
X104435965Y-125927809D01*
X104466277Y-125748764D01*
X104514304Y-125590789D01*
X104571917Y-125470886D01*
X104143010Y-125470886D01*
X104143009Y-125665248D01*
X104142823Y-125835102D01*
X104142301Y-125982465D01*
X104141292Y-126109351D01*
X104139646Y-126217777D01*
X104137213Y-126309759D01*
X104133840Y-126387311D01*
X104129379Y-126452450D01*
X104123677Y-126507191D01*
X104116585Y-126553551D01*
X104107951Y-126593544D01*
X104097625Y-126629187D01*
X104085456Y-126662496D01*
X104071294Y-126695485D01*
X104054988Y-126730172D01*
X104036386Y-126768571D01*
X104028164Y-126785640D01*
X103952160Y-126914357D01*
X103858304Y-127021696D01*
X103747971Y-127106540D01*
X103622538Y-127167772D01*
X103522247Y-127196914D01*
X103423160Y-127211436D01*
X103309405Y-127217160D01*
X103193467Y-127214069D01*
X103087833Y-127202150D01*
X103062983Y-127197476D01*
X102952038Y-127167193D01*
X102857287Y-127123849D01*
X102769557Y-127062426D01*
X102700492Y-126999127D01*
X102614494Y-126899578D01*
X102545666Y-126788061D01*
X102490779Y-126658736D01*
X102463133Y-126569944D01*
X102457346Y-126548600D01*
X102452300Y-126527729D01*
X102447934Y-126505286D01*
X102444188Y-126479227D01*
X102441000Y-126447505D01*
X102438312Y-126408076D01*
X102436061Y-126358896D01*
X102434188Y-126297918D01*
X102432632Y-126223097D01*
X102431333Y-126132389D01*
X102430229Y-126023749D01*
X102429260Y-125895131D01*
X102428367Y-125744491D01*
X102427487Y-125569782D01*
X102426561Y-125368961D01*
X102426379Y-125328483D01*
X102425483Y-125096500D01*
X102425020Y-124891714D01*
X102425003Y-124712788D01*
X102425444Y-124558383D01*
X102426356Y-124427160D01*
X102427752Y-124317782D01*
X102429644Y-124228909D01*
X102432046Y-124159204D01*
X102434969Y-124107328D01*
X102438319Y-124072753D01*
X102470917Y-123900555D01*
X102520428Y-123750433D01*
X102587445Y-123621053D01*
X102672560Y-123511079D01*
X102699855Y-123483449D01*
X102803954Y-123398189D01*
X102916903Y-123335317D01*
X103042431Y-123293474D01*
X103184266Y-123271305D01*
X103295217Y-123266765D01*
X103458737Y-123278033D01*
X103605515Y-123312407D01*
X103735451Y-123369807D01*
X103848446Y-123450153D01*
X103944399Y-123553365D01*
X104023210Y-123679364D01*
X104084779Y-123828071D01*
X104110316Y-123915787D01*
X104142977Y-124044214D01*
X104142977Y-125250000D01*
X104143010Y-125470886D01*
X104571917Y-125470886D01*
X104579807Y-125454467D01*
X104662547Y-125340384D01*
X104685862Y-125315442D01*
X104760939Y-125239156D01*
X104684150Y-125163321D01*
X104600620Y-125061456D01*
X104532482Y-124936710D01*
X104480179Y-124790511D01*
X104444153Y-124624288D01*
X104424848Y-124439471D01*
X104421470Y-124315337D01*
X104430144Y-124118250D01*
X104455913Y-123939527D01*
X104498398Y-123780446D01*
X104557218Y-123642285D01*
X104631994Y-123526320D01*
X104668553Y-123484027D01*
X104757713Y-123403180D01*
X104854446Y-123343243D01*
X104963613Y-123302181D01*
X105090071Y-123277957D01*
X105177710Y-123270581D01*
X105344828Y-123272355D01*
X105494171Y-123296035D01*
X105625845Y-123341748D01*
X105739959Y-123409622D01*
X105836620Y-123499785D01*
X105915936Y-123612366D01*
X105978015Y-123747493D01*
X106022964Y-123905294D01*
X106050892Y-124085897D01*
X106061905Y-124289431D01*
X106062106Y-124322472D01*
X107879932Y-124322472D01*
X107797209Y-124038219D01*
X107679785Y-123734591D01*
X107537135Y-123443964D01*
X107383453Y-123188034D01*
X107193903Y-122924903D01*
X106983989Y-122680611D01*
X106755290Y-122456171D01*
X106509383Y-122252598D01*
X106247844Y-122070907D01*
X105972250Y-121912111D01*
X105684179Y-121777225D01*
X105385207Y-121667262D01*
X105076912Y-121583237D01*
X104810178Y-121533186D01*
X104738237Y-121525267D01*
X104643247Y-121519020D01*
X104530647Y-121514444D01*
X104405878Y-121511541D01*
X104274382Y-121510310D01*
X104141597Y-121510750D01*
G36*
X105135233Y-125332192D02*
X105047929Y-125345058D01*
X104990890Y-125361570D01*
X104900527Y-125407807D01*
X104825475Y-125470327D01*
X104764708Y-125551058D01*
X104717199Y-125651928D01*
X104681918Y-125774865D01*
X104657840Y-125921796D01*
X104649968Y-126001310D01*
X104643093Y-126161497D01*
X104648120Y-126318544D01*
X104664380Y-126466697D01*
X104691205Y-126600201D01*
X104727928Y-126713304D01*
X104734412Y-126728524D01*
X104780703Y-126805206D01*
X104846577Y-126877435D01*
X104923396Y-126936499D01*
X104961444Y-126957530D01*
X104999705Y-126974486D01*
X105035490Y-126985916D01*
X105076344Y-126993094D01*
X105129809Y-126997291D01*
X105203430Y-126999782D01*
X105213202Y-127000009D01*
X105284576Y-127000619D01*
X105349286Y-126999355D01*
X105399831Y-126996476D01*
X105427247Y-126992654D01*
X105536379Y-126951468D01*
X105630352Y-126890506D01*
X105705118Y-126812894D01*
X105745659Y-126746666D01*
X105777212Y-126674367D01*
X105801178Y-126601129D01*
X105818439Y-126521565D01*
X105829877Y-126430290D01*
X105836373Y-126321917D01*
X105838811Y-126191062D01*
X105838863Y-126177528D01*
X105838747Y-126075512D01*
X105837454Y-125996119D01*
X105834536Y-125933443D01*
X105829542Y-125881578D01*
X105822023Y-125834616D01*
X105811530Y-125786652D01*
X105808033Y-125772379D01*
X105767646Y-125644704D01*
X105715307Y-125541301D01*
X105649161Y-125459752D01*
X105567354Y-125397635D01*
X105493559Y-125361931D01*
X105421396Y-125342329D01*
X105331359Y-125330834D01*
X105232841Y-125327452D01*
X105135233Y-125332192D01*
X105135233Y-125332192D01*
G37*
X105135233Y-125332192D02*
X105047929Y-125345058D01*
X104990890Y-125361570D01*
X104900527Y-125407807D01*
X104825475Y-125470327D01*
X104764708Y-125551058D01*
X104717199Y-125651928D01*
X104681918Y-125774865D01*
X104657840Y-125921796D01*
X104649968Y-126001310D01*
X104643093Y-126161497D01*
X104648120Y-126318544D01*
X104664380Y-126466697D01*
X104691205Y-126600201D01*
X104727928Y-126713304D01*
X104734412Y-126728524D01*
X104780703Y-126805206D01*
X104846577Y-126877435D01*
X104923396Y-126936499D01*
X104961444Y-126957530D01*
X104999705Y-126974486D01*
X105035490Y-126985916D01*
X105076344Y-126993094D01*
X105129809Y-126997291D01*
X105203430Y-126999782D01*
X105213202Y-127000009D01*
X105284576Y-127000619D01*
X105349286Y-126999355D01*
X105399831Y-126996476D01*
X105427247Y-126992654D01*
X105536379Y-126951468D01*
X105630352Y-126890506D01*
X105705118Y-126812894D01*
X105745659Y-126746666D01*
X105777212Y-126674367D01*
X105801178Y-126601129D01*
X105818439Y-126521565D01*
X105829877Y-126430290D01*
X105836373Y-126321917D01*
X105838811Y-126191062D01*
X105838863Y-126177528D01*
X105838747Y-126075512D01*
X105837454Y-125996119D01*
X105834536Y-125933443D01*
X105829542Y-125881578D01*
X105822023Y-125834616D01*
X105811530Y-125786652D01*
X105808033Y-125772379D01*
X105767646Y-125644704D01*
X105715307Y-125541301D01*
X105649161Y-125459752D01*
X105567354Y-125397635D01*
X105493559Y-125361931D01*
X105421396Y-125342329D01*
X105331359Y-125330834D01*
X105232841Y-125327452D01*
X105135233Y-125332192D01*
G36*
X105155536Y-123488223D02*
X105098416Y-123489913D01*
X105056659Y-123493900D01*
X105023681Y-123501137D01*
X104992893Y-123512575D01*
X104961444Y-123527329D01*
X104875871Y-123579888D01*
X104805518Y-123647359D01*
X104749231Y-123732059D01*
X104705851Y-123836302D01*
X104674222Y-123962403D01*
X104653187Y-124112679D01*
X104649699Y-124151236D01*
X104642871Y-124303524D01*
X104646939Y-124453553D01*
X104661221Y-124595901D01*
X104685034Y-124725143D01*
X104717696Y-124835859D01*
X104743353Y-124895330D01*
X104805538Y-124987837D01*
X104887634Y-125061051D01*
X104987877Y-125114245D01*
X105104503Y-125146694D01*
X105235749Y-125157671D01*
X105359986Y-125149252D01*
X105480319Y-125121308D01*
X105583916Y-125071965D01*
X105668984Y-125002434D01*
X105733729Y-124913923D01*
X105746873Y-124888248D01*
X105778984Y-124813003D01*
X105803282Y-124737347D01*
X105820622Y-124655853D01*
X105831859Y-124563090D01*
X105837848Y-124453629D01*
X105839446Y-124322041D01*
X105839365Y-124301068D01*
X105836756Y-124167227D01*
X105829928Y-124056264D01*
X105817966Y-123962712D01*
X105799955Y-123881101D01*
X105774982Y-123805962D01*
X105745236Y-123738191D01*
X105693203Y-123658894D01*
X105621183Y-123588162D01*
X105537719Y-123533853D01*
X105508883Y-123520779D01*
X105471202Y-123506999D01*
X105434390Y-123497646D01*
X105391585Y-123491898D01*
X105335926Y-123488931D01*
X105260553Y-123487923D01*
X105234607Y-123487880D01*
X105155536Y-123488223D01*
X105155536Y-123488223D01*
G37*
X105155536Y-123488223D02*
X105098416Y-123489913D01*
X105056659Y-123493900D01*
X105023681Y-123501137D01*
X104992893Y-123512575D01*
X104961444Y-123527329D01*
X104875871Y-123579888D01*
X104805518Y-123647359D01*
X104749231Y-123732059D01*
X104705851Y-123836302D01*
X104674222Y-123962403D01*
X104653187Y-124112679D01*
X104649699Y-124151236D01*
X104642871Y-124303524D01*
X104646939Y-124453553D01*
X104661221Y-124595901D01*
X104685034Y-124725143D01*
X104717696Y-124835859D01*
X104743353Y-124895330D01*
X104805538Y-124987837D01*
X104887634Y-125061051D01*
X104987877Y-125114245D01*
X105104503Y-125146694D01*
X105235749Y-125157671D01*
X105359986Y-125149252D01*
X105480319Y-125121308D01*
X105583916Y-125071965D01*
X105668984Y-125002434D01*
X105733729Y-124913923D01*
X105746873Y-124888248D01*
X105778984Y-124813003D01*
X105803282Y-124737347D01*
X105820622Y-124655853D01*
X105831859Y-124563090D01*
X105837848Y-124453629D01*
X105839446Y-124322041D01*
X105839365Y-124301068D01*
X105836756Y-124167227D01*
X105829928Y-124056264D01*
X105817966Y-123962712D01*
X105799955Y-123881101D01*
X105774982Y-123805962D01*
X105745236Y-123738191D01*
X105693203Y-123658894D01*
X105621183Y-123588162D01*
X105537719Y-123533853D01*
X105508883Y-123520779D01*
X105471202Y-123506999D01*
X105434390Y-123497646D01*
X105391585Y-123491898D01*
X105335926Y-123488931D01*
X105260553Y-123487923D01*
X105234607Y-123487880D01*
X105155536Y-123488223D01*
G36*
X103190491Y-123486300D02*
X103063217Y-123508488D01*
X102954630Y-123550923D01*
X102863375Y-123614287D01*
X102788099Y-123699258D01*
X102737443Y-123785338D01*
X102721431Y-123818116D01*
X102707375Y-123848429D01*
X102695149Y-123878280D01*
X102684625Y-123909673D01*
X102675676Y-123944613D01*
X102668173Y-123985103D01*
X102661990Y-124033148D01*
X102656998Y-124090751D01*
X102653071Y-124159917D01*
X102650080Y-124242648D01*
X102647899Y-124340950D01*
X102646399Y-124456827D01*
X102645453Y-124592281D01*
X102644933Y-124749318D01*
X102644713Y-124929941D01*
X102644663Y-125136154D01*
X102644663Y-125242865D01*
X102644675Y-125461839D01*
X102644799Y-125654277D01*
X102645161Y-125822185D01*
X102645890Y-125967567D01*
X102647113Y-126092428D01*
X102648958Y-126198771D01*
X102651552Y-126288601D01*
X102655025Y-126363923D01*
X102659504Y-126426741D01*
X102665116Y-126479059D01*
X102671989Y-126522883D01*
X102680252Y-126560215D01*
X102690031Y-126593061D01*
X102701456Y-126623426D01*
X102714653Y-126653313D01*
X102729751Y-126684726D01*
X102737654Y-126700821D01*
X102794412Y-126789661D01*
X102870223Y-126869608D01*
X102957277Y-126933367D01*
X103019289Y-126963901D01*
X103090542Y-126983723D01*
X103179967Y-126996787D01*
X103278187Y-127002816D01*
X103375824Y-127001532D01*
X103463502Y-126992658D01*
X103523546Y-126978823D01*
X103631695Y-126930596D01*
X103722915Y-126861973D01*
X103798360Y-126771600D01*
X103859185Y-126658120D01*
X103902909Y-126533251D01*
X103907550Y-126515459D01*
X103911607Y-126495663D01*
X103915118Y-126471928D01*
X103918123Y-126442318D01*
X103920661Y-126404897D01*
X103922771Y-126357730D01*
X103924491Y-126298880D01*
X103925861Y-126226413D01*
X103926921Y-126138392D01*
X103927708Y-126032881D01*
X103928262Y-125907946D01*
X103928623Y-125761650D01*
X103928828Y-125592057D01*
X103928918Y-125397232D01*
X103928932Y-125242865D01*
X103928949Y-125023277D01*
X103928914Y-124830251D01*
X103928699Y-124661812D01*
X103928177Y-124515982D01*
X103927220Y-124390785D01*
X103925700Y-124284245D01*
X103923488Y-124194386D01*
X103920458Y-124119230D01*
X103916481Y-124056801D01*
X103911429Y-124005123D01*
X103905175Y-123962218D01*
X103897591Y-123926112D01*
X103888549Y-123894827D01*
X103877921Y-123866386D01*
X103865579Y-123838813D01*
X103851396Y-123810133D01*
X103835243Y-123778367D01*
X103834053Y-123776012D01*
X103772655Y-123676157D01*
X103699371Y-123598913D01*
X103611392Y-123542625D01*
X103505910Y-123505637D01*
X103380115Y-123486295D01*
X103337808Y-123483678D01*
X103190491Y-123486300D01*
X103190491Y-123486300D01*
G37*
X103190491Y-123486300D02*
X103063217Y-123508488D01*
X102954630Y-123550923D01*
X102863375Y-123614287D01*
X102788099Y-123699258D01*
X102737443Y-123785338D01*
X102721431Y-123818116D01*
X102707375Y-123848429D01*
X102695149Y-123878280D01*
X102684625Y-123909673D01*
X102675676Y-123944613D01*
X102668173Y-123985103D01*
X102661990Y-124033148D01*
X102656998Y-124090751D01*
X102653071Y-124159917D01*
X102650080Y-124242648D01*
X102647899Y-124340950D01*
X102646399Y-124456827D01*
X102645453Y-124592281D01*
X102644933Y-124749318D01*
X102644713Y-124929941D01*
X102644663Y-125136154D01*
X102644663Y-125242865D01*
X102644675Y-125461839D01*
X102644799Y-125654277D01*
X102645161Y-125822185D01*
X102645890Y-125967567D01*
X102647113Y-126092428D01*
X102648958Y-126198771D01*
X102651552Y-126288601D01*
X102655025Y-126363923D01*
X102659504Y-126426741D01*
X102665116Y-126479059D01*
X102671989Y-126522883D01*
X102680252Y-126560215D01*
X102690031Y-126593061D01*
X102701456Y-126623426D01*
X102714653Y-126653313D01*
X102729751Y-126684726D01*
X102737654Y-126700821D01*
X102794412Y-126789661D01*
X102870223Y-126869608D01*
X102957277Y-126933367D01*
X103019289Y-126963901D01*
X103090542Y-126983723D01*
X103179967Y-126996787D01*
X103278187Y-127002816D01*
X103375824Y-127001532D01*
X103463502Y-126992658D01*
X103523546Y-126978823D01*
X103631695Y-126930596D01*
X103722915Y-126861973D01*
X103798360Y-126771600D01*
X103859185Y-126658120D01*
X103902909Y-126533251D01*
X103907550Y-126515459D01*
X103911607Y-126495663D01*
X103915118Y-126471928D01*
X103918123Y-126442318D01*
X103920661Y-126404897D01*
X103922771Y-126357730D01*
X103924491Y-126298880D01*
X103925861Y-126226413D01*
X103926921Y-126138392D01*
X103927708Y-126032881D01*
X103928262Y-125907946D01*
X103928623Y-125761650D01*
X103928828Y-125592057D01*
X103928918Y-125397232D01*
X103928932Y-125242865D01*
X103928949Y-125023277D01*
X103928914Y-124830251D01*
X103928699Y-124661812D01*
X103928177Y-124515982D01*
X103927220Y-124390785D01*
X103925700Y-124284245D01*
X103923488Y-124194386D01*
X103920458Y-124119230D01*
X103916481Y-124056801D01*
X103911429Y-124005123D01*
X103905175Y-123962218D01*
X103897591Y-123926112D01*
X103888549Y-123894827D01*
X103877921Y-123866386D01*
X103865579Y-123838813D01*
X103851396Y-123810133D01*
X103835243Y-123778367D01*
X103834053Y-123776012D01*
X103772655Y-123676157D01*
X103699371Y-123598913D01*
X103611392Y-123542625D01*
X103505910Y-123505637D01*
X103380115Y-123486295D01*
X103337808Y-123483678D01*
X103190491Y-123486300D01*
D11*
X94938095Y-72652381D02*
X94938095Y-71652381D01*
X94557142Y-71652381D01*
X94461904Y-71700000D01*
X94414285Y-71747619D01*
X94366666Y-71842857D01*
X94366666Y-71985714D01*
X94414285Y-72080952D01*
X94461904Y-72128571D01*
X94557142Y-72176190D01*
X94938095Y-72176190D01*
X94033333Y-71652381D02*
X93414285Y-71652381D01*
X93747619Y-72033333D01*
X93604761Y-72033333D01*
X93509523Y-72080952D01*
X93461904Y-72128571D01*
X93414285Y-72223810D01*
X93414285Y-72461905D01*
X93461904Y-72557143D01*
X93509523Y-72604762D01*
X93604761Y-72652381D01*
X93890476Y-72652381D01*
X93985714Y-72604762D01*
X94033333Y-72557143D01*
X136514286Y-52975714D02*
X136552381Y-53013810D01*
X136666667Y-53051905D01*
X136742857Y-53051905D01*
X136857143Y-53013810D01*
X136933334Y-52937619D01*
X136971429Y-52861429D01*
X137009524Y-52709048D01*
X137009524Y-52594762D01*
X136971429Y-52442381D01*
X136933334Y-52366190D01*
X136857143Y-52290000D01*
X136742857Y-52251905D01*
X136666667Y-52251905D01*
X136552381Y-52290000D01*
X136514286Y-52328095D01*
X135752381Y-53051905D02*
X136209524Y-53051905D01*
X135980953Y-53051905D02*
X135980953Y-52251905D01*
X136057143Y-52366190D01*
X136133334Y-52442381D01*
X136209524Y-52480476D01*
X134990476Y-53051905D02*
X135447619Y-53051905D01*
X135219048Y-53051905D02*
X135219048Y-52251905D01*
X135295238Y-52366190D01*
X135371429Y-52442381D01*
X135447619Y-52480476D01*
X132975714Y-86235714D02*
X133013810Y-86197619D01*
X133051905Y-86083333D01*
X133051905Y-86007143D01*
X133013810Y-85892857D01*
X132937619Y-85816666D01*
X132861429Y-85778571D01*
X132709048Y-85740476D01*
X132594762Y-85740476D01*
X132442381Y-85778571D01*
X132366190Y-85816666D01*
X132290000Y-85892857D01*
X132251905Y-86007143D01*
X132251905Y-86083333D01*
X132290000Y-86197619D01*
X132328095Y-86235714D01*
X133051905Y-86997619D02*
X133051905Y-86540476D01*
X133051905Y-86769047D02*
X132251905Y-86769047D01*
X132366190Y-86692857D01*
X132442381Y-86616666D01*
X132480476Y-86540476D01*
X132328095Y-87302381D02*
X132290000Y-87340476D01*
X132251905Y-87416667D01*
X132251905Y-87607143D01*
X132290000Y-87683333D01*
X132328095Y-87721429D01*
X132404286Y-87759524D01*
X132480476Y-87759524D01*
X132594762Y-87721429D01*
X133051905Y-87264286D01*
X133051905Y-87759524D01*
X135590476Y-49111905D02*
X135590476Y-48311905D01*
X135400000Y-48311905D01*
X135285714Y-48350000D01*
X135209523Y-48426190D01*
X135171428Y-48502381D01*
X135133333Y-48654762D01*
X135133333Y-48769048D01*
X135171428Y-48921429D01*
X135209523Y-48997619D01*
X135285714Y-49073810D01*
X135400000Y-49111905D01*
X135590476Y-49111905D01*
X134371428Y-49111905D02*
X134828571Y-49111905D01*
X134600000Y-49111905D02*
X134600000Y-48311905D01*
X134676190Y-48426190D01*
X134752381Y-48502381D01*
X134828571Y-48540476D01*
X128190476Y-81761905D02*
X128190476Y-80961905D01*
X128000000Y-80961905D01*
X127885714Y-81000000D01*
X127809523Y-81076190D01*
X127771428Y-81152381D01*
X127733333Y-81304762D01*
X127733333Y-81419048D01*
X127771428Y-81571429D01*
X127809523Y-81647619D01*
X127885714Y-81723810D01*
X128000000Y-81761905D01*
X128190476Y-81761905D01*
X127428571Y-81038095D02*
X127390476Y-81000000D01*
X127314285Y-80961905D01*
X127123809Y-80961905D01*
X127047619Y-81000000D01*
X127009523Y-81038095D01*
X126971428Y-81114286D01*
X126971428Y-81190476D01*
X127009523Y-81304762D01*
X127466666Y-81761905D01*
X126971428Y-81761905D01*
D21*
X98274751Y-86399118D02*
X97665151Y-86399118D01*
X97665151Y-86544261D01*
X97694180Y-86631346D01*
X97752237Y-86689404D01*
X97810294Y-86718432D01*
X97926409Y-86747461D01*
X98013494Y-86747461D01*
X98129609Y-86718432D01*
X98187666Y-86689404D01*
X98245723Y-86631346D01*
X98274751Y-86544261D01*
X98274751Y-86399118D01*
X97665151Y-86950661D02*
X97665151Y-87328032D01*
X97897380Y-87124832D01*
X97897380Y-87211918D01*
X97926409Y-87269975D01*
X97955437Y-87299004D01*
X98013494Y-87328032D01*
X98158637Y-87328032D01*
X98216694Y-87299004D01*
X98245723Y-87269975D01*
X98274751Y-87211918D01*
X98274751Y-87037746D01*
X98245723Y-86979689D01*
X98216694Y-86950661D01*
X100875771Y-95450058D02*
X100266171Y-95450058D01*
X100266171Y-95595201D01*
X100295200Y-95682286D01*
X100353257Y-95740344D01*
X100411314Y-95769372D01*
X100527429Y-95798401D01*
X100614514Y-95798401D01*
X100730629Y-95769372D01*
X100788686Y-95740344D01*
X100846743Y-95682286D01*
X100875771Y-95595201D01*
X100875771Y-95450058D01*
X100469371Y-96320915D02*
X100875771Y-96320915D01*
X100237143Y-96175772D02*
X100672571Y-96030629D01*
X100672571Y-96408001D01*
X120949942Y-122175771D02*
X120949942Y-121566171D01*
X120804799Y-121566171D01*
X120717714Y-121595200D01*
X120659656Y-121653257D01*
X120630628Y-121711314D01*
X120601599Y-121827429D01*
X120601599Y-121914514D01*
X120630628Y-122030629D01*
X120659656Y-122088686D01*
X120717714Y-122146743D01*
X120804799Y-122175771D01*
X120949942Y-122175771D01*
X120050056Y-121566171D02*
X120340342Y-121566171D01*
X120369371Y-121856457D01*
X120340342Y-121827429D01*
X120282285Y-121798400D01*
X120137142Y-121798400D01*
X120079085Y-121827429D01*
X120050056Y-121856457D01*
X120021028Y-121914514D01*
X120021028Y-122059657D01*
X120050056Y-122117714D01*
X120079085Y-122146743D01*
X120137142Y-122175771D01*
X120282285Y-122175771D01*
X120340342Y-122146743D01*
X120369371Y-122117714D01*
X119475771Y-94150058D02*
X118866171Y-94150058D01*
X118866171Y-94295201D01*
X118895200Y-94382286D01*
X118953257Y-94440344D01*
X119011314Y-94469372D01*
X119127429Y-94498401D01*
X119214514Y-94498401D01*
X119330629Y-94469372D01*
X119388686Y-94440344D01*
X119446743Y-94382286D01*
X119475771Y-94295201D01*
X119475771Y-94150058D01*
X118866171Y-95020915D02*
X118866171Y-94904801D01*
X118895200Y-94846744D01*
X118924229Y-94817715D01*
X119011314Y-94759658D01*
X119127429Y-94730629D01*
X119359657Y-94730629D01*
X119417714Y-94759658D01*
X119446743Y-94788686D01*
X119475771Y-94846744D01*
X119475771Y-94962858D01*
X119446743Y-95020915D01*
X119417714Y-95049944D01*
X119359657Y-95078972D01*
X119214514Y-95078972D01*
X119156457Y-95049944D01*
X119127429Y-95020915D01*
X119098400Y-94962858D01*
X119098400Y-94846744D01*
X119127429Y-94788686D01*
X119156457Y-94759658D01*
X119214514Y-94730629D01*
X117149942Y-90675771D02*
X117149942Y-90066171D01*
X117004799Y-90066171D01*
X116917714Y-90095200D01*
X116859656Y-90153257D01*
X116830628Y-90211314D01*
X116801599Y-90327429D01*
X116801599Y-90414514D01*
X116830628Y-90530629D01*
X116859656Y-90588686D01*
X116917714Y-90646743D01*
X117004799Y-90675771D01*
X117149942Y-90675771D01*
X116598399Y-90066171D02*
X116191999Y-90066171D01*
X116453256Y-90675771D01*
X112249942Y-105975771D02*
X112249942Y-105366171D01*
X112104799Y-105366171D01*
X112017714Y-105395200D01*
X111959656Y-105453257D01*
X111930628Y-105511314D01*
X111901599Y-105627429D01*
X111901599Y-105714514D01*
X111930628Y-105830629D01*
X111959656Y-105888686D01*
X112017714Y-105946743D01*
X112104799Y-105975771D01*
X112249942Y-105975771D01*
X111553256Y-105627429D02*
X111611314Y-105598400D01*
X111640342Y-105569371D01*
X111669371Y-105511314D01*
X111669371Y-105482286D01*
X111640342Y-105424229D01*
X111611314Y-105395200D01*
X111553256Y-105366171D01*
X111437142Y-105366171D01*
X111379085Y-105395200D01*
X111350056Y-105424229D01*
X111321028Y-105482286D01*
X111321028Y-105511314D01*
X111350056Y-105569371D01*
X111379085Y-105598400D01*
X111437142Y-105627429D01*
X111553256Y-105627429D01*
X111611314Y-105656457D01*
X111640342Y-105685486D01*
X111669371Y-105743543D01*
X111669371Y-105859657D01*
X111640342Y-105917714D01*
X111611314Y-105946743D01*
X111553256Y-105975771D01*
X111437142Y-105975771D01*
X111379085Y-105946743D01*
X111350056Y-105917714D01*
X111321028Y-105859657D01*
X111321028Y-105743543D01*
X111350056Y-105685486D01*
X111379085Y-105656457D01*
X111437142Y-105627429D01*
X111749942Y-103375771D02*
X111749942Y-102766171D01*
X111604799Y-102766171D01*
X111517714Y-102795200D01*
X111459656Y-102853257D01*
X111430628Y-102911314D01*
X111401599Y-103027429D01*
X111401599Y-103114514D01*
X111430628Y-103230629D01*
X111459656Y-103288686D01*
X111517714Y-103346743D01*
X111604799Y-103375771D01*
X111749942Y-103375771D01*
X111111314Y-103375771D02*
X110995199Y-103375771D01*
X110937142Y-103346743D01*
X110908114Y-103317714D01*
X110850056Y-103230629D01*
X110821028Y-103114514D01*
X110821028Y-102882286D01*
X110850056Y-102824229D01*
X110879085Y-102795200D01*
X110937142Y-102766171D01*
X111053256Y-102766171D01*
X111111314Y-102795200D01*
X111140342Y-102824229D01*
X111169371Y-102882286D01*
X111169371Y-103027429D01*
X111140342Y-103085486D01*
X111111314Y-103114514D01*
X111053256Y-103143543D01*
X110937142Y-103143543D01*
X110879085Y-103114514D01*
X110850056Y-103085486D01*
X110821028Y-103027429D01*
X95740228Y-112775771D02*
X95740228Y-112166171D01*
X95595085Y-112166171D01*
X95508000Y-112195200D01*
X95449942Y-112253257D01*
X95420914Y-112311314D01*
X95391885Y-112427429D01*
X95391885Y-112514514D01*
X95420914Y-112630629D01*
X95449942Y-112688686D01*
X95508000Y-112746743D01*
X95595085Y-112775771D01*
X95740228Y-112775771D01*
X94811314Y-112775771D02*
X95159657Y-112775771D01*
X94985485Y-112775771D02*
X94985485Y-112166171D01*
X95043542Y-112253257D01*
X95101600Y-112311314D01*
X95159657Y-112340343D01*
X94433943Y-112166171D02*
X94375886Y-112166171D01*
X94317829Y-112195200D01*
X94288800Y-112224229D01*
X94259771Y-112282286D01*
X94230743Y-112398400D01*
X94230743Y-112543543D01*
X94259771Y-112659657D01*
X94288800Y-112717714D01*
X94317829Y-112746743D01*
X94375886Y-112775771D01*
X94433943Y-112775771D01*
X94492000Y-112746743D01*
X94521029Y-112717714D01*
X94550057Y-112659657D01*
X94579086Y-112543543D01*
X94579086Y-112398400D01*
X94550057Y-112282286D01*
X94521029Y-112224229D01*
X94492000Y-112195200D01*
X94433943Y-112166171D01*
D11*
X139033333Y-60728571D02*
X139366667Y-60728571D01*
X139366667Y-61252381D02*
X139366667Y-60252381D01*
X138890476Y-60252381D01*
X137985714Y-61252381D02*
X138557143Y-61252381D01*
X138271429Y-61252381D02*
X138271429Y-60252381D01*
X138366667Y-60395238D01*
X138461905Y-60490476D01*
X138557143Y-60538095D01*
X138533333Y-77228571D02*
X138866667Y-77228571D01*
X138866667Y-77752381D02*
X138866667Y-76752381D01*
X138390476Y-76752381D01*
X138057143Y-76847619D02*
X138009524Y-76800000D01*
X137914286Y-76752381D01*
X137676190Y-76752381D01*
X137580952Y-76800000D01*
X137533333Y-76847619D01*
X137485714Y-76942857D01*
X137485714Y-77038095D01*
X137533333Y-77180952D01*
X138104762Y-77752381D01*
X137485714Y-77752381D01*
X132438095Y-75652381D02*
X132438095Y-74652381D01*
X132057142Y-74652381D01*
X131961904Y-74700000D01*
X131914285Y-74747619D01*
X131866666Y-74842857D01*
X131866666Y-74985714D01*
X131914285Y-75080952D01*
X131961904Y-75128571D01*
X132057142Y-75176190D01*
X132438095Y-75176190D01*
X130914285Y-75652381D02*
X131485714Y-75652381D01*
X131200000Y-75652381D02*
X131200000Y-74652381D01*
X131295238Y-74795238D01*
X131390476Y-74890476D01*
X131485714Y-74938095D01*
X126488095Y-131032381D02*
X126488095Y-130032381D01*
X126107142Y-130032381D01*
X126011904Y-130080000D01*
X125964285Y-130127619D01*
X125916666Y-130222857D01*
X125916666Y-130365714D01*
X125964285Y-130460952D01*
X126011904Y-130508571D01*
X126107142Y-130556190D01*
X126488095Y-130556190D01*
X125535714Y-130127619D02*
X125488095Y-130080000D01*
X125392857Y-130032381D01*
X125154761Y-130032381D01*
X125059523Y-130080000D01*
X125011904Y-130127619D01*
X124964285Y-130222857D01*
X124964285Y-130318095D01*
X125011904Y-130460952D01*
X125583333Y-131032381D01*
X124964285Y-131032381D01*
X118476190Y-81838095D02*
X118552381Y-81800000D01*
X118628571Y-81723810D01*
X118742857Y-81609524D01*
X118819048Y-81571429D01*
X118895238Y-81571429D01*
X118857143Y-81761905D02*
X118933333Y-81723810D01*
X119009524Y-81647619D01*
X119047619Y-81495238D01*
X119047619Y-81228571D01*
X119009524Y-81076190D01*
X118933333Y-81000000D01*
X118857143Y-80961905D01*
X118704762Y-80961905D01*
X118628571Y-81000000D01*
X118552381Y-81076190D01*
X118514286Y-81228571D01*
X118514286Y-81495238D01*
X118552381Y-81647619D01*
X118628571Y-81723810D01*
X118704762Y-81761905D01*
X118857143Y-81761905D01*
X117752381Y-81761905D02*
X118209524Y-81761905D01*
X117980953Y-81761905D02*
X117980953Y-80961905D01*
X118057143Y-81076190D01*
X118133334Y-81152381D01*
X118209524Y-81190476D01*
X122557143Y-131028571D02*
X122614286Y-131000000D01*
X122671429Y-130942857D01*
X122757143Y-130857143D01*
X122814286Y-130828571D01*
X122871429Y-130828571D01*
X122842857Y-130971429D02*
X122900000Y-130942857D01*
X122957143Y-130885714D01*
X122985714Y-130771429D01*
X122985714Y-130571429D01*
X122957143Y-130457143D01*
X122900000Y-130400000D01*
X122842857Y-130371429D01*
X122728571Y-130371429D01*
X122671429Y-130400000D01*
X122614286Y-130457143D01*
X122585714Y-130571429D01*
X122585714Y-130771429D01*
X122614286Y-130885714D01*
X122671429Y-130942857D01*
X122728571Y-130971429D01*
X122842857Y-130971429D01*
X122357143Y-130428571D02*
X122328572Y-130400000D01*
X122271429Y-130371429D01*
X122128572Y-130371429D01*
X122071429Y-130400000D01*
X122042858Y-130428571D01*
X122014286Y-130485714D01*
X122014286Y-130542857D01*
X122042858Y-130628571D01*
X122385715Y-130971429D01*
X122014286Y-130971429D01*
D21*
X124858057Y-90333829D02*
X124916114Y-90304800D01*
X124974171Y-90246743D01*
X125061257Y-90159657D01*
X125119314Y-90130629D01*
X125177371Y-90130629D01*
X125148343Y-90275771D02*
X125206400Y-90246743D01*
X125264457Y-90188686D01*
X125293486Y-90072571D01*
X125293486Y-89869371D01*
X125264457Y-89753257D01*
X125206400Y-89695200D01*
X125148343Y-89666171D01*
X125032229Y-89666171D01*
X124974171Y-89695200D01*
X124916114Y-89753257D01*
X124887086Y-89869371D01*
X124887086Y-90072571D01*
X124916114Y-90188686D01*
X124974171Y-90246743D01*
X125032229Y-90275771D01*
X125148343Y-90275771D01*
X124683885Y-89666171D02*
X124306514Y-89666171D01*
X124509714Y-89898400D01*
X124422628Y-89898400D01*
X124364571Y-89927429D01*
X124335542Y-89956457D01*
X124306514Y-90014514D01*
X124306514Y-90159657D01*
X124335542Y-90217714D01*
X124364571Y-90246743D01*
X124422628Y-90275771D01*
X124596800Y-90275771D01*
X124654857Y-90246743D01*
X124683885Y-90217714D01*
D11*
X123557143Y-97128571D02*
X123614286Y-97100000D01*
X123671429Y-97042857D01*
X123757143Y-96957143D01*
X123814286Y-96928571D01*
X123871429Y-96928571D01*
X123842857Y-97071429D02*
X123900000Y-97042857D01*
X123957143Y-96985714D01*
X123985714Y-96871429D01*
X123985714Y-96671429D01*
X123957143Y-96557143D01*
X123900000Y-96500000D01*
X123842857Y-96471429D01*
X123728571Y-96471429D01*
X123671429Y-96500000D01*
X123614286Y-96557143D01*
X123585714Y-96671429D01*
X123585714Y-96871429D01*
X123614286Y-96985714D01*
X123671429Y-97042857D01*
X123728571Y-97071429D01*
X123842857Y-97071429D01*
X123071429Y-96671429D02*
X123071429Y-97071429D01*
X123214286Y-96442857D02*
X123357143Y-96871429D01*
X122985715Y-96871429D01*
D21*
X127082809Y-101791003D02*
X127053780Y-101732946D01*
X126995723Y-101674889D01*
X126908637Y-101587803D01*
X126879609Y-101529746D01*
X126879609Y-101471689D01*
X127024751Y-101500717D02*
X126995723Y-101442660D01*
X126937666Y-101384603D01*
X126821551Y-101355574D01*
X126618351Y-101355574D01*
X126502237Y-101384603D01*
X126444180Y-101442660D01*
X126415151Y-101500717D01*
X126415151Y-101616831D01*
X126444180Y-101674889D01*
X126502237Y-101732946D01*
X126618351Y-101761974D01*
X126821551Y-101761974D01*
X126937666Y-101732946D01*
X126995723Y-101674889D01*
X127024751Y-101616831D01*
X127024751Y-101500717D01*
X126415151Y-102313518D02*
X126415151Y-102023232D01*
X126705437Y-101994203D01*
X126676409Y-102023232D01*
X126647380Y-102081289D01*
X126647380Y-102226432D01*
X126676409Y-102284489D01*
X126705437Y-102313518D01*
X126763494Y-102342546D01*
X126908637Y-102342546D01*
X126966694Y-102313518D01*
X126995723Y-102284489D01*
X127024751Y-102226432D01*
X127024751Y-102081289D01*
X126995723Y-102023232D01*
X126966694Y-101994203D01*
X121525675Y-68304895D02*
X121061218Y-68304895D01*
X121293447Y-69117695D02*
X121293447Y-68304895D01*
X120790285Y-69117695D02*
X120790285Y-68304895D01*
X120480647Y-68304895D01*
X120403238Y-68343600D01*
X120364533Y-68382305D01*
X120325828Y-68459714D01*
X120325828Y-68575829D01*
X120364533Y-68653238D01*
X120403238Y-68691943D01*
X120480647Y-68730648D01*
X120790285Y-68730648D01*
X119551733Y-69117695D02*
X120016190Y-69117695D01*
X119783961Y-69117695D02*
X119783961Y-68304895D01*
X119861371Y-68421010D01*
X119938780Y-68498419D01*
X120016190Y-68537124D01*
X99525675Y-125754895D02*
X99061218Y-125754895D01*
X99293447Y-126567695D02*
X99293447Y-125754895D01*
X98790285Y-126567695D02*
X98790285Y-125754895D01*
X98480647Y-125754895D01*
X98403238Y-125793600D01*
X98364533Y-125832305D01*
X98325828Y-125909714D01*
X98325828Y-126025829D01*
X98364533Y-126103238D01*
X98403238Y-126141943D01*
X98480647Y-126180648D01*
X98790285Y-126180648D01*
X98016190Y-125832305D02*
X97977485Y-125793600D01*
X97900076Y-125754895D01*
X97706552Y-125754895D01*
X97629142Y-125793600D01*
X97590438Y-125832305D01*
X97551733Y-125909714D01*
X97551733Y-125987124D01*
X97590438Y-126103238D01*
X98054895Y-126567695D01*
X97551733Y-126567695D01*
D11*
X107711905Y-79302381D02*
X107140476Y-79302381D01*
X107426191Y-80302381D02*
X107426191Y-79302381D01*
X106807143Y-80302381D02*
X106807143Y-79302381D01*
X106426190Y-79302381D01*
X106330952Y-79350000D01*
X106283333Y-79397619D01*
X106235714Y-79492857D01*
X106235714Y-79635714D01*
X106283333Y-79730952D01*
X106330952Y-79778571D01*
X106426190Y-79826190D01*
X106807143Y-79826190D01*
X105902381Y-79302381D02*
X105283333Y-79302381D01*
X105616667Y-79683333D01*
X105473809Y-79683333D01*
X105378571Y-79730952D01*
X105330952Y-79778571D01*
X105283333Y-79873810D01*
X105283333Y-80111905D01*
X105330952Y-80207143D01*
X105378571Y-80254762D01*
X105473809Y-80302381D01*
X105759524Y-80302381D01*
X105854762Y-80254762D01*
X105902381Y-80207143D01*
X131661905Y-103552381D02*
X131090476Y-103552381D01*
X131376191Y-104552381D02*
X131376191Y-103552381D01*
X130757143Y-104552381D02*
X130757143Y-103552381D01*
X130376190Y-103552381D01*
X130280952Y-103600000D01*
X130233333Y-103647619D01*
X130185714Y-103742857D01*
X130185714Y-103885714D01*
X130233333Y-103980952D01*
X130280952Y-104028571D01*
X130376190Y-104076190D01*
X130757143Y-104076190D01*
X129328571Y-103885714D02*
X129328571Y-104552381D01*
X129566667Y-103504762D02*
X129804762Y-104219048D01*
X129185714Y-104219048D01*
X97261905Y-103952381D02*
X96690476Y-103952381D01*
X96976191Y-104952381D02*
X96976191Y-103952381D01*
X96357143Y-104952381D02*
X96357143Y-103952381D01*
X95976190Y-103952381D01*
X95880952Y-104000000D01*
X95833333Y-104047619D01*
X95785714Y-104142857D01*
X95785714Y-104285714D01*
X95833333Y-104380952D01*
X95880952Y-104428571D01*
X95976190Y-104476190D01*
X96357143Y-104476190D01*
X94880952Y-103952381D02*
X95357143Y-103952381D01*
X95404762Y-104428571D01*
X95357143Y-104380952D01*
X95261905Y-104333333D01*
X95023809Y-104333333D01*
X94928571Y-104380952D01*
X94880952Y-104428571D01*
X94833333Y-104523810D01*
X94833333Y-104761905D01*
X94880952Y-104857143D01*
X94928571Y-104904762D01*
X95023809Y-104952381D01*
X95261905Y-104952381D01*
X95357143Y-104904762D01*
X95404762Y-104857143D01*
X124761905Y-136652381D02*
X124190476Y-136652381D01*
X124476191Y-137652381D02*
X124476191Y-136652381D01*
X123857143Y-137652381D02*
X123857143Y-136652381D01*
X123476190Y-136652381D01*
X123380952Y-136700000D01*
X123333333Y-136747619D01*
X123285714Y-136842857D01*
X123285714Y-136985714D01*
X123333333Y-137080952D01*
X123380952Y-137128571D01*
X123476190Y-137176190D01*
X123857143Y-137176190D01*
X122428571Y-136652381D02*
X122619048Y-136652381D01*
X122714286Y-136700000D01*
X122761905Y-136747619D01*
X122857143Y-136890476D01*
X122904762Y-137080952D01*
X122904762Y-137461905D01*
X122857143Y-137557143D01*
X122809524Y-137604762D01*
X122714286Y-137652381D01*
X122523809Y-137652381D01*
X122428571Y-137604762D01*
X122380952Y-137557143D01*
X122333333Y-137461905D01*
X122333333Y-137223810D01*
X122380952Y-137128571D01*
X122428571Y-137080952D01*
X122523809Y-137033333D01*
X122714286Y-137033333D01*
X122809524Y-137080952D01*
X122857143Y-137128571D01*
X122904762Y-137223810D01*
X109761905Y-115352381D02*
X109190476Y-115352381D01*
X109476191Y-116352381D02*
X109476191Y-115352381D01*
X108857143Y-116352381D02*
X108857143Y-115352381D01*
X108476190Y-115352381D01*
X108380952Y-115400000D01*
X108333333Y-115447619D01*
X108285714Y-115542857D01*
X108285714Y-115685714D01*
X108333333Y-115780952D01*
X108380952Y-115828571D01*
X108476190Y-115876190D01*
X108857143Y-115876190D01*
X107952381Y-115352381D02*
X107285714Y-115352381D01*
X107714286Y-116352381D01*
X113561905Y-78752381D02*
X113561905Y-79561905D01*
X113514286Y-79657143D01*
X113466667Y-79704762D01*
X113371429Y-79752381D01*
X113180952Y-79752381D01*
X113085714Y-79704762D01*
X113038095Y-79657143D01*
X112990476Y-79561905D01*
X112990476Y-78752381D01*
X111990476Y-79752381D02*
X112561905Y-79752381D01*
X112276191Y-79752381D02*
X112276191Y-78752381D01*
X112371429Y-78895238D01*
X112466667Y-78990476D01*
X112561905Y-79038095D01*
X120509524Y-84461905D02*
X120509524Y-85109524D01*
X120471429Y-85185714D01*
X120433333Y-85223810D01*
X120357143Y-85261905D01*
X120204762Y-85261905D01*
X120128571Y-85223810D01*
X120090476Y-85185714D01*
X120052381Y-85109524D01*
X120052381Y-84461905D01*
X119709524Y-84538095D02*
X119671429Y-84500000D01*
X119595238Y-84461905D01*
X119404762Y-84461905D01*
X119328572Y-84500000D01*
X119290476Y-84538095D01*
X119252381Y-84614286D01*
X119252381Y-84690476D01*
X119290476Y-84804762D01*
X119747619Y-85261905D01*
X119252381Y-85261905D01*
X101709524Y-110261905D02*
X101709524Y-110909524D01*
X101671429Y-110985714D01*
X101633333Y-111023810D01*
X101557143Y-111061905D01*
X101404762Y-111061905D01*
X101328571Y-111023810D01*
X101290476Y-110985714D01*
X101252381Y-110909524D01*
X101252381Y-110261905D01*
X100947619Y-110261905D02*
X100452381Y-110261905D01*
X100719048Y-110566667D01*
X100604762Y-110566667D01*
X100528572Y-110604762D01*
X100490476Y-110642857D01*
X100452381Y-110719048D01*
X100452381Y-110909524D01*
X100490476Y-110985714D01*
X100528572Y-111023810D01*
X100604762Y-111061905D01*
X100833334Y-111061905D01*
X100909524Y-111023810D01*
X100947619Y-110985714D01*
X124709524Y-110461905D02*
X124709524Y-111109524D01*
X124671429Y-111185714D01*
X124633333Y-111223810D01*
X124557143Y-111261905D01*
X124404762Y-111261905D01*
X124328571Y-111223810D01*
X124290476Y-111185714D01*
X124252381Y-111109524D01*
X124252381Y-110461905D01*
X123528572Y-110728571D02*
X123528572Y-111261905D01*
X123719048Y-110423810D02*
X123909524Y-110995238D01*
X123414286Y-110995238D01*
X112709524Y-72361905D02*
X112709524Y-73009524D01*
X112671429Y-73085714D01*
X112633333Y-73123810D01*
X112557143Y-73161905D01*
X112404762Y-73161905D01*
X112328571Y-73123810D01*
X112290476Y-73085714D01*
X112252381Y-73009524D01*
X112252381Y-72361905D01*
X111490476Y-72361905D02*
X111871429Y-72361905D01*
X111909524Y-72742857D01*
X111871429Y-72704762D01*
X111795238Y-72666667D01*
X111604762Y-72666667D01*
X111528572Y-72704762D01*
X111490476Y-72742857D01*
X111452381Y-72819048D01*
X111452381Y-73009524D01*
X111490476Y-73085714D01*
X111528572Y-73123810D01*
X111604762Y-73161905D01*
X111795238Y-73161905D01*
X111871429Y-73123810D01*
X111909524Y-73085714D01*
X94647619Y-81461905D02*
X94380952Y-82261905D01*
X94114285Y-81461905D01*
X93390476Y-82261905D02*
X93657143Y-81880952D01*
X93847619Y-82261905D02*
X93847619Y-81461905D01*
X93542857Y-81461905D01*
X93466666Y-81500000D01*
X93428571Y-81538095D01*
X93390476Y-81614286D01*
X93390476Y-81728571D01*
X93428571Y-81804762D01*
X93466666Y-81842857D01*
X93542857Y-81880952D01*
X93847619Y-81880952D01*
X92628571Y-82261905D02*
X93085714Y-82261905D01*
X92857143Y-82261905D02*
X92857143Y-81461905D01*
X92933333Y-81576190D01*
X93009524Y-81652381D01*
X93085714Y-81690476D01*
X137647619Y-103161905D02*
X137380952Y-103961905D01*
X137114285Y-103161905D01*
X136390476Y-103961905D02*
X136657143Y-103580952D01*
X136847619Y-103961905D02*
X136847619Y-103161905D01*
X136542857Y-103161905D01*
X136466666Y-103200000D01*
X136428571Y-103238095D01*
X136390476Y-103314286D01*
X136390476Y-103428571D01*
X136428571Y-103504762D01*
X136466666Y-103542857D01*
X136542857Y-103580952D01*
X136847619Y-103580952D01*
X136123809Y-103161905D02*
X135590476Y-103161905D01*
X135933333Y-103961905D01*
X108661905Y-97452381D02*
X109461905Y-97719048D01*
X108661905Y-97985715D01*
X109461905Y-98709524D02*
X109080952Y-98442857D01*
X109461905Y-98252381D02*
X108661905Y-98252381D01*
X108661905Y-98557143D01*
X108700000Y-98633334D01*
X108738095Y-98671429D01*
X108814286Y-98709524D01*
X108928571Y-98709524D01*
X109004762Y-98671429D01*
X109042857Y-98633334D01*
X109080952Y-98557143D01*
X109080952Y-98252381D01*
X109461905Y-99090476D02*
X109461905Y-99242857D01*
X109423810Y-99319048D01*
X109385714Y-99357143D01*
X109271429Y-99433334D01*
X109119048Y-99471429D01*
X108814286Y-99471429D01*
X108738095Y-99433334D01*
X108700000Y-99395238D01*
X108661905Y-99319048D01*
X108661905Y-99166667D01*
X108700000Y-99090476D01*
X108738095Y-99052381D01*
X108814286Y-99014286D01*
X109004762Y-99014286D01*
X109080952Y-99052381D01*
X109119048Y-99090476D01*
X109157143Y-99166667D01*
X109157143Y-99319048D01*
X109119048Y-99395238D01*
X109080952Y-99433334D01*
X109004762Y-99471429D01*
X130928572Y-89061905D02*
X130661905Y-89861905D01*
X130395238Y-89061905D01*
X129671429Y-89861905D02*
X129938096Y-89480952D01*
X130128572Y-89861905D02*
X130128572Y-89061905D01*
X129823810Y-89061905D01*
X129747619Y-89100000D01*
X129709524Y-89138095D01*
X129671429Y-89214286D01*
X129671429Y-89328571D01*
X129709524Y-89404762D01*
X129747619Y-89442857D01*
X129823810Y-89480952D01*
X130128572Y-89480952D01*
X128909524Y-89861905D02*
X129366667Y-89861905D01*
X129138096Y-89861905D02*
X129138096Y-89061905D01*
X129214286Y-89176190D01*
X129290477Y-89252381D01*
X129366667Y-89290476D01*
X128414286Y-89061905D02*
X128338095Y-89061905D01*
X128261905Y-89100000D01*
X128223810Y-89138095D01*
X128185714Y-89214286D01*
X128147619Y-89366667D01*
X128147619Y-89557143D01*
X128185714Y-89709524D01*
X128223810Y-89785714D01*
X128261905Y-89823810D01*
X128338095Y-89861905D01*
X128414286Y-89861905D01*
X128490476Y-89823810D01*
X128528572Y-89785714D01*
X128566667Y-89709524D01*
X128604762Y-89557143D01*
X128604762Y-89366667D01*
X128566667Y-89214286D01*
X128528572Y-89138095D01*
X128490476Y-89100000D01*
X128414286Y-89061905D01*
D21*
X119475771Y-91908115D02*
X119185486Y-91704915D01*
X119475771Y-91559772D02*
X118866171Y-91559772D01*
X118866171Y-91792000D01*
X118895200Y-91850058D01*
X118924229Y-91879086D01*
X118982286Y-91908115D01*
X119069371Y-91908115D01*
X119127429Y-91879086D01*
X119156457Y-91850058D01*
X119185486Y-91792000D01*
X119185486Y-91559772D01*
X118924229Y-92140343D02*
X118895200Y-92169372D01*
X118866171Y-92227429D01*
X118866171Y-92372572D01*
X118895200Y-92430629D01*
X118924229Y-92459658D01*
X118982286Y-92488686D01*
X119040343Y-92488686D01*
X119127429Y-92459658D01*
X119475771Y-92111315D01*
X119475771Y-92488686D01*
X118866171Y-93040229D02*
X118866171Y-92749943D01*
X119156457Y-92720914D01*
X119127429Y-92749943D01*
X119098400Y-92808000D01*
X119098400Y-92953143D01*
X119127429Y-93011200D01*
X119156457Y-93040229D01*
X119214514Y-93069257D01*
X119359657Y-93069257D01*
X119417714Y-93040229D01*
X119446743Y-93011200D01*
X119475771Y-92953143D01*
X119475771Y-92808000D01*
X119446743Y-92749943D01*
X119417714Y-92720914D01*
X107601599Y-75675771D02*
X107804799Y-75385486D01*
X107949942Y-75675771D02*
X107949942Y-75066171D01*
X107717714Y-75066171D01*
X107659656Y-75095200D01*
X107630628Y-75124229D01*
X107601599Y-75182286D01*
X107601599Y-75269371D01*
X107630628Y-75327429D01*
X107659656Y-75356457D01*
X107717714Y-75385486D01*
X107949942Y-75385486D01*
X107021028Y-75675771D02*
X107369371Y-75675771D01*
X107195199Y-75675771D02*
X107195199Y-75066171D01*
X107253256Y-75153257D01*
X107311314Y-75211314D01*
X107369371Y-75240343D01*
X104601599Y-75675771D02*
X104804799Y-75385486D01*
X104949942Y-75675771D02*
X104949942Y-75066171D01*
X104717714Y-75066171D01*
X104659656Y-75095200D01*
X104630628Y-75124229D01*
X104601599Y-75182286D01*
X104601599Y-75269371D01*
X104630628Y-75327429D01*
X104659656Y-75356457D01*
X104717714Y-75385486D01*
X104949942Y-75385486D01*
X104369371Y-75124229D02*
X104340342Y-75095200D01*
X104282285Y-75066171D01*
X104137142Y-75066171D01*
X104079085Y-75095200D01*
X104050056Y-75124229D01*
X104021028Y-75182286D01*
X104021028Y-75240343D01*
X104050056Y-75327429D01*
X104398399Y-75675771D01*
X104021028Y-75675771D01*
X96101599Y-82675771D02*
X96304799Y-82385486D01*
X96449942Y-82675771D02*
X96449942Y-82066171D01*
X96217714Y-82066171D01*
X96159656Y-82095200D01*
X96130628Y-82124229D01*
X96101599Y-82182286D01*
X96101599Y-82269371D01*
X96130628Y-82327429D01*
X96159656Y-82356457D01*
X96217714Y-82385486D01*
X96449942Y-82385486D01*
X95898399Y-82066171D02*
X95521028Y-82066171D01*
X95724228Y-82298400D01*
X95637142Y-82298400D01*
X95579085Y-82327429D01*
X95550056Y-82356457D01*
X95521028Y-82414514D01*
X95521028Y-82559657D01*
X95550056Y-82617714D01*
X95579085Y-82646743D01*
X95637142Y-82675771D01*
X95811314Y-82675771D01*
X95869371Y-82646743D01*
X95898399Y-82617714D01*
X100801599Y-93975771D02*
X101004799Y-93685486D01*
X101149942Y-93975771D02*
X101149942Y-93366171D01*
X100917714Y-93366171D01*
X100859656Y-93395200D01*
X100830628Y-93424229D01*
X100801599Y-93482286D01*
X100801599Y-93569371D01*
X100830628Y-93627429D01*
X100859656Y-93656457D01*
X100917714Y-93685486D01*
X101149942Y-93685486D01*
X100279085Y-93569371D02*
X100279085Y-93975771D01*
X100424228Y-93337143D02*
X100569371Y-93772571D01*
X100191999Y-93772571D01*
X101601599Y-75675771D02*
X101804799Y-75385486D01*
X101949942Y-75675771D02*
X101949942Y-75066171D01*
X101717714Y-75066171D01*
X101659656Y-75095200D01*
X101630628Y-75124229D01*
X101601599Y-75182286D01*
X101601599Y-75269371D01*
X101630628Y-75327429D01*
X101659656Y-75356457D01*
X101717714Y-75385486D01*
X101949942Y-75385486D01*
X101050056Y-75066171D02*
X101340342Y-75066171D01*
X101369371Y-75356457D01*
X101340342Y-75327429D01*
X101282285Y-75298400D01*
X101137142Y-75298400D01*
X101079085Y-75327429D01*
X101050056Y-75356457D01*
X101021028Y-75414514D01*
X101021028Y-75559657D01*
X101050056Y-75617714D01*
X101079085Y-75646743D01*
X101137142Y-75675771D01*
X101282285Y-75675771D01*
X101340342Y-75646743D01*
X101369371Y-75617714D01*
X98601599Y-75675771D02*
X98804799Y-75385486D01*
X98949942Y-75675771D02*
X98949942Y-75066171D01*
X98717714Y-75066171D01*
X98659656Y-75095200D01*
X98630628Y-75124229D01*
X98601599Y-75182286D01*
X98601599Y-75269371D01*
X98630628Y-75327429D01*
X98659656Y-75356457D01*
X98717714Y-75385486D01*
X98949942Y-75385486D01*
X98079085Y-75066171D02*
X98195199Y-75066171D01*
X98253256Y-75095200D01*
X98282285Y-75124229D01*
X98340342Y-75211314D01*
X98369371Y-75327429D01*
X98369371Y-75559657D01*
X98340342Y-75617714D01*
X98311314Y-75646743D01*
X98253256Y-75675771D01*
X98137142Y-75675771D01*
X98079085Y-75646743D01*
X98050056Y-75617714D01*
X98021028Y-75559657D01*
X98021028Y-75414514D01*
X98050056Y-75356457D01*
X98079085Y-75327429D01*
X98137142Y-75298400D01*
X98253256Y-75298400D01*
X98311314Y-75327429D01*
X98340342Y-75356457D01*
X98369371Y-75414514D01*
X120801599Y-124675771D02*
X121004799Y-124385486D01*
X121149942Y-124675771D02*
X121149942Y-124066171D01*
X120917714Y-124066171D01*
X120859656Y-124095200D01*
X120830628Y-124124229D01*
X120801599Y-124182286D01*
X120801599Y-124269371D01*
X120830628Y-124327429D01*
X120859656Y-124356457D01*
X120917714Y-124385486D01*
X121149942Y-124385486D01*
X120598399Y-124066171D02*
X120191999Y-124066171D01*
X120453256Y-124675771D01*
X95601599Y-75675771D02*
X95804799Y-75385486D01*
X95949942Y-75675771D02*
X95949942Y-75066171D01*
X95717714Y-75066171D01*
X95659656Y-75095200D01*
X95630628Y-75124229D01*
X95601599Y-75182286D01*
X95601599Y-75269371D01*
X95630628Y-75327429D01*
X95659656Y-75356457D01*
X95717714Y-75385486D01*
X95949942Y-75385486D01*
X95253256Y-75327429D02*
X95311314Y-75298400D01*
X95340342Y-75269371D01*
X95369371Y-75211314D01*
X95369371Y-75182286D01*
X95340342Y-75124229D01*
X95311314Y-75095200D01*
X95253256Y-75066171D01*
X95137142Y-75066171D01*
X95079085Y-75095200D01*
X95050056Y-75124229D01*
X95021028Y-75182286D01*
X95021028Y-75211314D01*
X95050056Y-75269371D01*
X95079085Y-75298400D01*
X95137142Y-75327429D01*
X95253256Y-75327429D01*
X95311314Y-75356457D01*
X95340342Y-75385486D01*
X95369371Y-75443543D01*
X95369371Y-75559657D01*
X95340342Y-75617714D01*
X95311314Y-75646743D01*
X95253256Y-75675771D01*
X95137142Y-75675771D01*
X95079085Y-75646743D01*
X95050056Y-75617714D01*
X95021028Y-75559657D01*
X95021028Y-75443543D01*
X95050056Y-75385486D01*
X95079085Y-75356457D01*
X95137142Y-75327429D01*
X113801599Y-124675771D02*
X114004799Y-124385486D01*
X114149942Y-124675771D02*
X114149942Y-124066171D01*
X113917714Y-124066171D01*
X113859656Y-124095200D01*
X113830628Y-124124229D01*
X113801599Y-124182286D01*
X113801599Y-124269371D01*
X113830628Y-124327429D01*
X113859656Y-124356457D01*
X113917714Y-124385486D01*
X114149942Y-124385486D01*
X113511314Y-124675771D02*
X113395199Y-124675771D01*
X113337142Y-124646743D01*
X113308114Y-124617714D01*
X113250056Y-124530629D01*
X113221028Y-124414514D01*
X113221028Y-124182286D01*
X113250056Y-124124229D01*
X113279085Y-124095200D01*
X113337142Y-124066171D01*
X113453256Y-124066171D01*
X113511314Y-124095200D01*
X113540342Y-124124229D01*
X113569371Y-124182286D01*
X113569371Y-124327429D01*
X113540342Y-124385486D01*
X113511314Y-124414514D01*
X113453256Y-124443543D01*
X113337142Y-124443543D01*
X113279085Y-124414514D01*
X113250056Y-124385486D01*
X113221028Y-124327429D01*
X111491885Y-79175771D02*
X111695085Y-78885486D01*
X111840228Y-79175771D02*
X111840228Y-78566171D01*
X111608000Y-78566171D01*
X111549942Y-78595200D01*
X111520914Y-78624229D01*
X111491885Y-78682286D01*
X111491885Y-78769371D01*
X111520914Y-78827429D01*
X111549942Y-78856457D01*
X111608000Y-78885486D01*
X111840228Y-78885486D01*
X110911314Y-79175771D02*
X111259657Y-79175771D01*
X111085485Y-79175771D02*
X111085485Y-78566171D01*
X111143542Y-78653257D01*
X111201600Y-78711314D01*
X111259657Y-78740343D01*
X110533943Y-78566171D02*
X110475886Y-78566171D01*
X110417829Y-78595200D01*
X110388800Y-78624229D01*
X110359771Y-78682286D01*
X110330743Y-78798400D01*
X110330743Y-78943543D01*
X110359771Y-79059657D01*
X110388800Y-79117714D01*
X110417829Y-79146743D01*
X110475886Y-79175771D01*
X110533943Y-79175771D01*
X110592000Y-79146743D01*
X110621029Y-79117714D01*
X110650057Y-79059657D01*
X110679086Y-78943543D01*
X110679086Y-78798400D01*
X110650057Y-78682286D01*
X110621029Y-78624229D01*
X110592000Y-78595200D01*
X110533943Y-78566171D01*
X111675771Y-93858115D02*
X111385486Y-93654915D01*
X111675771Y-93509772D02*
X111066171Y-93509772D01*
X111066171Y-93742000D01*
X111095200Y-93800058D01*
X111124229Y-93829086D01*
X111182286Y-93858115D01*
X111269371Y-93858115D01*
X111327429Y-93829086D01*
X111356457Y-93800058D01*
X111385486Y-93742000D01*
X111385486Y-93509772D01*
X111675771Y-94438686D02*
X111675771Y-94090343D01*
X111675771Y-94264515D02*
X111066171Y-94264515D01*
X111153257Y-94206458D01*
X111211314Y-94148400D01*
X111240343Y-94090343D01*
X111675771Y-95019257D02*
X111675771Y-94670914D01*
X111675771Y-94845086D02*
X111066171Y-94845086D01*
X111153257Y-94787029D01*
X111211314Y-94728971D01*
X111240343Y-94670914D01*
X118591885Y-70675771D02*
X118795085Y-70385486D01*
X118940228Y-70675771D02*
X118940228Y-70066171D01*
X118708000Y-70066171D01*
X118649942Y-70095200D01*
X118620914Y-70124229D01*
X118591885Y-70182286D01*
X118591885Y-70269371D01*
X118620914Y-70327429D01*
X118649942Y-70356457D01*
X118708000Y-70385486D01*
X118940228Y-70385486D01*
X118011314Y-70675771D02*
X118359657Y-70675771D01*
X118185485Y-70675771D02*
X118185485Y-70066171D01*
X118243542Y-70153257D01*
X118301600Y-70211314D01*
X118359657Y-70240343D01*
X117779086Y-70124229D02*
X117750057Y-70095200D01*
X117692000Y-70066171D01*
X117546857Y-70066171D01*
X117488800Y-70095200D01*
X117459771Y-70124229D01*
X117430743Y-70182286D01*
X117430743Y-70240343D01*
X117459771Y-70327429D01*
X117808114Y-70675771D01*
X117430743Y-70675771D01*
X107141885Y-86175771D02*
X107345085Y-85885486D01*
X107490228Y-86175771D02*
X107490228Y-85566171D01*
X107258000Y-85566171D01*
X107199942Y-85595200D01*
X107170914Y-85624229D01*
X107141885Y-85682286D01*
X107141885Y-85769371D01*
X107170914Y-85827429D01*
X107199942Y-85856457D01*
X107258000Y-85885486D01*
X107490228Y-85885486D01*
X106561314Y-86175771D02*
X106909657Y-86175771D01*
X106735485Y-86175771D02*
X106735485Y-85566171D01*
X106793542Y-85653257D01*
X106851600Y-85711314D01*
X106909657Y-85740343D01*
X106358114Y-85566171D02*
X105980743Y-85566171D01*
X106183943Y-85798400D01*
X106096857Y-85798400D01*
X106038800Y-85827429D01*
X106009771Y-85856457D01*
X105980743Y-85914514D01*
X105980743Y-86059657D01*
X106009771Y-86117714D01*
X106038800Y-86146743D01*
X106096857Y-86175771D01*
X106271029Y-86175771D01*
X106329086Y-86146743D01*
X106358114Y-86117714D01*
X120891885Y-73275771D02*
X121095085Y-72985486D01*
X121240228Y-73275771D02*
X121240228Y-72666171D01*
X121008000Y-72666171D01*
X120949942Y-72695200D01*
X120920914Y-72724229D01*
X120891885Y-72782286D01*
X120891885Y-72869371D01*
X120920914Y-72927429D01*
X120949942Y-72956457D01*
X121008000Y-72985486D01*
X121240228Y-72985486D01*
X120311314Y-73275771D02*
X120659657Y-73275771D01*
X120485485Y-73275771D02*
X120485485Y-72666171D01*
X120543542Y-72753257D01*
X120601600Y-72811314D01*
X120659657Y-72840343D01*
X119759771Y-72666171D02*
X120050057Y-72666171D01*
X120079086Y-72956457D01*
X120050057Y-72927429D01*
X119992000Y-72898400D01*
X119846857Y-72898400D01*
X119788800Y-72927429D01*
X119759771Y-72956457D01*
X119730743Y-73014514D01*
X119730743Y-73159657D01*
X119759771Y-73217714D01*
X119788800Y-73246743D01*
X119846857Y-73275771D01*
X119992000Y-73275771D01*
X120050057Y-73246743D01*
X120079086Y-73217714D01*
X112191885Y-83975771D02*
X112395085Y-83685486D01*
X112540228Y-83975771D02*
X112540228Y-83366171D01*
X112308000Y-83366171D01*
X112249942Y-83395200D01*
X112220914Y-83424229D01*
X112191885Y-83482286D01*
X112191885Y-83569371D01*
X112220914Y-83627429D01*
X112249942Y-83656457D01*
X112308000Y-83685486D01*
X112540228Y-83685486D01*
X111611314Y-83975771D02*
X111959657Y-83975771D01*
X111785485Y-83975771D02*
X111785485Y-83366171D01*
X111843542Y-83453257D01*
X111901600Y-83511314D01*
X111959657Y-83540343D01*
X111088800Y-83366171D02*
X111204914Y-83366171D01*
X111262971Y-83395200D01*
X111292000Y-83424229D01*
X111350057Y-83511314D01*
X111379086Y-83627429D01*
X111379086Y-83859657D01*
X111350057Y-83917714D01*
X111321029Y-83946743D01*
X111262971Y-83975771D01*
X111146857Y-83975771D01*
X111088800Y-83946743D01*
X111059771Y-83917714D01*
X111030743Y-83859657D01*
X111030743Y-83714514D01*
X111059771Y-83656457D01*
X111088800Y-83627429D01*
X111146857Y-83598400D01*
X111262971Y-83598400D01*
X111321029Y-83627429D01*
X111350057Y-83656457D01*
X111379086Y-83714514D01*
X111491885Y-80975771D02*
X111695085Y-80685486D01*
X111840228Y-80975771D02*
X111840228Y-80366171D01*
X111608000Y-80366171D01*
X111549942Y-80395200D01*
X111520914Y-80424229D01*
X111491885Y-80482286D01*
X111491885Y-80569371D01*
X111520914Y-80627429D01*
X111549942Y-80656457D01*
X111608000Y-80685486D01*
X111840228Y-80685486D01*
X110911314Y-80975771D02*
X111259657Y-80975771D01*
X111085485Y-80975771D02*
X111085485Y-80366171D01*
X111143542Y-80453257D01*
X111201600Y-80511314D01*
X111259657Y-80540343D01*
X110708114Y-80366171D02*
X110301714Y-80366171D01*
X110562971Y-80975771D01*
X125491885Y-73275771D02*
X125695085Y-72985486D01*
X125840228Y-73275771D02*
X125840228Y-72666171D01*
X125608000Y-72666171D01*
X125549942Y-72695200D01*
X125520914Y-72724229D01*
X125491885Y-72782286D01*
X125491885Y-72869371D01*
X125520914Y-72927429D01*
X125549942Y-72956457D01*
X125608000Y-72985486D01*
X125840228Y-72985486D01*
X124911314Y-73275771D02*
X125259657Y-73275771D01*
X125085485Y-73275771D02*
X125085485Y-72666171D01*
X125143542Y-72753257D01*
X125201600Y-72811314D01*
X125259657Y-72840343D01*
X124562971Y-72927429D02*
X124621029Y-72898400D01*
X124650057Y-72869371D01*
X124679086Y-72811314D01*
X124679086Y-72782286D01*
X124650057Y-72724229D01*
X124621029Y-72695200D01*
X124562971Y-72666171D01*
X124446857Y-72666171D01*
X124388800Y-72695200D01*
X124359771Y-72724229D01*
X124330743Y-72782286D01*
X124330743Y-72811314D01*
X124359771Y-72869371D01*
X124388800Y-72898400D01*
X124446857Y-72927429D01*
X124562971Y-72927429D01*
X124621029Y-72956457D01*
X124650057Y-72985486D01*
X124679086Y-73043543D01*
X124679086Y-73159657D01*
X124650057Y-73217714D01*
X124621029Y-73246743D01*
X124562971Y-73275771D01*
X124446857Y-73275771D01*
X124388800Y-73246743D01*
X124359771Y-73217714D01*
X124330743Y-73159657D01*
X124330743Y-73043543D01*
X124359771Y-72985486D01*
X124388800Y-72956457D01*
X124446857Y-72927429D01*
X123191885Y-83775771D02*
X123395085Y-83485486D01*
X123540228Y-83775771D02*
X123540228Y-83166171D01*
X123308000Y-83166171D01*
X123249942Y-83195200D01*
X123220914Y-83224229D01*
X123191885Y-83282286D01*
X123191885Y-83369371D01*
X123220914Y-83427429D01*
X123249942Y-83456457D01*
X123308000Y-83485486D01*
X123540228Y-83485486D01*
X122611314Y-83775771D02*
X122959657Y-83775771D01*
X122785485Y-83775771D02*
X122785485Y-83166171D01*
X122843542Y-83253257D01*
X122901600Y-83311314D01*
X122959657Y-83340343D01*
X122321029Y-83775771D02*
X122204914Y-83775771D01*
X122146857Y-83746743D01*
X122117829Y-83717714D01*
X122059771Y-83630629D01*
X122030743Y-83514514D01*
X122030743Y-83282286D01*
X122059771Y-83224229D01*
X122088800Y-83195200D01*
X122146857Y-83166171D01*
X122262971Y-83166171D01*
X122321029Y-83195200D01*
X122350057Y-83224229D01*
X122379086Y-83282286D01*
X122379086Y-83427429D01*
X122350057Y-83485486D01*
X122321029Y-83514514D01*
X122262971Y-83543543D01*
X122146857Y-83543543D01*
X122088800Y-83514514D01*
X122059771Y-83485486D01*
X122030743Y-83427429D01*
X137575771Y-109208115D02*
X137285486Y-109004915D01*
X137575771Y-108859772D02*
X136966171Y-108859772D01*
X136966171Y-109092000D01*
X136995200Y-109150058D01*
X137024229Y-109179086D01*
X137082286Y-109208115D01*
X137169371Y-109208115D01*
X137227429Y-109179086D01*
X137256457Y-109150058D01*
X137285486Y-109092000D01*
X137285486Y-108859772D01*
X137024229Y-109440343D02*
X136995200Y-109469372D01*
X136966171Y-109527429D01*
X136966171Y-109672572D01*
X136995200Y-109730629D01*
X137024229Y-109759658D01*
X137082286Y-109788686D01*
X137140343Y-109788686D01*
X137227429Y-109759658D01*
X137575771Y-109411315D01*
X137575771Y-109788686D01*
X136966171Y-110166057D02*
X136966171Y-110224114D01*
X136995200Y-110282171D01*
X137024229Y-110311200D01*
X137082286Y-110340229D01*
X137198400Y-110369257D01*
X137343543Y-110369257D01*
X137459657Y-110340229D01*
X137517714Y-110311200D01*
X137546743Y-110282171D01*
X137575771Y-110224114D01*
X137575771Y-110166057D01*
X137546743Y-110108000D01*
X137517714Y-110078971D01*
X137459657Y-110049943D01*
X137343543Y-110020914D01*
X137198400Y-110020914D01*
X137082286Y-110049943D01*
X137024229Y-110078971D01*
X136995200Y-110108000D01*
X136966171Y-110166057D01*
X123141885Y-85375771D02*
X123345085Y-85085486D01*
X123490228Y-85375771D02*
X123490228Y-84766171D01*
X123258000Y-84766171D01*
X123199942Y-84795200D01*
X123170914Y-84824229D01*
X123141885Y-84882286D01*
X123141885Y-84969371D01*
X123170914Y-85027429D01*
X123199942Y-85056457D01*
X123258000Y-85085486D01*
X123490228Y-85085486D01*
X122909657Y-84824229D02*
X122880628Y-84795200D01*
X122822571Y-84766171D01*
X122677428Y-84766171D01*
X122619371Y-84795200D01*
X122590342Y-84824229D01*
X122561314Y-84882286D01*
X122561314Y-84940343D01*
X122590342Y-85027429D01*
X122938685Y-85375771D01*
X122561314Y-85375771D01*
X121980743Y-85375771D02*
X122329086Y-85375771D01*
X122154914Y-85375771D02*
X122154914Y-84766171D01*
X122212971Y-84853257D01*
X122271029Y-84911314D01*
X122329086Y-84940343D01*
X107191885Y-104275771D02*
X107395085Y-103985486D01*
X107540228Y-104275771D02*
X107540228Y-103666171D01*
X107308000Y-103666171D01*
X107249942Y-103695200D01*
X107220914Y-103724229D01*
X107191885Y-103782286D01*
X107191885Y-103869371D01*
X107220914Y-103927429D01*
X107249942Y-103956457D01*
X107308000Y-103985486D01*
X107540228Y-103985486D01*
X106959657Y-103724229D02*
X106930628Y-103695200D01*
X106872571Y-103666171D01*
X106727428Y-103666171D01*
X106669371Y-103695200D01*
X106640342Y-103724229D01*
X106611314Y-103782286D01*
X106611314Y-103840343D01*
X106640342Y-103927429D01*
X106988685Y-104275771D01*
X106611314Y-104275771D01*
X106379086Y-103724229D02*
X106350057Y-103695200D01*
X106292000Y-103666171D01*
X106146857Y-103666171D01*
X106088800Y-103695200D01*
X106059771Y-103724229D01*
X106030743Y-103782286D01*
X106030743Y-103840343D01*
X106059771Y-103927429D01*
X106408114Y-104275771D01*
X106030743Y-104275771D01*
X107191885Y-105375771D02*
X107395085Y-105085486D01*
X107540228Y-105375771D02*
X107540228Y-104766171D01*
X107308000Y-104766171D01*
X107249942Y-104795200D01*
X107220914Y-104824229D01*
X107191885Y-104882286D01*
X107191885Y-104969371D01*
X107220914Y-105027429D01*
X107249942Y-105056457D01*
X107308000Y-105085486D01*
X107540228Y-105085486D01*
X106959657Y-104824229D02*
X106930628Y-104795200D01*
X106872571Y-104766171D01*
X106727428Y-104766171D01*
X106669371Y-104795200D01*
X106640342Y-104824229D01*
X106611314Y-104882286D01*
X106611314Y-104940343D01*
X106640342Y-105027429D01*
X106988685Y-105375771D01*
X106611314Y-105375771D01*
X106408114Y-104766171D02*
X106030743Y-104766171D01*
X106233943Y-104998400D01*
X106146857Y-104998400D01*
X106088800Y-105027429D01*
X106059771Y-105056457D01*
X106030743Y-105114514D01*
X106030743Y-105259657D01*
X106059771Y-105317714D01*
X106088800Y-105346743D01*
X106146857Y-105375771D01*
X106321029Y-105375771D01*
X106379086Y-105346743D01*
X106408114Y-105317714D01*
X102491885Y-104875771D02*
X102695085Y-104585486D01*
X102840228Y-104875771D02*
X102840228Y-104266171D01*
X102608000Y-104266171D01*
X102549942Y-104295200D01*
X102520914Y-104324229D01*
X102491885Y-104382286D01*
X102491885Y-104469371D01*
X102520914Y-104527429D01*
X102549942Y-104556457D01*
X102608000Y-104585486D01*
X102840228Y-104585486D01*
X102259657Y-104324229D02*
X102230628Y-104295200D01*
X102172571Y-104266171D01*
X102027428Y-104266171D01*
X101969371Y-104295200D01*
X101940342Y-104324229D01*
X101911314Y-104382286D01*
X101911314Y-104440343D01*
X101940342Y-104527429D01*
X102288685Y-104875771D01*
X101911314Y-104875771D01*
X101388800Y-104469371D02*
X101388800Y-104875771D01*
X101533943Y-104237143D02*
X101679086Y-104672571D01*
X101301714Y-104672571D01*
X103991885Y-112975771D02*
X104195085Y-112685486D01*
X104340228Y-112975771D02*
X104340228Y-112366171D01*
X104108000Y-112366171D01*
X104049942Y-112395200D01*
X104020914Y-112424229D01*
X103991885Y-112482286D01*
X103991885Y-112569371D01*
X104020914Y-112627429D01*
X104049942Y-112656457D01*
X104108000Y-112685486D01*
X104340228Y-112685486D01*
X103759657Y-112424229D02*
X103730628Y-112395200D01*
X103672571Y-112366171D01*
X103527428Y-112366171D01*
X103469371Y-112395200D01*
X103440342Y-112424229D01*
X103411314Y-112482286D01*
X103411314Y-112540343D01*
X103440342Y-112627429D01*
X103788685Y-112975771D01*
X103411314Y-112975771D01*
X102888800Y-112366171D02*
X103004914Y-112366171D01*
X103062971Y-112395200D01*
X103092000Y-112424229D01*
X103150057Y-112511314D01*
X103179086Y-112627429D01*
X103179086Y-112859657D01*
X103150057Y-112917714D01*
X103121029Y-112946743D01*
X103062971Y-112975771D01*
X102946857Y-112975771D01*
X102888800Y-112946743D01*
X102859771Y-112917714D01*
X102830743Y-112859657D01*
X102830743Y-112714514D01*
X102859771Y-112656457D01*
X102888800Y-112627429D01*
X102946857Y-112598400D01*
X103062971Y-112598400D01*
X103121029Y-112627429D01*
X103150057Y-112656457D01*
X103179086Y-112714514D01*
X107191885Y-102675771D02*
X107395085Y-102385486D01*
X107540228Y-102675771D02*
X107540228Y-102066171D01*
X107308000Y-102066171D01*
X107249942Y-102095200D01*
X107220914Y-102124229D01*
X107191885Y-102182286D01*
X107191885Y-102269371D01*
X107220914Y-102327429D01*
X107249942Y-102356457D01*
X107308000Y-102385486D01*
X107540228Y-102385486D01*
X106959657Y-102124229D02*
X106930628Y-102095200D01*
X106872571Y-102066171D01*
X106727428Y-102066171D01*
X106669371Y-102095200D01*
X106640342Y-102124229D01*
X106611314Y-102182286D01*
X106611314Y-102240343D01*
X106640342Y-102327429D01*
X106988685Y-102675771D01*
X106611314Y-102675771D01*
X106408114Y-102066171D02*
X106001714Y-102066171D01*
X106262971Y-102675771D01*
X123475771Y-94408115D02*
X123185486Y-94204915D01*
X123475771Y-94059772D02*
X122866171Y-94059772D01*
X122866171Y-94292000D01*
X122895200Y-94350058D01*
X122924229Y-94379086D01*
X122982286Y-94408115D01*
X123069371Y-94408115D01*
X123127429Y-94379086D01*
X123156457Y-94350058D01*
X123185486Y-94292000D01*
X123185486Y-94059772D01*
X122924229Y-94640343D02*
X122895200Y-94669372D01*
X122866171Y-94727429D01*
X122866171Y-94872572D01*
X122895200Y-94930629D01*
X122924229Y-94959658D01*
X122982286Y-94988686D01*
X123040343Y-94988686D01*
X123127429Y-94959658D01*
X123475771Y-94611315D01*
X123475771Y-94988686D01*
X123127429Y-95337029D02*
X123098400Y-95278971D01*
X123069371Y-95249943D01*
X123011314Y-95220914D01*
X122982286Y-95220914D01*
X122924229Y-95249943D01*
X122895200Y-95278971D01*
X122866171Y-95337029D01*
X122866171Y-95453143D01*
X122895200Y-95511200D01*
X122924229Y-95540229D01*
X122982286Y-95569257D01*
X123011314Y-95569257D01*
X123069371Y-95540229D01*
X123098400Y-95511200D01*
X123127429Y-95453143D01*
X123127429Y-95337029D01*
X123156457Y-95278971D01*
X123185486Y-95249943D01*
X123243543Y-95220914D01*
X123359657Y-95220914D01*
X123417714Y-95249943D01*
X123446743Y-95278971D01*
X123475771Y-95337029D01*
X123475771Y-95453143D01*
X123446743Y-95511200D01*
X123417714Y-95540229D01*
X123359657Y-95569257D01*
X123243543Y-95569257D01*
X123185486Y-95540229D01*
X123156457Y-95511200D01*
X123127429Y-95453143D01*
X116975771Y-91858115D02*
X116685486Y-91654915D01*
X116975771Y-91509772D02*
X116366171Y-91509772D01*
X116366171Y-91742000D01*
X116395200Y-91800058D01*
X116424229Y-91829086D01*
X116482286Y-91858115D01*
X116569371Y-91858115D01*
X116627429Y-91829086D01*
X116656457Y-91800058D01*
X116685486Y-91742000D01*
X116685486Y-91509772D01*
X116424229Y-92090343D02*
X116395200Y-92119372D01*
X116366171Y-92177429D01*
X116366171Y-92322572D01*
X116395200Y-92380629D01*
X116424229Y-92409658D01*
X116482286Y-92438686D01*
X116540343Y-92438686D01*
X116627429Y-92409658D01*
X116975771Y-92061315D01*
X116975771Y-92438686D01*
X116975771Y-92728971D02*
X116975771Y-92845086D01*
X116946743Y-92903143D01*
X116917714Y-92932171D01*
X116830629Y-92990229D01*
X116714514Y-93019257D01*
X116482286Y-93019257D01*
X116424229Y-92990229D01*
X116395200Y-92961200D01*
X116366171Y-92903143D01*
X116366171Y-92787029D01*
X116395200Y-92728971D01*
X116424229Y-92699943D01*
X116482286Y-92670914D01*
X116627429Y-92670914D01*
X116685486Y-92699943D01*
X116714514Y-92728971D01*
X116743543Y-92787029D01*
X116743543Y-92903143D01*
X116714514Y-92961200D01*
X116685486Y-92990229D01*
X116627429Y-93019257D01*
X119391885Y-105475771D02*
X119595085Y-105185486D01*
X119740228Y-105475771D02*
X119740228Y-104866171D01*
X119508000Y-104866171D01*
X119449942Y-104895200D01*
X119420914Y-104924229D01*
X119391885Y-104982286D01*
X119391885Y-105069371D01*
X119420914Y-105127429D01*
X119449942Y-105156457D01*
X119508000Y-105185486D01*
X119740228Y-105185486D01*
X119188685Y-104866171D02*
X118811314Y-104866171D01*
X119014514Y-105098400D01*
X118927428Y-105098400D01*
X118869371Y-105127429D01*
X118840342Y-105156457D01*
X118811314Y-105214514D01*
X118811314Y-105359657D01*
X118840342Y-105417714D01*
X118869371Y-105446743D01*
X118927428Y-105475771D01*
X119101600Y-105475771D01*
X119159657Y-105446743D01*
X119188685Y-105417714D01*
X118433943Y-104866171D02*
X118375886Y-104866171D01*
X118317829Y-104895200D01*
X118288800Y-104924229D01*
X118259771Y-104982286D01*
X118230743Y-105098400D01*
X118230743Y-105243543D01*
X118259771Y-105359657D01*
X118288800Y-105417714D01*
X118317829Y-105446743D01*
X118375886Y-105475771D01*
X118433943Y-105475771D01*
X118492000Y-105446743D01*
X118521029Y-105417714D01*
X118550057Y-105359657D01*
X118579086Y-105243543D01*
X118579086Y-105098400D01*
X118550057Y-104982286D01*
X118521029Y-104924229D01*
X118492000Y-104895200D01*
X118433943Y-104866171D01*
X124975771Y-92208115D02*
X124685486Y-92004915D01*
X124975771Y-91859772D02*
X124366171Y-91859772D01*
X124366171Y-92092000D01*
X124395200Y-92150058D01*
X124424229Y-92179086D01*
X124482286Y-92208115D01*
X124569371Y-92208115D01*
X124627429Y-92179086D01*
X124656457Y-92150058D01*
X124685486Y-92092000D01*
X124685486Y-91859772D01*
X124366171Y-92411315D02*
X124366171Y-92788686D01*
X124598400Y-92585486D01*
X124598400Y-92672572D01*
X124627429Y-92730629D01*
X124656457Y-92759658D01*
X124714514Y-92788686D01*
X124859657Y-92788686D01*
X124917714Y-92759658D01*
X124946743Y-92730629D01*
X124975771Y-92672572D01*
X124975771Y-92498400D01*
X124946743Y-92440343D01*
X124917714Y-92411315D01*
X124975771Y-93369257D02*
X124975771Y-93020914D01*
X124975771Y-93195086D02*
X124366171Y-93195086D01*
X124453257Y-93137029D01*
X124511314Y-93078971D01*
X124540343Y-93020914D01*
X95641885Y-108675771D02*
X95845085Y-108385486D01*
X95990228Y-108675771D02*
X95990228Y-108066171D01*
X95758000Y-108066171D01*
X95699942Y-108095200D01*
X95670914Y-108124229D01*
X95641885Y-108182286D01*
X95641885Y-108269371D01*
X95670914Y-108327429D01*
X95699942Y-108356457D01*
X95758000Y-108385486D01*
X95990228Y-108385486D01*
X95438685Y-108066171D02*
X95061314Y-108066171D01*
X95264514Y-108298400D01*
X95177428Y-108298400D01*
X95119371Y-108327429D01*
X95090342Y-108356457D01*
X95061314Y-108414514D01*
X95061314Y-108559657D01*
X95090342Y-108617714D01*
X95119371Y-108646743D01*
X95177428Y-108675771D01*
X95351600Y-108675771D01*
X95409657Y-108646743D01*
X95438685Y-108617714D01*
X94829086Y-108124229D02*
X94800057Y-108095200D01*
X94742000Y-108066171D01*
X94596857Y-108066171D01*
X94538800Y-108095200D01*
X94509771Y-108124229D01*
X94480743Y-108182286D01*
X94480743Y-108240343D01*
X94509771Y-108327429D01*
X94858114Y-108675771D01*
X94480743Y-108675771D01*
X117475771Y-109108115D02*
X117185486Y-108904915D01*
X117475771Y-108759772D02*
X116866171Y-108759772D01*
X116866171Y-108992000D01*
X116895200Y-109050058D01*
X116924229Y-109079086D01*
X116982286Y-109108115D01*
X117069371Y-109108115D01*
X117127429Y-109079086D01*
X117156457Y-109050058D01*
X117185486Y-108992000D01*
X117185486Y-108759772D01*
X116866171Y-109311315D02*
X116866171Y-109688686D01*
X117098400Y-109485486D01*
X117098400Y-109572572D01*
X117127429Y-109630629D01*
X117156457Y-109659658D01*
X117214514Y-109688686D01*
X117359657Y-109688686D01*
X117417714Y-109659658D01*
X117446743Y-109630629D01*
X117475771Y-109572572D01*
X117475771Y-109398400D01*
X117446743Y-109340343D01*
X117417714Y-109311315D01*
X116866171Y-109891886D02*
X116866171Y-110269257D01*
X117098400Y-110066057D01*
X117098400Y-110153143D01*
X117127429Y-110211200D01*
X117156457Y-110240229D01*
X117214514Y-110269257D01*
X117359657Y-110269257D01*
X117417714Y-110240229D01*
X117446743Y-110211200D01*
X117475771Y-110153143D01*
X117475771Y-109978971D01*
X117446743Y-109920914D01*
X117417714Y-109891886D01*
X126675771Y-95108115D02*
X126385486Y-94904915D01*
X126675771Y-94759772D02*
X126066171Y-94759772D01*
X126066171Y-94992000D01*
X126095200Y-95050058D01*
X126124229Y-95079086D01*
X126182286Y-95108115D01*
X126269371Y-95108115D01*
X126327429Y-95079086D01*
X126356457Y-95050058D01*
X126385486Y-94992000D01*
X126385486Y-94759772D01*
X126066171Y-95311315D02*
X126066171Y-95688686D01*
X126298400Y-95485486D01*
X126298400Y-95572572D01*
X126327429Y-95630629D01*
X126356457Y-95659658D01*
X126414514Y-95688686D01*
X126559657Y-95688686D01*
X126617714Y-95659658D01*
X126646743Y-95630629D01*
X126675771Y-95572572D01*
X126675771Y-95398400D01*
X126646743Y-95340343D01*
X126617714Y-95311315D01*
X126269371Y-96211200D02*
X126675771Y-96211200D01*
X126037143Y-96066057D02*
X126472571Y-95920914D01*
X126472571Y-96298286D01*
X135141885Y-93175771D02*
X135345085Y-92885486D01*
X135490228Y-93175771D02*
X135490228Y-92566171D01*
X135258000Y-92566171D01*
X135199942Y-92595200D01*
X135170914Y-92624229D01*
X135141885Y-92682286D01*
X135141885Y-92769371D01*
X135170914Y-92827429D01*
X135199942Y-92856457D01*
X135258000Y-92885486D01*
X135490228Y-92885486D01*
X134938685Y-92566171D02*
X134561314Y-92566171D01*
X134764514Y-92798400D01*
X134677428Y-92798400D01*
X134619371Y-92827429D01*
X134590342Y-92856457D01*
X134561314Y-92914514D01*
X134561314Y-93059657D01*
X134590342Y-93117714D01*
X134619371Y-93146743D01*
X134677428Y-93175771D01*
X134851600Y-93175771D01*
X134909657Y-93146743D01*
X134938685Y-93117714D01*
X134009771Y-92566171D02*
X134300057Y-92566171D01*
X134329086Y-92856457D01*
X134300057Y-92827429D01*
X134242000Y-92798400D01*
X134096857Y-92798400D01*
X134038800Y-92827429D01*
X134009771Y-92856457D01*
X133980743Y-92914514D01*
X133980743Y-93059657D01*
X134009771Y-93117714D01*
X134038800Y-93146743D01*
X134096857Y-93175771D01*
X134242000Y-93175771D01*
X134300057Y-93146743D01*
X134329086Y-93117714D01*
X112191885Y-86175771D02*
X112395085Y-85885486D01*
X112540228Y-86175771D02*
X112540228Y-85566171D01*
X112308000Y-85566171D01*
X112249942Y-85595200D01*
X112220914Y-85624229D01*
X112191885Y-85682286D01*
X112191885Y-85769371D01*
X112220914Y-85827429D01*
X112249942Y-85856457D01*
X112308000Y-85885486D01*
X112540228Y-85885486D01*
X111988685Y-85566171D02*
X111611314Y-85566171D01*
X111814514Y-85798400D01*
X111727428Y-85798400D01*
X111669371Y-85827429D01*
X111640342Y-85856457D01*
X111611314Y-85914514D01*
X111611314Y-86059657D01*
X111640342Y-86117714D01*
X111669371Y-86146743D01*
X111727428Y-86175771D01*
X111901600Y-86175771D01*
X111959657Y-86146743D01*
X111988685Y-86117714D01*
X111088800Y-85566171D02*
X111204914Y-85566171D01*
X111262971Y-85595200D01*
X111292000Y-85624229D01*
X111350057Y-85711314D01*
X111379086Y-85827429D01*
X111379086Y-86059657D01*
X111350057Y-86117714D01*
X111321029Y-86146743D01*
X111262971Y-86175771D01*
X111146857Y-86175771D01*
X111088800Y-86146743D01*
X111059771Y-86117714D01*
X111030743Y-86059657D01*
X111030743Y-85914514D01*
X111059771Y-85856457D01*
X111088800Y-85827429D01*
X111146857Y-85798400D01*
X111262971Y-85798400D01*
X111321029Y-85827429D01*
X111350057Y-85856457D01*
X111379086Y-85914514D01*
X121175771Y-107608115D02*
X120885486Y-107404915D01*
X121175771Y-107259772D02*
X120566171Y-107259772D01*
X120566171Y-107492000D01*
X120595200Y-107550058D01*
X120624229Y-107579086D01*
X120682286Y-107608115D01*
X120769371Y-107608115D01*
X120827429Y-107579086D01*
X120856457Y-107550058D01*
X120885486Y-107492000D01*
X120885486Y-107259772D01*
X120566171Y-107811315D02*
X120566171Y-108188686D01*
X120798400Y-107985486D01*
X120798400Y-108072572D01*
X120827429Y-108130629D01*
X120856457Y-108159658D01*
X120914514Y-108188686D01*
X121059657Y-108188686D01*
X121117714Y-108159658D01*
X121146743Y-108130629D01*
X121175771Y-108072572D01*
X121175771Y-107898400D01*
X121146743Y-107840343D01*
X121117714Y-107811315D01*
X120566171Y-108391886D02*
X120566171Y-108798286D01*
X121175771Y-108537029D01*
X98641885Y-108775771D02*
X98845085Y-108485486D01*
X98990228Y-108775771D02*
X98990228Y-108166171D01*
X98758000Y-108166171D01*
X98699942Y-108195200D01*
X98670914Y-108224229D01*
X98641885Y-108282286D01*
X98641885Y-108369371D01*
X98670914Y-108427429D01*
X98699942Y-108456457D01*
X98758000Y-108485486D01*
X98990228Y-108485486D01*
X98438685Y-108166171D02*
X98061314Y-108166171D01*
X98264514Y-108398400D01*
X98177428Y-108398400D01*
X98119371Y-108427429D01*
X98090342Y-108456457D01*
X98061314Y-108514514D01*
X98061314Y-108659657D01*
X98090342Y-108717714D01*
X98119371Y-108746743D01*
X98177428Y-108775771D01*
X98351600Y-108775771D01*
X98409657Y-108746743D01*
X98438685Y-108717714D01*
X97712971Y-108427429D02*
X97771029Y-108398400D01*
X97800057Y-108369371D01*
X97829086Y-108311314D01*
X97829086Y-108282286D01*
X97800057Y-108224229D01*
X97771029Y-108195200D01*
X97712971Y-108166171D01*
X97596857Y-108166171D01*
X97538800Y-108195200D01*
X97509771Y-108224229D01*
X97480743Y-108282286D01*
X97480743Y-108311314D01*
X97509771Y-108369371D01*
X97538800Y-108398400D01*
X97596857Y-108427429D01*
X97712971Y-108427429D01*
X97771029Y-108456457D01*
X97800057Y-108485486D01*
X97829086Y-108543543D01*
X97829086Y-108659657D01*
X97800057Y-108717714D01*
X97771029Y-108746743D01*
X97712971Y-108775771D01*
X97596857Y-108775771D01*
X97538800Y-108746743D01*
X97509771Y-108717714D01*
X97480743Y-108659657D01*
X97480743Y-108543543D01*
X97509771Y-108485486D01*
X97538800Y-108456457D01*
X97596857Y-108427429D01*
X111691885Y-90175771D02*
X111895085Y-89885486D01*
X112040228Y-90175771D02*
X112040228Y-89566171D01*
X111808000Y-89566171D01*
X111749942Y-89595200D01*
X111720914Y-89624229D01*
X111691885Y-89682286D01*
X111691885Y-89769371D01*
X111720914Y-89827429D01*
X111749942Y-89856457D01*
X111808000Y-89885486D01*
X112040228Y-89885486D01*
X111488685Y-89566171D02*
X111111314Y-89566171D01*
X111314514Y-89798400D01*
X111227428Y-89798400D01*
X111169371Y-89827429D01*
X111140342Y-89856457D01*
X111111314Y-89914514D01*
X111111314Y-90059657D01*
X111140342Y-90117714D01*
X111169371Y-90146743D01*
X111227428Y-90175771D01*
X111401600Y-90175771D01*
X111459657Y-90146743D01*
X111488685Y-90117714D01*
X110821029Y-90175771D02*
X110704914Y-90175771D01*
X110646857Y-90146743D01*
X110617829Y-90117714D01*
X110559771Y-90030629D01*
X110530743Y-89914514D01*
X110530743Y-89682286D01*
X110559771Y-89624229D01*
X110588800Y-89595200D01*
X110646857Y-89566171D01*
X110762971Y-89566171D01*
X110821029Y-89595200D01*
X110850057Y-89624229D01*
X110879086Y-89682286D01*
X110879086Y-89827429D01*
X110850057Y-89885486D01*
X110821029Y-89914514D01*
X110762971Y-89943543D01*
X110646857Y-89943543D01*
X110588800Y-89914514D01*
X110559771Y-89885486D01*
X110530743Y-89827429D01*
X133191885Y-129875771D02*
X133395085Y-129585486D01*
X133540228Y-129875771D02*
X133540228Y-129266171D01*
X133308000Y-129266171D01*
X133249942Y-129295200D01*
X133220914Y-129324229D01*
X133191885Y-129382286D01*
X133191885Y-129469371D01*
X133220914Y-129527429D01*
X133249942Y-129556457D01*
X133308000Y-129585486D01*
X133540228Y-129585486D01*
X132669371Y-129469371D02*
X132669371Y-129875771D01*
X132814514Y-129237143D02*
X132959657Y-129672571D01*
X132582285Y-129672571D01*
X132233943Y-129266171D02*
X132175886Y-129266171D01*
X132117829Y-129295200D01*
X132088800Y-129324229D01*
X132059771Y-129382286D01*
X132030743Y-129498400D01*
X132030743Y-129643543D01*
X132059771Y-129759657D01*
X132088800Y-129817714D01*
X132117829Y-129846743D01*
X132175886Y-129875771D01*
X132233943Y-129875771D01*
X132292000Y-129846743D01*
X132321029Y-129817714D01*
X132350057Y-129759657D01*
X132379086Y-129643543D01*
X132379086Y-129498400D01*
X132350057Y-129382286D01*
X132321029Y-129324229D01*
X132292000Y-129295200D01*
X132233943Y-129266171D01*
X100791885Y-112275771D02*
X100995085Y-111985486D01*
X101140228Y-112275771D02*
X101140228Y-111666171D01*
X100908000Y-111666171D01*
X100849942Y-111695200D01*
X100820914Y-111724229D01*
X100791885Y-111782286D01*
X100791885Y-111869371D01*
X100820914Y-111927429D01*
X100849942Y-111956457D01*
X100908000Y-111985486D01*
X101140228Y-111985486D01*
X100269371Y-111869371D02*
X100269371Y-112275771D01*
X100414514Y-111637143D02*
X100559657Y-112072571D01*
X100182285Y-112072571D01*
X99630743Y-112275771D02*
X99979086Y-112275771D01*
X99804914Y-112275771D02*
X99804914Y-111666171D01*
X99862971Y-111753257D01*
X99921029Y-111811314D01*
X99979086Y-111840343D01*
X109691885Y-101475771D02*
X109895085Y-101185486D01*
X110040228Y-101475771D02*
X110040228Y-100866171D01*
X109808000Y-100866171D01*
X109749942Y-100895200D01*
X109720914Y-100924229D01*
X109691885Y-100982286D01*
X109691885Y-101069371D01*
X109720914Y-101127429D01*
X109749942Y-101156457D01*
X109808000Y-101185486D01*
X110040228Y-101185486D01*
X109169371Y-101069371D02*
X109169371Y-101475771D01*
X109314514Y-100837143D02*
X109459657Y-101272571D01*
X109082285Y-101272571D01*
X108879086Y-100924229D02*
X108850057Y-100895200D01*
X108792000Y-100866171D01*
X108646857Y-100866171D01*
X108588800Y-100895200D01*
X108559771Y-100924229D01*
X108530743Y-100982286D01*
X108530743Y-101040343D01*
X108559771Y-101127429D01*
X108908114Y-101475771D01*
X108530743Y-101475771D01*
X119391885Y-114475771D02*
X119595085Y-114185486D01*
X119740228Y-114475771D02*
X119740228Y-113866171D01*
X119508000Y-113866171D01*
X119449942Y-113895200D01*
X119420914Y-113924229D01*
X119391885Y-113982286D01*
X119391885Y-114069371D01*
X119420914Y-114127429D01*
X119449942Y-114156457D01*
X119508000Y-114185486D01*
X119740228Y-114185486D01*
X118869371Y-114069371D02*
X118869371Y-114475771D01*
X119014514Y-113837143D02*
X119159657Y-114272571D01*
X118782285Y-114272571D01*
X118608114Y-113866171D02*
X118230743Y-113866171D01*
X118433943Y-114098400D01*
X118346857Y-114098400D01*
X118288800Y-114127429D01*
X118259771Y-114156457D01*
X118230743Y-114214514D01*
X118230743Y-114359657D01*
X118259771Y-114417714D01*
X118288800Y-114446743D01*
X118346857Y-114475771D01*
X118521029Y-114475771D01*
X118579086Y-114446743D01*
X118608114Y-114417714D01*
X117891885Y-112475771D02*
X118095085Y-112185486D01*
X118240228Y-112475771D02*
X118240228Y-111866171D01*
X118008000Y-111866171D01*
X117949942Y-111895200D01*
X117920914Y-111924229D01*
X117891885Y-111982286D01*
X117891885Y-112069371D01*
X117920914Y-112127429D01*
X117949942Y-112156457D01*
X118008000Y-112185486D01*
X118240228Y-112185486D01*
X117369371Y-112069371D02*
X117369371Y-112475771D01*
X117514514Y-111837143D02*
X117659657Y-112272571D01*
X117282285Y-112272571D01*
X116788800Y-112069371D02*
X116788800Y-112475771D01*
X116933943Y-111837143D02*
X117079086Y-112272571D01*
X116701714Y-112272571D01*
X111991885Y-107775771D02*
X112195085Y-107485486D01*
X112340228Y-107775771D02*
X112340228Y-107166171D01*
X112108000Y-107166171D01*
X112049942Y-107195200D01*
X112020914Y-107224229D01*
X111991885Y-107282286D01*
X111991885Y-107369371D01*
X112020914Y-107427429D01*
X112049942Y-107456457D01*
X112108000Y-107485486D01*
X112340228Y-107485486D01*
X111469371Y-107369371D02*
X111469371Y-107775771D01*
X111614514Y-107137143D02*
X111759657Y-107572571D01*
X111382285Y-107572571D01*
X110859771Y-107166171D02*
X111150057Y-107166171D01*
X111179086Y-107456457D01*
X111150057Y-107427429D01*
X111092000Y-107398400D01*
X110946857Y-107398400D01*
X110888800Y-107427429D01*
X110859771Y-107456457D01*
X110830743Y-107514514D01*
X110830743Y-107659657D01*
X110859771Y-107717714D01*
X110888800Y-107746743D01*
X110946857Y-107775771D01*
X111092000Y-107775771D01*
X111150057Y-107746743D01*
X111179086Y-107717714D01*
X112091885Y-110875771D02*
X112295085Y-110585486D01*
X112440228Y-110875771D02*
X112440228Y-110266171D01*
X112208000Y-110266171D01*
X112149942Y-110295200D01*
X112120914Y-110324229D01*
X112091885Y-110382286D01*
X112091885Y-110469371D01*
X112120914Y-110527429D01*
X112149942Y-110556457D01*
X112208000Y-110585486D01*
X112440228Y-110585486D01*
X111569371Y-110469371D02*
X111569371Y-110875771D01*
X111714514Y-110237143D02*
X111859657Y-110672571D01*
X111482285Y-110672571D01*
X110988800Y-110266171D02*
X111104914Y-110266171D01*
X111162971Y-110295200D01*
X111192000Y-110324229D01*
X111250057Y-110411314D01*
X111279086Y-110527429D01*
X111279086Y-110759657D01*
X111250057Y-110817714D01*
X111221029Y-110846743D01*
X111162971Y-110875771D01*
X111046857Y-110875771D01*
X110988800Y-110846743D01*
X110959771Y-110817714D01*
X110930743Y-110759657D01*
X110930743Y-110614514D01*
X110959771Y-110556457D01*
X110988800Y-110527429D01*
X111046857Y-110498400D01*
X111162971Y-110498400D01*
X111221029Y-110527429D01*
X111250057Y-110556457D01*
X111279086Y-110614514D01*
X122391885Y-114475771D02*
X122595085Y-114185486D01*
X122740228Y-114475771D02*
X122740228Y-113866171D01*
X122508000Y-113866171D01*
X122449942Y-113895200D01*
X122420914Y-113924229D01*
X122391885Y-113982286D01*
X122391885Y-114069371D01*
X122420914Y-114127429D01*
X122449942Y-114156457D01*
X122508000Y-114185486D01*
X122740228Y-114185486D01*
X121869371Y-114069371D02*
X121869371Y-114475771D01*
X122014514Y-113837143D02*
X122159657Y-114272571D01*
X121782285Y-114272571D01*
X121608114Y-113866171D02*
X121201714Y-113866171D01*
X121462971Y-114475771D01*
X111091885Y-108775771D02*
X111295085Y-108485486D01*
X111440228Y-108775771D02*
X111440228Y-108166171D01*
X111208000Y-108166171D01*
X111149942Y-108195200D01*
X111120914Y-108224229D01*
X111091885Y-108282286D01*
X111091885Y-108369371D01*
X111120914Y-108427429D01*
X111149942Y-108456457D01*
X111208000Y-108485486D01*
X111440228Y-108485486D01*
X110569371Y-108369371D02*
X110569371Y-108775771D01*
X110714514Y-108137143D02*
X110859657Y-108572571D01*
X110482285Y-108572571D01*
X110162971Y-108427429D02*
X110221029Y-108398400D01*
X110250057Y-108369371D01*
X110279086Y-108311314D01*
X110279086Y-108282286D01*
X110250057Y-108224229D01*
X110221029Y-108195200D01*
X110162971Y-108166171D01*
X110046857Y-108166171D01*
X109988800Y-108195200D01*
X109959771Y-108224229D01*
X109930743Y-108282286D01*
X109930743Y-108311314D01*
X109959771Y-108369371D01*
X109988800Y-108398400D01*
X110046857Y-108427429D01*
X110162971Y-108427429D01*
X110221029Y-108456457D01*
X110250057Y-108485486D01*
X110279086Y-108543543D01*
X110279086Y-108659657D01*
X110250057Y-108717714D01*
X110221029Y-108746743D01*
X110162971Y-108775771D01*
X110046857Y-108775771D01*
X109988800Y-108746743D01*
X109959771Y-108717714D01*
X109930743Y-108659657D01*
X109930743Y-108543543D01*
X109959771Y-108485486D01*
X109988800Y-108456457D01*
X110046857Y-108427429D01*
X117691885Y-136475771D02*
X117895085Y-136185486D01*
X118040228Y-136475771D02*
X118040228Y-135866171D01*
X117808000Y-135866171D01*
X117749942Y-135895200D01*
X117720914Y-135924229D01*
X117691885Y-135982286D01*
X117691885Y-136069371D01*
X117720914Y-136127429D01*
X117749942Y-136156457D01*
X117808000Y-136185486D01*
X118040228Y-136185486D01*
X117169371Y-136069371D02*
X117169371Y-136475771D01*
X117314514Y-135837143D02*
X117459657Y-136272571D01*
X117082285Y-136272571D01*
X116821029Y-136475771D02*
X116704914Y-136475771D01*
X116646857Y-136446743D01*
X116617829Y-136417714D01*
X116559771Y-136330629D01*
X116530743Y-136214514D01*
X116530743Y-135982286D01*
X116559771Y-135924229D01*
X116588800Y-135895200D01*
X116646857Y-135866171D01*
X116762971Y-135866171D01*
X116821029Y-135895200D01*
X116850057Y-135924229D01*
X116879086Y-135982286D01*
X116879086Y-136127429D01*
X116850057Y-136185486D01*
X116821029Y-136214514D01*
X116762971Y-136243543D01*
X116646857Y-136243543D01*
X116588800Y-136214514D01*
X116559771Y-136185486D01*
X116530743Y-136127429D01*
X99641885Y-129875771D02*
X99845085Y-129585486D01*
X99990228Y-129875771D02*
X99990228Y-129266171D01*
X99758000Y-129266171D01*
X99699942Y-129295200D01*
X99670914Y-129324229D01*
X99641885Y-129382286D01*
X99641885Y-129469371D01*
X99670914Y-129527429D01*
X99699942Y-129556457D01*
X99758000Y-129585486D01*
X99990228Y-129585486D01*
X99090342Y-129266171D02*
X99380628Y-129266171D01*
X99409657Y-129556457D01*
X99380628Y-129527429D01*
X99322571Y-129498400D01*
X99177428Y-129498400D01*
X99119371Y-129527429D01*
X99090342Y-129556457D01*
X99061314Y-129614514D01*
X99061314Y-129759657D01*
X99090342Y-129817714D01*
X99119371Y-129846743D01*
X99177428Y-129875771D01*
X99322571Y-129875771D01*
X99380628Y-129846743D01*
X99409657Y-129817714D01*
X98683943Y-129266171D02*
X98625886Y-129266171D01*
X98567829Y-129295200D01*
X98538800Y-129324229D01*
X98509771Y-129382286D01*
X98480743Y-129498400D01*
X98480743Y-129643543D01*
X98509771Y-129759657D01*
X98538800Y-129817714D01*
X98567829Y-129846743D01*
X98625886Y-129875771D01*
X98683943Y-129875771D01*
X98742000Y-129846743D01*
X98771029Y-129817714D01*
X98800057Y-129759657D01*
X98829086Y-129643543D01*
X98829086Y-129498400D01*
X98800057Y-129382286D01*
X98771029Y-129324229D01*
X98742000Y-129295200D01*
X98683943Y-129266171D01*
X116069257Y-81466171D02*
X115720914Y-81466171D01*
X115895085Y-82075771D02*
X115895085Y-81466171D01*
X115169371Y-82017714D02*
X115198400Y-82046743D01*
X115285486Y-82075771D01*
X115343543Y-82075771D01*
X115430628Y-82046743D01*
X115488686Y-81988686D01*
X115517714Y-81930629D01*
X115546743Y-81814514D01*
X115546743Y-81727429D01*
X115517714Y-81611314D01*
X115488686Y-81553257D01*
X115430628Y-81495200D01*
X115343543Y-81466171D01*
X115285486Y-81466171D01*
X115198400Y-81495200D01*
X115169371Y-81524229D01*
X114588800Y-82075771D02*
X114937143Y-82075771D01*
X114762971Y-82075771D02*
X114762971Y-81466171D01*
X114821028Y-81553257D01*
X114879086Y-81611314D01*
X114937143Y-81640343D01*
X110691885Y-112617714D02*
X110720914Y-112646743D01*
X110808000Y-112675771D01*
X110866057Y-112675771D01*
X110953142Y-112646743D01*
X111011200Y-112588686D01*
X111040228Y-112530629D01*
X111069257Y-112414514D01*
X111069257Y-112327429D01*
X111040228Y-112211314D01*
X111011200Y-112153257D01*
X110953142Y-112095200D01*
X110866057Y-112066171D01*
X110808000Y-112066171D01*
X110720914Y-112095200D01*
X110691885Y-112124229D01*
X110459657Y-112124229D02*
X110430628Y-112095200D01*
X110372571Y-112066171D01*
X110227428Y-112066171D01*
X110169371Y-112095200D01*
X110140342Y-112124229D01*
X110111314Y-112182286D01*
X110111314Y-112240343D01*
X110140342Y-112327429D01*
X110488685Y-112675771D01*
X110111314Y-112675771D01*
X109733943Y-112066171D02*
X109675886Y-112066171D01*
X109617829Y-112095200D01*
X109588800Y-112124229D01*
X109559771Y-112182286D01*
X109530743Y-112298400D01*
X109530743Y-112443543D01*
X109559771Y-112559657D01*
X109588800Y-112617714D01*
X109617829Y-112646743D01*
X109675886Y-112675771D01*
X109733943Y-112675771D01*
X109792000Y-112646743D01*
X109821029Y-112617714D01*
X109850057Y-112559657D01*
X109879086Y-112443543D01*
X109879086Y-112298400D01*
X109850057Y-112182286D01*
X109821029Y-112124229D01*
X109792000Y-112095200D01*
X109733943Y-112066171D01*
X124591885Y-112317714D02*
X124620914Y-112346743D01*
X124708000Y-112375771D01*
X124766057Y-112375771D01*
X124853142Y-112346743D01*
X124911200Y-112288686D01*
X124940228Y-112230629D01*
X124969257Y-112114514D01*
X124969257Y-112027429D01*
X124940228Y-111911314D01*
X124911200Y-111853257D01*
X124853142Y-111795200D01*
X124766057Y-111766171D01*
X124708000Y-111766171D01*
X124620914Y-111795200D01*
X124591885Y-111824229D01*
X124011314Y-112375771D02*
X124359657Y-112375771D01*
X124185485Y-112375771D02*
X124185485Y-111766171D01*
X124243542Y-111853257D01*
X124301600Y-111911314D01*
X124359657Y-111940343D01*
X123721029Y-112375771D02*
X123604914Y-112375771D01*
X123546857Y-112346743D01*
X123517829Y-112317714D01*
X123459771Y-112230629D01*
X123430743Y-112114514D01*
X123430743Y-111882286D01*
X123459771Y-111824229D01*
X123488800Y-111795200D01*
X123546857Y-111766171D01*
X123662971Y-111766171D01*
X123721029Y-111795200D01*
X123750057Y-111824229D01*
X123779086Y-111882286D01*
X123779086Y-112027429D01*
X123750057Y-112085486D01*
X123721029Y-112114514D01*
X123662971Y-112143543D01*
X123546857Y-112143543D01*
X123488800Y-112114514D01*
X123459771Y-112085486D01*
X123430743Y-112027429D01*
X114791885Y-90617714D02*
X114820914Y-90646743D01*
X114908000Y-90675771D01*
X114966057Y-90675771D01*
X115053142Y-90646743D01*
X115111200Y-90588686D01*
X115140228Y-90530629D01*
X115169257Y-90414514D01*
X115169257Y-90327429D01*
X115140228Y-90211314D01*
X115111200Y-90153257D01*
X115053142Y-90095200D01*
X114966057Y-90066171D01*
X114908000Y-90066171D01*
X114820914Y-90095200D01*
X114791885Y-90124229D01*
X114211314Y-90675771D02*
X114559657Y-90675771D01*
X114385485Y-90675771D02*
X114385485Y-90066171D01*
X114443542Y-90153257D01*
X114501600Y-90211314D01*
X114559657Y-90240343D01*
X113862971Y-90327429D02*
X113921029Y-90298400D01*
X113950057Y-90269371D01*
X113979086Y-90211314D01*
X113979086Y-90182286D01*
X113950057Y-90124229D01*
X113921029Y-90095200D01*
X113862971Y-90066171D01*
X113746857Y-90066171D01*
X113688800Y-90095200D01*
X113659771Y-90124229D01*
X113630743Y-90182286D01*
X113630743Y-90211314D01*
X113659771Y-90269371D01*
X113688800Y-90298400D01*
X113746857Y-90327429D01*
X113862971Y-90327429D01*
X113921029Y-90356457D01*
X113950057Y-90385486D01*
X113979086Y-90443543D01*
X113979086Y-90559657D01*
X113950057Y-90617714D01*
X113921029Y-90646743D01*
X113862971Y-90675771D01*
X113746857Y-90675771D01*
X113688800Y-90646743D01*
X113659771Y-90617714D01*
X113630743Y-90559657D01*
X113630743Y-90443543D01*
X113659771Y-90385486D01*
X113688800Y-90356457D01*
X113746857Y-90327429D01*
X125391885Y-89317714D02*
X125420914Y-89346743D01*
X125508000Y-89375771D01*
X125566057Y-89375771D01*
X125653142Y-89346743D01*
X125711200Y-89288686D01*
X125740228Y-89230629D01*
X125769257Y-89114514D01*
X125769257Y-89027429D01*
X125740228Y-88911314D01*
X125711200Y-88853257D01*
X125653142Y-88795200D01*
X125566057Y-88766171D01*
X125508000Y-88766171D01*
X125420914Y-88795200D01*
X125391885Y-88824229D01*
X124811314Y-89375771D02*
X125159657Y-89375771D01*
X124985485Y-89375771D02*
X124985485Y-88766171D01*
X125043542Y-88853257D01*
X125101600Y-88911314D01*
X125159657Y-88940343D01*
X124608114Y-88766171D02*
X124201714Y-88766171D01*
X124462971Y-89375771D01*
X139317714Y-109208115D02*
X139346743Y-109179086D01*
X139375771Y-109092000D01*
X139375771Y-109033943D01*
X139346743Y-108946858D01*
X139288686Y-108888800D01*
X139230629Y-108859772D01*
X139114514Y-108830743D01*
X139027429Y-108830743D01*
X138911314Y-108859772D01*
X138853257Y-108888800D01*
X138795200Y-108946858D01*
X138766171Y-109033943D01*
X138766171Y-109092000D01*
X138795200Y-109179086D01*
X138824229Y-109208115D01*
X139375771Y-109788686D02*
X139375771Y-109440343D01*
X139375771Y-109614515D02*
X138766171Y-109614515D01*
X138853257Y-109556458D01*
X138911314Y-109498400D01*
X138940343Y-109440343D01*
X138766171Y-110311200D02*
X138766171Y-110195086D01*
X138795200Y-110137029D01*
X138824229Y-110108000D01*
X138911314Y-110049943D01*
X139027429Y-110020914D01*
X139259657Y-110020914D01*
X139317714Y-110049943D01*
X139346743Y-110078971D01*
X139375771Y-110137029D01*
X139375771Y-110253143D01*
X139346743Y-110311200D01*
X139317714Y-110340229D01*
X139259657Y-110369257D01*
X139114514Y-110369257D01*
X139056457Y-110340229D01*
X139027429Y-110311200D01*
X138998400Y-110253143D01*
X138998400Y-110137029D01*
X139027429Y-110078971D01*
X139056457Y-110049943D01*
X139114514Y-110020914D01*
X125491885Y-74917714D02*
X125520914Y-74946743D01*
X125608000Y-74975771D01*
X125666057Y-74975771D01*
X125753142Y-74946743D01*
X125811200Y-74888686D01*
X125840228Y-74830629D01*
X125869257Y-74714514D01*
X125869257Y-74627429D01*
X125840228Y-74511314D01*
X125811200Y-74453257D01*
X125753142Y-74395200D01*
X125666057Y-74366171D01*
X125608000Y-74366171D01*
X125520914Y-74395200D01*
X125491885Y-74424229D01*
X124911314Y-74975771D02*
X125259657Y-74975771D01*
X125085485Y-74975771D02*
X125085485Y-74366171D01*
X125143542Y-74453257D01*
X125201600Y-74511314D01*
X125259657Y-74540343D01*
X124359771Y-74366171D02*
X124650057Y-74366171D01*
X124679086Y-74656457D01*
X124650057Y-74627429D01*
X124592000Y-74598400D01*
X124446857Y-74598400D01*
X124388800Y-74627429D01*
X124359771Y-74656457D01*
X124330743Y-74714514D01*
X124330743Y-74859657D01*
X124359771Y-74917714D01*
X124388800Y-74946743D01*
X124446857Y-74975771D01*
X124592000Y-74975771D01*
X124650057Y-74946743D01*
X124679086Y-74917714D01*
X120891885Y-74317714D02*
X120920914Y-74346743D01*
X121008000Y-74375771D01*
X121066057Y-74375771D01*
X121153142Y-74346743D01*
X121211200Y-74288686D01*
X121240228Y-74230629D01*
X121269257Y-74114514D01*
X121269257Y-74027429D01*
X121240228Y-73911314D01*
X121211200Y-73853257D01*
X121153142Y-73795200D01*
X121066057Y-73766171D01*
X121008000Y-73766171D01*
X120920914Y-73795200D01*
X120891885Y-73824229D01*
X120311314Y-74375771D02*
X120659657Y-74375771D01*
X120485485Y-74375771D02*
X120485485Y-73766171D01*
X120543542Y-73853257D01*
X120601600Y-73911314D01*
X120659657Y-73940343D01*
X119788800Y-73969371D02*
X119788800Y-74375771D01*
X119933943Y-73737143D02*
X120079086Y-74172571D01*
X119701714Y-74172571D01*
X118691885Y-124617714D02*
X118720914Y-124646743D01*
X118808000Y-124675771D01*
X118866057Y-124675771D01*
X118953142Y-124646743D01*
X119011200Y-124588686D01*
X119040228Y-124530629D01*
X119069257Y-124414514D01*
X119069257Y-124327429D01*
X119040228Y-124211314D01*
X119011200Y-124153257D01*
X118953142Y-124095200D01*
X118866057Y-124066171D01*
X118808000Y-124066171D01*
X118720914Y-124095200D01*
X118691885Y-124124229D01*
X118111314Y-124675771D02*
X118459657Y-124675771D01*
X118285485Y-124675771D02*
X118285485Y-124066171D01*
X118343542Y-124153257D01*
X118401600Y-124211314D01*
X118459657Y-124240343D01*
X117908114Y-124066171D02*
X117530743Y-124066171D01*
X117733943Y-124298400D01*
X117646857Y-124298400D01*
X117588800Y-124327429D01*
X117559771Y-124356457D01*
X117530743Y-124414514D01*
X117530743Y-124559657D01*
X117559771Y-124617714D01*
X117588800Y-124646743D01*
X117646857Y-124675771D01*
X117821029Y-124675771D01*
X117879086Y-124646743D01*
X117908114Y-124617714D01*
X102641885Y-90117714D02*
X102670914Y-90146743D01*
X102758000Y-90175771D01*
X102816057Y-90175771D01*
X102903142Y-90146743D01*
X102961200Y-90088686D01*
X102990228Y-90030629D01*
X103019257Y-89914514D01*
X103019257Y-89827429D01*
X102990228Y-89711314D01*
X102961200Y-89653257D01*
X102903142Y-89595200D01*
X102816057Y-89566171D01*
X102758000Y-89566171D01*
X102670914Y-89595200D01*
X102641885Y-89624229D01*
X102061314Y-90175771D02*
X102409657Y-90175771D01*
X102235485Y-90175771D02*
X102235485Y-89566171D01*
X102293542Y-89653257D01*
X102351600Y-89711314D01*
X102409657Y-89740343D01*
X101683943Y-89566171D02*
X101625886Y-89566171D01*
X101567829Y-89595200D01*
X101538800Y-89624229D01*
X101509771Y-89682286D01*
X101480743Y-89798400D01*
X101480743Y-89943543D01*
X101509771Y-90059657D01*
X101538800Y-90117714D01*
X101567829Y-90146743D01*
X101625886Y-90175771D01*
X101683943Y-90175771D01*
X101742000Y-90146743D01*
X101771029Y-90117714D01*
X101800057Y-90059657D01*
X101829086Y-89943543D01*
X101829086Y-89798400D01*
X101800057Y-89682286D01*
X101771029Y-89624229D01*
X101742000Y-89595200D01*
X101683943Y-89566171D01*
X107617714Y-111648401D02*
X107646743Y-111619372D01*
X107675771Y-111532286D01*
X107675771Y-111474229D01*
X107646743Y-111387144D01*
X107588686Y-111329086D01*
X107530629Y-111300058D01*
X107414514Y-111271029D01*
X107327429Y-111271029D01*
X107211314Y-111300058D01*
X107153257Y-111329086D01*
X107095200Y-111387144D01*
X107066171Y-111474229D01*
X107066171Y-111532286D01*
X107095200Y-111619372D01*
X107124229Y-111648401D01*
X107675771Y-111938686D02*
X107675771Y-112054801D01*
X107646743Y-112112858D01*
X107617714Y-112141886D01*
X107530629Y-112199944D01*
X107414514Y-112228972D01*
X107182286Y-112228972D01*
X107124229Y-112199944D01*
X107095200Y-112170915D01*
X107066171Y-112112858D01*
X107066171Y-111996744D01*
X107095200Y-111938686D01*
X107124229Y-111909658D01*
X107182286Y-111880629D01*
X107327429Y-111880629D01*
X107385486Y-111909658D01*
X107414514Y-111938686D01*
X107443543Y-111996744D01*
X107443543Y-112112858D01*
X107414514Y-112170915D01*
X107385486Y-112199944D01*
X107327429Y-112228972D01*
X98501599Y-104817714D02*
X98530628Y-104846743D01*
X98617714Y-104875771D01*
X98675771Y-104875771D01*
X98762856Y-104846743D01*
X98820914Y-104788686D01*
X98849942Y-104730629D01*
X98878971Y-104614514D01*
X98878971Y-104527429D01*
X98849942Y-104411314D01*
X98820914Y-104353257D01*
X98762856Y-104295200D01*
X98675771Y-104266171D01*
X98617714Y-104266171D01*
X98530628Y-104295200D01*
X98501599Y-104324229D01*
X98153256Y-104527429D02*
X98211314Y-104498400D01*
X98240342Y-104469371D01*
X98269371Y-104411314D01*
X98269371Y-104382286D01*
X98240342Y-104324229D01*
X98211314Y-104295200D01*
X98153256Y-104266171D01*
X98037142Y-104266171D01*
X97979085Y-104295200D01*
X97950056Y-104324229D01*
X97921028Y-104382286D01*
X97921028Y-104411314D01*
X97950056Y-104469371D01*
X97979085Y-104498400D01*
X98037142Y-104527429D01*
X98153256Y-104527429D01*
X98211314Y-104556457D01*
X98240342Y-104585486D01*
X98269371Y-104643543D01*
X98269371Y-104759657D01*
X98240342Y-104817714D01*
X98211314Y-104846743D01*
X98153256Y-104875771D01*
X98037142Y-104875771D01*
X97979085Y-104846743D01*
X97950056Y-104817714D01*
X97921028Y-104759657D01*
X97921028Y-104643543D01*
X97950056Y-104585486D01*
X97979085Y-104556457D01*
X98037142Y-104527429D01*
X129101599Y-112867714D02*
X129130628Y-112896743D01*
X129217714Y-112925771D01*
X129275771Y-112925771D01*
X129362856Y-112896743D01*
X129420914Y-112838686D01*
X129449942Y-112780629D01*
X129478971Y-112664514D01*
X129478971Y-112577429D01*
X129449942Y-112461314D01*
X129420914Y-112403257D01*
X129362856Y-112345200D01*
X129275771Y-112316171D01*
X129217714Y-112316171D01*
X129130628Y-112345200D01*
X129101599Y-112374229D01*
X128898399Y-112316171D02*
X128491999Y-112316171D01*
X128753256Y-112925771D01*
X122001599Y-105417714D02*
X122030628Y-105446743D01*
X122117714Y-105475771D01*
X122175771Y-105475771D01*
X122262856Y-105446743D01*
X122320914Y-105388686D01*
X122349942Y-105330629D01*
X122378971Y-105214514D01*
X122378971Y-105127429D01*
X122349942Y-105011314D01*
X122320914Y-104953257D01*
X122262856Y-104895200D01*
X122175771Y-104866171D01*
X122117714Y-104866171D01*
X122030628Y-104895200D01*
X122001599Y-104924229D01*
X121479085Y-104866171D02*
X121595199Y-104866171D01*
X121653256Y-104895200D01*
X121682285Y-104924229D01*
X121740342Y-105011314D01*
X121769371Y-105127429D01*
X121769371Y-105359657D01*
X121740342Y-105417714D01*
X121711314Y-105446743D01*
X121653256Y-105475771D01*
X121537142Y-105475771D01*
X121479085Y-105446743D01*
X121450056Y-105417714D01*
X121421028Y-105359657D01*
X121421028Y-105214514D01*
X121450056Y-105156457D01*
X121479085Y-105127429D01*
X121537142Y-105098400D01*
X121653256Y-105098400D01*
X121711314Y-105127429D01*
X121740342Y-105156457D01*
X121769371Y-105214514D01*
X99401599Y-84817714D02*
X99430628Y-84846743D01*
X99517714Y-84875771D01*
X99575771Y-84875771D01*
X99662856Y-84846743D01*
X99720914Y-84788686D01*
X99749942Y-84730629D01*
X99778971Y-84614514D01*
X99778971Y-84527429D01*
X99749942Y-84411314D01*
X99720914Y-84353257D01*
X99662856Y-84295200D01*
X99575771Y-84266171D01*
X99517714Y-84266171D01*
X99430628Y-84295200D01*
X99401599Y-84324229D01*
X98850056Y-84266171D02*
X99140342Y-84266171D01*
X99169371Y-84556457D01*
X99140342Y-84527429D01*
X99082285Y-84498400D01*
X98937142Y-84498400D01*
X98879085Y-84527429D01*
X98850056Y-84556457D01*
X98821028Y-84614514D01*
X98821028Y-84759657D01*
X98850056Y-84817714D01*
X98879085Y-84846743D01*
X98937142Y-84875771D01*
X99082285Y-84875771D01*
X99140342Y-84846743D01*
X99169371Y-84817714D01*
X130101599Y-80117714D02*
X130130628Y-80146743D01*
X130217714Y-80175771D01*
X130275771Y-80175771D01*
X130362856Y-80146743D01*
X130420914Y-80088686D01*
X130449942Y-80030629D01*
X130478971Y-79914514D01*
X130478971Y-79827429D01*
X130449942Y-79711314D01*
X130420914Y-79653257D01*
X130362856Y-79595200D01*
X130275771Y-79566171D01*
X130217714Y-79566171D01*
X130130628Y-79595200D01*
X130101599Y-79624229D01*
X129579085Y-79769371D02*
X129579085Y-80175771D01*
X129724228Y-79537143D02*
X129869371Y-79972571D01*
X129491999Y-79972571D01*
X113201599Y-82917714D02*
X113230628Y-82946743D01*
X113317714Y-82975771D01*
X113375771Y-82975771D01*
X113462856Y-82946743D01*
X113520914Y-82888686D01*
X113549942Y-82830629D01*
X113578971Y-82714514D01*
X113578971Y-82627429D01*
X113549942Y-82511314D01*
X113520914Y-82453257D01*
X113462856Y-82395200D01*
X113375771Y-82366171D01*
X113317714Y-82366171D01*
X113230628Y-82395200D01*
X113201599Y-82424229D01*
X112998399Y-82366171D02*
X112621028Y-82366171D01*
X112824228Y-82598400D01*
X112737142Y-82598400D01*
X112679085Y-82627429D01*
X112650056Y-82656457D01*
X112621028Y-82714514D01*
X112621028Y-82859657D01*
X112650056Y-82917714D01*
X112679085Y-82946743D01*
X112737142Y-82975771D01*
X112911314Y-82975771D01*
X112969371Y-82946743D01*
X112998399Y-82917714D01*
X115351599Y-73567714D02*
X115380628Y-73596743D01*
X115467714Y-73625771D01*
X115525771Y-73625771D01*
X115612856Y-73596743D01*
X115670914Y-73538686D01*
X115699942Y-73480629D01*
X115728971Y-73364514D01*
X115728971Y-73277429D01*
X115699942Y-73161314D01*
X115670914Y-73103257D01*
X115612856Y-73045200D01*
X115525771Y-73016171D01*
X115467714Y-73016171D01*
X115380628Y-73045200D01*
X115351599Y-73074229D01*
X115119371Y-73074229D02*
X115090342Y-73045200D01*
X115032285Y-73016171D01*
X114887142Y-73016171D01*
X114829085Y-73045200D01*
X114800056Y-73074229D01*
X114771028Y-73132286D01*
X114771028Y-73190343D01*
X114800056Y-73277429D01*
X115148399Y-73625771D01*
X114771028Y-73625771D01*
X120801599Y-82117714D02*
X120830628Y-82146743D01*
X120917714Y-82175771D01*
X120975771Y-82175771D01*
X121062856Y-82146743D01*
X121120914Y-82088686D01*
X121149942Y-82030629D01*
X121178971Y-81914514D01*
X121178971Y-81827429D01*
X121149942Y-81711314D01*
X121120914Y-81653257D01*
X121062856Y-81595200D01*
X120975771Y-81566171D01*
X120917714Y-81566171D01*
X120830628Y-81595200D01*
X120801599Y-81624229D01*
X120221028Y-82175771D02*
X120569371Y-82175771D01*
X120395199Y-82175771D02*
X120395199Y-81566171D01*
X120453256Y-81653257D01*
X120511314Y-81711314D01*
X120569371Y-81740343D01*
X107091885Y-73017714D02*
X107120914Y-73046743D01*
X107208000Y-73075771D01*
X107266057Y-73075771D01*
X107353142Y-73046743D01*
X107411200Y-72988686D01*
X107440228Y-72930629D01*
X107469257Y-72814514D01*
X107469257Y-72727429D01*
X107440228Y-72611314D01*
X107411200Y-72553257D01*
X107353142Y-72495200D01*
X107266057Y-72466171D01*
X107208000Y-72466171D01*
X107120914Y-72495200D01*
X107091885Y-72524229D01*
X106859657Y-72524229D02*
X106830628Y-72495200D01*
X106772571Y-72466171D01*
X106627428Y-72466171D01*
X106569371Y-72495200D01*
X106540342Y-72524229D01*
X106511314Y-72582286D01*
X106511314Y-72640343D01*
X106540342Y-72727429D01*
X106888685Y-73075771D01*
X106511314Y-73075771D01*
X105930743Y-73075771D02*
X106279086Y-73075771D01*
X106104914Y-73075771D02*
X106104914Y-72466171D01*
X106162971Y-72553257D01*
X106221029Y-72611314D01*
X106279086Y-72640343D01*
%LPC*%
D22*
X94220000Y-70250000D03*
D23*
X96760000Y-70250000D03*
X99300000Y-70250000D03*
X101840000Y-70250000D03*
X104380000Y-70250000D03*
X106920000Y-70250000D03*
X109460000Y-70250000D03*
X112000000Y-70250000D03*
D24*
X133800360Y-56500000D03*
X138199640Y-56500000D03*
D25*
X136500000Y-88949640D03*
X136500000Y-84550360D03*
D26*
X137449640Y-46250000D03*
X133050360Y-46250000D03*
X131449640Y-84000000D03*
X127050360Y-84000000D03*
D27*
X96000000Y-88020000D03*
X96952500Y-85480000D03*
X95047500Y-85480000D03*
X102500000Y-97270000D03*
X103452500Y-94730000D03*
X101547500Y-94730000D03*
D28*
X121744600Y-123000000D03*
X119255400Y-123000000D03*
D29*
X120250000Y-96744600D03*
X120250000Y-94255400D03*
D28*
X120244600Y-89750000D03*
X117755400Y-89750000D03*
X110744600Y-105750000D03*
X108255400Y-105750000D03*
X108255400Y-104000000D03*
X110744600Y-104000000D03*
X93755400Y-111250000D03*
X96244600Y-111250000D03*
D30*
X137000000Y-60750000D03*
X135000000Y-60750000D03*
X134500000Y-77250000D03*
X136500000Y-77250000D03*
D31*
X120700000Y-118250000D03*
D32*
X111300000Y-118250000D03*
D33*
X116000000Y-123150000D03*
X116000000Y-114950000D03*
D31*
X93800000Y-99750000D03*
D32*
X103200000Y-99750000D03*
D33*
X98500000Y-94850000D03*
X98500000Y-103050000D03*
D31*
X120700000Y-99750000D03*
D32*
X111300000Y-99750000D03*
D33*
X116000000Y-104650000D03*
X116000000Y-96450000D03*
D31*
X128800000Y-99750000D03*
D32*
X138200000Y-99750000D03*
D33*
X133500000Y-94850000D03*
X133500000Y-103050000D03*
D31*
X93800000Y-118250000D03*
D32*
X103200000Y-118250000D03*
D33*
X98500000Y-113350000D03*
X98500000Y-121550000D03*
D31*
X128800000Y-118250000D03*
D32*
X138200000Y-118250000D03*
D33*
X133500000Y-113350000D03*
X133500000Y-121550000D03*
D31*
X111300000Y-137750000D03*
D32*
X120700000Y-137750000D03*
D33*
X116000000Y-132850000D03*
X116000000Y-141050000D03*
D31*
X93800000Y-137750000D03*
D32*
X103200000Y-137750000D03*
D33*
X98500000Y-132850000D03*
X98500000Y-141050000D03*
D31*
X128800000Y-137750000D03*
D32*
X138200000Y-137750000D03*
D33*
X133500000Y-132850000D03*
X133500000Y-141050000D03*
D22*
X134500000Y-74000000D03*
D23*
X137040000Y-74000000D03*
X134500000Y-71460000D03*
X137040000Y-71460000D03*
X134500000Y-68920000D03*
X137040000Y-68920000D03*
X134500000Y-66380000D03*
X137040000Y-66380000D03*
X134500000Y-63840000D03*
X137040000Y-63840000D03*
D22*
X125750000Y-128250000D03*
D23*
X125750000Y-125710000D03*
X125750000Y-123170000D03*
D34*
X115800000Y-83500000D03*
X115800000Y-84450000D03*
X115800000Y-82550000D03*
X118200000Y-84450000D03*
X118200000Y-82550000D03*
D35*
X119050000Y-130750000D03*
X120950000Y-130750000D03*
X120000000Y-132750000D03*
D27*
X122750000Y-92520000D03*
X123702500Y-89980000D03*
X121797500Y-89980000D03*
D36*
X122850000Y-98250000D03*
X124150000Y-97750000D03*
X124150000Y-98750000D03*
D27*
X124750000Y-103020000D03*
X125702500Y-100480000D03*
X123797500Y-100480000D03*
D37*
X113000000Y-128250000D03*
X116000000Y-128250000D03*
X119000000Y-128250000D03*
D38*
X109500000Y-128250000D03*
X122500000Y-128250000D03*
D39*
X120500000Y-67250000D03*
X98500000Y-127750000D03*
D40*
X106250000Y-77250000D03*
X130500000Y-106000000D03*
X94250000Y-106250000D03*
X123500000Y-135000000D03*
X108500000Y-113750000D03*
D41*
X114800000Y-78725000D03*
X114800000Y-78075000D03*
X114800000Y-77425000D03*
X114800000Y-76775000D03*
X119200000Y-76775000D03*
X119200000Y-77425000D03*
X119200000Y-78075000D03*
X119200000Y-78725000D03*
D42*
X119944000Y-85794600D03*
X119944000Y-86429600D03*
X119944000Y-87090000D03*
X119944000Y-87725000D03*
X114356000Y-87725000D03*
X114356000Y-87077300D03*
X114356000Y-86429600D03*
X114356000Y-85781900D03*
X100556000Y-109455400D03*
X100556000Y-108820400D03*
X100556000Y-108160000D03*
X100556000Y-107525000D03*
X106144000Y-107525000D03*
X106144000Y-108172700D03*
X106144000Y-108820400D03*
X106144000Y-109468100D03*
X122556000Y-109705400D03*
X122556000Y-109070400D03*
X122556000Y-108410000D03*
X122556000Y-107775000D03*
X128144000Y-107775000D03*
X128144000Y-108422700D03*
X128144000Y-109070400D03*
X128144000Y-109718100D03*
D34*
X112450000Y-75000000D03*
X112450000Y-74050000D03*
X112450000Y-75950000D03*
X110050000Y-74050000D03*
X110050000Y-75950000D03*
D43*
X95000000Y-80200000D03*
D44*
X94000000Y-76950000D03*
X96000000Y-76950000D03*
D45*
X133300000Y-51250000D03*
X123700000Y-51250000D03*
D46*
X131000000Y-58750000D03*
X128500000Y-58750000D03*
X126000000Y-58750000D03*
D45*
X108300000Y-80250000D03*
X98700000Y-80250000D03*
D46*
X106000000Y-87750000D03*
X103500000Y-87750000D03*
X101000000Y-87750000D03*
D47*
X127300000Y-66800000D03*
X127300000Y-69340000D03*
X127300000Y-64260000D03*
X112400000Y-91550000D03*
X109860000Y-91550000D03*
X114940000Y-91550000D03*
D43*
X134000000Y-108200000D03*
D44*
X133000000Y-104950000D03*
X135000000Y-104950000D03*
D45*
X133300000Y-80250000D03*
X123700000Y-80250000D03*
D46*
X131000000Y-87750000D03*
X128500000Y-87750000D03*
X126000000Y-87750000D03*
D43*
X106500000Y-99950000D03*
D44*
X105500000Y-96700000D03*
X107500000Y-96700000D03*
D48*
X128050000Y-92000000D03*
D44*
X131300000Y-91000000D03*
X131300000Y-93000000D03*
D35*
X120250000Y-93100000D03*
X120250000Y-91400000D03*
D49*
X106650000Y-74250000D03*
X108350000Y-74250000D03*
X103650000Y-74250000D03*
X105350000Y-74250000D03*
X96850000Y-83500000D03*
X95150000Y-83500000D03*
X101400000Y-92750000D03*
X103100000Y-92750000D03*
X100650000Y-74250000D03*
X102350000Y-74250000D03*
X97650000Y-74250000D03*
X99350000Y-74250000D03*
X121600000Y-125500000D03*
X119900000Y-125500000D03*
X94650000Y-74250000D03*
X96350000Y-74250000D03*
X115350000Y-125500000D03*
X113650000Y-125500000D03*
X110400000Y-77750000D03*
X112100000Y-77750000D03*
D35*
X110000000Y-95100000D03*
X110000000Y-93400000D03*
D49*
X119100000Y-71500000D03*
X117400000Y-71500000D03*
X105900000Y-84750000D03*
X107600000Y-84750000D03*
X119100000Y-73000000D03*
X117400000Y-73000000D03*
X110900000Y-84750000D03*
X112600000Y-84750000D03*
X112650000Y-80750000D03*
X114350000Y-80750000D03*
X121900000Y-73000000D03*
X123600000Y-73000000D03*
X121350000Y-83500000D03*
X119650000Y-83500000D03*
D35*
X137250000Y-108100000D03*
X137250000Y-106400000D03*
D49*
X121900000Y-86250000D03*
X123600000Y-86250000D03*
X105350000Y-104000000D03*
X103650000Y-104000000D03*
X105350000Y-105750000D03*
X103650000Y-105750000D03*
X102350000Y-105750000D03*
X100650000Y-105750000D03*
X104350000Y-111500000D03*
X102650000Y-111500000D03*
X105350000Y-102250000D03*
X103650000Y-102250000D03*
D35*
X122000000Y-94400000D03*
X122000000Y-96100000D03*
X117750000Y-93100000D03*
X117750000Y-91400000D03*
D49*
X119850000Y-106250000D03*
X118150000Y-106250000D03*
D35*
X125750000Y-91650000D03*
X125750000Y-93350000D03*
D49*
X96100000Y-109500000D03*
X94400000Y-109500000D03*
X119850000Y-109500000D03*
X118150000Y-109500000D03*
D35*
X127500000Y-94650000D03*
X127500000Y-96350000D03*
D49*
X135600000Y-91750000D03*
X133900000Y-91750000D03*
X110900000Y-87000000D03*
X112600000Y-87000000D03*
X118150000Y-108000000D03*
X119850000Y-108000000D03*
X97400000Y-109500000D03*
X99100000Y-109500000D03*
X112600000Y-88750000D03*
X110900000Y-88750000D03*
X131900000Y-130750000D03*
X133600000Y-130750000D03*
X99100000Y-111250000D03*
X97400000Y-111250000D03*
X110100000Y-102250000D03*
X108400000Y-102250000D03*
X119850000Y-113000000D03*
X118150000Y-113000000D03*
X118150000Y-111250000D03*
X119850000Y-111250000D03*
X110100000Y-107500000D03*
X108400000Y-107500000D03*
X113100000Y-109500000D03*
X111400000Y-109500000D03*
X121150000Y-113000000D03*
X122850000Y-113000000D03*
X110100000Y-109500000D03*
X108400000Y-109500000D03*
X118100000Y-135000000D03*
X116400000Y-135000000D03*
X100100000Y-130750000D03*
X98400000Y-130750000D03*
X115400000Y-80750000D03*
X117100000Y-80750000D03*
X110100000Y-111250000D03*
X108400000Y-111250000D03*
X121150000Y-111250000D03*
X122850000Y-111250000D03*
X116100000Y-89250000D03*
X114400000Y-89250000D03*
X123600000Y-88500000D03*
X121900000Y-88500000D03*
D35*
X139000000Y-106400000D03*
X139000000Y-108100000D03*
D49*
X121900000Y-74750000D03*
X123600000Y-74750000D03*
X119100000Y-74750000D03*
X117400000Y-74750000D03*
X116900000Y-125500000D03*
X118600000Y-125500000D03*
X103100000Y-91000000D03*
X101400000Y-91000000D03*
D35*
X106250000Y-110900000D03*
X106250000Y-112600000D03*
D49*
X97650000Y-105750000D03*
X99350000Y-105750000D03*
X128150000Y-111250000D03*
X129850000Y-111250000D03*
X121150000Y-106250000D03*
X122850000Y-106250000D03*
X98150000Y-83500000D03*
X99850000Y-83500000D03*
X129150000Y-81000000D03*
X130850000Y-81000000D03*
D35*
X114250000Y-84600000D03*
X114250000Y-82900000D03*
D49*
X116100000Y-74750000D03*
X114400000Y-74750000D03*
X119650000Y-80750000D03*
X121350000Y-80750000D03*
X109850000Y-72750000D03*
X108150000Y-72750000D03*
M02*
