G04 #@! TF.FileFunction,Copper,L1,Top,Signal*
%FSLAX46Y46*%
G04 Gerber Fmt 4.6, Leading zero omitted, Abs format (unit mm)*
G04 Created by KiCad (PCBNEW 4.0.2-stable) date 2018-09-14 12:35:54 PM*
%MOMM*%
G01*
G04 APERTURE LIST*
%ADD10C,0.200000*%
%ADD11R,1.700000X1.700000*%
%ADD12O,1.700000X1.700000*%
%ADD13O,2.500000X4.000000*%
%ADD14O,2.000000X2.500000*%
%ADD15O,3.500000X1.500000*%
%ADD16C,1.524000*%
%ADD17R,1.500000X2.000000*%
%ADD18R,2.800000X1.600000*%
%ADD19C,1.800000*%
%ADD20O,2.800000X3.500000*%
%ADD21C,1.750000*%
%ADD22C,1.270000*%
%ADD23C,0.800000*%
%ADD24C,0.900000*%
%ADD25C,1.000000*%
%ADD26C,0.500000*%
%ADD27C,0.350000*%
%ADD28C,0.250000*%
G04 APERTURE END LIST*
D10*
D11*
X94220000Y-70250000D03*
D12*
X96760000Y-70250000D03*
X99300000Y-70250000D03*
X101840000Y-70250000D03*
X104380000Y-70250000D03*
X106920000Y-70250000D03*
X109460000Y-70250000D03*
X112000000Y-70250000D03*
D13*
X120700000Y-118250000D03*
D14*
X111300000Y-118250000D03*
D15*
X116000000Y-123150000D03*
X116000000Y-114950000D03*
D13*
X93800000Y-99750000D03*
D14*
X103200000Y-99750000D03*
D15*
X98500000Y-94850000D03*
X98500000Y-103050000D03*
D13*
X120700000Y-99750000D03*
D14*
X111300000Y-99750000D03*
D15*
X116000000Y-104650000D03*
X116000000Y-96450000D03*
D13*
X128800000Y-99750000D03*
D14*
X138200000Y-99750000D03*
D15*
X133500000Y-94850000D03*
X133500000Y-103050000D03*
D13*
X93800000Y-118250000D03*
D14*
X103200000Y-118250000D03*
D15*
X98500000Y-113350000D03*
X98500000Y-121550000D03*
D13*
X128800000Y-118250000D03*
D14*
X138200000Y-118250000D03*
D15*
X133500000Y-113350000D03*
X133500000Y-121550000D03*
D13*
X111300000Y-137750000D03*
D14*
X120700000Y-137750000D03*
D15*
X116000000Y-132850000D03*
X116000000Y-141050000D03*
D13*
X93800000Y-137750000D03*
D14*
X103200000Y-137750000D03*
D15*
X98500000Y-132850000D03*
X98500000Y-141050000D03*
D13*
X128800000Y-137750000D03*
D14*
X138200000Y-137750000D03*
D15*
X133500000Y-132850000D03*
X133500000Y-141050000D03*
D11*
X134500000Y-74000000D03*
D12*
X137040000Y-74000000D03*
X134500000Y-71460000D03*
X137040000Y-71460000D03*
X134500000Y-68920000D03*
X137040000Y-68920000D03*
X134500000Y-66380000D03*
X137040000Y-66380000D03*
X134500000Y-63840000D03*
X137040000Y-63840000D03*
D11*
X125750000Y-128250000D03*
D12*
X125750000Y-125710000D03*
X125750000Y-123170000D03*
D16*
X113000000Y-128250000D03*
X116000000Y-128250000D03*
X119000000Y-128250000D03*
D17*
X109500000Y-128250000D03*
X122500000Y-128250000D03*
D18*
X120500000Y-67250000D03*
X98500000Y-127750000D03*
D19*
X106250000Y-77250000D03*
X130500000Y-106000000D03*
X94250000Y-106250000D03*
X123500000Y-135000000D03*
X108500000Y-113750000D03*
D20*
X133300000Y-51250000D03*
X123700000Y-51250000D03*
D21*
X131000000Y-58750000D03*
X128500000Y-58750000D03*
X126000000Y-58750000D03*
D20*
X108300000Y-80250000D03*
X98700000Y-80250000D03*
D21*
X106000000Y-87750000D03*
X103500000Y-87750000D03*
X101000000Y-87750000D03*
D22*
X127300000Y-66800000D03*
X127300000Y-69340000D03*
X127300000Y-64260000D03*
X112400000Y-91550000D03*
X109860000Y-91550000D03*
X114940000Y-91550000D03*
D20*
X133300000Y-80250000D03*
X123700000Y-80250000D03*
D21*
X131000000Y-87750000D03*
X128500000Y-87750000D03*
X126000000Y-87750000D03*
D23*
X110750000Y-72750000D03*
D24*
X119000000Y-103750000D03*
X116000000Y-109500000D03*
X104750000Y-109500000D03*
X132750000Y-93000000D03*
X98250000Y-84750000D03*
X129450000Y-55050000D03*
X129450000Y-53750000D03*
X129450000Y-52500000D03*
X129450000Y-51250000D03*
X129450000Y-50000000D03*
X129450000Y-48750000D03*
X129450000Y-47651480D03*
X127100000Y-111250000D03*
X115750000Y-85800000D03*
X119650000Y-82050000D03*
X120810472Y-75266277D03*
D23*
X129150000Y-77750000D03*
X129150000Y-78650000D03*
X129150000Y-79550000D03*
X138200000Y-50150000D03*
X138200000Y-51050000D03*
X138200000Y-51950000D03*
X138200000Y-52850000D03*
X137250000Y-91750000D03*
X116100000Y-73900000D03*
D24*
X104074981Y-91011791D03*
X122865045Y-103825019D03*
X106250000Y-114000000D03*
X113100000Y-110800000D03*
X112400000Y-104000000D03*
X117000000Y-111250000D03*
X109950000Y-87000000D03*
X120824980Y-78900000D03*
X122750000Y-87400000D03*
X117008377Y-107991623D03*
X93250000Y-109500000D03*
X113300000Y-77000000D03*
X117099998Y-79650000D03*
X116750000Y-84450000D03*
X114250000Y-82000000D03*
X114400000Y-72750000D03*
X100000000Y-92750000D03*
X136500000Y-78500000D03*
X136500000Y-79500000D03*
X136500000Y-80500000D03*
X136500000Y-81500000D03*
X136500000Y-82500000D03*
X100650000Y-104700000D03*
X122850000Y-105000000D03*
X118200004Y-87750000D03*
X123600000Y-71599980D03*
X107499996Y-90100000D03*
X137250000Y-105200000D03*
X108850000Y-96700000D03*
X94000000Y-85500000D03*
X109950000Y-88750000D03*
D23*
X116000000Y-117550000D03*
X108550000Y-118600000D03*
D24*
X104300000Y-92750000D03*
D23*
X112600000Y-89550000D03*
X106900000Y-106350000D03*
D25*
X136500000Y-78500000D02*
X136500000Y-77250000D01*
X136500000Y-77250000D02*
X135750000Y-76500000D01*
X135750000Y-76500000D02*
X132000000Y-76500000D01*
X132000000Y-76500000D02*
X128250000Y-72750000D01*
X128250000Y-72750000D02*
X115036396Y-72750000D01*
X115036396Y-72750000D02*
X114400000Y-72750000D01*
X136500000Y-81500000D02*
X136500000Y-82500000D01*
X136500000Y-80500000D02*
X136500000Y-81500000D01*
X136500000Y-78500000D02*
X136500000Y-79500000D01*
D26*
X132952930Y-105200000D02*
X137250000Y-105200000D01*
X108850000Y-96700000D02*
X109850000Y-97700000D01*
X130783995Y-103031065D02*
X132952930Y-105200000D01*
X109850000Y-97700000D02*
X115601889Y-97700000D01*
X115601889Y-97700000D02*
X115601889Y-97806066D01*
X115601889Y-97806066D02*
X120720822Y-102924999D01*
X120720822Y-102924999D02*
X130783995Y-102924999D01*
X130783995Y-102924999D02*
X130783995Y-103031065D01*
X132952930Y-105200000D02*
X133058996Y-105200000D01*
D27*
X136613604Y-105200000D02*
X137250000Y-105200000D01*
X133058996Y-105200000D02*
X136613604Y-105200000D01*
D28*
X120850000Y-122965685D02*
X120850000Y-132350000D01*
X120850000Y-132350000D02*
X123500000Y-135000000D01*
X116000000Y-117550000D02*
X116000000Y-118115685D01*
X116000000Y-118115685D02*
X120850000Y-122965685D01*
X108500000Y-118550000D02*
X108550000Y-118600000D01*
X108500000Y-113750000D02*
X108500000Y-118550000D01*
D26*
X104975001Y-92074999D02*
X104300000Y-92750000D01*
X104975001Y-90753997D02*
X104975001Y-92074999D01*
X112000000Y-83050000D02*
X107325001Y-87724999D01*
X112000000Y-73300000D02*
X112000000Y-83050000D01*
X107325001Y-87724999D02*
X107325001Y-88403997D01*
X107325001Y-88403997D02*
X104975001Y-90753997D01*
X127300000Y-69340000D02*
X115960000Y-69340000D01*
X115960000Y-69340000D02*
X112000000Y-73300000D01*
X126000000Y-58750000D02*
X124850000Y-59900000D01*
X124850000Y-59900000D02*
X124850000Y-66890000D01*
X124850000Y-66890000D02*
X127300000Y-69340000D01*
D27*
X133500000Y-113350000D02*
X114350000Y-113350000D01*
X114350000Y-113350000D02*
X112250000Y-111250000D01*
X99500000Y-113350000D02*
X98500000Y-113350000D01*
X112250000Y-111250000D02*
X101600000Y-111250000D01*
X101600000Y-111250000D02*
X99500000Y-113350000D01*
D28*
X131000000Y-87750000D02*
X131000000Y-93350000D01*
X132500000Y-94850000D02*
X133500000Y-94850000D01*
X131000000Y-93350000D02*
X132500000Y-94850000D01*
X105550000Y-124700000D02*
X109450000Y-124700000D01*
X109450000Y-124700000D02*
X113000000Y-128250000D01*
X95600000Y-114750000D02*
X105550000Y-124700000D01*
X95600000Y-111450000D02*
X95600000Y-114750000D01*
X97350000Y-109700000D02*
X95600000Y-111450000D01*
X100450000Y-109700000D02*
X97350000Y-109700000D01*
X106400000Y-103750000D02*
X100450000Y-109700000D01*
X106400000Y-92600000D02*
X106400000Y-103750000D01*
X109450000Y-89550000D02*
X106400000Y-92600000D01*
X112600000Y-89550000D02*
X109450000Y-89550000D01*
X128500000Y-87750000D02*
X123000000Y-93250000D01*
X123000000Y-93250000D02*
X108900000Y-93250000D01*
X108900000Y-93250000D02*
X107500000Y-94650000D01*
X107500000Y-94650000D02*
X107500000Y-103600000D01*
X107500000Y-103600000D02*
X106900000Y-104200000D01*
X106900000Y-104200000D02*
X106900000Y-106350000D01*
M02*
