M48
;DRILL file {KiCad 4.0.2-stable} date 2019-03-27 10:59:51 PM
;FORMAT={2:4/ absolute / inch / suppress leading zeros}
FMAT,2
INCH,TZ
T1C0.016
T2C0.018
T3C0.020
T4C0.025
T5C0.028
T6C0.039
T7C0.040
T8C0.047
T9C0.047
%
G90
G05
M72
T1
X42087Y-41870
X42736Y-46693
X43602Y-28642
X44331Y-35256
X44980Y-32205
X45709Y-29094
X47106Y-31378
X47598Y-31673
X48366Y-44941
X49035Y-30138
X50846Y-30610
X50846Y-30965
X50846Y-31319
X54035Y-36122
X54409Y-19744
X54409Y-20098
X54409Y-20453
X54409Y-20807
T2
X36713Y-43110
X37008Y-33661
X38681Y-33366
X39370Y-36516
X39626Y-41220
X40974Y-35831
X41063Y-36516
X41240Y-43110
X41831Y-44882
X42323Y-35472
X42854Y-38071
X43287Y-34252
X43287Y-34941
X44252Y-40945
X44528Y-43622
X44606Y-30315
X45039Y-28642
X45571Y-33780
X45669Y-43110
X46063Y-43799
X46066Y-42516
X46535Y-34547
X46969Y-40846
X47563Y-29632
X48327Y-34409
X48366Y-41339
X48372Y-40876
X48819Y-28051
X50000Y-43819
X50965Y-18760
X50965Y-19193
X50965Y-19685
X50965Y-20177
X50965Y-20669
X50965Y-21161
X50965Y-21673
X52264Y-36614
X53740Y-30906
X53740Y-31299
X53740Y-31693
X53740Y-32087
X53740Y-32480
X54035Y-41417
T4
X43252Y-36043
X44252Y-36043
X45252Y-36043
X50118Y-25299
X50118Y-26299
X50118Y-27299
T6
X37094Y-27657
X38094Y-27657
X39094Y-27657
X39764Y-34547
X40094Y-27657
X40748Y-34547
X41094Y-27657
X41732Y-34547
X42094Y-27657
X43094Y-27657
X44094Y-27657
X44488Y-50492
X45669Y-50492
X46850Y-50492
X49508Y-48492
X49508Y-49492
X49508Y-50492
X49606Y-23130
X49606Y-34547
X50591Y-23130
X50591Y-34547
X51575Y-23130
X51575Y-34547
X52953Y-25134
X52953Y-26134
X52953Y-27134
X52953Y-28134
X52953Y-29134
X53953Y-25134
X53953Y-26134
X53953Y-27134
X53953Y-28134
X53953Y-29134
T7
X37106Y-41831
X41831Y-30413
X42717Y-44783
X49114Y-52461
X51378Y-41732
T8
X38780Y-50295
X47441Y-26476
T3
X38386Y-37343G85X39173Y-37343
G05
X38386Y-40571G85X39173Y-40571
G05
X38386Y-44626G85X39173Y-44626
G05
X38386Y-47854G85X39173Y-47854
G05
X38386Y-52303G85X39173Y-52303
G05
X38386Y-55531G85X39173Y-55531
G05
X46063Y-37972G85X45276Y-37972
G05
X46063Y-41201G85X45276Y-41201
G05
X46063Y-45256G85X45276Y-45256
G05
X46063Y-48484G85X45276Y-48484
G05
X45276Y-52303G85X46063Y-52303
G05
X45276Y-55531G85X46063Y-55531
G05
X52165Y-37343G85X52953Y-37343
G05
X52165Y-40571G85X52953Y-40571
G05
X52165Y-44626G85X52953Y-44626
G05
X52165Y-47854G85X52953Y-47854
G05
X52165Y-52303G85X52953Y-52303
G05
X52165Y-55531G85X52953Y-55531
G05
T5
X43110Y-50600G85X43110Y-50384
G05
X48228Y-50600G85X48228Y-50384
G05
T6
X36929Y-38976G85X36929Y-39567
G05
X36929Y-46260G85X36929Y-46850
G05
X36929Y-53937G85X36929Y-54528
G05
X40630Y-39173G85X40630Y-39370
G05
X40630Y-46457G85X40630Y-46654
G05
X40630Y-54134G85X40630Y-54331
G05
X43819Y-39370G85X43819Y-39173
G05
X43819Y-46654G85X43819Y-46457
G05
X43819Y-53937G85X43819Y-54528
G05
X47520Y-39567G85X47520Y-38976
G05
X47520Y-46850G85X47520Y-46260
G05
X47520Y-54134G85X47520Y-54331
G05
X50709Y-38976G85X50709Y-39567
G05
X50709Y-46260G85X50709Y-46850
G05
X50709Y-53937G85X50709Y-54528
G05
X54409Y-39173G85X54409Y-39370
G05
X54409Y-46457G85X54409Y-46654
G05
X54409Y-54134G85X54409Y-54331
G05
T9
X38720Y-31594G85X38996Y-31594
G05
X42500Y-31594G85X42776Y-31594
G05
X48563Y-20177G85X48839Y-20177
G05
X48563Y-31594G85X48839Y-31594
G05
X52343Y-20177G85X52618Y-20177
G05
X52343Y-31594G85X52618Y-31594
G05
T0
M30
