M48
;DRILL file {KiCad 4.0.2-stable} date 2019-03-27 10:39:08 PM
;FORMAT={2:4/ absolute / inch / suppress leading zeros}
FMAT,2
INCH,TZ
T1C0.030
T2C0.039
%
G90
G05
M72
T2
X16484Y-29193
X17484Y-29193
X18484Y-29193
X19484Y-29193
X20484Y-29193
X21484Y-29193
X22484Y-29193
X23484Y-29193
T1
X16266Y-20851G85X16403Y-20338
G05
X16266Y-22377G85X16403Y-22891
G05
X17166Y-19019G85X17542Y-18643
G05
X17166Y-24210G85X17542Y-24586
G05
X18116Y-20787G85X18411Y-20276
G05
X18861Y-17880G85X19375Y-17742
G05
X18861Y-25349G85X19375Y-25486
G05
X20901Y-17742G85X21414Y-17880
G05
X20901Y-25486G85X21414Y-25349
G05
X21864Y-22953G85X22159Y-22441
G05
X22733Y-18643G85X23109Y-19019
G05
X22733Y-24586G85X23109Y-24210
G05
X23872Y-20338G85X24010Y-20851
G05
X23872Y-22891G85X24010Y-22377
G05
T0
M30
