G04 #@! TF.FileFunction,Copper,L1,Top,Signal*
%FSLAX46Y46*%
G04 Gerber Fmt 4.6, Leading zero omitted, Abs format (unit mm)*
G04 Created by KiCad (PCBNEW 4.0.2-stable) date 2018-09-14 12:55:35 PM*
%MOMM*%
G01*
G04 APERTURE LIST*
%ADD10C,0.200000*%
%ADD11R,1.700000X1.700000*%
%ADD12O,1.700000X1.700000*%
%ADD13C,0.250000*%
G04 APERTURE END LIST*
D10*
G36*
X47344048Y-46497562D02*
X46878174Y-44758895D01*
X49775952Y-43982438D01*
X50241826Y-45721105D01*
X47344048Y-46497562D01*
X47344048Y-46497562D01*
G37*
G36*
X43655736Y-49527056D02*
X42382944Y-48254264D01*
X44504264Y-46132944D01*
X45777056Y-47405736D01*
X43655736Y-49527056D01*
X43655736Y-49527056D01*
G37*
G36*
X41971105Y-53991826D02*
X40232438Y-53525952D01*
X41008895Y-50628174D01*
X42747562Y-51094048D01*
X41971105Y-53991826D01*
X41971105Y-53991826D01*
G37*
G36*
X40232438Y-56274048D02*
X41971105Y-55808174D01*
X42747562Y-58705952D01*
X41008895Y-59171826D01*
X40232438Y-56274048D01*
X40232438Y-56274048D01*
G37*
G36*
X42382944Y-61545736D02*
X43655736Y-60272944D01*
X45777056Y-62394264D01*
X44504264Y-63667056D01*
X42382944Y-61545736D01*
X42382944Y-61545736D01*
G37*
G36*
X46878174Y-65041105D02*
X47344048Y-63302438D01*
X50241826Y-64078895D01*
X49775952Y-65817562D01*
X46878174Y-65041105D01*
X46878174Y-65041105D01*
G37*
G36*
X55939423Y-59399038D02*
X54380577Y-58499038D01*
X55880577Y-55900962D01*
X57439423Y-56800962D01*
X55939423Y-59399038D01*
X55939423Y-59399038D01*
G37*
G36*
X46419423Y-53899038D02*
X44860577Y-52999038D01*
X46360577Y-50400962D01*
X47919423Y-51300962D01*
X46419423Y-53899038D01*
X46419423Y-53899038D01*
G37*
G36*
X52058174Y-45721105D02*
X52524048Y-43982438D01*
X55421826Y-44758895D01*
X54955952Y-46497562D01*
X52058174Y-45721105D01*
X52058174Y-45721105D01*
G37*
G36*
X56522944Y-47405736D02*
X57795736Y-46132944D01*
X59917056Y-48254264D01*
X58644264Y-49527056D01*
X56522944Y-47405736D01*
X56522944Y-47405736D01*
G37*
G36*
X59552438Y-51094048D02*
X61291105Y-50628174D01*
X62067562Y-53525952D01*
X60328895Y-53991826D01*
X59552438Y-51094048D01*
X59552438Y-51094048D01*
G37*
G36*
X61291105Y-59171826D02*
X59552438Y-58705952D01*
X60328895Y-55808174D01*
X62067562Y-56274048D01*
X61291105Y-59171826D01*
X61291105Y-59171826D01*
G37*
G36*
X57795736Y-63667056D02*
X56522944Y-62394264D01*
X58644264Y-60272944D01*
X59917056Y-61545736D01*
X57795736Y-63667056D01*
X57795736Y-63667056D01*
G37*
G36*
X52524048Y-65817562D02*
X52058174Y-64078895D01*
X54955952Y-63302438D01*
X55421826Y-65041105D01*
X52524048Y-65817562D01*
X52524048Y-65817562D01*
G37*
D11*
X41870000Y-74150000D03*
D12*
X44410000Y-74150000D03*
X46950000Y-74150000D03*
X49490000Y-74150000D03*
X52030000Y-74150000D03*
X54570000Y-74150000D03*
X57110000Y-74150000D03*
X59650000Y-74150000D03*
D13*
X41870000Y-74150000D02*
X41870000Y-64180000D01*
X41870000Y-64180000D02*
X44080000Y-61970000D01*
X46300000Y-70200000D02*
X44410000Y-72090000D01*
X44410000Y-72090000D02*
X44410000Y-74150000D01*
X49131748Y-70200000D02*
X46300000Y-70200000D01*
X53740000Y-64560000D02*
X53740000Y-65591748D01*
X53740000Y-65591748D02*
X49131748Y-70200000D01*
X59400000Y-64650000D02*
X59400000Y-63150000D01*
X59400000Y-63150000D02*
X58220000Y-61970000D01*
X56250000Y-67800000D02*
X59400000Y-64650000D01*
X53300000Y-67800000D02*
X56250000Y-67800000D01*
X46950000Y-74150000D02*
X53300000Y-67800000D01*
X49490000Y-74150000D02*
X54990000Y-68650000D01*
X54990000Y-68650000D02*
X58450000Y-68650000D01*
X58450000Y-68650000D02*
X62950000Y-64150000D01*
X62950000Y-64150000D02*
X62950000Y-59630000D01*
X62950000Y-59630000D02*
X62350000Y-59030000D01*
X62350000Y-59030000D02*
X60810000Y-57490000D01*
X52030000Y-74150000D02*
X53205001Y-72974999D01*
X60100000Y-69650000D02*
X63700000Y-66050000D01*
X53205001Y-72974999D02*
X53205001Y-72094999D01*
X53205001Y-72094999D02*
X55650000Y-69650000D01*
X55650000Y-69650000D02*
X60100000Y-69650000D01*
X63700000Y-66050000D02*
X63700000Y-56100000D01*
X63700000Y-56100000D02*
X60810000Y-53210000D01*
X60810000Y-53210000D02*
X60810000Y-52310000D01*
M02*
