G04 #@! TF.FileFunction,Copper,L2,Bot,Signal*
%FSLAX46Y46*%
G04 Gerber Fmt 4.6, Leading zero omitted, Abs format (unit mm)*
G04 Created by KiCad (PCBNEW 4.0.2-stable) date 2019-03-28 2:21:56 PM*
%MOMM*%
G01*
G04 APERTURE LIST*
%ADD10C,0.200000*%
%ADD11C,0.010000*%
%ADD12R,1.700000X1.700000*%
%ADD13O,1.700000X1.700000*%
%ADD14C,0.250000*%
G04 APERTURE END LIST*
D10*
D11*
G36*
X56022561Y-67793464D02*
X55954353Y-67797415D01*
X55893849Y-67803762D01*
X55846131Y-67812399D01*
X55845027Y-67812673D01*
X55730802Y-67849312D01*
X55628425Y-67899216D01*
X55536738Y-67963002D01*
X55497379Y-67997602D01*
X55423840Y-68076422D01*
X55361991Y-68163724D01*
X55311065Y-68261158D01*
X55270291Y-68370374D01*
X55238902Y-68493020D01*
X55221937Y-68588857D01*
X55214187Y-68651028D01*
X55208891Y-68715122D01*
X55206068Y-68777823D01*
X55205737Y-68835817D01*
X55207918Y-68885788D01*
X55212630Y-68924422D01*
X55219870Y-68948366D01*
X55252796Y-68991245D01*
X55295551Y-69021348D01*
X55344519Y-69037752D01*
X55396081Y-69039537D01*
X55446618Y-69025779D01*
X55470995Y-69012373D01*
X55494368Y-68994304D01*
X55512481Y-68973098D01*
X55526231Y-68946040D01*
X55536516Y-68910415D01*
X55544235Y-68863507D01*
X55550283Y-68802603D01*
X55553098Y-68764037D01*
X55564547Y-68645980D01*
X55582270Y-68543549D01*
X55606772Y-68455168D01*
X55638559Y-68379259D01*
X55678138Y-68314248D01*
X55709931Y-68275273D01*
X55749355Y-68235550D01*
X55787678Y-68205684D01*
X55830923Y-68181823D01*
X55885110Y-68160115D01*
X55895850Y-68156360D01*
X55929368Y-68145639D01*
X55959396Y-68138527D01*
X55991423Y-68134280D01*
X56030940Y-68132152D01*
X56079714Y-68131421D01*
X56156102Y-68133704D01*
X56220030Y-68142455D01*
X56276448Y-68159028D01*
X56330305Y-68184777D01*
X56373239Y-68211776D01*
X56439987Y-68268011D01*
X56498360Y-68338882D01*
X56547675Y-68422597D01*
X56587250Y-68517360D01*
X56616403Y-68621378D01*
X56634450Y-68732856D01*
X56640710Y-68850001D01*
X56639167Y-68910893D01*
X56626784Y-69021355D01*
X56601214Y-69120453D01*
X56561714Y-69210027D01*
X56507544Y-69291914D01*
X56466046Y-69339861D01*
X56416571Y-69389291D01*
X56366958Y-69432586D01*
X56314127Y-69471737D01*
X56254996Y-69508734D01*
X56186483Y-69545568D01*
X56105507Y-69584230D01*
X56048496Y-69609641D01*
X55927006Y-69664476D01*
X55821249Y-69716272D01*
X55729337Y-69766316D01*
X55649381Y-69815889D01*
X55579494Y-69866278D01*
X55517788Y-69918764D01*
X55462374Y-69974632D01*
X55411366Y-70035167D01*
X55398938Y-70051370D01*
X55332051Y-70151459D01*
X55280063Y-70255301D01*
X55242288Y-70365125D01*
X55218041Y-70483157D01*
X55206636Y-70611626D01*
X55205531Y-70679821D01*
X55213137Y-70828151D01*
X55234040Y-70967698D01*
X55267727Y-71097703D01*
X55313686Y-71217405D01*
X55371404Y-71326042D01*
X55440367Y-71422853D01*
X55520061Y-71507077D01*
X55609975Y-71577953D01*
X55709594Y-71634720D01*
X55818406Y-71676616D01*
X55889780Y-71694691D01*
X55954246Y-71704748D01*
X56029022Y-71711273D01*
X56106561Y-71713934D01*
X56179316Y-71712403D01*
X56219370Y-71709128D01*
X56334677Y-71688986D01*
X56444092Y-71656011D01*
X56544628Y-71611374D01*
X56633297Y-71556247D01*
X56657790Y-71537306D01*
X56734185Y-71463660D01*
X56801182Y-71375680D01*
X56858224Y-71274878D01*
X56904754Y-71162763D01*
X56940217Y-71040844D01*
X56964056Y-70910632D01*
X56975715Y-70773635D01*
X56976291Y-70672962D01*
X56974603Y-70623567D01*
X56972239Y-70588654D01*
X56968629Y-70564561D01*
X56963207Y-70547625D01*
X56955402Y-70534186D01*
X56954576Y-70533040D01*
X56919535Y-70499518D01*
X56874637Y-70477809D01*
X56824365Y-70468611D01*
X56773201Y-70472620D01*
X56725627Y-70490533D01*
X56716633Y-70496046D01*
X56680195Y-70528907D01*
X56656288Y-70571835D01*
X56644118Y-70626652D01*
X56642117Y-70666811D01*
X56636994Y-70781045D01*
X56622160Y-70889661D01*
X56598285Y-70990497D01*
X56566041Y-71081392D01*
X56526099Y-71160185D01*
X56479130Y-71224715D01*
X56463924Y-71240815D01*
X56399439Y-71294441D01*
X56327848Y-71333716D01*
X56247548Y-71359165D01*
X56156939Y-71371315D01*
X56066641Y-71371386D01*
X55966312Y-71358847D01*
X55876828Y-71331914D01*
X55798145Y-71290537D01*
X55730220Y-71234662D01*
X55673007Y-71164239D01*
X55626463Y-71079216D01*
X55590543Y-70979541D01*
X55565202Y-70865162D01*
X55553304Y-70771763D01*
X55549131Y-70647768D01*
X55560428Y-70532687D01*
X55587084Y-70426785D01*
X55628989Y-70330326D01*
X55686033Y-70243575D01*
X55758103Y-70166799D01*
X55829491Y-70110676D01*
X55857082Y-70093653D01*
X55898273Y-70070746D01*
X55950086Y-70043442D01*
X56009543Y-70013228D01*
X56073665Y-69981589D01*
X56139474Y-69950013D01*
X56203992Y-69919986D01*
X56264241Y-69892994D01*
X56275166Y-69888242D01*
X56407155Y-69822644D01*
X56527834Y-69745331D01*
X56636262Y-69657328D01*
X56731500Y-69559659D01*
X56812608Y-69453346D01*
X56878646Y-69339415D01*
X56928674Y-69218888D01*
X56947561Y-69155821D01*
X56960707Y-69090766D01*
X56970223Y-69012706D01*
X56975947Y-68926446D01*
X56977722Y-68836790D01*
X56975388Y-68748540D01*
X56968785Y-68666502D01*
X56964807Y-68635771D01*
X56936691Y-68493395D01*
X56896023Y-68362396D01*
X56843255Y-68243319D01*
X56778843Y-68136707D01*
X56703240Y-68043107D01*
X56616901Y-67963062D01*
X56520280Y-67897118D01*
X56413832Y-67845819D01*
X56298011Y-67809709D01*
X56270789Y-67803750D01*
X56222588Y-67797052D01*
X56161761Y-67793176D01*
X56093391Y-67792015D01*
X56022561Y-67793464D01*
X56022561Y-67793464D01*
G37*
X56022561Y-67793464D02*
X55954353Y-67797415D01*
X55893849Y-67803762D01*
X55846131Y-67812399D01*
X55845027Y-67812673D01*
X55730802Y-67849312D01*
X55628425Y-67899216D01*
X55536738Y-67963002D01*
X55497379Y-67997602D01*
X55423840Y-68076422D01*
X55361991Y-68163724D01*
X55311065Y-68261158D01*
X55270291Y-68370374D01*
X55238902Y-68493020D01*
X55221937Y-68588857D01*
X55214187Y-68651028D01*
X55208891Y-68715122D01*
X55206068Y-68777823D01*
X55205737Y-68835817D01*
X55207918Y-68885788D01*
X55212630Y-68924422D01*
X55219870Y-68948366D01*
X55252796Y-68991245D01*
X55295551Y-69021348D01*
X55344519Y-69037752D01*
X55396081Y-69039537D01*
X55446618Y-69025779D01*
X55470995Y-69012373D01*
X55494368Y-68994304D01*
X55512481Y-68973098D01*
X55526231Y-68946040D01*
X55536516Y-68910415D01*
X55544235Y-68863507D01*
X55550283Y-68802603D01*
X55553098Y-68764037D01*
X55564547Y-68645980D01*
X55582270Y-68543549D01*
X55606772Y-68455168D01*
X55638559Y-68379259D01*
X55678138Y-68314248D01*
X55709931Y-68275273D01*
X55749355Y-68235550D01*
X55787678Y-68205684D01*
X55830923Y-68181823D01*
X55885110Y-68160115D01*
X55895850Y-68156360D01*
X55929368Y-68145639D01*
X55959396Y-68138527D01*
X55991423Y-68134280D01*
X56030940Y-68132152D01*
X56079714Y-68131421D01*
X56156102Y-68133704D01*
X56220030Y-68142455D01*
X56276448Y-68159028D01*
X56330305Y-68184777D01*
X56373239Y-68211776D01*
X56439987Y-68268011D01*
X56498360Y-68338882D01*
X56547675Y-68422597D01*
X56587250Y-68517360D01*
X56616403Y-68621378D01*
X56634450Y-68732856D01*
X56640710Y-68850001D01*
X56639167Y-68910893D01*
X56626784Y-69021355D01*
X56601214Y-69120453D01*
X56561714Y-69210027D01*
X56507544Y-69291914D01*
X56466046Y-69339861D01*
X56416571Y-69389291D01*
X56366958Y-69432586D01*
X56314127Y-69471737D01*
X56254996Y-69508734D01*
X56186483Y-69545568D01*
X56105507Y-69584230D01*
X56048496Y-69609641D01*
X55927006Y-69664476D01*
X55821249Y-69716272D01*
X55729337Y-69766316D01*
X55649381Y-69815889D01*
X55579494Y-69866278D01*
X55517788Y-69918764D01*
X55462374Y-69974632D01*
X55411366Y-70035167D01*
X55398938Y-70051370D01*
X55332051Y-70151459D01*
X55280063Y-70255301D01*
X55242288Y-70365125D01*
X55218041Y-70483157D01*
X55206636Y-70611626D01*
X55205531Y-70679821D01*
X55213137Y-70828151D01*
X55234040Y-70967698D01*
X55267727Y-71097703D01*
X55313686Y-71217405D01*
X55371404Y-71326042D01*
X55440367Y-71422853D01*
X55520061Y-71507077D01*
X55609975Y-71577953D01*
X55709594Y-71634720D01*
X55818406Y-71676616D01*
X55889780Y-71694691D01*
X55954246Y-71704748D01*
X56029022Y-71711273D01*
X56106561Y-71713934D01*
X56179316Y-71712403D01*
X56219370Y-71709128D01*
X56334677Y-71688986D01*
X56444092Y-71656011D01*
X56544628Y-71611374D01*
X56633297Y-71556247D01*
X56657790Y-71537306D01*
X56734185Y-71463660D01*
X56801182Y-71375680D01*
X56858224Y-71274878D01*
X56904754Y-71162763D01*
X56940217Y-71040844D01*
X56964056Y-70910632D01*
X56975715Y-70773635D01*
X56976291Y-70672962D01*
X56974603Y-70623567D01*
X56972239Y-70588654D01*
X56968629Y-70564561D01*
X56963207Y-70547625D01*
X56955402Y-70534186D01*
X56954576Y-70533040D01*
X56919535Y-70499518D01*
X56874637Y-70477809D01*
X56824365Y-70468611D01*
X56773201Y-70472620D01*
X56725627Y-70490533D01*
X56716633Y-70496046D01*
X56680195Y-70528907D01*
X56656288Y-70571835D01*
X56644118Y-70626652D01*
X56642117Y-70666811D01*
X56636994Y-70781045D01*
X56622160Y-70889661D01*
X56598285Y-70990497D01*
X56566041Y-71081392D01*
X56526099Y-71160185D01*
X56479130Y-71224715D01*
X56463924Y-71240815D01*
X56399439Y-71294441D01*
X56327848Y-71333716D01*
X56247548Y-71359165D01*
X56156939Y-71371315D01*
X56066641Y-71371386D01*
X55966312Y-71358847D01*
X55876828Y-71331914D01*
X55798145Y-71290537D01*
X55730220Y-71234662D01*
X55673007Y-71164239D01*
X55626463Y-71079216D01*
X55590543Y-70979541D01*
X55565202Y-70865162D01*
X55553304Y-70771763D01*
X55549131Y-70647768D01*
X55560428Y-70532687D01*
X55587084Y-70426785D01*
X55628989Y-70330326D01*
X55686033Y-70243575D01*
X55758103Y-70166799D01*
X55829491Y-70110676D01*
X55857082Y-70093653D01*
X55898273Y-70070746D01*
X55950086Y-70043442D01*
X56009543Y-70013228D01*
X56073665Y-69981589D01*
X56139474Y-69950013D01*
X56203992Y-69919986D01*
X56264241Y-69892994D01*
X56275166Y-69888242D01*
X56407155Y-69822644D01*
X56527834Y-69745331D01*
X56636262Y-69657328D01*
X56731500Y-69559659D01*
X56812608Y-69453346D01*
X56878646Y-69339415D01*
X56928674Y-69218888D01*
X56947561Y-69155821D01*
X56960707Y-69090766D01*
X56970223Y-69012706D01*
X56975947Y-68926446D01*
X56977722Y-68836790D01*
X56975388Y-68748540D01*
X56968785Y-68666502D01*
X56964807Y-68635771D01*
X56936691Y-68493395D01*
X56896023Y-68362396D01*
X56843255Y-68243319D01*
X56778843Y-68136707D01*
X56703240Y-68043107D01*
X56616901Y-67963062D01*
X56520280Y-67897118D01*
X56413832Y-67845819D01*
X56298011Y-67809709D01*
X56270789Y-67803750D01*
X56222588Y-67797052D01*
X56161761Y-67793176D01*
X56093391Y-67792015D01*
X56022561Y-67793464D01*
G36*
X52886502Y-67798500D02*
X52841896Y-67820282D01*
X52806491Y-67853251D01*
X52782229Y-67894543D01*
X52771050Y-67941293D01*
X52774892Y-67990637D01*
X52784298Y-68018264D01*
X52790975Y-68031477D01*
X52805789Y-68059518D01*
X52828156Y-68101308D01*
X52857488Y-68155768D01*
X52893200Y-68221818D01*
X52934707Y-68298379D01*
X52981421Y-68384370D01*
X53032758Y-68478714D01*
X53088131Y-68580330D01*
X53146955Y-68688138D01*
X53208642Y-68801061D01*
X53272609Y-68918017D01*
X53279717Y-68931004D01*
X53757428Y-69803830D01*
X53757428Y-71594442D01*
X53779217Y-71631622D01*
X53812092Y-71670695D01*
X53855915Y-71697906D01*
X53906664Y-71711637D01*
X53960316Y-71710272D01*
X53970024Y-71708286D01*
X54015111Y-71689977D01*
X54055092Y-71659598D01*
X54081741Y-71625049D01*
X54084350Y-71619344D01*
X54086672Y-71611609D01*
X54088730Y-71600769D01*
X54090548Y-71585749D01*
X54092149Y-71565476D01*
X54093556Y-71538875D01*
X54094794Y-71504872D01*
X54095885Y-71462392D01*
X54096853Y-71410361D01*
X54097721Y-71347705D01*
X54098512Y-71273349D01*
X54099251Y-71186219D01*
X54099960Y-71085241D01*
X54100663Y-70969340D01*
X54101384Y-70837443D01*
X54102143Y-70688893D01*
X54106678Y-69781750D01*
X54589912Y-68899509D01*
X54671349Y-68750676D01*
X54744274Y-68617067D01*
X54809014Y-68498063D01*
X54865898Y-68393045D01*
X54915253Y-68301393D01*
X54957409Y-68222489D01*
X54992693Y-68155713D01*
X55021433Y-68100446D01*
X55043958Y-68056070D01*
X55060595Y-68021965D01*
X55071673Y-67997511D01*
X55077521Y-67982091D01*
X55078579Y-67977625D01*
X55077527Y-67923467D01*
X55060067Y-67874602D01*
X55027698Y-67833917D01*
X54990647Y-67808461D01*
X54943193Y-67793357D01*
X54892144Y-67792260D01*
X54842411Y-67804119D01*
X54798901Y-67827885D01*
X54771437Y-67855352D01*
X54763877Y-67867625D01*
X54748290Y-67894668D01*
X54725321Y-67935318D01*
X54695616Y-67988408D01*
X54659819Y-68052774D01*
X54618575Y-68127249D01*
X54572530Y-68210670D01*
X54522328Y-68301871D01*
X54468615Y-68399686D01*
X54412036Y-68502951D01*
X54353235Y-68610500D01*
X54342762Y-68629679D01*
X54284028Y-68737212D01*
X54227711Y-68840228D01*
X54174423Y-68937612D01*
X54124778Y-69028245D01*
X54079389Y-69111011D01*
X54038871Y-69184792D01*
X54003837Y-69248472D01*
X53974900Y-69300934D01*
X53952674Y-69341060D01*
X53937773Y-69367733D01*
X53930809Y-69379837D01*
X53930406Y-69380431D01*
X53925241Y-69373658D01*
X53911974Y-69352051D01*
X53891212Y-69316690D01*
X53863566Y-69268656D01*
X53829643Y-69209028D01*
X53790052Y-69138887D01*
X53745404Y-69059312D01*
X53696307Y-68971385D01*
X53643369Y-68876184D01*
X53587200Y-68774791D01*
X53528409Y-68668286D01*
X53508447Y-68632038D01*
X53448535Y-68523261D01*
X53390830Y-68418635D01*
X53335966Y-68319305D01*
X53284580Y-68226413D01*
X53237305Y-68141102D01*
X53194777Y-68064514D01*
X53157630Y-67997794D01*
X53126500Y-67942083D01*
X53102020Y-67898525D01*
X53084827Y-67868262D01*
X53075554Y-67852438D01*
X53074461Y-67850747D01*
X53045475Y-67823296D01*
X53004662Y-67802837D01*
X52957783Y-67791907D01*
X52938371Y-67790771D01*
X52886502Y-67798500D01*
X52886502Y-67798500D01*
G37*
X52886502Y-67798500D02*
X52841896Y-67820282D01*
X52806491Y-67853251D01*
X52782229Y-67894543D01*
X52771050Y-67941293D01*
X52774892Y-67990637D01*
X52784298Y-68018264D01*
X52790975Y-68031477D01*
X52805789Y-68059518D01*
X52828156Y-68101308D01*
X52857488Y-68155768D01*
X52893200Y-68221818D01*
X52934707Y-68298379D01*
X52981421Y-68384370D01*
X53032758Y-68478714D01*
X53088131Y-68580330D01*
X53146955Y-68688138D01*
X53208642Y-68801061D01*
X53272609Y-68918017D01*
X53279717Y-68931004D01*
X53757428Y-69803830D01*
X53757428Y-71594442D01*
X53779217Y-71631622D01*
X53812092Y-71670695D01*
X53855915Y-71697906D01*
X53906664Y-71711637D01*
X53960316Y-71710272D01*
X53970024Y-71708286D01*
X54015111Y-71689977D01*
X54055092Y-71659598D01*
X54081741Y-71625049D01*
X54084350Y-71619344D01*
X54086672Y-71611609D01*
X54088730Y-71600769D01*
X54090548Y-71585749D01*
X54092149Y-71565476D01*
X54093556Y-71538875D01*
X54094794Y-71504872D01*
X54095885Y-71462392D01*
X54096853Y-71410361D01*
X54097721Y-71347705D01*
X54098512Y-71273349D01*
X54099251Y-71186219D01*
X54099960Y-71085241D01*
X54100663Y-70969340D01*
X54101384Y-70837443D01*
X54102143Y-70688893D01*
X54106678Y-69781750D01*
X54589912Y-68899509D01*
X54671349Y-68750676D01*
X54744274Y-68617067D01*
X54809014Y-68498063D01*
X54865898Y-68393045D01*
X54915253Y-68301393D01*
X54957409Y-68222489D01*
X54992693Y-68155713D01*
X55021433Y-68100446D01*
X55043958Y-68056070D01*
X55060595Y-68021965D01*
X55071673Y-67997511D01*
X55077521Y-67982091D01*
X55078579Y-67977625D01*
X55077527Y-67923467D01*
X55060067Y-67874602D01*
X55027698Y-67833917D01*
X54990647Y-67808461D01*
X54943193Y-67793357D01*
X54892144Y-67792260D01*
X54842411Y-67804119D01*
X54798901Y-67827885D01*
X54771437Y-67855352D01*
X54763877Y-67867625D01*
X54748290Y-67894668D01*
X54725321Y-67935318D01*
X54695616Y-67988408D01*
X54659819Y-68052774D01*
X54618575Y-68127249D01*
X54572530Y-68210670D01*
X54522328Y-68301871D01*
X54468615Y-68399686D01*
X54412036Y-68502951D01*
X54353235Y-68610500D01*
X54342762Y-68629679D01*
X54284028Y-68737212D01*
X54227711Y-68840228D01*
X54174423Y-68937612D01*
X54124778Y-69028245D01*
X54079389Y-69111011D01*
X54038871Y-69184792D01*
X54003837Y-69248472D01*
X53974900Y-69300934D01*
X53952674Y-69341060D01*
X53937773Y-69367733D01*
X53930809Y-69379837D01*
X53930406Y-69380431D01*
X53925241Y-69373658D01*
X53911974Y-69352051D01*
X53891212Y-69316690D01*
X53863566Y-69268656D01*
X53829643Y-69209028D01*
X53790052Y-69138887D01*
X53745404Y-69059312D01*
X53696307Y-68971385D01*
X53643369Y-68876184D01*
X53587200Y-68774791D01*
X53528409Y-68668286D01*
X53508447Y-68632038D01*
X53448535Y-68523261D01*
X53390830Y-68418635D01*
X53335966Y-68319305D01*
X53284580Y-68226413D01*
X53237305Y-68141102D01*
X53194777Y-68064514D01*
X53157630Y-67997794D01*
X53126500Y-67942083D01*
X53102020Y-67898525D01*
X53084827Y-67868262D01*
X53075554Y-67852438D01*
X53074461Y-67850747D01*
X53045475Y-67823296D01*
X53004662Y-67802837D01*
X52957783Y-67791907D01*
X52938371Y-67790771D01*
X52886502Y-67798500D01*
G36*
X51754931Y-67792188D02*
X51674107Y-67796702D01*
X51599263Y-67805110D01*
X51536238Y-67817229D01*
X51534928Y-67817561D01*
X51421465Y-67855225D01*
X51318889Y-67907275D01*
X51227366Y-67973462D01*
X51147061Y-68053535D01*
X51078140Y-68147247D01*
X51020769Y-68254346D01*
X50975111Y-68374584D01*
X50941334Y-68507712D01*
X50919602Y-68653479D01*
X50911901Y-68757274D01*
X50910262Y-68805135D01*
X50909829Y-68849442D01*
X50910578Y-68885453D01*
X50912485Y-68908426D01*
X50912660Y-68909414D01*
X50928628Y-68949527D01*
X50958367Y-68986271D01*
X50997503Y-69016208D01*
X51041664Y-69035903D01*
X51081357Y-69042030D01*
X51129383Y-69033605D01*
X51174698Y-69010608D01*
X51212678Y-68976458D01*
X51238700Y-68934574D01*
X51243052Y-68922463D01*
X51246970Y-68901990D01*
X51250998Y-68868060D01*
X51254668Y-68825350D01*
X51257512Y-68778535D01*
X51257564Y-68777430D01*
X51268806Y-68647501D01*
X51289592Y-68532825D01*
X51320108Y-68433111D01*
X51360543Y-68348067D01*
X51411083Y-68277403D01*
X51471914Y-68220827D01*
X51543224Y-68178048D01*
X51625200Y-68148776D01*
X51667197Y-68139648D01*
X51770283Y-68127707D01*
X51863920Y-68130713D01*
X51949459Y-68149043D01*
X52028256Y-68183067D01*
X52101663Y-68233161D01*
X52143729Y-68271131D01*
X52180701Y-68309603D01*
X52208364Y-68344103D01*
X52231789Y-68381724D01*
X52254138Y-68425572D01*
X52296893Y-68533490D01*
X52326687Y-68649910D01*
X52343111Y-68770741D01*
X52345755Y-68891894D01*
X52334210Y-69009281D01*
X52319575Y-69079040D01*
X52285865Y-69173471D01*
X52235034Y-69262664D01*
X52167503Y-69346006D01*
X52083694Y-69422885D01*
X52081413Y-69424704D01*
X52041990Y-69454865D01*
X52002716Y-69482106D01*
X51960701Y-69508023D01*
X51913058Y-69534212D01*
X51856897Y-69562267D01*
X51789331Y-69593783D01*
X51715170Y-69626960D01*
X51611932Y-69673724D01*
X51523525Y-69716639D01*
X51447463Y-69757265D01*
X51381260Y-69797167D01*
X51322429Y-69837905D01*
X51268485Y-69881042D01*
X51216942Y-69928141D01*
X51184969Y-69960152D01*
X51108570Y-70046593D01*
X51047393Y-70133602D01*
X50998879Y-70225349D01*
X50960470Y-70326005D01*
X50960460Y-70326036D01*
X50944629Y-70377336D01*
X50932774Y-70421948D01*
X50924354Y-70464070D01*
X50918826Y-70507899D01*
X50915646Y-70557633D01*
X50914273Y-70617470D01*
X50914136Y-70684357D01*
X50914721Y-70752274D01*
X50916166Y-70806176D01*
X50918787Y-70850182D01*
X50922898Y-70888411D01*
X50928813Y-70924982D01*
X50934771Y-70954489D01*
X50971823Y-71092991D01*
X51020535Y-71218616D01*
X51080593Y-71330996D01*
X51151683Y-71429765D01*
X51233489Y-71514555D01*
X51325698Y-71584998D01*
X51427994Y-71640726D01*
X51540062Y-71681372D01*
X51562143Y-71687286D01*
X51681214Y-71708803D01*
X51808827Y-71715384D01*
X51928305Y-71708559D01*
X52049763Y-71688478D01*
X52159888Y-71654748D01*
X52259955Y-71606766D01*
X52351241Y-71543928D01*
X52429639Y-71471349D01*
X52503855Y-71380044D01*
X52565209Y-71276021D01*
X52613663Y-71159400D01*
X52649177Y-71030299D01*
X52671711Y-70888836D01*
X52681227Y-70735129D01*
X52681525Y-70711571D01*
X52681718Y-70657536D01*
X52681205Y-70618287D01*
X52679604Y-70590471D01*
X52676535Y-70570736D01*
X52671615Y-70555728D01*
X52664462Y-70542094D01*
X52661711Y-70537590D01*
X52630197Y-70502989D01*
X52588274Y-70479509D01*
X52540374Y-70467842D01*
X52490931Y-70468674D01*
X52444377Y-70482695D01*
X52417264Y-70499607D01*
X52392410Y-70522062D01*
X52374516Y-70545924D01*
X52362211Y-70574943D01*
X52354126Y-70612871D01*
X52348889Y-70663460D01*
X52347074Y-70691748D01*
X52336986Y-70813018D01*
X52321012Y-70918684D01*
X52298574Y-71010494D01*
X52269092Y-71090193D01*
X52231990Y-71159527D01*
X52186689Y-71220242D01*
X52163952Y-71244734D01*
X52102540Y-71296313D01*
X52033066Y-71334256D01*
X51953846Y-71359173D01*
X51863195Y-71371670D01*
X51807071Y-71373471D01*
X51704173Y-71365880D01*
X51611316Y-71343190D01*
X51528673Y-71305527D01*
X51456419Y-71253017D01*
X51394725Y-71185784D01*
X51343766Y-71103955D01*
X51304055Y-71008675D01*
X51283415Y-70933626D01*
X51267419Y-70848126D01*
X51257190Y-70759524D01*
X51253836Y-70679821D01*
X51260714Y-70563288D01*
X51281540Y-70457803D01*
X51316668Y-70362402D01*
X51366455Y-70276115D01*
X51430607Y-70198643D01*
X51465729Y-70164993D01*
X51504164Y-70133673D01*
X51548492Y-70103073D01*
X51601291Y-70071580D01*
X51665140Y-70037584D01*
X51742617Y-69999474D01*
X51770785Y-69986111D01*
X51829177Y-69958587D01*
X51890317Y-69929741D01*
X51949075Y-69901993D01*
X52000321Y-69877765D01*
X52030249Y-69863595D01*
X52128478Y-69812702D01*
X52215000Y-69757746D01*
X52296245Y-69694273D01*
X52363256Y-69632923D01*
X52455109Y-69535494D01*
X52529935Y-69436991D01*
X52588802Y-69335036D01*
X52632780Y-69227252D01*
X52662937Y-69111263D01*
X52680343Y-68984691D01*
X52684525Y-68918444D01*
X52683942Y-68769397D01*
X52669851Y-68627408D01*
X52642828Y-68493380D01*
X52603449Y-68368218D01*
X52552290Y-68252826D01*
X52489926Y-68148108D01*
X52416933Y-68054967D01*
X52333887Y-67974309D01*
X52241362Y-67907036D01*
X52139935Y-67854054D01*
X52030181Y-67816267D01*
X51974893Y-67803826D01*
X51911163Y-67795567D01*
X51835896Y-67791748D01*
X51754931Y-67792188D01*
X51754931Y-67792188D01*
G37*
X51754931Y-67792188D02*
X51674107Y-67796702D01*
X51599263Y-67805110D01*
X51536238Y-67817229D01*
X51534928Y-67817561D01*
X51421465Y-67855225D01*
X51318889Y-67907275D01*
X51227366Y-67973462D01*
X51147061Y-68053535D01*
X51078140Y-68147247D01*
X51020769Y-68254346D01*
X50975111Y-68374584D01*
X50941334Y-68507712D01*
X50919602Y-68653479D01*
X50911901Y-68757274D01*
X50910262Y-68805135D01*
X50909829Y-68849442D01*
X50910578Y-68885453D01*
X50912485Y-68908426D01*
X50912660Y-68909414D01*
X50928628Y-68949527D01*
X50958367Y-68986271D01*
X50997503Y-69016208D01*
X51041664Y-69035903D01*
X51081357Y-69042030D01*
X51129383Y-69033605D01*
X51174698Y-69010608D01*
X51212678Y-68976458D01*
X51238700Y-68934574D01*
X51243052Y-68922463D01*
X51246970Y-68901990D01*
X51250998Y-68868060D01*
X51254668Y-68825350D01*
X51257512Y-68778535D01*
X51257564Y-68777430D01*
X51268806Y-68647501D01*
X51289592Y-68532825D01*
X51320108Y-68433111D01*
X51360543Y-68348067D01*
X51411083Y-68277403D01*
X51471914Y-68220827D01*
X51543224Y-68178048D01*
X51625200Y-68148776D01*
X51667197Y-68139648D01*
X51770283Y-68127707D01*
X51863920Y-68130713D01*
X51949459Y-68149043D01*
X52028256Y-68183067D01*
X52101663Y-68233161D01*
X52143729Y-68271131D01*
X52180701Y-68309603D01*
X52208364Y-68344103D01*
X52231789Y-68381724D01*
X52254138Y-68425572D01*
X52296893Y-68533490D01*
X52326687Y-68649910D01*
X52343111Y-68770741D01*
X52345755Y-68891894D01*
X52334210Y-69009281D01*
X52319575Y-69079040D01*
X52285865Y-69173471D01*
X52235034Y-69262664D01*
X52167503Y-69346006D01*
X52083694Y-69422885D01*
X52081413Y-69424704D01*
X52041990Y-69454865D01*
X52002716Y-69482106D01*
X51960701Y-69508023D01*
X51913058Y-69534212D01*
X51856897Y-69562267D01*
X51789331Y-69593783D01*
X51715170Y-69626960D01*
X51611932Y-69673724D01*
X51523525Y-69716639D01*
X51447463Y-69757265D01*
X51381260Y-69797167D01*
X51322429Y-69837905D01*
X51268485Y-69881042D01*
X51216942Y-69928141D01*
X51184969Y-69960152D01*
X51108570Y-70046593D01*
X51047393Y-70133602D01*
X50998879Y-70225349D01*
X50960470Y-70326005D01*
X50960460Y-70326036D01*
X50944629Y-70377336D01*
X50932774Y-70421948D01*
X50924354Y-70464070D01*
X50918826Y-70507899D01*
X50915646Y-70557633D01*
X50914273Y-70617470D01*
X50914136Y-70684357D01*
X50914721Y-70752274D01*
X50916166Y-70806176D01*
X50918787Y-70850182D01*
X50922898Y-70888411D01*
X50928813Y-70924982D01*
X50934771Y-70954489D01*
X50971823Y-71092991D01*
X51020535Y-71218616D01*
X51080593Y-71330996D01*
X51151683Y-71429765D01*
X51233489Y-71514555D01*
X51325698Y-71584998D01*
X51427994Y-71640726D01*
X51540062Y-71681372D01*
X51562143Y-71687286D01*
X51681214Y-71708803D01*
X51808827Y-71715384D01*
X51928305Y-71708559D01*
X52049763Y-71688478D01*
X52159888Y-71654748D01*
X52259955Y-71606766D01*
X52351241Y-71543928D01*
X52429639Y-71471349D01*
X52503855Y-71380044D01*
X52565209Y-71276021D01*
X52613663Y-71159400D01*
X52649177Y-71030299D01*
X52671711Y-70888836D01*
X52681227Y-70735129D01*
X52681525Y-70711571D01*
X52681718Y-70657536D01*
X52681205Y-70618287D01*
X52679604Y-70590471D01*
X52676535Y-70570736D01*
X52671615Y-70555728D01*
X52664462Y-70542094D01*
X52661711Y-70537590D01*
X52630197Y-70502989D01*
X52588274Y-70479509D01*
X52540374Y-70467842D01*
X52490931Y-70468674D01*
X52444377Y-70482695D01*
X52417264Y-70499607D01*
X52392410Y-70522062D01*
X52374516Y-70545924D01*
X52362211Y-70574943D01*
X52354126Y-70612871D01*
X52348889Y-70663460D01*
X52347074Y-70691748D01*
X52336986Y-70813018D01*
X52321012Y-70918684D01*
X52298574Y-71010494D01*
X52269092Y-71090193D01*
X52231990Y-71159527D01*
X52186689Y-71220242D01*
X52163952Y-71244734D01*
X52102540Y-71296313D01*
X52033066Y-71334256D01*
X51953846Y-71359173D01*
X51863195Y-71371670D01*
X51807071Y-71373471D01*
X51704173Y-71365880D01*
X51611316Y-71343190D01*
X51528673Y-71305527D01*
X51456419Y-71253017D01*
X51394725Y-71185784D01*
X51343766Y-71103955D01*
X51304055Y-71008675D01*
X51283415Y-70933626D01*
X51267419Y-70848126D01*
X51257190Y-70759524D01*
X51253836Y-70679821D01*
X51260714Y-70563288D01*
X51281540Y-70457803D01*
X51316668Y-70362402D01*
X51366455Y-70276115D01*
X51430607Y-70198643D01*
X51465729Y-70164993D01*
X51504164Y-70133673D01*
X51548492Y-70103073D01*
X51601291Y-70071580D01*
X51665140Y-70037584D01*
X51742617Y-69999474D01*
X51770785Y-69986111D01*
X51829177Y-69958587D01*
X51890317Y-69929741D01*
X51949075Y-69901993D01*
X52000321Y-69877765D01*
X52030249Y-69863595D01*
X52128478Y-69812702D01*
X52215000Y-69757746D01*
X52296245Y-69694273D01*
X52363256Y-69632923D01*
X52455109Y-69535494D01*
X52529935Y-69436991D01*
X52588802Y-69335036D01*
X52632780Y-69227252D01*
X52662937Y-69111263D01*
X52680343Y-68984691D01*
X52684525Y-68918444D01*
X52683942Y-68769397D01*
X52669851Y-68627408D01*
X52642828Y-68493380D01*
X52603449Y-68368218D01*
X52552290Y-68252826D01*
X52489926Y-68148108D01*
X52416933Y-68054967D01*
X52333887Y-67974309D01*
X52241362Y-67907036D01*
X52139935Y-67854054D01*
X52030181Y-67816267D01*
X51974893Y-67803826D01*
X51911163Y-67795567D01*
X51835896Y-67791748D01*
X51754931Y-67792188D01*
G36*
X49395267Y-67790523D02*
X49288629Y-67790648D01*
X49195945Y-67790959D01*
X49116169Y-67791521D01*
X49048253Y-67792401D01*
X48991151Y-67793667D01*
X48943815Y-67795385D01*
X48905199Y-67797622D01*
X48874255Y-67800444D01*
X48849936Y-67803919D01*
X48831197Y-67808113D01*
X48816988Y-67813094D01*
X48806264Y-67818927D01*
X48797977Y-67825680D01*
X48791081Y-67833420D01*
X48784528Y-67842213D01*
X48777271Y-67852126D01*
X48773732Y-67856677D01*
X48756963Y-67881278D01*
X48747729Y-67906744D01*
X48743308Y-67941085D01*
X48742898Y-67947391D01*
X48746514Y-68005300D01*
X48764869Y-68052783D01*
X48797867Y-68089650D01*
X48822209Y-68105325D01*
X48832045Y-68110380D01*
X48841821Y-68114545D01*
X48853300Y-68117908D01*
X48868247Y-68120553D01*
X48888423Y-68122567D01*
X48915593Y-68124035D01*
X48951519Y-68125045D01*
X48997965Y-68125682D01*
X49056695Y-68126032D01*
X49129471Y-68126180D01*
X49218056Y-68126214D01*
X49639000Y-68126214D01*
X49639000Y-69854772D01*
X49638987Y-70064653D01*
X49638962Y-70257160D01*
X49638945Y-70433062D01*
X49638957Y-70593126D01*
X49639019Y-70738123D01*
X49639152Y-70868820D01*
X49639376Y-70985986D01*
X49639712Y-71090389D01*
X49640181Y-71182799D01*
X49640803Y-71263985D01*
X49641599Y-71334713D01*
X49642590Y-71395755D01*
X49643796Y-71447877D01*
X49645238Y-71491849D01*
X49646938Y-71528439D01*
X49648914Y-71558416D01*
X49651190Y-71582549D01*
X49653784Y-71601606D01*
X49656717Y-71616356D01*
X49660011Y-71627567D01*
X49663687Y-71636009D01*
X49667763Y-71642450D01*
X49672263Y-71647658D01*
X49677205Y-71652402D01*
X49682612Y-71657451D01*
X49687686Y-71662666D01*
X49725232Y-71691474D01*
X49772756Y-71709381D01*
X49824740Y-71714919D01*
X49864671Y-71709747D01*
X49911496Y-71689114D01*
X49949345Y-71653327D01*
X49961036Y-71635909D01*
X49963212Y-71631990D01*
X49965209Y-71627425D01*
X49967034Y-71621444D01*
X49968697Y-71613278D01*
X49970207Y-71602157D01*
X49971573Y-71587310D01*
X49972802Y-71567969D01*
X49973906Y-71543362D01*
X49974891Y-71512720D01*
X49975768Y-71475273D01*
X49976545Y-71430251D01*
X49977232Y-71376885D01*
X49977836Y-71314404D01*
X49978367Y-71242038D01*
X49978834Y-71159017D01*
X49979245Y-71064572D01*
X49979611Y-70957933D01*
X49979938Y-70838329D01*
X49980238Y-70704991D01*
X49980518Y-70557148D01*
X49980787Y-70394032D01*
X49981054Y-70214871D01*
X49981329Y-70018896D01*
X49981538Y-69865661D01*
X49983897Y-68126214D01*
X50366477Y-68126214D01*
X50459954Y-68126186D01*
X50537075Y-68126049D01*
X50599626Y-68125719D01*
X50649394Y-68125117D01*
X50688167Y-68124161D01*
X50717729Y-68122769D01*
X50739869Y-68120860D01*
X50756373Y-68118352D01*
X50769027Y-68115165D01*
X50779619Y-68111216D01*
X50788806Y-68106973D01*
X50830974Y-68077362D01*
X50860564Y-68037549D01*
X50876921Y-67991001D01*
X50879394Y-67941187D01*
X50867331Y-67891576D01*
X50840080Y-67845635D01*
X50838340Y-67843536D01*
X50831572Y-67835207D01*
X50825392Y-67827798D01*
X50818755Y-67821256D01*
X50810618Y-67815527D01*
X50799935Y-67810557D01*
X50785663Y-67806292D01*
X50766755Y-67802679D01*
X50742169Y-67799664D01*
X50710858Y-67797193D01*
X50671780Y-67795213D01*
X50623888Y-67793669D01*
X50566139Y-67792508D01*
X50497488Y-67791676D01*
X50416890Y-67791119D01*
X50323300Y-67790784D01*
X50215675Y-67790617D01*
X50092969Y-67790565D01*
X49954138Y-67790572D01*
X49809380Y-67790586D01*
X49654596Y-67790559D01*
X49516907Y-67790516D01*
X49395267Y-67790523D01*
X49395267Y-67790523D01*
G37*
X49395267Y-67790523D02*
X49288629Y-67790648D01*
X49195945Y-67790959D01*
X49116169Y-67791521D01*
X49048253Y-67792401D01*
X48991151Y-67793667D01*
X48943815Y-67795385D01*
X48905199Y-67797622D01*
X48874255Y-67800444D01*
X48849936Y-67803919D01*
X48831197Y-67808113D01*
X48816988Y-67813094D01*
X48806264Y-67818927D01*
X48797977Y-67825680D01*
X48791081Y-67833420D01*
X48784528Y-67842213D01*
X48777271Y-67852126D01*
X48773732Y-67856677D01*
X48756963Y-67881278D01*
X48747729Y-67906744D01*
X48743308Y-67941085D01*
X48742898Y-67947391D01*
X48746514Y-68005300D01*
X48764869Y-68052783D01*
X48797867Y-68089650D01*
X48822209Y-68105325D01*
X48832045Y-68110380D01*
X48841821Y-68114545D01*
X48853300Y-68117908D01*
X48868247Y-68120553D01*
X48888423Y-68122567D01*
X48915593Y-68124035D01*
X48951519Y-68125045D01*
X48997965Y-68125682D01*
X49056695Y-68126032D01*
X49129471Y-68126180D01*
X49218056Y-68126214D01*
X49639000Y-68126214D01*
X49639000Y-69854772D01*
X49638987Y-70064653D01*
X49638962Y-70257160D01*
X49638945Y-70433062D01*
X49638957Y-70593126D01*
X49639019Y-70738123D01*
X49639152Y-70868820D01*
X49639376Y-70985986D01*
X49639712Y-71090389D01*
X49640181Y-71182799D01*
X49640803Y-71263985D01*
X49641599Y-71334713D01*
X49642590Y-71395755D01*
X49643796Y-71447877D01*
X49645238Y-71491849D01*
X49646938Y-71528439D01*
X49648914Y-71558416D01*
X49651190Y-71582549D01*
X49653784Y-71601606D01*
X49656717Y-71616356D01*
X49660011Y-71627567D01*
X49663687Y-71636009D01*
X49667763Y-71642450D01*
X49672263Y-71647658D01*
X49677205Y-71652402D01*
X49682612Y-71657451D01*
X49687686Y-71662666D01*
X49725232Y-71691474D01*
X49772756Y-71709381D01*
X49824740Y-71714919D01*
X49864671Y-71709747D01*
X49911496Y-71689114D01*
X49949345Y-71653327D01*
X49961036Y-71635909D01*
X49963212Y-71631990D01*
X49965209Y-71627425D01*
X49967034Y-71621444D01*
X49968697Y-71613278D01*
X49970207Y-71602157D01*
X49971573Y-71587310D01*
X49972802Y-71567969D01*
X49973906Y-71543362D01*
X49974891Y-71512720D01*
X49975768Y-71475273D01*
X49976545Y-71430251D01*
X49977232Y-71376885D01*
X49977836Y-71314404D01*
X49978367Y-71242038D01*
X49978834Y-71159017D01*
X49979245Y-71064572D01*
X49979611Y-70957933D01*
X49979938Y-70838329D01*
X49980238Y-70704991D01*
X49980518Y-70557148D01*
X49980787Y-70394032D01*
X49981054Y-70214871D01*
X49981329Y-70018896D01*
X49981538Y-69865661D01*
X49983897Y-68126214D01*
X50366477Y-68126214D01*
X50459954Y-68126186D01*
X50537075Y-68126049D01*
X50599626Y-68125719D01*
X50649394Y-68125117D01*
X50688167Y-68124161D01*
X50717729Y-68122769D01*
X50739869Y-68120860D01*
X50756373Y-68118352D01*
X50769027Y-68115165D01*
X50779619Y-68111216D01*
X50788806Y-68106973D01*
X50830974Y-68077362D01*
X50860564Y-68037549D01*
X50876921Y-67991001D01*
X50879394Y-67941187D01*
X50867331Y-67891576D01*
X50840080Y-67845635D01*
X50838340Y-67843536D01*
X50831572Y-67835207D01*
X50825392Y-67827798D01*
X50818755Y-67821256D01*
X50810618Y-67815527D01*
X50799935Y-67810557D01*
X50785663Y-67806292D01*
X50766755Y-67802679D01*
X50742169Y-67799664D01*
X50710858Y-67797193D01*
X50671780Y-67795213D01*
X50623888Y-67793669D01*
X50566139Y-67792508D01*
X50497488Y-67791676D01*
X50416890Y-67791119D01*
X50323300Y-67790784D01*
X50215675Y-67790617D01*
X50092969Y-67790565D01*
X49954138Y-67790572D01*
X49809380Y-67790586D01*
X49654596Y-67790559D01*
X49516907Y-67790516D01*
X49395267Y-67790523D01*
G36*
X48034508Y-67791704D02*
X47910817Y-67792052D01*
X47838321Y-67792349D01*
X47717434Y-67792904D01*
X47613354Y-67793439D01*
X47524748Y-67793996D01*
X47450279Y-67794619D01*
X47388615Y-67795350D01*
X47338419Y-67796232D01*
X47298356Y-67797310D01*
X47267093Y-67798625D01*
X47243294Y-67800221D01*
X47225625Y-67802141D01*
X47212750Y-67804428D01*
X47203335Y-67807125D01*
X47196045Y-67810275D01*
X47190676Y-67813250D01*
X47146544Y-67848491D01*
X47116361Y-67892310D01*
X47101083Y-67941634D01*
X47101667Y-67993392D01*
X47118822Y-68044040D01*
X47147505Y-68085945D01*
X47183641Y-68113089D01*
X47222166Y-68126600D01*
X47237732Y-68128141D01*
X47269668Y-68129596D01*
X47316200Y-68130938D01*
X47375555Y-68132139D01*
X47445959Y-68133171D01*
X47525640Y-68134007D01*
X47612824Y-68134620D01*
X47705737Y-68134982D01*
X47768018Y-68135069D01*
X48278285Y-68135286D01*
X48278285Y-69586714D01*
X47749875Y-69586914D01*
X47638217Y-69586984D01*
X47543234Y-69587133D01*
X47463454Y-69587405D01*
X47397409Y-69587844D01*
X47343630Y-69588496D01*
X47300648Y-69589404D01*
X47266992Y-69590612D01*
X47241194Y-69592165D01*
X47221784Y-69594108D01*
X47207293Y-69596484D01*
X47196253Y-69599339D01*
X47187192Y-69602715D01*
X47184312Y-69603985D01*
X47146031Y-69630442D01*
X47119202Y-69667476D01*
X47103975Y-69711471D01*
X47100499Y-69758813D01*
X47108925Y-69805885D01*
X47129402Y-69849073D01*
X47162080Y-69884761D01*
X47172368Y-69892216D01*
X47211053Y-69917822D01*
X47744669Y-69920300D01*
X48278285Y-69922779D01*
X48278285Y-71382436D01*
X47744669Y-71384914D01*
X47211053Y-71387393D01*
X47172368Y-71412999D01*
X47135881Y-71446732D01*
X47112095Y-71488755D01*
X47100867Y-71535465D01*
X47102051Y-71583255D01*
X47115504Y-71628520D01*
X47141080Y-71667655D01*
X47178636Y-71697056D01*
X47183849Y-71699714D01*
X47191696Y-71703332D01*
X47200092Y-71706454D01*
X47210363Y-71709114D01*
X47223833Y-71711349D01*
X47241828Y-71713196D01*
X47265674Y-71714691D01*
X47296696Y-71715871D01*
X47336219Y-71716772D01*
X47385570Y-71717430D01*
X47446073Y-71717882D01*
X47519053Y-71718164D01*
X47605838Y-71718314D01*
X47707750Y-71718366D01*
X47826118Y-71718359D01*
X47861596Y-71718351D01*
X48500535Y-71718202D01*
X48536636Y-71697755D01*
X48565885Y-71675053D01*
X48590373Y-71645853D01*
X48593184Y-71641208D01*
X48613630Y-71605107D01*
X48613779Y-69760978D01*
X48613794Y-69545851D01*
X48613798Y-69348117D01*
X48613784Y-69167029D01*
X48613745Y-69001838D01*
X48613673Y-68851794D01*
X48613562Y-68716150D01*
X48613405Y-68594156D01*
X48613194Y-68485063D01*
X48612923Y-68388123D01*
X48612584Y-68302588D01*
X48612170Y-68227708D01*
X48611674Y-68162734D01*
X48611090Y-68106918D01*
X48610409Y-68059511D01*
X48609625Y-68019765D01*
X48608731Y-67986930D01*
X48607720Y-67960258D01*
X48606584Y-67939000D01*
X48605317Y-67922408D01*
X48603911Y-67909731D01*
X48602359Y-67900223D01*
X48600655Y-67893134D01*
X48598791Y-67887715D01*
X48596760Y-67883218D01*
X48595991Y-67881688D01*
X48566519Y-67841208D01*
X48524711Y-67812645D01*
X48491464Y-67800176D01*
X48478034Y-67797926D01*
X48453854Y-67796037D01*
X48418058Y-67794498D01*
X48369780Y-67793300D01*
X48308153Y-67792432D01*
X48232309Y-67791883D01*
X48141383Y-67791644D01*
X48034508Y-67791704D01*
X48034508Y-67791704D01*
G37*
X48034508Y-67791704D02*
X47910817Y-67792052D01*
X47838321Y-67792349D01*
X47717434Y-67792904D01*
X47613354Y-67793439D01*
X47524748Y-67793996D01*
X47450279Y-67794619D01*
X47388615Y-67795350D01*
X47338419Y-67796232D01*
X47298356Y-67797310D01*
X47267093Y-67798625D01*
X47243294Y-67800221D01*
X47225625Y-67802141D01*
X47212750Y-67804428D01*
X47203335Y-67807125D01*
X47196045Y-67810275D01*
X47190676Y-67813250D01*
X47146544Y-67848491D01*
X47116361Y-67892310D01*
X47101083Y-67941634D01*
X47101667Y-67993392D01*
X47118822Y-68044040D01*
X47147505Y-68085945D01*
X47183641Y-68113089D01*
X47222166Y-68126600D01*
X47237732Y-68128141D01*
X47269668Y-68129596D01*
X47316200Y-68130938D01*
X47375555Y-68132139D01*
X47445959Y-68133171D01*
X47525640Y-68134007D01*
X47612824Y-68134620D01*
X47705737Y-68134982D01*
X47768018Y-68135069D01*
X48278285Y-68135286D01*
X48278285Y-69586714D01*
X47749875Y-69586914D01*
X47638217Y-69586984D01*
X47543234Y-69587133D01*
X47463454Y-69587405D01*
X47397409Y-69587844D01*
X47343630Y-69588496D01*
X47300648Y-69589404D01*
X47266992Y-69590612D01*
X47241194Y-69592165D01*
X47221784Y-69594108D01*
X47207293Y-69596484D01*
X47196253Y-69599339D01*
X47187192Y-69602715D01*
X47184312Y-69603985D01*
X47146031Y-69630442D01*
X47119202Y-69667476D01*
X47103975Y-69711471D01*
X47100499Y-69758813D01*
X47108925Y-69805885D01*
X47129402Y-69849073D01*
X47162080Y-69884761D01*
X47172368Y-69892216D01*
X47211053Y-69917822D01*
X47744669Y-69920300D01*
X48278285Y-69922779D01*
X48278285Y-71382436D01*
X47744669Y-71384914D01*
X47211053Y-71387393D01*
X47172368Y-71412999D01*
X47135881Y-71446732D01*
X47112095Y-71488755D01*
X47100867Y-71535465D01*
X47102051Y-71583255D01*
X47115504Y-71628520D01*
X47141080Y-71667655D01*
X47178636Y-71697056D01*
X47183849Y-71699714D01*
X47191696Y-71703332D01*
X47200092Y-71706454D01*
X47210363Y-71709114D01*
X47223833Y-71711349D01*
X47241828Y-71713196D01*
X47265674Y-71714691D01*
X47296696Y-71715871D01*
X47336219Y-71716772D01*
X47385570Y-71717430D01*
X47446073Y-71717882D01*
X47519053Y-71718164D01*
X47605838Y-71718314D01*
X47707750Y-71718366D01*
X47826118Y-71718359D01*
X47861596Y-71718351D01*
X48500535Y-71718202D01*
X48536636Y-71697755D01*
X48565885Y-71675053D01*
X48590373Y-71645853D01*
X48593184Y-71641208D01*
X48613630Y-71605107D01*
X48613779Y-69760978D01*
X48613794Y-69545851D01*
X48613798Y-69348117D01*
X48613784Y-69167029D01*
X48613745Y-69001838D01*
X48613673Y-68851794D01*
X48613562Y-68716150D01*
X48613405Y-68594156D01*
X48613194Y-68485063D01*
X48612923Y-68388123D01*
X48612584Y-68302588D01*
X48612170Y-68227708D01*
X48611674Y-68162734D01*
X48611090Y-68106918D01*
X48610409Y-68059511D01*
X48609625Y-68019765D01*
X48608731Y-67986930D01*
X48607720Y-67960258D01*
X48606584Y-67939000D01*
X48605317Y-67922408D01*
X48603911Y-67909731D01*
X48602359Y-67900223D01*
X48600655Y-67893134D01*
X48598791Y-67887715D01*
X48596760Y-67883218D01*
X48595991Y-67881688D01*
X48566519Y-67841208D01*
X48524711Y-67812645D01*
X48491464Y-67800176D01*
X48478034Y-67797926D01*
X48453854Y-67796037D01*
X48418058Y-67794498D01*
X48369780Y-67793300D01*
X48308153Y-67792432D01*
X48232309Y-67791883D01*
X48141383Y-67791644D01*
X48034508Y-67791704D01*
G36*
X46667414Y-67801632D02*
X46625353Y-67822443D01*
X46589981Y-67855933D01*
X46566832Y-67896068D01*
X46562400Y-67909455D01*
X46553267Y-67939361D01*
X46539703Y-67984858D01*
X46521975Y-68045014D01*
X46500354Y-68118901D01*
X46475107Y-68205589D01*
X46446505Y-68304149D01*
X46414816Y-68413651D01*
X46380309Y-68533165D01*
X46343253Y-68661762D01*
X46303916Y-68798512D01*
X46262569Y-68942486D01*
X46219480Y-69092754D01*
X46174917Y-69248386D01*
X46129150Y-69408454D01*
X46123013Y-69429935D01*
X46064353Y-69635054D01*
X46009682Y-69825759D01*
X45959071Y-70001808D01*
X45912591Y-70162958D01*
X45870314Y-70308963D01*
X45832311Y-70439581D01*
X45798654Y-70554567D01*
X45769415Y-70653679D01*
X45744664Y-70736672D01*
X45724474Y-70803303D01*
X45708915Y-70853328D01*
X45698060Y-70886503D01*
X45691979Y-70902585D01*
X45690690Y-70904043D01*
X45687491Y-70893777D01*
X45679545Y-70866981D01*
X45667115Y-70824562D01*
X45650463Y-70767429D01*
X45629852Y-70696488D01*
X45605544Y-70612647D01*
X45577801Y-70516814D01*
X45546886Y-70409896D01*
X45513060Y-70292800D01*
X45476588Y-70166435D01*
X45437730Y-70031708D01*
X45396750Y-69889526D01*
X45353910Y-69740796D01*
X45309472Y-69586428D01*
X45263698Y-69427327D01*
X45257359Y-69405286D01*
X45211302Y-69245250D01*
X45166452Y-69089615D01*
X45123079Y-68939305D01*
X45081449Y-68795245D01*
X45041834Y-68658357D01*
X45004500Y-68529567D01*
X44969719Y-68409796D01*
X44937757Y-68299971D01*
X44908884Y-68201013D01*
X44883370Y-68113848D01*
X44861482Y-68039399D01*
X44843491Y-67978590D01*
X44829664Y-67932345D01*
X44820270Y-67901587D01*
X44815579Y-67887240D01*
X44815357Y-67886692D01*
X44788491Y-67845374D01*
X44751420Y-67816172D01*
X44707462Y-67799108D01*
X44659937Y-67794204D01*
X44612162Y-67801481D01*
X44567457Y-67820963D01*
X44529141Y-67852671D01*
X44506513Y-67884634D01*
X44504691Y-67888762D01*
X44503016Y-67894707D01*
X44501482Y-67903212D01*
X44500084Y-67915019D01*
X44498815Y-67930871D01*
X44497668Y-67951511D01*
X44496638Y-67977682D01*
X44495719Y-68010127D01*
X44494903Y-68049588D01*
X44494186Y-68096808D01*
X44493561Y-68152531D01*
X44493021Y-68217498D01*
X44492561Y-68292453D01*
X44492173Y-68378139D01*
X44491853Y-68475298D01*
X44491594Y-68584673D01*
X44491390Y-68707006D01*
X44491234Y-68843042D01*
X44491120Y-68993522D01*
X44491042Y-69159189D01*
X44490995Y-69340787D01*
X44490971Y-69539057D01*
X44490964Y-69750000D01*
X44490966Y-69964674D01*
X44490977Y-70161956D01*
X44491005Y-70342597D01*
X44491056Y-70507345D01*
X44491138Y-70656953D01*
X44491258Y-70792171D01*
X44491423Y-70913749D01*
X44491642Y-71022438D01*
X44491920Y-71118987D01*
X44492265Y-71204149D01*
X44492685Y-71278672D01*
X44493187Y-71343309D01*
X44493777Y-71398808D01*
X44494464Y-71445922D01*
X44495255Y-71485399D01*
X44496156Y-71517991D01*
X44497176Y-71544449D01*
X44498321Y-71565522D01*
X44499599Y-71581962D01*
X44501016Y-71594518D01*
X44502581Y-71603942D01*
X44504300Y-71610983D01*
X44506181Y-71616393D01*
X44508231Y-71620921D01*
X44509107Y-71622667D01*
X44540673Y-71667147D01*
X44582265Y-71698762D01*
X44630667Y-71715204D01*
X44639776Y-71716367D01*
X44701240Y-71715927D01*
X44751647Y-71701414D01*
X44791861Y-71672431D01*
X44820129Y-71633509D01*
X44822376Y-71628468D01*
X44824407Y-71621346D01*
X44826237Y-71611215D01*
X44827882Y-71597146D01*
X44829357Y-71578212D01*
X44830677Y-71553483D01*
X44831857Y-71522031D01*
X44832914Y-71482928D01*
X44833861Y-71435245D01*
X44834715Y-71378054D01*
X44835491Y-71310426D01*
X44836203Y-71231433D01*
X44836868Y-71140147D01*
X44837500Y-71035638D01*
X44838115Y-70916979D01*
X44838728Y-70783242D01*
X44839355Y-70633497D01*
X44840010Y-70466817D01*
X44840214Y-70413344D01*
X44844750Y-69221580D01*
X45184250Y-70408808D01*
X45225174Y-70551784D01*
X45264878Y-70690232D01*
X45303061Y-70823121D01*
X45339425Y-70949418D01*
X45373669Y-71068093D01*
X45405495Y-71178111D01*
X45434601Y-71278442D01*
X45460689Y-71368053D01*
X45483460Y-71445913D01*
X45502612Y-71510989D01*
X45517847Y-71562249D01*
X45528865Y-71598661D01*
X45535366Y-71619193D01*
X45536862Y-71623250D01*
X45567922Y-71668822D01*
X45609791Y-71700010D01*
X45661468Y-71716205D01*
X45693017Y-71718500D01*
X45748406Y-71710718D01*
X45795698Y-71688339D01*
X45832322Y-71652816D01*
X45844703Y-71632803D01*
X45848823Y-71620997D01*
X45857618Y-71592771D01*
X45870790Y-71549150D01*
X45888039Y-71491161D01*
X45909066Y-71419832D01*
X45933573Y-71336188D01*
X45961260Y-71241256D01*
X45991828Y-71136063D01*
X46024978Y-71021636D01*
X46060410Y-70899000D01*
X46097827Y-70769183D01*
X46136929Y-70633212D01*
X46177416Y-70492112D01*
X46201470Y-70408139D01*
X46544391Y-69210250D01*
X46545412Y-70380464D01*
X46545596Y-70525423D01*
X46545889Y-70665818D01*
X46546281Y-70800533D01*
X46546765Y-70928449D01*
X46547333Y-71048449D01*
X46547976Y-71159414D01*
X46548688Y-71260227D01*
X46549459Y-71349768D01*
X46550281Y-71426922D01*
X46551148Y-71490568D01*
X46552050Y-71539590D01*
X46552980Y-71572870D01*
X46553930Y-71589289D01*
X46554071Y-71590213D01*
X46571703Y-71639949D01*
X46604477Y-71681037D01*
X46621503Y-71695108D01*
X46645769Y-71705847D01*
X46681544Y-71713288D01*
X46722409Y-71716936D01*
X46761949Y-71716301D01*
X46793746Y-71710890D01*
X46799638Y-71708774D01*
X46836477Y-71685268D01*
X46868898Y-71649743D01*
X46879880Y-71632321D01*
X46881654Y-71628115D01*
X46883287Y-71621697D01*
X46884787Y-71612322D01*
X46886159Y-71599249D01*
X46887412Y-71581733D01*
X46888552Y-71559030D01*
X46889586Y-71530396D01*
X46890521Y-71495089D01*
X46891365Y-71452365D01*
X46892124Y-71401479D01*
X46892806Y-71341689D01*
X46893417Y-71272250D01*
X46893964Y-71192419D01*
X46894455Y-71101453D01*
X46894897Y-70998607D01*
X46895296Y-70883138D01*
X46895660Y-70754302D01*
X46895996Y-70611357D01*
X46896311Y-70453557D01*
X46896611Y-70280160D01*
X46896904Y-70090422D01*
X46897197Y-69883600D01*
X46897323Y-69790821D01*
X46897602Y-69559292D01*
X46897795Y-69345419D01*
X46897898Y-69148714D01*
X46897911Y-68968691D01*
X46897830Y-68804862D01*
X46897654Y-68656742D01*
X46897381Y-68523843D01*
X46897009Y-68405677D01*
X46896535Y-68301759D01*
X46895958Y-68211601D01*
X46895275Y-68134716D01*
X46894485Y-68070617D01*
X46893585Y-68018818D01*
X46892574Y-67978830D01*
X46891449Y-67950169D01*
X46890208Y-67932345D01*
X46889428Y-67926752D01*
X46871293Y-67877589D01*
X46841544Y-67839363D01*
X46803231Y-67812364D01*
X46759404Y-67796882D01*
X46713115Y-67793208D01*
X46667414Y-67801632D01*
X46667414Y-67801632D01*
G37*
X46667414Y-67801632D02*
X46625353Y-67822443D01*
X46589981Y-67855933D01*
X46566832Y-67896068D01*
X46562400Y-67909455D01*
X46553267Y-67939361D01*
X46539703Y-67984858D01*
X46521975Y-68045014D01*
X46500354Y-68118901D01*
X46475107Y-68205589D01*
X46446505Y-68304149D01*
X46414816Y-68413651D01*
X46380309Y-68533165D01*
X46343253Y-68661762D01*
X46303916Y-68798512D01*
X46262569Y-68942486D01*
X46219480Y-69092754D01*
X46174917Y-69248386D01*
X46129150Y-69408454D01*
X46123013Y-69429935D01*
X46064353Y-69635054D01*
X46009682Y-69825759D01*
X45959071Y-70001808D01*
X45912591Y-70162958D01*
X45870314Y-70308963D01*
X45832311Y-70439581D01*
X45798654Y-70554567D01*
X45769415Y-70653679D01*
X45744664Y-70736672D01*
X45724474Y-70803303D01*
X45708915Y-70853328D01*
X45698060Y-70886503D01*
X45691979Y-70902585D01*
X45690690Y-70904043D01*
X45687491Y-70893777D01*
X45679545Y-70866981D01*
X45667115Y-70824562D01*
X45650463Y-70767429D01*
X45629852Y-70696488D01*
X45605544Y-70612647D01*
X45577801Y-70516814D01*
X45546886Y-70409896D01*
X45513060Y-70292800D01*
X45476588Y-70166435D01*
X45437730Y-70031708D01*
X45396750Y-69889526D01*
X45353910Y-69740796D01*
X45309472Y-69586428D01*
X45263698Y-69427327D01*
X45257359Y-69405286D01*
X45211302Y-69245250D01*
X45166452Y-69089615D01*
X45123079Y-68939305D01*
X45081449Y-68795245D01*
X45041834Y-68658357D01*
X45004500Y-68529567D01*
X44969719Y-68409796D01*
X44937757Y-68299971D01*
X44908884Y-68201013D01*
X44883370Y-68113848D01*
X44861482Y-68039399D01*
X44843491Y-67978590D01*
X44829664Y-67932345D01*
X44820270Y-67901587D01*
X44815579Y-67887240D01*
X44815357Y-67886692D01*
X44788491Y-67845374D01*
X44751420Y-67816172D01*
X44707462Y-67799108D01*
X44659937Y-67794204D01*
X44612162Y-67801481D01*
X44567457Y-67820963D01*
X44529141Y-67852671D01*
X44506513Y-67884634D01*
X44504691Y-67888762D01*
X44503016Y-67894707D01*
X44501482Y-67903212D01*
X44500084Y-67915019D01*
X44498815Y-67930871D01*
X44497668Y-67951511D01*
X44496638Y-67977682D01*
X44495719Y-68010127D01*
X44494903Y-68049588D01*
X44494186Y-68096808D01*
X44493561Y-68152531D01*
X44493021Y-68217498D01*
X44492561Y-68292453D01*
X44492173Y-68378139D01*
X44491853Y-68475298D01*
X44491594Y-68584673D01*
X44491390Y-68707006D01*
X44491234Y-68843042D01*
X44491120Y-68993522D01*
X44491042Y-69159189D01*
X44490995Y-69340787D01*
X44490971Y-69539057D01*
X44490964Y-69750000D01*
X44490966Y-69964674D01*
X44490977Y-70161956D01*
X44491005Y-70342597D01*
X44491056Y-70507345D01*
X44491138Y-70656953D01*
X44491258Y-70792171D01*
X44491423Y-70913749D01*
X44491642Y-71022438D01*
X44491920Y-71118987D01*
X44492265Y-71204149D01*
X44492685Y-71278672D01*
X44493187Y-71343309D01*
X44493777Y-71398808D01*
X44494464Y-71445922D01*
X44495255Y-71485399D01*
X44496156Y-71517991D01*
X44497176Y-71544449D01*
X44498321Y-71565522D01*
X44499599Y-71581962D01*
X44501016Y-71594518D01*
X44502581Y-71603942D01*
X44504300Y-71610983D01*
X44506181Y-71616393D01*
X44508231Y-71620921D01*
X44509107Y-71622667D01*
X44540673Y-71667147D01*
X44582265Y-71698762D01*
X44630667Y-71715204D01*
X44639776Y-71716367D01*
X44701240Y-71715927D01*
X44751647Y-71701414D01*
X44791861Y-71672431D01*
X44820129Y-71633509D01*
X44822376Y-71628468D01*
X44824407Y-71621346D01*
X44826237Y-71611215D01*
X44827882Y-71597146D01*
X44829357Y-71578212D01*
X44830677Y-71553483D01*
X44831857Y-71522031D01*
X44832914Y-71482928D01*
X44833861Y-71435245D01*
X44834715Y-71378054D01*
X44835491Y-71310426D01*
X44836203Y-71231433D01*
X44836868Y-71140147D01*
X44837500Y-71035638D01*
X44838115Y-70916979D01*
X44838728Y-70783242D01*
X44839355Y-70633497D01*
X44840010Y-70466817D01*
X44840214Y-70413344D01*
X44844750Y-69221580D01*
X45184250Y-70408808D01*
X45225174Y-70551784D01*
X45264878Y-70690232D01*
X45303061Y-70823121D01*
X45339425Y-70949418D01*
X45373669Y-71068093D01*
X45405495Y-71178111D01*
X45434601Y-71278442D01*
X45460689Y-71368053D01*
X45483460Y-71445913D01*
X45502612Y-71510989D01*
X45517847Y-71562249D01*
X45528865Y-71598661D01*
X45535366Y-71619193D01*
X45536862Y-71623250D01*
X45567922Y-71668822D01*
X45609791Y-71700010D01*
X45661468Y-71716205D01*
X45693017Y-71718500D01*
X45748406Y-71710718D01*
X45795698Y-71688339D01*
X45832322Y-71652816D01*
X45844703Y-71632803D01*
X45848823Y-71620997D01*
X45857618Y-71592771D01*
X45870790Y-71549150D01*
X45888039Y-71491161D01*
X45909066Y-71419832D01*
X45933573Y-71336188D01*
X45961260Y-71241256D01*
X45991828Y-71136063D01*
X46024978Y-71021636D01*
X46060410Y-70899000D01*
X46097827Y-70769183D01*
X46136929Y-70633212D01*
X46177416Y-70492112D01*
X46201470Y-70408139D01*
X46544391Y-69210250D01*
X46545412Y-70380464D01*
X46545596Y-70525423D01*
X46545889Y-70665818D01*
X46546281Y-70800533D01*
X46546765Y-70928449D01*
X46547333Y-71048449D01*
X46547976Y-71159414D01*
X46548688Y-71260227D01*
X46549459Y-71349768D01*
X46550281Y-71426922D01*
X46551148Y-71490568D01*
X46552050Y-71539590D01*
X46552980Y-71572870D01*
X46553930Y-71589289D01*
X46554071Y-71590213D01*
X46571703Y-71639949D01*
X46604477Y-71681037D01*
X46621503Y-71695108D01*
X46645769Y-71705847D01*
X46681544Y-71713288D01*
X46722409Y-71716936D01*
X46761949Y-71716301D01*
X46793746Y-71710890D01*
X46799638Y-71708774D01*
X46836477Y-71685268D01*
X46868898Y-71649743D01*
X46879880Y-71632321D01*
X46881654Y-71628115D01*
X46883287Y-71621697D01*
X46884787Y-71612322D01*
X46886159Y-71599249D01*
X46887412Y-71581733D01*
X46888552Y-71559030D01*
X46889586Y-71530396D01*
X46890521Y-71495089D01*
X46891365Y-71452365D01*
X46892124Y-71401479D01*
X46892806Y-71341689D01*
X46893417Y-71272250D01*
X46893964Y-71192419D01*
X46894455Y-71101453D01*
X46894897Y-70998607D01*
X46895296Y-70883138D01*
X46895660Y-70754302D01*
X46895996Y-70611357D01*
X46896311Y-70453557D01*
X46896611Y-70280160D01*
X46896904Y-70090422D01*
X46897197Y-69883600D01*
X46897323Y-69790821D01*
X46897602Y-69559292D01*
X46897795Y-69345419D01*
X46897898Y-69148714D01*
X46897911Y-68968691D01*
X46897830Y-68804862D01*
X46897654Y-68656742D01*
X46897381Y-68523843D01*
X46897009Y-68405677D01*
X46896535Y-68301759D01*
X46895958Y-68211601D01*
X46895275Y-68134716D01*
X46894485Y-68070617D01*
X46893585Y-68018818D01*
X46892574Y-67978830D01*
X46891449Y-67950169D01*
X46890208Y-67932345D01*
X46889428Y-67926752D01*
X46871293Y-67877589D01*
X46841544Y-67839363D01*
X46803231Y-67812364D01*
X46759404Y-67796882D01*
X46713115Y-67793208D01*
X46667414Y-67801632D01*
G36*
X43197472Y-67797199D02*
X43087660Y-67812043D01*
X42984895Y-67838060D01*
X42892731Y-67875305D01*
X42891476Y-67875935D01*
X42800175Y-67930600D01*
X42720288Y-67997128D01*
X42651570Y-68076004D01*
X42593775Y-68167710D01*
X42546657Y-68272730D01*
X42509968Y-68391547D01*
X42483464Y-68524646D01*
X42466898Y-68672509D01*
X42464082Y-68715284D01*
X42460805Y-68816929D01*
X42461790Y-68924115D01*
X42466769Y-69030877D01*
X42475472Y-69131252D01*
X42486581Y-69213101D01*
X42499743Y-69277333D01*
X42518157Y-69347076D01*
X42540027Y-69416693D01*
X42563558Y-69480549D01*
X42586956Y-69533010D01*
X42590852Y-69540502D01*
X42613293Y-69578643D01*
X42641302Y-69620669D01*
X42671572Y-69662131D01*
X42700799Y-69698584D01*
X42725676Y-69725583D01*
X42733917Y-69732940D01*
X42758321Y-69752647D01*
X42718681Y-69794413D01*
X42646519Y-69883535D01*
X42586039Y-69986526D01*
X42537250Y-70103361D01*
X42500163Y-70234018D01*
X42485553Y-70307139D01*
X42474003Y-70392313D01*
X42466195Y-70490171D01*
X42462130Y-70595785D01*
X42461807Y-70704227D01*
X42465226Y-70810569D01*
X42472387Y-70909884D01*
X42483289Y-70997244D01*
X42485601Y-71011051D01*
X42516042Y-71145825D01*
X42557679Y-71266348D01*
X42610567Y-71372687D01*
X42674762Y-71464911D01*
X42750318Y-71543087D01*
X42837291Y-71607282D01*
X42935736Y-71657566D01*
X43039536Y-71692406D01*
X43088068Y-71701909D01*
X43149725Y-71709111D01*
X43219618Y-71713881D01*
X43292860Y-71716084D01*
X43364562Y-71715587D01*
X43429835Y-71712258D01*
X43483792Y-71705964D01*
X43490930Y-71704695D01*
X43605146Y-71675891D01*
X43707523Y-71634594D01*
X43798354Y-71580441D01*
X43877926Y-71513073D01*
X43946532Y-71432127D01*
X44004461Y-71337241D01*
X44052003Y-71228055D01*
X44089448Y-71104206D01*
X44117087Y-70965333D01*
X44124166Y-70915679D01*
X44128595Y-70868572D01*
X44131797Y-70807908D01*
X44133771Y-70738091D01*
X44133948Y-70720338D01*
X43787006Y-70720338D01*
X43785337Y-70794368D01*
X43781745Y-70859776D01*
X43776141Y-70912746D01*
X43775703Y-70915679D01*
X43753782Y-71025545D01*
X43723638Y-71119488D01*
X43684679Y-71198044D01*
X43636315Y-71261750D01*
X43577952Y-71311142D01*
X43509001Y-71346757D01*
X43428869Y-71369131D01*
X43336965Y-71378800D01*
X43265594Y-71378309D01*
X43209603Y-71373751D01*
X43156675Y-71365836D01*
X43115915Y-71356149D01*
X43045519Y-71328111D01*
X42986716Y-71290266D01*
X42938005Y-71240912D01*
X42897885Y-71178346D01*
X42864855Y-71100866D01*
X42850145Y-71054674D01*
X42834616Y-70993188D01*
X42823022Y-70928073D01*
X42815008Y-70855938D01*
X42810222Y-70773394D01*
X42808310Y-70677048D01*
X42808240Y-70652369D01*
X42811302Y-70518556D01*
X42820815Y-70400926D01*
X42837201Y-70298550D01*
X42860881Y-70210502D01*
X42892278Y-70135851D01*
X42931814Y-70073669D01*
X42979910Y-70023029D01*
X43036988Y-69983001D01*
X43103470Y-69952657D01*
X43130250Y-69943784D01*
X43180563Y-69933303D01*
X43242402Y-69927562D01*
X43309795Y-69926501D01*
X43376771Y-69930061D01*
X43437360Y-69938181D01*
X43475085Y-69947249D01*
X43548230Y-69977769D01*
X43610869Y-70021192D01*
X43663591Y-70078264D01*
X43706985Y-70149726D01*
X43741640Y-70236324D01*
X43761604Y-70308854D01*
X43769611Y-70354459D01*
X43776226Y-70414344D01*
X43781362Y-70484690D01*
X43784930Y-70561683D01*
X43786841Y-70641505D01*
X43787006Y-70720338D01*
X44133948Y-70720338D01*
X44134516Y-70663529D01*
X44134031Y-70588630D01*
X44132315Y-70517798D01*
X44129368Y-70455442D01*
X44125187Y-70405968D01*
X44124282Y-70398607D01*
X44099750Y-70254562D01*
X44065906Y-70125862D01*
X44022627Y-70012207D01*
X43969791Y-69913301D01*
X43907276Y-69828844D01*
X43878210Y-69797714D01*
X43839707Y-69759250D01*
X43880028Y-69716072D01*
X43944354Y-69637761D01*
X43998625Y-69550779D01*
X44043335Y-69453714D01*
X44078979Y-69345158D01*
X44106048Y-69223701D01*
X44125038Y-69087932D01*
X44133171Y-68992999D01*
X44136030Y-68914923D01*
X43787514Y-68914923D01*
X43786299Y-68987316D01*
X43783179Y-69050963D01*
X43779074Y-69094282D01*
X43761461Y-69197939D01*
X43736408Y-69290351D01*
X43704574Y-69369597D01*
X43666617Y-69433757D01*
X43659542Y-69443103D01*
X43616257Y-69485681D01*
X43559251Y-69522936D01*
X43492653Y-69552776D01*
X43420594Y-69573113D01*
X43393321Y-69577818D01*
X43339260Y-69582035D01*
X43276071Y-69581650D01*
X43211498Y-69577086D01*
X43153285Y-69568763D01*
X43129583Y-69563481D01*
X43056853Y-69537839D01*
X42995456Y-69501077D01*
X42944176Y-69451865D01*
X42901793Y-69388874D01*
X42867089Y-69310775D01*
X42850106Y-69258396D01*
X42834585Y-69196919D01*
X42822997Y-69131776D01*
X42814990Y-69059580D01*
X42810211Y-68976949D01*
X42808308Y-68880496D01*
X42808240Y-68856226D01*
X42809279Y-68762517D01*
X42812674Y-68682985D01*
X42818792Y-68613775D01*
X42827998Y-68551032D01*
X42840660Y-68490899D01*
X42844433Y-68475725D01*
X42873938Y-68384474D01*
X42912321Y-68308527D01*
X42960432Y-68247241D01*
X43019122Y-68199975D01*
X43089242Y-68166087D01*
X43171641Y-68144934D01*
X43267172Y-68135876D01*
X43295357Y-68135420D01*
X43367023Y-68137438D01*
X43426464Y-68144412D01*
X43479167Y-68157377D01*
X43530620Y-68177364D01*
X43539273Y-68181363D01*
X43601455Y-68220609D01*
X43655603Y-68275629D01*
X43701229Y-68345700D01*
X43737848Y-68430098D01*
X43761340Y-68511750D01*
X43769102Y-68556050D01*
X43775660Y-68614624D01*
X43780897Y-68683634D01*
X43784696Y-68759246D01*
X43786941Y-68837621D01*
X43787514Y-68914923D01*
X44136030Y-68914923D01*
X44137490Y-68875085D01*
X44135167Y-68754565D01*
X44126602Y-68635382D01*
X44112196Y-68521481D01*
X44092350Y-68416807D01*
X44067464Y-68325304D01*
X44064418Y-68316160D01*
X44037292Y-68246259D01*
X44004224Y-68176473D01*
X43968583Y-68113514D01*
X43945668Y-68079481D01*
X43905845Y-68032236D01*
X43855892Y-67983347D01*
X43801526Y-67937821D01*
X43748465Y-67900665D01*
X43727818Y-67888693D01*
X43636092Y-67848480D01*
X43533640Y-67819170D01*
X43424017Y-67800817D01*
X43310776Y-67793476D01*
X43197472Y-67797199D01*
X43197472Y-67797199D01*
G37*
X43197472Y-67797199D02*
X43087660Y-67812043D01*
X42984895Y-67838060D01*
X42892731Y-67875305D01*
X42891476Y-67875935D01*
X42800175Y-67930600D01*
X42720288Y-67997128D01*
X42651570Y-68076004D01*
X42593775Y-68167710D01*
X42546657Y-68272730D01*
X42509968Y-68391547D01*
X42483464Y-68524646D01*
X42466898Y-68672509D01*
X42464082Y-68715284D01*
X42460805Y-68816929D01*
X42461790Y-68924115D01*
X42466769Y-69030877D01*
X42475472Y-69131252D01*
X42486581Y-69213101D01*
X42499743Y-69277333D01*
X42518157Y-69347076D01*
X42540027Y-69416693D01*
X42563558Y-69480549D01*
X42586956Y-69533010D01*
X42590852Y-69540502D01*
X42613293Y-69578643D01*
X42641302Y-69620669D01*
X42671572Y-69662131D01*
X42700799Y-69698584D01*
X42725676Y-69725583D01*
X42733917Y-69732940D01*
X42758321Y-69752647D01*
X42718681Y-69794413D01*
X42646519Y-69883535D01*
X42586039Y-69986526D01*
X42537250Y-70103361D01*
X42500163Y-70234018D01*
X42485553Y-70307139D01*
X42474003Y-70392313D01*
X42466195Y-70490171D01*
X42462130Y-70595785D01*
X42461807Y-70704227D01*
X42465226Y-70810569D01*
X42472387Y-70909884D01*
X42483289Y-70997244D01*
X42485601Y-71011051D01*
X42516042Y-71145825D01*
X42557679Y-71266348D01*
X42610567Y-71372687D01*
X42674762Y-71464911D01*
X42750318Y-71543087D01*
X42837291Y-71607282D01*
X42935736Y-71657566D01*
X43039536Y-71692406D01*
X43088068Y-71701909D01*
X43149725Y-71709111D01*
X43219618Y-71713881D01*
X43292860Y-71716084D01*
X43364562Y-71715587D01*
X43429835Y-71712258D01*
X43483792Y-71705964D01*
X43490930Y-71704695D01*
X43605146Y-71675891D01*
X43707523Y-71634594D01*
X43798354Y-71580441D01*
X43877926Y-71513073D01*
X43946532Y-71432127D01*
X44004461Y-71337241D01*
X44052003Y-71228055D01*
X44089448Y-71104206D01*
X44117087Y-70965333D01*
X44124166Y-70915679D01*
X44128595Y-70868572D01*
X44131797Y-70807908D01*
X44133771Y-70738091D01*
X44133948Y-70720338D01*
X43787006Y-70720338D01*
X43785337Y-70794368D01*
X43781745Y-70859776D01*
X43776141Y-70912746D01*
X43775703Y-70915679D01*
X43753782Y-71025545D01*
X43723638Y-71119488D01*
X43684679Y-71198044D01*
X43636315Y-71261750D01*
X43577952Y-71311142D01*
X43509001Y-71346757D01*
X43428869Y-71369131D01*
X43336965Y-71378800D01*
X43265594Y-71378309D01*
X43209603Y-71373751D01*
X43156675Y-71365836D01*
X43115915Y-71356149D01*
X43045519Y-71328111D01*
X42986716Y-71290266D01*
X42938005Y-71240912D01*
X42897885Y-71178346D01*
X42864855Y-71100866D01*
X42850145Y-71054674D01*
X42834616Y-70993188D01*
X42823022Y-70928073D01*
X42815008Y-70855938D01*
X42810222Y-70773394D01*
X42808310Y-70677048D01*
X42808240Y-70652369D01*
X42811302Y-70518556D01*
X42820815Y-70400926D01*
X42837201Y-70298550D01*
X42860881Y-70210502D01*
X42892278Y-70135851D01*
X42931814Y-70073669D01*
X42979910Y-70023029D01*
X43036988Y-69983001D01*
X43103470Y-69952657D01*
X43130250Y-69943784D01*
X43180563Y-69933303D01*
X43242402Y-69927562D01*
X43309795Y-69926501D01*
X43376771Y-69930061D01*
X43437360Y-69938181D01*
X43475085Y-69947249D01*
X43548230Y-69977769D01*
X43610869Y-70021192D01*
X43663591Y-70078264D01*
X43706985Y-70149726D01*
X43741640Y-70236324D01*
X43761604Y-70308854D01*
X43769611Y-70354459D01*
X43776226Y-70414344D01*
X43781362Y-70484690D01*
X43784930Y-70561683D01*
X43786841Y-70641505D01*
X43787006Y-70720338D01*
X44133948Y-70720338D01*
X44134516Y-70663529D01*
X44134031Y-70588630D01*
X44132315Y-70517798D01*
X44129368Y-70455442D01*
X44125187Y-70405968D01*
X44124282Y-70398607D01*
X44099750Y-70254562D01*
X44065906Y-70125862D01*
X44022627Y-70012207D01*
X43969791Y-69913301D01*
X43907276Y-69828844D01*
X43878210Y-69797714D01*
X43839707Y-69759250D01*
X43880028Y-69716072D01*
X43944354Y-69637761D01*
X43998625Y-69550779D01*
X44043335Y-69453714D01*
X44078979Y-69345158D01*
X44106048Y-69223701D01*
X44125038Y-69087932D01*
X44133171Y-68992999D01*
X44136030Y-68914923D01*
X43787514Y-68914923D01*
X43786299Y-68987316D01*
X43783179Y-69050963D01*
X43779074Y-69094282D01*
X43761461Y-69197939D01*
X43736408Y-69290351D01*
X43704574Y-69369597D01*
X43666617Y-69433757D01*
X43659542Y-69443103D01*
X43616257Y-69485681D01*
X43559251Y-69522936D01*
X43492653Y-69552776D01*
X43420594Y-69573113D01*
X43393321Y-69577818D01*
X43339260Y-69582035D01*
X43276071Y-69581650D01*
X43211498Y-69577086D01*
X43153285Y-69568763D01*
X43129583Y-69563481D01*
X43056853Y-69537839D01*
X42995456Y-69501077D01*
X42944176Y-69451865D01*
X42901793Y-69388874D01*
X42867089Y-69310775D01*
X42850106Y-69258396D01*
X42834585Y-69196919D01*
X42822997Y-69131776D01*
X42814990Y-69059580D01*
X42810211Y-68976949D01*
X42808308Y-68880496D01*
X42808240Y-68856226D01*
X42809279Y-68762517D01*
X42812674Y-68682985D01*
X42818792Y-68613775D01*
X42827998Y-68551032D01*
X42840660Y-68490899D01*
X42844433Y-68475725D01*
X42873938Y-68384474D01*
X42912321Y-68308527D01*
X42960432Y-68247241D01*
X43019122Y-68199975D01*
X43089242Y-68166087D01*
X43171641Y-68144934D01*
X43267172Y-68135876D01*
X43295357Y-68135420D01*
X43367023Y-68137438D01*
X43426464Y-68144412D01*
X43479167Y-68157377D01*
X43530620Y-68177364D01*
X43539273Y-68181363D01*
X43601455Y-68220609D01*
X43655603Y-68275629D01*
X43701229Y-68345700D01*
X43737848Y-68430098D01*
X43761340Y-68511750D01*
X43769102Y-68556050D01*
X43775660Y-68614624D01*
X43780897Y-68683634D01*
X43784696Y-68759246D01*
X43786941Y-68837621D01*
X43787514Y-68914923D01*
X44136030Y-68914923D01*
X44137490Y-68875085D01*
X44135167Y-68754565D01*
X44126602Y-68635382D01*
X44112196Y-68521481D01*
X44092350Y-68416807D01*
X44067464Y-68325304D01*
X44064418Y-68316160D01*
X44037292Y-68246259D01*
X44004224Y-68176473D01*
X43968583Y-68113514D01*
X43945668Y-68079481D01*
X43905845Y-68032236D01*
X43855892Y-67983347D01*
X43801526Y-67937821D01*
X43748465Y-67900665D01*
X43727818Y-67888693D01*
X43636092Y-67848480D01*
X43533640Y-67819170D01*
X43424017Y-67800817D01*
X43310776Y-67793476D01*
X43197472Y-67797199D01*
G36*
X41353330Y-67796936D02*
X41284388Y-67800736D01*
X41222071Y-67806912D01*
X41171286Y-67815365D01*
X41168831Y-67815916D01*
X41051806Y-67850683D01*
X40946512Y-67898945D01*
X40852883Y-67960793D01*
X40770853Y-68036324D01*
X40700356Y-68125629D01*
X40641324Y-68228803D01*
X40593691Y-68345940D01*
X40557392Y-68477134D01*
X40532360Y-68622477D01*
X40521661Y-68730522D01*
X40519816Y-68767016D01*
X40518252Y-68821567D01*
X40516971Y-68894091D01*
X40515973Y-68984506D01*
X40515259Y-69092727D01*
X40514827Y-69218672D01*
X40514681Y-69362256D01*
X40514818Y-69523397D01*
X40515241Y-69702011D01*
X40515773Y-69854321D01*
X40516419Y-70012414D01*
X40517058Y-70153435D01*
X40517710Y-70278459D01*
X40518391Y-70388558D01*
X40519122Y-70484803D01*
X40519921Y-70568269D01*
X40520807Y-70640026D01*
X40521798Y-70701148D01*
X40522914Y-70752707D01*
X40524172Y-70795775D01*
X40525593Y-70831425D01*
X40527194Y-70860730D01*
X40528994Y-70884762D01*
X40531013Y-70904593D01*
X40533268Y-70921296D01*
X40534572Y-70929286D01*
X40559332Y-71051126D01*
X40589295Y-71157799D01*
X40625618Y-71251821D01*
X40669460Y-71335712D01*
X40721979Y-71411990D01*
X40784332Y-71483172D01*
X40793555Y-71492516D01*
X40873389Y-71563160D01*
X40958236Y-71619644D01*
X41049947Y-71662642D01*
X41150374Y-71692824D01*
X41261371Y-71710862D01*
X41384789Y-71717426D01*
X41414138Y-71717394D01*
X41463501Y-71716272D01*
X41512192Y-71714083D01*
X41554031Y-71711163D01*
X41579036Y-71708439D01*
X41678286Y-71686623D01*
X41777284Y-71650898D01*
X41870477Y-71603655D01*
X41951326Y-71548085D01*
X42032811Y-71470834D01*
X42103368Y-71379168D01*
X42163008Y-71273063D01*
X42211743Y-71152496D01*
X42249587Y-71017441D01*
X42265519Y-70938357D01*
X42267389Y-70924379D01*
X42269068Y-70904149D01*
X42270563Y-70876790D01*
X42271885Y-70841424D01*
X42273043Y-70797170D01*
X42274044Y-70743152D01*
X42274899Y-70678490D01*
X42275616Y-70602306D01*
X42276204Y-70513721D01*
X42276672Y-70411857D01*
X42277030Y-70295835D01*
X42277285Y-70164777D01*
X42277447Y-70017804D01*
X42277525Y-69854037D01*
X42277534Y-69767715D01*
X41946661Y-69767715D01*
X41946603Y-69891733D01*
X41946404Y-70014039D01*
X41946064Y-70133105D01*
X41945581Y-70247404D01*
X41944956Y-70355411D01*
X41944189Y-70455598D01*
X41943278Y-70546439D01*
X41942224Y-70626408D01*
X41941027Y-70693977D01*
X41939685Y-70747620D01*
X41938199Y-70785810D01*
X41936969Y-70803592D01*
X41919466Y-70925636D01*
X41892902Y-71032218D01*
X41856949Y-71123776D01*
X41811280Y-71200750D01*
X41755567Y-71263582D01*
X41689482Y-71312709D01*
X41612698Y-71348573D01*
X41524888Y-71371613D01*
X41512179Y-71373763D01*
X41450200Y-71379351D01*
X41380062Y-71378784D01*
X41308771Y-71372586D01*
X41243330Y-71361279D01*
X41205549Y-71350873D01*
X41129289Y-71318185D01*
X41063817Y-71274423D01*
X41008406Y-71218565D01*
X40962329Y-71149590D01*
X40924859Y-71066477D01*
X40895270Y-70968203D01*
X40879288Y-70892242D01*
X40876757Y-70876744D01*
X40874498Y-70859141D01*
X40872491Y-70838316D01*
X40870715Y-70813149D01*
X40869149Y-70782524D01*
X40867772Y-70745323D01*
X40866563Y-70700426D01*
X40865500Y-70646718D01*
X40864563Y-70583078D01*
X40863732Y-70508391D01*
X40862984Y-70421537D01*
X40862299Y-70321399D01*
X40861656Y-70206859D01*
X40861034Y-70076799D01*
X40860411Y-69930100D01*
X40860192Y-69875257D01*
X40859579Y-69698781D01*
X40859218Y-69539445D01*
X40859129Y-69396248D01*
X40859336Y-69268190D01*
X40859859Y-69154269D01*
X40860721Y-69053484D01*
X40861943Y-68964834D01*
X40863547Y-68887319D01*
X40865555Y-68819936D01*
X40867989Y-68761685D01*
X40870870Y-68711565D01*
X40874221Y-68668575D01*
X40878062Y-68631714D01*
X40882416Y-68599980D01*
X40887304Y-68572374D01*
X40888674Y-68565710D01*
X40915872Y-68463582D01*
X40951378Y-68376917D01*
X40996012Y-68304652D01*
X41050596Y-68245724D01*
X41115950Y-68199070D01*
X41192896Y-68163626D01*
X41201586Y-68160545D01*
X41226695Y-68152528D01*
X41250626Y-68146894D01*
X41277324Y-68143256D01*
X41310731Y-68141226D01*
X41354791Y-68140419D01*
X41406678Y-68140416D01*
X41464043Y-68140950D01*
X41507072Y-68142271D01*
X41539567Y-68144771D01*
X41565333Y-68148842D01*
X41588171Y-68154875D01*
X41605525Y-68160869D01*
X41667045Y-68187082D01*
X41717130Y-68217224D01*
X41762482Y-68255624D01*
X41780134Y-68273560D01*
X41829586Y-68337079D01*
X41869912Y-68413751D01*
X41901415Y-68504409D01*
X41924401Y-68609887D01*
X41936470Y-68701558D01*
X41938079Y-68727058D01*
X41939551Y-68769164D01*
X41940885Y-68826349D01*
X41942082Y-68897088D01*
X41943141Y-68979853D01*
X41944062Y-69073118D01*
X41944844Y-69175357D01*
X41945487Y-69285041D01*
X41945990Y-69400646D01*
X41946354Y-69520645D01*
X41946578Y-69643509D01*
X41946661Y-69767715D01*
X42277534Y-69767715D01*
X42277536Y-69759071D01*
X42277542Y-69587467D01*
X42277531Y-69432957D01*
X42277452Y-69294496D01*
X42277258Y-69171034D01*
X42276901Y-69061525D01*
X42276333Y-68964921D01*
X42275504Y-68880174D01*
X42274367Y-68806237D01*
X42272874Y-68742062D01*
X42270975Y-68686601D01*
X42268624Y-68638808D01*
X42265771Y-68597634D01*
X42262369Y-68562032D01*
X42258368Y-68530955D01*
X42253721Y-68503354D01*
X42248380Y-68478182D01*
X42242296Y-68454391D01*
X42235421Y-68430935D01*
X42227706Y-68406765D01*
X42219104Y-68380834D01*
X42213189Y-68363067D01*
X42165913Y-68243367D01*
X42108108Y-68138342D01*
X42039306Y-68047570D01*
X41959036Y-67970627D01*
X41866831Y-67907091D01*
X41762221Y-67856538D01*
X41644737Y-67818546D01*
X41597178Y-67807432D01*
X41550820Y-67800759D01*
X41491454Y-67796850D01*
X41423988Y-67795608D01*
X41353330Y-67796936D01*
X41353330Y-67796936D01*
G37*
X41353330Y-67796936D02*
X41284388Y-67800736D01*
X41222071Y-67806912D01*
X41171286Y-67815365D01*
X41168831Y-67815916D01*
X41051806Y-67850683D01*
X40946512Y-67898945D01*
X40852883Y-67960793D01*
X40770853Y-68036324D01*
X40700356Y-68125629D01*
X40641324Y-68228803D01*
X40593691Y-68345940D01*
X40557392Y-68477134D01*
X40532360Y-68622477D01*
X40521661Y-68730522D01*
X40519816Y-68767016D01*
X40518252Y-68821567D01*
X40516971Y-68894091D01*
X40515973Y-68984506D01*
X40515259Y-69092727D01*
X40514827Y-69218672D01*
X40514681Y-69362256D01*
X40514818Y-69523397D01*
X40515241Y-69702011D01*
X40515773Y-69854321D01*
X40516419Y-70012414D01*
X40517058Y-70153435D01*
X40517710Y-70278459D01*
X40518391Y-70388558D01*
X40519122Y-70484803D01*
X40519921Y-70568269D01*
X40520807Y-70640026D01*
X40521798Y-70701148D01*
X40522914Y-70752707D01*
X40524172Y-70795775D01*
X40525593Y-70831425D01*
X40527194Y-70860730D01*
X40528994Y-70884762D01*
X40531013Y-70904593D01*
X40533268Y-70921296D01*
X40534572Y-70929286D01*
X40559332Y-71051126D01*
X40589295Y-71157799D01*
X40625618Y-71251821D01*
X40669460Y-71335712D01*
X40721979Y-71411990D01*
X40784332Y-71483172D01*
X40793555Y-71492516D01*
X40873389Y-71563160D01*
X40958236Y-71619644D01*
X41049947Y-71662642D01*
X41150374Y-71692824D01*
X41261371Y-71710862D01*
X41384789Y-71717426D01*
X41414138Y-71717394D01*
X41463501Y-71716272D01*
X41512192Y-71714083D01*
X41554031Y-71711163D01*
X41579036Y-71708439D01*
X41678286Y-71686623D01*
X41777284Y-71650898D01*
X41870477Y-71603655D01*
X41951326Y-71548085D01*
X42032811Y-71470834D01*
X42103368Y-71379168D01*
X42163008Y-71273063D01*
X42211743Y-71152496D01*
X42249587Y-71017441D01*
X42265519Y-70938357D01*
X42267389Y-70924379D01*
X42269068Y-70904149D01*
X42270563Y-70876790D01*
X42271885Y-70841424D01*
X42273043Y-70797170D01*
X42274044Y-70743152D01*
X42274899Y-70678490D01*
X42275616Y-70602306D01*
X42276204Y-70513721D01*
X42276672Y-70411857D01*
X42277030Y-70295835D01*
X42277285Y-70164777D01*
X42277447Y-70017804D01*
X42277525Y-69854037D01*
X42277534Y-69767715D01*
X41946661Y-69767715D01*
X41946603Y-69891733D01*
X41946404Y-70014039D01*
X41946064Y-70133105D01*
X41945581Y-70247404D01*
X41944956Y-70355411D01*
X41944189Y-70455598D01*
X41943278Y-70546439D01*
X41942224Y-70626408D01*
X41941027Y-70693977D01*
X41939685Y-70747620D01*
X41938199Y-70785810D01*
X41936969Y-70803592D01*
X41919466Y-70925636D01*
X41892902Y-71032218D01*
X41856949Y-71123776D01*
X41811280Y-71200750D01*
X41755567Y-71263582D01*
X41689482Y-71312709D01*
X41612698Y-71348573D01*
X41524888Y-71371613D01*
X41512179Y-71373763D01*
X41450200Y-71379351D01*
X41380062Y-71378784D01*
X41308771Y-71372586D01*
X41243330Y-71361279D01*
X41205549Y-71350873D01*
X41129289Y-71318185D01*
X41063817Y-71274423D01*
X41008406Y-71218565D01*
X40962329Y-71149590D01*
X40924859Y-71066477D01*
X40895270Y-70968203D01*
X40879288Y-70892242D01*
X40876757Y-70876744D01*
X40874498Y-70859141D01*
X40872491Y-70838316D01*
X40870715Y-70813149D01*
X40869149Y-70782524D01*
X40867772Y-70745323D01*
X40866563Y-70700426D01*
X40865500Y-70646718D01*
X40864563Y-70583078D01*
X40863732Y-70508391D01*
X40862984Y-70421537D01*
X40862299Y-70321399D01*
X40861656Y-70206859D01*
X40861034Y-70076799D01*
X40860411Y-69930100D01*
X40860192Y-69875257D01*
X40859579Y-69698781D01*
X40859218Y-69539445D01*
X40859129Y-69396248D01*
X40859336Y-69268190D01*
X40859859Y-69154269D01*
X40860721Y-69053484D01*
X40861943Y-68964834D01*
X40863547Y-68887319D01*
X40865555Y-68819936D01*
X40867989Y-68761685D01*
X40870870Y-68711565D01*
X40874221Y-68668575D01*
X40878062Y-68631714D01*
X40882416Y-68599980D01*
X40887304Y-68572374D01*
X40888674Y-68565710D01*
X40915872Y-68463582D01*
X40951378Y-68376917D01*
X40996012Y-68304652D01*
X41050596Y-68245724D01*
X41115950Y-68199070D01*
X41192896Y-68163626D01*
X41201586Y-68160545D01*
X41226695Y-68152528D01*
X41250626Y-68146894D01*
X41277324Y-68143256D01*
X41310731Y-68141226D01*
X41354791Y-68140419D01*
X41406678Y-68140416D01*
X41464043Y-68140950D01*
X41507072Y-68142271D01*
X41539567Y-68144771D01*
X41565333Y-68148842D01*
X41588171Y-68154875D01*
X41605525Y-68160869D01*
X41667045Y-68187082D01*
X41717130Y-68217224D01*
X41762482Y-68255624D01*
X41780134Y-68273560D01*
X41829586Y-68337079D01*
X41869912Y-68413751D01*
X41901415Y-68504409D01*
X41924401Y-68609887D01*
X41936470Y-68701558D01*
X41938079Y-68727058D01*
X41939551Y-68769164D01*
X41940885Y-68826349D01*
X41942082Y-68897088D01*
X41943141Y-68979853D01*
X41944062Y-69073118D01*
X41944844Y-69175357D01*
X41945487Y-69285041D01*
X41945990Y-69400646D01*
X41946354Y-69520645D01*
X41946578Y-69643509D01*
X41946661Y-69767715D01*
X42277534Y-69767715D01*
X42277536Y-69759071D01*
X42277542Y-69587467D01*
X42277531Y-69432957D01*
X42277452Y-69294496D01*
X42277258Y-69171034D01*
X42276901Y-69061525D01*
X42276333Y-68964921D01*
X42275504Y-68880174D01*
X42274367Y-68806237D01*
X42272874Y-68742062D01*
X42270975Y-68686601D01*
X42268624Y-68638808D01*
X42265771Y-68597634D01*
X42262369Y-68562032D01*
X42258368Y-68530955D01*
X42253721Y-68503354D01*
X42248380Y-68478182D01*
X42242296Y-68454391D01*
X42235421Y-68430935D01*
X42227706Y-68406765D01*
X42219104Y-68380834D01*
X42213189Y-68363067D01*
X42165913Y-68243367D01*
X42108108Y-68138342D01*
X42039306Y-68047570D01*
X41959036Y-67970627D01*
X41866831Y-67907091D01*
X41762221Y-67856538D01*
X41644737Y-67818546D01*
X41597178Y-67807432D01*
X41550820Y-67800759D01*
X41491454Y-67796850D01*
X41423988Y-67795608D01*
X41353330Y-67796936D01*
D10*
G36*
X47344048Y-46497562D02*
X46878174Y-44758895D01*
X49775952Y-43982438D01*
X50241826Y-45721105D01*
X47344048Y-46497562D01*
X47344048Y-46497562D01*
G37*
G36*
X43655736Y-49527056D02*
X42382944Y-48254264D01*
X44504264Y-46132944D01*
X45777056Y-47405736D01*
X43655736Y-49527056D01*
X43655736Y-49527056D01*
G37*
G36*
X41971105Y-53991826D02*
X40232438Y-53525952D01*
X41008895Y-50628174D01*
X42747562Y-51094048D01*
X41971105Y-53991826D01*
X41971105Y-53991826D01*
G37*
G36*
X40232438Y-56274048D02*
X41971105Y-55808174D01*
X42747562Y-58705952D01*
X41008895Y-59171826D01*
X40232438Y-56274048D01*
X40232438Y-56274048D01*
G37*
G36*
X42382944Y-61545736D02*
X43655736Y-60272944D01*
X45777056Y-62394264D01*
X44504264Y-63667056D01*
X42382944Y-61545736D01*
X42382944Y-61545736D01*
G37*
G36*
X46878174Y-65041105D02*
X47344048Y-63302438D01*
X50241826Y-64078895D01*
X49775952Y-65817562D01*
X46878174Y-65041105D01*
X46878174Y-65041105D01*
G37*
G36*
X55939423Y-59399038D02*
X54380577Y-58499038D01*
X55880577Y-55900962D01*
X57439423Y-56800962D01*
X55939423Y-59399038D01*
X55939423Y-59399038D01*
G37*
G36*
X46419423Y-53899038D02*
X44860577Y-52999038D01*
X46360577Y-50400962D01*
X47919423Y-51300962D01*
X46419423Y-53899038D01*
X46419423Y-53899038D01*
G37*
G36*
X52058174Y-45721105D02*
X52524048Y-43982438D01*
X55421826Y-44758895D01*
X54955952Y-46497562D01*
X52058174Y-45721105D01*
X52058174Y-45721105D01*
G37*
G36*
X56522944Y-47405736D02*
X57795736Y-46132944D01*
X59917056Y-48254264D01*
X58644264Y-49527056D01*
X56522944Y-47405736D01*
X56522944Y-47405736D01*
G37*
G36*
X59552438Y-51094048D02*
X61291105Y-50628174D01*
X62067562Y-53525952D01*
X60328895Y-53991826D01*
X59552438Y-51094048D01*
X59552438Y-51094048D01*
G37*
G36*
X61291105Y-59171826D02*
X59552438Y-58705952D01*
X60328895Y-55808174D01*
X62067562Y-56274048D01*
X61291105Y-59171826D01*
X61291105Y-59171826D01*
G37*
G36*
X57795736Y-63667056D02*
X56522944Y-62394264D01*
X58644264Y-60272944D01*
X59917056Y-61545736D01*
X57795736Y-63667056D01*
X57795736Y-63667056D01*
G37*
G36*
X52524048Y-65817562D02*
X52058174Y-64078895D01*
X54955952Y-63302438D01*
X55421826Y-65041105D01*
X52524048Y-65817562D01*
X52524048Y-65817562D01*
G37*
D12*
X41870000Y-74150000D03*
D13*
X44410000Y-74150000D03*
X46950000Y-74150000D03*
X49490000Y-74150000D03*
X52030000Y-74150000D03*
X54570000Y-74150000D03*
X57110000Y-74150000D03*
X59650000Y-74150000D03*
D14*
X57110000Y-74150000D02*
X57959999Y-73300001D01*
X57959999Y-73300001D02*
X57959999Y-65159999D01*
X57959999Y-65159999D02*
X51450000Y-58650000D01*
X51450000Y-58650000D02*
X51450000Y-54600000D01*
X51450000Y-54600000D02*
X58220000Y-47830000D01*
X57110000Y-74150000D02*
X55907919Y-74150000D01*
X55907919Y-74150000D02*
X54570000Y-74150000D01*
X62100000Y-62250000D02*
X57500000Y-57650000D01*
X57500000Y-57650000D02*
X55910000Y-57650000D01*
X62100000Y-70497919D02*
X62100000Y-62250000D01*
X59650000Y-74150000D02*
X59650000Y-72947919D01*
X59650000Y-72947919D02*
X62100000Y-70497919D01*
M02*
