G04 #@! TF.FileFunction,Legend,Bot*
%FSLAX46Y46*%
G04 Gerber Fmt 4.6, Leading zero omitted, Abs format (unit mm)*
G04 Created by KiCad (PCBNEW 4.0.2-stable) date 2019-03-28 2:21:56 PM*
%MOMM*%
G01*
G04 APERTURE LIST*
%ADD10C,0.200000*%
%ADD11C,0.010000*%
%ADD12R,1.800000X1.800000*%
%ADD13O,1.800000X1.800000*%
G04 APERTURE END LIST*
D10*
D11*
G36*
X50610743Y-50983347D02*
X50270019Y-51024702D01*
X49933819Y-51094758D01*
X49604896Y-51193397D01*
X49286003Y-51320503D01*
X49243500Y-51340009D01*
X48938468Y-51499605D01*
X48649544Y-51685531D01*
X48378278Y-51895900D01*
X48126221Y-52128825D01*
X47894926Y-52382421D01*
X47685942Y-52654800D01*
X47500821Y-52944077D01*
X47341113Y-53248363D01*
X47208371Y-53565774D01*
X47104145Y-53894422D01*
X47086191Y-53964020D01*
X47051930Y-54110761D01*
X47025674Y-54245168D01*
X47006270Y-54376311D01*
X46992565Y-54513259D01*
X46983407Y-54665083D01*
X46978335Y-54812687D01*
X46981374Y-55148994D01*
X47009007Y-55468610D01*
X47062200Y-55776051D01*
X47141919Y-56075837D01*
X47249130Y-56372485D01*
X47368841Y-56638312D01*
X47539853Y-56951876D01*
X47734637Y-57245412D01*
X47951811Y-57517915D01*
X48189996Y-57768382D01*
X48447810Y-57995809D01*
X48723874Y-58199192D01*
X49016806Y-58377528D01*
X49325227Y-58529812D01*
X49647754Y-58655041D01*
X49983008Y-58752211D01*
X50329609Y-58820318D01*
X50379884Y-58827604D01*
X50462712Y-58836913D01*
X50566229Y-58845267D01*
X50682502Y-58852344D01*
X50803599Y-58857820D01*
X50921588Y-58861370D01*
X51028538Y-58862672D01*
X51116517Y-58861400D01*
X51156438Y-58859303D01*
X51479887Y-58823875D01*
X51786905Y-58767177D01*
X52086067Y-58687504D01*
X52191530Y-58653530D01*
X52448748Y-58566990D01*
X52683655Y-58645063D01*
X52940952Y-58722358D01*
X53191656Y-58779931D01*
X53447233Y-58819948D01*
X53719149Y-58844578D01*
X53748032Y-58846298D01*
X53942500Y-58857372D01*
X53942500Y-54964329D01*
X50704000Y-54964329D01*
X50692752Y-54984012D01*
X50661743Y-55020678D01*
X50615077Y-55070371D01*
X50556857Y-55129132D01*
X50491186Y-55193003D01*
X50422169Y-55258028D01*
X50353908Y-55320247D01*
X50290506Y-55375702D01*
X50236068Y-55420437D01*
X50213033Y-55437881D01*
X50156525Y-55478136D01*
X50109438Y-55510249D01*
X50077676Y-55530277D01*
X50067584Y-55535000D01*
X50058228Y-55520969D01*
X50049005Y-55485905D01*
X50046583Y-55471500D01*
X50034945Y-55393647D01*
X50028141Y-55340745D01*
X50027539Y-55306184D01*
X50033747Y-55285838D01*
X50010291Y-55285838D01*
X49964771Y-55319137D01*
X49934124Y-55338848D01*
X49886007Y-55366841D01*
X49827385Y-55399399D01*
X49765225Y-55432806D01*
X49706494Y-55463344D01*
X49658157Y-55487298D01*
X49627181Y-55500949D01*
X49620637Y-55502748D01*
X49622690Y-55491835D01*
X49640418Y-55463177D01*
X49660356Y-55435754D01*
X49724206Y-55333994D01*
X49774848Y-55217162D01*
X49809515Y-55094650D01*
X49825439Y-54975849D01*
X49823518Y-54920352D01*
X49669300Y-54920352D01*
X49665240Y-55035427D01*
X49640774Y-55141035D01*
X49584826Y-55270600D01*
X49504060Y-55382266D01*
X49401639Y-55473141D01*
X49280723Y-55540333D01*
X49164149Y-55577016D01*
X49102538Y-55589658D01*
X49058415Y-55595486D01*
X49018315Y-55594749D01*
X48968771Y-55587694D01*
X48932885Y-55581258D01*
X48795299Y-55540787D01*
X48727022Y-55503206D01*
X48460644Y-55503206D01*
X48460138Y-55503250D01*
X48442080Y-55496536D01*
X48402459Y-55478476D01*
X48347971Y-55452189D01*
X48310527Y-55433563D01*
X48229897Y-55389783D01*
X48140921Y-55336466D01*
X48060231Y-55283672D01*
X48044938Y-55272908D01*
X47973988Y-55220059D01*
X47902250Y-55163093D01*
X47834188Y-55105966D01*
X47774267Y-55052634D01*
X47726952Y-55007054D01*
X47696706Y-54973180D01*
X47687750Y-54956403D01*
X47699608Y-54937098D01*
X47732078Y-54902600D01*
X47780503Y-54856943D01*
X47840229Y-54804161D01*
X47906599Y-54748287D01*
X47974958Y-54693353D01*
X48040649Y-54643394D01*
X48087215Y-54610355D01*
X48179404Y-54551348D01*
X48275825Y-54495925D01*
X48366146Y-54449766D01*
X48428721Y-54422691D01*
X48451306Y-54414949D01*
X48456826Y-54418357D01*
X48444318Y-54437737D01*
X48419352Y-54469668D01*
X48358877Y-54562654D01*
X48307224Y-54673581D01*
X48270253Y-54788778D01*
X48259155Y-54843384D01*
X48251675Y-54981029D01*
X48269732Y-55121794D01*
X48311071Y-55257827D01*
X48373432Y-55381275D01*
X48438604Y-55467531D01*
X48457997Y-55492164D01*
X48460644Y-55503206D01*
X48727022Y-55503206D01*
X48673873Y-55473952D01*
X48571258Y-55383127D01*
X48490110Y-55270682D01*
X48433080Y-55138991D01*
X48431170Y-55132804D01*
X48406360Y-54999267D01*
X48411296Y-54866782D01*
X48444126Y-54739488D01*
X48502997Y-54621524D01*
X48586055Y-54517032D01*
X48691449Y-54430149D01*
X48764398Y-54388312D01*
X48814445Y-54364754D01*
X48855707Y-54349655D01*
X48897986Y-54341149D01*
X48951086Y-54337367D01*
X49024810Y-54336444D01*
X49036792Y-54336437D01*
X49116263Y-54337349D01*
X49173591Y-54341139D01*
X49218358Y-54349389D01*
X49260144Y-54363680D01*
X49294587Y-54378983D01*
X49413587Y-54451342D01*
X49514234Y-54546354D01*
X49592536Y-54659278D01*
X49644498Y-54785371D01*
X49648141Y-54798712D01*
X49669300Y-54920352D01*
X49823518Y-54920352D01*
X49822326Y-54885936D01*
X49791328Y-54748422D01*
X49738022Y-54613155D01*
X49678701Y-54509921D01*
X49644607Y-54459523D01*
X49627246Y-54430708D01*
X49625237Y-54418981D01*
X49637204Y-54419847D01*
X49652788Y-54425398D01*
X49694392Y-54443741D01*
X49752393Y-54472504D01*
X49817814Y-54506858D01*
X49881678Y-54541981D01*
X49935009Y-54573044D01*
X49968828Y-54595224D01*
X49969104Y-54595435D01*
X49980699Y-54605607D01*
X49989434Y-54618708D01*
X49995768Y-54639079D01*
X50000161Y-54671065D01*
X50003073Y-54719009D01*
X50004964Y-54787254D01*
X50006292Y-54880144D01*
X50007055Y-54954012D01*
X50010291Y-55285838D01*
X50033747Y-55285838D01*
X50034505Y-55283354D01*
X50050406Y-55265647D01*
X50076610Y-55246452D01*
X50095943Y-55232841D01*
X50142159Y-55196824D01*
X50201027Y-55146981D01*
X50262627Y-55091820D01*
X50287967Y-55068128D01*
X50403747Y-54958161D01*
X50335592Y-54888412D01*
X50291496Y-54846400D01*
X50232370Y-54794208D01*
X50168501Y-54740817D01*
X50144407Y-54721512D01*
X50087013Y-54675337D01*
X50049606Y-54639306D01*
X50028967Y-54604986D01*
X50021879Y-54563944D01*
X50025124Y-54507746D01*
X50034672Y-54433915D01*
X50045188Y-54356767D01*
X50172188Y-54447851D01*
X50244771Y-54502080D01*
X50323721Y-54564467D01*
X50394499Y-54623453D01*
X50408999Y-54636124D01*
X50463364Y-54686669D01*
X50521135Y-54744408D01*
X50577818Y-54804337D01*
X50628914Y-54861454D01*
X50669926Y-54910755D01*
X50696357Y-54947237D01*
X50704000Y-54964329D01*
X53942500Y-54964329D01*
X53942500Y-51358505D01*
X52227812Y-51358505D01*
X52214571Y-51369304D01*
X52179086Y-51390828D01*
X52127461Y-51419498D01*
X52090109Y-51439250D01*
X51859401Y-51572127D01*
X51627745Y-51730181D01*
X51401973Y-51907806D01*
X51188917Y-52099397D01*
X50995409Y-52299349D01*
X50887689Y-52425751D01*
X50693032Y-52689549D01*
X50518230Y-52972380D01*
X50365804Y-53269052D01*
X50238276Y-53574370D01*
X50138168Y-53883140D01*
X50093934Y-54060536D01*
X50077781Y-54136767D01*
X50064649Y-54204855D01*
X50055964Y-54256990D01*
X50053125Y-54284109D01*
X50049693Y-54317711D01*
X50043739Y-54332595D01*
X50026751Y-54329568D01*
X49987433Y-54314389D01*
X49931640Y-54289524D01*
X49865227Y-54257437D01*
X49865145Y-54257396D01*
X49686407Y-54175845D01*
X49518700Y-54116898D01*
X49353199Y-54078384D01*
X49181080Y-54058131D01*
X49037125Y-54053613D01*
X48948972Y-54055271D01*
X48861209Y-54059769D01*
X48784776Y-54066390D01*
X48736202Y-54073285D01*
X48522345Y-54128605D01*
X48304680Y-54212431D01*
X48087970Y-54322698D01*
X47921079Y-54426805D01*
X47868374Y-54465635D01*
X47804611Y-54517491D01*
X47733741Y-54578619D01*
X47659711Y-54645268D01*
X47586469Y-54713685D01*
X47517965Y-54780119D01*
X47458148Y-54840817D01*
X47410965Y-54892026D01*
X47380365Y-54929995D01*
X47370250Y-54950234D01*
X47382301Y-54982310D01*
X47416016Y-55030038D01*
X47467746Y-55089909D01*
X47533838Y-55158417D01*
X47610640Y-55232053D01*
X47694501Y-55307308D01*
X47781769Y-55380677D01*
X47868791Y-55448649D01*
X47947594Y-55504818D01*
X48155470Y-55631708D01*
X48359868Y-55729128D01*
X48564926Y-55798430D01*
X48774781Y-55840969D01*
X48993570Y-55858097D01*
X49029188Y-55858568D01*
X49221197Y-55851249D01*
X49399132Y-55825914D01*
X49571751Y-55780420D01*
X49747815Y-55712623D01*
X49877205Y-55651050D01*
X49942240Y-55618472D01*
X49995945Y-55592454D01*
X50032636Y-55575689D01*
X50046589Y-55570815D01*
X50051312Y-55586880D01*
X50061385Y-55627874D01*
X50075359Y-55687711D01*
X50091786Y-55760309D01*
X50092873Y-55765187D01*
X50176549Y-56074656D01*
X50288596Y-56383713D01*
X50426130Y-56686352D01*
X50586271Y-56976564D01*
X50766135Y-57248342D01*
X50869740Y-57384437D01*
X50940391Y-57467556D01*
X51028950Y-57563891D01*
X51128648Y-57666681D01*
X51232717Y-57769165D01*
X51334387Y-57864583D01*
X51426890Y-57946172D01*
X51457613Y-57971644D01*
X51678001Y-58137146D01*
X51913973Y-58290331D01*
X52065136Y-58376625D01*
X52128913Y-58411908D01*
X52180947Y-58442409D01*
X52215669Y-58464745D01*
X52227548Y-58475284D01*
X52213093Y-58487828D01*
X52171945Y-58505201D01*
X52108595Y-58526264D01*
X52027534Y-58549882D01*
X51933255Y-58574918D01*
X51830249Y-58600233D01*
X51723007Y-58624692D01*
X51616021Y-58647158D01*
X51513782Y-58666493D01*
X51420782Y-58681561D01*
X51402500Y-58684124D01*
X51289466Y-58695643D01*
X51153880Y-58703398D01*
X51004717Y-58707373D01*
X50850955Y-58707556D01*
X50701568Y-58703932D01*
X50565532Y-58696487D01*
X50454782Y-58685597D01*
X50109283Y-58625015D01*
X49774668Y-58535176D01*
X49452395Y-58416993D01*
X49143923Y-58271381D01*
X48850713Y-58099254D01*
X48574223Y-57901527D01*
X48315912Y-57679113D01*
X48077239Y-57432927D01*
X47859664Y-57163882D01*
X47731839Y-56979625D01*
X47557866Y-56684301D01*
X47412659Y-56377135D01*
X47296410Y-56060133D01*
X47209314Y-55735302D01*
X47151566Y-55404649D01*
X47123360Y-55070179D01*
X47124891Y-54733900D01*
X47156351Y-54397817D01*
X47217937Y-54063939D01*
X47309842Y-53734270D01*
X47394953Y-53500499D01*
X47536863Y-53189138D01*
X47706310Y-52892706D01*
X47902061Y-52612702D01*
X48122884Y-52350622D01*
X48367547Y-52107964D01*
X48634819Y-51886225D01*
X48846625Y-51736358D01*
X49051196Y-51613122D01*
X49278196Y-51497116D01*
X49518485Y-51392165D01*
X49762925Y-51302099D01*
X50002377Y-51230744D01*
X50121468Y-51202395D01*
X50389683Y-51156495D01*
X50672328Y-51130003D01*
X50961008Y-51122923D01*
X51247325Y-51135262D01*
X51522882Y-51167025D01*
X51707057Y-51201298D01*
X51775401Y-51217487D01*
X51854014Y-51237995D01*
X51937276Y-51261125D01*
X52019565Y-51285180D01*
X52095260Y-51308463D01*
X52158740Y-51329278D01*
X52204383Y-51345927D01*
X52226569Y-51356713D01*
X52227812Y-51358505D01*
X53942500Y-51358505D01*
X53942500Y-50974235D01*
X53743648Y-50985283D01*
X53484209Y-51006538D01*
X53240891Y-51041641D01*
X53002058Y-51092837D01*
X52756071Y-51162372D01*
X52654326Y-51195401D01*
X52437715Y-51268021D01*
X52285912Y-51211154D01*
X51963847Y-51107260D01*
X51632545Y-51032648D01*
X51294758Y-50987204D01*
X50953241Y-50970809D01*
X50610743Y-50983347D01*
X50610743Y-50983347D01*
G37*
X50610743Y-50983347D02*
X50270019Y-51024702D01*
X49933819Y-51094758D01*
X49604896Y-51193397D01*
X49286003Y-51320503D01*
X49243500Y-51340009D01*
X48938468Y-51499605D01*
X48649544Y-51685531D01*
X48378278Y-51895900D01*
X48126221Y-52128825D01*
X47894926Y-52382421D01*
X47685942Y-52654800D01*
X47500821Y-52944077D01*
X47341113Y-53248363D01*
X47208371Y-53565774D01*
X47104145Y-53894422D01*
X47086191Y-53964020D01*
X47051930Y-54110761D01*
X47025674Y-54245168D01*
X47006270Y-54376311D01*
X46992565Y-54513259D01*
X46983407Y-54665083D01*
X46978335Y-54812687D01*
X46981374Y-55148994D01*
X47009007Y-55468610D01*
X47062200Y-55776051D01*
X47141919Y-56075837D01*
X47249130Y-56372485D01*
X47368841Y-56638312D01*
X47539853Y-56951876D01*
X47734637Y-57245412D01*
X47951811Y-57517915D01*
X48189996Y-57768382D01*
X48447810Y-57995809D01*
X48723874Y-58199192D01*
X49016806Y-58377528D01*
X49325227Y-58529812D01*
X49647754Y-58655041D01*
X49983008Y-58752211D01*
X50329609Y-58820318D01*
X50379884Y-58827604D01*
X50462712Y-58836913D01*
X50566229Y-58845267D01*
X50682502Y-58852344D01*
X50803599Y-58857820D01*
X50921588Y-58861370D01*
X51028538Y-58862672D01*
X51116517Y-58861400D01*
X51156438Y-58859303D01*
X51479887Y-58823875D01*
X51786905Y-58767177D01*
X52086067Y-58687504D01*
X52191530Y-58653530D01*
X52448748Y-58566990D01*
X52683655Y-58645063D01*
X52940952Y-58722358D01*
X53191656Y-58779931D01*
X53447233Y-58819948D01*
X53719149Y-58844578D01*
X53748032Y-58846298D01*
X53942500Y-58857372D01*
X53942500Y-54964329D01*
X50704000Y-54964329D01*
X50692752Y-54984012D01*
X50661743Y-55020678D01*
X50615077Y-55070371D01*
X50556857Y-55129132D01*
X50491186Y-55193003D01*
X50422169Y-55258028D01*
X50353908Y-55320247D01*
X50290506Y-55375702D01*
X50236068Y-55420437D01*
X50213033Y-55437881D01*
X50156525Y-55478136D01*
X50109438Y-55510249D01*
X50077676Y-55530277D01*
X50067584Y-55535000D01*
X50058228Y-55520969D01*
X50049005Y-55485905D01*
X50046583Y-55471500D01*
X50034945Y-55393647D01*
X50028141Y-55340745D01*
X50027539Y-55306184D01*
X50033747Y-55285838D01*
X50010291Y-55285838D01*
X49964771Y-55319137D01*
X49934124Y-55338848D01*
X49886007Y-55366841D01*
X49827385Y-55399399D01*
X49765225Y-55432806D01*
X49706494Y-55463344D01*
X49658157Y-55487298D01*
X49627181Y-55500949D01*
X49620637Y-55502748D01*
X49622690Y-55491835D01*
X49640418Y-55463177D01*
X49660356Y-55435754D01*
X49724206Y-55333994D01*
X49774848Y-55217162D01*
X49809515Y-55094650D01*
X49825439Y-54975849D01*
X49823518Y-54920352D01*
X49669300Y-54920352D01*
X49665240Y-55035427D01*
X49640774Y-55141035D01*
X49584826Y-55270600D01*
X49504060Y-55382266D01*
X49401639Y-55473141D01*
X49280723Y-55540333D01*
X49164149Y-55577016D01*
X49102538Y-55589658D01*
X49058415Y-55595486D01*
X49018315Y-55594749D01*
X48968771Y-55587694D01*
X48932885Y-55581258D01*
X48795299Y-55540787D01*
X48727022Y-55503206D01*
X48460644Y-55503206D01*
X48460138Y-55503250D01*
X48442080Y-55496536D01*
X48402459Y-55478476D01*
X48347971Y-55452189D01*
X48310527Y-55433563D01*
X48229897Y-55389783D01*
X48140921Y-55336466D01*
X48060231Y-55283672D01*
X48044938Y-55272908D01*
X47973988Y-55220059D01*
X47902250Y-55163093D01*
X47834188Y-55105966D01*
X47774267Y-55052634D01*
X47726952Y-55007054D01*
X47696706Y-54973180D01*
X47687750Y-54956403D01*
X47699608Y-54937098D01*
X47732078Y-54902600D01*
X47780503Y-54856943D01*
X47840229Y-54804161D01*
X47906599Y-54748287D01*
X47974958Y-54693353D01*
X48040649Y-54643394D01*
X48087215Y-54610355D01*
X48179404Y-54551348D01*
X48275825Y-54495925D01*
X48366146Y-54449766D01*
X48428721Y-54422691D01*
X48451306Y-54414949D01*
X48456826Y-54418357D01*
X48444318Y-54437737D01*
X48419352Y-54469668D01*
X48358877Y-54562654D01*
X48307224Y-54673581D01*
X48270253Y-54788778D01*
X48259155Y-54843384D01*
X48251675Y-54981029D01*
X48269732Y-55121794D01*
X48311071Y-55257827D01*
X48373432Y-55381275D01*
X48438604Y-55467531D01*
X48457997Y-55492164D01*
X48460644Y-55503206D01*
X48727022Y-55503206D01*
X48673873Y-55473952D01*
X48571258Y-55383127D01*
X48490110Y-55270682D01*
X48433080Y-55138991D01*
X48431170Y-55132804D01*
X48406360Y-54999267D01*
X48411296Y-54866782D01*
X48444126Y-54739488D01*
X48502997Y-54621524D01*
X48586055Y-54517032D01*
X48691449Y-54430149D01*
X48764398Y-54388312D01*
X48814445Y-54364754D01*
X48855707Y-54349655D01*
X48897986Y-54341149D01*
X48951086Y-54337367D01*
X49024810Y-54336444D01*
X49036792Y-54336437D01*
X49116263Y-54337349D01*
X49173591Y-54341139D01*
X49218358Y-54349389D01*
X49260144Y-54363680D01*
X49294587Y-54378983D01*
X49413587Y-54451342D01*
X49514234Y-54546354D01*
X49592536Y-54659278D01*
X49644498Y-54785371D01*
X49648141Y-54798712D01*
X49669300Y-54920352D01*
X49823518Y-54920352D01*
X49822326Y-54885936D01*
X49791328Y-54748422D01*
X49738022Y-54613155D01*
X49678701Y-54509921D01*
X49644607Y-54459523D01*
X49627246Y-54430708D01*
X49625237Y-54418981D01*
X49637204Y-54419847D01*
X49652788Y-54425398D01*
X49694392Y-54443741D01*
X49752393Y-54472504D01*
X49817814Y-54506858D01*
X49881678Y-54541981D01*
X49935009Y-54573044D01*
X49968828Y-54595224D01*
X49969104Y-54595435D01*
X49980699Y-54605607D01*
X49989434Y-54618708D01*
X49995768Y-54639079D01*
X50000161Y-54671065D01*
X50003073Y-54719009D01*
X50004964Y-54787254D01*
X50006292Y-54880144D01*
X50007055Y-54954012D01*
X50010291Y-55285838D01*
X50033747Y-55285838D01*
X50034505Y-55283354D01*
X50050406Y-55265647D01*
X50076610Y-55246452D01*
X50095943Y-55232841D01*
X50142159Y-55196824D01*
X50201027Y-55146981D01*
X50262627Y-55091820D01*
X50287967Y-55068128D01*
X50403747Y-54958161D01*
X50335592Y-54888412D01*
X50291496Y-54846400D01*
X50232370Y-54794208D01*
X50168501Y-54740817D01*
X50144407Y-54721512D01*
X50087013Y-54675337D01*
X50049606Y-54639306D01*
X50028967Y-54604986D01*
X50021879Y-54563944D01*
X50025124Y-54507746D01*
X50034672Y-54433915D01*
X50045188Y-54356767D01*
X50172188Y-54447851D01*
X50244771Y-54502080D01*
X50323721Y-54564467D01*
X50394499Y-54623453D01*
X50408999Y-54636124D01*
X50463364Y-54686669D01*
X50521135Y-54744408D01*
X50577818Y-54804337D01*
X50628914Y-54861454D01*
X50669926Y-54910755D01*
X50696357Y-54947237D01*
X50704000Y-54964329D01*
X53942500Y-54964329D01*
X53942500Y-51358505D01*
X52227812Y-51358505D01*
X52214571Y-51369304D01*
X52179086Y-51390828D01*
X52127461Y-51419498D01*
X52090109Y-51439250D01*
X51859401Y-51572127D01*
X51627745Y-51730181D01*
X51401973Y-51907806D01*
X51188917Y-52099397D01*
X50995409Y-52299349D01*
X50887689Y-52425751D01*
X50693032Y-52689549D01*
X50518230Y-52972380D01*
X50365804Y-53269052D01*
X50238276Y-53574370D01*
X50138168Y-53883140D01*
X50093934Y-54060536D01*
X50077781Y-54136767D01*
X50064649Y-54204855D01*
X50055964Y-54256990D01*
X50053125Y-54284109D01*
X50049693Y-54317711D01*
X50043739Y-54332595D01*
X50026751Y-54329568D01*
X49987433Y-54314389D01*
X49931640Y-54289524D01*
X49865227Y-54257437D01*
X49865145Y-54257396D01*
X49686407Y-54175845D01*
X49518700Y-54116898D01*
X49353199Y-54078384D01*
X49181080Y-54058131D01*
X49037125Y-54053613D01*
X48948972Y-54055271D01*
X48861209Y-54059769D01*
X48784776Y-54066390D01*
X48736202Y-54073285D01*
X48522345Y-54128605D01*
X48304680Y-54212431D01*
X48087970Y-54322698D01*
X47921079Y-54426805D01*
X47868374Y-54465635D01*
X47804611Y-54517491D01*
X47733741Y-54578619D01*
X47659711Y-54645268D01*
X47586469Y-54713685D01*
X47517965Y-54780119D01*
X47458148Y-54840817D01*
X47410965Y-54892026D01*
X47380365Y-54929995D01*
X47370250Y-54950234D01*
X47382301Y-54982310D01*
X47416016Y-55030038D01*
X47467746Y-55089909D01*
X47533838Y-55158417D01*
X47610640Y-55232053D01*
X47694501Y-55307308D01*
X47781769Y-55380677D01*
X47868791Y-55448649D01*
X47947594Y-55504818D01*
X48155470Y-55631708D01*
X48359868Y-55729128D01*
X48564926Y-55798430D01*
X48774781Y-55840969D01*
X48993570Y-55858097D01*
X49029188Y-55858568D01*
X49221197Y-55851249D01*
X49399132Y-55825914D01*
X49571751Y-55780420D01*
X49747815Y-55712623D01*
X49877205Y-55651050D01*
X49942240Y-55618472D01*
X49995945Y-55592454D01*
X50032636Y-55575689D01*
X50046589Y-55570815D01*
X50051312Y-55586880D01*
X50061385Y-55627874D01*
X50075359Y-55687711D01*
X50091786Y-55760309D01*
X50092873Y-55765187D01*
X50176549Y-56074656D01*
X50288596Y-56383713D01*
X50426130Y-56686352D01*
X50586271Y-56976564D01*
X50766135Y-57248342D01*
X50869740Y-57384437D01*
X50940391Y-57467556D01*
X51028950Y-57563891D01*
X51128648Y-57666681D01*
X51232717Y-57769165D01*
X51334387Y-57864583D01*
X51426890Y-57946172D01*
X51457613Y-57971644D01*
X51678001Y-58137146D01*
X51913973Y-58290331D01*
X52065136Y-58376625D01*
X52128913Y-58411908D01*
X52180947Y-58442409D01*
X52215669Y-58464745D01*
X52227548Y-58475284D01*
X52213093Y-58487828D01*
X52171945Y-58505201D01*
X52108595Y-58526264D01*
X52027534Y-58549882D01*
X51933255Y-58574918D01*
X51830249Y-58600233D01*
X51723007Y-58624692D01*
X51616021Y-58647158D01*
X51513782Y-58666493D01*
X51420782Y-58681561D01*
X51402500Y-58684124D01*
X51289466Y-58695643D01*
X51153880Y-58703398D01*
X51004717Y-58707373D01*
X50850955Y-58707556D01*
X50701568Y-58703932D01*
X50565532Y-58696487D01*
X50454782Y-58685597D01*
X50109283Y-58625015D01*
X49774668Y-58535176D01*
X49452395Y-58416993D01*
X49143923Y-58271381D01*
X48850713Y-58099254D01*
X48574223Y-57901527D01*
X48315912Y-57679113D01*
X48077239Y-57432927D01*
X47859664Y-57163882D01*
X47731839Y-56979625D01*
X47557866Y-56684301D01*
X47412659Y-56377135D01*
X47296410Y-56060133D01*
X47209314Y-55735302D01*
X47151566Y-55404649D01*
X47123360Y-55070179D01*
X47124891Y-54733900D01*
X47156351Y-54397817D01*
X47217937Y-54063939D01*
X47309842Y-53734270D01*
X47394953Y-53500499D01*
X47536863Y-53189138D01*
X47706310Y-52892706D01*
X47902061Y-52612702D01*
X48122884Y-52350622D01*
X48367547Y-52107964D01*
X48634819Y-51886225D01*
X48846625Y-51736358D01*
X49051196Y-51613122D01*
X49278196Y-51497116D01*
X49518485Y-51392165D01*
X49762925Y-51302099D01*
X50002377Y-51230744D01*
X50121468Y-51202395D01*
X50389683Y-51156495D01*
X50672328Y-51130003D01*
X50961008Y-51122923D01*
X51247325Y-51135262D01*
X51522882Y-51167025D01*
X51707057Y-51201298D01*
X51775401Y-51217487D01*
X51854014Y-51237995D01*
X51937276Y-51261125D01*
X52019565Y-51285180D01*
X52095260Y-51308463D01*
X52158740Y-51329278D01*
X52204383Y-51345927D01*
X52226569Y-51356713D01*
X52227812Y-51358505D01*
X53942500Y-51358505D01*
X53942500Y-50974235D01*
X53743648Y-50985283D01*
X53484209Y-51006538D01*
X53240891Y-51041641D01*
X53002058Y-51092837D01*
X52756071Y-51162372D01*
X52654326Y-51195401D01*
X52437715Y-51268021D01*
X52285912Y-51211154D01*
X51963847Y-51107260D01*
X51632545Y-51032648D01*
X51294758Y-50987204D01*
X50953241Y-50970809D01*
X50610743Y-50983347D01*
G36*
X49183676Y-56321570D02*
X49138015Y-56344161D01*
X49098860Y-56373304D01*
X49061502Y-56414333D01*
X49021230Y-56472582D01*
X48973334Y-56553388D01*
X48963286Y-56571191D01*
X48914482Y-56654293D01*
X48874060Y-56712071D01*
X48837618Y-56748263D01*
X48800757Y-56766606D01*
X48759075Y-56770840D01*
X48731222Y-56768339D01*
X48668658Y-56750114D01*
X48625061Y-56712518D01*
X48597439Y-56651783D01*
X48584812Y-56583821D01*
X48573633Y-56487500D01*
X48433875Y-56487500D01*
X48433964Y-56562906D01*
X48446568Y-56671023D01*
X48482438Y-56765589D01*
X48539065Y-56841837D01*
X48607097Y-56891586D01*
X48663220Y-56911176D01*
X48731627Y-56922359D01*
X48797086Y-56923416D01*
X48833249Y-56917128D01*
X48880324Y-56900123D01*
X48919926Y-56879254D01*
X48955882Y-56850300D01*
X48992020Y-56809041D01*
X49032170Y-56751257D01*
X49080158Y-56672728D01*
X49124561Y-56595991D01*
X49169550Y-56525461D01*
X49211110Y-56480941D01*
X49254874Y-56458014D01*
X49306476Y-56452260D01*
X49307746Y-56452293D01*
X49376560Y-56467624D01*
X49426907Y-56507928D01*
X49457197Y-56571285D01*
X49465994Y-56643314D01*
X49470495Y-56699173D01*
X49486855Y-56729024D01*
X49520240Y-56737895D01*
X49559036Y-56733894D01*
X49600816Y-56724355D01*
X49619487Y-56710009D01*
X49623605Y-56683782D01*
X49623554Y-56680573D01*
X49610670Y-56561825D01*
X49577256Y-56466270D01*
X49522368Y-56392115D01*
X49445066Y-56337568D01*
X49442790Y-56336416D01*
X49347245Y-56303234D01*
X49254502Y-56301438D01*
X49183676Y-56321570D01*
X49183676Y-56321570D01*
G37*
X49183676Y-56321570D02*
X49138015Y-56344161D01*
X49098860Y-56373304D01*
X49061502Y-56414333D01*
X49021230Y-56472582D01*
X48973334Y-56553388D01*
X48963286Y-56571191D01*
X48914482Y-56654293D01*
X48874060Y-56712071D01*
X48837618Y-56748263D01*
X48800757Y-56766606D01*
X48759075Y-56770840D01*
X48731222Y-56768339D01*
X48668658Y-56750114D01*
X48625061Y-56712518D01*
X48597439Y-56651783D01*
X48584812Y-56583821D01*
X48573633Y-56487500D01*
X48433875Y-56487500D01*
X48433964Y-56562906D01*
X48446568Y-56671023D01*
X48482438Y-56765589D01*
X48539065Y-56841837D01*
X48607097Y-56891586D01*
X48663220Y-56911176D01*
X48731627Y-56922359D01*
X48797086Y-56923416D01*
X48833249Y-56917128D01*
X48880324Y-56900123D01*
X48919926Y-56879254D01*
X48955882Y-56850300D01*
X48992020Y-56809041D01*
X49032170Y-56751257D01*
X49080158Y-56672728D01*
X49124561Y-56595991D01*
X49169550Y-56525461D01*
X49211110Y-56480941D01*
X49254874Y-56458014D01*
X49306476Y-56452260D01*
X49307746Y-56452293D01*
X49376560Y-56467624D01*
X49426907Y-56507928D01*
X49457197Y-56571285D01*
X49465994Y-56643314D01*
X49470495Y-56699173D01*
X49486855Y-56729024D01*
X49520240Y-56737895D01*
X49559036Y-56733894D01*
X49600816Y-56724355D01*
X49619487Y-56710009D01*
X49623605Y-56683782D01*
X49623554Y-56680573D01*
X49610670Y-56561825D01*
X49577256Y-56466270D01*
X49522368Y-56392115D01*
X49445066Y-56337568D01*
X49442790Y-56336416D01*
X49347245Y-56303234D01*
X49254502Y-56301438D01*
X49183676Y-56321570D01*
G36*
X49116500Y-53455375D02*
X48941875Y-53455375D01*
X48941875Y-53328375D01*
X48799000Y-53328375D01*
X48799000Y-53455375D01*
X48624375Y-53455375D01*
X48624375Y-52852125D01*
X48481500Y-52852125D01*
X48481500Y-53614125D01*
X49259375Y-53614125D01*
X49259375Y-52979125D01*
X49497500Y-52979125D01*
X49497500Y-53598250D01*
X49640375Y-53598250D01*
X49640375Y-52836250D01*
X49116500Y-52836250D01*
X49116500Y-53455375D01*
X49116500Y-53455375D01*
G37*
X49116500Y-53455375D02*
X48941875Y-53455375D01*
X48941875Y-53328375D01*
X48799000Y-53328375D01*
X48799000Y-53455375D01*
X48624375Y-53455375D01*
X48624375Y-52852125D01*
X48481500Y-52852125D01*
X48481500Y-53614125D01*
X49259375Y-53614125D01*
X49259375Y-52979125D01*
X49497500Y-52979125D01*
X49497500Y-53598250D01*
X49640375Y-53598250D01*
X49640375Y-52836250D01*
X49116500Y-52836250D01*
X49116500Y-53455375D01*
G36*
X48799000Y-53264875D02*
X48941875Y-53264875D01*
X48941875Y-53090250D01*
X48799000Y-53090250D01*
X48799000Y-53264875D01*
X48799000Y-53264875D01*
G37*
X48799000Y-53264875D02*
X48941875Y-53264875D01*
X48941875Y-53090250D01*
X48799000Y-53090250D01*
X48799000Y-53264875D01*
G36*
X48799000Y-53026750D02*
X48941875Y-53026750D01*
X48941875Y-52852125D01*
X48799000Y-52852125D01*
X48799000Y-53026750D01*
X48799000Y-53026750D01*
G37*
X48799000Y-53026750D02*
X48941875Y-53026750D01*
X48941875Y-52852125D01*
X48799000Y-52852125D01*
X48799000Y-53026750D01*
G36*
X48941718Y-54652175D02*
X48861206Y-54689674D01*
X48797110Y-54746209D01*
X48750948Y-54816899D01*
X48724241Y-54896865D01*
X48718508Y-54981227D01*
X48735269Y-55065106D01*
X48776043Y-55143621D01*
X48842350Y-55211894D01*
X48855563Y-55221635D01*
X48926119Y-55255907D01*
X49010392Y-55274394D01*
X49094092Y-55274856D01*
X49137376Y-55265782D01*
X49221973Y-55223878D01*
X49286372Y-55162460D01*
X49329941Y-55087019D01*
X49352045Y-55003046D01*
X49352052Y-54916032D01*
X49329327Y-54831468D01*
X49283239Y-54754847D01*
X49213153Y-54691659D01*
X49204253Y-54685952D01*
X49146137Y-54655234D01*
X49091194Y-54641289D01*
X49037125Y-54638591D01*
X48941718Y-54652175D01*
X48941718Y-54652175D01*
G37*
X48941718Y-54652175D02*
X48861206Y-54689674D01*
X48797110Y-54746209D01*
X48750948Y-54816899D01*
X48724241Y-54896865D01*
X48718508Y-54981227D01*
X48735269Y-55065106D01*
X48776043Y-55143621D01*
X48842350Y-55211894D01*
X48855563Y-55221635D01*
X48926119Y-55255907D01*
X49010392Y-55274394D01*
X49094092Y-55274856D01*
X49137376Y-55265782D01*
X49221973Y-55223878D01*
X49286372Y-55162460D01*
X49329941Y-55087019D01*
X49352045Y-55003046D01*
X49352052Y-54916032D01*
X49329327Y-54831468D01*
X49283239Y-54754847D01*
X49213153Y-54691659D01*
X49204253Y-54685952D01*
X49146137Y-54655234D01*
X49091194Y-54641289D01*
X49037125Y-54638591D01*
X48941718Y-54652175D01*
%LPC*%
G36*
X43197472Y-67797199D02*
X43087660Y-67812043D01*
X42984895Y-67838060D01*
X42892731Y-67875305D01*
X42891476Y-67875935D01*
X42800175Y-67930600D01*
X42720288Y-67997128D01*
X42651570Y-68076004D01*
X42593775Y-68167710D01*
X42546657Y-68272730D01*
X42509968Y-68391547D01*
X42483464Y-68524646D01*
X42466898Y-68672509D01*
X42464082Y-68715284D01*
X42460805Y-68816929D01*
X42461790Y-68924115D01*
X42466769Y-69030877D01*
X42475472Y-69131252D01*
X42486581Y-69213101D01*
X42499743Y-69277333D01*
X42518157Y-69347076D01*
X42540027Y-69416693D01*
X42563558Y-69480549D01*
X42586956Y-69533010D01*
X42590852Y-69540502D01*
X42613293Y-69578643D01*
X42641302Y-69620669D01*
X42671572Y-69662131D01*
X42700799Y-69698584D01*
X42725676Y-69725583D01*
X42733917Y-69732940D01*
X42758321Y-69752647D01*
X42718681Y-69794413D01*
X42646519Y-69883535D01*
X42586039Y-69986526D01*
X42537250Y-70103361D01*
X42500163Y-70234018D01*
X42485553Y-70307139D01*
X42474003Y-70392313D01*
X42466195Y-70490171D01*
X42462130Y-70595785D01*
X42461807Y-70704227D01*
X42465226Y-70810569D01*
X42472387Y-70909884D01*
X42483289Y-70997244D01*
X42485601Y-71011051D01*
X42516042Y-71145825D01*
X42557679Y-71266348D01*
X42610567Y-71372687D01*
X42674762Y-71464911D01*
X42750318Y-71543087D01*
X42837291Y-71607282D01*
X42935736Y-71657566D01*
X43039536Y-71692406D01*
X43088068Y-71701909D01*
X43149725Y-71709111D01*
X43219618Y-71713881D01*
X43292860Y-71716084D01*
X43364562Y-71715587D01*
X43429835Y-71712258D01*
X43483792Y-71705964D01*
X43490930Y-71704695D01*
X43605146Y-71675891D01*
X43707523Y-71634594D01*
X43798354Y-71580441D01*
X43877926Y-71513073D01*
X43946532Y-71432127D01*
X44004461Y-71337241D01*
X44052003Y-71228055D01*
X44089448Y-71104206D01*
X44117087Y-70965333D01*
X44124166Y-70915679D01*
X44128595Y-70868572D01*
X44131797Y-70807908D01*
X44133771Y-70738091D01*
X44133948Y-70720338D01*
X43787006Y-70720338D01*
X43785337Y-70794368D01*
X43781745Y-70859776D01*
X43776141Y-70912746D01*
X43775703Y-70915679D01*
X43753782Y-71025545D01*
X43723638Y-71119488D01*
X43684679Y-71198044D01*
X43636315Y-71261750D01*
X43577952Y-71311142D01*
X43509001Y-71346757D01*
X43428869Y-71369131D01*
X43336965Y-71378800D01*
X43265594Y-71378309D01*
X43209603Y-71373751D01*
X43156675Y-71365836D01*
X43115915Y-71356149D01*
X43045519Y-71328111D01*
X42986716Y-71290266D01*
X42938005Y-71240912D01*
X42897885Y-71178346D01*
X42864855Y-71100866D01*
X42850145Y-71054674D01*
X42834616Y-70993188D01*
X42823022Y-70928073D01*
X42815008Y-70855938D01*
X42810222Y-70773394D01*
X42808310Y-70677048D01*
X42808240Y-70652369D01*
X42811302Y-70518556D01*
X42820815Y-70400926D01*
X42837201Y-70298550D01*
X42860881Y-70210502D01*
X42892278Y-70135851D01*
X42931814Y-70073669D01*
X42979910Y-70023029D01*
X43036988Y-69983001D01*
X43103470Y-69952657D01*
X43130250Y-69943784D01*
X43180563Y-69933303D01*
X43242402Y-69927562D01*
X43309795Y-69926501D01*
X43376771Y-69930061D01*
X43437360Y-69938181D01*
X43475085Y-69947249D01*
X43548230Y-69977769D01*
X43610869Y-70021192D01*
X43663591Y-70078264D01*
X43706985Y-70149726D01*
X43741640Y-70236324D01*
X43761604Y-70308854D01*
X43769611Y-70354459D01*
X43776226Y-70414344D01*
X43781362Y-70484690D01*
X43784930Y-70561683D01*
X43786841Y-70641505D01*
X43787006Y-70720338D01*
X44133948Y-70720338D01*
X44134516Y-70663529D01*
X44134031Y-70588630D01*
X44132315Y-70517798D01*
X44129368Y-70455442D01*
X44125187Y-70405968D01*
X44124282Y-70398607D01*
X44099750Y-70254562D01*
X44065906Y-70125862D01*
X44022627Y-70012207D01*
X43969791Y-69913301D01*
X43907276Y-69828844D01*
X43878210Y-69797714D01*
X43839707Y-69759250D01*
X43880028Y-69716072D01*
X43944354Y-69637761D01*
X43998625Y-69550779D01*
X44043335Y-69453714D01*
X44078979Y-69345158D01*
X44106048Y-69223701D01*
X44125038Y-69087932D01*
X44133171Y-68992999D01*
X44136030Y-68914923D01*
X43787514Y-68914923D01*
X43786299Y-68987316D01*
X43783179Y-69050963D01*
X43779074Y-69094282D01*
X43761461Y-69197939D01*
X43736408Y-69290351D01*
X43704574Y-69369597D01*
X43666617Y-69433757D01*
X43659542Y-69443103D01*
X43616257Y-69485681D01*
X43559251Y-69522936D01*
X43492653Y-69552776D01*
X43420594Y-69573113D01*
X43393321Y-69577818D01*
X43339260Y-69582035D01*
X43276071Y-69581650D01*
X43211498Y-69577086D01*
X43153285Y-69568763D01*
X43129583Y-69563481D01*
X43056853Y-69537839D01*
X42995456Y-69501077D01*
X42944176Y-69451865D01*
X42901793Y-69388874D01*
X42867089Y-69310775D01*
X42850106Y-69258396D01*
X42834585Y-69196919D01*
X42822997Y-69131776D01*
X42814990Y-69059580D01*
X42810211Y-68976949D01*
X42808308Y-68880496D01*
X42808240Y-68856226D01*
X42809279Y-68762517D01*
X42812674Y-68682985D01*
X42818792Y-68613775D01*
X42827998Y-68551032D01*
X42840660Y-68490899D01*
X42844433Y-68475725D01*
X42873938Y-68384474D01*
X42912321Y-68308527D01*
X42960432Y-68247241D01*
X43019122Y-68199975D01*
X43089242Y-68166087D01*
X43171641Y-68144934D01*
X43267172Y-68135876D01*
X43295357Y-68135420D01*
X43367023Y-68137438D01*
X43426464Y-68144412D01*
X43479167Y-68157377D01*
X43530620Y-68177364D01*
X43539273Y-68181363D01*
X43601455Y-68220609D01*
X43655603Y-68275629D01*
X43701229Y-68345700D01*
X43737848Y-68430098D01*
X43761340Y-68511750D01*
X43769102Y-68556050D01*
X43775660Y-68614624D01*
X43780897Y-68683634D01*
X43784696Y-68759246D01*
X43786941Y-68837621D01*
X43787514Y-68914923D01*
X44136030Y-68914923D01*
X44137490Y-68875085D01*
X44135167Y-68754565D01*
X44126602Y-68635382D01*
X44112196Y-68521481D01*
X44092350Y-68416807D01*
X44067464Y-68325304D01*
X44064418Y-68316160D01*
X44037292Y-68246259D01*
X44004224Y-68176473D01*
X43968583Y-68113514D01*
X43945668Y-68079481D01*
X43905845Y-68032236D01*
X43855892Y-67983347D01*
X43801526Y-67937821D01*
X43748465Y-67900665D01*
X43727818Y-67888693D01*
X43636092Y-67848480D01*
X43533640Y-67819170D01*
X43424017Y-67800817D01*
X43310776Y-67793476D01*
X43197472Y-67797199D01*
X43197472Y-67797199D01*
G37*
X43197472Y-67797199D02*
X43087660Y-67812043D01*
X42984895Y-67838060D01*
X42892731Y-67875305D01*
X42891476Y-67875935D01*
X42800175Y-67930600D01*
X42720288Y-67997128D01*
X42651570Y-68076004D01*
X42593775Y-68167710D01*
X42546657Y-68272730D01*
X42509968Y-68391547D01*
X42483464Y-68524646D01*
X42466898Y-68672509D01*
X42464082Y-68715284D01*
X42460805Y-68816929D01*
X42461790Y-68924115D01*
X42466769Y-69030877D01*
X42475472Y-69131252D01*
X42486581Y-69213101D01*
X42499743Y-69277333D01*
X42518157Y-69347076D01*
X42540027Y-69416693D01*
X42563558Y-69480549D01*
X42586956Y-69533010D01*
X42590852Y-69540502D01*
X42613293Y-69578643D01*
X42641302Y-69620669D01*
X42671572Y-69662131D01*
X42700799Y-69698584D01*
X42725676Y-69725583D01*
X42733917Y-69732940D01*
X42758321Y-69752647D01*
X42718681Y-69794413D01*
X42646519Y-69883535D01*
X42586039Y-69986526D01*
X42537250Y-70103361D01*
X42500163Y-70234018D01*
X42485553Y-70307139D01*
X42474003Y-70392313D01*
X42466195Y-70490171D01*
X42462130Y-70595785D01*
X42461807Y-70704227D01*
X42465226Y-70810569D01*
X42472387Y-70909884D01*
X42483289Y-70997244D01*
X42485601Y-71011051D01*
X42516042Y-71145825D01*
X42557679Y-71266348D01*
X42610567Y-71372687D01*
X42674762Y-71464911D01*
X42750318Y-71543087D01*
X42837291Y-71607282D01*
X42935736Y-71657566D01*
X43039536Y-71692406D01*
X43088068Y-71701909D01*
X43149725Y-71709111D01*
X43219618Y-71713881D01*
X43292860Y-71716084D01*
X43364562Y-71715587D01*
X43429835Y-71712258D01*
X43483792Y-71705964D01*
X43490930Y-71704695D01*
X43605146Y-71675891D01*
X43707523Y-71634594D01*
X43798354Y-71580441D01*
X43877926Y-71513073D01*
X43946532Y-71432127D01*
X44004461Y-71337241D01*
X44052003Y-71228055D01*
X44089448Y-71104206D01*
X44117087Y-70965333D01*
X44124166Y-70915679D01*
X44128595Y-70868572D01*
X44131797Y-70807908D01*
X44133771Y-70738091D01*
X44133948Y-70720338D01*
X43787006Y-70720338D01*
X43785337Y-70794368D01*
X43781745Y-70859776D01*
X43776141Y-70912746D01*
X43775703Y-70915679D01*
X43753782Y-71025545D01*
X43723638Y-71119488D01*
X43684679Y-71198044D01*
X43636315Y-71261750D01*
X43577952Y-71311142D01*
X43509001Y-71346757D01*
X43428869Y-71369131D01*
X43336965Y-71378800D01*
X43265594Y-71378309D01*
X43209603Y-71373751D01*
X43156675Y-71365836D01*
X43115915Y-71356149D01*
X43045519Y-71328111D01*
X42986716Y-71290266D01*
X42938005Y-71240912D01*
X42897885Y-71178346D01*
X42864855Y-71100866D01*
X42850145Y-71054674D01*
X42834616Y-70993188D01*
X42823022Y-70928073D01*
X42815008Y-70855938D01*
X42810222Y-70773394D01*
X42808310Y-70677048D01*
X42808240Y-70652369D01*
X42811302Y-70518556D01*
X42820815Y-70400926D01*
X42837201Y-70298550D01*
X42860881Y-70210502D01*
X42892278Y-70135851D01*
X42931814Y-70073669D01*
X42979910Y-70023029D01*
X43036988Y-69983001D01*
X43103470Y-69952657D01*
X43130250Y-69943784D01*
X43180563Y-69933303D01*
X43242402Y-69927562D01*
X43309795Y-69926501D01*
X43376771Y-69930061D01*
X43437360Y-69938181D01*
X43475085Y-69947249D01*
X43548230Y-69977769D01*
X43610869Y-70021192D01*
X43663591Y-70078264D01*
X43706985Y-70149726D01*
X43741640Y-70236324D01*
X43761604Y-70308854D01*
X43769611Y-70354459D01*
X43776226Y-70414344D01*
X43781362Y-70484690D01*
X43784930Y-70561683D01*
X43786841Y-70641505D01*
X43787006Y-70720338D01*
X44133948Y-70720338D01*
X44134516Y-70663529D01*
X44134031Y-70588630D01*
X44132315Y-70517798D01*
X44129368Y-70455442D01*
X44125187Y-70405968D01*
X44124282Y-70398607D01*
X44099750Y-70254562D01*
X44065906Y-70125862D01*
X44022627Y-70012207D01*
X43969791Y-69913301D01*
X43907276Y-69828844D01*
X43878210Y-69797714D01*
X43839707Y-69759250D01*
X43880028Y-69716072D01*
X43944354Y-69637761D01*
X43998625Y-69550779D01*
X44043335Y-69453714D01*
X44078979Y-69345158D01*
X44106048Y-69223701D01*
X44125038Y-69087932D01*
X44133171Y-68992999D01*
X44136030Y-68914923D01*
X43787514Y-68914923D01*
X43786299Y-68987316D01*
X43783179Y-69050963D01*
X43779074Y-69094282D01*
X43761461Y-69197939D01*
X43736408Y-69290351D01*
X43704574Y-69369597D01*
X43666617Y-69433757D01*
X43659542Y-69443103D01*
X43616257Y-69485681D01*
X43559251Y-69522936D01*
X43492653Y-69552776D01*
X43420594Y-69573113D01*
X43393321Y-69577818D01*
X43339260Y-69582035D01*
X43276071Y-69581650D01*
X43211498Y-69577086D01*
X43153285Y-69568763D01*
X43129583Y-69563481D01*
X43056853Y-69537839D01*
X42995456Y-69501077D01*
X42944176Y-69451865D01*
X42901793Y-69388874D01*
X42867089Y-69310775D01*
X42850106Y-69258396D01*
X42834585Y-69196919D01*
X42822997Y-69131776D01*
X42814990Y-69059580D01*
X42810211Y-68976949D01*
X42808308Y-68880496D01*
X42808240Y-68856226D01*
X42809279Y-68762517D01*
X42812674Y-68682985D01*
X42818792Y-68613775D01*
X42827998Y-68551032D01*
X42840660Y-68490899D01*
X42844433Y-68475725D01*
X42873938Y-68384474D01*
X42912321Y-68308527D01*
X42960432Y-68247241D01*
X43019122Y-68199975D01*
X43089242Y-68166087D01*
X43171641Y-68144934D01*
X43267172Y-68135876D01*
X43295357Y-68135420D01*
X43367023Y-68137438D01*
X43426464Y-68144412D01*
X43479167Y-68157377D01*
X43530620Y-68177364D01*
X43539273Y-68181363D01*
X43601455Y-68220609D01*
X43655603Y-68275629D01*
X43701229Y-68345700D01*
X43737848Y-68430098D01*
X43761340Y-68511750D01*
X43769102Y-68556050D01*
X43775660Y-68614624D01*
X43780897Y-68683634D01*
X43784696Y-68759246D01*
X43786941Y-68837621D01*
X43787514Y-68914923D01*
X44136030Y-68914923D01*
X44137490Y-68875085D01*
X44135167Y-68754565D01*
X44126602Y-68635382D01*
X44112196Y-68521481D01*
X44092350Y-68416807D01*
X44067464Y-68325304D01*
X44064418Y-68316160D01*
X44037292Y-68246259D01*
X44004224Y-68176473D01*
X43968583Y-68113514D01*
X43945668Y-68079481D01*
X43905845Y-68032236D01*
X43855892Y-67983347D01*
X43801526Y-67937821D01*
X43748465Y-67900665D01*
X43727818Y-67888693D01*
X43636092Y-67848480D01*
X43533640Y-67819170D01*
X43424017Y-67800817D01*
X43310776Y-67793476D01*
X43197472Y-67797199D01*
G36*
X41353330Y-67796936D02*
X41284388Y-67800736D01*
X41222071Y-67806912D01*
X41171286Y-67815365D01*
X41168831Y-67815916D01*
X41051806Y-67850683D01*
X40946512Y-67898945D01*
X40852883Y-67960793D01*
X40770853Y-68036324D01*
X40700356Y-68125629D01*
X40641324Y-68228803D01*
X40593691Y-68345940D01*
X40557392Y-68477134D01*
X40532360Y-68622477D01*
X40521661Y-68730522D01*
X40519816Y-68767016D01*
X40518252Y-68821567D01*
X40516971Y-68894091D01*
X40515973Y-68984506D01*
X40515259Y-69092727D01*
X40514827Y-69218672D01*
X40514681Y-69362256D01*
X40514818Y-69523397D01*
X40515241Y-69702011D01*
X40515773Y-69854321D01*
X40516419Y-70012414D01*
X40517058Y-70153435D01*
X40517710Y-70278459D01*
X40518391Y-70388558D01*
X40519122Y-70484803D01*
X40519921Y-70568269D01*
X40520807Y-70640026D01*
X40521798Y-70701148D01*
X40522914Y-70752707D01*
X40524172Y-70795775D01*
X40525593Y-70831425D01*
X40527194Y-70860730D01*
X40528994Y-70884762D01*
X40531013Y-70904593D01*
X40533268Y-70921296D01*
X40534572Y-70929286D01*
X40559332Y-71051126D01*
X40589295Y-71157799D01*
X40625618Y-71251821D01*
X40669460Y-71335712D01*
X40721979Y-71411990D01*
X40784332Y-71483172D01*
X40793555Y-71492516D01*
X40873389Y-71563160D01*
X40958236Y-71619644D01*
X41049947Y-71662642D01*
X41150374Y-71692824D01*
X41261371Y-71710862D01*
X41384789Y-71717426D01*
X41414138Y-71717394D01*
X41463501Y-71716272D01*
X41512192Y-71714083D01*
X41554031Y-71711163D01*
X41579036Y-71708439D01*
X41678286Y-71686623D01*
X41777284Y-71650898D01*
X41870477Y-71603655D01*
X41951326Y-71548085D01*
X42032811Y-71470834D01*
X42103368Y-71379168D01*
X42163008Y-71273063D01*
X42211743Y-71152496D01*
X42249587Y-71017441D01*
X42265519Y-70938357D01*
X42267389Y-70924379D01*
X42269068Y-70904149D01*
X42270563Y-70876790D01*
X42271885Y-70841424D01*
X42273043Y-70797170D01*
X42274044Y-70743152D01*
X42274899Y-70678490D01*
X42275616Y-70602306D01*
X42276204Y-70513721D01*
X42276672Y-70411857D01*
X42277030Y-70295835D01*
X42277285Y-70164777D01*
X42277447Y-70017804D01*
X42277525Y-69854037D01*
X42277534Y-69767715D01*
X41946661Y-69767715D01*
X41946603Y-69891733D01*
X41946404Y-70014039D01*
X41946064Y-70133105D01*
X41945581Y-70247404D01*
X41944956Y-70355411D01*
X41944189Y-70455598D01*
X41943278Y-70546439D01*
X41942224Y-70626408D01*
X41941027Y-70693977D01*
X41939685Y-70747620D01*
X41938199Y-70785810D01*
X41936969Y-70803592D01*
X41919466Y-70925636D01*
X41892902Y-71032218D01*
X41856949Y-71123776D01*
X41811280Y-71200750D01*
X41755567Y-71263582D01*
X41689482Y-71312709D01*
X41612698Y-71348573D01*
X41524888Y-71371613D01*
X41512179Y-71373763D01*
X41450200Y-71379351D01*
X41380062Y-71378784D01*
X41308771Y-71372586D01*
X41243330Y-71361279D01*
X41205549Y-71350873D01*
X41129289Y-71318185D01*
X41063817Y-71274423D01*
X41008406Y-71218565D01*
X40962329Y-71149590D01*
X40924859Y-71066477D01*
X40895270Y-70968203D01*
X40879288Y-70892242D01*
X40876757Y-70876744D01*
X40874498Y-70859141D01*
X40872491Y-70838316D01*
X40870715Y-70813149D01*
X40869149Y-70782524D01*
X40867772Y-70745323D01*
X40866563Y-70700426D01*
X40865500Y-70646718D01*
X40864563Y-70583078D01*
X40863732Y-70508391D01*
X40862984Y-70421537D01*
X40862299Y-70321399D01*
X40861656Y-70206859D01*
X40861034Y-70076799D01*
X40860411Y-69930100D01*
X40860192Y-69875257D01*
X40859579Y-69698781D01*
X40859218Y-69539445D01*
X40859129Y-69396248D01*
X40859336Y-69268190D01*
X40859859Y-69154269D01*
X40860721Y-69053484D01*
X40861943Y-68964834D01*
X40863547Y-68887319D01*
X40865555Y-68819936D01*
X40867989Y-68761685D01*
X40870870Y-68711565D01*
X40874221Y-68668575D01*
X40878062Y-68631714D01*
X40882416Y-68599980D01*
X40887304Y-68572374D01*
X40888674Y-68565710D01*
X40915872Y-68463582D01*
X40951378Y-68376917D01*
X40996012Y-68304652D01*
X41050596Y-68245724D01*
X41115950Y-68199070D01*
X41192896Y-68163626D01*
X41201586Y-68160545D01*
X41226695Y-68152528D01*
X41250626Y-68146894D01*
X41277324Y-68143256D01*
X41310731Y-68141226D01*
X41354791Y-68140419D01*
X41406678Y-68140416D01*
X41464043Y-68140950D01*
X41507072Y-68142271D01*
X41539567Y-68144771D01*
X41565333Y-68148842D01*
X41588171Y-68154875D01*
X41605525Y-68160869D01*
X41667045Y-68187082D01*
X41717130Y-68217224D01*
X41762482Y-68255624D01*
X41780134Y-68273560D01*
X41829586Y-68337079D01*
X41869912Y-68413751D01*
X41901415Y-68504409D01*
X41924401Y-68609887D01*
X41936470Y-68701558D01*
X41938079Y-68727058D01*
X41939551Y-68769164D01*
X41940885Y-68826349D01*
X41942082Y-68897088D01*
X41943141Y-68979853D01*
X41944062Y-69073118D01*
X41944844Y-69175357D01*
X41945487Y-69285041D01*
X41945990Y-69400646D01*
X41946354Y-69520645D01*
X41946578Y-69643509D01*
X41946661Y-69767715D01*
X42277534Y-69767715D01*
X42277536Y-69759071D01*
X42277542Y-69587467D01*
X42277531Y-69432957D01*
X42277452Y-69294496D01*
X42277258Y-69171034D01*
X42276901Y-69061525D01*
X42276333Y-68964921D01*
X42275504Y-68880174D01*
X42274367Y-68806237D01*
X42272874Y-68742062D01*
X42270975Y-68686601D01*
X42268624Y-68638808D01*
X42265771Y-68597634D01*
X42262369Y-68562032D01*
X42258368Y-68530955D01*
X42253721Y-68503354D01*
X42248380Y-68478182D01*
X42242296Y-68454391D01*
X42235421Y-68430935D01*
X42227706Y-68406765D01*
X42219104Y-68380834D01*
X42213189Y-68363067D01*
X42165913Y-68243367D01*
X42108108Y-68138342D01*
X42039306Y-68047570D01*
X41959036Y-67970627D01*
X41866831Y-67907091D01*
X41762221Y-67856538D01*
X41644737Y-67818546D01*
X41597178Y-67807432D01*
X41550820Y-67800759D01*
X41491454Y-67796850D01*
X41423988Y-67795608D01*
X41353330Y-67796936D01*
X41353330Y-67796936D01*
G37*
X41353330Y-67796936D02*
X41284388Y-67800736D01*
X41222071Y-67806912D01*
X41171286Y-67815365D01*
X41168831Y-67815916D01*
X41051806Y-67850683D01*
X40946512Y-67898945D01*
X40852883Y-67960793D01*
X40770853Y-68036324D01*
X40700356Y-68125629D01*
X40641324Y-68228803D01*
X40593691Y-68345940D01*
X40557392Y-68477134D01*
X40532360Y-68622477D01*
X40521661Y-68730522D01*
X40519816Y-68767016D01*
X40518252Y-68821567D01*
X40516971Y-68894091D01*
X40515973Y-68984506D01*
X40515259Y-69092727D01*
X40514827Y-69218672D01*
X40514681Y-69362256D01*
X40514818Y-69523397D01*
X40515241Y-69702011D01*
X40515773Y-69854321D01*
X40516419Y-70012414D01*
X40517058Y-70153435D01*
X40517710Y-70278459D01*
X40518391Y-70388558D01*
X40519122Y-70484803D01*
X40519921Y-70568269D01*
X40520807Y-70640026D01*
X40521798Y-70701148D01*
X40522914Y-70752707D01*
X40524172Y-70795775D01*
X40525593Y-70831425D01*
X40527194Y-70860730D01*
X40528994Y-70884762D01*
X40531013Y-70904593D01*
X40533268Y-70921296D01*
X40534572Y-70929286D01*
X40559332Y-71051126D01*
X40589295Y-71157799D01*
X40625618Y-71251821D01*
X40669460Y-71335712D01*
X40721979Y-71411990D01*
X40784332Y-71483172D01*
X40793555Y-71492516D01*
X40873389Y-71563160D01*
X40958236Y-71619644D01*
X41049947Y-71662642D01*
X41150374Y-71692824D01*
X41261371Y-71710862D01*
X41384789Y-71717426D01*
X41414138Y-71717394D01*
X41463501Y-71716272D01*
X41512192Y-71714083D01*
X41554031Y-71711163D01*
X41579036Y-71708439D01*
X41678286Y-71686623D01*
X41777284Y-71650898D01*
X41870477Y-71603655D01*
X41951326Y-71548085D01*
X42032811Y-71470834D01*
X42103368Y-71379168D01*
X42163008Y-71273063D01*
X42211743Y-71152496D01*
X42249587Y-71017441D01*
X42265519Y-70938357D01*
X42267389Y-70924379D01*
X42269068Y-70904149D01*
X42270563Y-70876790D01*
X42271885Y-70841424D01*
X42273043Y-70797170D01*
X42274044Y-70743152D01*
X42274899Y-70678490D01*
X42275616Y-70602306D01*
X42276204Y-70513721D01*
X42276672Y-70411857D01*
X42277030Y-70295835D01*
X42277285Y-70164777D01*
X42277447Y-70017804D01*
X42277525Y-69854037D01*
X42277534Y-69767715D01*
X41946661Y-69767715D01*
X41946603Y-69891733D01*
X41946404Y-70014039D01*
X41946064Y-70133105D01*
X41945581Y-70247404D01*
X41944956Y-70355411D01*
X41944189Y-70455598D01*
X41943278Y-70546439D01*
X41942224Y-70626408D01*
X41941027Y-70693977D01*
X41939685Y-70747620D01*
X41938199Y-70785810D01*
X41936969Y-70803592D01*
X41919466Y-70925636D01*
X41892902Y-71032218D01*
X41856949Y-71123776D01*
X41811280Y-71200750D01*
X41755567Y-71263582D01*
X41689482Y-71312709D01*
X41612698Y-71348573D01*
X41524888Y-71371613D01*
X41512179Y-71373763D01*
X41450200Y-71379351D01*
X41380062Y-71378784D01*
X41308771Y-71372586D01*
X41243330Y-71361279D01*
X41205549Y-71350873D01*
X41129289Y-71318185D01*
X41063817Y-71274423D01*
X41008406Y-71218565D01*
X40962329Y-71149590D01*
X40924859Y-71066477D01*
X40895270Y-70968203D01*
X40879288Y-70892242D01*
X40876757Y-70876744D01*
X40874498Y-70859141D01*
X40872491Y-70838316D01*
X40870715Y-70813149D01*
X40869149Y-70782524D01*
X40867772Y-70745323D01*
X40866563Y-70700426D01*
X40865500Y-70646718D01*
X40864563Y-70583078D01*
X40863732Y-70508391D01*
X40862984Y-70421537D01*
X40862299Y-70321399D01*
X40861656Y-70206859D01*
X40861034Y-70076799D01*
X40860411Y-69930100D01*
X40860192Y-69875257D01*
X40859579Y-69698781D01*
X40859218Y-69539445D01*
X40859129Y-69396248D01*
X40859336Y-69268190D01*
X40859859Y-69154269D01*
X40860721Y-69053484D01*
X40861943Y-68964834D01*
X40863547Y-68887319D01*
X40865555Y-68819936D01*
X40867989Y-68761685D01*
X40870870Y-68711565D01*
X40874221Y-68668575D01*
X40878062Y-68631714D01*
X40882416Y-68599980D01*
X40887304Y-68572374D01*
X40888674Y-68565710D01*
X40915872Y-68463582D01*
X40951378Y-68376917D01*
X40996012Y-68304652D01*
X41050596Y-68245724D01*
X41115950Y-68199070D01*
X41192896Y-68163626D01*
X41201586Y-68160545D01*
X41226695Y-68152528D01*
X41250626Y-68146894D01*
X41277324Y-68143256D01*
X41310731Y-68141226D01*
X41354791Y-68140419D01*
X41406678Y-68140416D01*
X41464043Y-68140950D01*
X41507072Y-68142271D01*
X41539567Y-68144771D01*
X41565333Y-68148842D01*
X41588171Y-68154875D01*
X41605525Y-68160869D01*
X41667045Y-68187082D01*
X41717130Y-68217224D01*
X41762482Y-68255624D01*
X41780134Y-68273560D01*
X41829586Y-68337079D01*
X41869912Y-68413751D01*
X41901415Y-68504409D01*
X41924401Y-68609887D01*
X41936470Y-68701558D01*
X41938079Y-68727058D01*
X41939551Y-68769164D01*
X41940885Y-68826349D01*
X41942082Y-68897088D01*
X41943141Y-68979853D01*
X41944062Y-69073118D01*
X41944844Y-69175357D01*
X41945487Y-69285041D01*
X41945990Y-69400646D01*
X41946354Y-69520645D01*
X41946578Y-69643509D01*
X41946661Y-69767715D01*
X42277534Y-69767715D01*
X42277536Y-69759071D01*
X42277542Y-69587467D01*
X42277531Y-69432957D01*
X42277452Y-69294496D01*
X42277258Y-69171034D01*
X42276901Y-69061525D01*
X42276333Y-68964921D01*
X42275504Y-68880174D01*
X42274367Y-68806237D01*
X42272874Y-68742062D01*
X42270975Y-68686601D01*
X42268624Y-68638808D01*
X42265771Y-68597634D01*
X42262369Y-68562032D01*
X42258368Y-68530955D01*
X42253721Y-68503354D01*
X42248380Y-68478182D01*
X42242296Y-68454391D01*
X42235421Y-68430935D01*
X42227706Y-68406765D01*
X42219104Y-68380834D01*
X42213189Y-68363067D01*
X42165913Y-68243367D01*
X42108108Y-68138342D01*
X42039306Y-68047570D01*
X41959036Y-67970627D01*
X41866831Y-67907091D01*
X41762221Y-67856538D01*
X41644737Y-67818546D01*
X41597178Y-67807432D01*
X41550820Y-67800759D01*
X41491454Y-67796850D01*
X41423988Y-67795608D01*
X41353330Y-67796936D01*
D10*
G36*
X47308693Y-46558799D02*
X46816937Y-44723540D01*
X49811307Y-43921201D01*
X50303063Y-45756460D01*
X47308693Y-46558799D01*
X47308693Y-46558799D01*
G37*
G36*
X43655736Y-49597767D02*
X42312233Y-48254264D01*
X44504264Y-46062233D01*
X45847767Y-47405736D01*
X43655736Y-49597767D01*
X43655736Y-49597767D01*
G37*
G36*
X42006460Y-54053063D02*
X40171201Y-53561307D01*
X40973540Y-50566937D01*
X42808799Y-51058693D01*
X42006460Y-54053063D01*
X42006460Y-54053063D01*
G37*
G36*
X40171201Y-56238693D02*
X42006460Y-55746937D01*
X42808799Y-58741307D01*
X40973540Y-59233063D01*
X40171201Y-56238693D01*
X40171201Y-56238693D01*
G37*
G36*
X42312233Y-61545736D02*
X43655736Y-60202233D01*
X45847767Y-62394264D01*
X44504264Y-63737767D01*
X42312233Y-61545736D01*
X42312233Y-61545736D01*
G37*
G36*
X46816937Y-65076460D02*
X47308693Y-63241201D01*
X50303063Y-64043540D01*
X49811307Y-65878799D01*
X46816937Y-65076460D01*
X46816937Y-65076460D01*
G37*
G36*
X55957724Y-59467339D02*
X54312276Y-58517339D01*
X55862276Y-55832661D01*
X57507724Y-56782661D01*
X55957724Y-59467339D01*
X55957724Y-59467339D01*
G37*
G36*
X46437724Y-53967339D02*
X44792276Y-53017339D01*
X46342276Y-50332661D01*
X47987724Y-51282661D01*
X46437724Y-53967339D01*
X46437724Y-53967339D01*
G37*
G36*
X51996937Y-45756460D02*
X52488693Y-43921201D01*
X55483063Y-44723540D01*
X54991307Y-46558799D01*
X51996937Y-45756460D01*
X51996937Y-45756460D01*
G37*
G36*
X56452233Y-47405736D02*
X57795736Y-46062233D01*
X59987767Y-48254264D01*
X58644264Y-49597767D01*
X56452233Y-47405736D01*
X56452233Y-47405736D01*
G37*
G36*
X59491201Y-51058693D02*
X61326460Y-50566937D01*
X62128799Y-53561307D01*
X60293540Y-54053063D01*
X59491201Y-51058693D01*
X59491201Y-51058693D01*
G37*
G36*
X61326460Y-59233063D02*
X59491201Y-58741307D01*
X60293540Y-55746937D01*
X62128799Y-56238693D01*
X61326460Y-59233063D01*
X61326460Y-59233063D01*
G37*
G36*
X57795736Y-63737767D02*
X56452233Y-62394264D01*
X58644264Y-60202233D01*
X59987767Y-61545736D01*
X57795736Y-63737767D01*
X57795736Y-63737767D01*
G37*
G36*
X52488693Y-65878799D02*
X51996937Y-64043540D01*
X54991307Y-63241201D01*
X55483063Y-65076460D01*
X52488693Y-65878799D01*
X52488693Y-65878799D01*
G37*
D12*
X41870000Y-74150000D03*
D13*
X44410000Y-74150000D03*
X46950000Y-74150000D03*
X49490000Y-74150000D03*
X52030000Y-74150000D03*
X54570000Y-74150000D03*
X57110000Y-74150000D03*
X59650000Y-74150000D03*
M02*
