G04 #@! TF.FileFunction,Copper,L2,Bot,Signal*
%FSLAX46Y46*%
G04 Gerber Fmt 4.6, Leading zero omitted, Abs format (unit mm)*
G04 Created by KiCad (PCBNEW 4.0.2-stable) date 2018-09-14 12:55:35 PM*
%MOMM*%
G01*
G04 APERTURE LIST*
%ADD10C,0.200000*%
%ADD11R,1.700000X1.700000*%
%ADD12O,1.700000X1.700000*%
%ADD13C,0.250000*%
G04 APERTURE END LIST*
D10*
G36*
X47344048Y-46497562D02*
X46878174Y-44758895D01*
X49775952Y-43982438D01*
X50241826Y-45721105D01*
X47344048Y-46497562D01*
X47344048Y-46497562D01*
G37*
G36*
X43655736Y-49527056D02*
X42382944Y-48254264D01*
X44504264Y-46132944D01*
X45777056Y-47405736D01*
X43655736Y-49527056D01*
X43655736Y-49527056D01*
G37*
G36*
X41971105Y-53991826D02*
X40232438Y-53525952D01*
X41008895Y-50628174D01*
X42747562Y-51094048D01*
X41971105Y-53991826D01*
X41971105Y-53991826D01*
G37*
G36*
X40232438Y-56274048D02*
X41971105Y-55808174D01*
X42747562Y-58705952D01*
X41008895Y-59171826D01*
X40232438Y-56274048D01*
X40232438Y-56274048D01*
G37*
G36*
X42382944Y-61545736D02*
X43655736Y-60272944D01*
X45777056Y-62394264D01*
X44504264Y-63667056D01*
X42382944Y-61545736D01*
X42382944Y-61545736D01*
G37*
G36*
X46878174Y-65041105D02*
X47344048Y-63302438D01*
X50241826Y-64078895D01*
X49775952Y-65817562D01*
X46878174Y-65041105D01*
X46878174Y-65041105D01*
G37*
G36*
X55939423Y-59399038D02*
X54380577Y-58499038D01*
X55880577Y-55900962D01*
X57439423Y-56800962D01*
X55939423Y-59399038D01*
X55939423Y-59399038D01*
G37*
G36*
X46419423Y-53899038D02*
X44860577Y-52999038D01*
X46360577Y-50400962D01*
X47919423Y-51300962D01*
X46419423Y-53899038D01*
X46419423Y-53899038D01*
G37*
G36*
X52058174Y-45721105D02*
X52524048Y-43982438D01*
X55421826Y-44758895D01*
X54955952Y-46497562D01*
X52058174Y-45721105D01*
X52058174Y-45721105D01*
G37*
G36*
X56522944Y-47405736D02*
X57795736Y-46132944D01*
X59917056Y-48254264D01*
X58644264Y-49527056D01*
X56522944Y-47405736D01*
X56522944Y-47405736D01*
G37*
G36*
X59552438Y-51094048D02*
X61291105Y-50628174D01*
X62067562Y-53525952D01*
X60328895Y-53991826D01*
X59552438Y-51094048D01*
X59552438Y-51094048D01*
G37*
G36*
X61291105Y-59171826D02*
X59552438Y-58705952D01*
X60328895Y-55808174D01*
X62067562Y-56274048D01*
X61291105Y-59171826D01*
X61291105Y-59171826D01*
G37*
G36*
X57795736Y-63667056D02*
X56522944Y-62394264D01*
X58644264Y-60272944D01*
X59917056Y-61545736D01*
X57795736Y-63667056D01*
X57795736Y-63667056D01*
G37*
G36*
X52524048Y-65817562D02*
X52058174Y-64078895D01*
X54955952Y-63302438D01*
X55421826Y-65041105D01*
X52524048Y-65817562D01*
X52524048Y-65817562D01*
G37*
D11*
X41870000Y-74150000D03*
D12*
X44410000Y-74150000D03*
X46950000Y-74150000D03*
X49490000Y-74150000D03*
X52030000Y-74150000D03*
X54570000Y-74150000D03*
X57110000Y-74150000D03*
X59650000Y-74150000D03*
D13*
X51450000Y-58850000D02*
X51450000Y-54600000D01*
X51450000Y-54600000D02*
X58220000Y-47830000D01*
X57959999Y-65359999D02*
X51450000Y-58850000D01*
X57110000Y-74150000D02*
X57959999Y-73300001D01*
X57959999Y-73300001D02*
X57959999Y-65359999D01*
X57110000Y-74150000D02*
X55907919Y-74150000D01*
X55907919Y-74150000D02*
X54570000Y-74150000D01*
X62100000Y-62250000D02*
X57500000Y-57650000D01*
X57500000Y-57650000D02*
X55910000Y-57650000D01*
X62100000Y-70497919D02*
X62100000Y-62250000D01*
X59650000Y-74150000D02*
X59650000Y-72947919D01*
X59650000Y-72947919D02*
X62100000Y-70497919D01*
M02*
