G04 #@! TF.FileFunction,Legend,Top*
%FSLAX46Y46*%
G04 Gerber Fmt 4.6, Leading zero omitted, Abs format (unit mm)*
G04 Created by KiCad (PCBNEW 4.0.2-stable) date 2019-03-27 10:39:04 PM*
%MOMM*%
G01*
G04 APERTURE LIST*
%ADD10C,0.200000*%
%ADD11C,0.150000*%
%ADD12C,0.120000*%
%ADD13R,1.800000X1.800000*%
%ADD14O,1.800000X1.800000*%
G04 APERTURE END LIST*
D10*
D11*
X40788094Y-71404762D02*
X40711903Y-71366667D01*
X40673808Y-71328571D01*
X40635713Y-71252381D01*
X40635713Y-71214286D01*
X40673808Y-71138095D01*
X40711903Y-71100000D01*
X40788094Y-71061905D01*
X40940475Y-71061905D01*
X41016665Y-71100000D01*
X41054761Y-71138095D01*
X41092856Y-71214286D01*
X41092856Y-71252381D01*
X41054761Y-71328571D01*
X41016665Y-71366667D01*
X40940475Y-71404762D01*
X40788094Y-71404762D01*
X40711903Y-71442857D01*
X40673808Y-71480952D01*
X40635713Y-71557143D01*
X40635713Y-71709524D01*
X40673808Y-71785714D01*
X40711903Y-71823810D01*
X40788094Y-71861905D01*
X40940475Y-71861905D01*
X41016665Y-71823810D01*
X41054761Y-71785714D01*
X41092856Y-71709524D01*
X41092856Y-71557143D01*
X41054761Y-71480952D01*
X41016665Y-71442857D01*
X40940475Y-71404762D01*
X41397618Y-71138095D02*
X41435713Y-71100000D01*
X41511904Y-71061905D01*
X41702380Y-71061905D01*
X41778570Y-71100000D01*
X41816666Y-71138095D01*
X41854761Y-71214286D01*
X41854761Y-71290476D01*
X41816666Y-71404762D01*
X41359523Y-71861905D01*
X41854761Y-71861905D01*
X42349999Y-71061905D02*
X42426190Y-71061905D01*
X42502380Y-71100000D01*
X42540475Y-71138095D01*
X42578571Y-71214286D01*
X42616666Y-71366667D01*
X42616666Y-71557143D01*
X42578571Y-71709524D01*
X42540475Y-71785714D01*
X42502380Y-71823810D01*
X42426190Y-71861905D01*
X42349999Y-71861905D01*
X42273809Y-71823810D01*
X42235713Y-71785714D01*
X42197618Y-71709524D01*
X42159523Y-71557143D01*
X42159523Y-71366667D01*
X42197618Y-71214286D01*
X42235713Y-71138095D01*
X42273809Y-71100000D01*
X42349999Y-71061905D01*
X43530952Y-71823810D02*
X43645238Y-71861905D01*
X43835714Y-71861905D01*
X43911904Y-71823810D01*
X43950000Y-71785714D01*
X43988095Y-71709524D01*
X43988095Y-71633333D01*
X43950000Y-71557143D01*
X43911904Y-71519048D01*
X43835714Y-71480952D01*
X43683333Y-71442857D01*
X43607142Y-71404762D01*
X43569047Y-71366667D01*
X43530952Y-71290476D01*
X43530952Y-71214286D01*
X43569047Y-71138095D01*
X43607142Y-71100000D01*
X43683333Y-71061905D01*
X43873809Y-71061905D01*
X43988095Y-71100000D01*
X44254762Y-71061905D02*
X44445238Y-71861905D01*
X44597619Y-71290476D01*
X44750000Y-71861905D01*
X44940476Y-71061905D01*
X45245238Y-71861905D02*
X45245238Y-71061905D01*
X45511904Y-71061905D02*
X45969047Y-71061905D01*
X45740476Y-71861905D02*
X45740476Y-71061905D01*
X46692857Y-71785714D02*
X46654762Y-71823810D01*
X46540476Y-71861905D01*
X46464286Y-71861905D01*
X46350000Y-71823810D01*
X46273809Y-71747619D01*
X46235714Y-71671429D01*
X46197619Y-71519048D01*
X46197619Y-71404762D01*
X46235714Y-71252381D01*
X46273809Y-71176190D01*
X46350000Y-71100000D01*
X46464286Y-71061905D01*
X46540476Y-71061905D01*
X46654762Y-71100000D01*
X46692857Y-71138095D01*
X47035714Y-71861905D02*
X47035714Y-71061905D01*
X47035714Y-71442857D02*
X47492857Y-71442857D01*
X47492857Y-71861905D02*
X47492857Y-71061905D01*
X48750000Y-71442857D02*
X48864286Y-71480952D01*
X48902381Y-71519048D01*
X48940476Y-71595238D01*
X48940476Y-71709524D01*
X48902381Y-71785714D01*
X48864286Y-71823810D01*
X48788095Y-71861905D01*
X48483333Y-71861905D01*
X48483333Y-71061905D01*
X48750000Y-71061905D01*
X48826190Y-71100000D01*
X48864286Y-71138095D01*
X48902381Y-71214286D01*
X48902381Y-71290476D01*
X48864286Y-71366667D01*
X48826190Y-71404762D01*
X48750000Y-71442857D01*
X48483333Y-71442857D01*
X49435714Y-71061905D02*
X49588095Y-71061905D01*
X49664286Y-71100000D01*
X49740476Y-71176190D01*
X49778571Y-71328571D01*
X49778571Y-71595238D01*
X49740476Y-71747619D01*
X49664286Y-71823810D01*
X49588095Y-71861905D01*
X49435714Y-71861905D01*
X49359524Y-71823810D01*
X49283333Y-71747619D01*
X49245238Y-71595238D01*
X49245238Y-71328571D01*
X49283333Y-71176190D01*
X49359524Y-71100000D01*
X49435714Y-71061905D01*
X50083333Y-71633333D02*
X50464285Y-71633333D01*
X50007142Y-71861905D02*
X50273809Y-71061905D01*
X50540476Y-71861905D01*
X51264285Y-71861905D02*
X50997618Y-71480952D01*
X50807142Y-71861905D02*
X50807142Y-71061905D01*
X51111904Y-71061905D01*
X51188095Y-71100000D01*
X51226190Y-71138095D01*
X51264285Y-71214286D01*
X51264285Y-71328571D01*
X51226190Y-71404762D01*
X51188095Y-71442857D01*
X51111904Y-71480952D01*
X50807142Y-71480952D01*
X51607142Y-71861905D02*
X51607142Y-71061905D01*
X51797618Y-71061905D01*
X51911904Y-71100000D01*
X51988095Y-71176190D01*
X52026190Y-71252381D01*
X52064285Y-71404762D01*
X52064285Y-71519048D01*
X52026190Y-71671429D01*
X51988095Y-71747619D01*
X51911904Y-71823810D01*
X51797618Y-71861905D01*
X51607142Y-71861905D01*
X53016666Y-71861905D02*
X53016666Y-71328571D01*
X53016666Y-71480952D02*
X53054761Y-71404762D01*
X53092857Y-71366667D01*
X53169047Y-71328571D01*
X53245238Y-71328571D01*
X53930952Y-71861905D02*
X53473809Y-71861905D01*
X53702380Y-71861905D02*
X53702380Y-71061905D01*
X53626190Y-71176190D01*
X53549999Y-71252381D01*
X53473809Y-71290476D01*
X54273809Y-71785714D02*
X54311904Y-71823810D01*
X54273809Y-71861905D01*
X54235714Y-71823810D01*
X54273809Y-71785714D01*
X54273809Y-71861905D01*
X55073809Y-71861905D02*
X54616666Y-71861905D01*
X54845237Y-71861905D02*
X54845237Y-71061905D01*
X54769047Y-71176190D01*
X54692856Y-71252381D01*
X54616666Y-71290476D01*
X56178571Y-71061905D02*
X56254762Y-71061905D01*
X56330952Y-71100000D01*
X56369047Y-71138095D01*
X56407143Y-71214286D01*
X56445238Y-71366667D01*
X56445238Y-71557143D01*
X56407143Y-71709524D01*
X56369047Y-71785714D01*
X56330952Y-71823810D01*
X56254762Y-71861905D01*
X56178571Y-71861905D01*
X56102381Y-71823810D01*
X56064285Y-71785714D01*
X56026190Y-71709524D01*
X55988095Y-71557143D01*
X55988095Y-71366667D01*
X56026190Y-71214286D01*
X56064285Y-71138095D01*
X56102381Y-71100000D01*
X56178571Y-71061905D01*
X56711905Y-71061905D02*
X57207143Y-71061905D01*
X56940476Y-71366667D01*
X57054762Y-71366667D01*
X57130952Y-71404762D01*
X57169048Y-71442857D01*
X57207143Y-71519048D01*
X57207143Y-71709524D01*
X57169048Y-71785714D01*
X57130952Y-71823810D01*
X57054762Y-71861905D01*
X56826190Y-71861905D01*
X56750000Y-71823810D01*
X56711905Y-71785714D01*
X58121429Y-71138095D02*
X58159524Y-71100000D01*
X58235715Y-71061905D01*
X58426191Y-71061905D01*
X58502381Y-71100000D01*
X58540477Y-71138095D01*
X58578572Y-71214286D01*
X58578572Y-71290476D01*
X58540477Y-71404762D01*
X58083334Y-71861905D01*
X58578572Y-71861905D01*
X59073810Y-71061905D02*
X59150001Y-71061905D01*
X59226191Y-71100000D01*
X59264286Y-71138095D01*
X59302382Y-71214286D01*
X59340477Y-71366667D01*
X59340477Y-71557143D01*
X59302382Y-71709524D01*
X59264286Y-71785714D01*
X59226191Y-71823810D01*
X59150001Y-71861905D01*
X59073810Y-71861905D01*
X58997620Y-71823810D01*
X58959524Y-71785714D01*
X58921429Y-71709524D01*
X58883334Y-71557143D01*
X58883334Y-71366667D01*
X58921429Y-71214286D01*
X58959524Y-71138095D01*
X58997620Y-71100000D01*
X59073810Y-71061905D01*
X60102382Y-71861905D02*
X59645239Y-71861905D01*
X59873810Y-71861905D02*
X59873810Y-71061905D01*
X59797620Y-71176190D01*
X59721429Y-71252381D01*
X59645239Y-71290476D01*
X60483334Y-71861905D02*
X60635715Y-71861905D01*
X60711906Y-71823810D01*
X60750001Y-71785714D01*
X60826192Y-71671429D01*
X60864287Y-71519048D01*
X60864287Y-71214286D01*
X60826192Y-71138095D01*
X60788096Y-71100000D01*
X60711906Y-71061905D01*
X60559525Y-71061905D01*
X60483334Y-71100000D01*
X60445239Y-71138095D01*
X60407144Y-71214286D01*
X60407144Y-71404762D01*
X60445239Y-71480952D01*
X60483334Y-71519048D01*
X60559525Y-71557143D01*
X60711906Y-71557143D01*
X60788096Y-71519048D01*
X60826192Y-71480952D01*
X60864287Y-71404762D01*
X56650000Y-54900000D02*
G75*
G03X56650000Y-54900000I-5500000J0D01*
G01*
X46170000Y-68350000D02*
X56170000Y-68350000D01*
X46170000Y-68350000D02*
X46170000Y-66350000D01*
X56170000Y-68350000D02*
X56170000Y-66350000D01*
X55670000Y-68350000D02*
G75*
G02X46670000Y-68350000I-4500000J4500000D01*
G01*
X63170000Y-51350000D02*
G75*
G02X56170000Y-67350000I-11500000J-4500000D01*
G01*
X39230000Y-51350000D02*
G75*
G03X46230000Y-67350000I11500000J-4500000D01*
G01*
X39130000Y-58410000D02*
G75*
G02X46130000Y-42410000I11500000J4500000D01*
G01*
X63150000Y-58400000D02*
G75*
G03X56150000Y-42400000I-11500000J4500000D01*
G01*
X56150000Y-41900000D02*
X56150000Y-43400000D01*
X46150000Y-41900000D02*
X46150000Y-43400000D01*
X63650000Y-54900000D02*
G75*
G03X63650000Y-54900000I-12500000J0D01*
G01*
X61150000Y-54900000D02*
G75*
G03X61150000Y-54900000I-10000000J0D01*
G01*
D12*
X60980000Y-75480000D02*
X60980000Y-72820000D01*
X43140000Y-75480000D02*
X60980000Y-75480000D01*
X43140000Y-72820000D02*
X60980000Y-72820000D01*
X43140000Y-75480000D02*
X43140000Y-72820000D01*
X41870000Y-75480000D02*
X40540000Y-75480000D01*
X40540000Y-75480000D02*
X40540000Y-74150000D01*
D11*
X43864286Y-51078571D02*
X43007143Y-51078571D01*
X43435715Y-51078571D02*
X43435715Y-49578571D01*
X43292858Y-49792857D01*
X43150000Y-49935714D01*
X43007143Y-50007143D01*
X44435714Y-49721429D02*
X44507143Y-49650000D01*
X44650000Y-49578571D01*
X45007143Y-49578571D01*
X45150000Y-49650000D01*
X45221429Y-49721429D01*
X45292857Y-49864286D01*
X45292857Y-50007143D01*
X45221429Y-50221429D01*
X44364286Y-51078571D01*
X45292857Y-51078571D01*
X48078572Y-48078571D02*
X47221429Y-48078571D01*
X47650001Y-48078571D02*
X47650001Y-46578571D01*
X47507144Y-46792857D01*
X47364286Y-46935714D01*
X47221429Y-47007143D01*
X57797143Y-57608571D02*
X57797143Y-56108571D01*
X58154286Y-56108571D01*
X58368571Y-56180000D01*
X58511429Y-56322857D01*
X58582857Y-56465714D01*
X58654286Y-56751429D01*
X58654286Y-56965714D01*
X58582857Y-57251429D01*
X58511429Y-57394286D01*
X58368571Y-57537143D01*
X58154286Y-57608571D01*
X57797143Y-57608571D01*
X43932857Y-53380000D02*
X44647143Y-53380000D01*
X43790000Y-53808571D02*
X44290000Y-52308571D01*
X44790000Y-53808571D01*
%LPC*%
D10*
G36*
X47308693Y-46558799D02*
X46816937Y-44723540D01*
X49811307Y-43921201D01*
X50303063Y-45756460D01*
X47308693Y-46558799D01*
X47308693Y-46558799D01*
G37*
G36*
X43655736Y-49597767D02*
X42312233Y-48254264D01*
X44504264Y-46062233D01*
X45847767Y-47405736D01*
X43655736Y-49597767D01*
X43655736Y-49597767D01*
G37*
G36*
X42006460Y-54053063D02*
X40171201Y-53561307D01*
X40973540Y-50566937D01*
X42808799Y-51058693D01*
X42006460Y-54053063D01*
X42006460Y-54053063D01*
G37*
G36*
X40171201Y-56238693D02*
X42006460Y-55746937D01*
X42808799Y-58741307D01*
X40973540Y-59233063D01*
X40171201Y-56238693D01*
X40171201Y-56238693D01*
G37*
G36*
X42312233Y-61545736D02*
X43655736Y-60202233D01*
X45847767Y-62394264D01*
X44504264Y-63737767D01*
X42312233Y-61545736D01*
X42312233Y-61545736D01*
G37*
G36*
X46816937Y-65076460D02*
X47308693Y-63241201D01*
X50303063Y-64043540D01*
X49811307Y-65878799D01*
X46816937Y-65076460D01*
X46816937Y-65076460D01*
G37*
G36*
X55957724Y-59467339D02*
X54312276Y-58517339D01*
X55862276Y-55832661D01*
X57507724Y-56782661D01*
X55957724Y-59467339D01*
X55957724Y-59467339D01*
G37*
G36*
X46437724Y-53967339D02*
X44792276Y-53017339D01*
X46342276Y-50332661D01*
X47987724Y-51282661D01*
X46437724Y-53967339D01*
X46437724Y-53967339D01*
G37*
G36*
X51996937Y-45756460D02*
X52488693Y-43921201D01*
X55483063Y-44723540D01*
X54991307Y-46558799D01*
X51996937Y-45756460D01*
X51996937Y-45756460D01*
G37*
G36*
X56452233Y-47405736D02*
X57795736Y-46062233D01*
X59987767Y-48254264D01*
X58644264Y-49597767D01*
X56452233Y-47405736D01*
X56452233Y-47405736D01*
G37*
G36*
X59491201Y-51058693D02*
X61326460Y-50566937D01*
X62128799Y-53561307D01*
X60293540Y-54053063D01*
X59491201Y-51058693D01*
X59491201Y-51058693D01*
G37*
G36*
X61326460Y-59233063D02*
X59491201Y-58741307D01*
X60293540Y-55746937D01*
X62128799Y-56238693D01*
X61326460Y-59233063D01*
X61326460Y-59233063D01*
G37*
G36*
X57795736Y-63737767D02*
X56452233Y-62394264D01*
X58644264Y-60202233D01*
X59987767Y-61545736D01*
X57795736Y-63737767D01*
X57795736Y-63737767D01*
G37*
G36*
X52488693Y-65878799D02*
X51996937Y-64043540D01*
X54991307Y-63241201D01*
X55483063Y-65076460D01*
X52488693Y-65878799D01*
X52488693Y-65878799D01*
G37*
D13*
X41870000Y-74150000D03*
D14*
X44410000Y-74150000D03*
X46950000Y-74150000D03*
X49490000Y-74150000D03*
X52030000Y-74150000D03*
X54570000Y-74150000D03*
X57110000Y-74150000D03*
X59650000Y-74150000D03*
M02*
