G04 #@! TF.FileFunction,Legend,Top*
%FSLAX46Y46*%
G04 Gerber Fmt 4.6, Leading zero omitted, Abs format (unit mm)*
G04 Created by KiCad (PCBNEW 4.0.2-stable) date 2018-09-14 12:55:35 PM*
%MOMM*%
G01*
G04 APERTURE LIST*
%ADD10C,0.200000*%
%ADD11C,0.150000*%
%ADD12C,0.120000*%
%ADD13R,1.800000X1.800000*%
%ADD14O,1.800000X1.800000*%
G04 APERTURE END LIST*
D10*
D11*
X56650000Y-54900000D02*
G75*
G03X56650000Y-54900000I-5500000J0D01*
G01*
X46170000Y-68350000D02*
X56170000Y-68350000D01*
X46170000Y-68350000D02*
X46170000Y-66350000D01*
X56170000Y-68350000D02*
X56170000Y-66350000D01*
X55670000Y-68350000D02*
G75*
G02X46670000Y-68350000I-4500000J4500000D01*
G01*
X63170000Y-51350000D02*
G75*
G02X56170000Y-67350000I-11500000J-4500000D01*
G01*
X39230000Y-51350000D02*
G75*
G03X46230000Y-67350000I11500000J-4500000D01*
G01*
X39130000Y-58410000D02*
G75*
G02X46130000Y-42410000I11500000J4500000D01*
G01*
X63150000Y-58400000D02*
G75*
G03X56150000Y-42400000I-11500000J4500000D01*
G01*
X56150000Y-41900000D02*
X56150000Y-43400000D01*
X46150000Y-41900000D02*
X46150000Y-43400000D01*
X63650000Y-54900000D02*
G75*
G03X63650000Y-54900000I-12500000J0D01*
G01*
X61150000Y-54900000D02*
G75*
G03X61150000Y-54900000I-10000000J0D01*
G01*
D12*
X60980000Y-75480000D02*
X60980000Y-72820000D01*
X43140000Y-75480000D02*
X60980000Y-75480000D01*
X43140000Y-72820000D02*
X60980000Y-72820000D01*
X43140000Y-75480000D02*
X43140000Y-72820000D01*
X41870000Y-75480000D02*
X40540000Y-75480000D01*
X40540000Y-75480000D02*
X40540000Y-74150000D01*
D11*
X43864286Y-51078571D02*
X43007143Y-51078571D01*
X43435715Y-51078571D02*
X43435715Y-49578571D01*
X43292858Y-49792857D01*
X43150000Y-49935714D01*
X43007143Y-50007143D01*
X44435714Y-49721429D02*
X44507143Y-49650000D01*
X44650000Y-49578571D01*
X45007143Y-49578571D01*
X45150000Y-49650000D01*
X45221429Y-49721429D01*
X45292857Y-49864286D01*
X45292857Y-50007143D01*
X45221429Y-50221429D01*
X44364286Y-51078571D01*
X45292857Y-51078571D01*
X48078572Y-48078571D02*
X47221429Y-48078571D01*
X47650001Y-48078571D02*
X47650001Y-46578571D01*
X47507144Y-46792857D01*
X47364286Y-46935714D01*
X47221429Y-47007143D01*
X57797143Y-57608571D02*
X57797143Y-56108571D01*
X58154286Y-56108571D01*
X58368571Y-56180000D01*
X58511429Y-56322857D01*
X58582857Y-56465714D01*
X58654286Y-56751429D01*
X58654286Y-56965714D01*
X58582857Y-57251429D01*
X58511429Y-57394286D01*
X58368571Y-57537143D01*
X58154286Y-57608571D01*
X57797143Y-57608571D01*
X43932857Y-53380000D02*
X44647143Y-53380000D01*
X43790000Y-53808571D02*
X44290000Y-52308571D01*
X44790000Y-53808571D01*
X40761905Y-71952381D02*
X40761905Y-70952381D01*
X41142858Y-70952381D01*
X41238096Y-71000000D01*
X41285715Y-71047619D01*
X41333334Y-71142857D01*
X41333334Y-71285714D01*
X41285715Y-71380952D01*
X41238096Y-71428571D01*
X41142858Y-71476190D01*
X40761905Y-71476190D01*
X42190477Y-71285714D02*
X42190477Y-71952381D01*
X41952381Y-70904762D02*
X41714286Y-71619048D01*
X42333334Y-71619048D01*
%LPC*%
D10*
G36*
X47308693Y-46558799D02*
X46816937Y-44723540D01*
X49811307Y-43921201D01*
X50303063Y-45756460D01*
X47308693Y-46558799D01*
X47308693Y-46558799D01*
G37*
G36*
X43655736Y-49597767D02*
X42312233Y-48254264D01*
X44504264Y-46062233D01*
X45847767Y-47405736D01*
X43655736Y-49597767D01*
X43655736Y-49597767D01*
G37*
G36*
X42006460Y-54053063D02*
X40171201Y-53561307D01*
X40973540Y-50566937D01*
X42808799Y-51058693D01*
X42006460Y-54053063D01*
X42006460Y-54053063D01*
G37*
G36*
X40171201Y-56238693D02*
X42006460Y-55746937D01*
X42808799Y-58741307D01*
X40973540Y-59233063D01*
X40171201Y-56238693D01*
X40171201Y-56238693D01*
G37*
G36*
X42312233Y-61545736D02*
X43655736Y-60202233D01*
X45847767Y-62394264D01*
X44504264Y-63737767D01*
X42312233Y-61545736D01*
X42312233Y-61545736D01*
G37*
G36*
X46816937Y-65076460D02*
X47308693Y-63241201D01*
X50303063Y-64043540D01*
X49811307Y-65878799D01*
X46816937Y-65076460D01*
X46816937Y-65076460D01*
G37*
G36*
X55957724Y-59467339D02*
X54312276Y-58517339D01*
X55862276Y-55832661D01*
X57507724Y-56782661D01*
X55957724Y-59467339D01*
X55957724Y-59467339D01*
G37*
G36*
X46437724Y-53967339D02*
X44792276Y-53017339D01*
X46342276Y-50332661D01*
X47987724Y-51282661D01*
X46437724Y-53967339D01*
X46437724Y-53967339D01*
G37*
G36*
X51996937Y-45756460D02*
X52488693Y-43921201D01*
X55483063Y-44723540D01*
X54991307Y-46558799D01*
X51996937Y-45756460D01*
X51996937Y-45756460D01*
G37*
G36*
X56452233Y-47405736D02*
X57795736Y-46062233D01*
X59987767Y-48254264D01*
X58644264Y-49597767D01*
X56452233Y-47405736D01*
X56452233Y-47405736D01*
G37*
G36*
X59491201Y-51058693D02*
X61326460Y-50566937D01*
X62128799Y-53561307D01*
X60293540Y-54053063D01*
X59491201Y-51058693D01*
X59491201Y-51058693D01*
G37*
G36*
X61326460Y-59233063D02*
X59491201Y-58741307D01*
X60293540Y-55746937D01*
X62128799Y-56238693D01*
X61326460Y-59233063D01*
X61326460Y-59233063D01*
G37*
G36*
X57795736Y-63737767D02*
X56452233Y-62394264D01*
X58644264Y-60202233D01*
X59987767Y-61545736D01*
X57795736Y-63737767D01*
X57795736Y-63737767D01*
G37*
G36*
X52488693Y-65878799D02*
X51996937Y-64043540D01*
X54991307Y-63241201D01*
X55483063Y-65076460D01*
X52488693Y-65878799D01*
X52488693Y-65878799D01*
G37*
D13*
X41870000Y-74150000D03*
D14*
X44410000Y-74150000D03*
X46950000Y-74150000D03*
X49490000Y-74150000D03*
X52030000Y-74150000D03*
X54570000Y-74150000D03*
X57110000Y-74150000D03*
X59650000Y-74150000D03*
M02*
