G04 #@! TF.FileFunction,Soldermask,Bot*
%FSLAX46Y46*%
G04 Gerber Fmt 4.6, Leading zero omitted, Abs format (unit mm)*
G04 Created by KiCad (PCBNEW 4.0.2-stable) date 2019-03-28 2:21:56 PM*
%MOMM*%
G01*
G04 APERTURE LIST*
%ADD10C,0.200000*%
%ADD11C,0.010000*%
%ADD12R,1.800000X1.800000*%
%ADD13O,1.800000X1.800000*%
G04 APERTURE END LIST*
D10*
D11*
G36*
X43197472Y-67797199D02*
X43087660Y-67812043D01*
X42984895Y-67838060D01*
X42892731Y-67875305D01*
X42891476Y-67875935D01*
X42800175Y-67930600D01*
X42720288Y-67997128D01*
X42651570Y-68076004D01*
X42593775Y-68167710D01*
X42546657Y-68272730D01*
X42509968Y-68391547D01*
X42483464Y-68524646D01*
X42466898Y-68672509D01*
X42464082Y-68715284D01*
X42460805Y-68816929D01*
X42461790Y-68924115D01*
X42466769Y-69030877D01*
X42475472Y-69131252D01*
X42486581Y-69213101D01*
X42499743Y-69277333D01*
X42518157Y-69347076D01*
X42540027Y-69416693D01*
X42563558Y-69480549D01*
X42586956Y-69533010D01*
X42590852Y-69540502D01*
X42613293Y-69578643D01*
X42641302Y-69620669D01*
X42671572Y-69662131D01*
X42700799Y-69698584D01*
X42725676Y-69725583D01*
X42733917Y-69732940D01*
X42758321Y-69752647D01*
X42718681Y-69794413D01*
X42646519Y-69883535D01*
X42586039Y-69986526D01*
X42537250Y-70103361D01*
X42500163Y-70234018D01*
X42485553Y-70307139D01*
X42474003Y-70392313D01*
X42466195Y-70490171D01*
X42462130Y-70595785D01*
X42461807Y-70704227D01*
X42465226Y-70810569D01*
X42472387Y-70909884D01*
X42483289Y-70997244D01*
X42485601Y-71011051D01*
X42516042Y-71145825D01*
X42557679Y-71266348D01*
X42610567Y-71372687D01*
X42674762Y-71464911D01*
X42750318Y-71543087D01*
X42837291Y-71607282D01*
X42935736Y-71657566D01*
X43039536Y-71692406D01*
X43088068Y-71701909D01*
X43149725Y-71709111D01*
X43219618Y-71713881D01*
X43292860Y-71716084D01*
X43364562Y-71715587D01*
X43429835Y-71712258D01*
X43483792Y-71705964D01*
X43490930Y-71704695D01*
X43605146Y-71675891D01*
X43707523Y-71634594D01*
X43798354Y-71580441D01*
X43877926Y-71513073D01*
X43946532Y-71432127D01*
X44004461Y-71337241D01*
X44052003Y-71228055D01*
X44089448Y-71104206D01*
X44117087Y-70965333D01*
X44124166Y-70915679D01*
X44128595Y-70868572D01*
X44131797Y-70807908D01*
X44133771Y-70738091D01*
X44133948Y-70720338D01*
X43787006Y-70720338D01*
X43785337Y-70794368D01*
X43781745Y-70859776D01*
X43776141Y-70912746D01*
X43775703Y-70915679D01*
X43753782Y-71025545D01*
X43723638Y-71119488D01*
X43684679Y-71198044D01*
X43636315Y-71261750D01*
X43577952Y-71311142D01*
X43509001Y-71346757D01*
X43428869Y-71369131D01*
X43336965Y-71378800D01*
X43265594Y-71378309D01*
X43209603Y-71373751D01*
X43156675Y-71365836D01*
X43115915Y-71356149D01*
X43045519Y-71328111D01*
X42986716Y-71290266D01*
X42938005Y-71240912D01*
X42897885Y-71178346D01*
X42864855Y-71100866D01*
X42850145Y-71054674D01*
X42834616Y-70993188D01*
X42823022Y-70928073D01*
X42815008Y-70855938D01*
X42810222Y-70773394D01*
X42808310Y-70677048D01*
X42808240Y-70652369D01*
X42811302Y-70518556D01*
X42820815Y-70400926D01*
X42837201Y-70298550D01*
X42860881Y-70210502D01*
X42892278Y-70135851D01*
X42931814Y-70073669D01*
X42979910Y-70023029D01*
X43036988Y-69983001D01*
X43103470Y-69952657D01*
X43130250Y-69943784D01*
X43180563Y-69933303D01*
X43242402Y-69927562D01*
X43309795Y-69926501D01*
X43376771Y-69930061D01*
X43437360Y-69938181D01*
X43475085Y-69947249D01*
X43548230Y-69977769D01*
X43610869Y-70021192D01*
X43663591Y-70078264D01*
X43706985Y-70149726D01*
X43741640Y-70236324D01*
X43761604Y-70308854D01*
X43769611Y-70354459D01*
X43776226Y-70414344D01*
X43781362Y-70484690D01*
X43784930Y-70561683D01*
X43786841Y-70641505D01*
X43787006Y-70720338D01*
X44133948Y-70720338D01*
X44134516Y-70663529D01*
X44134031Y-70588630D01*
X44132315Y-70517798D01*
X44129368Y-70455442D01*
X44125187Y-70405968D01*
X44124282Y-70398607D01*
X44099750Y-70254562D01*
X44065906Y-70125862D01*
X44022627Y-70012207D01*
X43969791Y-69913301D01*
X43907276Y-69828844D01*
X43878210Y-69797714D01*
X43839707Y-69759250D01*
X43880028Y-69716072D01*
X43944354Y-69637761D01*
X43998625Y-69550779D01*
X44043335Y-69453714D01*
X44078979Y-69345158D01*
X44106048Y-69223701D01*
X44125038Y-69087932D01*
X44133171Y-68992999D01*
X44136030Y-68914923D01*
X43787514Y-68914923D01*
X43786299Y-68987316D01*
X43783179Y-69050963D01*
X43779074Y-69094282D01*
X43761461Y-69197939D01*
X43736408Y-69290351D01*
X43704574Y-69369597D01*
X43666617Y-69433757D01*
X43659542Y-69443103D01*
X43616257Y-69485681D01*
X43559251Y-69522936D01*
X43492653Y-69552776D01*
X43420594Y-69573113D01*
X43393321Y-69577818D01*
X43339260Y-69582035D01*
X43276071Y-69581650D01*
X43211498Y-69577086D01*
X43153285Y-69568763D01*
X43129583Y-69563481D01*
X43056853Y-69537839D01*
X42995456Y-69501077D01*
X42944176Y-69451865D01*
X42901793Y-69388874D01*
X42867089Y-69310775D01*
X42850106Y-69258396D01*
X42834585Y-69196919D01*
X42822997Y-69131776D01*
X42814990Y-69059580D01*
X42810211Y-68976949D01*
X42808308Y-68880496D01*
X42808240Y-68856226D01*
X42809279Y-68762517D01*
X42812674Y-68682985D01*
X42818792Y-68613775D01*
X42827998Y-68551032D01*
X42840660Y-68490899D01*
X42844433Y-68475725D01*
X42873938Y-68384474D01*
X42912321Y-68308527D01*
X42960432Y-68247241D01*
X43019122Y-68199975D01*
X43089242Y-68166087D01*
X43171641Y-68144934D01*
X43267172Y-68135876D01*
X43295357Y-68135420D01*
X43367023Y-68137438D01*
X43426464Y-68144412D01*
X43479167Y-68157377D01*
X43530620Y-68177364D01*
X43539273Y-68181363D01*
X43601455Y-68220609D01*
X43655603Y-68275629D01*
X43701229Y-68345700D01*
X43737848Y-68430098D01*
X43761340Y-68511750D01*
X43769102Y-68556050D01*
X43775660Y-68614624D01*
X43780897Y-68683634D01*
X43784696Y-68759246D01*
X43786941Y-68837621D01*
X43787514Y-68914923D01*
X44136030Y-68914923D01*
X44137490Y-68875085D01*
X44135167Y-68754565D01*
X44126602Y-68635382D01*
X44112196Y-68521481D01*
X44092350Y-68416807D01*
X44067464Y-68325304D01*
X44064418Y-68316160D01*
X44037292Y-68246259D01*
X44004224Y-68176473D01*
X43968583Y-68113514D01*
X43945668Y-68079481D01*
X43905845Y-68032236D01*
X43855892Y-67983347D01*
X43801526Y-67937821D01*
X43748465Y-67900665D01*
X43727818Y-67888693D01*
X43636092Y-67848480D01*
X43533640Y-67819170D01*
X43424017Y-67800817D01*
X43310776Y-67793476D01*
X43197472Y-67797199D01*
X43197472Y-67797199D01*
G37*
X43197472Y-67797199D02*
X43087660Y-67812043D01*
X42984895Y-67838060D01*
X42892731Y-67875305D01*
X42891476Y-67875935D01*
X42800175Y-67930600D01*
X42720288Y-67997128D01*
X42651570Y-68076004D01*
X42593775Y-68167710D01*
X42546657Y-68272730D01*
X42509968Y-68391547D01*
X42483464Y-68524646D01*
X42466898Y-68672509D01*
X42464082Y-68715284D01*
X42460805Y-68816929D01*
X42461790Y-68924115D01*
X42466769Y-69030877D01*
X42475472Y-69131252D01*
X42486581Y-69213101D01*
X42499743Y-69277333D01*
X42518157Y-69347076D01*
X42540027Y-69416693D01*
X42563558Y-69480549D01*
X42586956Y-69533010D01*
X42590852Y-69540502D01*
X42613293Y-69578643D01*
X42641302Y-69620669D01*
X42671572Y-69662131D01*
X42700799Y-69698584D01*
X42725676Y-69725583D01*
X42733917Y-69732940D01*
X42758321Y-69752647D01*
X42718681Y-69794413D01*
X42646519Y-69883535D01*
X42586039Y-69986526D01*
X42537250Y-70103361D01*
X42500163Y-70234018D01*
X42485553Y-70307139D01*
X42474003Y-70392313D01*
X42466195Y-70490171D01*
X42462130Y-70595785D01*
X42461807Y-70704227D01*
X42465226Y-70810569D01*
X42472387Y-70909884D01*
X42483289Y-70997244D01*
X42485601Y-71011051D01*
X42516042Y-71145825D01*
X42557679Y-71266348D01*
X42610567Y-71372687D01*
X42674762Y-71464911D01*
X42750318Y-71543087D01*
X42837291Y-71607282D01*
X42935736Y-71657566D01*
X43039536Y-71692406D01*
X43088068Y-71701909D01*
X43149725Y-71709111D01*
X43219618Y-71713881D01*
X43292860Y-71716084D01*
X43364562Y-71715587D01*
X43429835Y-71712258D01*
X43483792Y-71705964D01*
X43490930Y-71704695D01*
X43605146Y-71675891D01*
X43707523Y-71634594D01*
X43798354Y-71580441D01*
X43877926Y-71513073D01*
X43946532Y-71432127D01*
X44004461Y-71337241D01*
X44052003Y-71228055D01*
X44089448Y-71104206D01*
X44117087Y-70965333D01*
X44124166Y-70915679D01*
X44128595Y-70868572D01*
X44131797Y-70807908D01*
X44133771Y-70738091D01*
X44133948Y-70720338D01*
X43787006Y-70720338D01*
X43785337Y-70794368D01*
X43781745Y-70859776D01*
X43776141Y-70912746D01*
X43775703Y-70915679D01*
X43753782Y-71025545D01*
X43723638Y-71119488D01*
X43684679Y-71198044D01*
X43636315Y-71261750D01*
X43577952Y-71311142D01*
X43509001Y-71346757D01*
X43428869Y-71369131D01*
X43336965Y-71378800D01*
X43265594Y-71378309D01*
X43209603Y-71373751D01*
X43156675Y-71365836D01*
X43115915Y-71356149D01*
X43045519Y-71328111D01*
X42986716Y-71290266D01*
X42938005Y-71240912D01*
X42897885Y-71178346D01*
X42864855Y-71100866D01*
X42850145Y-71054674D01*
X42834616Y-70993188D01*
X42823022Y-70928073D01*
X42815008Y-70855938D01*
X42810222Y-70773394D01*
X42808310Y-70677048D01*
X42808240Y-70652369D01*
X42811302Y-70518556D01*
X42820815Y-70400926D01*
X42837201Y-70298550D01*
X42860881Y-70210502D01*
X42892278Y-70135851D01*
X42931814Y-70073669D01*
X42979910Y-70023029D01*
X43036988Y-69983001D01*
X43103470Y-69952657D01*
X43130250Y-69943784D01*
X43180563Y-69933303D01*
X43242402Y-69927562D01*
X43309795Y-69926501D01*
X43376771Y-69930061D01*
X43437360Y-69938181D01*
X43475085Y-69947249D01*
X43548230Y-69977769D01*
X43610869Y-70021192D01*
X43663591Y-70078264D01*
X43706985Y-70149726D01*
X43741640Y-70236324D01*
X43761604Y-70308854D01*
X43769611Y-70354459D01*
X43776226Y-70414344D01*
X43781362Y-70484690D01*
X43784930Y-70561683D01*
X43786841Y-70641505D01*
X43787006Y-70720338D01*
X44133948Y-70720338D01*
X44134516Y-70663529D01*
X44134031Y-70588630D01*
X44132315Y-70517798D01*
X44129368Y-70455442D01*
X44125187Y-70405968D01*
X44124282Y-70398607D01*
X44099750Y-70254562D01*
X44065906Y-70125862D01*
X44022627Y-70012207D01*
X43969791Y-69913301D01*
X43907276Y-69828844D01*
X43878210Y-69797714D01*
X43839707Y-69759250D01*
X43880028Y-69716072D01*
X43944354Y-69637761D01*
X43998625Y-69550779D01*
X44043335Y-69453714D01*
X44078979Y-69345158D01*
X44106048Y-69223701D01*
X44125038Y-69087932D01*
X44133171Y-68992999D01*
X44136030Y-68914923D01*
X43787514Y-68914923D01*
X43786299Y-68987316D01*
X43783179Y-69050963D01*
X43779074Y-69094282D01*
X43761461Y-69197939D01*
X43736408Y-69290351D01*
X43704574Y-69369597D01*
X43666617Y-69433757D01*
X43659542Y-69443103D01*
X43616257Y-69485681D01*
X43559251Y-69522936D01*
X43492653Y-69552776D01*
X43420594Y-69573113D01*
X43393321Y-69577818D01*
X43339260Y-69582035D01*
X43276071Y-69581650D01*
X43211498Y-69577086D01*
X43153285Y-69568763D01*
X43129583Y-69563481D01*
X43056853Y-69537839D01*
X42995456Y-69501077D01*
X42944176Y-69451865D01*
X42901793Y-69388874D01*
X42867089Y-69310775D01*
X42850106Y-69258396D01*
X42834585Y-69196919D01*
X42822997Y-69131776D01*
X42814990Y-69059580D01*
X42810211Y-68976949D01*
X42808308Y-68880496D01*
X42808240Y-68856226D01*
X42809279Y-68762517D01*
X42812674Y-68682985D01*
X42818792Y-68613775D01*
X42827998Y-68551032D01*
X42840660Y-68490899D01*
X42844433Y-68475725D01*
X42873938Y-68384474D01*
X42912321Y-68308527D01*
X42960432Y-68247241D01*
X43019122Y-68199975D01*
X43089242Y-68166087D01*
X43171641Y-68144934D01*
X43267172Y-68135876D01*
X43295357Y-68135420D01*
X43367023Y-68137438D01*
X43426464Y-68144412D01*
X43479167Y-68157377D01*
X43530620Y-68177364D01*
X43539273Y-68181363D01*
X43601455Y-68220609D01*
X43655603Y-68275629D01*
X43701229Y-68345700D01*
X43737848Y-68430098D01*
X43761340Y-68511750D01*
X43769102Y-68556050D01*
X43775660Y-68614624D01*
X43780897Y-68683634D01*
X43784696Y-68759246D01*
X43786941Y-68837621D01*
X43787514Y-68914923D01*
X44136030Y-68914923D01*
X44137490Y-68875085D01*
X44135167Y-68754565D01*
X44126602Y-68635382D01*
X44112196Y-68521481D01*
X44092350Y-68416807D01*
X44067464Y-68325304D01*
X44064418Y-68316160D01*
X44037292Y-68246259D01*
X44004224Y-68176473D01*
X43968583Y-68113514D01*
X43945668Y-68079481D01*
X43905845Y-68032236D01*
X43855892Y-67983347D01*
X43801526Y-67937821D01*
X43748465Y-67900665D01*
X43727818Y-67888693D01*
X43636092Y-67848480D01*
X43533640Y-67819170D01*
X43424017Y-67800817D01*
X43310776Y-67793476D01*
X43197472Y-67797199D01*
G36*
X41353330Y-67796936D02*
X41284388Y-67800736D01*
X41222071Y-67806912D01*
X41171286Y-67815365D01*
X41168831Y-67815916D01*
X41051806Y-67850683D01*
X40946512Y-67898945D01*
X40852883Y-67960793D01*
X40770853Y-68036324D01*
X40700356Y-68125629D01*
X40641324Y-68228803D01*
X40593691Y-68345940D01*
X40557392Y-68477134D01*
X40532360Y-68622477D01*
X40521661Y-68730522D01*
X40519816Y-68767016D01*
X40518252Y-68821567D01*
X40516971Y-68894091D01*
X40515973Y-68984506D01*
X40515259Y-69092727D01*
X40514827Y-69218672D01*
X40514681Y-69362256D01*
X40514818Y-69523397D01*
X40515241Y-69702011D01*
X40515773Y-69854321D01*
X40516419Y-70012414D01*
X40517058Y-70153435D01*
X40517710Y-70278459D01*
X40518391Y-70388558D01*
X40519122Y-70484803D01*
X40519921Y-70568269D01*
X40520807Y-70640026D01*
X40521798Y-70701148D01*
X40522914Y-70752707D01*
X40524172Y-70795775D01*
X40525593Y-70831425D01*
X40527194Y-70860730D01*
X40528994Y-70884762D01*
X40531013Y-70904593D01*
X40533268Y-70921296D01*
X40534572Y-70929286D01*
X40559332Y-71051126D01*
X40589295Y-71157799D01*
X40625618Y-71251821D01*
X40669460Y-71335712D01*
X40721979Y-71411990D01*
X40784332Y-71483172D01*
X40793555Y-71492516D01*
X40873389Y-71563160D01*
X40958236Y-71619644D01*
X41049947Y-71662642D01*
X41150374Y-71692824D01*
X41261371Y-71710862D01*
X41384789Y-71717426D01*
X41414138Y-71717394D01*
X41463501Y-71716272D01*
X41512192Y-71714083D01*
X41554031Y-71711163D01*
X41579036Y-71708439D01*
X41678286Y-71686623D01*
X41777284Y-71650898D01*
X41870477Y-71603655D01*
X41951326Y-71548085D01*
X42032811Y-71470834D01*
X42103368Y-71379168D01*
X42163008Y-71273063D01*
X42211743Y-71152496D01*
X42249587Y-71017441D01*
X42265519Y-70938357D01*
X42267389Y-70924379D01*
X42269068Y-70904149D01*
X42270563Y-70876790D01*
X42271885Y-70841424D01*
X42273043Y-70797170D01*
X42274044Y-70743152D01*
X42274899Y-70678490D01*
X42275616Y-70602306D01*
X42276204Y-70513721D01*
X42276672Y-70411857D01*
X42277030Y-70295835D01*
X42277285Y-70164777D01*
X42277447Y-70017804D01*
X42277525Y-69854037D01*
X42277534Y-69767715D01*
X41946661Y-69767715D01*
X41946603Y-69891733D01*
X41946404Y-70014039D01*
X41946064Y-70133105D01*
X41945581Y-70247404D01*
X41944956Y-70355411D01*
X41944189Y-70455598D01*
X41943278Y-70546439D01*
X41942224Y-70626408D01*
X41941027Y-70693977D01*
X41939685Y-70747620D01*
X41938199Y-70785810D01*
X41936969Y-70803592D01*
X41919466Y-70925636D01*
X41892902Y-71032218D01*
X41856949Y-71123776D01*
X41811280Y-71200750D01*
X41755567Y-71263582D01*
X41689482Y-71312709D01*
X41612698Y-71348573D01*
X41524888Y-71371613D01*
X41512179Y-71373763D01*
X41450200Y-71379351D01*
X41380062Y-71378784D01*
X41308771Y-71372586D01*
X41243330Y-71361279D01*
X41205549Y-71350873D01*
X41129289Y-71318185D01*
X41063817Y-71274423D01*
X41008406Y-71218565D01*
X40962329Y-71149590D01*
X40924859Y-71066477D01*
X40895270Y-70968203D01*
X40879288Y-70892242D01*
X40876757Y-70876744D01*
X40874498Y-70859141D01*
X40872491Y-70838316D01*
X40870715Y-70813149D01*
X40869149Y-70782524D01*
X40867772Y-70745323D01*
X40866563Y-70700426D01*
X40865500Y-70646718D01*
X40864563Y-70583078D01*
X40863732Y-70508391D01*
X40862984Y-70421537D01*
X40862299Y-70321399D01*
X40861656Y-70206859D01*
X40861034Y-70076799D01*
X40860411Y-69930100D01*
X40860192Y-69875257D01*
X40859579Y-69698781D01*
X40859218Y-69539445D01*
X40859129Y-69396248D01*
X40859336Y-69268190D01*
X40859859Y-69154269D01*
X40860721Y-69053484D01*
X40861943Y-68964834D01*
X40863547Y-68887319D01*
X40865555Y-68819936D01*
X40867989Y-68761685D01*
X40870870Y-68711565D01*
X40874221Y-68668575D01*
X40878062Y-68631714D01*
X40882416Y-68599980D01*
X40887304Y-68572374D01*
X40888674Y-68565710D01*
X40915872Y-68463582D01*
X40951378Y-68376917D01*
X40996012Y-68304652D01*
X41050596Y-68245724D01*
X41115950Y-68199070D01*
X41192896Y-68163626D01*
X41201586Y-68160545D01*
X41226695Y-68152528D01*
X41250626Y-68146894D01*
X41277324Y-68143256D01*
X41310731Y-68141226D01*
X41354791Y-68140419D01*
X41406678Y-68140416D01*
X41464043Y-68140950D01*
X41507072Y-68142271D01*
X41539567Y-68144771D01*
X41565333Y-68148842D01*
X41588171Y-68154875D01*
X41605525Y-68160869D01*
X41667045Y-68187082D01*
X41717130Y-68217224D01*
X41762482Y-68255624D01*
X41780134Y-68273560D01*
X41829586Y-68337079D01*
X41869912Y-68413751D01*
X41901415Y-68504409D01*
X41924401Y-68609887D01*
X41936470Y-68701558D01*
X41938079Y-68727058D01*
X41939551Y-68769164D01*
X41940885Y-68826349D01*
X41942082Y-68897088D01*
X41943141Y-68979853D01*
X41944062Y-69073118D01*
X41944844Y-69175357D01*
X41945487Y-69285041D01*
X41945990Y-69400646D01*
X41946354Y-69520645D01*
X41946578Y-69643509D01*
X41946661Y-69767715D01*
X42277534Y-69767715D01*
X42277536Y-69759071D01*
X42277542Y-69587467D01*
X42277531Y-69432957D01*
X42277452Y-69294496D01*
X42277258Y-69171034D01*
X42276901Y-69061525D01*
X42276333Y-68964921D01*
X42275504Y-68880174D01*
X42274367Y-68806237D01*
X42272874Y-68742062D01*
X42270975Y-68686601D01*
X42268624Y-68638808D01*
X42265771Y-68597634D01*
X42262369Y-68562032D01*
X42258368Y-68530955D01*
X42253721Y-68503354D01*
X42248380Y-68478182D01*
X42242296Y-68454391D01*
X42235421Y-68430935D01*
X42227706Y-68406765D01*
X42219104Y-68380834D01*
X42213189Y-68363067D01*
X42165913Y-68243367D01*
X42108108Y-68138342D01*
X42039306Y-68047570D01*
X41959036Y-67970627D01*
X41866831Y-67907091D01*
X41762221Y-67856538D01*
X41644737Y-67818546D01*
X41597178Y-67807432D01*
X41550820Y-67800759D01*
X41491454Y-67796850D01*
X41423988Y-67795608D01*
X41353330Y-67796936D01*
X41353330Y-67796936D01*
G37*
X41353330Y-67796936D02*
X41284388Y-67800736D01*
X41222071Y-67806912D01*
X41171286Y-67815365D01*
X41168831Y-67815916D01*
X41051806Y-67850683D01*
X40946512Y-67898945D01*
X40852883Y-67960793D01*
X40770853Y-68036324D01*
X40700356Y-68125629D01*
X40641324Y-68228803D01*
X40593691Y-68345940D01*
X40557392Y-68477134D01*
X40532360Y-68622477D01*
X40521661Y-68730522D01*
X40519816Y-68767016D01*
X40518252Y-68821567D01*
X40516971Y-68894091D01*
X40515973Y-68984506D01*
X40515259Y-69092727D01*
X40514827Y-69218672D01*
X40514681Y-69362256D01*
X40514818Y-69523397D01*
X40515241Y-69702011D01*
X40515773Y-69854321D01*
X40516419Y-70012414D01*
X40517058Y-70153435D01*
X40517710Y-70278459D01*
X40518391Y-70388558D01*
X40519122Y-70484803D01*
X40519921Y-70568269D01*
X40520807Y-70640026D01*
X40521798Y-70701148D01*
X40522914Y-70752707D01*
X40524172Y-70795775D01*
X40525593Y-70831425D01*
X40527194Y-70860730D01*
X40528994Y-70884762D01*
X40531013Y-70904593D01*
X40533268Y-70921296D01*
X40534572Y-70929286D01*
X40559332Y-71051126D01*
X40589295Y-71157799D01*
X40625618Y-71251821D01*
X40669460Y-71335712D01*
X40721979Y-71411990D01*
X40784332Y-71483172D01*
X40793555Y-71492516D01*
X40873389Y-71563160D01*
X40958236Y-71619644D01*
X41049947Y-71662642D01*
X41150374Y-71692824D01*
X41261371Y-71710862D01*
X41384789Y-71717426D01*
X41414138Y-71717394D01*
X41463501Y-71716272D01*
X41512192Y-71714083D01*
X41554031Y-71711163D01*
X41579036Y-71708439D01*
X41678286Y-71686623D01*
X41777284Y-71650898D01*
X41870477Y-71603655D01*
X41951326Y-71548085D01*
X42032811Y-71470834D01*
X42103368Y-71379168D01*
X42163008Y-71273063D01*
X42211743Y-71152496D01*
X42249587Y-71017441D01*
X42265519Y-70938357D01*
X42267389Y-70924379D01*
X42269068Y-70904149D01*
X42270563Y-70876790D01*
X42271885Y-70841424D01*
X42273043Y-70797170D01*
X42274044Y-70743152D01*
X42274899Y-70678490D01*
X42275616Y-70602306D01*
X42276204Y-70513721D01*
X42276672Y-70411857D01*
X42277030Y-70295835D01*
X42277285Y-70164777D01*
X42277447Y-70017804D01*
X42277525Y-69854037D01*
X42277534Y-69767715D01*
X41946661Y-69767715D01*
X41946603Y-69891733D01*
X41946404Y-70014039D01*
X41946064Y-70133105D01*
X41945581Y-70247404D01*
X41944956Y-70355411D01*
X41944189Y-70455598D01*
X41943278Y-70546439D01*
X41942224Y-70626408D01*
X41941027Y-70693977D01*
X41939685Y-70747620D01*
X41938199Y-70785810D01*
X41936969Y-70803592D01*
X41919466Y-70925636D01*
X41892902Y-71032218D01*
X41856949Y-71123776D01*
X41811280Y-71200750D01*
X41755567Y-71263582D01*
X41689482Y-71312709D01*
X41612698Y-71348573D01*
X41524888Y-71371613D01*
X41512179Y-71373763D01*
X41450200Y-71379351D01*
X41380062Y-71378784D01*
X41308771Y-71372586D01*
X41243330Y-71361279D01*
X41205549Y-71350873D01*
X41129289Y-71318185D01*
X41063817Y-71274423D01*
X41008406Y-71218565D01*
X40962329Y-71149590D01*
X40924859Y-71066477D01*
X40895270Y-70968203D01*
X40879288Y-70892242D01*
X40876757Y-70876744D01*
X40874498Y-70859141D01*
X40872491Y-70838316D01*
X40870715Y-70813149D01*
X40869149Y-70782524D01*
X40867772Y-70745323D01*
X40866563Y-70700426D01*
X40865500Y-70646718D01*
X40864563Y-70583078D01*
X40863732Y-70508391D01*
X40862984Y-70421537D01*
X40862299Y-70321399D01*
X40861656Y-70206859D01*
X40861034Y-70076799D01*
X40860411Y-69930100D01*
X40860192Y-69875257D01*
X40859579Y-69698781D01*
X40859218Y-69539445D01*
X40859129Y-69396248D01*
X40859336Y-69268190D01*
X40859859Y-69154269D01*
X40860721Y-69053484D01*
X40861943Y-68964834D01*
X40863547Y-68887319D01*
X40865555Y-68819936D01*
X40867989Y-68761685D01*
X40870870Y-68711565D01*
X40874221Y-68668575D01*
X40878062Y-68631714D01*
X40882416Y-68599980D01*
X40887304Y-68572374D01*
X40888674Y-68565710D01*
X40915872Y-68463582D01*
X40951378Y-68376917D01*
X40996012Y-68304652D01*
X41050596Y-68245724D01*
X41115950Y-68199070D01*
X41192896Y-68163626D01*
X41201586Y-68160545D01*
X41226695Y-68152528D01*
X41250626Y-68146894D01*
X41277324Y-68143256D01*
X41310731Y-68141226D01*
X41354791Y-68140419D01*
X41406678Y-68140416D01*
X41464043Y-68140950D01*
X41507072Y-68142271D01*
X41539567Y-68144771D01*
X41565333Y-68148842D01*
X41588171Y-68154875D01*
X41605525Y-68160869D01*
X41667045Y-68187082D01*
X41717130Y-68217224D01*
X41762482Y-68255624D01*
X41780134Y-68273560D01*
X41829586Y-68337079D01*
X41869912Y-68413751D01*
X41901415Y-68504409D01*
X41924401Y-68609887D01*
X41936470Y-68701558D01*
X41938079Y-68727058D01*
X41939551Y-68769164D01*
X41940885Y-68826349D01*
X41942082Y-68897088D01*
X41943141Y-68979853D01*
X41944062Y-69073118D01*
X41944844Y-69175357D01*
X41945487Y-69285041D01*
X41945990Y-69400646D01*
X41946354Y-69520645D01*
X41946578Y-69643509D01*
X41946661Y-69767715D01*
X42277534Y-69767715D01*
X42277536Y-69759071D01*
X42277542Y-69587467D01*
X42277531Y-69432957D01*
X42277452Y-69294496D01*
X42277258Y-69171034D01*
X42276901Y-69061525D01*
X42276333Y-68964921D01*
X42275504Y-68880174D01*
X42274367Y-68806237D01*
X42272874Y-68742062D01*
X42270975Y-68686601D01*
X42268624Y-68638808D01*
X42265771Y-68597634D01*
X42262369Y-68562032D01*
X42258368Y-68530955D01*
X42253721Y-68503354D01*
X42248380Y-68478182D01*
X42242296Y-68454391D01*
X42235421Y-68430935D01*
X42227706Y-68406765D01*
X42219104Y-68380834D01*
X42213189Y-68363067D01*
X42165913Y-68243367D01*
X42108108Y-68138342D01*
X42039306Y-68047570D01*
X41959036Y-67970627D01*
X41866831Y-67907091D01*
X41762221Y-67856538D01*
X41644737Y-67818546D01*
X41597178Y-67807432D01*
X41550820Y-67800759D01*
X41491454Y-67796850D01*
X41423988Y-67795608D01*
X41353330Y-67796936D01*
D10*
G36*
X47308693Y-46558799D02*
X46816937Y-44723540D01*
X49811307Y-43921201D01*
X50303063Y-45756460D01*
X47308693Y-46558799D01*
X47308693Y-46558799D01*
G37*
G36*
X43655736Y-49597767D02*
X42312233Y-48254264D01*
X44504264Y-46062233D01*
X45847767Y-47405736D01*
X43655736Y-49597767D01*
X43655736Y-49597767D01*
G37*
G36*
X42006460Y-54053063D02*
X40171201Y-53561307D01*
X40973540Y-50566937D01*
X42808799Y-51058693D01*
X42006460Y-54053063D01*
X42006460Y-54053063D01*
G37*
G36*
X40171201Y-56238693D02*
X42006460Y-55746937D01*
X42808799Y-58741307D01*
X40973540Y-59233063D01*
X40171201Y-56238693D01*
X40171201Y-56238693D01*
G37*
G36*
X42312233Y-61545736D02*
X43655736Y-60202233D01*
X45847767Y-62394264D01*
X44504264Y-63737767D01*
X42312233Y-61545736D01*
X42312233Y-61545736D01*
G37*
G36*
X46816937Y-65076460D02*
X47308693Y-63241201D01*
X50303063Y-64043540D01*
X49811307Y-65878799D01*
X46816937Y-65076460D01*
X46816937Y-65076460D01*
G37*
G36*
X55957724Y-59467339D02*
X54312276Y-58517339D01*
X55862276Y-55832661D01*
X57507724Y-56782661D01*
X55957724Y-59467339D01*
X55957724Y-59467339D01*
G37*
G36*
X46437724Y-53967339D02*
X44792276Y-53017339D01*
X46342276Y-50332661D01*
X47987724Y-51282661D01*
X46437724Y-53967339D01*
X46437724Y-53967339D01*
G37*
G36*
X51996937Y-45756460D02*
X52488693Y-43921201D01*
X55483063Y-44723540D01*
X54991307Y-46558799D01*
X51996937Y-45756460D01*
X51996937Y-45756460D01*
G37*
G36*
X56452233Y-47405736D02*
X57795736Y-46062233D01*
X59987767Y-48254264D01*
X58644264Y-49597767D01*
X56452233Y-47405736D01*
X56452233Y-47405736D01*
G37*
G36*
X59491201Y-51058693D02*
X61326460Y-50566937D01*
X62128799Y-53561307D01*
X60293540Y-54053063D01*
X59491201Y-51058693D01*
X59491201Y-51058693D01*
G37*
G36*
X61326460Y-59233063D02*
X59491201Y-58741307D01*
X60293540Y-55746937D01*
X62128799Y-56238693D01*
X61326460Y-59233063D01*
X61326460Y-59233063D01*
G37*
G36*
X57795736Y-63737767D02*
X56452233Y-62394264D01*
X58644264Y-60202233D01*
X59987767Y-61545736D01*
X57795736Y-63737767D01*
X57795736Y-63737767D01*
G37*
G36*
X52488693Y-65878799D02*
X51996937Y-64043540D01*
X54991307Y-63241201D01*
X55483063Y-65076460D01*
X52488693Y-65878799D01*
X52488693Y-65878799D01*
G37*
D12*
X41870000Y-74150000D03*
D13*
X44410000Y-74150000D03*
X46950000Y-74150000D03*
X49490000Y-74150000D03*
X52030000Y-74150000D03*
X54570000Y-74150000D03*
X57110000Y-74150000D03*
X59650000Y-74150000D03*
M02*
